<svg xmlns="http://www.w3.org/2000/svg" width="600" height="600" viewBox="0 0 600 600">
  <metadata><?xpacket begin="﻿" id="W5M0MpCehiHzreSzNTczkc9d"?>
<x:xmpmeta xmlns:x="adobe:ns:meta/" x:xmptk="Adobe XMP Core 5.6-c138 79.159824, 2016/09/14-01:09:01        ">
   <rdf:RDF xmlns:rdf="http://www.w3.org/1999/02/22-rdf-syntax-ns#">
      <rdf:Description rdf:about=""/>
   </rdf:RDF>
</x:xmpmeta>
                                                                                                    
                                                                                                    
                                                                                                    
                                                                                                    
                                                                                                    
                                                                                                    
                                                                                                    
                                                                                                    
                                                                                                    
                                                                                                    
                                                                                                    
                                                                                                    
                                                                                                    
                                                                                                    
                                                                                                    
                                                                                                    
                                                                                                    
                                                                                                    
                                                                                                    
                                                                                                    
                           
<?xpacket end="w"?></metadata>
<defs>
    <style>
      .cls-1 {
        fill: #3d4549;
        fill-rule: evenodd;
      }
    </style>
  </defs>
  <path id="Color_Fill_1" data-name="Color Fill 1" class="cls-1" d="M449,244h-3l1,4h-3v5s-1.159-.2-1,2c0.489,0.716,1.425.025,1,2h-1l1,2h-1v1h-1q-0.5-4.5-1-9c-3.2.826-2.9,1.179-3,5a31.056,31.056,0,0,1,3,7h-1v2l-3-1v1c-2.3,2.04-.635,2.47-2,5l-2,1v2h-1v2h-1v6h-1v3h-1v11h1l3-5h1v4h-1q-0.5,3.5-1,7h-1l-1,3h2c-0.844,1.135.127,0.145-1,1v1h-3c-0.216,2.94-1.364,5.865-2,8q-0.5,6-1,12h-1v5h-1v2h-1v4h-1v4h-1v3h-1v4h-1v4h-1v4h-1v4a150.411,150.411,0,0,0-8,47c3.446,2.081,2.882,3.069,5,6l5,4v2l2,1q0.5,2.5,1,5h1v3h1v2h1v2l2,1,2,6h1v4c1.924,5.294,4.736,11.062,7,16l10,3v1h3v1h2v1h2v1h2v1h2v1h2l2,2h2l1,2,4,1,1,2h2l2,2h2v1h2v1l4,1v1l4,1v1l4,1v1h2v1h2v1h2v1h2v1h2v1l6,2v1l4,1v1l4,1v1h2v1h2v1h2v1h2v1h2v1l4,1v1h2v1h3v1h2v1l6,1v1l6,1v1l5,1v1l4,1v1h3v1l4,1v1l4,1q0.5,1,1,2h2v1l4,1v1h3v1h5v1h4v1h3v1h2v1h3q0.5,1,1,2h2v1h2v1h1v1h1v66c-94.937.02-193.152,0.027-285,0v-1c3.245-2.191,3.725-5.793,6-9l5-4v-2h1l2-3,2-1,2-6,5-4v-2l2-1,1-4,2-1v-2l2-1,4-5h2v-1l3-2v-2l3-2v-2l4-3,1-3,7-5,1-4,3-2v-2h1q0.5-2.5,1-5l2-1,1-4,2-1v-2l2-1v-2h1v-3h1v-3h1l1-4h1l1-4,2-2v-2l2-1v-2l2-1v-2l2-1,2-6h1v-2h1v-1h-1v-4h2v-2h-2q1-6.5,2-13h-1v-2h-1c-0.633-2.745,1.9-2,2-4h-1l1-2h-2a18.739,18.739,0,0,0,1-4c-2.01-.574-0.865.12-2-1,0.788-.616,2.082-0.541,2-2-0.7-.068-2.807.622-2-1h1c1.139-1.139,0-.4,2-1q0.5-5,1-10h-2a40.116,40.116,0,0,0-1-9h-2l2-6h-3v5h-2a14.809,14.809,0,0,1,1-6l-4,1v-1c1.139-1.139.4,0,1-2h-2v-2h2c0.539-4.6.99-2.489,3-5l-3,1v1c-1.2-.053-1.578-0.912-4-1-0.723,2.762-.279,2.237-3,3v1h-1v-1l-4-1v4c-3.1,1.643-1.8,1.9-7,2-0.718,3.605-1.3,4.5,0,8-3.16-.113-1.874-1.955-3,1-1.139,1.139-.4,0-1,2-1.3-.358-2.045.86-2-1h1a4.332,4.332,0,0,0-2-2l1,2h-2c-1.925,1.775-3.369,4.994-4,8-5.783,1.224-5.017,4.55-9,7,1.139,1.139,0,.4,2,1-0.77,3.215-1.508,2.155-2,6h1a7.742,7.742,0,0,1,3-2v2c-3.512,2.461-.243,2.26-2,5h-1v-1l-4,1a20.109,20.109,0,0,0,1,4c-1.138,1.5-1.853-1.085-3,3l4-1c-0.644,2.739-1.309,2.276-2,5h-2v-2l-3-1v1h-1l1,3h-1c-1.264,1.9-1.645,1.877-2,5h-4v-1c2.813-1.522,3.844-2.621,4-7-1.413.054,0.393,0.758-1,1-0.86,1.889-1-2-1-2h1l-1-3h1l1-4h2a9.749,9.749,0,0,1,1-4h-3v-1h1v-1h1v1c1.654,0.979.846-1.44,1-2l-5,1v-2h1l-1-2,2-1-1-4h-2l-1-3-3,2c-0.463-2.391-1.158-3.145-2-5-1.8.945-1.574,1.385-4,2v-4h-1c-1.127,1.719-.633,1.355-3,2,0.054-1.413.758,0.393,1-1,1.889-.86-2-1-2-1l-1-4h-3v-1h-1c-0.906-1.346.634-3.617,1-4h-3c-1.129,1.975-1.417,2.338-4,3v-2h2l1-3h-2v-4l-4,1,1-3-2,1v-1c-1.882-.676-0.707-1.344-2,0h-1l2,3c0,0.021-3.327,1.823-3,3l2,1v4l-4,1v1l-6-1v4h-1v-1h-6v-2c-2.285.118-2.6,0.833-4,1v-1l-4-1v2c-1.135-.844-0.145.127-1-1h-1v-1h1c0.979-1.654-1.44-.846-2-1-0.69-.717-1.792-1.9-3-2-0.724.555,0.323,1.5-1,1v-1h-2v-1l-4-1v-1h-2v-1c-1.854-.622-1.409.541-2,1-0.665-.064-3-2.542-3,0h-1v-2l3-1v-1c-1.135-.844-0.145.127-1-1l-4,1v-2h1v-1h-1c-1.127-1.719-.633-1.355-3-2v-2h-4v-2l-4,1a11.878,11.878,0,0,0,1,5h-3v-3l-5,1v1c4.378,0.494,3.577,1.982,6,4l-1,3c-1.139-1.139-.4,0-1-2-2.01-.574-0.865.12-2-1l-3,1,2,4h-3v-1h-3v-1c-1.135-.844-0.145.127-1-1,2.01-.574.865,0.12,2-1-2.739-.644-2.276-1.309-5-2l1-3-2-1v-2h-2v-4h-1c-1.627-2.474-1.681-1.89-2-6,0,0-2.017-.018-1-1h2c-0.723-2.762-.279-2.237-3-3v2c-1.135-.844-0.145.127-1-1h-1l1-3-2-1v-2h-1c-1.36-1.494-.507-1.329-3-2-0.743-3-2.377-3.912-4-6h-1c-1.746-2.753.55-4.887,0-6h-1c-1.139-1.139,0-.4-2-1v-2l-3,1v-3l7,1a9.749,9.749,0,0,0,1,4l3-1v3h1c1.007-3.052-.058-1.153,4-1v2h1l-1,1c0.215,2.446.539,1.948,2,3l-1-3c2.209-.008,5.277.67,6-1h1v2c1.258,1.2,4.656,1.77,7,2v2c1.8,0.944,1.574,1.385,4,2v-1h3c0.359-.207.927-1.434,2-2v-1h-4v-1h1c1.256-1.909,1.014-1.659,4-2l1,3,3-1c-0.054,1.413-.758-0.393-1,1-1.889.86,2,1,2,1v2h2v-3h1v1h3l2,3,3,1v2c1.016-.771.984-1.229,2-2v3l3-1v3l4,1v1h3l1,2,3-1c0.691,0.212.442,2.279,2,2a2.457,2.457,0,0,1,2-1v-2h3l1,5c1.4-.508,2.478-1.441,5-1v1h1v-1h5l-1,2h5v-2l5,1v1l3-1v1a5.442,5.442,0,0,0-2,2h1v1c1.3-1.048,1.489-2.043,3-3-1.139-1.139,0-.4-2-1l1-3c4.735,1.661,3.463.451,7-1v2h1v-1h1v1c2.359,0.535,2.6-.749,4-1v1c1.17,0.246,1.724-1.573,4-1v1h3v1c1.71,0.354,1.717-.935,2-1h12c1.615-2.517,3.633-2.238,6-4l-1-2,5-1,2-3c1.983-.262.7,1.518,2,0h1a1.209,1.209,0,0,0-1-2v-1h3c1.208-.91,1.812-3.8,2-6h-3v-5h2v2c2.612,1.382,1.693,1.769,6,2l1-3h2c0.644-2.739,1.309-2.276,2-5h2v2h2c-0.993-3.074-.934-0.955,0-4l3,1c0.06,1.413-.172-0.146-1,1-1.142,1.581,2.458.931,3,1,1.32-2.006,3.228-2.489,6-3,0.723-2.762.279-2.237,3-3v-1h3l2-6,5-1v-1c2.173-1.944,2.824-6,4-9h1q-0.5-2.5-1-5l2-1q0.5-2.5,1-5h-2l3-14c-2.01-.574-0.865.12-2-1l2-1s-1.39-3.585-1-5h1v-8h1v-3h1c0.357-1.659-.959-1.793-1-2q0.5-3,1-6h2a15.682,15.682,0,0,1-1-6h2q0.5-4,1-8h1v-2l2-1v-6h1v-3h1v-6h-1v-1h1v-6a2.471,2.471,0,0,1-1-3l2-1v-2h1c0.98-1.477.815-2.472,1-5h-1v2c-1.139,1.139-.4,0-1,2h-2v-4l4-1c-0.7-2.835-1.783-2.888-3-5,1.135-.844.145,0.127,1-1h3v-2h-1l1-3-2,1v-4l-3-1v-1h-3v-1h1v-6h-2l-2,6h-1c-2.378,5.106-3.105,10.534-9,12-4.589,4.612-15.8.984-23,3v1c-3.669,1.076-8.814-.858-11-1l-2,1v-1c-2.685-.592-9.822,1.035-10,1v-1l-5-1v-1l-9-1-1-2h-3v-1h-2v-1h-1v2c-1.309-.535.233-0.307-1-1l-5-6c-1.489-.934-3.107.414-4-1v-2h-2l-1,3h-1l1-3-2,1v-2l-2-1v-5l-2-1v-5a3.768,3.768,0,0,1-2-2l2-1s-1.918-5.935-2-8h1a3.982,3.982,0,0,0,2,2v-3h1c0.844,1.135-.127.145,1,1,1.2,3.255,2.241,7.229,5,9v-1h-1v-4h-1l-1-4h-1v-4c-0.535-1.309-.476.314-1-1-1.3,1.048-1.489,2.043-3,3v-2c-1.433-1.478-1.917-5.053-2-8h1a3.982,3.982,0,0,0,2,2v-1h-1v-3h-1a3.982,3.982,0,0,1-2,2c-0.36-4.325-1.423-4.914-6-5v-1c-1.685-.829-7.69,2.447-8,3q-1,6.5-2,13c-0.9,1.018-1.256-.391-1,1h2c-0.358,1.507-1.854,1.674-2,2v3h-1v2h-1l1,3h-2c-0.417,4.684-3.256,5.872-5,9l-2,6-3,1c-1.784,6.638-8.886,7.564-15,10v1h-3v1h-4v1h-6v1h-8v1l-3-1v1H233v-1l-20-1v-1l-6-2c-0.665-1.279-1.578-1.366-2-2v-2l-2-1v-2l-2-1q-0.5-2.5-1-5h-1v-3h-1v-3h-1v-2h-1v-4h-1v-4h-1l-4-5c-1.135.844-.145-0.127-1,1h-1v2h-1q0.5,1.5,1,3l-3,1q-0.5,1.5-1,3h-1c-1.563,1.777-1.165,2.234-4,3-0.571,3.024-2.235,5.66-3,8v6h-1v6h-1v25h1q-0.5,2.5-1,5h-2c0.463,2.391,1.158,3.145,2,5h-5q-0.5-3.5-1-7h-1V252h-1v-4h-1q0.5-2,1-4h1c0.484-3-1.563-2.021-2-3v-2l-3-1v-1h-2q-0.5-1-1-2h-2c-3.736-2.709-3.218-8.5-3-15h-1q-0.5-2.5-1-5h-1v-3h-1v-2h-1q-2.5-8.5-5-17,0.5-6,1-12c0.049-8.022-1.375-12.682-2-19h-2c-0.114-5.288.492-6.822,2-10v-1h-1q0.5-3,1-6h1q0.5-4.5,1-9h1v-2l2-1v-2l2-1v-3h1q0.5-5.5,1-11h1v-4h1v-4h1q0.5-4.5,1-9h1q1-3,2-6h1V91h1V89h1q0.5-2,1-4l2-1V82l4-3V77l2-1,3-4h2l2-3h2l1-2h3V66h2V65h2V64h2V63h2V62l6-2,1-2h2l5-6h2V51l13-1,4-5,11-1V43h2V42h3V41l3-1c-1.72-2.135-2.033-.566-3-4h3V34c-2.077.055-3.231-.5-4,1h-1V34l-1-2h-7V31h-1V30h2v1h4a9.749,9.749,0,0,1,1-4c2.405,0.873,6.608.038,10,1v1h7v1h3v1h8v1l11-1V30l6-2V27h3V26h2V25l6-2V22h3V21l4-1V19h5c1.377-.426,5.863-2.455,8-2v1h8l13-2v1h3v1h3l2,3h5v1l4,1,1,2h2l1,2h2l2,3c2.088,1.317,4.287-.047,7,1v1l4,1,1,2,4,1,1,2,6,2c6.031,3.83,11.887,11.888,17,17l15,13v2l4,3v2l3,2v2l2,1v2h1q0.5,2,1,4h1c1.369,3.783-.883,8.159,1,11h1l1,2h2l1,2h2l1,2,5,4q1,4.5,2,9h1v2h1v3h1v3h1v5h1q1,5.5,2,11h1v3h1v4h1q-0.5,12.5-1,25C457.1,195.762,450.113,220.553,449,244ZM329,22l-1,2h4V23Zm11,3v1h4V25h-4ZM281,66a34.216,34.216,0,0,0,1,8h-1c-0.967-1.682-2.794-3.718-5-4-1.09.744,0.374,1.334-1,1V70h-4l-1,2h-2v1l-4,1v1l-7,1v1l-4,1V76l-4,1v2c-2.952.661-2.422,1.748-3,2h-6l-1,1-1,3h-2c-1.651,2.808-4.03,3.4-5,7h-2c-1.113,4.094-.684,1.031-3,3v1h-1v2h-1l-3,4-2,1v4c-0.905,1.389-2.628.007-4,1,0.24,1.394.217-.178,1,1l-3,7-3-1q-0.5,2.5-1,5h-2v-3h-1v1c-1.139,1.139-.4,0-1,2h2q-2,6-4,12h-1v-5h-1v1h-1v5c-0.029.092-.623-0.186-1,2h-2a15.682,15.682,0,0,1,1,6h-2v4h-1q0.5,1.5,1,3c-1.376,1.681-1.847-1.083-3,3-4.264.4-4.521,2.069-8,3v1h2v-1h3v-1l3-1v5h-1c-1.586,2.276-3.119,2.911-4,6h2c-1.146,1.938-2.676,2.381-4,4h4c2.6-2.315,8.185-.845,12-2v-1h7c8.341-2.4,35.613-3.766,45-1h13v1h2v1h1v-1l3,1v1c2.142-.1.257-0.677,1-2,1.587,1.1.137,0.117,1,2l12,4v1h2v1h2v1l5,1v1h1v-1h11v-1h1v1h12v-1l4-1v-1h2l1-2h3v-1h2v-1l8-1v-1h3v-1h3v-1h13c11.118-3.114,36.388-.893,47,1v-1h-2l1-2-2-1c-0.476-1.445,1.8-1.421,2-2q-0.5-4-1-8l-4,1c-0.723-2.762-.279-2.237-3-3-0.113-3.16-1.955-1.874,1-3v2h5v-3c-3.16.113-1.874,1.955-3-1h2v-2l-3,1c-0.644-2.739-1.309-2.276-2-5h-4v-3h4v-1a9.749,9.749,0,0,1-4-1q0.5-3,1-6h-1c-1.139-1.139,0-.4-2-1l1,4h-1c-0.844-1.135.127-.145-1-1l-1-2h1v-5l-2-1v-4h-1l1-3h1l-1-2-2,1v1c-1.324.5-.2-0.466-1-1-1.139-1.139-.4,0-1-2h-2v-3c1.413-.06-0.146.172,1,1,1.581,1.142.931-2.458,1-3-1-.684-1.8-0.5-2-2,0.563-.857,1.469.334,1-1-0.068-.193-0.692-0.019-1-2-1.448-.6-1.678-1.438-3,0l1-3h-2l-1-3-2-1c-1.656-3.472,2.4-2.165,0-4v1h-3V86c-7.359-3.23-12.065-8.42-22-9l-1-3-7,1V74h-2V73h-8V72c-6.392-1.86-10.03,1.855-16,0V71h-4V70h-2V69h-9V67c-3.494-1.847-5.13-2.071-11-2C288.548,67.336,284.193,66.324,281,66ZM250,78h2v1C249.99,78.426,251.135,79.12,250,78Zm-39,40h3v2h-3v-2Zm181,2,1,3h2v-1Zm5,8v2h1v-2h-1Zm2,9c1.691,2.151,2,2,2,2C401.736,138.028,399.266,137.242,399,137Zm-9,3c1.139,1.139.4,0,1,2h-1v-2Zm4,1h2v2h-2v-2Zm-201,3h2v-1c-1.135-.844-0.145.127-1-1h-1v2Zm-5,2q-0.5,1-1,2c0.074-.042,2.9-1.586,2-2h-1Zm-6,6q-0.5,1.5-1,3h1a3.982,3.982,0,0,1,2-2C182.861,151.861,184,152.6,182,152Zm-5,4v2h2q0.5-1.5,1-3h-1C177.861,156.139,179,155.4,177,156Zm2,4h2l3-4h-1c-1.773,2.666-3.99,2.3-5,6h1v-2Zm90,1c2.739,0.644,2.276,1.309,5,2v1C270.593,163.675,270.324,163.228,269,161Zm140,0c1.139,1.139,0,.4,2,1C409.861,160.861,411,161.6,409,161Zm-149,8c1.139,1.139,0,.4,2,1C260.861,168.861,262,169.6,260,169Zm10,0v1l5,1v1h4v1l5,1v-1C279.661,171.09,276.263,169.178,270,169Zm-31,3v2a23.772,23.772,0,0,0-8,2v1c5.721-.315,4.593-0.928,9,1v-1h-1v-1h1c2.027-2.207,2.1-.833,5-2v-1h4v-1h-4v-1l-3-1C241.087,170.441,242.091,171.308,239,172Zm26-2c1.139,1.139,0,.4,2,1C265.861,169.861,267,170.6,265,170Zm4,1c1.139,1.139,0,.4,2,1C269.861,170.861,271,171.6,269,171Zm106,2v-2c-1.135.844-.145-0.127-1,1h-1C374.139,173.139,373,172.4,375,173Zm-146-1c-1.166,1.361-1.825,1.528-4,2v1h2c1.166-1.361,1.825-1.528,4-2v-1h-2Zm148,0,1,3h1v-2Zm-141,9q0.5,1.5,1,3h-4c-3.135-2.888-4.6.756-8,0-0.916-.2-6.472-2.635-8-2l-2,3c-2.19,1.025-3.826-2.7-7,2,1.988-.664,5-0.972,7,1h-2v1h-3v1h-2v1l-3,1v2h5v1c-2.512,1.365-3.6,2.333-4,6-2.716.293-1.575-.52-3,1h1v1l-3-1v5h1v4h1c2.835,7.284,3.1,16.972,11,19,2.582,2.961,5.823,1.683,10,3v1h6c11.627,3.279,30.514.431,39-3l5-1c3.893-2.41,8.922-8.738,10-14h1v3h-1q-0.5,2.5-1,5h1v-2c3.371-2.767,6.012-9.92,7-15h-1v2c-1.4,1.2-2.207,3.241-3,5h-1v-2h1q0.5-3,1-6h1c1-2.55,4.179-16.28,3-20h-1q-0.5-2.5-1-5a13.326,13.326,0,0,1-5-5c-3.015.413-3,1.241-6,0v-1h-4v-1h-2v-1h-1v1l-3-1v1h-2v1h-1v-1l-3,1,1,2h1v1h-1v1h-8v1h-3v-1l-3,1a2.822,2.822,0,0,0-3-1v1Zm93,10h3v-3l2,1v-1c2.3-1.317,1.951-2.14,5-3a13.813,13.813,0,0,1,5-7v-1l5-1v-2c-2.01-.574-0.865.12-2-1-7.017,1.16-12.6,4.529-19,6v-1h1c1.048-1.3,2.043-1.489,3-3h-1c-1.048,1.3-2.043,1.489-3,3h-1l1,2h-1v1h-1v-1c-1.654-.979-0.846,1.44-1,2-3.862,3.2-1.8,19.322,1,22v-5c-0.061-.269-1.264-0.323-1-2a2,2,0,0,0,1-2h-1v-1h1l2-6h1v3Zm60-18c1.892,2.99,2.08,1.544,5,3v1h3l-1,2,3,1c3.235,2.362-.073,4.274,6,5l1-3c-2.236-1.336-3.083-3.365-5-5v-1C398.15,174.031,392.486,174.287,389,173Zm-181,5c-0.7,3.377-2.168,3.852-3,7h1c2.12-2.446,4.939-2.307,6-6h4c1.248-2.155,2.687-2.931,5-4v-1h-5c-1.056,1.317-1.8,1.012-3,2q-0.5,1-1,2h-1v-1Zm-27-3-4,11-2,1-3,16h1v-2h1q0.5-3,1-6h1v-3h1v-3h1v-2h1v-3l2-1v-2h1v-6h-1Zm64,0v1h-4v1a29.413,29.413,0,0,0,7-1v-1h-3Zm-21,1-2,3h1v1s-2.131.152-1,1h3c0.844-1.135-.127-0.145,1-1v-1h-3v-1h2c1.139-1.139,0-.4,2-1v-1h-3Zm59,1h2v1C282.99,177.426,284.135,178.12,283,177Zm101,0c1.129,1.975,1.417,2.338,4,3A13.765,13.765,0,0,0,384,177Zm-166,1-2,3c1.311,0.609,1.548-1.849,2-2h2v-1h-2Zm9,2h5v-1a11.878,11.878,0,0,1-5-1v2Zm116,2v2h-2l-3,4h-1v2l-2,1v4h-1v2h-1c-1.361,3.913,1.442,6,0,8v1h-3a29.413,29.413,0,0,0,1,7c3.6,1.959,5.442,4.964,10,6v2h4l1,2,3-1v2h-2v2h2v-1l3,1c-2.258,3.839-1.489.55,1,5h-2v-1c-1.719-1.127-1.355-.633-2-3h-3v1c-1.139,1.139-.4,0-1,2l4-1v2h-2v1l7,1v1l22,1h8v-1h7c3.061-.993,6.418-3.215,10-4l2-3h1v-2h1l1-4h1v-3h1v-4h1q-0.5-3-1-6h-1l1-3h-2v2c-1.135-.844-0.145.127-1-1h-1l1-2c-1.419-1.237-1.14,1.033-3-2h3v-1l-4-3v-1h-5c-3.195-1.141-6.364-3.169-8-6h3l1,3h2v-1l3,1v-1l-3-1v-1h-3q-0.5-2.5-1-5h2v-1c-1.876-.823-2.616-1.481-5-2v2h3v1h-4v-2l-4-1v1c2.01,0.574.865-.12,2,1h-3c-0.709-2.1-1.03-.905,0-3h-1v1l-11-3v1l-12-1c-0.268-.061-0.32-1.273-2-1v1h-6v1Zm28-3c1.139,1.139,0,.4,2,1C371.861,178.861,373,179.6,371,179Zm-67,1v2h2v-2h-2Zm-105,1v2c1.135-.844.145,0.127,1-1h1C199.861,180.861,201,181.6,199,181Zm22,3h2v1C220.99,184.426,222.135,185.12,221,184Zm-2,1h2v1C218.99,185.426,220.135,186.12,219,185Zm78,2v2h2v-2h-2Zm53,4v-2c0.464-.048,7.362-1.009,9,0v1A40.116,40.116,0,0,0,350,191Zm44-3c1.127,1.719.633,1.355,3,2A7.742,7.742,0,0,0,394,188Zm10,0v2h1v-2h-1Zm-189,1h2v1C214.99,189.426,216.135,190.12,215,189Zm174,14v2c3.161,0.353,2.488.306,4,2h1v2h1l1,3h-2v1h1v2c0.5,1,1.306-.133,2,3l-6-1v7l-3,1-1,2-4-1v1h1c1.178,1.538-1.607.915-2,1v-1c-1.139-1.139-.4,0-1-2,1.135-.844.145,0.127,1-1l2,1v-1h1v-3h1c0.226-1.4-.374.268-1-1-1.129-1.975-1.417-2.338-4-3-2.419,4.613-.727,1.7-6,1a9.749,9.749,0,0,1-1,4c-1.139-1.139-.4,0-1-2l-4,1v-5h-1v2h-1v3h-1c-0.844-1.135.127-.145-1-1l-1-3h2v-1l-5-1v1h2v1h-1c-0.679,1.338-1.2,1.053-2,2v2c-1.1.892-.918-0.816-1-1-1.135-.844-0.145.127-1-1,1.719-1.127,1.355-.633,2-3-2.406.065-2.476,0.633-4,1v-2l-3,2,1-3h-1v1l-6-1v-1h-3l-1-2c-1.16-.738-4.36-0.859-5-2v-2l6-2,2-3c1.733-1.023,9.486-1.847,6-5h7v-1h1c-0.089-2.848-.2-4.289-1-6h1v-1h3v1l5,1v1h3v1h2v1h2l1,2h3l1,2h2l1,2h2v1A8.143,8.143,0,0,0,389,203Zm25-14c1.139,1.139,0,.4,2,1C414.861,188.861,416,189.6,414,189Zm-226,3-3,1v1h3v-1h1v1h1v-3c-1.135-.844-0.145.127-1-1h-1v2Zm73,0-8-1v1h1v1c3.19,1.876,3.3-1.836,6,2h1v1h-1v1h3v-1h1v1h1v4h-1c-1.1-1.545-.555-1.629-3-2-0.238.312,0.186,1.771-1,1v-2h-1c-0.425.211-.233,1.742-2,1-0.453-.19-0.106-1.354-3-2v2l3,1c-1.131,2.25-2.929,3.155-1,6l2,1q-0.5,3.5-1,7l9-2,1-3,5,1v-1c-3.053-.7-2.138-1.59-3-2h-4v-1l-3-1v-2h-2v-2a8.36,8.36,0,0,1,4,2v1l2-1,2,3,6,2v3h-1v1l-6,1v1h-3v1h-2c-0.649.463-.842,2.077-2,3-1.536-2.1-3.817-2.014-8-1v1l-4-1v2h2v1l-5,1v1c-1.356.4,0.373-.66-1-1l-3,1-3-1a23.725,23.725,0,0,1-3,3v-3c1.139-1.139.4,0,1-2h-2v2c-2.7-.6-2.872-1.952-3-2h-1v1l-5-1v3h-2c-0.56-3.137-.974-4.19-4-5v-1h-1v1c-1.958.4-1.271-.341-2-1,1.361-1.166,1.528-1.825,2-4l-3,1v-2c1.97-1.737.847-2.331,2-4l2-1,4-5,24-10h5c5.572-1.647,11.177-1.266,14,3,1.135,0.844.145-.127,1,1h-3c-0.251-.3-1.013-2.714-2-2-1.533,1.109.9,0.819-1,2v-3Zm86-2h2v1C346.99,190.426,348.135,191.12,347,190Zm-69,28h2c2.278-5.08,5.732-9.944,7-16h-3v-3h-2c-0.7-2.835-1.783-2.888-3-5,1.135-.844.145,0.127,1-1,1.842,1.147,2.262,2.726,4,4v1c1.4,0.735,4.956-.88,5-1v6h-1v3h-1l-1,4h-1v3h-1l-1,4-4,3v2h-1c-1.99,3.306-2.808,5.913-7,7v-1l3-2v-2l4-3v-3Zm80-22h-3v-1h1a3.982,3.982,0,0,1,2-2v3Zm4,0h4v1h1v-1h2v-2l-4,1,1-2h-5v1C362.139,195.139,361.4,194,362,196Zm-118-1c1.525,2.279,4.564,2.75,8,3v-1a3.982,3.982,0,0,1-2-2h-6Zm23,2v-2c1.135,0.844.145-.127,1,1h1C267.861,197.139,269,196.4,267,197Zm22-2c1.139,1.139.4,0,1,2h-1v-2Zm83,0-1,3h1c1.139-1.139,0-.4,2-1v-1Zm-130,2q-0.5,1-1,2c0.074-.042,2.9-1.586,2-2h-1Zm-42,2v2h1v-2h-1Zm86,0v2h1v-2h-1Zm110,0,6,2v1h-3C397.952,200.7,396.957,200.511,396,199Zm-104,1v3h1v-1c1.135-.844.145,0.127,1-1Zm55,0h2v1C346.99,200.426,348.135,201.12,347,200Zm46,0h2v1C392.99,200.426,394.135,201.12,393,200Zm-47,7c0.723,2.762.279,2.237,3,3v1h6a21.057,21.057,0,0,1,0-10h-1c-2.211,2.528-6.673,3.647-10,5C345.139,207.139,344,206.4,346,207Zm49-4v-2l3,1v1h-3Zm-113-1,3,1-1,3h-1v-1c-1.5-1.328-.323-0.026,0-2h-1v-1Zm116,1h2v1C397.99,203.426,399.135,204.12,398,203Zm-4,1c1.139,1.139.4,0,1,2h-1v-2Zm-158,1c-4.221.857-4.419,2.848-7,5,0.983,4.09,4.124,4.932,9,5v-1c-2.2-1.437-2.739-3.63-3-7C236.139,205.861,235.4,207,236,205Zm128,0v2h1v-2h-1Zm13,0a18.329,18.329,0,0,1-2,8h4c1.139-1.139,0-.4,2-1l1-2h1v-1h-1C381.208,205.921,380.117,205.624,377,205Zm19,0h2v5h-1c-1.139-1.139,0-.4-2-1Zm-149,2c1.139,1.139,0,.4,2,1C247.861,206.861,249,207.6,247,207Zm-77,2-3,9h1v-2C169.871,214.551,171.729,211.078,170,209Zm159,4c1.4,7.384,6.85,14.2,13,17l-5-6h-1v-2l-2-1C332.386,218.626,331.081,214.768,329,213Zm-86,6v-2c-1.135.844-.145-0.127-1,1h-1C242.139,219.139,241,218.4,243,219Zm99-2h2v1C341.99,217.426,343.135,218.12,342,217Zm13,0c1.139,1.139.4,0,1,2h-1v-2Zm-111,1v2h1v-2h-1Zm10,0v3h-1v-2h-1C253.139,217.861,252,218.6,254,218Zm91,1h2v2h-2v-2Zm76,5h2v-3h-1v1C420.861,223.139,421.6,222,421,224Zm-148-2h2v1C272.99,222.426,274.135,223.12,273,222Zm70,1c1.139,1.139,0,.4,2,1C343.861,222.861,345,223.6,343,223Zm-62,2c-2.819,4.74-5.084,4.6-10,7v1l-6,1v1a19.961,19.961,0,0,0,17-10h-1Zm143,3v2h1v-2h-1Zm-104,1c2.393,0.607,1.858.318,3,2h1v4h1v2h1v3h1v3h1v3h1v2l3,2v2l2,1v2l3,2v2l2,1v5h1c1.123,3.177,1,7.82-1,10-0.684,2.927-1.113,3.274-4,4v1c-0.964.628-3.549-.087-4,1v-2h2c0.77-3.215,1.508-2.155,2-6h2c1.929-10.219-.522-13.4-6-19l-3-2-1-4-3-2-1-3-2-1c-0.643-1.26.8-.114,1-1,0.313-1.379-.571.348-1-1Q320.5,234.5,320,229Zm37,3h-2c0.844-1.135-.127-0.145,1-1v-1C357.139,231.139,356.4,230,357,232Zm-97,3c1.139,1.139,0,.4,2,1C260.861,234.861,262,235.6,260,235Zm-114,2c2.4,1.049,3.212,1.12,4,4h-1v-1c-0.913-.782-4.26-0.2-4-2C145.2,236.6,145.919,238.412,146,237Zm278,5h2c-0.844-1.135.127-.145-1-1v-2h-1v3Zm20,18h1v6h1c0.861,1.532.873,2.423,1,5h-1c-0.276-2.3-.19-2.551-1-4h-1v-7ZM329,272c-3.173.4-3,.8-5,2v1c-3.174,1.166-3.137-1.536-4-2h-2v-1c-4.546-1.556-7.073,2.477-11,3v-2l3-1,4-5h1v-3h1c1.685-2.116,1.352-2.576,5-3C323.469,265.207,327.741,266.406,329,272Zm-54,6-1-4h-1c-1.066-3.034.781-9.7,1-11h1v10h1l2,6h-1C275.861,277.861,277,278.6,275,278Zm12-15h6l7,8v1h2v1h-3v-1c-4.415-2.391-6.428,3.417-9,3v-1c-1.37-.682-1.284-1.5-2-2h-2v-1c-1.661-1.536-1.65-.822-2-4A13.765,13.765,0,0,0,287,263Zm-119,9c-2.927-.684-3.274-1.113-4-4,1.135-.844.145,0.127,1-1,1.135,0.844.145-.127,1,1C167.361,269.166,167.528,269.825,168,272Zm121-5v2h1v-2h-1Zm16,7h-2c0.844-1.135-.127-0.145,1-1v-1C305.139,273.139,304.4,272,305,274Zm16,6v-4h1l2,3c1.135,0.844.145-.127,1,1h-4Zm-4-3h2v1C316.99,277.426,318.135,278.12,317,277ZM167,297h-2c-0.763-3.16-2.227-3.65-3-7h1C164.505,292.63,166.189,293.378,167,297Zm183-3v2c-1.135-.844-0.145.127-1-1-1.135-.844-0.145.127-1-1h2Zm98,4h1v7l-6,5v-2C445.671,305.692,446.6,301.609,448,298Zm-283,3h2v2h-2v-2Zm178,3v-2c1.135,0.844.145-.127,1,1h1C343.861,304.139,345,303.4,343,304Zm8,4-1-3h1c1.139-1.139,0-.4,2-1v1h-1c-0.642,1.128-.055,2,1,2v1h-2Zm7-2v-2c1.135,0.844.145-.127,1,1h1C358.861,306.139,360,305.4,358,306Zm-13,3h2v2h-2v-2Zm-76,2h1v3h-1v-3Zm-2,4-4,1v-2c2.444-.574,2.206-1.047,4-2v3Zm24-2h5v1h-5v-1Zm12,0v3l2-1v2c0.78,1.179.395-.278,1,1h-1v1h3v-2h1c0.176,0.152-.569,3.4,1,2v-1h1v-1c-0.152-.176-3.4.57-2-1h1v-1l6,1v1c-1.139,1.139-.4,0-1,2,4.174-.371,8.658-0.987,14-1v-2l-5-1v-2l18,4v1h2v1h3v1l7-1v-2h1v3l5,1v1c1.139,1.139.4,0,1,2l-10,1v1h-2v1h-4v1l-5,1v1c-1.6.187-1.237-1.711-2-2h-3v2c-5.029-.856-8.439-1.028-16-1v-2l2,1v-1c2.383-1.287,1.374-1.487,5-2v-2h2v-1c-1.135-.844-0.145.127-1-1-10.011-.592-28.971-1.359-42,1v7h-4v-2h-2v2l-1-1c-3.113-.53-1.882,2.5-5,2v-1h-3v-1c-3.556-1.225-7.78-.781-11-2-0.422,2.178-.664,2.848-2,4v-1c-1.909-1.256-1.659-1.014-2-4,1.361-1.165,1.528-1.824,2-4h3l-1-3,1-1,1,1,2-1v2h1c1.6,1.59.788,1.635,4,2,1.976-2.22,4.161-1.721,7-3v-1h4v-1h4l1-2h6v2a9.749,9.749,0,0,0-4,1v1h9v1h4v-1c-2.393-.607-1.858-0.318-3-2C300.827,315.436,298.94,314.121,303,313Zm10,0h5v1h-5v-1Zm34,0h5c0.844,1.135-.127.145,1,1l-1,3-4-2-1,1v-3ZM177,325c1.139,1.139.4,0,1,2h-1v-2Zm112,1h2v1C288.99,326.426,290.135,327.12,289,326Zm-3,1h2v1C285.99,327.426,287.135,328.12,286,327Zm148,4c1.139,1.139.4,0,1,2h-1v-2Zm-5,4h3v1h-3v-1Zm-38,2h1v3h-1v-3Zm-93,1h3l1,2h1v-1h6v1h-1v1l-3-1v1c-3.069.689-4.827-.556-7-1v-2Zm14,0c1.139,1.139.4,0,1,2h-1v-2Zm9,2h2v1C320.99,340.426,322.135,341.12,321,340Zm70,1c1.139,1.139.4,0,1,2h-1v-2Zm-27,17h-2v-3h1v1C364.139,357.139,363.4,356,364,358Zm26,0c1.139,1.139.4,0,1,2h-1v-2Zm-2,3v-2c1.135,0.844.145-.127,1,1h1C388.861,361.139,390,360.4,388,361Zm-16,0h2c-0.844,1.135.127,0.145-1,1v1C371.861,361.861,372.6,363,372,361Zm6,0v2c-1.135-.844-0.145.127-1-1-1.135-.844-0.145.127-1-1h2Zm-176,2h1v3h-1v-3Zm160,0h1v1l-1,2c-1.135-.844-0.145.127-1-1-1.135-.844-0.145.127-1-1C362.01,363.426,360.865,364.12,362,363Zm4,0h2v1C365.99,363.426,367.135,364.12,366,363Zm0,4h-2c0.844-1.135-.127-0.145,1-1v-1C366.139,366.139,365.4,365,366,367Zm5-1h1v3h-1v-3Zm-4,5v-2c1.135,0.844.145-.127,1,1h1C367.861,371.139,369,370.4,367,371Zm0,0v2l-3-1v-2Zm-147,0v2c-1.135-.844-0.145.127-1-1-1.135-.844-0.145.127-1-1h2Zm143,1c1.719,1.127,1.355.633,2,3h-1v-1C362.861,372.861,363.6,374,363,372Zm-154,6c1.139,1.139.4,0,1,2h-1v-2Zm148,0c0.612,0.681,1.585,1.053,1,3-1.105.883-.887-0.823-1-1l-1-1h1v-1Zm-133,1c1.127,1.719.633,1.355,3,2v-1Zm18,6v2h2v-2h-2Zm89,7h2l-1,3h-3v-1h2v-2Zm-18,2h2v1C312.99,394.426,314.135,395.12,313,394Zm-83,3-1,2,2,1v-2h1C233.843,397.05,230,397,230,397Zm91,0c1.139,1.139,0,.4,2,1C321.861,396.861,323,397.6,321,397Zm-19,2c1.139,1.139,0,.4,2,1C302.861,398.861,304,399.6,302,399Zm-67,4h2v2h1c-0.607-2.393-.318-1.858-2-3-0.844-1.135.127-.145-1-1v2Zm9,2v-2c-2.739-.644-2.276-1.309-5-2v1c1.135,0.844.145-.127,1,1C241.8,403.945,241.574,404.385,244,405Zm3-2v-2c-1.135.844-.145-0.127-1,1h-1C246.139,403.139,245,402.4,247,403Zm-15,1c0.493,0.427,1.251,1.853,3,1v-1h-3Zm81,0c1.5,1.759,2.7,1.9,6,2v-1c-1.135-.844-0.145.127-1-1l-1,1C316.6,405.038,314.756,404.116,313,404ZM257,515h2c0.723,2.762.279,2.237,3,3v2a24.515,24.515,0,0,1,12,13h1a1.514,1.514,0,0,1-1,2v1h1v8h1l1,4,2,1,2,6,2,1v3h1v3h1v2h1v3h1v2h1l1,4h1l9,27H161v-1c2.4-1.049,3.212-1.12,4-4-3.094.845-3.734,2.421-6,4v1H35v-1h1c2.247-2.5,3.836-.96,5-5-2.99.816-3.9,2.349-6,4v1H33v1H0V528l4,1v-1H3v-1H0V510l9-3v-1h3v-1l5-1v-1h2v-1h3v-1h2v-1l6-1v-1h2v-1l6-1v-1h2v-1h3v-1h3v-1h4v-1h4v-1l14-2v-1l6-2v-1l6-2v-1l4-1v-1h3v-1l6-2v-1h2v-1h2v-1h3v-1l4-1v-1h2v-1h3v-1h2v-1h2v-1h2v-1h3v-1l4-1v-1h3v-1l4-1v-1h3v-1l4-1v-1h3v-1h2v-1h3c7.591-3.356,15.744-7.167,25-9l6-14,2-1q0.5-2,1-4l2-1v-2h1l1-3,3-2v-3h1v-4l2-1c1.806-2.606-1.083-1.85,3-3,0.844-1.135-.127-0.145,1-1-0.126,9.329,1.4,18.474,5,24l3,2q1,5,2,10h1v2h1v2l2,1v3h1q0.5,2,1,4h1q0.5,2,1,4l2,1q0.5,2,1,4l2,1q0.5,3,1,6l2,1v2l3,2v2l2,1v3l2,1v2l3,2v2l3,2v2l3,2v2l2,1v3h1c2.312,2.755.723,0.574,4,2v1h3l1,2h2l1,2h2l4,5,3,1v2Zm-6-100v-2h-1v1c-1.581,1.142-.931-2.458-1-3a3.982,3.982,0,0,0,2-2,3.982,3.982,0,0,1-2-2h2v1h3v1l3,1v1a9.749,9.749,0,0,0-4,1l1,3h-3Zm34-7v2h1v-2h-1Zm109,3h2v-3h-1v1C393.861,410.139,394.6,409,394,411Zm-104-1c1.139,1.139,0,.4,2,1C290.861,409.861,292,410.6,290,410Zm4,0,1,3,6,1-1-3Zm31,2v-2c-1.135.844-.145-0.127-1,1-2.716,1.164-4.18,1.78-5,5h1A6.749,6.749,0,0,1,325,412Zm-89-1c1.127,1.719.633,1.355,3,2v-1Zm11,4v-2c1.135,0.844.145-.127,1,1h1C247.861,415.139,249,414.4,247,415Zm67,2,3-1v-1c-1.135-.844-0.145.127-1-1-1.135.844-.145-0.127-1,1C313.861,416.139,314.6,415,314,417Zm-18-1v2h1v-2h-1Zm12,0c0.778,0.1,3.845-.708,3,1C308.589,417.942,309.675,417.868,308,416Zm92,2v2h3v-1h1v-3h-1C401.873,417.719,402.367,417.355,400,418Zm-97,1v-2c-1.135.844-.145-0.127-1,1h-1C302.139,419.139,301,418.4,303,419Zm-49,0h2v1C253.99,419.426,255.135,420.12,254,419Zm10,3h-2v-3h1v1C264.139,421.139,263.4,420,264,422Zm46-3h2v2h-2v-2Zm-72,4v-2c1.135,0.844.145-.127,1,1h1C238.861,423.139,240,422.4,238,423Zm58-2c1.691,2.151,2,2,2,2C298.736,422.028,296.266,421.242,296,421Zm-41,1h2v2h-2v-2Zm52,2h2c-0.844,1.135.127,0.145-1,1v1C306.861,424.861,307.6,426,307,424Zm90,0c1.719,1.127,1.355.633,2,3h-1c-1.139,1.139,0,.4-2,1v-1h1v-3Zm-71,1h-2c0.844,1.135-.127.145,1,1v1h1v-2Zm-18,1c1.139,1.139.4,0,1,2h-1v-2Zm-11,1c1.139,1.139.4,0,1,2h-1v-2Zm-13,2h2v1C283.99,429.426,285.135,430.12,284,429Zm55,5v2a6.719,6.719,0,0,0,3-3h-1C339.861,434.139,341,433.4,339,434Zm-8,4h2v1C330.99,438.426,332.135,439.12,331,438Zm6,0c1.139,1.139.4,0,1,2h-1v-2Zm-145,3v2h3v-1Zm158,4a9.749,9.749,0,0,1,1-4h-1a7.742,7.742,0,0,1-3,2c0.844,1.135-.127.145,1,1C349.139,445.139,348,444.4,350,445Zm7-4a4.1,4.1,0,0,1,2,2h-3Zm-14,3v-2c-1.135.844-.145-0.127-1,1h-1C342.139,444.139,341,443.4,343,444Zm-145-1c1.139,1.139,0,.4,2,1C198.861,442.861,200,443.6,198,443Zm151,4-1,3h1v-2h1v-1h-1Zm2,0c1.139,1.139,0,.4,2,1C351.861,446.861,353,447.6,351,447Zm67,0c1.127,1.719.633,1.355,3,2v-1Zm-155,2h2v1C262.99,449.426,264.135,450.12,263,449Zm80,4v2h1v-2h-1Zm86,0c1.139,1.139,0,.4,2,1C429.861,452.861,431,453.6,429,453Zm-275,1c-0.113,3.16-1.955,1.874,1,3l1-3h-2Zm182,0c1.909,1.256,1.659,1.014,2,4-1.135.844-.145-0.127-1,1-1.135-.844-0.145.127-1-1-1.139-1.139-.4,0-1-2C336.139,454.861,335.4,456,336,454Zm-74,3c1.139,1.139.4,0,1,2h-1v-2Zm-68,2v2c3.071-.982,2.061-0.352,6,0v-2h-6Zm139,2h-3v-1h2v-1C332.95,457.157,333,461,333,461Zm83-1,1,3h2v-1Zm-232,2a10.6,10.6,0,0,0-1,4h1v-2c0.416-.579,1.633-0.147,1-2h-1Zm145,4h2l-1,3h-1v-3Zm-169,3c1.139,1.139,0,.4,2,1C160.861,468.861,162,469.6,160,469Zm267,3v2a14.425,14.425,0,0,1,6,7h1v-2a10.82,10.82,0,0,1-5-7h-2Zm32,0c0.493,0.427,1.251,1.853,3,1v-1h-3Zm-284,1v2c1.331-.479-0.31-0.468,1-1h4v-1h-5Zm279,0c-1.139,1.139,0,.4-2,1v1h4c1.139-1.139,0-.4,2-1v-1h-4Zm-314,3-1,3h1v1h1v-4h-1Zm66,4v-2c-1.991.649-2,1.344-4,0v1h-1v1h5Zm209-2,1,3h1v-2Zm-226,2c1.139,1.139,0,.4,2,1C189.861,479.861,191,480.6,189,480Zm228,2,2,6h1v-2C418.565,484.757,418.444,483.229,417,482Zm62,0v2l3-1v-1h-3Zm-358,2c1.139,1.139,0,.4,2,1C121.861,483.861,123,484.6,121,484Zm37,0c1.139,1.139,0,.4,2,1C158.861,483.861,160,484.6,158,484Zm315,0c0.493,0.427,1.251,1.853,3,1v-1h-3Zm-368,3c-3.215-.77-2.155-1.508-6-2v1h2a13.765,13.765,0,0,0,4,3v-2Zm340-2h-2c0.844,1.135-.127.145,1,1v1h1v-2Zm-258,1v2h1v-2h-1Zm-62,5h2v-1h-1l-1-3h-1v2C125.139,490.139,124.4,489,125,491Zm272-2h-2c0.844,1.135-.127.145,1,1v1h1v-2Zm-222,1v1l7,1v-1Zm322,3c0.493,0.427,1.251,1.853,3,1v-1h-3Zm-354,1v2l6,2v-1C146.648,495.921,145.751,494.707,143,494Zm-19,7c-4.293-1.146-2.924-3.293-8-4v1h1l7,5v-2Zm304-4,2,3h1C431.643,499.1,428.454,497.283,428,497Zm-222,1v2h2v-1l3,1v-2h-5ZM93,501c3.377,0.7,3.852,2.168,7,3v-2H97v-1c-0.686-.394-3.132-0.864-3-2H93v2Zm65-2v2h3v-1Zm36,0q-1,2.5-2,5h1v-1c0.664-.565,2.694-2.341,2-4h-1Zm228,2h-2c0.844,1.135-.127.145,1,1v1h1v-2ZM70,502c2,3.155,1.275.5,4,2l2,3c1.242,0.677.632-.593,1-1,1.135-.844.145,0.127,1-1H77v-1H74v-1C72.611,502.129,72.271,502.249,70,502Zm389,3a7.742,7.742,0,0,1-3,2v1h3c1.127-1.719.633-1.355,3-2v-1h-3ZM26,507c1.4,1.654,3.457,2.476,6,3v-1Zm150,1v2c2.945-.934,2.76-0.223,7,0v-2C179.634,509.193,180,508.4,176,508Zm214,0c1.127,1.719.633,1.355,3,2v-1Zm-144,1c1.139,1.139,0,.4,2,1C246.861,508.861,248,509.6,246,509Zm179,0v2a14.425,14.425,0,0,1,6,7h1v-2C428.887,514.165,428.038,510.837,425,509Zm-11,1h-2c0.844,1.135-.127.145,1,1v1h1v-2Zm87,1c1.139,1.139,0,.4,2,1C501.861,510.861,503,511.6,501,511Zm-360,4h2v-2l-3-1v1C141.139,514.139,140.4,513,141,515Zm-88-1a7.744,7.744,0,0,1-3,2v1h2v-1h3v-1Zm66,6v-2c-3.748-.8-3.9-2.445-8-3v1h1A16.661,16.661,0,0,0,119,520Zm38-5v2h1v-2h-1Zm326,1h-4v1a9.749,9.749,0,0,1,4,1v-2Zm58,0c1.139,1.139,0,.4,2,1C541.861,515.861,543,516.6,541,516ZM45,517c1.139,1.139,0,.4,2,1C45.861,516.861,47,517.6,45,517Zm487,2v-2h-1v1h-1C531.139,519.139,530,518.4,532,519Zm-396-1c1.139,1.139,0,.4,2,1C136.861,517.861,138,518.6,136,518Zm62,0q-0.5,2.5-1,5h1v-2c0.427-.493,1.853-1.251,1-3h-1Zm247,0c1.691,2.151,2,2,2,2C447.736,519.028,445.266,518.242,445,518ZM99,524c-3.241-.928-4.022-2.853-7-4v1H91c1.139,1.139,0,.4,2,1,1.326,1.548,4.2,3.03,6,4v-2Zm110-2v-2h-1v1h-1C208.139,522.139,207,521.4,209,522Zm3-1c1.691,2.151,2,2,2,2C214.736,522.028,212.266,521.242,212,521ZM21,523v2h3v1c0.8,0.418,2.246,1.811,4,1v-1C24.623,525.3,24.148,523.832,21,523Zm54,4v-2l-7-2v1h2A8.278,8.278,0,0,0,75,527Zm140-4c1.127,1.719.633,1.355,3,2v-1Zm251,3v-2c-2.393.607-1.858,0.318-3,2h-1v1h2C465.139,525.861,464,526.6,466,526Zm-289,1a19.149,19.149,0,0,1,7,2v-2C179.474,526.451,178.341,523.86,177,527Zm282,0c1.139,1.139,0,.4,2,1C459.861,526.861,461,527.6,459,527Zm-304,1c1.17,2.215,3.476,4.075,5,3h1c-1.139-1.139,0-.4-2-1C157.834,528.639,157.175,528.472,155,528Zm99,0-2,3h1l2-3h-1Zm233,2h4v-1a9.749,9.749,0,0,1-4-1v2Zm19-2,6,8h2v-1l-4-3v-2h-1l-1-2h-2Zm-100,5c-4.066-1.137-2-2.039-5-4v2l5,4v-2Zm161-4c1.139,1.139,0,.4,2,1C567.861,528.861,569,529.6,567,529ZM41,534v2c4.1-.819,6.49-3.357,10-5v-1H49C47.426,532.459,44.352,533.386,41,534Zm485,0h3v-1l-3-1v2Zm-97-1,2,3h1v-2h-1C429.861,532.861,431,533.6,429,533Zm120,0c1.256,1.909,1.014,1.659,4,2v-1Zm-417,1v2c3.428,0.871,2.575,2.068,6,3v2h1v-1c1.139-1.139.4,0,1-2C136.018,537.159,135.627,535.005,132,534Zm400,0c0.493,0.427,1.251,1.853,3,1v-1h-3Zm-85,1v2l3,1c1.865,1.425,2.593,3.634,5,5v-2C451.849,539.144,450.98,536.075,447,535Zm109,1c1.139,1.139,0,.4,2,1C556.861,535.861,558,536.6,556,536ZM15,539c1.057,4.109.52,1.172,3,3v1c1.693,1.373,2.017,1.693,5,2v-1Zm217,0v2c5.079,0.592,5.522,3.923,9,6v-2C237.72,543.1,236.249,540.1,232,539ZM65,540l-1,2h1c1.255,1.908,3.15,2.726,5,4v1h3v-1C69.53,544.409,68.05,541.8,65,540Zm55,5v-2c-3.748-.8-3.9-2.445-8-3v1h1A16.661,16.661,0,0,0,120,545Zm61-3v-2h-4v1h2C180.139,542.139,179,541.4,181,542Zm70-2c0.607,2.393.318,1.858,2,3A7.49,7.49,0,0,0,251,540Zm19,0v2h1v-2h-1ZM97,547v-2c-4.362-.947-4.35-3.342-9-4v1h2A9.353,9.353,0,0,0,97,547Zm324-3h2v-1h-1v-1h-1v2Zm160-2c-2.156,2.4-3.313.81-5,2v1h3v-1h3v-1h1C581.861,541.861,583,542.6,581,542Zm-95,2c0.335,3.033.655,3.228,2,5h1v2h1l1,3h1v-3C489.067,549.206,488.77,545.833,486,544Zm-268,1v2c3.955,0.678,6.173,2.433,9,4v-2C222.955,548.157,222.02,545.942,218,545Zm34,0v3h1v-3h-1Zm126,0c1.139,1.139,0,.4,2,1C378.861,544.861,380,545.6,378,545Zm21,0a8.445,8.445,0,0,0,3,2v-1h1v-1h-4Zm65,0c-1.139,1.139,0,.4-2,1v1h2c1.139-1.139,0-.4,2-1v-1h-2Zm-259,2h-2c0.844,1.135-.127.145,1,1v1h1v-2Zm-18,6v-2c-3.748-.8-3.9-2.445-8-3v1h1A16.661,16.661,0,0,0,187,553Zm343-5c2.008,2.326,2.532.625,5,2v1c1.85,1.315,1.922,1.624,5,2v-1C536.566,550.466,534.528,548.511,530,548Zm-25,2v2h2v-2h-2Zm48,0c1.139,1.139,0,.4,2,1C553.861,549.861,555,550.6,553,550ZM37,555v2l3-1v-1h2v-1c1.311-.605,2.864-0.52,4-1v-2H45C43.2,553.259,40.775,554.639,37,555Zm217-4v2h1v-2h-1Zm124,1c1.127,1.719.633,1.355,3,2v-1Zm184,3v-2a11.878,11.878,0,0,1-5-1v1h1C559.166,554.361,559.825,554.528,562,555Zm-113-2c1.139,1.139,0,.4,2,1C449.861,552.861,451,553.6,449,553Zm22,2v-2h-2c-1.413,2.5-3.316,3.763-6,5v1h2C466.361,556.61,467.852,555.65,471,555Zm39-2c1.165,1.361,1.825,1.528,4,2v-1h-1v-1h-3Zm-254,6h2c-0.844-1.135.127-.145-1-1v-2h-1v3Zm197-3,3,4h1v-2C455.2,557.056,455.426,556.615,453,556Zm-319,3q-0.5,1-1,2l3,1c2.506,1.921,1.434,3.111,6,4v-1C138.53,563.409,137.05,560.8,134,559ZM12,560v2l8,5v-2H19c-1.251-1.586-3.353-2.8-5-4v-1H12Zm567,3v2l3-1v-1h2v-1h3v-1h-1v-1C582.485,560.915,583.147,562.433,579,563Zm-322-2,1,4h1v-1h1l-1-3h-2Zm-147,1v2c2.739,0.644,2.276,1.309,5,2v2h1v-1c1.139-1.139.4,0,1-2C112.173,564.436,114.06,563.121,110,562Zm-49,1v2c4.431,1.168,3.55,3.76,8,5v-1h1c-1.139-1.139,0-.4-2-1-1.251-1.586-3.353-2.8-5-4v-1H61Zm25,1v2c4.117,1.009,5.04,3.9,9,5v-2C91.027,567.983,90.085,565.087,86,564Zm137,0v2c5.117,0.585,3.235,2.131,6,4l3,1C230.542,568.4,226.194,564.811,223,564Zm170,0v3c2.5,1.413,3.763,3.316,5,6h1v-2C396.067,569.206,395.77,565.833,393,564Zm44,0,1,3h1v-2Zm-196,1c1.562,2.49,4.263,3.667,8,4v-1A76.625,76.625,0,0,0,241,565Zm136,4c-0.826-3.2-1.179-2.9-5-3v1h2C375.127,568.719,374.633,568.355,377,569Zm-118-2,1,3h1v-3h-2Zm155,0v2c4.362,0.947,4.349,3.342,9,4v-1c-2.465-1.093-4-2.339-7-3v-2h-2Zm-252,1c-1.242,1.855-8.389,7.662-6,9,0.69,1.235,1-1,1-1l5-6h1v-2h-1Zm40,0v2c2.905,1.6,3.819,3.475,8,4v-1l-3-1v-1C205.215,569.576,204.613,568.715,202,568Zm281,0a14.643,14.643,0,0,0,10,6v-1l-6-2v-1A8.378,8.378,0,0,0,483,568Zm26,0v2c4.845,1.033,4.735,3.8,9,5v-2C513.883,571.991,512.96,569.1,509,568Zm33,7v-2c-4.587-.807-6.671-3.135-10-5v2h1c1.705,2.046,2.236.831,4,2l2,3h3Zm16-7v2c5.162,0,6,1.333,9,3v-2Zm-104,2c1.082,1.707,2.129,2.124,4,3C456.871,571.025,456.583,570.662,454,570Zm-194,5h2l-1-3h-1v3ZM35,576v2l10-4v-1H42C40.492,574.744,37.708,575.5,35,576Zm317,1v-2h-1v1h-1C351.139,577.139,350,576.4,352,577Zm117,0c-1.342,2.086-3.677,2.963-6,4,0.844,1.135-.127.145,1,1v1l7-5C469.861,576.861,471,577.6,469,577Zm-206,4h2v-1l-3-2v1C263.139,580.139,262.4,579,263,581Zm80-2v2l4-2v-1h-2C343.861,579.139,345,578.4,343,579Zm239,5v2h2c1.743-2.886,4.941-3.534,7-6h-1v-1C586.954,580.775,586.175,583.063,582,584Zm-403-3v2l3,1q0.5,1,1,2c1.124,0.99,1.938.731,3,2h2v-1Zm23,0v1h2q0.5,1,1,2h2v1a7.866,7.866,0,0,0,4,2v-1C207.511,584.378,206.188,581.958,202,581Zm-70,5,4,1v2c2.448,0.558,2.211,1.043,4,2v-1h1c-1.061-1.284-1.762-1.04-3-2v-1h-2v-1l-4-3v3Zm134-3h-2c0.844,1.135-.127.145,1,1v1h1v-2Zm14,0c1.139,1.139,0,.4,2,1C280.861,582.861,282,583.6,280,583ZM11,584v2c3.858,1.006,3.142,2.93,7,4-0.792-3.079-1.883-3.376-5-4v-2H11Zm429,0v2h2c0.9,0.542,4.026,8.751,5,6h1v-1c-2.586-1.414-5.179-3.768-6-7h-2Zm-15,7v-2c-4.045-.843-4.98-3.058-9-4v1h1c1.714,2.035,2.245.832,4,2v1A7.938,7.938,0,0,0,425,591ZM60,586v1H59c-1.889.86,2,1,2,1a13.869,13.869,0,0,0,7,5v-1C64.53,590.409,63.05,587.8,60,586Zm48,0v2c3.982,0.841,4.373,3,8,4v-2C112.364,589.069,111.947,586.92,108,586Zm-24,1v2c4.431,1.168,3.55,3.76,8,5v-2c-2.352-1.079-3.249-2.293-6-3v-2H84Zm167,2c3.625,0.731,4.405,2.485,7,4v-2h-1c-1.326-1.548-4.2-3.03-6-4v2Zm115-2v2c2.465,1.439,2.788,3.138,6,4v2h2v-2a7.537,7.537,0,0,1-6-6h-2Zm32,3c-4.161-.147-4.722-1.258-8-2v1h2c1.5,1.709,3.785,2.1,6,3v-2Zm167,6h2v-2l-7-6v1A10.82,10.82,0,0,1,565,596Zm-339-7v2c4.453,0.8,6.25,3,10,4v-1C232.38,592.394,230.15,589.951,226,589Zm310,1v2h4v1l5,1v-1Zm-50,1v2l9,5v-1l-3-1v-1C489.939,593.335,488.966,591.814,486,591Zm24,0v2c3.973,1.017,4.915,3.913,9,5v-2c-2.465-1.093-4-2.339-7-3v-2h-2Zm-215,7h2v-1h-1v-1h-1v2Z"/>
</svg>
