<?xml version="1.0" encoding="utf-8"?>
<!-- Generator: Adobe Illustrator 21.0.0, SVG Export Plug-In . SVG Version: 6.00 Build 0)  -->
<svg version="1.1" id="Layer_1" xmlns="http://www.w3.org/2000/svg" xmlns:xlink="http://www.w3.org/1999/xlink" x="0px" y="0px"
	 width="32px" height="32px" viewBox="0 0 32 32" style="enable-background:new 0 0 32 32;" xml:space="preserve">
<style type="text/css">
	.st0{fill:none;}
	.st1{fill:#3D4549;}
	.st2{fill:none;stroke:#3D4549;stroke-width:5.000000e-02;stroke-miterlimit:10;}
</style>
<g>
	<polygon class="st0" points="16,21.9 15.7,21.9 15.7,22 16.1,22.1 	"/>
	<rect x="15.8" y="22.2" class="st0" width="0.1" height="0.1"/>
	<rect x="15.2" y="21.8" class="st0" width="0.1" height="0.1"/>
	<path class="st0" d="M15.9,22.6c0-0.1-0.1-0.1-0.1-0.1C15.9,22.6,15.9,22.6,15.9,22.6z"/>
	<path class="st0" d="M15.5,21.9c0.1,0.1,0,0,0.1,0.1C15.5,21.9,15.6,21.9,15.5,21.9z"/>
	<path class="st0" d="M13.1,21.5L13.1,21.5C13.1,21.5,13.1,21.5,13.1,21.5L13.1,21.5C13.1,21.4,13.2,21.4,13.1,21.5z"/>
	<path class="st0" d="M17.3,21.9C17.3,21.9,17.3,21.9,17.3,21.9C17.1,22,17.1,22,17,22.2h0.1c0-0.1,0.1-0.2,0.3-0.2V21.9z"/>
	<path class="st0" d="M17.3,22.7L17.3,22.7L17.3,22.7L17.3,22.7L17.3,22.7C17.3,22.7,17.3,22.7,17.3,22.7z"/>
	<path class="st0" d="M18.2,23.1c-0.1,0.1,0,0-0.1,0.1v0.1C18.2,23.2,18.2,23.2,18.2,23.1L18.2,23.1z"/>
	<path class="st0" d="M17,21.6C17,21.6,17,21.6,17,21.6h-0.1c0,0-0.1,0-0.2-0.1C16.8,21.7,16.8,21.7,17,21.6L17,21.6z"/>
	<path class="st0" d="M16.9,22.1C16.8,22.1,16.8,22.1,16.9,22.1c-0.1,0.1-0.1,0.1-0.1,0.2l0.2-0.1L16.9,22.1
		C16.8,22.1,16.9,22.2,16.9,22.1z"/>
	<path class="st0" d="M16.1,21.3c0.1,0.1,0,0,0.1,0.1C16.2,21.3,16.2,21.3,16.1,21.3z"/>
	<path class="st0" d="M16.1,22.3L16.1,22.3C16.1,22.4,16.1,22.3,16.1,22.3L16.1,22.3C16.1,22.3,16.2,22.2,16.1,22.3z"/>
	<path class="st0" d="M17.2,21.2c-0.1-0.1,0,0-0.1-0.1C17.2,21.2,17.1,21.2,17.2,21.2z"/>
	<rect x="12.9" y="20.5" class="st0" width="0.1" height="0.1"/>
	<path class="st0" d="M22.1,10.1c0.1,0.1,0,0,0.1,0.1C22.1,10.1,22.2,10.1,22.1,10.1z"/>
	<path class="st0" d="M21.8,8.6c0.1,0.1,0,0,0.1,0.1C21.9,8.6,21.9,8.6,21.8,8.6z"/>
	<path class="st0" d="M22.5,11.9c-0.1,0.1,0,0-0.1,0.1h0.1L22.5,11.9L22.5,11.9L22.5,11.9z"/>
	<path class="st0" d="M18.2,23.6L18.2,23.6C18.2,23.7,18.2,23.7,18.2,23.6L18.2,23.6C18.2,23.6,18.3,23.6,18.2,23.6z"/>
	<rect x="22.6" y="12.2" class="st0" width="0.1" height="0.1"/>
	<path class="st0" d="M19.8,10.6L19.8,10.6c0.1-0.1,0.1,0,0.2-0.1v-0.1l-0.1-0.1L19.8,10.6z"/>
	<path class="st0" d="M20.1,10.9c0,0.1,0,0.3-0.1,0.4h0.2c0.1-0.1,0,0,0.1-0.1l0.1-0.1h0.1v-0.1h-0.1C20.3,11,20.3,11,20.1,10.9z"/>
	<path class="st0" d="M21.7,11.1l0.1-0.2h-0.1L21.7,11.1c-0.1-0.1-0.1,0-0.1-0.1h-0.1l0.1-0.1c-0.1-0.1-0.1,0.1-0.2-0.1h-0.2
		c-0.1-0.1-0.1-0.1-0.2-0.2l0.3,0.1v0.1h0.2v-0.1l-0.2-0.2v-0.1h-0.3c-0.2-0.1-0.3-0.2-0.4-0.3h0.2c0-0.1,0-0.2-0.1-0.3h-0.2V9.8
		l-0.2-0.1v0.1c0.1,0,0,0,0.1,0.1h-0.2c0-0.1-0.1,0,0-0.2h-0.1v0.1l-0.6-0.2v0.1L19,9.6c0,0,0-0.1-0.1-0.1v0.1h-0.3v0.1l-0.3,0.1
		v0.1h-0.1L18,10H18v0.1l-0.1,0.1v0.2h-0.1v0.1h-0.1c-0.1,0.2,0.1,0.3,0,0.4V11h-0.2c0,0.1,0,0.3,0.1,0.4c0.2,0.1,0.3,0.3,0.5,0.3
		v0.1h0.2v-0.1h0.1v0.1h-0.1l0.1,0.1l0.2-0.1V12h-0.1v0.1h0.1V12l0.2,0.1c-0.1,0.2-0.1,0,0.1,0.3h-0.1v-0.1c-0.1-0.1-0.1,0-0.1-0.2
		h-0.2v0.1c-0.1,0.1,0,0-0.1,0.1l0.2-0.1v0.1h-0.1v0.1l0.4,0.1v0.1l1.2,0.1h0.4v-0.1h0.4c0.2-0.1,0.3-0.2,0.5-0.2l0.1-0.2h0.1V12
		h0.1l0.1-0.2h0.1v-0.2h0.1v-0.2h0.1C21.8,11.3,21.8,11.2,21.7,11.1L21.7,11.1z M18.6,10.1L18.6,10.1c-0.1,0,0,0.1-0.1,0H18.6z
		 M18.3,11.6c-0.1,0,0,0-0.1-0.1L18.3,11.6L18.3,11.6z M18.9,12.4C19,12.3,18.9,12.4,18.9,12.4l0.1-0.1c0.1,0.1,0,0,0.1,0.1H18.9z
		 M18.9,11.7v-0.1C19,11.6,19,11.6,18.9,11.7L18.9,11.7z M21.2,11.2L21.2,11.2c-0.1-0.1-0.1,0-0.2-0.1l0.1,0.2H21v0.1h0.1v0.1
		c0,0.1,0.1,0,0.1,0.2l-0.3-0.1V12L20.7,12l-0.1,0.1l-0.2-0.1v0.1h0.1c0.1,0.1-0.1,0-0.1,0.1v-0.1c-0.1-0.1,0,0-0.1-0.1
		c0.1,0,0,0,0.1-0.1l0.1,0.1V12h0.1v-0.2h0.1c0-0.1,0,0-0.1-0.1c-0.1-0.1-0.1-0.1-0.2-0.2c-0.1,0.2,0,0.1-0.3,0.1
		c0,0.1,0,0.1-0.1,0.2c-0.1-0.1,0,0-0.1-0.1l-0.2,0.1v-0.3h-0.1v0.1h-0.1v0.2h-0.1c0-0.1,0,0-0.1-0.1l-0.1-0.2h0.1v-0.1l-0.3-0.1
		v0.1h0.1v0.1h-0.1c0,0.1-0.1,0.1-0.1,0.1v0.1c-0.1,0,0,0-0.1-0.1c-0.1,0,0,0-0.1-0.1c0.1-0.1,0.1,0,0.1-0.2c-0.1,0-0.1,0-0.2,0.1
		v-0.1l-0.2,0.1l0.1-0.2h-0.1v0.1l-0.3-0.1v-0.1h-0.2l-0.1-0.1c-0.1,0-0.2,0-0.3-0.1v-0.1l0.3-0.1l0.1-0.2c0,0,0.1,0,0.2-0.1
		c-0.1,0,0,0-0.1-0.1h0.1v0.1c0.1,0,0.3-0.1,0.2-0.2h0.4v-0.1h0.1c0-0.2,0-0.2-0.1-0.3c-0.2,0-0.3,0-0.5,0.1v-0.1c0,0,0.4-0.1,0.5,0
		v0.1h0.1v-0.1h0.2v0.1l0.3,0.1v0.1h0.2v0.1h0.1v0.1H20l0.1,0.1h0.2l0.1,0.1h0.1l0.1,0.1h0.1v0.1c0.1,0.1,0.1,0.1,0.2,0.1v0.1
		c0.2,0,0.1,0,0.2,0.1H21v0.1h0.1l0.1-0.2h0.1V11.2z M18.9,10.5L18.9,10.5L18.9,10.5c0.1-0.1,0.1-0.1,0.2-0.2v0.2H18.9z M21,11v-0.1
		C21.1,11,21,10.9,21,11L21,11z M21.3,10.9c-0.1,0,0,0-0.1-0.1h-0.2v-0.1c-0.1,0,0,0-0.1-0.1h0.1v0.1l0.2,0.1v0.1L21.3,10.9
		L21.3,10.9z"/>
	<path class="st0" d="M12.7,22L12.7,22l-0.2-0.1C12.7,22,12.6,22,12.7,22z"/>
	<path class="st0" d="M12.6,21.6L12.6,21.6c0-0.1,0-0.1-0.1-0.2c0-0.1,0,0-0.1-0.1v0.1h0.1V21.6z"/>
	<path class="st0" d="M22.7,12.9v-0.1h-0.1L22.7,12.9L22.7,12.9C22.7,12.9,22.7,12.9,22.7,12.9z"/>
	<path class="st0" d="M12.7,21.5C12.8,21.5,12.8,21.4,12.7,21.5c0.1,0.1,0.1,0.1,0.3,0.2v-0.1C12.9,21.5,12.9,21.4,12.7,21.5
		L12.7,21.5z"/>
	<path class="st0" d="M12.1,20.3L12.1,20.3L12,20.2C12,20.3,12,20.3,12.1,20.3z"/>
	<path class="st0" d="M12.5,21.6L12.5,21.6l-0.2-0.1C12.4,21.6,12.4,21.7,12.5,21.6z"/>
	<path class="st0" d="M12.3,21.2l-0.1,0.1l0.1,0.1L12.3,21.2l0.1,0.1C12.5,21.2,12.3,21.2,12.3,21.2z"/>
	<polygon class="st0" points="22.3,24.7 22.3,24.7 22.2,24.5 22.2,24.7 	"/>
	<path class="st0" d="M22.1,27.3v-0.1H22C22,27.3,22,27.2,22.1,27.3L22.1,27.3L22.1,27.3z"/>
	<path class="st0" d="M22.2,30.3h-0.1v0.1c0.2,0.1,0.2,0.2,0.5,0.2v-0.1c-0.1-0.1-0.2-0.1-0.4-0.2V30.3z"/>
	<polygon class="st0" points="22.5,28.9 22.5,28.9 22.5,29 22.6,29 22.6,29 22.5,29 	"/>
	<path class="st0" d="M22.9,28.4l0.1,0.2H23v-0.1H23C22.9,28.4,23,28.5,22.9,28.4z"/>
	<path class="st0" d="M23,24.2c-0.1-0.1,0,0-0.1-0.1C22.9,24.2,22.9,24.2,23,24.2z"/>
	<path class="st0" d="M22.2,25.7l0.1,0.3h0.1v-0.1C22.3,25.9,22.3,25.8,22.2,25.7z"/>
	<path class="st0" d="M22.5,24L22.5,24l-0.2-0.1C22.4,23.9,22.3,23.9,22.5,24z"/>
	<path class="st0" d="M19.5,10.3h-0.3v0.1c0.1,0.1,0,0,0.1,0.1h0.2v0.1h0.1v-0.1h0.1v-0.1l-0.2,0.1L19.5,10.3z"/>
	<polygon class="st0" points="22.2,25.7 22.2,25.6 22.1,25.5 22.2,25.7 	"/>
	<path class="st0" d="M24.4,25.3L24.4,25.3l-0.2-0.1c-0.1,0.1,0,0-0.1,0.1v0.1h0.2C24.4,25.3,24.3,25.3,24.4,25.3z"/>
	<path class="st0" d="M23.7,26v-0.1h-0.1C23.7,25.9,23.6,25.9,23.7,26L23.7,26L23.7,26z"/>
	<path class="st0" d="M23.7,27.6c0.1,0.1,0.1,0.1,0.1,0.1C23.9,27.7,23.7,27.7,23.7,27.6z"/>
	<path class="st0" d="M24.6,25.2h-0.2C24.5,25.2,24.5,25.3,24.6,25.2L24.6,25.2z"/>
	<path class="st0" d="M22.7,27.2v0.1c0.1,0.1,0.3,0.2,0.3,0.4H23v-0.1C22.9,27.4,22.8,27.3,22.7,27.2z"/>
	<path class="st0" d="M23,26.7c0,0-0.1-0.1-0.2-0.2L23,26.7L23,26.7z"/>
	<rect x="18.3" y="24.2" class="st0" width="0.1" height="0.1"/>
	<path class="st0" d="M22.9,25.2h-0.1v0.1c0.1,0.1,0.3,0.2,0.3,0.4h0.1v-0.1C23,25.5,22.9,25.3,22.9,25.2z"/>
	<path class="st0" d="M23.9,29.5c0.1,0.1,0,0,0.1,0.1C24,29.5,24.1,29.5,23.9,29.5z"/>
	<path class="st0" d="M18.3,30.9V31l0.2-0.1v-0.1h-0.1C18.3,30.9,18.4,30.9,18.3,30.9z"/>
	<path class="st0" d="M20.3,29.1c-0.1-0.1,0,0-0.1-0.1C20.2,29.1,20.2,29.1,20.3,29.1z"/>
	<path class="st0" d="M19.8,30.2L19.8,30.2l0.1,0.1c0.1,0.1,0,0.1,0.2,0.1C20.1,30.2,20,30.2,19.8,30.2z"/>
	<path class="st0" d="M21.1,21.8c-0.1,0.1,0,0-0.1,0.1h0.1L21.1,21.8L21.1,21.8L21.1,21.8z"/>
	<polygon class="st0" points="18.6,24 18.6,24 18.6,23.9 18.7,23.9 18.7,23.9 18.6,23.9 	"/>
	<path class="st0" d="M18.7,23.5c0,0-0.1,0.1-0.2,0.1c0,0.1,0,0,0.1,0.1c0.1,0.1,0,0,0.1,0.1C18.7,23.7,18.7,23.6,18.7,23.5
		L18.7,23.5z"/>
	<path class="st0" d="M18.8,23.9c-0.1-0.1,0,0-0.1-0.1C18.8,23.9,18.7,23.9,18.8,23.9z"/>
	<path class="st0" d="M21.4,28.2v0.1l0.3,0.2v-0.1C21.4,28.4,21.5,28.3,21.4,28.2z"/>
	<path class="st0" d="M21.4,29.2L21.4,29.2L21.4,29.2l0.1-0.1h-0.2C21.3,29.1,21.4,29.2,21.4,29.2z"/>
	<path class="st0" d="M22.5,26.8L22.5,26.8L22.5,26.8L22.5,26.8L22.5,26.8C22.4,26.8,22.4,26.7,22.5,26.8z"/>
	<path class="st0" d="M21,30.3c0.1,0.1,0.2,0.2,0.3,0.3h0.1v-0.1c-0.2-0.1-0.2-0.3-0.3-0.4V30.3z"/>
	<path class="st0" d="M21.1,26.1L21.1,26.1L21.1,26.1L21.1,26.1L21.1,26.1C21.1,26.2,21.1,26.1,21.1,26.1z"/>
	<path class="st0" d="M21.5,22.4L21.5,22.4l0.1-0.2h-0.1c-0.1,0.1,0,0.1-0.2,0.1v0.1L21.5,22.4L21.5,22.4z"/>
	<path class="st0" d="M21,27.2l-0.2-0.1C20.9,27.2,20.8,27.2,21,27.2L21,27.2z"/>
	<path class="st0" d="M20.3,29.6L20.3,29.6l-0.2-0.1C20.2,29.5,20.2,29.5,20.3,29.6z"/>
	<path class="st0" d="M18.7,30.7L18.7,30.7C18.7,30.8,18.7,30.8,18.7,30.7L18.7,30.7L18.7,30.7L18.7,30.7z"/>
	<rect x="10.7" y="10.6" class="st0" width="0.1" height="0.1"/>
	<path class="st0" d="M13.9,12.5c0.1,0.1,0,0,0.1,0.1C13.9,12.5,14,12.6,13.9,12.5z"/>
	<path class="st0" d="M14.5,12.4L14.5,12.4l-0.3,0.1v0.1c0.4,0,0.7-0.2,0.9-0.5H15C14.8,12.3,14.7,12.3,14.5,12.4z"/>
	<rect x="15.3" y="10.6" class="st0" width="0.1" height="0.1"/>
	<path class="st0" d="M10.1,7.8L10.1,7.8C10,7.8,10,7.9,10,7.9C10,7.9,10.1,7.8,10.1,7.8z"/>
	<path class="st0" d="M13.5,10.2L13.5,10.2L13.5,10.2l0.1,0.1c0.2,0.1,0.2-0.1,0.3,0.1h0.1v-0.2L13.5,10.2z"/>
	<path class="st0" d="M10.7,9.7c-0.1-0.1,0,0-0.1-0.1v0.1C10.7,9.7,10.6,9.8,10.7,9.7L10.7,9.7z"/>
	<path class="st0" d="M10.4,7.6C10.3,7.6,10.4,7.6,10.4,7.6l-0.1-0.1v0.1L10.4,7.6L10.4,7.6z"/>
	<path class="st0" d="M10.1,10.1L10.1,10.1L10,10.3l-0.2,0.1v0.1H10v-0.1h0.1v0.1h0.1L10.1,10.1C10.1,10.2,10.1,10.2,10.1,10.1z"/>
	<path class="st0" d="M13.2,11.1c0.1,0.1,0,0,0.1,0.1C13.2,11,13.3,11.1,13.2,11.1z"/>
	<path class="st0" d="M13,10.4c0.1,0.1,0.2,0.1,0.4,0.2v-0.1c0,0-0.1-0.1-0.1-0.1H13z"/>
	<path class="st0" d="M12.6,10.9c-0.2,0-0.2,0.2-0.4,0.3c0.1,0.2,0.2,0.3,0.5,0.3v-0.1c-0.1-0.1-0.1-0.2-0.2-0.4
		C12.6,11,12.6,11.1,12.6,10.9z"/>
	<path class="st0" d="M15.5,11.2c-0.1,0.1-0.1,0.2-0.2,0.3h-0.1v-0.1h0.1c0-0.1,0-0.2,0.1-0.3h-0.1l-0.1,0.2h-0.1v0.2h-0.1l-0.1,0.2
		l-0.2,0.2v0.1h-0.1c-0.1,0.2-0.1,0.3-0.4,0.4v-0.1l0.2-0.1V12l0.2-0.2v-0.2h0.1c0.1-0.3,0.3-0.5,0.4-0.9h-0.2v-0.2H15
		c0-0.2-0.1-0.2-0.2-0.3c0.1,0,0,0,0.1-0.1c0.1,0.1,0.1,0.1,0.2,0.2v0.1c0.1,0,0.3,0,0.3-0.1v-0.1c0.1,0.1,0,0,0.1,0.1h-0.1v0.3
		h-0.1V11h0.1c0.1-0.1,0.2-0.9,0.2-1.1h-0.1c0-0.1,0-0.2-0.1-0.3c-0.1-0.1-0.2-0.2-0.3-0.3c-0.2,0-0.2,0.1-0.3,0V9.3h-0.2V9.3h-0.1
		V9.2h-0.1v0.1l-0.2-0.1v0.1h-0.1v0.1h-0.1V9.3L14,9.3l0.1,0.1h0.1v0.1h-0.1v0.1h-0.4v0.1h-0.2V9.6l-0.2,0.1c0,0-0.1-0.1-0.2-0.1
		v0.1l-0.6,0.1c0,0.1,0,0.1,0.1,0.2h-0.2c-0.2-0.2-0.2,0-0.4,0c0,0-0.3-0.1-0.4-0.1l-0.1,0.2c-0.1,0.1-0.2-0.1-0.4,0.1
		c0.1,0,0.3-0.1,0.4,0.1h-0.1v0.1h-0.2v0.1h-0.1v0.1l-0.2,0.1v0.1h0.3v0.1c-0.1,0.1-0.2,0.1-0.2,0.3c-0.1,0-0.1,0-0.2,0.1h0.1v0.1
		l-0.2-0.1v0.3h0.1v0.2h0.1c0.2,0.4,0.2,0.9,0.6,1c0.1,0.2,0.3,0.1,0.5,0.2v0.1h0.3c0.6,0.2,1.6,0,2.1-0.2l0.3-0.1
		c0.2-0.1,0.5-0.5,0.5-0.7h0.1v0.2h-0.1c0,0.1,0,0.2-0.1,0.3h0.1v-0.1c0.2-0.1,0.3-0.5,0.4-0.8h-0.1V11.2z M15,10.8l0.2,0.1L15.1,11
		h-0.1v-0.1C15,10.9,15.1,10.9,15,10.8L15,10.8L15,10.8z M15.2,9.5L15.2,9.5c-0.1,0,0,0.1-0.1,0H15.2z M14.7,11.9
		c-0.1,0,0,0-0.1-0.1L14.7,11.9L14.7,11.9z M11.9,9.8L11.9,9.8c-0.1,0,0,0.1-0.1,0H11.9z M11.8,9.9L11.8,9.9c-0.1,0,0,0.1-0.1,0
		H11.8z M11.6,10.1L11.6,10.1c-0.1,0,0,0.1-0.1,0H11.6z M13.5,11.8L13.5,11.8l-0.1-0.1h-0.1c0.1-0.1,0,0,0.1-0.1V11.8z M14.2,11.4
		L14.2,11.4l-0.2,0.1v0.1H14c0,0,0,0.1-0.1,0.2c-0.1-0.1-0.2-0.1-0.4-0.1v0.1l-0.2-0.1v0.1h0.1v0.1l-0.3,0.1v0.1c-0.1,0,0,0-0.1-0.1
		l-0.2,0.1l-0.2-0.1c0,0.1-0.1,0.1-0.2,0.2v-0.2c0.1-0.1,0,0,0.1-0.1h-0.1v0.1c-0.1,0-0.2-0.1-0.2-0.1h-0.1v0.1L12,11.7v0.2h-0.1
		c0-0.2-0.1-0.2-0.2-0.3v-0.1h-0.1v0.1c-0.1,0-0.1,0-0.1-0.1c0.1-0.1,0.1-0.1,0.1-0.2l-0.2,0.1v-0.1c0.1-0.1,0-0.1,0.1-0.2l0.1-0.1
		l0.2-0.3l1.3-0.5h0.3c0.3-0.1,0.6-0.1,0.7,0.2c0.1,0,0,0,0.1,0.1c0.1,0,0,0,0.1,0.1h0.1c-0.1,0.1,0,0-0.1,0.1v-0.1h-0.2
		c0,0-0.1-0.1-0.1-0.1c-0.1,0.1,0,0-0.1,0.1v0.1h-0.1v0.1H14v-0.1h0.1v0.1h0.1v0.2h-0.1c-0.1-0.1,0-0.1-0.2-0.1c0,0,0,0.1-0.1,0.1
		v-0.1h-0.1c0,0,0,0.1-0.1,0.1c0,0,0-0.1-0.2-0.1v0.1l0.2,0.1c-0.1,0.1-0.2,0.2-0.1,0.3l0.1,0.1c0,0.1,0,0.2-0.1,0.4L14.2,11.4v-0.2
		l0.3,0.1v-0.1c-0.2,0-0.1-0.1-0.2-0.1h-0.2V11L14,10.9v-0.1h-0.1v-0.1c0.1,0,0.2,0.1,0.2,0.1v0.1l0.1-0.1l0.1,0.2l0.3,0.1v0.2h-0.1
		v0.1L14.2,11.4z"/>
	<path class="st0" d="M12.9,11.6L12.9,11.6C12.9,11.7,12.9,11.7,12.9,11.6L12.9,11.6C12.9,11.6,13,11.6,12.9,11.6z"/>
	<rect x="13" y="11.6" class="st0" width="0.1" height="0.1"/>
	<path class="st0" d="M12.9,10.5c0,0,0,0.1-0.1,0.1C12.9,10.6,13,10.5,12.9,10.5L12.9,10.5z"/>
	<path class="st0" d="M24.2,29.7C24.2,29.7,24.2,29.7,24.2,29.7C24.2,29.7,24.2,29.7,24.2,29.7L24.2,29.7z"/>
	<path class="st0" d="M11.1,9.5c0,0.2-0.1,0.2-0.2,0.4H11c0.1-0.1,0.3-0.1,0.3-0.3h0.2c0.1-0.1,0.1-0.2,0.3-0.2V9.3h-0.3
		c-0.1,0.1-0.1,0.1-0.2,0.1c0,0,0,0.1-0.1,0.1h-0.1V9.5L11.1,9.5z"/>
	<polygon class="st0" points="17.7,1.2 17.5,1.2 17.5,1.3 17.7,1.3 	"/>
	<path class="st0" d="M8.9,11.6L8.9,11.6L9,11.5c0.1-0.1,0.2-0.3,0.1-0.4L8.9,11.6z"/>
	<path class="st0" d="M9.6,8.3L9.6,8.3c-0.1,0.1-0.1,0-0.2,0.1v0.1h0.1C9.6,8.4,9.6,8.3,9.6,8.3z"/>
	<path class="st0" d="M16.4,21.4L16.4,21.4L16.4,21.4c0.1,0,0.1-0.1,0.2-0.1c-0.1-0.1,0,0-0.1-0.1v0.1
		C16.4,21.3,16.4,21.4,16.4,21.4z"/>
	<path class="st0" d="M19.5,22.5l0.1,0.1h0.1C19.6,22.6,19.6,22.5,19.5,22.5z"/>
	<path class="st0" d="M19.6,31.3h-0.1v0.1c0.1,0,0.1,0.1,0.2,0.1c0,0,0,0,0.1,0C19.7,31.5,19.6,31.4,19.6,31.3z"/>
	<path class="st0" d="M23.3,30.1l0,0.1c0,0,0,0,0.1,0v0L23.3,30.1z"/>
	<polygon class="st0" points="21.1,6.6 21.1,6.5 20.9,6.4 21,6.6 	"/>
	<path class="st0" d="M9.4,9.9L9.3,10l-0.2,0.9h0.1v-0.1h0.1c0-0.1,0-0.2,0.1-0.3h0.1v-0.2h0.1v-0.2h0.1L9.4,9.9L9.6,10V9.8l0.1-0.1
		V9.7h0.1V9.3H9.7L9.4,9.9z"/>
	<rect x="21.2" y="6.8" class="st0" width="0.1" height="0.1"/>
	<rect x="18.1" y="1.4" class="st0" width="0.2" height="0.1"/>
	<path class="st0" d="M21.4,7.4c0-0.1-0.1-0.1-0.1-0.1C21.4,7.4,21.4,7.4,21.4,7.4z"/>
	<path class="st0" d="M9.5,8.7L9.5,8.7l0.1-0.1h0.1l0.2-0.2H9.8C9.7,8.5,9.6,8.5,9.5,8.7z"/>
	<path class="st0" d="M9.7,8.1c0,0.1,0,0.1-0.1,0.2h0.1c0,0,0.1-0.1,0.1-0.1C9.8,8.1,9.8,8.2,9.7,8.1z"/>
	<path class="st0" d="M17.5,10.2h0.2V10l0.1,0.1V10c0.1-0.1,0.1-0.1,0.3-0.2c0-0.1,0.1-0.3,0.3-0.4V9.5l0.3-0.1V9.3
		c-0.1,0,0,0-0.1-0.1c-0.4,0.1-0.7,0.2-1,0.3V9.5h-0.1l0.1,0.1h-0.1v0.1h-0.1V9.6c-0.1-0.1,0,0.1-0.1,0.1c-0.2,0.2-0.1,1,0.1,1.2
		v-0.3c0,0-0.1,0-0.1-0.1c0,0,0.1-0.1,0.1-0.1h-0.1v-0.1h0.1l0.1-0.3h0.1V10.2z"/>
	<polygon class="st0" points="20.2,9.3 20.2,9.2 20.1,9.2 20.2,9.3 	"/>
	<path class="st0" d="M20.7,9.6c-0.1-0.1-0.1-0.1-0.2-0.2C20.5,9.6,20.6,9.6,20.7,9.6z"/>
	<path class="st0" d="M19.9,9.2c0.1,0.1,0,0,0.1,0.1V9.1C19.9,9.2,20,9.1,19.9,9.2L19.9,9.2z"/>
	<path class="st0" d="M21.7,9.7c-0.1-0.1-0.2-0.2-0.3-0.3V9.4c-0.2-0.1-0.5-0.1-0.6-0.2c0.1,0.2,0.1,0.1,0.3,0.2v0.1h0.2l-0.1,0.1
		l0.2,0.1c0.2,0.1,0,0.2,0.3,0.3L21.7,9.7z"/>
	<path class="st0" d="M19.9,9.6c-0.1-0.1,0,0-0.1-0.1C19.8,9.6,19.8,9.6,19.9,9.6z"/>
	<path class="st0" d="M21.2,10.1c0,0-0.1-0.1-0.2-0.1C21.1,10.1,21,10.1,21.2,10.1z"/>
	<path class="st0" d="M11.5,9.7c0.1,0,0.1-0.1,0.1-0.1h0.1V9.5h-0.1L11.5,9.7z"/>
	<rect x="19.4" y="10.9" class="st0" width="0.1" height="0.1"/>
	<polygon class="st0" points="21,10.4 21,10.3 21.2,10.4 21.2,10.3 21,10.3 21,10.2 20.9,10.2 20.9,10.4 	"/>
	<path class="st0" d="M18.9,10.7c-0.1,0.1-0.4,0.2-0.5,0.3c0.1,0.1,0,0,0.1,0.1c0,0.1,0,0.1,0.2,0.2v0.1h0.3
		C18.9,11.1,18.9,10.9,18.9,10.7L18.9,10.7z"/>
	<path class="st0" d="M20.9,9.9c-0.1,0-0.1-0.1-0.3-0.1v0.1h0.2v0.1L20.9,9.9L20.9,9.9z"/>
	<path class="st0" d="M17.3,9.1h0.1L17.5,9h0.2V9h0.1V8.9l0.4-0.1V8.8h0.2V8.8h0.2V8.7h0.7c0.6-0.2,1.9,0,2.5,0.1V8.7h-0.1l0.1-0.1
		l-0.1-0.1c0-0.1,0.1-0.1,0.1-0.1c0-0.1,0-0.3-0.1-0.4l-0.2,0.1c0-0.1,0-0.1-0.2-0.2c0-0.2-0.1-0.1,0.1-0.2v0.1h0.3V7.7
		c-0.2,0-0.1,0.1-0.2-0.1h0.1V7.5l-0.2,0.1c0-0.1-0.1-0.1-0.1-0.3H21V7.2h0.2V7.1c-0.1,0-0.1,0-0.2-0.1c0-0.1,0-0.2,0.1-0.3H21
		c-0.1-0.1,0,0-0.1-0.1L21,6.9h-0.1c0-0.1,0,0-0.1-0.1l-0.1-0.1h0.1V6.5l-0.1-0.1V6.2h-0.1L20.7,6h0.1l-0.1-0.1L20.6,6V6
		c-0.1,0,0,0-0.1-0.1c-0.1-0.1,0,0-0.1-0.1h-0.1V5.7c0.1,0,0,0,0.1,0.1c0.1,0.1,0-0.1,0.1-0.2c-0.1,0-0.1,0-0.1-0.1
		c0,0,0.1,0,0.1-0.1c0,0,0,0-0.1-0.1c-0.1,0-0.1-0.1-0.2,0l0.1-0.2h-0.1L20.2,5L20.1,5c-0.1-0.2,0.1-0.1,0-0.2v0.1h-0.2V4.6
		c-0.4-0.2-0.6-0.4-1.2-0.5L18.7,4L18.3,4V4h-0.1V3.9h-0.4V3.9c-0.3-0.1-0.5,0.1-0.9,0V3.8h-0.2V3.8h-0.1V3.7h-0.5V3.6
		c-0.2-0.1-0.3-0.1-0.6-0.1c-0.1,0.1-0.4,0.1-0.5,0.1C15,3.7,15,3.8,15,4H15c-0.1-0.1-0.1-0.2-0.3-0.2c-0.1,0,0,0.1-0.1,0.1V3.8
		h-0.2l-0.1,0.1h-0.1v0.1L14.1,4V4l-0.4,0.1v0.1l-0.2,0.1V4.1l-0.2,0.1v0.1c-0.2,0-0.1,0.1-0.2,0.1h-0.3l-0.1,0.1l-0.1,0.2h-0.1
		c-0.1,0.1-0.2,0.2-0.3,0.4h-0.1c-0.1,0.2,0,0.1-0.2,0.2v0.1H12v0.1H12l-0.2,0.2l-0.1,0.1v0.2c0,0.1-0.1,0-0.2,0.1
		c0,0.1,0,0,0.1,0.1l-0.2,0.4l-0.2-0.1c0,0.1,0,0.2-0.1,0.3H11c-0.1,0.2-0.1,0.4-0.2,0.6h-0.1V6.8h-0.1v0.1h-0.1v0.3
		c0,0,0,0-0.1,0.1h-0.1c0,0.1,0.1,0.2,0.1,0.3h-0.1v0.2h-0.1c0,0.1,0,0.1,0.1,0.2c-0.1,0.1-0.1-0.1-0.2,0.2c-0.2,0-0.2,0.1-0.4,0.2
		v0.1H10V8.2h0.2V8.2l0.2-0.1v0.3h-0.1c-0.1,0.1-0.2,0.2-0.2,0.3h0.1C10.1,8.8,10,8.8,9.9,8.9h0.2c0.1-0.1,0.4,0,0.6-0.1V8.8h0.4
		c0.4-0.1,1.9-0.2,2.4-0.1h0.7v0.1h0.1v0.1h0.1V8.8l0.2,0.1v0.1c0.1,0,0,0,0.1-0.1c-0.2,0-0.2,0-0.3-0.2c0.1,0,0.1,0.1,0.3,0.1v0.1
		c0.1,0.1,0,0,0.1,0.1l0.6,0.2v0.1h0.1v0.1h0.1v0.1l0.3,0.1v0.1h0.1V9.3h0.6V9.2h0.1v0.1h0.6V9.2L17.3,9.1L17.3,9.1z M21,7.5h0.1
		v0.1H21V7.5z M20.8,7.5c0.1,0.1,0,0,0.1,0.1h-0.1V7.5z M11.4,6.4h-0.2V6.3h0.2V6.4z M13.4,4.2c-0.1,0,0,0-0.1-0.1L13.4,4.2
		L13.4,4.2z"/>
	<path class="st0" d="M17.7,9.3L17.7,9.3c-0.1,0.1-0.2,0.1-0.2,0.2h0.1C17.6,9.4,17.7,9.4,17.7,9.3z"/>
	<path class="st0" d="M17.3,11.3L17.3,11.3L17.3,11.3C17.3,11.2,17.3,11.3,17.3,11.3z"/>
	<path class="st0" d="M17.9,12v-0.1l-0.1-0.1c-0.1-0.1-0.2-0.3-0.3-0.4c0.1,0.4,0.4,0.8,0.7,0.9L17.9,12L17.9,12z"/>
	<rect x="21.5" y="10" class="st0" width="0.1" height="0.1"/>
	<path class="st0" d="M13.1,9.4h-0.2v0.1c0.1,0,0.3,0,0.4-0.1V9.3L13.1,9.4L13.1,9.4z"/>
	<path class="st0" d="M12.1,9.6h0.3V9.6c-0.1,0-0.2,0-0.3-0.1V9.6z"/>
	<path class="st0" d="M13.9,9c0.1,0.1,0,0,0.1,0.1C13.9,9,14,9.1,13.9,9z"/>
	<path class="st0" d="M12,9.3L12,9.3l0.1,0.1c0.1-0.1,0.1-0.1,0.2-0.1V9.2h-0.1C12.2,9.3,12.1,9.3,12,9.3z"/>
	<path class="st0" d="M12.9,9.1c0,0,0,0.1-0.2,0.1v0.1c-0.1,0-0.3,0-0.4,0.1v0.1c0.3,0,0.2,0,0.5,0.1V9.5h-0.1V9.4h0.1
		c0.1-0.1,0.1,0,0.3-0.1V9.2h0.2V9.2h-0.2V9.1L12.9,9.1z"/>
	<path class="st0" d="M11,6.3L11,6.3c-0.1,0.1,0,0.1-0.1,0.2H11L11,6.3L11,6.3z"/>
	<path class="st0" d="M11.8,9.7H12c0-0.1,0,0,0.1-0.1V9.6h-0.2L11.8,9.7C11.9,9.6,11.8,9.6,11.8,9.7z"/>
	<path class="st0" d="M12,9.5c0.1-0.1,0,0,0.1-0.1V9.4H12l-0.1,0.2h0.1V9.5H12z"/>
	<rect x="16.2" y="9.6" class="st0" width="0.1" height="0.1"/>
	<path class="st0" d="M17,10.3L17,10.3L17,10.3C16.9,10.2,16.9,10.2,17,10.3z"/>
	<path class="st0" d="M14.1,9.1c0.1,0.1,0,0,0.1,0.1C14.2,9.1,14.2,9.1,14.1,9.1z"/>
	<rect x="15.8" y="10" class="st0" width="0.1" height="0.1"/>
	<path class="st0" d="M15.1,9.3L15.1,9.3C14.9,9.1,14.7,9,14.4,9v0.1l0.3,0.1v0.1h0.2v0.1L15.1,9.3z"/>
	<path class="st0" d="M14.5,9.2c-0.1-0.1,0,0-0.1-0.1C14.4,9.2,14.3,9.2,14.5,9.2z"/>
	<path class="st0" d="M15.6,10.8L15.6,10.8L15.6,10.8c0.1-0.1,0.1,0,0.1-0.1l-0.1-0.1V10.8z"/>
	<path class="st0" d="M18.3,11.9c0.1,0.1,0,0,0.1,0.1C18.3,11.9,18.4,11.9,18.3,11.9z"/>
	<path class="st0" d="M11,25.5c-0.1,0-0.1,0.1-0.2,0v0.1h-0.1v0.1H11V25.5z"/>
	<path class="st0" d="M11.2,27.7L11.2,27.7L11.2,27.7L11,27.8c0.1,0.1,0,0,0.1,0.1V27.7z"/>
	<polygon class="st0" points="11,26.7 11.1,26.7 11.1,26.6 11.3,26.7 11.3,26.6 11,26.6 	"/>
	<path class="st0" d="M10.9,29.3v-0.1h-0.1C10.9,29.2,10.8,29.2,10.9,29.3L10.9,29.3L10.9,29.3z"/>
	<path class="st0" d="M11,30.5c-0.1-0.1-0.1-0.1-0.3-0.2v0.1c0.2,0.1,0.2,0.2,0.4,0.2v-0.1L11,30.5L11,30.5z"/>
	<path class="st0" d="M11.4,27.9c0-0.1-0.1-0.1-0.1-0.1C11.4,27.9,11.4,27.9,11.4,27.9z"/>
	<path class="st0" d="M11.9,30.1v0.1c0.3,0,0.2,0.1,0.3,0.2l0.2,0.1C12.3,30.3,12.1,30.1,11.9,30.1z"/>
	<path class="st0" d="M12.1,29.3c-0.2,0-0.3-0.2-0.5-0.2v0.1c0.2,0,0.3,0.1,0.5,0.2V29.3z"/>
	<path class="st0" d="M11.6,28l-0.2-0.1C11.5,28,11.5,28,11.6,28L11.6,28z"/>
	<path class="st0" d="M10.1,25.6c0.1,0.1,0,0,0.1,0.1C10.1,25.6,10.2,25.6,10.1,25.6z"/>
	<path class="st0" d="M10.2,26.9L10.2,26.9L10.2,26.9c0.1-0.1,0.2-0.2,0.2-0.3h-0.1C10.3,26.7,10.3,26.8,10.2,26.9z"/>
	<path class="st0" d="M12.9,29.1c-0.2-0.1-0.3-0.3-0.5-0.3v0.1c0.3,0,0.3,0.2,0.5,0.3V29.1z"/>
	<polygon class="st0" points="10.4,23.6 10.2,23.5 10.2,23.6 10.4,23.6 	"/>
	<rect x="10" y="25.9" class="st0" width="0.1" height="0.1"/>
	<path class="st0" d="M13.2,27.2c-0.1-0.1,0,0-0.1-0.1C13.2,27.2,13.1,27.2,13.2,27.2z"/>
	<path class="st0" d="M10.6,23.6c0.1,0.1,0,0,0.1,0.1C10.6,23.6,10.7,23.7,10.6,23.6z"/>
	<path class="st0" d="M10.5,27.9L10.5,27.9l0.1-0.1c0,0,0.1-0.1,0.1-0.2h-0.1C10.5,27.7,10.5,27.8,10.5,27.9z"/>
	<path class="st0" d="M10.4,24.6c0.2-0.1,0.1,0,0.3,0v-0.1h-0.3V24.6z"/>
	<rect x="15.4" y="14.3" class="st0" width="0.1" height="0.1"/>
	<rect x="14.4" y="28.8" class="st0" width="0.1" height="0.1"/>
	<path class="st0" d="M14.1,31.2L14.1,31.2L14.1,31.2L14.1,31.2L14.1,31.2C14.1,31.2,14.1,31.1,14.1,31.2z"/>
	<path class="st0" d="M14.9,31.1c0.1,0.1,0,0,0.1,0.1C15,31.1,15,31.1,14.9,31.1z"/>
	<path class="st0" d="M13.3,30.4L13.3,30.4c-0.1-0.1-0.3-0.2-0.4-0.2C12.9,30.3,13.1,30.3,13.3,30.4z"/>
	<polygon class="st0" points="13.9,30.5 13.9,30.5 13.9,30.7 14,30.7 	"/>
	<path class="st0" d="M16.8,32c0.2-0.1,0.2-0.3,0.3-0.5l0.3-0.2v-0.1h0.1l0.1-0.2l0.1-0.1l0.1-0.3l0.3-0.2v-0.1l0.1-0.1l0.1-0.2
		l0.1-0.1v-0.1l0.1-0.1l0.2-0.3h0.1v-0.1l0.2-0.1v-0.1l0.2-0.1v-0.1l0.2-0.2l0.1-0.2l0.4-0.3l0.1-0.2l0.2-0.1v-0.1h0.1
		c0-0.1,0-0.2,0.1-0.3l0.1-0.1l0.1-0.2l0.1-0.1v-0.1l0.1-0.1v-0.1h0.1v-0.2h0.1v-0.2h0.1l0.1-0.2h0.1l0.1-0.2l0.1-0.1v-0.1l0.1-0.1
		v-0.1L21,26v-0.1l0.1-0.1l0.1-0.3h0.1v-0.1h0.1v-0.1h-0.1v-0.2h0.1v-0.1h-0.1c0-0.2,0.1-0.5,0.1-0.7h-0.1v-0.1h-0.1
		c0-0.1,0.1-0.1,0.1-0.2h-0.1l0.1-0.1h-0.1c0-0.1,0-0.1,0.1-0.2c-0.1,0,0,0-0.1-0.1c0,0,0.1,0,0.1-0.1c0,0-0.1,0-0.1-0.1h0.1
		c0.1-0.1,0,0,0.1-0.1c0-0.2,0-0.4,0.1-0.5h-0.1c0-0.2,0-0.3-0.1-0.5h-0.1l0.1-0.3h-0.2v0.3H21c0-0.1,0-0.2,0.1-0.3l-0.2,0.1v-0.1
		c0.1-0.1,0,0,0.1-0.1h-0.1v-0.1h0.1c0-0.2,0.1-0.1,0.2-0.3l-0.2,0.1v0.1c-0.1,0-0.1,0-0.2-0.1c0,0.1,0,0.1-0.2,0.2v0.1h-0.1v-0.1
		l-0.2-0.1V22c-0.2,0.1-0.1,0.1-0.4,0.1c0,0.2-0.1,0.2,0,0.4c-0.2,0-0.1-0.1-0.2,0.1c-0.1,0.1,0,0-0.1,0.1c-0.1,0-0.1,0-0.1-0.1
		h-0.1c-0.1,0.1-0.2,0.3-0.2,0.4c-0.3,0.1-0.3,0.2-0.5,0.4c0.1,0.1,0,0,0.1,0.1c0,0.2-0.1,0.1-0.1,0.3h0.1c0,0,0.1-0.1,0.2-0.1v0.1
		c-0.2,0.1,0,0.1-0.1,0.3h-0.1V24l-0.2,0.1c0,0.1,0,0.1,0.1,0.2c-0.1,0.1-0.1-0.1-0.2,0.2l0.2-0.1c0,0.1-0.1,0.1-0.1,0.3h-0.1v-0.1
		l-0.2-0.1v0.1h-0.1l0.1,0.2h-0.1c-0.1,0.1-0.1,0.1-0.1,0.3H18v-0.1c0.2-0.1,0.2-0.1,0.2-0.4c-0.1,0,0,0-0.1,0.1
		c0,0.1-0.1-0.1-0.1-0.1h0.1l-0.1-0.2h0.1l0.1-0.2h0.1c0-0.1,0-0.1,0.1-0.2h-0.2v-0.1h0.1v-0.1h0.1v0.1c0.1,0.1,0-0.1,0.1-0.1
		l-0.3,0.1v-0.1h0.1l-0.1-0.1l0.1-0.1l-0.1-0.2H18L18,23.2l-0.2,0.1c0-0.1-0.1-0.2-0.1-0.3c-0.1,0.1-0.1,0.1-0.2,0.1v-0.2h-0.1
		c-0.1,0.1,0,0.1-0.2,0.1c0-0.1,0,0,0.1-0.1c0.1,0-0.1-0.1-0.1-0.1l-0.1-0.2H17v-0.1H17c0-0.1,0-0.2,0.1-0.2h-0.2
		c-0.1,0.1-0.1,0.1-0.2,0.2v-0.1h-0.1v-0.1h0.1v0.1h0.1l0.1-0.2h-0.1v-0.2l-0.2,0.1l0.1-0.2L16.4,22V22c-0.1,0,0-0.1-0.1,0h-0.1
		l0.1,0.2c0,0-0.2,0.1-0.2,0.2l0.1,0.1v0.2l-0.2,0.1v0.1l-0.3-0.1v0.2h-0.1v-0.1h-0.3v-0.1c-0.1,0-0.1,0-0.2,0.1v-0.1L15,22.6v0.1
		c-0.1,0,0,0-0.1-0.1h-0.1v-0.1h0.1c0.1-0.1-0.1,0-0.1-0.1c0,0-0.1-0.1-0.2-0.1c0,0,0,0.1-0.1,0.1v-0.1h-0.1v-0.1l-0.2-0.1v-0.1
		h-0.1v-0.1c-0.1,0-0.1,0-0.1,0.1c0,0-0.2-0.1-0.2,0h-0.1v-0.1l0.2-0.1v-0.1c-0.1,0,0,0-0.1-0.1l-0.2,0.1V22h0.1v-0.1h-0.1
		c-0.1-0.1,0-0.1-0.2-0.1v-0.1h-0.2v0.1h0.2v0.1l0.2,0.1v0.1c-0.1,0-0.1,0-0.2,0.1l0.1,0.2h-0.2V22h-0.1v0.1c-0.1,0.1,0-0.1-0.1-0.2
		c0,0,0.1-0.1,0.1-0.1c0,0-0.1-0.1-0.1-0.1h0.1v-0.1l-0.2,0.1c0,0.1,0,0.2,0.1,0.3h-0.2v-0.2l-0.3,0.1v0.1c0.2,0,0.2,0.1,0.3,0.2
		l-0.1,0.2c-0.1-0.1,0,0-0.1-0.1c-0.1,0,0,0-0.1-0.1l-0.2,0.1l0.1,0.2h-0.2v-0.1h-0.2v-0.1c-0.1,0,0,0-0.1-0.1c0.1,0,0,0,0.1-0.1
		c-0.1,0-0.1-0.1-0.3-0.1l0.1-0.2l-0.1-0.1v-0.1h-0.1v-0.2h-0.1C12,21.4,12,21.4,12,21.2c0,0-0.1,0-0.1-0.1h0.1c0-0.1,0-0.1-0.2-0.2
		v0.1c-0.1,0,0,0-0.1-0.1h-0.1l0.1-0.2l-0.1-0.1v-0.1h-0.1c-0.1-0.1,0-0.1-0.2-0.1c0-0.2-0.1-0.2-0.2-0.3h-0.1c-0.1-0.1,0-0.3,0-0.3
		h-0.1c-0.1-0.1,0,0-0.1-0.1v-0.1l-0.2,0.1v-0.2l0.4,0.1c0,0.1,0,0.1,0.1,0.2l0.2-0.1v0.2h0.1c0.1-0.2,0-0.1,0.2-0.1v0.1h0.1
		l-0.1,0.1c0,0.1,0,0.1,0.1,0.2l-0.1-0.2c0.1,0,0.3,0,0.3-0.1h0.1v0.1c0.1,0.1,0.2,0.1,0.4,0.1v0.1c0.1,0.1,0.1,0.1,0.2,0.1v-0.1H13
		c0,0,0-0.1,0.1-0.1v-0.1h-0.2v-0.1h0.1c0.1-0.1,0.1-0.1,0.2-0.1l0.1,0.2l0.2-0.1c0,0.1,0,0-0.1,0.1c-0.1,0,0.1,0.1,0.1,0.1v0.1h0.1
		v-0.2h0.1v0.1h0.2l0.1,0.2l0.2,0.1v0.1c0.1,0,0.1-0.1,0.1-0.1v0.2l0.2-0.1v0.2l0.2,0.1V21h0.2l0.1,0.1l0.2-0.1c0,0,0,0.1,0.1,0.1
		c0,0,0.1-0.1,0.1-0.1V21h0.2l0.1,0.3c0.1,0,0.1-0.1,0.3-0.1v0.1h0.1v-0.1h0.3l-0.1,0.1h0.3v-0.1l0.3,0.1v0.1l0.2-0.1l0.1-0.2
		c0.3,0.1,0.2,0,0.4-0.1v0.1H17v-0.1H17v0.1c0.1,0,0.1,0,0.2-0.1v0.1c0.1,0,0.1-0.1,0.2-0.1v0.1h0.2v0.1c0.1,0,0.1,0,0.1-0.1h0.6
		c0.1-0.1,0.2-0.1,0.3-0.2l-0.1-0.1l0.3-0.1l0.1-0.2c0.1,0,0,0.1,0.1,0h0.1c0,0,0-0.1,0-0.1c0,0,0,0,0,0v-0.1h0.2
		c0.1,0,0.1-0.2,0.1-0.3h-0.2v-0.3h0.1V20c0.1,0.1,0.1,0.1,0.3,0.1l0.1-0.2h0.1c0-0.1,0.1-0.1,0.1-0.3H20v0.1h0.1
		c-0.1-0.2,0-0.1,0-0.2l0.2,0.1c0,0.1,0,0-0.1,0.1c-0.1,0.1,0.1,0,0.2,0.1c0.1-0.1,0.2-0.1,0.3-0.2c0-0.1,0-0.1,0.2-0.2v-0.1H21
		l0.1-0.3l0.3-0.1v-0.1c0.1-0.1,0.2-0.3,0.2-0.5h0.1c0-0.1,0-0.2-0.1-0.3l0.1-0.1c0-0.1,0-0.2,0.1-0.3h-0.1l0.2-0.7
		c-0.1,0,0,0-0.1-0.1l0.1-0.1c0,0-0.1-0.2-0.1-0.3h0.1v-0.4h0.1v-0.2h0.1c0-0.1-0.1-0.1-0.1-0.1c0-0.1,0-0.2,0.1-0.3H22
		c0-0.1-0.1-0.2-0.1-0.3h0.1c0-0.1,0-0.3,0.1-0.4h0.1v-0.1l0.1-0.1v-0.3h0.1v-0.2h0.1V14h-0.1v-0.1h0.1v-0.3c-0.1,0-0.1-0.1-0.1-0.2
		l0.1-0.1v-0.1h0.1c0.1-0.1,0-0.1,0.1-0.3h-0.1v0.1c-0.1,0.1,0,0-0.1,0.1h-0.1V13l0.2-0.1c0-0.2-0.1-0.2-0.2-0.3c0.1,0,0,0,0.1-0.1
		h0.2v-0.1h-0.1l0.1-0.2l-0.1,0.1v-0.2l-0.2-0.1v-0.1h-0.2v-0.1h0.1v-0.3h-0.1L22,12.1H22c-0.1,0.3-0.2,0.6-0.5,0.6
		c-0.2,0.2-0.8,0.1-1.2,0.2v0.1c-0.2,0.1-0.5,0-0.6-0.1l-0.1,0.1v-0.1c-0.1,0-0.5,0.1-0.5,0.1v-0.1l-0.3-0.1v-0.1l-0.5-0.1l-0.1-0.1
		h-0.2v-0.1H18v-0.1h-0.1v0.1c-0.1,0,0,0-0.1-0.1l-0.3-0.3c-0.1,0-0.2,0-0.2-0.1v-0.1h-0.1l-0.1,0.2h-0.1l0.1-0.2l-0.1,0.1V12L17,12
		v-0.3l-0.1-0.1v-0.3c0,0-0.1-0.1-0.1-0.1l0.1-0.1c0,0-0.1-0.3-0.1-0.4h0.1c0,0,0.1,0.1,0.1,0.1v-0.2H17c0,0.1,0,0,0.1,0.1
		c0.1,0.1,0.1,0.3,0.2,0.4V11h-0.1l-0.1-0.2h-0.1v-0.2c0-0.1,0,0-0.1-0.1c-0.1,0.1-0.1,0.1-0.2,0.2v-0.1c-0.1-0.1-0.1-0.3-0.1-0.4
		h0.1c0,0,0,0,0.1,0.1V10h-0.1c0,0-0.1,0.1-0.1,0.1c0-0.2-0.1-0.3-0.3-0.3V9.8C16.3,9.8,16,10,16,10c0,0.2-0.1,0.5-0.1,0.7
		c0,0.1-0.1,0-0.1,0.1h0.1c0,0.1-0.1,0.1-0.1,0.1V11h-0.1v0.1h-0.1l0.1,0.2h-0.1c0,0.2-0.2,0.3-0.3,0.5l-0.1,0.3l-0.2,0.1
		c-0.1,0.4-0.5,0.4-0.8,0.5v0.1h-0.2v0.1H14v0.1h-0.3v0.1h-0.4v0.1l-0.2-0.1v0.1h-0.6v-0.1l-1.1-0.1v-0.1L11,12.7
		c0-0.1-0.1-0.1-0.1-0.1v-0.1l-0.1-0.1v-0.1l-0.1-0.1c0-0.1,0-0.2-0.1-0.3h-0.1v-0.2h-0.1v-0.2h-0.1v-0.1h-0.1v-0.2h-0.1v-0.2h-0.1
		l-0.2-0.3c-0.1,0,0,0-0.1,0.1H10V11H10c0,0.1,0,0.1,0.1,0.2l-0.2,0.1c0,0.1,0,0.1-0.1,0.2H9.8c-0.1,0.1-0.1,0.1-0.2,0.2
		c0,0.2-0.1,0.3-0.2,0.4v0.3H9.3v0.3H9.3v1.3h0.1c0,0.1,0,0.2-0.1,0.3H9.2c0,0.1,0.1,0.2,0.1,0.3H9c0-0.1,0-0.2-0.1-0.4H8.9v-0.6
		H8.9v-0.2H8.8c0-0.1,0-0.1,0.1-0.2h0.1c0-0.2-0.1-0.1-0.1-0.2v-0.1l-0.2-0.1v-0.1H8.5c0,0,0-0.1-0.1-0.1H8.4
		c-0.2-0.1-0.2-0.5-0.2-0.8H8.2c0-0.1,0-0.2-0.1-0.3H8.1v-0.2H8v-0.1H8c-0.1-0.3-0.2-0.6-0.3-0.9c0-0.2,0-0.4,0.1-0.6
		c0-0.4-0.1-0.7-0.1-1H7.5c0-0.3,0-0.4,0.1-0.5V8.1H7.6c0-0.1,0-0.2,0.1-0.3h0.1c0-0.2,0-0.3,0.1-0.5h0.1V7.2l0.1-0.1V7L8,6.9V6.8
		h0.1c0-0.2,0-0.4,0.1-0.6h0.1V6h0.1V5.8h0.1c0-0.2,0-0.3,0.1-0.5h0.1c0-0.1,0.1-0.2,0.1-0.3h0.1V4.9h0.1V4.8h0.1
		c0-0.1,0-0.1,0.1-0.2l0.1-0.1V4.4L9,4.2V4.1l0.1-0.1l0.2-0.2h0.1l0.1-0.2h0.1l0.1-0.1h0.2V3.5h0.1V3.5H10V3.4h0.1V3.4h0.1V3.3
		l0.3-0.1l0.1-0.1h0.1L11,2.8h0.1V2.7l0.7-0.1L12,2.4l0.6-0.1V2.3h0.1V2.3h0.2V2.2L13,2.2c-0.1-0.1-0.1,0-0.2-0.2H13V1.8
		c-0.1,0-0.2,0-0.2,0.1h-0.1V1.8l-0.1-0.1h-0.4V1.7h-0.1V1.6h0.1v0.1h0.2c0-0.1,0-0.1,0.1-0.2c0.1,0,0.4,0,0.5,0.1v0.1h0.4v0.1h0.2
		v0.1h0.4v0.1l0.6-0.1V1.6L15,1.5V1.5h0.2V1.4h0.1V1.4l0.3-0.1V1.2h0.2V1.1L16,1.1V1h0.3c0.1,0,0.3-0.1,0.4-0.1V1h0.4l0.7-0.1v0.1
		H18V1h0.2l0.1,0.2h0.3v0.1l0.2,0.1l0.1,0.1h0.1l0.1,0.1H19l0.1,0.2c0.1,0.1,0.2,0,0.4,0.1v0.1l0.2,0.1l0.1,0.1L20,1.9L20.1,2
		l0.3,0.1c0.3,0.2,0.6,0.6,0.9,0.9l0.8,0.7v0.1L22.3,4v0.1l0.2,0.1v0.1l0.1,0.1v0.1h0.1c0,0.1,0,0.1,0.1,0.2h0.1
		c0.1,0.2,0,0.4,0.1,0.6h0.1l0.1,0.1H23L23,5.5h0.1l0.1,0.1l0.3,0.2c0,0.2,0.1,0.3,0.1,0.5h0.1v0.1h0.1v0.2h0.1v0.2h0.1V7h0.1
		c0,0.2,0.1,0.4,0.1,0.6H24v0.2h0.1V8h0.1c0,0.4,0,0.9-0.1,1.3c0.3,1.2,0,2.5-0.1,3.7h-0.2l0.1,0.2h-0.2v0.3c0,0-0.1,0-0.1,0.1
		c0,0,0.1,0,0.1,0.1h-0.1l0.1,0.1h-0.1v0.1h-0.1c0-0.2,0-0.3-0.1-0.5c-0.2,0-0.2,0.1-0.2,0.3c0.1,0.1,0.1,0.2,0.2,0.4h-0.1v0.1
		l-0.2-0.1v0.1c-0.1,0.1,0,0.1-0.1,0.3l-0.1,0.1v0.1H23v0.1H23V15h-0.1v0.2h-0.1v0.6h0.1l0.2-0.3h0.1v0.2h-0.1c0,0.1,0,0.2-0.1,0.4
		H23l-0.1,0.2H23c0,0.1,0,0-0.1,0.1v0.1h-0.2c0,0.2-0.1,0.3-0.1,0.4c0,0.2,0,0.4-0.1,0.6h-0.1v0.3h-0.1v0.1h-0.1V18h-0.1v0.2h-0.1
		v0.2h-0.1v0.2h-0.1v0.2h-0.1V19h-0.1v0.2c-0.3,0.8-0.4,1.7-0.4,2.5c0.2,0.1,0.2,0.2,0.3,0.3l0.3,0.2v0.1l0.1,0.1
		c0,0.1,0,0.2,0.1,0.3h0.1v0.2h0.1v0.1h0.1v0.1l0.1,0.1l0.1,0.3h0.1v0.2c0.1,0.3,0.3,0.6,0.4,0.9l0.5,0.2v0.1h0.2v0.1h0.1v0.1h0.1
		v0.1h0.1v0.1h0.1V25h0.1l0.1,0.1h0.1l0.1,0.1l0.2,0.1l0.1,0.1h0.1l0.1,0.1h0.1v0.1h0.1v0.1l0.2,0.1v0.1l0.2,0.1v0.1l0.2,0.1v0.1
		h0.1v0.1h0.1V26h0.1V26h0.1v0.1h0.1v0.1l0.3,0.1v0.1l0.2,0.1v0.1l0.2,0.1v0.1h0.1v0.1h0.1v0.1h0.1v0.1h0.1v0.1h0.1
		C30.4,23.9,32,20.1,32,16c0-8.8-7.2-16-16-16S0,7.2,0,16c0,3.8,1.3,7.3,3.6,10l0.1,0V26L4,25.9v-0.1l0.3-0.1v-0.1l0.2-0.1v-0.1h0.2
		v-0.1L5,25.4v-0.1h0.1v-0.1h0.1v-0.1h0.2v-0.1l0.2-0.1v-0.1h0.1V25h0.2V25h0.1v-0.1H6v-0.1h0.1v-0.1h0.2v-0.1l0.2-0.1v-0.1h0.2
		v-0.1l0.2-0.1v-0.1H7v-0.1l0.2-0.1v-0.1h0.2v-0.1h0.1v-0.1h0.2C8.1,24,8.5,23.8,9,23.7L9.3,23l0.1-0.1c0-0.1,0-0.1,0.1-0.2l0.1-0.1
		v-0.1h0.1l0.1-0.2l0.2-0.1v-0.2h0.1v-0.2l0.1-0.1c0.1-0.1-0.1-0.1,0.2-0.2c0-0.1,0,0,0.1-0.1c0,0.5,0.1,1,0.3,1.3l0.2,0.1
		c0,0.2,0.1,0.4,0.1,0.5h0.1v0.1h0.1v0.1l0.1,0.1V24H11c0,0.1,0,0.1,0.1,0.2h0.1c0,0.1,0,0.1,0.1,0.2l0.1,0.1c0,0.1,0,0.1,0.1,0.2
		l0.1,0.1c0,0.1,0,0.2,0.1,0.3l0.1,0.1v0.1l0.2,0.1v0.1l0.1,0.1v0.2l0.1,0.1v0.1l0.2,0.1V26l0.2,0.1v0.1l0.2,0.1v0.1l0.1,0.1v0.2
		h0.1c0.1,0.1,0,0,0.2,0.1v0.1H13l0.1,0.1h0.1l0.1,0.1h0.1l0.2,0.3l0.2,0.1v0.1h0.1c0,0.1,0,0.1,0.2,0.2v0.1
		c0.3,0.1,0.5,0.4,0.6,0.7h0.1c0,0,0,0.1,0,0.1c0,0,0,0,0,0v0.1h0.1V29h0.1l0.1,0.2l0.1,0.1l0.1,0.3l0.1,0.1v0.2h0.1V30h0.1v0.1h0.1
		v0.2h0.1v0.1h0.1l0.1,0.2h0.1l0.5,1.4c0,0,0,0,0.1,0C16.3,32,16.5,32,16.8,32L16.8,32z M21.1,22.8L21.1,22.8l0.1-0.2
		c0.1,0.1,0.1,0,0.1,0.2h-0.1C21.2,22.8,21.2,22.8,21.1,22.8L21.1,22.8z M19,23.5c0,0,0.1,0.1,0.1,0.1H19L19,23.5z M18,23.4
		c0.1,0.1,0,0,0.1,0.1H18V23.4z M17.9,24.2c0.1,0.1,0.1,0.1,0.1,0.2c-0.1,0,0,0-0.1,0.1c-0.1,0,0,0-0.1-0.1c-0.1-0.1,0,0-0.1-0.1
		C17.9,24.3,17.9,24.3,17.9,24.2z M17.8,23.4L17.8,23.4c-0.1,0,0,0.1-0.1,0H17.8z M17.6,24.5h0.1v-0.1c0.1-0.1,0.1,0.1,0.1,0.1
		L17.6,24.5L17.6,24.5z M17.5,24.9h0.1L17.6,25h-0.1V24.9z M20.9,18L20.9,18l0.1,0.2h-0.1V18z M20.9,18.2c0.1,0.1,0,0,0.1,0.1h-0.1
		V18.2z M20.7,19.2C20.8,19.2,20.7,19.2,20.7,19.2l0.1,0.1v-0.1c0.1,0.1,0,0,0.1,0.1h-0.1c-0.1,0.1,0,0-0.1,0.1V19.2z M20.2,19.3
		v0.1C20.1,19.3,20.2,19.4,20.2,19.3c-0.1,0-0.1,0.1-0.1,0H20.2z M19.9,19.3C19.9,19.3,20,19.3,19.9,19.3l-0.1,0.1
		c-0.1-0.1,0,0-0.1-0.1H19.9z M19.8,19.5L19.8,19.5l0.1,0.2h-0.1V19.5z M15.4,17.5c-0.1,0,0,0-0.1-0.1L15.4,17.5L15.4,17.5z
		 M15.5,17.5c-0.1,0,0,0-0.1-0.1L15.5,17.5L15.5,17.5z M16.5,18.1L16.5,18.1L16.5,18.1h-0.2v0.1c-0.2,0-0.3,0-0.4-0.1V18h0.2
		l0.1,0.1h0.1v-0.1L16.5,18.1L16.5,18.1z M16.6,18.1V18C16.7,18.1,16.7,18,16.6,18.1L16.6,18.1z M16.8,21.1c-0.1,0,0,0-0.1-0.1
		L16.8,21.1L16.8,21.1z M17.2,18.2c-0.1,0,0,0-0.1-0.1L17.2,18.2L17.2,18.2z M17.7,21.1h-0.2V21L17.7,21.1l-0.1-0.2h0.1L17.7,21.1z
		 M19,20.3L19,20.3L19,20.3v-0.1C19.1,20.2,19.1,20.2,19,20.3C19,20.4,19,20.3,19,20.3z M19.4,20L19.4,20c-0.1-0.1,0-0.1-0.1-0.2
		C19.5,19.9,19.4,19.9,19.4,20L19.4,20z M19.6,19.8v0.1l-0.2-0.1v-0.1L19.6,19.8v-0.1C19.6,19.7,19.6,19.7,19.6,19.8l0.1-0.1
		C19.6,19.8,19.7,19.8,19.6,19.8z M19.6,19.4L19.6,19.4c-0.1,0,0,0.1-0.1,0H19.6z M19.5,19.5L19.5,19.5
		C19.5,19.5,19.5,19.5,19.5,19.5L19.5,19.5C19.5,19.5,19.4,19.6,19.5,19.5z M19.3,18.9L19.3,18.9L19.3,18.9c0.1,0.1,0.1,0.1,0.1,0.2
		h-0.1V18.9z M19.3,19.4L19.3,19.4L19.3,19.4v0.2c-0.1,0,0,0-0.1-0.1c-0.1,0,0,0-0.1-0.1C19.3,19.4,19.2,19.4,19.3,19.4z M19.1,16.2
		C19.2,16.3,19.1,16.2,19.1,16.2l0.1,0.1c-0.1,0.1,0,0-0.1,0.1V16.2z M18.8,16.2L18.8,16.2L18.8,16.2c-0.1,0.1-0.1,0.2,0,0.2v0.1
		h-0.1l-0.1-0.2h0.1C18.8,16.2,18.7,16.3,18.8,16.2z M18.8,16.8l-0.1,0.2l-0.2-0.1l-0.1,0.1v-0.2L18.8,16.8
		C18.8,16.8,18.8,16.7,18.8,16.8z M18.7,15.7v0.1C18.6,15.8,18.7,15.8,18.7,15.7c-0.1,0-0.1,0.1-0.1,0H18.7z M18.5,16.6h-0.1v-0.1
		h0.1V16.6z M18.3,16.1C18.4,16.2,18.3,16.1,18.3,16.1l0.1,0.1c-0.1,0.1,0,0-0.1,0.1V16.1z M17.2,12.3L17.2,12.3l0.1,0.2h0.1v0.1
		h0.1v0.2h0.1V13h0.1v0.2h0.1v0.1l0.2,0.1v0.1l0.1,0.1v0.1l0.2,0.1v0.1l0.1,0.1v0.3h0.1c0.1,0.2,0.1,0.4-0.1,0.5
		c0,0.2-0.1,0.2-0.2,0.2v0.1c-0.1,0-0.2,0-0.2,0.1v-0.1h0.1c0-0.2,0.1-0.1,0.1-0.3H18c0.1-0.5,0-0.7-0.3-1l-0.2-0.1l-0.1-0.2
		l-0.2-0.1L17.2,13l-0.1-0.1c0-0.1,0,0,0.1-0.1c0-0.1,0,0-0.1-0.1c0-0.2,0-0.4-0.1-0.6C17.2,12.3,17.2,12.2,17.2,12.3z M16.4,14.6
		l0.2-0.1l0.2-0.3h0.1v-0.2h0.1c0.1-0.1,0.1-0.1,0.3-0.2c0.1,0.2,0.4,0.3,0.4,0.6c-0.2,0-0.2,0-0.3,0.1v0.1
		c-0.2,0.1-0.2-0.1-0.2-0.1H17v-0.1c-0.2-0.1-0.4,0.1-0.6,0.2V14.6z M17.3,14.9h-0.2v-0.2h0.1L17.3,14.9
		C17.3,14.9,17.3,14.9,17.3,14.9z M16.9,14.8H17v0.1C16.9,14.8,17,14.8,16.9,14.8z M17,16.7L17,16.7l-0.3,0.1v-0.1H17z M16.2,14.6
		L16.2,14.6C16.3,14.6,16.2,14.5,16.2,14.6L16.2,14.6C16.2,14.6,16.2,14.6,16.2,14.6z M15.3,14h0.3l0.4,0.4v0.1h0.1v0.1h-0.2v-0.1
		c-0.2-0.1-0.3,0.2-0.5,0.2v-0.1c-0.1,0-0.1-0.1-0.1-0.1h-0.1v-0.1c-0.1-0.1-0.1,0-0.1-0.2C15.2,14.2,15.3,14.1,15.3,14z M15.8,16.7
		L15.8,16.7l-0.3,0.1v-0.1H15.8z M14.6,14L14.6,14l0.1,0.5h0.1l0.1,0.3h-0.1c-0.1-0.1,0,0-0.1-0.1l-0.1-0.2h-0.1
		C14.5,14.5,14.6,14.1,14.6,14z M14.3,16.6L14.3,16.6l0.1,0.2h-0.1V16.6z M14,16.8c0.1,0,0.1-0.1,0.2-0.1v0.2L14,16.9V16.8z
		 M13.7,17.1h0.2L13.8,17l0.1-0.1l0.1,0.1l0.1-0.1V17h0.1c0.1,0.1,0,0.1,0.2,0.1c0.1-0.1,0.2-0.1,0.4-0.2v-0.1h0.2v-0.1h0.2l0.1-0.1
		h0.3v0.1c-0.1,0-0.1,0-0.2,0.1V17h0.5V17h0.2V17c-0.1,0-0.1,0-0.2-0.1c0.3,0,0.2-0.1,0.4-0.2v0.2l0.1-0.1v0.1c0,0.1,0,0,0.1,0.1
		h-0.1V17h0.2v-0.1h0.1c0,0,0,0.2,0.1,0.1V17h0.1v-0.1c0,0-0.2,0-0.1-0.1h0.1v-0.1l0.3,0.1v0.1c-0.1,0.1,0,0-0.1,0.1
		c0.2,0,0.5-0.1,0.7-0.1v-0.1l-0.3-0.1v-0.1l1,0.2V17h0.1V17h0.2v0.1l0.4-0.1v-0.1h0.1v0.2l0.3,0.1v0.1c0.1,0.1,0,0,0.1,0.1
		l-0.5,0.1v0.1h-0.1v0.1h-0.2v0.1l-0.3,0.1v0.1c-0.1,0-0.1-0.1-0.1-0.1h-0.2v0.1c-0.3,0-0.5-0.1-0.9-0.1v-0.1l0.1,0.1v-0.1
		c0.1-0.1,0.1-0.1,0.3-0.1v-0.1h0.1v-0.1c-0.1,0,0,0-0.1-0.1c-0.5,0-1.5-0.1-2.2,0.1v0.4H15v-0.1h-0.1v0.1l-0.1-0.1
		c-0.2,0-0.1,0.1-0.3,0.1v-0.1h-0.2v-0.1c-0.2-0.1-0.4,0-0.6-0.1c0,0.1,0,0.2-0.1,0.2v-0.1c-0.1-0.1-0.1-0.1-0.1-0.2
		C13.7,17.3,13.7,17.3,13.7,17.1z M11.7,19.8v0.1C11.7,19.9,11.7,19.9,11.7,19.8c-0.1,0-0.1,0.1-0.1,0H11.7z M23,17.9h-0.2v-0.1
		L23,17.9L23,17.9z M23.1,17.8v-0.1C23.2,17.7,23.2,17.7,23.1,17.8L23.1,17.8z M23.7,13.9L23.7,13.9l0.1,0.3h0.1
		c0,0.1,0,0.1,0.1,0.3h-0.1c0-0.1,0-0.1-0.1-0.2h-0.1V13.9z M23.9,16.3l-0.3,0.3v-0.1c0.1-0.1,0.2-0.3,0.3-0.5h0.1V16.3z M8,12.9
		L8,12.9c0-0.1-0.2-0.1-0.2-0.2c0-0.1,0,0,0.1-0.1C7.9,12.7,8,12.7,8,12.9L8,12.9z M8.9,16.2H8.8v-0.1h0.1V16.2z M8.8,15.9
		c0-0.2-0.1-0.2-0.2-0.4h0.1c0.1,0.1,0.2,0.2,0.2,0.4H8.8z M8.8,14.3C8.8,14.3,8.8,14.3,8.8,14.3c0.1,0,0.1-0.1,0.1,0
		c0.1,0.1,0.1,0.1,0.1,0.2C8.8,14.5,8.8,14.5,8.8,14.3z M9.4,17.5v-0.1C9.5,17.4,9.5,17.3,9.4,17.5L9.4,17.5z M10.8,19.5L10.8,19.5
		l-0.1-0.2h0.1V19.5z M11.2,20.3v-0.1C11.2,20.2,11.2,20.2,11.2,20.3L11.2,20.3z M12.7,22.6v-0.1C12.8,22.5,12.7,22.5,12.7,22.6
		l0.1-0.1C12.7,22.6,12.8,22.5,12.7,22.6z M13.2,22.1V22C13.2,22.1,13.2,22,13.2,22.1l0.1-0.1C13.2,22.2,13.3,22.1,13.2,22.1z
		 M13.5,22.4h0.1v0.1C13.5,22.4,13.6,22.4,13.5,22.4z M13.7,22.6h-0.1v-0.1h0.1V22.6z M14,22.4L14,22.4L14,22.4
		c0.1,0.1,0.1,0.1,0.1,0.2H14V22.4z M14,24.5v-0.1C14,24.4,14,24.4,14,24.5L14,24.5z M14.1,24c-0.1,0,0,0-0.1-0.1L14.1,24L14.1,24z
		 M15.3,22.9c-0.1,0,0,0-0.1-0.1L15.3,22.9L15.3,22.9z M15.8,22.9v-0.1C15.9,22.8,15.9,22.8,15.8,22.9L15.8,22.9z M16.5,22.8
		L16.5,22.8l-0.1-0.1c-0.1-0.1,0,0-0.1-0.1h0.1c0,0.1,0,0-0.1,0.1v0.1C16.5,22.8,16.5,22.7,16.5,22.8z M16.4,22.2c0,0,0.2,0,0.2,0.1
		C16.5,22.3,16.5,22.3,16.4,22.2z"/>
	<path class="st0" d="M9.6,29.3L9.6,29.3c0.2,0.1,0.3,0.2,0.4,0.2v-0.1C9.8,29.4,9.8,29.3,9.6,29.3L9.6,29.3z"/>
	<polygon class="st0" points="15.8,31.9 15.8,31.9 15.8,31.8 15.7,31.8 15.7,31.9 15.8,31.9 	"/>
	<path class="st0" d="M14.1,30.9L14,30.8v0.1c0.1,0.1,0,0,0.1,0.1L14.1,30.9L14.1,30.9z"/>
	<rect x="13.5" y="29.4" class="st0" width="0.1" height="0.1"/>
	<polygon class="st0" points="13.6,28.2 13.5,28.2 13.4,28.3 13.5,28.3 	"/>
	<path class="st0" d="M13.5,29c0-0.1-0.1-0.1-0.1-0.2C13.4,28.9,13.4,28.9,13.5,29z"/>
	<path class="st0" d="M13.7,29.8v-0.1h-0.1L13.7,29.8L13.7,29.8C13.7,29.8,13.8,29.8,13.7,29.8z"/>
	<polygon class="st0" points="13.8,30.1 13.9,30.1 13.8,29.9 13.7,29.9 13.8,30.1 13.8,30.1 	"/>
	<polygon class="st0" points="13.9,30.4 13.9,30.3 13.8,30.3 13.9,30.4 	"/>
	<rect x="13.4" y="29.1" class="st0" width="0.1" height="0.2"/>
	<path class="st0" d="M23.8,28.5v0.1l0.2,0.1c0.1,0.1,0.1,0.2,0.3,0.3v-0.1C24.1,28.8,24.1,28.6,23.8,28.5z"/>
	<path class="st0" d="M13.4,31.3v0.1c0.2,0,0.2,0.1,0.4,0.2v-0.1h-0.1C13.6,31.4,13.5,31.4,13.4,31.3z"/>
	<path class="st0" d="M12.1,31.5c0.1,0,0.2,0.1,0.3,0.1C12.3,31.5,12.2,31.5,12.1,31.5L12.1,31.5z"/>
	<path class="st0" d="M10.8,31L10.8,31l0.1,0.1c0,0,0,0.1,0.1,0.1H11v0c0.1,0,0.1,0.1,0.2,0.1v0C11.1,31.2,11,31,10.8,31z"/>
	<path class="st0" d="M24.6,27L24.6,27l-0.2-0.1c0,0-0.1,0.1-0.2,0.1v0.1h0.2C24.5,27,24.5,27,24.6,27z"/>
	<path class="st0" d="M26.7,27.3c0.1,0.1,0,0,0.1,0.1C26.8,27.3,26.8,27.3,26.7,27.3z"/>
	<path class="st0" d="M6.6,25.9c-0.1-0.1,0,0-0.1-0.1C6.5,25.9,6.5,25.8,6.6,25.9z"/>
	<path class="st0" d="M5.2,26.7c0,0-0.2,0-0.2-0.1H5v0.1c0.2,0,0.2,0.1,0.4,0.2v-0.1L5.2,26.7L5.2,26.7z"/>
	<path class="st0" d="M26.7,26.4L26.7,26.4l-0.2-0.1C26.5,26.3,26.6,26.4,26.7,26.4z"/>
	<path class="st0" d="M5.9,27.5L5.9,27.5c0.2,0.1,0.3,0.2,0.4,0.2v-0.1C6.2,27.6,6.1,27.5,5.9,27.5L5.9,27.5z"/>
	<path class="st0" d="M5.3,25.9h0.1c0.1,0.1,0.1,0.1,0.2,0.2V26C5.4,25.9,5.5,25.9,5.3,25.9L5.3,25.9z"/>
	<path class="st0" d="M6.2,26.6L6.2,26.6l0.4,0.3v-0.1C6.4,26.7,6.5,26.6,6.2,26.6L6.2,26.6z"/>
	<path class="st0" d="M24.7,28.1L24.7,28.1L24.7,28.1L24.7,28.1c0.1,0,0.1,0,0.2,0V28C24.7,28,24.8,28,24.7,28.1z"/>
	<path class="st0" d="M24.6,29.1L24.6,29.1l0.1,0.1c0.1-0.1,0,0,0.1-0.1v-0.1h-0.1C24.7,29.1,24.7,29.1,24.6,29.1z"/>
	<path class="st0" d="M9.7,28.9v-0.1H9.4v0.1h0.1C9.6,28.9,9.6,28.9,9.7,28.9z"/>
	<path class="st0" d="M24.5,28.1c0.1,0.1,0,0,0.1,0.1C24.5,28.1,24.6,28.2,24.5,28.1z"/>
	<polygon class="st0" points="25.7,25.7 25.5,25.7 25.5,25.8 25.7,25.8 	"/>
	<path class="st0" d="M25.5,27.6c0.1,0,0.1,0,0.2,0.1v-0.1L25.5,27.6L25.5,27.6z"/>
	<path class="st0" d="M25.4,25.9L25.4,25.9l-0.2-0.1C25.3,25.8,25.3,25.9,25.4,25.9z"/>
	<path class="st0" d="M26,28.3h0.2v-0.1c-0.1,0-0.1,0-0.2-0.1V28.3z"/>
	<path class="st0" d="M9.4,25.3h0.2v-0.1L9.4,25.3L9.4,25.3C9.4,25.3,9.3,25.3,9.4,25.3z"/>
	<path class="st0" d="M8.3,24.2H8.2c0,0.2-0.1,0.1,0.1,0.2L8.3,24.2z"/>
	<path class="st0" d="M8.5,28.3c-0.1-0.1-0.1-0.1-0.2-0.1C8.3,28.3,8.5,28.4,8.5,28.3l0.1,0.1C8.5,28.3,8.6,28.3,8.5,28.3z"/>
	<path class="st0" d="M7.6,26.5L8,26.6v-0.1c-0.1-0.1-0.2-0.1-0.3-0.2V26.5z"/>
	<polygon class="st0" points="8.4,26.7 8.6,26.7 8.6,26.7 8.4,26.6 	"/>
	<path class="st0" d="M6.7,26L6.7,26l-0.1,0.1c0.1,0.1,0,0,0.1,0.1h0.1v-0.1H6.7L6.7,26z"/>
	<polygon class="st0" points="9.7,26.2 9.3,26.1 9.3,26.2 9.7,26.3 	"/>
	<path class="st0" d="M9.8,27.2v-0.1c-0.2,0.1-0.2,0-0.4,0v0.1C9.5,27.2,9.5,27.2,9.8,27.2z"/>
	<path class="st0" d="M7.5,27.4c0.1,0.1,0,0,0.1,0.1h0.1v-0.1H7.5L7.5,27.4z"/>
	<path class="st0" d="M8.5,25c0.1,0.1,0,0,0.1,0.1C8.6,25,8.6,25.1,8.5,25z"/>
	<path class="st0" d="M9.8,24.8c0,0,0.1,0,0.1-0.1H9.8c0,0.1,0,0.1-0.1,0.2h0.1V24.8z"/>
	<path class="st0" d="M9.4,28.1c0.1,0,0.3,0,0.4,0.1v-0.1C9.6,28.1,9.5,28,9.4,28.1z"/>
	<path class="st0" d="M7.4,27.7c-0.1-0.1,0,0-0.1-0.1C7.3,27.7,7.3,27.7,7.4,27.7z"/>
	<polygon class="st0" points="7.5,25.6 7.5,25.6 7.5,25.4 7.5,25.4 7.4,25.6 7.5,25.6 	"/>
	<path class="st0" d="M8.5,25.9c-0.1-0.1,0,0-0.1-0.1C8.5,25.9,8.4,25.8,8.5,25.9z"/>
	<rect x="8.4" y="27.5" class="st0" width="0.1" height="0.1"/>
	<path class="st0" d="M7,28.6c0.2,0,0.1,0.1,0.3,0.2v0.1h0.1v-0.1c0.1-0.1,0,0,0.1-0.1c-0.2,0-0.2-0.2-0.4-0.2V28.6z"/>
	<path class="st1" d="M17.2,14.7L17.2,14.7l-0.1,0.2h0.2c0-0.1,0,0-0.1-0.1L17.2,14.7z"/>
	<path class="st1" d="M17,14.8h-0.1C17,14.8,16.9,14.8,17,14.8L17,14.8z"/>
	<path class="st1" d="M17,14.5L17,14.5l0.1,0.1c0,0,0,0.2,0.2,0.1v-0.1c0.1-0.1,0.1-0.1,0.3-0.1c-0.1-0.3-0.3-0.4-0.4-0.6
		c-0.2,0-0.2,0-0.3,0.2h-0.1v0.2h-0.1l-0.2,0.3l-0.2,0.1v0.1C16.6,14.7,16.7,14.4,17,14.5z"/>
	<path class="st1" d="M17.2,12.9C17.2,12.9,17.1,12.9,17.2,12.9l0.1,0.1l0.1,0.2l0.2,0.1l0.1,0.2l0.2,0.1c0.3,0.3,0.4,0.5,0.3,1
		h-0.1c0,0.2-0.1,0.1-0.1,0.3h-0.1V15c0-0.1,0.2,0,0.2-0.1v-0.1c0.2,0,0.2-0.1,0.2-0.2c0.1-0.1,0.1-0.4,0.1-0.5h-0.1v-0.3L18,13.8
		v-0.1l-0.2-0.1v-0.1l-0.1-0.1v-0.1l-0.2-0.1v-0.1h-0.1V13h-0.1v-0.2h-0.1v-0.2h-0.1v-0.1h-0.1v-0.2h-0.1c-0.1-0.1,0-0.1-0.2-0.1
		C17.1,12.4,17.1,12.6,17.2,12.9C17.1,12.9,17.2,12.8,17.2,12.9z"/>
	<rect x="18.4" y="16.5" class="st1" width="0.1" height="0.1"/>
	<rect x="15.5" y="16.7" class="st1" width="0.3" height="0.1"/>
	<path class="st1" d="M14.6,14.6l0.1,0.2c0.1,0,0,0,0.1,0.1h0.1l-0.1-0.3L14.6,14.6l0.1-0.6h-0.1C14.6,14.1,14.5,14.5,14.6,14.6
		L14.6,14.6z"/>
	<path class="st1" d="M18.6,15.7C18.7,15.8,18.6,15.8,18.6,15.7L18.6,15.7L18.6,15.7C18.6,15.8,18.6,15.7,18.6,15.7z"/>
	<rect x="14.3" y="16.6" class="st1" width="0.1" height="0.2"/>
	<path class="st1" d="M16.2,14.5L16.2,14.5c-0.1,0.1,0,0-0.1,0.1h0.1C16.2,14.5,16.3,14.6,16.2,14.5z"/>
	<path class="st1" d="M15.3,14.5L15.3,14.5l0.1,0.1c0,0,0,0.1,0.1,0.1v0.1c0.1,0,0.2-0.3,0.5-0.2v0.1h0.2v-0.1H16v-0.1L15.6,14h-0.3
		c0,0.1-0.1,0.2-0.2,0.2C15.2,14.4,15.2,14.4,15.3,14.5z M15.4,14.3L15.4,14.3l0.1,0.1h-0.1V14.3z"/>
	<rect x="16.7" y="16.7" class="st1" width="0.3" height="0.1"/>
	<path class="st1" d="M19,20.2L19,20.2L19,20.2c0,0.1,0,0.2,0.1,0.1C19.1,20.2,19.1,20.2,19,20.2L19,20.2z"/>
	<path class="st1" d="M19.6,19.4L19.6,19.4l-0.1-0.1C19.6,19.4,19.5,19.4,19.6,19.4z"/>
	<polygon class="st1" points="19.4,19.9 19.6,19.9 19.6,19.8 19.4,19.7 	"/>
	<path class="st1" d="M19.6,19.7v0.1c0.1,0,0,0,0.1-0.1L19.6,19.7C19.6,19.7,19.6,19.7,19.6,19.7z"/>
	<path class="st1" d="M19.4,19.9c0,0.1,0,0,0.1,0.1V20h0.1C19.4,19.9,19.5,19.9,19.4,19.9z"/>
	<polygon class="st1" points="17.7,21 17.5,21 17.5,21.1 17.7,21.1 17.8,20.9 17.7,20.9 	"/>
	<path class="st1" d="M14.2,16.7c-0.1,0.1-0.1,0.1-0.2,0.1v0.1l0.2-0.1V16.7z"/>
	<path class="st1" d="M19.5,19.6c0-0.1,0,0-0.1-0.1L19.5,19.6c-0.1,0-0.1-0.1-0.1,0H19.5z"/>
	<path class="st1" d="M18.7,16.4h0.1v-0.1c-0.1,0-0.1,0-0.1-0.1h0.1v-0.1c-0.1,0,0,0-0.1,0.1h-0.1L18.7,16.4z"/>
	<path class="st1" d="M19.2,16.3L19.2,16.3c-0.1-0.1,0,0-0.1-0.1v0.1C19.2,16.3,19.1,16.3,19.2,16.3z"/>
	<path class="st1" d="M18.5,16.7v0.2l0.1-0.1l0.2,0.1l0.1-0.2c-0.1,0,0,0-0.1-0.1H18.5z"/>
	<path class="st1" d="M19.3,19.5C19.3,19.5,19.2,19.5,19.3,19.5l0.1-0.1v-0.1h-0.1C19.2,19.4,19.3,19.4,19.3,19.5
		C19.2,19.5,19.2,19.4,19.3,19.5z"/>
	<path class="st1" d="M19.4,19L19.4,19L19.4,19l-0.1,0.1h0.1C19.4,19,19.4,19.1,19.4,19z"/>
	<path class="st1" d="M18.4,16.2L18.4,16.2c-0.1-0.1,0,0-0.1-0.1v0.1C18.4,16.2,18.3,16.2,18.4,16.2z"/>
	<path class="st1" d="M13.7,22.4h-0.1C13.6,22.4,13.5,22.4,13.7,22.4L13.7,22.4z"/>
	<rect x="13.6" y="22.5" class="st1" width="0.1" height="0.1"/>
	<path class="st1" d="M14,22.4L14,22.4L14,22.4L14,22.5h0.1C14.1,22.4,14.1,22.5,14,22.4z"/>
	<path class="st1" d="M14,24.4v0.1H14C14,24.4,14,24.4,14,24.4z"/>
	<path class="st1" d="M13.2,22v0.1c0.1,0,0,0,0.1-0.1L13.2,22C13.2,22,13.2,22.1,13.2,22z"/>
	<path class="st1" d="M17.2,18.2L17.2,18.2l-0.1-0.1C17.2,18.2,17.1,18.2,17.2,18.2z"/>
	<path class="st1" d="M12.7,22.5v0.1c0.1,0,0,0,0.1-0.1L12.7,22.5C12.7,22.5,12.8,22.5,12.7,22.5z"/>
	<path class="st1" d="M13.7,17.6L13.7,17.6c0.1,0,0.1,0,0.1-0.2c0.2,0.1,0.4,0,0.6,0.1v0.1h0.2v0.1c0.2,0,0.1-0.1,0.3-0.1l0.1,0.1
		v-0.1H15v0.1h0.2v-0.4c0.7-0.1,1.7-0.1,2.2-0.1c0,0.1,0,0,0.1,0.1v0.1h-0.1v0.1c-0.2,0-0.1,0-0.3,0.1v0.1L17,17.5v0.1
		c0.4,0,0.6,0,0.9,0.1v-0.1H18c0,0,0,0.1,0.1,0.1v-0.1l0.3-0.1v-0.1h0.2v-0.1h0.1v-0.1l0.5-0.1c0-0.1,0,0-0.1-0.1v-0.1l-0.3-0.1
		v-0.2h-0.1V17l-0.4,0.1V17h-0.2V17h-0.1v-0.1l-1-0.2v0.1l0.3,0.1V17c-0.3,0-0.5,0-0.7,0.1c0-0.1,0,0,0.1-0.1v-0.1l-0.3-0.1v0.1
		h-0.1c-0.1,0.1,0.1,0,0.1,0.1V17h-0.1V17c-0.1,0.1,0-0.1-0.1-0.1h-0.1V17h-0.2V17h0.1c0-0.1,0,0-0.1-0.1v-0.1l-0.1,0.1v-0.2
		c-0.2,0.1-0.1,0.1-0.4,0.2c0.1,0.1,0,0.1,0.2,0.1V17h-0.2V17h-0.5v-0.1c0.1,0,0.1-0.1,0.2-0.1v-0.1h-0.3l-0.1,0.1h-0.2v0.1h-0.2V17
		c-0.2,0.1-0.3,0-0.4,0.2c-0.2,0-0.1,0-0.2-0.1H14v-0.1L13.9,17l-0.1-0.1L13.8,17l0.1,0.2h-0.2c0,0.1,0,0.2-0.1,0.2
		C13.6,17.5,13.6,17.5,13.7,17.6z"/>
	<path class="st1" d="M16.4,22.2c0.1,0.1,0,0.1,0.2,0.1C16.6,22.2,16.5,22.2,16.4,22.2z"/>
	<path class="st1" d="M16.5,22.8c0-0.1,0,0-0.1-0.1L16.5,22.8L16.5,22.8z"/>
	<path class="st1" d="M14.1,24L14.1,24L14,24C14.1,24,14,24,14.1,24z"/>
	<path class="st1" d="M15.3,22.9L15.3,22.9l-0.1-0.1C15.2,23,15.1,22.9,15.3,22.9z"/>
	<path class="st1" d="M15.8,22.8v0.1h0.1C15.9,22.8,15.9,22.8,15.8,22.8z"/>
	<path class="st1" d="M16.5,22.6h-0.1c0,0.1,0,0,0.1,0.1L16.5,22.6C16.5,22.6,16.4,22.7,16.5,22.6z"/>
	<path class="st1" d="M23.8,14.5L23.8,14.5c0-0.1,0-0.2,0-0.3h-0.1v-0.3h-0.1v0.4h0.1C23.8,14.3,23.8,14.3,23.8,14.5z"/>
	<path class="st1" d="M7.8,12.7C7.8,12.7,7.7,12.6,7.8,12.7c-0.1,0.1,0.1,0.1,0.2,0.2v0.1H8C8,12.7,7.9,12.7,7.8,12.7z"/>
	<path class="st1" d="M23.1,17.7v0.1h0.1C23.2,17.7,23.2,17.7,23.1,17.7z"/>
	<path class="st1" d="M23.6,16.4v0.1l0.3-0.3v-0.4h-0.1C23.8,16.1,23.8,16.3,23.6,16.4z"/>
	<rect x="22.9" y="17.9" class="st1" width="0.2" height="0.1"/>
	<path class="st1" d="M11.7,19.9C11.7,19.9,11.7,19.9,11.7,19.9L11.7,19.9L11.7,19.9C11.7,19.9,11.6,19.8,11.7,19.9z"/>
	<path class="st1" d="M11.2,20.2v0.1h0.1C11.2,20.2,11.2,20.2,11.2,20.2z"/>
	<path class="st1" d="M9.4,17.3v0.1h0.1C9.5,17.3,9.5,17.4,9.4,17.3z"/>
	<rect x="10.8" y="19.4" class="st1" width="0.1" height="0.2"/>
	<rect x="8.8" y="16.1" class="st1" width="0.1" height="0.1"/>
	<path class="st1" d="M8.8,14.3C8.8,14.3,8.8,14.3,8.8,14.3c0,0.2,0,0.2,0.2,0.3C8.9,14.4,8.9,14.4,8.8,14.3
		C8.8,14.2,8.9,14.3,8.8,14.3z"/>
	<path class="st1" d="M8.6,15.5c0,0.2,0.1,0.2,0.2,0.4h0.1C8.9,15.7,8.8,15.6,8.6,15.5L8.6,15.5z"/>
	<path class="st1" d="M14.2,11.3l-0.5,0.1c0-0.1,0-0.2,0.1-0.4L13.7,11c-0.1-0.2,0-0.2,0.1-0.3l-0.2-0.1v-0.1c0.2,0,0.1,0.1,0.2,0.1
		c0.1,0,0.1,0,0.1-0.1h0.1l0.2-0.1v-0.1H14v0.1h-0.2v-0.1h0.1v-0.1h-0.1c-0.1-0.2-0.1,0-0.3-0.1v-0.1h-0.1v-0.1l0.4,0.1v0.2
		c0.1-0.1,0,0,0.1-0.1c0.1,0,0.1,0.1,0.1,0.1h0.2c0-0.1,0,0-0.1-0.1c-0.2-0.2-0.4-0.2-0.7-0.2h-0.3l-1.3,0.5L11.7,11l-0.1,0.1
		c-0.1,0.1,0,0.1-0.1,0.2v0.1l0.2-0.1c0,0.1,0,0.2-0.1,0.2c0,0,0,0.1,0.1,0.1v-0.1h0.1v0.1c0.2,0,0.2,0.1,0.2,0.3H12v-0.2l0.3,0.1
		v-0.1h0.1c0,0,0,0.1,0.2,0.1v-0.1h0.1c0,0.1,0,0-0.1,0.1V12c0.1,0,0.1-0.1,0.2-0.2l0.2,0.1l0.2-0.1c0.1,0,0,0.1,0.1,0.1v-0.1
		l0.3-0.1v-0.1h-0.1v-0.1l0.2,0.1v-0.1c0.2-0.1,0.3-0.1,0.4,0.1c0.1,0,0.1-0.1,0.1-0.2h0.1v-0.1h0.2L14.2,11.3L14.2,11.3z
		 M12.7,11.5c0.2,0.4-1.1,0.3-1.1-0.3c0.2-0.6,1.2-0.7,1-0.3c0,0.1,0,0-0.1,0.1C12.6,11.2,12.6,11.4,12.7,11.5L12.7,11.5z M13,11.7
		c-0.1,0,0,0-0.1-0.1L13,11.7c0-0.1-0.1-0.1,0-0.1V11.7z M12.9,10.6c0,0,0-0.1,0.1-0.1H13C13,10.5,12.9,10.6,12.9,10.6z M13.1,11.7
		L13.1,11.7L13,11.6h0.1V11.7z M13.2,11.1c0.1,0,0,0,0.1,0.1C13.2,11.1,13.2,11.1,13.2,11.1z M13.4,10.6c-0.2,0-0.3,0-0.4-0.2h0.3
		C13.4,10.5,13.4,10.5,13.4,10.6L13.4,10.6z"/>
	<path class="st1" d="M13.4,4.2L13.4,4.2l-0.1-0.1C13.4,4.2,13.3,4.2,13.4,4.2z"/>
	<rect x="11.3" y="6.3" class="st1" width="0.2" height="0.1"/>
	<rect x="18.4" y="11.7" class="st1" width="0.1" height="0.1"/>
	<path class="st1" d="M21.1,10.6c0.1,0.1,0.1,0.1,0.2,0.2h0.2v-0.1L21.1,10.6z"/>
	<rect x="21" y="7.5" class="st1" width="0.1" height="0.1"/>
	<path class="st1" d="M20.8,7.5v0.1h0.1C20.8,7.5,20.9,7.5,20.8,7.5z"/>
	<path class="st1" d="M18.6,10.2L18.6,10.2l-0.1-0.1C18.6,10.2,18.5,10.2,18.6,10.2z"/>
	<path class="st1" d="M18.7,10.1v0.1c0.2,0,0.3-0.1,0.5-0.1v-0.1C19.1,10,18.7,10.1,18.7,10.1z"/>
	<path class="st1" d="M18.9,11.6v0.1H19C19,11.6,19,11.6,18.9,11.6z"/>
	<path class="st1" d="M21,11.1L21,11.1c-0.1-0.1-0.1-0.1-0.3-0.1v-0.1c-0.1,0-0.2-0.1-0.2-0.1v-0.1h-0.1l-0.1-0.1h-0.1l-0.1-0.1
		h-0.2L20,10.4h-0.1v-0.1h-0.1v-0.1h-0.2v-0.1l-0.3-0.1v-0.1h-0.2v0.1h-0.1c0,0.1,0,0.2,0.1,0.3h-0.1v0.1h-0.4
		c0.1,0.1,0,0.2-0.2,0.2v-0.1h-0.1c0.1,0.1,0,0,0.1,0.1c-0.1,0-0.1,0-0.2,0.1l-0.2,0.1L18,11.1v0.1c0,0.1,0.2,0.1,0.3,0.1l0.1,0.1
		h0.2v0.1l0.3,0.1v-0.1h0.1l-0.1,0.2l0.2-0.1v0.1c0.1,0,0.1,0,0.2-0.1c0,0.1,0,0.1-0.1,0.2c0,0.1,0,0,0.1,0.1c0,0,0,0.1,0.1,0.1
		v-0.1c0-0.1,0.1,0,0.1-0.1h0.1v-0.1h-0.1v-0.1l0.3,0.1v0.1h-0.1l0.1,0.2c0.1,0,0,0,0.1,0.1h0.1v-0.2h0.1v-0.1h0.1v0.3l0.2-0.1
		c0,0.1,0,0,0.1,0.1c0-0.1,0.1-0.1,0.1-0.2c0.3,0,0.2,0.2,0.3-0.1c0.1,0,0.2,0.1,0.2,0.2c0,0.1,0.1,0,0.1,0.1h-0.1V12h-0.1V12
		L20.4,12c0,0.1,0,0-0.1,0.1c0,0.1,0,0,0.1,0.1v0.1c0,0,0.2,0,0.1-0.1h-0.1v-0.1l0.2,0.1l0.1-0.1l0.2-0.1v-0.4l0.3,0.1
		c0-0.2-0.1-0.1-0.1-0.2v-0.1H21v-0.1h0.1l-0.1-0.2H21V11.1z M18.9,11.3c0.1,0.1,0.1,0.2,0.1,0.2l-0.6-0.1c-0.1,0-0.1,0-0.2-0.2
		c-0.1,0-0.4-0.1-0.5-0.1c0.2-0.1,0.8-0.7,1.3-0.6c0,0-0.2,0.1-0.2,0.2S18.9,11.1,18.9,11.3z M19.5,11.1L19.5,11.1l-0.1-0.1h0.1
		V11.1z M19.7,10.5h-0.1v0.1h-0.1v-0.1h-0.2c0-0.1,0,0-0.1-0.1v-0.1h0.3l-0.1,0.1l0.2-0.1V10.5z M19.9,10.5c-0.1,0,0,0-0.1,0.1h-0.1
		l0.1-0.2L19.9,10.5L19.9,10.5z M21,11.2l0.1,0.3L20.7,12c-0.1,0-0.2-0.6-0.5-0.3l-0.4-0.2c0.2-0.1,0.3-0.5,0.2-0.8
		c-0.1-0.4,0.4-0.1,0.5,0.1L21,11V11.2z"/>
	<path class="st1" d="M19,12.3L19,12.3c-0.1,0.1,0,0-0.1,0.1H19C19,12.3,19,12.3,19,12.3z"/>
	<path class="st1" d="M14.3,8.6c0.1,0.1,0.1,0.1,0.3,0.2V8.7C14.5,8.7,14.5,8.6,14.3,8.6z"/>
	<path class="st1" d="M18.3,11.6L18.3,11.6l-0.1-0.1C18.3,11.6,18.2,11.6,18.3,11.6z"/>
	<path class="st1" d="M13.4,21.8c0,0-0.1,0.1-0.1,0.1c0,0,0,0.2,0.1,0.2V22h0.1v0.1h0.2L13.5,22c0.1,0,0.1-0.1,0.2-0.1v-0.1
		l-0.2-0.1v-0.1L13.4,21.8v-0.1h-0.1C13.3,21.8,13.3,21.8,13.4,21.8z"/>
	<path class="st1" d="M14.3,10.5L14.3,10.5c-0.1-0.1,0,0-0.1-0.1v0.1C14.3,10.5,14.3,10.5,14.3,10.5z"/>
	<path class="st1" d="M15.1,10.9L15.1,10.9L15.1,10.9l0.1-0.1L15,10.8v0.1h0.1C15.1,10.9,15,10.9,15.1,10.9z"/>
	<path class="st1" d="M15.2,9.5L15.2,9.5l-0.1-0.1C15.2,9.5,15.1,9.5,15.2,9.5z"/>
	<path class="st1" d="M15.4,10.4v0.1h0.1C15.4,10.4,15.5,10.5,15.4,10.4z"/>
	<path class="st1" d="M21.1,11.2c0.1,0,0,0,0.1,0.1h0.1v-0.3h-0.1L21.1,11.2z"/>
	<rect x="16.5" y="22.4" class="st1" width="0.1" height="0.1"/>
	<path class="st1" d="M15.4,10.8v-0.3c0,0-0.2,0.1-0.3,0.1v-0.1c-0.1-0.1-0.1-0.2-0.2-0.2c0,0.1,0,0-0.1,0.1
		c0.1,0.1,0.1,0.1,0.2,0.3h0.1v0.2h0.2c-0.1,0.3-0.3,0.6-0.4,0.9h-0.1v0.2L14.6,12v0.1l-0.2,0.1v0.1c0.2-0.1,0.3-0.2,0.4-0.4h0.1
		v-0.1l0.2-0.2l0.1-0.2h0.1v-0.2h0.1l0.1-0.2h0.1L15.4,10.8L15.4,10.8z M15.3,10.7L15.3,10.7l-0.1-0.1h0.1V10.7z"/>
	<path class="st1" d="M13.4,11.7L13.4,11.7l0.1,0.1h0.1v-0.2C13.4,11.7,13.5,11.6,13.4,11.7z"/>
	<path class="st1" d="M11.6,10.1L11.6,10.1l-0.1-0.1C11.5,10.2,11.5,10.1,11.6,10.1z"/>
	<path class="st1" d="M14.7,11.9L14.7,11.9l-0.1-0.1C14.6,11.9,14.6,11.9,14.7,11.9z"/>
	<path class="st1" d="M11.9,9.9L11.9,9.9l-0.1-0.1C11.9,9.9,11.8,9.9,11.9,9.9z"/>
	<path class="st1" d="M11.8,9.9L11.8,9.9l-0.1-0.1C11.7,9.9,11.7,9.9,11.8,9.9z"/>
	<path class="st1" d="M19,10.4L19,10.4L19,10.4l0.1,0.1v-0.2C19,10.3,19,10.4,19,10.4z"/>
	<path class="st1" d="M20.8,19.2L20.8,19.2c-0.1-0.1,0,0-0.1-0.1v0.1C20.8,19.2,20.7,19.3,20.8,19.2z"/>
	<path class="st1" d="M20.8,19.1v0.1h0.1C20.8,19.1,20.9,19.2,20.8,19.1z"/>
	<path class="st1" d="M20.1,19.3C20.2,19.4,20.1,19.3,20.1,19.3L20.1,19.3L20.1,19.3C20.1,19.3,20,19.3,20.1,19.3z"/>
	<path class="st1" d="M20.9,18.2v0.1h0.1C20.9,18.2,20.9,18.3,20.9,18.2z"/>
	<path class="st1" d="M19.9,19.4L19.9,19.4c0.1-0.1,0,0,0.1-0.1h-0.1C19.9,19.4,19.8,19.3,19.9,19.4z"/>
	<rect x="20.9" y="18" class="st1" width="0.1" height="0.2"/>
	<polygon class="st1" points="17.7,24.9 17.5,24.9 17.5,25 17.6,25 	"/>
	<path class="st1" d="M16.2,18.1L16.2,18.1L16.1,18h-0.2v0.1c0.1,0,0.2,0.1,0.4,0.1v-0.1l0.2,0.1v-0.1h0.1v-0.1L16.2,18.1L16.2,18.1
		z"/>
	<path class="st1" d="M16.6,18v0.1h0.1C16.7,18,16.7,18.1,16.6,18z"/>
	<path class="st1" d="M15.4,17.5L15.4,17.5l-0.1-0.1C15.3,17.5,15.3,17.5,15.4,17.5z"/>
	<rect x="19.8" y="19.5" class="st1" width="0.1" height="0.2"/>
	<path class="st1" d="M16.8,21.1L16.8,21.1L16.7,21C16.8,21.1,16.7,21,16.8,21.1z"/>
	<path class="st1" d="M15.5,17.5L15.5,17.5l-0.1-0.1C15.5,17.5,15.4,17.4,15.5,17.5z"/>
	<path class="st1" d="M15.4,30.6l-0.1-0.2h-0.1v-0.1h-0.1v-0.2h-0.1V30h-0.1v-0.2h-0.1v-0.2L15,29.6l-0.1-0.3l-0.1-0.1L14.7,29h-0.1
		v-0.4h-0.1v-0.1c0,0,0,0,0,0c0,0,0.1-0.1,0-0.1h-0.1c-0.1-0.3-0.3-0.5-0.6-0.7v-0.1c-0.1,0-0.1,0-0.2-0.2h-0.1v-0.1l-0.2-0.1
		l-0.2-0.3h-0.1l-0.1-0.1h-0.1L13,26.8h-0.2v-0.1c-0.2-0.1-0.1,0-0.2-0.1h-0.1v-0.2l-0.1-0.1v-0.1l-0.2-0.1v-0.1L12.2,26v-0.1
		L12,25.8v-0.1l-0.1-0.1v-0.2l-0.1-0.1v-0.1l-0.2-0.1v-0.1l-0.1-0.1c0-0.1,0-0.2-0.1-0.3l-0.1-0.1c0-0.1,0-0.1-0.1-0.2l-0.1-0.1
		c0-0.1,0-0.1-0.1-0.2h-0.1c0-0.1,0-0.1-0.1-0.2H11v-0.2l-0.1-0.1v-0.1h-0.1v-0.1h-0.1c0-0.2-0.1-0.4-0.1-0.5l-0.2-0.1
		c-0.2-0.3-0.3-0.8-0.3-1.3c-0.1,0,0,0-0.1,0.1c-0.2,0.1-0.1,0-0.2,0.2l-0.1,0.1v0.2H9.9v0.2l-0.2,0.1l-0.1,0.2H9.6v0.1l-0.1,0.1
		c0,0.1,0,0.1-0.1,0.2L9.3,23L9,23.7c-0.5,0.1-0.9,0.3-1.3,0.5H7.5v0.1H7.4v0.1H7.3v0.1L7,24.4v0.1H6.9v0.1l-0.2,0.1v0.1H6.5v0.1
		l-0.2,0.1v0.1H6.1v0.1H6v0.1H5.9V25H5.8V25H5.7v0.1H5.6v0.1l-0.2,0.1v0.1H5.2v0.1H5.1v0.1H5v0.1l-0.3,0.1v0.1H4.5v0.1l-0.2,0.1v0.1
		L4,25.8v0.1L3.6,26V26l-0.1,0c1.9,2.4,4.5,4.2,7.5,5.2v0h-0.1c0,0,0-0.1-0.1-0.1h-0.1V31c0.2,0.1,0.3,0.2,0.5,0.3v0
		c0.3,0.1,0.5,0.1,0.8,0.2v-0.1c0.1,0,0.2,0.1,0.3,0.1c1.1,0.3,2.3,0.4,3.6,0.4L15.4,30.6L15.4,30.6z M5.3,26.9
		c-0.2,0-0.2-0.1-0.4-0.2v-0.1H5c0,0.1,0.1,0.1,0.2,0.1v0.1h0.2V26.9z M5.6,26.1c-0.1,0-0.2-0.1-0.2-0.2H5.3v-0.1
		c0.2,0,0.1,0.1,0.3,0.1V26.1z M6.6,25.9c-0.1,0,0,0-0.1-0.1C6.6,25.9,6.5,25.8,6.6,25.9z M6.4,27.7c-0.1,0-0.3-0.1-0.4-0.2H5.9
		v-0.1c0.2,0,0.2,0.1,0.4,0.2V27.7z M6.6,26.8l-0.4-0.3H6.2v-0.1c0.3,0,0.2,0.2,0.4,0.2V26.8z M6.8,26.2H6.7c0-0.1,0,0-0.1-0.1V26
		h0.1L6.8,26.2L6.8,26.2L6.8,26.2z M8.5,25.9c-0.1,0,0,0-0.1-0.1C8.5,25.9,8.5,25.8,8.5,25.9z M8.4,27.5L8.4,27.5l0.1,0.1H8.4V27.5z
		 M7.5,25.4L7.5,25.4l0.1,0.2H7.5v-0.1H7.4L7.5,25.4z M7.4,27.7c-0.1,0,0,0-0.1-0.1C7.4,27.7,7.3,27.6,7.4,27.7z M7.4,28.8L7.4,28.8
		L7.4,28.8L7.4,28.8c-0.2-0.1-0.2-0.2-0.4-0.2v-0.1c0.2,0.1,0.2,0.2,0.4,0.2C7.4,28.8,7.5,28.8,7.4,28.8z M7.6,27.5H7.5
		c0-0.1,0,0-0.1-0.1v-0.1l0.2,0.1V27.5z M8,26.6l-0.3-0.1v-0.1C7.8,26.4,7.8,26.5,8,26.6L8,26.6z M8.2,24.2h0.1l-0.1,0.2
		C8.1,24.3,8.2,24.4,8.2,24.2z M8.5,28.3c-0.1,0.1-0.2,0-0.3-0.2C8.4,28.2,8.4,28.2,8.5,28.3C8.6,28.3,8.5,28.3,8.5,28.3L8.5,28.3z
		 M8.6,26.7H8.4v-0.1L8.6,26.7L8.6,26.7z M8.5,25c0.1,0,0,0,0.1,0.1C8.5,25,8.6,25.1,8.5,25z M9.8,24.7L9.8,24.7
		c0.1,0.1,0,0.1,0,0.1v0.1H9.8C9.8,24.8,9.8,24.7,9.8,24.7z M9.8,28.1v0.1c-0.1-0.1-0.2-0.1-0.4-0.1C9.5,28,9.6,28.1,9.8,28.1z
		 M9.3,25.2h0.3v0.1L9.3,25.2c0,0.1,0.1,0.1,0,0.1V25.2z M9.3,26.1l0.4,0.1v0.1L9.3,26.1L9.3,26.1z M9.4,27.1c0.2,0,0.2,0.1,0.4,0
		v0.1c-0.2,0-0.2,0-0.4,0V27.1z M9.4,28.8h0.2v0.1c-0.1,0,0,0-0.1-0.1L9.4,28.8L9.4,28.8z M10,29.5c-0.1,0-0.3-0.1-0.4-0.2H9.6v-0.1
		c0.2,0,0.2,0.1,0.4,0.2V29.5z M10,26L10,26L10,25.9H10V26z M10.1,25.6c0.1,0,0,0,0.1,0.1C10.1,25.6,10.1,25.7,10.1,25.6z
		 M10.2,23.5l0.2,0.1v0.1h-0.2V23.5z M10.3,26.8L10.3,26.8L10.3,26.8c0,0,0-0.1,0.1-0.2h0.1C10.4,26.7,10.3,26.8,10.3,26.8z
		 M10.6,27.8v0.1h-0.1c0-0.1,0-0.2,0.1-0.3h0.1C10.7,27.7,10.6,27.8,10.6,27.8z M10.7,24.6c-0.2,0-0.2-0.1-0.3,0v-0.1h0.3V24.6z
		 M10.6,23.6c0.1,0,0,0,0.1,0.1C10.6,23.7,10.6,23.7,10.6,23.6z M13.2,27.2c-0.1,0,0,0-0.1-0.1C13.2,27.2,13.2,27.2,13.2,27.2z
		 M10.7,25.6L10.7,25.6L10.7,25.6l0.1-0.1c0.1,0.1,0.1,0,0.2,0v0.1H10.7z M10.8,29.2h0.1v0.1h-0.1L10.8,29.2
		C10.8,29.2,10.9,29.2,10.8,29.2z M11.2,30.6c-0.2,0-0.3-0.1-0.4-0.2v-0.1c0.1,0,0.2,0.1,0.3,0.2v0.1L11.2,30.6L11.2,30.6z M11,27.8
		L11,27.8L11,27.8l0.1-0.1v0.1C11,27.8,11.1,27.9,11,27.8z M11.3,26.7l-0.2-0.1v0.1H11v-0.1h0.3V26.7z M11.4,27.9c0,0,0,0-0.1-0.1
		C11.3,27.8,11.5,27.9,11.4,27.9z M11.5,27.9l0.2,0.1V28C11.5,28,11.5,28,11.5,27.9z M11.6,29.1c0.2,0.1,0.3,0.2,0.5,0.2v0.1
		c-0.2-0.1-0.3-0.2-0.5-0.2V29.1z M12.2,30.4c-0.1-0.1,0-0.2-0.3-0.2v-0.1c0.2,0,0.4,0.2,0.5,0.4L12.2,30.4z M12.4,28.9v-0.1
		c0.2,0.1,0.3,0.2,0.5,0.3v0.1C12.7,29.1,12.6,28.9,12.4,28.9z M13.3,30.4c-0.2,0-0.3-0.1-0.4-0.2C13,30.2,13.1,30.2,13.3,30.4
		L13.3,30.4z M13.7,29.7L13.7,29.7l0.1,0.1c0.1,0,0,0,0.1,0.1h-0.1V29.7z M13.5,28.2L13.5,28.2l-0.1,0.2h-0.1L13.5,28.2z M13.6,29.4
		v0.1h-0.1L13.6,29.4L13.6,29.4z M13.5,29c-0.1-0.1-0.1,0-0.1-0.2C13.4,28.9,13.5,28.9,13.5,29z M13.5,29.1v0.2h-0.1L13.5,29.1
		L13.5,29.1z M13.8,31.6c-0.1-0.1-0.2-0.2-0.4-0.2v-0.1c0.1,0.1,0.2,0.1,0.3,0.2h0.1V31.6z M13.7,29.9h0.1l0.1,0.2h-0.1v0.1h-0.1
		L13.7,29.9z M13.9,30.3v0.2h-0.1l-0.1-0.2H13.9z M13.9,30.5L13.9,30.5l0.1,0.2h-0.1V30.5z M14,30.9L14,30.9l0.2,0.1V31H14
		C14,30.9,14,31,14,30.9z M14.2,31.2L14.2,31.2L14.2,31.2c-0.1-0.1-0.1,0-0.1-0.1h0.1V31.2z M14.5,28.9L14.5,28.9l-0.1-0.1h0.1V28.9
		z M14.9,31.1c0.1,0,0,0,0.1,0.1C14.9,31.1,15,31.2,14.9,31.1z M15.7,31.8L15.7,31.8L15.7,31.8l0.1,0.1v0.1h-0.1V31.8z"/>
	<path class="st1" d="M17.7,24.5L17.7,24.5l-0.1,0.1v0.1h0.2C17.8,24.6,17.8,24.4,17.7,24.5z"/>
	<path class="st1" d="M27.8,26.7h-0.1v-0.1h-0.1v-0.1h-0.1v-0.1h-0.1v-0.1l-0.2-0.1v-0.1l-0.2-0.1v-0.1l-0.3-0.1v-0.1h-0.1V26h-0.1
		V26h-0.1v-0.1h-0.1v-0.1h-0.1v-0.1l-0.2-0.1v-0.1l-0.2-0.1v-0.1l-0.2-0.1v-0.1h-0.1v-0.1h-0.1l-0.1-0.1H25L25,25.2l-0.2-0.1
		l-0.1-0.1h-0.1L24.5,25h-0.1v-0.1h-0.1v-0.1h-0.1v-0.1h-0.1v-0.1h-0.1v-0.1h-0.2v-0.1l-0.5-0.2c-0.1-0.3-0.3-0.6-0.4-0.9v-0.2h-0.1
		l-0.1-0.3l-0.1-0.1v-0.1h-0.1v-0.1h-0.1v-0.2h-0.1c0-0.1,0-0.2-0.1-0.3l-0.1-0.1v-0.1L22,22c-0.1-0.2-0.1-0.2-0.3-0.3
		c0-0.9,0.2-1.7,0.4-2.5V19h0.1v-0.2h0.1v-0.2h0.1v-0.2h0.1v-0.2h0.1V18h0.1v-0.2h0.1v-0.1h0.1v-0.3h0.1c0-0.2,0-0.4,0.1-0.6
		c0-0.1,0.1-0.3,0.1-0.4H23v-0.1c0.1,0,0,0,0.1-0.1h-0.1l0.1-0.2H23c0-0.1,0-0.2,0.1-0.4h0.1v-0.2h-0.1l-0.2,0.3h-0.1v-0.6h0.1V15
		H23v-0.3H23v-0.1h0.1v-0.1l0.1-0.1c0.1-0.1,0-0.2,0.1-0.3v-0.1l0.2,0.1V14h0.1c0-0.1-0.1-0.3-0.2-0.4c0-0.2,0-0.2,0.2-0.3
		c0,0.2,0,0.3,0.1,0.5h0.1v-0.1h0.1l-0.1-0.1h0.1c0-0.1,0-0.1-0.1-0.1c0-0.1,0.1-0.1,0.1-0.1v-0.3h0.2L23.8,13h0.2
		c0.1-1.3,0.4-2.6,0.1-3.7c0-0.4,0-0.9,0.1-1.3h-0.1V7.7H24V7.6h-0.1c0-0.2-0.1-0.4-0.1-0.6h-0.1V6.7h-0.1V6.6h-0.1V6.4h-0.1V6.3
		h-0.1c0-0.2-0.1-0.3-0.1-0.5l-0.3-0.2l-0.1-0.1H23L23,5.4h-0.1l-0.1-0.1h-0.1c-0.1-0.2,0-0.4-0.1-0.6h-0.1c0-0.1,0-0.1-0.1-0.2
		h-0.1V4.4l-0.1-0.1V4.2l-0.2-0.1V4l-0.2-0.2V3.8l-0.8-0.7c-0.3-0.3-0.6-0.7-0.9-0.9L20.1,2L20,1.9l-0.2-0.1l-0.1-0.1l-0.2-0.1V1.7
		c-0.1-0.1-0.3,0-0.4-0.1L19,1.5h-0.1l-0.1-0.1h-0.1l-0.1-0.1l-0.2-0.1V1.1h-0.3L18.1,1H18V0.9h-0.2V0.9L17.1,1h-0.4V0.9
		c-0.1,0-0.4,0.1-0.4,0.1H16v0.1l-0.2,0.1v0.1h-0.2v0.1l-0.3,0.1v0.1h-0.1v0.1H15v0.1l-0.3,0.1v0.1l-0.6,0.1V1.7h-0.4V1.6h-0.2V1.6
		h-0.4V1.5c-0.2-0.1-0.4,0-0.5-0.1c0,0.1-0.1,0.1-0.1,0.2h-0.2V1.6h-0.1v0.1h0.1v0.1h0.4l0.1,0.1v0.1h0.1c0-0.1,0.1-0.1,0.2-0.1v0.1
		h-0.2C12.9,2.1,12.9,2,13,2.2l-0.2,0.1v0.1h-0.2v0.1h-0.1v0.1L12,2.4l-0.2,0.3l-0.7,0.1v0.1H11l-0.3,0.3h-0.1l-0.1,0.1l-0.3,0.1
		v0.1h-0.1v0.1H10v0.1H9.9v0.1H9.8v0.1H9.7L9.6,3.7H9.5L9.4,3.9H9.3L9.1,4.1L9,4.1v0.1L8.8,4.4v0.1L8.7,4.5c0,0.1,0,0.1-0.1,0.2H8.6
		v0.1H8.5V5H8.5c0,0.1-0.1,0.2-0.1,0.3H8.3c0,0.2,0,0.3-0.1,0.5H8.2V6H8.2v0.2H8.1c0,0.2,0,0.4-0.1,0.6H8v0.2L7.9,7v0.1L7.8,7.2v0.1
		H7.7c0,0.2,0,0.3-0.1,0.5H7.6c0,0.1,0,0.2-0.1,0.3h0.1v0.1C7.6,8.3,7.5,8.4,7.5,8.7h0.1c0,0.3,0.1,0.6,0.1,1c0,0.2,0,0.4-0.1,0.6
		c0.1,0.3,0.2,0.6,0.3,0.9H8v0.1h0.1v0.2h0.1c0,0.1,0,0.2,0.1,0.3h0.1c0,0.3,0,0.7,0.2,0.8h0.1c0,0,0,0.1,0.1,0.1h0.1v0.1l0.2,0.1
		v0.1c0,0.1,0.1,0,0.1,0.2H8.9c0,0.1,0,0.1-0.1,0.2h0.1v0.2h0.1v0.6H9c0,0.1,0,0.2,0.1,0.4h0.3c0-0.1-0.1-0.1-0.1-0.3h0.1
		c0-0.1,0-0.2,0.1-0.3H9.3v-1.3h0.1v-0.3h0.1V12c0-0.1,0.1-0.3,0.2-0.4c0.2,0,0.1-0.1,0.2-0.2h0.1c0-0.1,0-0.1,0.1-0.2l0.2-0.1
		c0-0.1,0-0.1-0.1-0.2H10v-0.1h0.1c0-0.1,0,0,0.1-0.1l0.2,0.3h0.1v0.2h0.1v0.2h0.1v0.1h0.1v0.2h0.1V12h0.1c0,0.1,0,0.2,0.1,0.3
		l0.1,0.1v0.1l0.1,0.1v0.1c0,0,0.1,0,0.1,0.1l0.3,0.1v0.1l1.1,0.1v0.1h0.6v-0.1l0.2,0.1v-0.1h0.4v-0.1H14v-0.1h0.2v-0.1h0.2v-0.1
		c0.3-0.1,0.7-0.2,0.8-0.5l0.2-0.1l0.1-0.3c0.1-0.2,0.2-0.2,0.3-0.5h0.1l-0.1-0.2h0.1V11h0.1v-0.2c0,0,0.1,0,0.1-0.1h-0.1
		c0-0.1,0,0,0.1-0.1c0-0.2,0.1-0.5,0.1-0.7c0,0,0.3-0.2,0.4-0.2v0.1c0.2,0,0.3,0,0.3,0.3c0,0,0.1-0.1,0.1-0.1h0.1v0.2
		c0,0,0,0-0.1-0.1h-0.1c0,0.2,0,0.3,0.1,0.4v0.1c0.1-0.1,0.1-0.1,0.2-0.2c0,0.1,0,0,0.1,0.1v0.2h0.1l0.1,0.2h0.1v0.2
		c-0.1-0.1-0.2-0.3-0.2-0.4c-0.1,0,0,0-0.1-0.1H17v0.2c0,0-0.1-0.1-0.1-0.1h-0.1c0,0.1,0.1,0.4,0.1,0.4l-0.1,0.1
		c0,0,0.1,0.1,0.1,0.1v0.3l0.1,0.1V12l0.1,0.1v0.1l0.1-0.1l-0.1,0.2h0.1l0.1-0.2h0.1v0.1c0,0.1,0.1,0,0.2,0.1l0.3,0.3
		c0.1,0,0,0,0.1,0.1v-0.1H18v0.1h0.1v0.1h0.2l0.1,0.1l0.5,0.1v0.1l0.3,0.1v0.1c0,0,0.4-0.1,0.5-0.1v0.1l0.1-0.1
		c0.1,0,0.4,0.1,0.6,0.1v-0.1c0.4-0.1,1,0.1,1.2-0.2c0.3-0.1,0.4-0.4,0.5-0.6H22l0.1-0.3h0.1v0.3h-0.1v0.1h0.2v0.1l0.2,0.1v0.2
		l0.1-0.1l-0.1,0.2h0.1v0.1h-0.2c0,0.1,0,0-0.1,0.1c0.1,0.1,0.1,0.1,0.2,0.3L22.3,13v0.2h0.1c0-0.1,0,0,0.1-0.1V13h0.1
		c0,0.1,0,0.2-0.1,0.3h-0.1v0.1l-0.1,0.1c0,0.1,0,0.1,0.1,0.2v0.3h-0.1V14h0.1v0.3h-0.1v0.2h-0.1v0.3l-0.1,0.1v0.1h-0.1
		c0,0.1,0,0.3-0.1,0.4H22c0,0.1,0,0.2,0.1,0.3h-0.1c0,0.1,0,0.2-0.1,0.3c0,0,0.1,0,0.1,0.1h-0.1v0.2h-0.1v0.4h-0.1
		c0,0.1,0.1,0.3,0.1,0.3L21.7,17c0.1,0.1,0,0,0.1,0.1l-0.2,0.7h0.1c0,0.1,0,0.2-0.1,0.3l-0.1,0.1c0,0.1,0,0.2,0.1,0.3h-0.1
		c-0.1,0.2-0.1,0.4-0.2,0.5v0.1L21.1,19L21,19.3h-0.2v0.1c-0.1,0-0.1,0-0.2,0.2c-0.1,0-0.2,0.1-0.3,0.2c0,0-0.2,0-0.2-0.1
		c0-0.1,0.1,0,0.1-0.1l-0.2-0.1c0,0.2-0.1,0,0,0.2H20v-0.1h-0.1c0,0.1-0.1,0.1-0.1,0.3h-0.1l-0.1,0.2c-0.2,0-0.2,0-0.3-0.1v-0.1
		h-0.1v0.3h0.2c0,0.1,0,0.3-0.1,0.3h-0.2v0.1c0,0,0,0,0,0c0,0,0,0.1,0,0.1h-0.1c-0.1,0.1,0,0-0.1,0l-0.1,0.2l-0.3,0.1l0.1,0.1
		c-0.1,0.1-0.2,0.1-0.3,0.2h-0.6c0,0,0,0.1-0.1,0.1v-0.1h-0.2v-0.1c-0.1,0-0.2,0.1-0.2,0.1v-0.1c-0.1,0-0.1,0.1-0.2,0.1v-0.1H17v0.1
		h-0.1V21c-0.2,0.1-0.1,0.1-0.4,0.1l-0.1,0.2c0.1,0,0,0,0.1,0.1c-0.1,0.1-0.1,0.1-0.2,0.2v-0.1h-0.1c0,0,0.1-0.1,0.1-0.1v-0.1
		l-0.2,0.1v-0.1l-0.3-0.1v0.1h-0.3l0.1-0.1h-0.3v0.1h-0.1v-0.1c-0.1,0-0.2,0-0.3,0.1L15.2,21H15v0.1c0,0-0.1,0-0.1,0.1
		c-0.1,0-0.1-0.1-0.1-0.1l-0.2,0.1L14.6,21h-0.2v-0.1l-0.2-0.1v-0.2l-0.2,0.1v-0.2c-0.1,0-0.1,0.1-0.1,0.1v-0.1l-0.2-0.1l-0.1-0.2
		h-0.2v-0.1h-0.1v0.2h-0.1v-0.1c0,0-0.2,0-0.1-0.1c0-0.1,0.1,0,0.1-0.1l-0.2,0.1l-0.1-0.2c-0.2,0-0.1,0-0.2,0.1h-0.1v0.1h0.2v0.1
		c-0.1,0-0.1,0.1-0.1,0.1h-0.2v0.1c-0.1,0-0.1-0.1-0.2-0.1v-0.1c-0.1,0-0.3,0-0.4-0.1v-0.1h-0.1c0,0.1-0.2,0.1-0.3,0.1l0.1,0.2
		c-0.1-0.1-0.1,0-0.1-0.2l0.1-0.1h-0.1V20c-0.2,0-0.2-0.1-0.2,0.1h-0.1v-0.2L11.4,20c0-0.1-0.1-0.1-0.1-0.2l-0.4-0.1v0.2l0.2-0.1
		v0.1c0.1,0,0,0,0.1,0.1h0.1c0,0.1-0.1,0.2,0,0.3h0.1c0.1,0.1,0.2,0.2,0.2,0.3c0.1,0,0.1,0,0.2,0.1h0.1v0.1l0.1,0.1L11.8,21h0.1
		c0,0.1,0,0,0.1,0.1V21c0.1,0,0.1,0,0.2,0.2H12c-0.1,0.1,0.1,0.1,0.1,0.1c0,0.2,0,0.2,0.1,0.3h0.1v0.2h0.1v0.1l0.1,0.1L12.3,22
		c0.1,0,0.1,0.1,0.3,0.1c-0.1,0.1,0,0-0.1,0.1c0,0.1,0,0,0.1,0.1v0.1h0.2v0.1h0.2l-0.1-0.2l0.2-0.1c0.1,0.1,0,0,0.1,0.1
		c0,0.1,0,0,0.1,0.1l0.1-0.2C13,22,13,21.9,12.8,21.9v-0.1l0.3-0.1v0.2h0.2c0-0.1-0.1-0.2-0.1-0.3l0.2-0.1v0.1h0.2v0.1
		c0.1,0,0.1,0,0.2,0.1h0.1V22h-0.1v0.1L14,22c0,0.1,0,0,0.1,0.1v0.1l-0.2,0.1v0.1h0.1c0-0.1,0.1,0,0.2,0c0,0,0-0.1,0.1-0.1v0.1h0.1
		v0.1l0.2,0.1v0.1h0.1v0.1c0.1,0,0,0,0.1-0.1c0.1,0,0.1,0.1,0.2,0.1c0,0,0.2,0,0.1,0.1h-0.1v0.1h0.1c0,0.1,0,0,0.1,0.1v-0.1l0.2,0.1
		v0.1c0.1,0,0.1,0,0.2-0.1v0.1h0.3v0.1h0.1v-0.2l0.3,0.1v-0.1l0.2-0.1v-0.2l-0.1-0.1c0-0.1,0.2-0.2,0.2-0.2L16.3,22h0.1
		c0.1-0.1,0,0,0.1,0V22l0.1-0.1l-0.1,0.2l0.2-0.1v0.2h0.1l-0.1,0.2h-0.1v0.1c0.1,0,0.2-0.1,0.2-0.2H17c0,0-0.1,0.1-0.1,0.2H17v0.1
		h0.2l0.1,0.2c0,0,0.2,0,0.1,0.1c0,0.1-0.1,0-0.1,0.1c0.1,0,0.1,0,0.2-0.1h0.1v0.2c0.1,0,0.1-0.1,0.2-0.1c0,0.1,0.1,0.1,0.1,0.3
		l0.2-0.1l0.1,0.2h0.1l0.1,0.2l-0.1,0.1l0.1,0.1h-0.1v0.1l0.3-0.1c0,0,0,0.2-0.1,0.1v-0.1h-0.1v0.1h-0.1v0.1h0.2
		c0,0.1-0.1,0.1-0.1,0.2h-0.1l-0.1,0.2h-0.1l0.1,0.2h-0.1c0,0,0,0.2,0.1,0.1c0.1,0,0-0.1,0.1-0.1c0,0.2-0.1,0.3-0.2,0.4V25h0.2
		c0-0.2,0-0.2,0.1-0.3h0.1l-0.1-0.2h0.1v-0.1l0.2,0.1v0.1h0.1c0-0.1,0.1-0.1,0.1-0.3l-0.2,0.1c0.1-0.2,0.1-0.1,0.2-0.2
		c0-0.1,0-0.1-0.1-0.2l0.2-0.1v0.1h0.1c0.1-0.1-0.1-0.1,0.1-0.3v-0.1c-0.1,0-0.1,0.1-0.2,0.1h-0.1c0-0.2,0.1-0.1,0.1-0.3
		c-0.1,0,0,0-0.1-0.1c0.2-0.1,0.2-0.3,0.5-0.4c0-0.2,0.1-0.3,0.2-0.4h0.1l-0.1-0.1c0,0,0.1,0.1,0.1,0.1h-0.1c0,0.1,0,0,0.1,0.1
		c0-0.1,0,0,0.1-0.1c0.1-0.2,0-0.1,0.2-0.1c-0.1-0.2,0-0.2,0-0.4c0.3,0,0.2,0,0.4-0.1v-0.2l0.2,0.1v0.1h0.1v-0.1
		c0.1,0,0.1,0,0.2-0.2c0.1,0,0.1,0.1,0.2,0.1v-0.1l0.2-0.1c-0.1,0.1-0.1,0-0.2,0.3h-0.1V22h0.1c0,0.1,0,0-0.1,0.1v0.1l0.2-0.1
		c0,0.1-0.1,0.2-0.1,0.3h0.1v-0.3h0.2l-0.1,0.3h0.1c0,0.2,0.1,0.3,0.1,0.5h0.1c0,0.2,0,0.4-0.1,0.5c-0.1,0,0,0-0.1,0.1h-0.1
		c0,0.1,0.1,0,0.1,0.1c0,0.1-0.1,0.1-0.1,0.1c0.1,0.1,0,0,0.1,0.1c0,0.1,0,0.1-0.1,0.2h0.1l-0.1,0.1h0.1c0,0.1-0.1,0.1-0.1,0.2h0.1
		v0.1h0.1c0,0.2-0.1,0.5-0.1,0.7h0.1v0.1h-0.1v0.2h0.1v0.1h-0.1v0.1h-0.1l-0.1,0.3L21,25.9V26l-0.1,0.1v0.1l-0.1,0.1v0.1l-0.1,0.1
		l-0.1,0.2h-0.1l-0.1,0.2h-0.1v0.2h-0.1v0.2h-0.1v0.1l-0.1,0.1v0.1l-0.1,0.1l-0.1,0.2L20,27.8c0,0.1,0,0.2-0.1,0.3h-0.1v0.1
		l-0.2,0.1l-0.1,0.2l-0.4,0.3l-0.1,0.2L19,29.1v0.1l-0.2,0.1v0.1l-0.2,0.1v0.1h-0.1l-0.2,0.3l-0.1,0.1V30L18.2,30l-0.1,0.2L18,30.3
		v0.1l-0.3,0.2l-0.1,0.3L17.5,31l-0.1,0.2h-0.1v0.1l-0.3,0.2C17,31.6,17,31.8,16.8,32v0c1,0,2-0.2,2.9-0.4c0,0-0.1-0.1-0.2-0.1v-0.1
		h0.1c0,0.1,0.1,0.2,0.1,0.2c1.3-0.3,2.5-0.8,3.6-1.3l0-0.1l0.1,0.1v0c0.3-0.1,0.5-0.3,0.8-0.5l0-0.1c0,0,0.1,0,0.1,0
		C25.6,28.9,26.8,27.9,27.8,26.7L27.8,26.7L27.8,26.7z M9,11.5v0.1H8.9l0.2-0.5C9.2,11.3,9.1,11.5,9,11.5z M9.4,8.3
		c0.1,0,0,0,0.1-0.1h0.1c0,0.1,0,0.1-0.1,0.2H9.4V8.3z M9.7,9.7L9.7,9.7L9.7,9.8L9.6,9.8V10H9.5v0.1H9.4v0.2H9.4v0.2H9.3
		c0,0.1,0,0.2-0.1,0.3H9.2v0.1H9.2L9.3,10l0.1-0.1l0.2-0.6h0.1V9.7z M9.7,8.5H9.6v0.1H9.5c0.1-0.2,0.2-0.2,0.3-0.3h0.1L9.7,8.5z
		 M9.7,8.3L9.7,8.3c0-0.1,0-0.1,0-0.2c0.1,0,0,0,0.1,0.1C9.8,8.2,9.7,8.2,9.7,8.3z M21.4,7.4c0,0,0,0-0.1-0.1
		C21.3,7.3,21.4,7.4,21.4,7.4z M21.2,6.8L21.2,6.8l0.1,0.1h-0.1V6.8z M21.1,6.5L21.1,6.5L21,6.6l-0.1-0.2L21.1,6.5z M18.1,1.4h0.2
		v0.1L18.1,1.4L18.1,1.4z M17.5,1.2l0.2,0.1v0.1h-0.2L17.5,1.2z M10.3,7.6L10.3,7.6c0.1,0.1,0,0,0.1,0.1v0.1h-0.1V7.6z M10,7.8
		L10,7.8c0.1,0,0,0.1-0.1,0.1C10,7.9,10,7.8,10,7.8z M10.1,10.4L10.1,10.4L10.1,10.4L10,10.3v0.1H9.9v-0.1l0.2-0.1v-0.1h0.1
		c0,0.1,0,0,0.1,0.1V10.4z M10.6,9.8V9.7c0.1,0,0,0,0.1,0.1L10.6,9.8C10.6,9.8,10.7,9.7,10.6,9.8z M10.7,10.7v-0.1h0.1L10.7,10.7
		L10.7,10.7z M13.9,12.5c0.1,0,0,0,0.1,0.1C13.9,12.6,13.9,12.6,13.9,12.5z M14.1,12.5L14.1,12.5l0.3-0.1v-0.1
		c0.3-0.1,0.4-0.1,0.5-0.4H15C14.9,12.3,14.5,12.5,14.1,12.5z M15.1,11.9V12h-0.1c0-0.1,0-0.2,0.1-0.3h0.1v-0.2h-0.1
		c-0.1,0.3-0.3,0.6-0.5,0.7l-0.3,0.1c-0.5,0.2-1.5,0.3-2.1,0.2H12v-0.1c-0.2-0.1-0.4,0-0.5-0.2c-0.4-0.1-0.4-0.6-0.6-1h-0.1v-0.2
		h-0.1v-0.3l0.2,0.1v-0.1h-0.1c0.1-0.1,0,0,0.2-0.1c0-0.2,0.1-0.2,0.2-0.3v-0.1h-0.3v-0.1l0.2-0.1v-0.1h0.1v-0.1h0.2V10h0.1
		c-0.1-0.1-0.3-0.1-0.4-0.1c0.2-0.3,0.3-0.1,0.4-0.1l0.1-0.2c0.1,0,0.4,0.1,0.4,0.1c0.2,0,0.3-0.2,0.4,0h0.2c0-0.1,0-0.1-0.1-0.2
		l0.6-0.1V9.6c0.1,0,0.1,0,0.2,0.1l0.2-0.1v0.1h0.2V9.6h0.4V9.5h0.1V9.5h-0.1L14,9.3l0.2-0.1v0.1h0.1V9.3h0.1V9.2l0.2,0.1V9.2h0.1
		v0.1h0.1v0.1h0.2v0.1c0.2,0.1,0.2,0,0.3,0c0.1,0.1,0.2,0.2,0.3,0.3c0,0.1,0,0.2,0.1,0.3h0.1c0.1,0.2-0.1,0.9-0.2,1.1h-0.1
		c0,0.1,0,0.2-0.1,0.3h-0.1v0.1h0.1c0-0.1,0.1-0.2,0.2-0.3v-0.1h0.1C15.5,11.3,15.3,11.7,15.1,11.9z M11.3,9.5c0,0,0-0.1,0.1-0.1
		c0.1-0.1,0.1,0,0.2-0.1h0.3v0.1c-0.1,0.1-0.2,0.1-0.3,0.2L11.3,9.5c-0.1,0.3-0.2,0.2-0.3,0.4h-0.1c0-0.2,0.1-0.2,0.2-0.4H11.3
		L11.3,9.5L11.3,9.5z M11.7,9.5L11.7,9.5l-0.1,0.1c0,0,0,0.1-0.1,0.1l0.1-0.2H11.7z M11.8,9.6L12,9.4h0.2v0.1c-0.1,0,0,0-0.1,0.1
		L11.8,9.6L11.8,9.6h0.2v0.1c-0.1,0,0,0-0.1,0.1h-0.2C11.8,9.6,11.9,9.6,11.8,9.6L11.8,9.6L11.8,9.6z M13.3,9.2L13.3,9.2l-0.2,0.1
		v0.1c-0.2,0.1-0.2,0-0.3,0.1h-0.1v0.1h0.1v0.1c-0.2-0.1-0.2-0.1-0.5-0.1V9.4c0.1-0.1,0.3-0.1,0.4-0.1V9.2c0.2,0,0.1-0.1,0.2-0.1
		l0.2,0.1v0.1H13.3z M13.2,9.3L13.2,9.3c-0.1,0.1-0.2,0.1-0.4,0.1V9.4h0.2V9.3H13.2z M12.4,9.6L12.4,9.6l-0.3,0.1V9.5
		C12.2,9.5,12.3,9.6,12.4,9.6z M12.3,9.2c-0.1,0-0.2,0-0.2,0.1H12V9.3c0.1,0,0.2,0,0.2-0.1L12.3,9.2L12.3,9.2z M13.9,9
		c0.1,0,0,0,0.1,0.1C13.9,9.1,13.9,9.1,13.9,9z M14.1,9.1c0.1,0,0,0,0.1,0.1C14.1,9.1,14.2,9.1,14.1,9.1z M14.7,9.2L14.7,9.2
		l-0.3-0.1V9c0.3,0,0.5,0.1,0.7,0.2v0.1l-0.3-0.1V9.2H14.7z M14.5,9.2c-0.1,0,0,0-0.1-0.1C14.5,9.2,14.4,9.1,14.5,9.2z M15.6,10.8
		L15.6,10.8L15.6,10.8l-0.1-0.1L15.6,10.8C15.6,10.8,15.7,10.7,15.6,10.8z M15.9,10.1h-0.1V10h0.1V10.1z M16.3,9.7h-0.1V9.6h0.1V9.7
		z M17,10.3C16.9,10.2,16.9,10.2,17,10.3L17,10.3L17,10.3z M17.1,9.2L17.1,9.2l-0.6,0.1V9.2h-0.1v0.1h-0.6v0.1h-0.1V9.3l-0.3-0.1
		V9.2h-0.1V9.1h-0.1V9.1l-0.6-0.2c0-0.1,0,0-0.1-0.1c0,0.1,0.1,0.1-0.1,0.1V8.8l-0.2-0.1v0.1h-0.1V8.8h-0.1V8.7h-0.7
		c-0.5-0.1-2-0.1-2.4,0.1h-0.4v0.1c-0.2,0.1-0.5,0-0.6,0.1H9.9c0.1-0.1,0.2-0.1,0.2-0.2H10c0-0.2,0.1-0.2,0.2-0.3h0.1V8.1l-0.2,0.1
		v0.1H10v0.1H9.9V8.2c0.2,0,0.2-0.1,0.4-0.2c0.1-0.2,0.1-0.1,0.2-0.2c0-0.1,0-0.1-0.1-0.2h0.1V7.5h0.1c0-0.1,0-0.2-0.1-0.3h0.1
		c0-0.1,0.1-0.1,0.1-0.1V6.8h0.1V6.8h0.1v0.3h0.1C10.9,6.8,11,6.6,11,6.4h-0.1c0-0.1,0,0,0.1-0.1V6.3H11v0.2h0.1
		c0-0.1,0-0.2,0.1-0.3l0.2,0.1l0.2-0.4c0-0.1,0,0-0.1-0.1c0.1-0.1,0.2,0,0.2-0.1V5.5l0.1-0.1L12,5.2H12V5.1h0.1V5.1
		c0.1-0.1,0.1,0.1,0.2-0.2h0.1c0.1-0.2,0.2-0.2,0.3-0.4h0.1l0.1-0.2l0.1-0.1h0.3c0,0,0-0.1,0.2-0.1V4.1l0.2-0.1v0.1l0.2-0.1V4.1
		L14.1,4V4l0.2-0.1V3.9h0.1l0.1-0.1h0.2v0.1c0.1,0,0,0,0.1-0.1c0.1,0,0.2,0.1,0.3,0.2H15C15,3.8,15,3.7,15,3.5
		c0.2,0,0.4,0.1,0.5-0.1c0.3,0,0.4,0,0.6,0.1v0.1h0.5v0.1h0.1v0.1h0.2v0.1c0.3,0.1,0.5-0.1,0.9,0v0.1h0.4V4h0.1V4L18.7,4l0.1,0.2
		c0.5,0,0.8,0.3,1.2,0.5v0.2h0.2V4.8c0.1,0.1-0.1,0,0,0.2L20.2,5l0.1,0.2h0.1l-0.1,0.2c0.1-0.1,0.1,0,0.2,0c0,0.1,0,0.1,0.1,0.1
		c0,0.1,0,0-0.1,0.1c0,0.1,0.1,0.1,0.1,0.1c0,0,0,0.2-0.1,0.2c-0.1,0,0-0.1-0.1-0.1v0.2h0.1c0,0.1,0,0,0.1,0.1c0,0,0,0.1,0.1,0.1V6
		l0.1-0.1L20.8,6h-0.1l-0.1,0.2h0.1v0.2l0.1,0.1v0.3h-0.1l0.1,0.1c0.1,0,0,0,0.1,0.1H21l-0.1-0.2c0.1,0,0,0,0.1,0.1h0.1
		c0,0.1,0,0.2-0.1,0.3c0.1,0,0.1,0.1,0.2,0.1v0.1H21v0.2h0.2c0,0.1,0.1,0.1,0.1,0.3l0.2-0.1v0.1h-0.1c0.1,0.2,0,0.1,0.2,0.1v0.2
		h-0.3V7.7c-0.2,0.1-0.1,0-0.1,0.2c0.1,0,0.1,0,0.2,0.2L21.6,8c0,0.1,0,0.3,0.1,0.4c0,0-0.1,0-0.1,0.1l0.1,0.1l-0.1,0.1h0.1v0.1
		c-0.6-0.1-1.9-0.2-2.5-0.1h-0.7v0.1h-0.2v0.1h-0.2v0.1l-0.4,0.1V9h-0.1V9h-0.2l-0.1,0.1h-0.1v0.1L17.1,9.2z M21.3,9.6l-0.2-0.1
		l0.1-0.1H21V9.4c-0.2-0.1-0.2,0-0.3-0.2c0.2,0.1,0.5,0.1,0.6,0.2v0.1c0.1,0.1,0.1,0.2,0.3,0.3l-0.1,0.2C21.3,9.8,21.5,9.7,21.3,9.6
		z M21.6,10v0.1h-0.1L21.6,10L21.6,10z M21.2,10.1c-0.1,0-0.1,0-0.2-0.1C21.1,10.1,21.1,10.1,21.2,10.1z M20.7,9.6
		c-0.1,0-0.2-0.1-0.2-0.2C20.6,9.5,20.6,9.5,20.7,9.6z M20.2,9.2v0.1h-0.1l-0.1-0.2L20.2,9.2z M20,9.1v0.1c-0.1,0,0,0-0.1-0.1
		L20,9.1C20,9.1,19.9,9.2,20,9.1z M19.9,9.6c-0.1,0,0,0-0.1-0.1C19.9,9.6,19.8,9.6,19.9,9.6z M17.3,11.3
		C17.3,11.3,17.3,11.2,17.3,11.3L17.3,11.3L17.3,11.3z M17.4,10.4L17.4,10.4L17.4,10.4L17.4,10.4c0,0.1,0,0.1-0.1,0.2
		c0,0.1,0.1,0.1,0.1,0.1v0.3c-0.1-0.1-0.3-1-0.1-1.2c0,0,0-0.2,0.1-0.1v0.1h0.1V9.6h0.1l-0.1-0.1h0.1c0.1-0.1,0.1-0.1,0.2-0.2h0.1
		c-0.1,0.1-0.1,0.1-0.2,0.2h-0.1v0.1c0.3-0.1,0.6-0.3,1-0.3c0.1,0.1,0,0,0.1,0.1v0.1l-0.3,0.1v0.1c-0.1,0.1-0.2,0.2-0.3,0.4
		c-0.2,0-0.1,0.1-0.3,0.2v0.1L17.7,10v0.2h-0.2V10h-0.1L17.4,10.4z M17.5,11.4c0.1,0.1,0.2,0.3,0.3,0.4l0.1,0.1V12H18l0.3,0.3
		C17.9,12.1,17.6,11.8,17.5,11.4z M18.3,11.9c0.1,0,0,0,0.1,0.1C18.3,11.9,18.4,12,18.3,11.9z M21.8,11.4v0.2h-0.1v0.2h-0.1L21.6,12
		h-0.1v0.1h-0.1l-0.1,0.2c-0.2,0-0.4,0.2-0.5,0.2h-0.4v0.1h-0.4l-1.2-0.1v-0.1l-0.4-0.1v-0.1h0.1v-0.1l-0.2,0.1c0-0.1,0,0,0.1-0.1
		v-0.1h0.2c0,0.1,0,0.1,0.1,0.2v0.1h0.1c-0.1-0.2-0.2-0.1-0.1-0.3L18.6,12v0.1h-0.1V12h0.1v-0.1l-0.2,0.1l-0.1-0.1h-0.2v-0.1
		c-0.2-0.1-0.3-0.2-0.5-0.3c0-0.1-0.1-0.2-0.1-0.4h0.2v-0.1c0.1-0.1-0.1-0.2,0-0.4h0.1v-0.1h0.1v-0.2l0.1-0.1V10H18l0.2-0.2h0.1V9.7
		l0.3-0.1V9.6h0.3V9.6C19,9.5,19,9.6,19,9.6l0.6,0.1V9.6l0.6,0.2V9.7h0.1c-0.1,0.1,0,0,0,0.2h0.2c-0.1-0.1,0,0-0.1-0.1V9.8l0.2,0.1
		v0.1h0.2V9.9h-0.2V9.8c0.1,0,0.2,0.1,0.3,0.1v0.1h-0.1c0,0.1,0,0.2,0.1,0.3H21v0.1l0.2,0.1v0.1L21,10.3v0.1h-0.1l-0.1-0.2h-0.2
		c0.1,0.2,0.3,0.3,0.4,0.3h0.3v0.1l0.2,0.2v0.1h-0.2c0.1,0.2,0.1,0,0.2,0.1L21.5,11h0.1c0,0.1,0,0,0.1,0.1v-0.1h0.1l-0.1,0.2h0.1
		C21.8,11.2,21.8,11.3,21.8,11.4L21.8,11.4z M21.8,8.6c0.1,0,0,0,0.1,0.1C21.8,8.6,21.9,8.7,21.8,8.6z M22.1,10.1c0.1,0,0,0,0.1,0.1
		C22.1,10.1,22.1,10.2,22.1,10.1z M22.6,12h-0.1c0-0.1,0,0,0.1-0.1v-0.1h0.1V12z M22.6,12.2L22.6,12.2l0.1,0.1h-0.1V12.2z
		 M22.6,12.8L22.6,12.8l0.1,0.1c0.1,0,0,0,0.1,0.1h-0.1V12.8z M12.1,20.3c-0.1,0-0.1,0-0.2-0.1L12.1,20.3L12.1,20.3z M12.3,21.2v0.1
		l-0.1-0.1L12.3,21.2C12.3,21.2,12.5,21.2,12.3,21.2L12.3,21.2z M12.5,21.6c-0.1,0-0.1,0-0.2-0.1L12.5,21.6L12.5,21.6z M12.5,21.5
		v-0.1C12.6,21.4,12.5,21.4,12.5,21.5c0.1,0,0.1,0,0.2,0.1h-0.1v-0.1H12.5z M12.7,22c-0.1,0-0.1,0-0.2-0.1L12.7,22L12.7,22z
		 M13,21.6c-0.1,0-0.1-0.1-0.2-0.1c0-0.1,0,0-0.1-0.1v-0.1c0.1,0,0.1,0.1,0.3,0.1V21.6z M13,20.7h-0.1v-0.1H13V20.7z M13.2,21.5
		c-0.1,0,0,0-0.1-0.1L13.2,21.5c0-0.1-0.1-0.1,0-0.1V21.5z M15.3,21.9L15.3,21.9l-0.1-0.1h0.1V21.9z M15.5,21.9c0.1,0,0,0,0.1,0.1
		C15.5,21.9,15.5,21.9,15.5,21.9z M15.7,22l-0.1-0.2l0.3,0.1l0.1,0.2L15.7,22z M15.8,22.2v0.1h-0.1L15.8,22.2L15.8,22.2z M15.9,22.6
		c0,0,0,0-0.1-0.1C15.8,22.5,15.9,22.5,15.9,22.6z M16.2,22.4c-0.1,0,0,0-0.1-0.1L16.2,22.4c0-0.1-0.1-0.1,0-0.1V22.4z M16.1,21.3
		c0.1,0,0,0,0.1,0.1C16.1,21.3,16.2,21.4,16.1,21.3z M17.2,21.2c-0.1,0,0,0-0.1-0.1C17.2,21.2,17.2,21.2,17.2,21.2z M16.9,22.2
		l-0.2,0.1c0-0.1,0,0,0.1-0.1c0-0.1,0,0,0.1-0.1C16.9,22.2,16.8,22.1,16.9,22.2L16.9,22.2z M16.7,21.6c0.1,0,0.2,0.1,0.2,0.1
		l0.1-0.1c0,0.1,0,0,0.1,0.1v0.1C16.8,21.7,16.8,21.7,16.7,21.6z M17.1,22.2L17.1,22.2c0-0.2,0.1-0.2,0.2-0.3c0-0.1,0,0,0.1-0.1V22
		C17.2,22,17.1,22.1,17.1,22.2z M17.4,22.8L17.4,22.8L17.4,22.8c-0.1-0.1-0.1,0-0.1-0.1h0.1V22.8z M18.1,23.3v-0.1
		c0.1,0,0,0,0.1-0.1h0.1C18.2,23.2,18.2,23.2,18.1,23.3z M18.3,23.7c-0.1,0,0,0-0.1-0.1L18.3,23.7c0-0.1-0.1-0.1,0-0.1V23.7z
		 M18.3,24.3L18.3,24.3l-0.1-0.1h0.1V24.3z M18.7,23.9L18.7,23.9L18.6,24h-0.1L18.7,23.9L18.7,23.9L18.7,23.9z M18.6,23.7
		C18.5,23.6,18.6,23.7,18.6,23.7c0-0.1,0.1-0.1,0.1-0.2h0.1c0,0.1-0.1,0.1-0.1,0.2C18.6,23.7,18.6,23.8,18.6,23.7z M18.8,23.9
		c-0.1,0,0,0-0.1-0.1C18.8,23.9,18.8,23.8,18.8,23.9z M21.1,21.9H21c0-0.1,0,0,0.1-0.1v-0.1h0.1V21.9z M18.5,30.9L18.3,31v-0.1
		c0.1,0,0,0,0.1-0.1L18.5,30.9L18.5,30.9z M18.8,30.8c-0.1,0,0,0-0.1-0.1L18.8,30.8l-0.1-0.1h0.1V30.8z M19.9,30.3h-0.1v-0.1
		c0.2,0,0.2,0,0.3,0.2C20,30.3,20,30.3,19.9,30.3z M20.3,29.1c-0.1,0,0,0-0.1-0.1C20.3,29.1,20.2,29.1,20.3,29.1z M20.3,29.6
		c-0.1,0-0.1,0-0.2-0.1L20.3,29.6L20.3,29.6z M21.3,22.4v-0.1c0.1,0,0.1,0,0.2-0.1h0.1v0.2h-0.1v0.1H21.3z M21.2,26.1v0.1h-0.1
		L21.2,26.1c-0.1,0-0.1,0.1-0.1,0H21.2z M20.8,27.1l0.2,0.1v0.1C20.8,27.2,20.9,27.2,20.8,27.1z M21.3,30.6L21.3,30.6
		c-0.1-0.1-0.2-0.2-0.3-0.3v-0.2c0.1,0.1,0.2,0.3,0.3,0.4V30.6z M21.5,29.1L21.5,29.1L21.5,29.1c-0.1,0-0.2,0-0.2-0.1L21.5,29.1
		L21.5,29.1z M21.7,28.5l-0.3-0.2v-0.1c0.2,0.1,0,0.2,0.3,0.2V28.5z M22.5,26.7v0.1h-0.1L22.5,26.7c-0.1,0-0.1,0.1-0.1,0H22.5z
		 M22.3,26l-0.1-0.3c0.1,0.1,0.1,0.1,0.2,0.2L22.3,26L22.3,26z M22.5,23.9L22.5,23.9c-0.1,0-0.1,0-0.2-0.1L22.5,23.9z M22.3,24.7
		L22.3,24.7l-0.1,0.1l-0.1-0.2L22.3,24.7z M22.2,25.6v0.1h-0.1l-0.1-0.2L22.2,25.6z M22,27.2h0.1v0.1H22L22,27.2
		C22,27.2,22,27.3,22,27.2z M22.6,30.6c-0.2,0-0.2-0.2-0.5-0.2v-0.1h0.1v0.1C22.3,30.4,22.4,30.5,22.6,30.6L22.6,30.6z M22.6,29
		h-0.1v-0.1h0.1L22.6,29L22.6,29L22.6,29z M23,24.2c-0.1,0,0,0-0.1-0.1C23,24.2,22.9,24.2,23,24.2z M23,28.6L23,28.6l-0.2-0.2
		c0.1,0,0,0,0.1,0.1H23V28.6z M23,27.6L23,27.6c-0.1-0.2-0.2-0.3-0.4-0.4v-0.1c0.2,0.1,0.2,0.3,0.4,0.4V27.6z M22.8,26.5
		c0,0,0.2,0.1,0.2,0.2h-0.1L22.8,26.5z M23.1,25.7L23.1,25.7c-0.1-0.2-0.2-0.3-0.4-0.4v-0.1h0.1c0,0.2,0.1,0.3,0.3,0.4V25.7z
		 M24.6,25.2L24.6,25.2c-0.1,0.1-0.1,0-0.2,0H24.6z M24.1,25.3c0.1,0,0,0,0.1-0.1h0.2v0.1c-0.1,0,0,0-0.1,0.1L24.1,25.3L24.1,25.3z
		 M23.6,25.9h0.1V26h-0.1L23.6,25.9C23.6,25.9,23.7,25.9,23.6,25.9z M23.7,27.6c0,0,0.1,0.1,0.1,0.1C23.8,27.7,23.8,27.8,23.7,27.6z
		 M23.9,29.5c0.1,0,0,0,0.1,0.1C23.9,29.5,24,29.6,23.9,29.5z M24.3,29c-0.1-0.1-0.2-0.2-0.3-0.3l-0.2-0.1v-0.1
		c0.2,0.1,0.3,0.2,0.4,0.3V29z M24.3,27.1c0.1,0,0.1-0.1,0.2-0.1h0.2V27c-0.1,0-0.1,0-0.2,0.1L24.3,27.1L24.3,27.1z M24.5,28.1
		c0.1,0,0,0,0.1,0.1C24.5,28.1,24.5,28.2,24.5,28.1z M24.9,29.1c-0.1,0,0,0-0.1,0.1h-0.1v-0.1c0.1,0,0,0,0.1-0.1L24.9,29.1
		L24.9,29.1z M24.9,28.1c-0.1,0,0,0-0.1,0.1h-0.1v-0.1h0.1c0.1-0.1,0-0.1,0.2-0.1V28.1z M25.4,25.9c-0.1,0-0.1,0-0.2-0.1L25.4,25.9
		L25.4,25.9z M25.5,25.7h0.2v0.1l-0.2,0.1V25.7z M25.8,27.6c-0.1,0-0.1-0.1-0.2-0.1v-0.1h0.2V27.6z M26.2,28.3H26v-0.1
		C26,28.2,26.1,28.2,26.2,28.3L26.2,28.3z M26.7,26.4c-0.1,0-0.1,0-0.2-0.1L26.7,26.4L26.7,26.4z M26.7,27.3c0.1,0,0,0,0.1,0.1
		C26.7,27.3,26.8,27.3,26.7,27.3z"/>
	<path class="st1" d="M21,10.7c0.1,0.1,0,0,0.1,0.1v-0.1H21z"/>
	<path class="st1" d="M21.3,10.9L21.3,10.9l-0.1-0.1C21.3,10.9,21.2,10.9,21.3,10.9z"/>
	<path class="st1" d="M21,10.9V11h0.1C21,10.9,21.1,11,21,10.9z"/>
	<polygon class="st1" points="21.1,10.7 21.1,10.8 21.2,10.8 21.2,10.8 	"/>
	<path class="st1" d="M17.8,23.4L17.8,23.4l-0.1-0.1C17.7,23.4,17.7,23.4,17.8,23.4z"/>
	<path class="st1" d="M17.9,24.4C18,24.5,17.9,24.4,17.9,24.4c0.1,0,0,0,0.1,0c0-0.2,0-0.1-0.1-0.2c0,0.1,0,0-0.1,0.1
		C17.9,24.4,17.9,24.4,17.9,24.4z"/>
	<path class="st1" d="M18,23.4v0.1H18C18,23.4,18,23.4,18,23.4z"/>
	<path class="st1" d="M21.2,22.8L21.2,22.8c0-0.1,0-0.1-0.1-0.2L21.2,22.8h-0.1v0.1C21.2,22.8,21.2,22.8,21.2,22.8z"/>
	<path class="st1" d="M19,23.5L19,23.6h0.2C19.1,23.6,19.1,23.6,19,23.5z"/>
</g>
<circle class="st2" cx="16" cy="16" r="15.9"/>
</svg>
