<?xml version="1.0" encoding="utf-8"?>
<!-- Generator: Adobe Illustrator 21.0.0, SVG Export Plug-In . SVG Version: 6.00 Build 0)  -->
<svg version="1.1" id="color" xmlns="http://www.w3.org/2000/svg" xmlns:xlink="http://www.w3.org/1999/xlink" x="0px" y="0px"
	 width="1321.3px" height="263.9px" viewBox="0 0 1321.3 263.9" style="enable-background:new 0 0 1321.3 263.9;"
	 xml:space="preserve">
<style type="text/css">
	.st0{fill:#FDB515;}
	.st1{fill:#8FA9D8;}
</style>
<polygon class="st0" points="454,0 542,0 658.6,145.1 565.1,120 735.1,263.9 458.2,80.7 576.7,95.2 "/>
<g>
	<path class="st1" d="M209.1,116.4h25.2v3.5c0,17.5-15.3,26.2-46,26.2c-20.8,0-34.4-3-40.9-9.1c-6.4-6.1-9.6-18.9-9.6-38.5
		c0-17.4,3.4-29.1,10.1-35.1c6.7-6,19.8-9,39.3-9c18.7,0,31.2,2.9,37.6,8.8c6.4,5.8,9.5,17.3,9.5,34.4v6.6h-70.9
		c-0.2,2-0.2,3.3-0.2,3.9c0,8.8,1.6,14.7,4.8,17.6s9.5,4.4,19,4.4c9.2,0,15.2-0.9,18-2.6C207.7,125.8,209.1,122.1,209.1,116.4z
		 M209.3,91l-0.1-3.6c0-7.1-1.4-11.7-4.3-13.9c-2.9-2.1-9.2-3.2-18.8-3.2c-9.4,0-15.4,1.3-18.2,3.8c-2.8,2.6-4.2,8.2-4.2,16.8
		L209.3,91L209.3,91z"/>
	<path class="st1" d="M255.9,55.5H281l-1.5,12.6l0.5,0.1c6-9.4,15.4-14.1,28.3-14.1c18.4,0,27.6,9.9,27.6,29.8v6.3h-23.7
		c0.3-2.4,0.4-4,0.4-4.8c0-9.6-4.3-14.3-13-14.3c-12.4,0-18.6,7.1-18.6,21.3v52.8h-25.1L255.9,55.5L255.9,55.5z"/>
	<path class="st1" d="M443.4,55.5v91.3c0,14.6-3.5,24.6-10.4,30.1c-6.9,5.4-19.6,8.2-38.2,8.2c-18,0-30-2.1-36-6.2
		c-6.1-4.1-9.1-12.3-9.1-24.5H374c0,5.8,1.3,9.5,3.8,11.2c2.6,1.6,8.3,2.5,17.1,2.5c15.6,0,23.3-5.5,23.3-16.5v-20.1l-0.5-0.1
		c-4.5,9.6-14.7,14.3-30.7,14.3c-15.9,0-26.7-3.3-32.5-9.8c-5.8-6.6-8.7-18.8-8.7-36.7c0-16.9,2.9-28.5,8.7-34.9
		c5.8-6.4,16.3-9.6,31.6-9.6c16.7,0,27.6,5.3,32.8,15.8h0.5l-1.2-14.8h25.2V55.5z M394,71.4c-9.6,0-15.8,1.7-18.6,5
		c-2.7,3.3-4.1,10.9-4.1,22.8c0,12.6,1.4,20.7,4.1,24.2s9,5.2,18.9,5.2s16.3-1.8,19.2-5.4c2.9-3.6,4.4-11.5,4.4-23.9
		c0-11.8-1.5-19.4-4.4-22.9C410.6,73.1,404.1,71.4,394,71.4z"/>
	<path class="st1" d="M106.7,87H74.3c-1.5,10.2-5.5,19.4-12.8,20.9H37V86.8V75.4V54.3h24.5c7.3,1.5,11.2,10.7,12.8,20.9h32.5
		c10.1-4,15-11.6,15-22.8c0-13.1-12.5-35.3-44.6-35.3H0v58.3v11.4v58.3h77.1c32.1,0,44.6-22.3,44.6-35.3
		C121.7,98.6,116.8,91,106.7,87z M12.6,64.8c1.1-1.1,2.5-1.7,4-1.7l0,0h0.1l0,0l0,0h16.1v11.6H16.6c-3.1,0-5.8-2.7-5.8-5.8
		C10.8,67.4,11.5,65.9,12.6,64.8z M32.8,99.2H16.7l0,0l0,0h-0.1l0,0c-1.5-0.1-2.9-0.6-4-1.7s-1.7-2.6-1.7-4.1c0-3.1,2.7-5.8,5.8-5.8
		h16.2v11.6H32.8z"/>
</g>
<g>
	<path d="M686.9,129.5c8.4,6.6,18.4,9.8,30,9.8c12.4,0,23.1-3.8,31.9-11.3c1.1-1,2.2-2,3.2-3l9.4,2.9c-1.7,2-3.7,4-5.9,5.9
		c-10.7,9.1-23.5,13.7-38.6,13.7c-15,0-27.9-4.6-38.5-13.7c-10.7-9.1-16-20.1-16-33c0-12.8,5.3-23.8,16-32.9s23.5-13.7,38.5-13.7
		c12.9,0,24.2,3.3,33.9,9.9c1.6,1.1,3.2,2.4,4.8,3.7c0.6,0.5,1.2,1,1.7,1.5l-6.8,5.8L686.9,129.5z M743.9,70
		c-7.7-5.1-16.7-7.6-27-7.6c-12.4,0-23,3.7-31.8,11.2s-13.2,16.6-13.2,27.2c0,8.8,3,16.5,8.9,23.1L743.9,70z"/>
	<path d="M794.1,9.3v135.8h-8.9V9.3H794.1z"/>
	<path d="M842.4,129.5c8.4,6.6,18.4,9.8,30,9.8c12.4,0,23.1-3.8,31.9-11.3c1.1-1,2.2-2,3.2-3l9.4,2.9c-1.7,2-3.7,4-5.9,5.9
		c-10.7,9.1-23.5,13.7-38.6,13.7c-15,0-27.9-4.6-38.5-13.7c-10.7-9.1-16-20.1-16-33c0-12.8,5.3-23.8,16-32.9s23.5-13.7,38.5-13.7
		c12.9,0,24.2,3.3,33.9,9.9c1.6,1.1,3.2,2.4,4.8,3.7c0.6,0.5,1.2,1,1.7,1.5l-6.8,5.8L842.4,129.5z M899.4,70
		c-7.7-5.1-16.7-7.6-27-7.6c-12.4,0-23,3.7-31.8,11.2s-13.2,16.6-13.2,27.2c0,8.8,3,16.5,8.9,23.1L899.4,70z"/>
	<path d="M1024.3,125.1l9.4,2.9c-1.7,2-3.7,4-5.9,5.9c-10.7,9.1-23.5,13.7-38.6,13.7c-15,0-27.9-4.6-38.5-13.7
		c-10.7-9.1-16-20.1-16-33c0-12.8,5.3-23.8,16-32.9s23.5-13.7,38.5-13.7c15.1,0,28,4.6,38.6,13.7c2.2,1.9,4.1,3.8,5.9,5.8l-9.4,3
		c-1-1-2.1-2-3.2-3.1c-8.8-7.5-19.4-11.2-31.9-11.2c-12.4,0-23,3.7-31.8,11.2s-13.2,16.6-13.2,27.2s4.4,19.7,13.2,27.2
		s19.4,11.3,31.8,11.3c12.4,0,23.1-3.8,31.9-11.3C1022.3,127.1,1023.3,126.1,1024.3,125.1z"/>
	<path d="M1071.5,61.8V26.3h8.9v35.5h19.9v7.6h-19.9v75.7h-8.9V69.4h-19.9v-7.6C1051.6,61.8,1071.5,61.8,1071.5,61.8z"/>
	<path d="M1124.1,61.8h8.9V77c1.9-2.3,4-4.4,6.5-6.5c7.9-6.7,15.9-10.3,24.2-10.6v8.3c-5.6,0.2-11.5,2.9-17.5,8.1
		c-8.5,7.2-12.9,15.8-13.2,25.9v43h-8.9V61.8z"/>
	<path d="M1198.3,34.5c1.8,1.5,2.6,3.3,2.6,5.3c0,2.2-0.9,4-2.6,5.4c-1.8,1.5-3.9,2.2-6.3,2.2s-4.6-0.7-6.3-2.2
		c-1.8-1.5-2.6-3.3-2.6-5.4c0-2.1,0.9-3.9,2.6-5.3c1.8-1.5,3.9-2.2,6.3-2.2C1194.5,32.2,1196.6,33,1198.3,34.5z M1196.5,61.8v83.4
		h-8.9V61.8H1196.5z"/>
	<path d="M1311.8,125.1l9.4,2.9c-1.7,2-3.7,4-5.9,5.9c-10.7,9.1-23.5,13.7-38.6,13.7c-15,0-27.9-4.6-38.5-13.7
		c-10.7-9.1-16-20.1-16-33c0-12.8,5.3-23.8,16-32.9s23.5-13.7,38.5-13.7c15.1,0,28,4.6,38.6,13.7c2.2,1.9,4.1,3.8,5.9,5.8l-9.4,3
		c-1-1-2.1-2-3.2-3.1c-8.8-7.5-19.4-11.2-31.9-11.2c-12.4,0-23,3.7-31.8,11.2s-13.2,16.6-13.2,27.2s4.4,19.7,13.2,27.2
		c8.8,7.5,19.4,11.3,31.8,11.3s23.1-3.8,31.9-11.3C1309.8,127.1,1310.8,126.1,1311.8,125.1z"/>
</g>
</svg>
