<?xml version="1.0" encoding="utf-8"?>
<!-- Generator: Adobe Illustrator 21.0.0, SVG Export Plug-In . SVG Version: 6.00 Build 0)  -->
<svg version="1.1" id="Layer_1" xmlns="http://www.w3.org/2000/svg" xmlns:xlink="http://www.w3.org/1999/xlink" x="0px" y="0px"
	 viewBox="0 0 3138.3 1764.3" style="enable-background:new 0 0 3138.3 1764.3;" xml:space="preserve">
<style type="text/css">
	.st0{fill:#FFFFFF;}
	.st1{fill:#7CA73F;}
	.st2{fill:#4C4C4C;}
	.st3{font-family:'Lato-Bold';}
	.st4{font-size:20.25px;}
	.st5{font-family:'Lato-Regular';}
	.st6{fill:#7CA73F;stroke:#7CA73F;stroke-width:0.75;stroke-miterlimit:10;}
	.st7{fill:none;stroke:#BABABA;stroke-width:0.75;stroke-miterlimit:10;}
	.st8{fill:#BABABA;}
	.st9{fill:none;stroke:#D8D8D8;stroke-miterlimit:10;}
	.st10{fill:#4C4C52;}
	.st11{font-size:28.3px;}
	.st12{font-size:33.81px;}
	.st13{font-size:40.19px;}
	.st14{opacity:0.44;fill:#7CA73F;enable-background:new    ;}
	.st15{fill:#CC0000;}
	.st16{fill:none;stroke:#A0A0A0;stroke-miterlimit:10;}
	.st17{font-size:20.43px;}
	.st18{font-size:10.59px;}
	.st19{font-size:19.72px;}
	.st20{font-size:16.2px;}
	.st21{font-family:'Lato-Black';}
	.st22{font-size:45.25px;}
	.st23{font-size:11px;}
	.st24{fill:#B2B2B2;}
	.st25{fill:#DBDBDB;}
	.st26{font-size:18px;}
	.st27{font-size:15.74px;}
	.st28{fill:#FFCE10;}
	.st29{fill:#D8D8D8;}
	.st30{fill:none;stroke:#1384EA;stroke-width:5;stroke-miterlimit:10;}
	.st31{fill:none;stroke:#00C479;stroke-width:5;stroke-miterlimit:10;}
	.st32{fill:none;stroke:#C60000;stroke-width:5;stroke-miterlimit:10;}
	.st33{fill:none;stroke:#C60000;stroke-width:5;stroke-miterlimit:10;stroke-dasharray:18.1,18.1;}
	.st34{fill:#C1C1C1;}
	.st35{fill:#78A746;}
	.st36{fill:#565656;}
	.st37{font-family:'ArialMT';}
	.st38{font-size:30.14px;}
	.st39{fill:#1384EA;}
	.st40{letter-spacing:-4;}
	.st41{fill:#C60000;}
	.st42{letter-spacing:-3;}
	.st43{fill:#00C479;}
	.st44{font-size:23.04px;}
	.st45{letter-spacing:-2;}
	.st46{fill:#BBC2CA;}
	.st47{font-size:21px;}
	.st48{fill:#6A9E37;}
	.st49{fill:#FFFFFF;stroke:#7CA73F;stroke-miterlimit:10;}
	.st50{opacity:0.87;fill:#FFFFFF;enable-background:new    ;}
	.st51{font-size:16.89px;}
	.st52{font-size:13.55px;}
	.st53{fill:#CCCCCC;}
	.st54{fill:#D6D6D6;}
	.st55{fill:#FFFFFF;stroke:#6A9E37;stroke-miterlimit:10;}
</style>
<title>human-insight - 3</title>
<rect y="0" class="st0" width="3138.3" height="1764.3"/>
<rect x="55.8" y="56" class="st1" width="0.8" height="1652.5"/>
<rect x="3085.3" y="101.9" class="st1" width="0.8" height="1605.8"/>
<rect x="55.8" y="1707.7" class="st1" width="3030.3" height="0.8"/>
<text transform="matrix(1 0 0 1 94.09 262.27)" class="st2 st3 st4">Date Range:</text>
<text transform="matrix(1 0 0 1 139.13 204.02)" class="st2 st5 st4">Daily</text>
<rect x="375.2" y="174.7" class="st6" width="161.4" height="45.4"/>
<text transform="matrix(1 0 0 1 728.9 204.02)" class="st2 st5 st4">Quarterly</text>
<rect x="702.5" y="174.7" class="st7" width="139.4" height="45.4"/>
<rect x="224.6" y="240.7" class="st7" width="382" height="29.3"/>
<rect x="536.6" y="174.7" class="st7" width="165.3" height="45.4"/>
<rect x="95.9" y="174.7" class="st7" width="139.4" height="45.4"/>
<text transform="matrix(1 0 0 1 269.79 204.02)" class="st2 st5 st4">W</text>
<text transform="matrix(1 0 0 1 289.59 204.02)" class="st2 st5 st4">eekly</text>
<rect x="235.3" y="174.7" class="st7" width="139.4" height="45.4"/>
<text transform="matrix(1 0 0 1 417.54 204.02)" class="st0 st5 st4">Monthly</text>
<rect x="374.3" y="174.7" class="st7" width="162.3" height="45.4"/>
<text transform="matrix(1 0 0 1 554.66 204.02)" class="st2 st5 st4">30 D</text>
<text transform="matrix(1 0 0 1 597.31 204.02)" class="st2 st5 st4">a</text>
<text transform="matrix(1 0 0 1 607.25 204.02)" class="st2 st5 st4">y Rolling</text>
<polygon class="st8" points="591.9,263 583.8,247.7 599.9,247.7 "/>
<rect x="96" y="490.1" class="st9" width="2949.8" height="1174"/>
<path class="st10" d="M3005.4,509.2l5.9,5.8l-5.8,5.9c-0.4,0.4-0.4,1.1,0,1.6l1.1,1l1.1,1c0.4,0.4,1.1,0.4,1.6,0l5.8-5.9l5.9,5.8
	c0.4,0.4,1.1,0.4,1.6,0l1-1.1l1-1.1c0.4-0.4,0.4-1.1,0-1.6l-5.9-5.8l5.8-5.9c0.4-0.4,0.4-1.1,0-1.6l-1.1-1l-1.1-1
	c-0.4-0.4-1.1-0.4-1.6,0l-5.8,5.9l-5.9-5.8c-0.4-0.4-1.1-0.4-1.6,0l-1,1.1l-1,1.1C3005,508.1,3005,508.8,3005.4,509.2z"/>
<text transform="matrix(1 0 0 1 126.55 545.04)" class="st2 st3 st11">Productivity</text>
<text transform="matrix(1 0 0 1 314.84 548.96)" class="st2 st5 st12">Producti</text>
<text transform="matrix(1 0 0 1 442.67 548.96)" class="st2 st5 st12">v</text>
<text transform="matrix(1 0 0 1 459.55 548.96)" class="st2 st5 st12">e TPHP</text>
<text transform="matrix(1 0 0 1 636.76 551.22)" class="st2 st3 st13">1.72</text>
<rect x="301" y="524.7" class="st14" width="1" height="23.1"/>
<rect x="738.4" y="517.7" class="st15" width="52.8" height="36.7"/>
<rect x="738.4" y="517.7" class="st16" width="154.6" height="36.7"/>
<text transform="matrix(1 0 0 1 241.63 262.27)" class="st2 st3 st17">January 1, 2019 - January 31, 2019</text>
<text transform="matrix(1 0 0 1 251.0701 396.47)" class="st2 st3 st18">01/01/19 - 01/31/19</text>
<text transform="matrix(0.97 0 0 1 95.1099 385.91)" class="st10 st3 st19">Super Groups:</text>
<rect x="232.4" y="380" class="st1" width="135.4" height="2.6"/>
<path class="st1" d="M253.8,367.4c-0.8,0.8-2,2-1.9,5.9c0,0.4,0.3,0.8,0.7,0.8c0,0,0.1,0,0.1,0h10.1c0.4,0,0.8-0.3,0.8-0.7
	c0,0,0-0.1,0-0.1c0-0.3,0.5-3.9-1.7-5.9C259.7,369.6,256,369.6,253.8,367.4C253.8,367.4,253.8,367.4,253.8,367.4z"/>
<circle class="st1" cx="257.8" cy="363.1" r="4.2"/>
<text transform="matrix(1 0 0 1 273.09 371.98)" class="st10 st5 st20">Agent - SG</text>
<text transform="matrix(1 0 0 1 1373.37 432.27)" class="st10 st21 st22">Agent - SG</text>
<text transform="matrix(1 0 0 1 94.54 81.82)" class="st2 st3 st23">John Smith</text>
<path class="st24" d="M451.6,75l4.2,4.1l-4.1,4.2c-0.3,0.3-0.3,0.8,0,1.1l0.8,0.8l0.8,0.8c0.3,0.3,0.8,0.3,1.1,0l4.1-4.2l4.2,4.1
	c0.3,0.3,0.8,0.3,1.1,0l0.8-0.8l0.8-0.8c0.3-0.3,0.3-0.8,0-1.1l-4.2-4.2l4.1-4.2c0.3-0.3,0.3-0.8,0-1.1l-0.8-0.8l-0.8-0.8
	c-0.3-0.3-0.8-0.3-1.1,0l-4.1,4.2l-4.2-4.1c-0.3-0.3-0.8-0.3-1.1,0l-0.8,0.8l-0.8,0.8C451.3,74.1,451.2,74.6,451.6,75
	C451.6,74.9,451.6,75,451.6,75z"/>
<path class="st1" d="M476.4,101.8V51.3h-249v4.5H55.8v46.7h172.4v-46l0,0v-4.4h247.4v50.5h2610.5v-0.8H476.4z M56.5,101.8V56.5
	h170.9v45.2L56.5,101.8z"/>
<circle class="st25" cx="77.7" cy="78.1" r="12.2"/>
<path class="st0" d="M73.9,78.9c-0.8,0.9-1.9,1.9-1.6,5.4c0,0.4,0.2,0.7,0.6,0.7c0.1,0,0.1,0,0.2,0h9.4c0.4,0,0.7-0.3,0.7-0.7
	c0-0.2,0.5-3.6-1.7-5.5C79.4,81,76,81,73.9,78.9C73.9,78.9,73.9,78.9,73.9,78.9z"/>
<circle class="st0" cx="77.7" cy="75" r="3.9"/>
<path class="st1" d="M509.5,73.3h-5v-5c0-0.4-0.3-0.7-0.7-0.7h-1.8c-0.4,0-0.7,0.3-0.7,0.7v5h-5c-0.4,0-0.7,0.3-0.7,0.7v1.8
	c0,0.4,0.3,0.7,0.7,0.7h5v5c0,0.4,0.3,0.7,0.7,0.7h1.8c0.4,0,0.7-0.3,0.7-0.7v-5h5c0.4,0,0.7-0.3,0.7-0.7V74
	C510.3,73.6,510,73.3,509.5,73.3C509.6,73.3,509.6,73.3,509.5,73.3z"/>
<path class="st1" d="M522.9,94.9H483V55h39.9V94.9z M483.8,94.1h38.4V55.7h-38.4V94.1z"/>
<circle class="st25" cx="256.9" cy="76.9" r="15.3"/>
<path class="st0" d="M252.8,78.5c-0.4-0.3-0.9-0.2-1.2,0.1c-0.9,1-1.7,2.6-1.4,6.1c-0.1,0.4,0.3,0.9,0.7,0.9c0.1,0,0.1,0,0.2,0h11.7
	c0.5,0,0.9-0.4,0.9-0.9c0-0.3,0.5-3.7-1.4-6.1c-0.3-0.4-0.9-0.4-1.3-0.1c0,0,0,0,0,0C258.6,80.4,255.2,80.4,252.8,78.5z"/>
<circle class="st0" cx="256.9" cy="73.1" r="4.9"/>
<text transform="matrix(1 0 0 1 280.15 83.06)" class="st2 st3 st26">Scott Choi</text>
<rect x="1322.2" y="451.8" class="st1" width="319.3" height="0.4"/>
<text transform="matrix(1 0 0 1 95.11 146.33)" class="st2 st5 st27">F</text>
<text transform="matrix(1 0 0 1 104.02 146.33)" class="st2 st5 st27">a</text>
<text transform="matrix(1 0 0 1 111.74 146.33)" class="st2 st5 st27">v</text>
<text transform="matrix(1 0 0 1 119.59 146.33)" class="st2 st5 st27">ourite</text>
<polygon class="st28" points="189.3,126.9 193.9,136.2 204.1,137.7 196.7,144.9 198.4,155.1 189.3,150.3 180.1,155.1 181.9,144.9 
	174.4,137.7 184.7,136.2 "/>
<rect x="871.7" y="825.2" class="st29" width="2.3" height="625.4"/>
<rect x="1205.7" y="825.2" class="st29" width="2.3" height="625.4"/>
<rect x="1372.7" y="825.2" class="st29" width="2.3" height="625.4"/>
<rect x="1038.7" y="825.2" class="st29" width="2.3" height="625.4"/>
<rect x="1539.5" y="825.2" class="st29" width="2.3" height="625.4"/>
<rect x="1873.6" y="825.2" class="st29" width="2.3" height="625.4"/>
<rect x="2040.5" y="825.2" class="st29" width="2.3" height="625.4"/>
<rect x="1706.6" y="825.2" class="st29" width="2.3" height="625.4"/>
<rect x="2207.6" y="825.2" class="st29" width="2.3" height="625.4"/>
<rect x="2541.5" y="825.2" class="st29" width="2.3" height="625.4"/>
<rect x="2708.4" y="825.2" class="st29" width="2.3" height="625.4"/>
<rect x="2875.4" y="825.2" class="st29" width="2.3" height="625.4"/>
<rect x="2374.5" y="825.2" class="st29" width="2.3" height="625.4"/>
<rect x="812.6" y="1381.3" class="st29" width="2207.8" height="2.3"/>
<rect x="812.6" y="1312.3" class="st29" width="2207.8" height="2.3"/>
<rect x="812.6" y="1242" class="st29" width="2207.8" height="2.3"/>
<rect x="812.6" y="1172.5" class="st29" width="2207.8" height="2.3"/>
<rect x="812.6" y="894.5" class="st29" width="2207.8" height="2.3"/>
<rect x="812.6" y="1103" class="st29" width="2207.8" height="2.3"/>
<rect x="812.6" y="1033.5" class="st29" width="2207.8" height="2.3"/>
<rect x="812.6" y="964" class="st29" width="2207.8" height="2.3"/>
<rect x="794.1" y="1381.1" class="st10" width="16.3" height="2.3"/>
<rect x="794.1" y="1312" class="st10" width="16.3" height="2.3"/>
<rect x="871.7" y="1452.8" class="st10" width="2.3" height="16.6"/>
<rect x="1038.7" y="1452.8" class="st10" width="2.3" height="16.6"/>
<rect x="1205.7" y="1452.8" class="st10" width="2.3" height="16.6"/>
<rect x="1372.5" y="1452.8" class="st10" width="2.3" height="16.6"/>
<rect x="1539.5" y="1452.8" class="st10" width="2.3" height="16.6"/>
<rect x="1706.1" y="1452.8" class="st10" width="2.3" height="16.6"/>
<rect x="1874.2" y="1452.8" class="st10" width="2.3" height="16.6"/>
<rect x="2038.2" y="1452.8" class="st10" width="2.3" height="16.6"/>
<rect x="2207.6" y="1452.8" class="st10" width="2.3" height="16.6"/>
<rect x="2375.8" y="1452.8" class="st10" width="2.3" height="16.6"/>
<rect x="2541.2" y="1452.8" class="st10" width="2.3" height="16.6"/>
<rect x="2708.7" y="1452.8" class="st10" width="2.3" height="16.6"/>
<rect x="3018.2" y="1452.8" class="st10" width="2.3" height="16.6"/>
<polyline class="st30" points="811.6,1032.9 868.6,1025.3 946.7,1075 1119.3,1086.4 1294,1083.3 1391.1,1004.2 1462.8,1086.4 
	1563.3,1105.3 1636.1,944.5 1715,1013.3 1876.4,959.7 1955.1,1052.3 2209.7,902.2 2366.2,965.3 2420.5,1066.6 2428.4,1025.5 
	2451.8,1012.7 2570.4,1041 2614.8,988 2693.4,1077.1 2753.2,1012.3 2831.6,991.3 2889.6,1022.6 2938.9,999.5 2959.9,1017.9 
	2970.3,1073.1 3018.2,1059.8 "/>
<polyline class="st31" points="811.8,1132.2 862.1,1138.4 919.1,1102.2 1003.5,1132 1133.7,1118.1 1157.9,1123.7 1219.1,1069.6 
	1228.8,1119.5 1327.5,1133 1341.6,1111.5 1372.8,1133 1415.2,1051.6 1446.3,1113.8 1497.2,1069.6 1560.9,1123.7 1634.7,1051.6 
	1654.2,1063.2 1674,1051.6 1708,1115.2 1799.9,1063.2 1869.2,1133 2063,1097.6 2186.1,1178.2 2249.7,1097.6 2323.3,1115.9 
	2439.2,967.4 2531.2,998.6 2607.6,960.4 2747.6,1059.8 2884.8,925.9 2942.1,1047.2 3018.2,1025.2 "/>
<line class="st32" x1="811.6" y1="963.6" x2="820.6" y2="963.6"/>
<line class="st33" x1="838.7" y1="963.6" x2="3002.1" y2="963.6"/>
<line class="st32" x1="3011.1" y1="963.6" x2="3020.1" y2="963.6"/>
<path class="st34" d="M649.8,956.2l-3.2-3.2c-0.5-0.5-1.4-0.5-1.9,0c0,0,0,0,0,0l-12,12l-5.2-5.3c-0.5-0.5-1.4-0.5-1.9,0
	c0,0,0,0,0,0l-3.2,3.2c-0.5,0.5-0.5,1.4,0,1.9c0,0,0,0,0,0l9.4,9.5c0.5,0.5,1.4,0.5,1.9,0c0,0,0,0,0,0l16.2-16.1
	C650.4,957.6,650.4,956.8,649.8,956.2C649.8,956.2,649.8,956.2,649.8,956.2z"/>
<path class="st34" d="M649.8,1216.6l-3.2-3.2c-0.5-0.5-1.4-0.5-1.9,0c0,0,0,0,0,0l-12,11.9l-5.2-5.3c-0.5-0.5-1.4-0.5-1.9,0
	c0,0,0,0,0,0l-3.2,3.2c-0.5,0.5-0.5,1.4,0,1.9c0,0,0,0,0,0l9.4,9.5c0.5,0.5,1.4,0.5,1.9,0c0,0,0,0,0,0l16.2-16.1
	C650.4,1218,650.4,1217.2,649.8,1216.6C649.8,1216.6,649.8,1216.6,649.8,1216.6z"/>
<path class="st34" d="M649.8,1281.5l-3.2-3.2c-0.5-0.5-1.4-0.5-1.9,0c0,0,0,0,0,0l-12,11.9l-5.2-5.3c-0.5-0.5-1.4-0.5-1.9,0
	c0,0,0,0,0,0l-3.2,3.2c-0.5,0.5-0.5,1.4,0,1.9c0,0,0,0,0,0l9.4,9.5c0.5,0.5,1.4,0.5,1.9,0c0,0,0,0,0,0l16.2-16.1
	C650.4,1282.9,650.4,1282,649.8,1281.5C649.8,1281.5,649.8,1281.5,649.8,1281.5z"/>
<path class="st35" d="M649.8,1411.7l-3.2-3.2c-0.5-0.5-1.4-0.5-1.9,0c0,0,0,0,0,0l-12,11.9l-5.2-5.3c-0.5-0.5-1.4-0.5-1.9,0
	c0,0,0,0,0,0l-3.2,3.2c-0.5,0.5-0.5,1.4,0,1.9c0,0,0,0,0,0l9.4,9.5c0.5,0.5,1.4,0.5,1.9,0c0,0,0,0,0,0l16.2-16.1
	C650.4,1413.1,650.4,1412.2,649.8,1411.7C649.8,1411.7,649.8,1411.7,649.8,1411.7z"/>
<path class="st34" d="M649.8,1476.5l-3.2-3.2c-0.5-0.5-1.4-0.5-1.9,0c0,0,0,0,0,0l-12,11.9l-5.2-5.3c-0.5-0.5-1.4-0.5-1.9,0
	c0,0,0,0,0,0l-3.2,3.2c-0.5,0.5-0.5,1.4,0,1.9c0,0,0,0,0,0l9.4,9.5c0.5,0.5,1.4,0.5,1.9,0c0,0,0,0,0,0l16.2-16.1
	C650.4,1477.9,650.4,1477.1,649.8,1476.5C649.8,1476.5,649.8,1476.5,649.8,1476.5z"/>
<path class="st34" d="M649.8,1021.4l-3.2-3.2c-0.5-0.5-1.4-0.5-1.9,0c0,0,0,0,0,0l-12,11.9l-5.2-5.3c-0.5-0.5-1.4-0.5-1.9,0
	c0,0,0,0,0,0l-3.2,3.2c-0.5,0.5-0.5,1.4,0,1.9c0,0,0,0,0,0l9.4,9.5c0.5,0.5,1.4,0.5,1.9,0c0,0,0,0,0,0l16.2-16.1
	C650.4,1022.8,650.4,1021.9,649.8,1021.4C649.8,1021.4,649.8,1021.4,649.8,1021.4z"/>
<path class="st34" d="M649.8,1086.2l-3.2-3.2c-0.5-0.5-1.4-0.5-1.9,0c0,0,0,0,0,0l-12,11.9l-5.2-5.3c-0.5-0.5-1.4-0.5-1.9,0
	c0,0,0,0,0,0l-3.2,3.2c-0.5,0.5-0.5,1.4,0,1.9c0,0,0,0,0,0l9.4,9.5c0.5,0.5,1.4,0.5,1.9,0c0,0,0,0,0,0l16.2-16.1
	C650.4,1087.6,650.4,1086.8,649.8,1086.2C649.8,1086.2,649.8,1086.2,649.8,1086.2z"/>
<path class="st34" d="M649.8,1152.8l-3.2-3.2c-0.5-0.5-1.4-0.5-1.9,0c0,0,0,0,0,0l-12,11.9l-5.2-5.3c-0.5-0.5-1.4-0.5-1.9,0
	c0,0,0,0,0,0l-3.2,3.2c-0.5,0.5-0.5,1.4,0,1.9c0,0,0,0,0,0l9.4,9.5c0.5,0.5,1.4,0.5,1.9,0c0,0,0,0,0,0l16.2-16.1
	C650.4,1154.2,650.4,1153.3,649.8,1152.8C649.8,1152.8,649.8,1152.8,649.8,1152.8z"/>
<text transform="matrix(1 0 0 1 735.36 1461.1)" class="st36 st37 st38">0.4</text>
<text transform="matrix(1 0 0 1 794.12 1504.89)" class="st36 st37 st38">N</text>
<text transform="matrix(1 0 0 1 813.95 1504.89)" class="st36 st37 st38">o</text>
<text transform="matrix(1 0 0 1 830.29 1504.89)" class="st36 st37 st38">v 1, 2018</text>
<text transform="matrix(1 0 0 1 964.6 1504.89)" class="st36 st37 st38">N</text>
<text transform="matrix(1 0 0 1 984.43 1504.89)" class="st36 st37 st38">o</text>
<text transform="matrix(1 0 0 1 1000.77 1504.89)" class="st36 st37 st38">v 8, 2018</text>
<text transform="matrix(1 0 0 1 1129.47 1504.89)" class="st36 st37 st38">N</text>
<text transform="matrix(1 0 0 1 1149.2999 1504.89)" class="st36 st37 st38">o</text>
<text transform="matrix(1 0 0 1 1165.64 1504.89)" class="st36 st37 st38">v 15, 2018</text>
<text transform="matrix(1 0 0 1 1302.14 1504.89)" class="st36 st37 st38">N</text>
<text transform="matrix(1 0 0 1 1321.97 1504.89)" class="st36 st37 st38">o</text>
<text transform="matrix(1 0 0 1 1338.3101 1504.89)" class="st36 st37 st38">v 22, 2018</text>
<text transform="matrix(1 0 0 1 1470.3101 1504.89)" class="st36 st37 st38">N</text>
<text transform="matrix(1 0 0 1 1490.14 1504.89)" class="st36 st37 st38">o</text>
<text transform="matrix(1 0 0 1 1506.4801 1504.89)" class="st36 st37 st38">v 29, 2018</text>
<text transform="matrix(1 0 0 1 1641.1801 1504.89)" class="st36 st37 st38">D</text>
<text transform="matrix(1 0 0 1 1661.37 1504.89)" class="st36 st37 st38">ec 6, 2018</text>
<text transform="matrix(1 0 0 1 1795.98 1504.89)" class="st36 st37 st38">D</text>
<text transform="matrix(1 0 0 1 1816.1699 1504.89)" class="st36 st37 st38">ec 20, 2018</text>
<text transform="matrix(1 0 0 1 1965.6801 1504.89)" class="st36 st37 st38">D</text>
<text transform="matrix(1 0 0 1 1985.87 1504.89)" class="st36 st37 st38">ec 27, 2018</text>
<text transform="matrix(1 0 0 1 2141.9099 1504.89)" class="st36 st37 st38">Jan 3, 2019</text>
<text transform="matrix(1 0 0 1 2306.22 1504.89)" class="st36 st37 st38">Jan 10, 2019</text>
<text transform="matrix(1 0 0 1 2471.25 1504.89)" class="st36 st37 st38">Jan 17, 2019</text>
<text transform="matrix(1 0 0 1 2635.1499 1504.89)" class="st36 st37 st38">Jan 24, 2019</text>
<text transform="matrix(1 0 0 1 2804.48 1504.89)" class="st36 st37 st38">Jan 31, 2019</text>
<text transform="matrix(1 0 0 1 735.36 1391.28)" class="st36 st37 st38">0.6</text>
<text transform="matrix(1 0 0 1 735.36 1321.09)" class="st36 st37 st38">0.8</text>
<text transform="matrix(1 0 0 1 735.36 1250.13)" class="st36 st37 st38">1.0</text>
<text transform="matrix(1 0 0 1 735.36 1182.09)" class="st36 st37 st38">1.2</text>
<text transform="matrix(1 0 0 1 735.36 904.9899)" class="st36 st37 st38">2.0</text>
<text transform="matrix(1 0 0 1 735.36 1112.14)" class="st36 st37 st38">1.4</text>
<text transform="matrix(1 0 0 1 735.36 1043.76)" class="st36 st37 st38">1.6</text>
<text transform="matrix(1 0 0 1 735.36 975.2)" class="st36 st37 st38">1.8</text>
<text transform="matrix(1 0 0 1 735.36 836.5099)" class="st36 st37 st38">2.2</text>
<text transform="matrix(1 0 0 1 776.73 1595.64)" class="st2 st5 st12">Actual</text>
<circle class="st39" cx="749.2" cy="1584.8" r="13.9"/>
<text transform="matrix(1 0 0 1 1000.86 1595.64)" class="st2 st5 st12 st40">T</text>
<text transform="matrix(1 0 0 1 1016.58 1595.64)" class="st2 st5 st12">arget</text>
<circle class="st41" cx="973.4" cy="1584.8" r="13.9"/>
<text transform="matrix(1 0 0 1 1225.54 1595.64)" class="st2 st5 st12">2019 - </text>
<text transform="matrix(1 0 0 1 1328.76 1595.64)" class="st2 st5 st12 st42">T</text>
<text transform="matrix(1 0 0 1 1345.16 1595.64)" class="st2 st5 st12">eam </text>
<text transform="matrix(1 0 0 1 1414.3 1595.64)" class="st2 st5 st12">L</text>
<text transform="matrix(1 0 0 1 1431.0701 1595.64)" class="st2 st5 st12">eader (</text>
<text transform="matrix(1 0 0 1 1532.8301 1595.64)" class="st2 st5 st12 st42">T</text>
<text transform="matrix(1 0 0 1 1549.23 1595.64)" class="st2 st5 st12">eam Summary)</text>
<circle class="st43" cx="1198" cy="1584.8" r="13.9"/>
<rect x="810.4" y="825.1" class="st10" width="2.3" height="644.3"/>
<rect x="794.1" y="1450.5" class="st10" width="2226.3" height="2.3"/>
<rect x="794.1" y="1381.1" class="st10" width="16.3" height="2.3"/>
<rect x="794.1" y="1312" class="st10" width="16.3" height="2.3"/>
<rect x="794.1" y="1242" class="st10" width="16.3" height="2.3"/>
<rect x="794.1" y="1172.5" class="st10" width="16.3" height="2.3"/>
<rect x="794.1" y="894.5" class="st10" width="16.3" height="2.3"/>
<rect x="794.1" y="1103" class="st10" width="16.3" height="2.3"/>
<rect x="794.1" y="1033.5" class="st10" width="16.3" height="2.3"/>
<rect x="794.1" y="964" class="st10" width="16.3" height="2.3"/>
<rect x="794.1" y="825.1" class="st10" width="16.3" height="2.3"/>
<rect x="1874.2" y="1452.8" class="st10" width="2.3" height="16.6"/>
<rect x="2038.2" y="1452.8" class="st10" width="2.3" height="16.6"/>
<rect x="2207.6" y="1452.8" class="st10" width="2.3" height="16.6"/>
<rect x="2375.8" y="1452.8" class="st10" width="2.3" height="16.6"/>
<rect x="2875.4" y="1452.8" class="st10" width="2.3" height="16.6"/>
<rect x="3018.2" y="1452.8" class="st10" width="2.3" height="16.6"/>
<text transform="matrix(1 0 0 1 212.7 839.9699)" class="st2 st5 st44">John Smith</text>
<circle class="st25" cx="181.8" cy="832.2" r="15.3"/>
<path class="st0" d="M177.7,833.8c-0.4-0.3-0.9-0.2-1.2,0.1c-0.9,1-1.7,2.6-1.4,6.1c-0.1,0.4,0.3,0.9,0.7,0.9c0.1,0,0.1,0,0.2,0
	h11.7c0.5,0,0.9-0.4,0.9-0.9c0-0.3,0.5-3.7-1.4-6.1c-0.3-0.4-0.9-0.4-1.3-0.1c0,0,0,0,0,0C183.5,835.6,180.1,835.6,177.7,833.8z"/>
<circle class="st0" cx="181.8" cy="828.3" r="4.9"/>
<text transform="matrix(1 0 0 1 275.36 971.68)" class="st2 st5 st44">Rose </text>
<text transform="matrix(1 0 0 1 329.53 971.68)" class="st2 st5 st44">P</text>
<text transform="matrix(1 0 0 1 343.04 971.68)" class="st2 st5 st44">ascuale</text>
<circle class="st25" cx="243.8" cy="963.9" r="15.3"/>
<path class="st0" d="M239.7,965.5c-0.4-0.3-0.9-0.2-1.2,0.1c-0.9,1-1.7,2.6-1.4,6.1c-0.1,0.4,0.3,0.9,0.7,0.9c0.1,0,0.1,0,0.2,0
	h11.7c0.5,0,0.9-0.4,0.9-0.9c0-0.3,0.5-3.7-1.4-6.1c-0.3-0.4-0.9-0.4-1.3-0.1c0,0,0,0,0,0C245.5,967.4,242.1,967.3,239.7,965.5z"/>
<circle class="st0" cx="243.8" cy="960" r="4.9"/>
<text transform="matrix(1 0 0 1 275.0701 1232.47)" class="st2 st5 st44 st45">T</text>
<text transform="matrix(1 0 0 1 286.25 1232.47)" class="st2 st5 st44">eam Summary</text>
<text transform="matrix(1 0 0 1 274.16 1295.1)" class="st2 st5 st44">O</text>
<text transform="matrix(1 0 0 1 292.55 1295.1)" class="st2 st5 st44">v</text>
<text transform="matrix(1 0 0 1 304.05 1295.1)" class="st2 st5 st44">e</text>
<text transform="matrix(1 0 0 1 316.12 1295.1)" class="st2 st5 st44">r</text>
<text transform="matrix(1 0 0 1 324.97 1295.1)" class="st2 st5 st44">all Summary</text>
<path class="st46" d="M199.3,959.4l0.7-0.6l5.5,5.1L200,969l-0.7-0.6l4.8-4.5L199.3,959.4z"/>
<path class="st46" d="M149.2,829.1l0.6,0.7l-5.1,5.5l-5.1-5.5l0.6-0.7l4.5,4.8L149.2,829.1z"/>
<path class="st46" d="M179.5,896.3l0.6,0.7l-5.1,5.5l-5.1-5.5l0.6-0.7l4.5,4.8L179.5,896.3z"/>
<text transform="matrix(1 0 0 1 195.25 1426.53)" class="st2 st5 st44 st45">T</text>
<text transform="matrix(1 0 0 1 206.4299 1426.53)" class="st2 st5 st44">eam Summary</text>
<text transform="matrix(1 0 0 1 194.42 1491.17)" class="st2 st5 st44">O</text>
<text transform="matrix(1 0 0 1 212.8101 1491.17)" class="st2 st5 st44">v</text>
<text transform="matrix(1 0 0 1 224.3101 1491.17)" class="st2 st5 st44">e</text>
<text transform="matrix(1 0 0 1 236.38 1491.17)" class="st2 st5 st44">r</text>
<text transform="matrix(1 0 0 1 245.23 1491.17)" class="st2 st5 st44">all Summary</text>
<path class="st46" d="M139.6,1414.2l0.7-0.6l5.5,5.1l-5.5,5.1l-0.7-0.6l4.8-4.5L139.6,1414.2z"/>
<path class="st46" d="M171,1348.4l0.7-0.6l5.5,5.1l-5.5,5.1l-0.7-0.6l4.8-4.5L171,1348.4z"/>
<path class="st46" d="M139.6,1478.9l0.7-0.6l5.5,5.1l-5.5,5.1l-0.7-0.6l4.8-4.5L139.6,1478.9z"/>
<path class="st1" d="M162.2,1419.7c-0.8,0.8-2,2-1.9,5.9c0,0.4,0.3,0.8,0.7,0.8c0,0,0.1,0,0.1,0h10.1c0.4,0,0.8-0.3,0.8-0.7
	c0,0,0-0.1,0-0.1c0-0.3,0.5-3.9-1.7-5.9C168.2,1422,164.5,1422,162.2,1419.7C162.2,1419.7,162.2,1419.7,162.2,1419.7z"/>
<path class="st1" d="M177.7,1418.4c-1.4,1.4-3.4,2-5.4,1.7c1.2,1.3,1.8,3.2,1.5,5h4.7c0.4,0,0.7-0.3,0.8-0.7
	C179.4,1424.2,179.9,1420.6,177.7,1418.4z"/>
<circle class="st1" cx="166.2" cy="1415.5" r="4.2"/>
<path class="st1" d="M173.5,1410c-1.1,0-2.2,0.5-3,1.3c1.1,1.1,1.7,2.6,1.7,4.2c0,0.9-0.2,1.8-0.7,2.5c0.6,0.2,1.3,0.4,2,0.5
	c2.3,0,4.2-1.8,4.2-4.1c0,0,0-0.1,0-0.1C177.7,1412,175.8,1410.1,173.5,1410z"/>
<path class="st1" d="M162.2,1484.9c-0.8,0.8-2,2-1.9,5.9c0,0.4,0.3,0.8,0.7,0.8c0,0,0.1,0,0.1,0h10.1c0.4,0,0.8-0.3,0.8-0.7
	c0,0,0-0.1,0-0.1c0-0.3,0.5-3.9-1.7-5.9C168.2,1487.2,164.5,1487.2,162.2,1484.9C162.2,1484.9,162.2,1484.9,162.2,1484.9z"/>
<path class="st1" d="M177.7,1483.6c-1.4,1.4-3.4,2-5.4,1.7c1.2,1.3,1.8,3.2,1.5,5h4.7c0.4,0,0.7-0.3,0.8-0.7
	C179.4,1489.4,179.9,1485.7,177.7,1483.6z"/>
<circle class="st1" cx="166.2" cy="1480.7" r="4.2"/>
<path class="st1" d="M173.5,1475.1c-1.1,0-2.2,0.5-3,1.3c1.1,1.1,1.7,2.6,1.7,4.2c0,0.9-0.2,1.8-0.7,2.5c0.6,0.2,1.3,0.4,2,0.5
	c2.3,0,4.2-1.8,4.2-4.1c0,0,0-0.1,0-0.1C177.7,1477.1,175.8,1475.2,173.5,1475.1z"/>
<text transform="matrix(1 0 0 1 273.45 1036.42)" class="st2 st5 st44">R</text>
<text transform="matrix(1 0 0 1 288.29 1036.42)" class="st2 st5 st44">o</text>
<text transform="matrix(1 0 0 1 300.8 1036.42)" class="st2 st5 st44">y Jordan</text>
<circle class="st25" cx="243.8" cy="1028.6" r="15.3"/>
<path class="st0" d="M239.7,1030.2c-0.4-0.3-0.9-0.2-1.2,0.1c-0.9,1-1.7,2.6-1.4,6.1c-0.1,0.4,0.3,0.9,0.7,0.9c0.1,0,0.1,0,0.2,0
	h11.7c0.5,0,0.9-0.4,0.9-0.9c0-0.3,0.5-3.7-1.4-6.1c-0.3-0.4-0.9-0.4-1.3-0.1c0,0,0,0,0,0C245.5,1032.1,242.1,1032.1,239.7,1030.2z"
	/>
<circle class="st0" cx="243.8" cy="1024.8" r="4.9"/>
<path class="st46" d="M199.3,1024.1l0.7-0.6l5.5,5.1l-5.5,5.1l-0.7-0.6l4.8-4.5L199.3,1024.1z"/>
<text transform="matrix(1 0 0 1 273.02 1102.77)" class="st2 st5 st44">Lisa Simon</text>
<circle class="st25" cx="243.8" cy="1095" r="15.3"/>
<path class="st0" d="M239.7,1096.6c-0.4-0.3-0.9-0.2-1.2,0.1c-0.9,1-1.7,2.6-1.4,6.1c-0.1,0.4,0.3,0.9,0.7,0.9c0.1,0,0.1,0,0.2,0
	h11.7c0.5,0,0.9-0.4,0.9-0.9c0-0.3,0.5-3.7-1.4-6.1c-0.3-0.4-0.9-0.4-1.3-0.1c0,0,0,0,0,0C245.5,1098.4,242.1,1098.4,239.7,1096.6z"
	/>
<circle class="st0" cx="243.8" cy="1091.1" r="4.9"/>
<path class="st46" d="M199.3,1090.5l0.7-0.6l5.5,5.1l-5.5,5.1l-0.7-0.6l4.8-4.5L199.3,1090.5z"/>
<text transform="matrix(1 0 0 1 273.02 1166.59)" class="st2 st5 st44">Soul Rodriguez</text>
<circle class="st25" cx="243.8" cy="1158.8" r="15.3"/>
<path class="st0" d="M239.7,1160.4c-0.4-0.3-0.9-0.2-1.2,0.1c-0.9,1-1.7,2.6-1.4,6.1c-0.1,0.4,0.3,0.9,0.7,0.9c0.1,0,0.1,0,0.2,0
	h11.7c0.5,0,0.9-0.4,0.9-0.9c0-0.3,0.5-3.7-1.4-6.1c-0.3-0.4-0.9-0.4-1.3-0.1c0,0,0,0,0,0C245.5,1162.3,242.1,1162.3,239.7,1160.4z"
	/>
<circle class="st0" cx="243.8" cy="1154.9" r="4.9"/>
<path class="st46" d="M199.3,1154.3l0.7-0.6l5.5,5.1l-5.5,5.1l-0.7-0.6l4.8-4.5L199.3,1154.3z"/>
<path class="st1" d="M241.9,1226.2c-0.8,0.8-2,2-1.9,5.9c0,0.4,0.3,0.8,0.7,0.8c0,0,0.1,0,0.1,0H251c0.4,0,0.8-0.3,0.8-0.7
	c0,0,0-0.1,0-0.1c0-0.3,0.5-3.9-1.7-5.9C247.9,1228.5,244.2,1228.5,241.9,1226.2C241.9,1226.2,241.9,1226.2,241.9,1226.2z"/>
<path class="st1" d="M257.4,1224.8c-1.4,1.4-3.4,2-5.4,1.7c1.2,1.3,1.8,3.2,1.5,5h4.7c0.4,0,0.7-0.3,0.8-0.7
	C259,1230.7,259.5,1227,257.4,1224.8z"/>
<circle class="st1" cx="245.9" cy="1222" r="4.2"/>
<path class="st1" d="M253.2,1216.4c-1.1,0-2.2,0.5-3,1.3c1.1,1.1,1.7,2.6,1.7,4.2c0,0.9-0.2,1.8-0.7,2.5c0.6,0.2,1.3,0.4,2,0.5
	c2.3,0,4.2-1.8,4.2-4.1c0,0,0-0.1,0-0.1C257.4,1218.4,255.5,1216.5,253.2,1216.4z"/>
<path class="st1" d="M241.9,1288.8c-0.8,0.8-2,2-1.9,5.9c0,0.4,0.3,0.8,0.7,0.8c0,0,0.1,0,0.1,0H251c0.4,0,0.8-0.3,0.8-0.7
	c0,0,0-0.1,0-0.1c0-0.3,0.5-3.9-1.7-5.9C247.9,1291.1,244.2,1291.1,241.9,1288.8C241.9,1288.9,241.9,1288.8,241.9,1288.8z"/>
<path class="st1" d="M257.4,1287.5c-1.4,1.4-3.4,2-5.4,1.7c1.2,1.3,1.8,3.2,1.5,5h4.7c0.4,0,0.7-0.3,0.8-0.7
	C259,1293.4,259.5,1289.7,257.4,1287.5z"/>
<circle class="st1" cx="245.9" cy="1284.6" r="4.2"/>
<path class="st1" d="M253.2,1279.1c-1.1,0-2.2,0.5-3,1.3c1.1,1.1,1.7,2.6,1.7,4.2c0,0.9-0.2,1.8-0.7,2.5c0.6,0.2,1.3,0.4,2,0.5
	c2.3,0,4.2-1.8,4.2-4.1c0,0,0-0.1,0-0.1C257.4,1281.1,255.5,1279.1,253.2,1279.1z"/>
<rect x="119.1" y="800.4" class="st29" width="560.7" height="0.9"/>
<rect x="119.1" y="865.5" class="st29" width="561.5" height="0.9"/>
<rect x="119.1" y="930.7" class="st29" width="561.5" height="0.9"/>
<rect x="119.1" y="995.6" class="st29" width="561.5" height="0.9"/>
<rect x="119.1" y="1060.7" class="st29" width="561.5" height="0.9"/>
<rect x="119.1" y="1125.8" class="st29" width="561.5" height="0.9"/>
<rect x="119.1" y="1190.9" class="st29" width="561.5" height="0.9"/>
<rect x="119.1" y="1256" class="st29" width="561.5" height="0.9"/>
<rect x="119.1" y="1321.1" class="st29" width="561.5" height="0.9"/>
<rect x="119.1" y="1386.2" class="st29" width="561.5" height="0.9"/>
<rect x="119.1" y="1451.5" class="st29" width="561.5" height="0.9"/>
<rect x="119.1" y="1516.6" class="st29" width="561.5" height="0.9"/>
<path class="st34" d="M594.6,953.4h-18.3c-1.4,0-2.5,1.1-2.5,2.5v18.3c0,1.4,1.1,2.5,2.5,2.5h18.3c1.4,0,2.5-1.1,2.5-2.5v-18.3
	C597.1,954.5,596,953.4,594.6,953.4L594.6,953.4z M595.5,974.2c0,0.5-0.4,0.8-0.8,0.8c0,0,0,0,0,0h-18.3c-0.5,0-0.8-0.4-0.8-0.8
	c0,0,0,0,0,0v-18.3c0-0.5,0.4-0.8,0.8-0.8c0,0,0,0,0,0h18.3c0.5,0,0.8,0.4,0.8,0.8c0,0,0,0,0,0L595.5,974.2z M579,971.2
	c-0.2-0.2-0.2-0.6,0-0.9l10.2-10.2l0,0h-4.7c-0.3,0-0.6-0.3-0.6-0.6l0,0V959c0-0.3,0.3-0.6,0.6-0.6l0,0h7.1c0.3,0,0.6,0.3,0.6,0.6
	l0,0v7.1c0,0.3-0.3,0.6-0.6,0.6l0,0H591c-0.3,0-0.6-0.3-0.6-0.6l0,0v-4.7l0,0l-10.2,10.2c-0.2,0.2-0.6,0.2-0.9,0L579,971.2
	L579,971.2z"/>
<path class="st34" d="M594.6,1018h-18.3c-1.4,0-2.5,1.1-2.5,2.5v18.3c0,1.4,1.1,2.5,2.5,2.5h18.3c1.4,0,2.5-1.1,2.5-2.5v-18.3
	C597.1,1019.1,596,1018,594.6,1018L594.6,1018z M595.5,1038.8c0,0.5-0.4,0.8-0.8,0.8h-18.3c-0.5,0-0.8-0.4-0.8-0.8v-18.3
	c0-0.5,0.4-0.8,0.8-0.8c0,0,0,0,0,0h18.3c0.5,0,0.8,0.4,0.8,0.8c0,0,0,0,0,0L595.5,1038.8z M579,1035.8c-0.2-0.2-0.2-0.6,0-0.9
	l10.2-10.2l0,0h-4.7c-0.3,0-0.6-0.3-0.6-0.6l0,0v-0.5c0-0.3,0.3-0.6,0.6-0.6l0,0h7.1c0.3,0,0.6,0.3,0.6,0.6l0,0v7.1
	c0,0.3-0.3,0.6-0.6,0.6l0,0H591c-0.3,0-0.6-0.3-0.6-0.6l0,0v-4.7l0,0l-10.2,10.2c-0.2,0.2-0.6,0.2-0.9,0L579,1035.8L579,1035.8z"/>
<path class="st34" d="M594.6,1082h-18.3c-1.4,0-2.5,1.1-2.5,2.5v18.3c0,1.4,1.1,2.5,2.5,2.5h18.3c1.4,0,2.5-1.1,2.5-2.5v-18.3
	C597.1,1083.1,596,1082,594.6,1082L594.6,1082z M595.5,1102.8c0,0.5-0.4,0.8-0.8,0.8h-18.3c-0.5,0-0.8-0.4-0.8-0.8v-18.3
	c0-0.5,0.4-0.8,0.8-0.8h18.3c0.5,0,0.8,0.4,0.8,0.8L595.5,1102.8z M579,1099.8c-0.2-0.2-0.2-0.6,0-0.9l10.2-10.2l0,0h-4.7
	c-0.3,0-0.6-0.3-0.6-0.6l0,0v-0.5c0-0.3,0.3-0.6,0.6-0.6l0,0h7.1c0.3,0,0.6,0.3,0.6,0.6l0,0v7.1c0,0.3-0.3,0.6-0.6,0.6l0,0H591
	c-0.3,0-0.6-0.3-0.6-0.6l0,0v-4.7l0,0l-10.2,10.2c-0.2,0.2-0.6,0.2-0.9,0L579,1099.8L579,1099.8z"/>
<path class="st34" d="M594.6,1148.5h-18.3c-1.4,0-2.5,1.1-2.5,2.5v18.3c0,1.4,1.1,2.5,2.5,2.5h18.3c1.4,0,2.5-1.1,2.5-2.5V1151
	C597.1,1149.6,596,1148.5,594.6,1148.5z M595.5,1169.4c0,0.5-0.4,0.8-0.8,0.8h-18.3c-0.5,0-0.8-0.4-0.8-0.8V1151
	c0-0.5,0.4-0.8,0.8-0.8h18.3c0.5,0,0.8,0.4,0.8,0.8L595.5,1169.4z M579,1166.4c-0.2-0.2-0.2-0.6,0-0.9l10.2-10.2l0,0h-4.7
	c-0.3,0-0.6-0.3-0.6-0.6l0,0v-0.5c0-0.3,0.3-0.6,0.6-0.6l0,0h7.1c0.3,0,0.6,0.3,0.6,0.6l0,0v7.1c0,0.3-0.3,0.6-0.6,0.6l0,0H591
	c-0.3,0-0.6-0.3-0.6-0.6l0,0v-4.7l0,0l-10.2,10.2c-0.2,0.2-0.6,0.2-0.9,0L579,1166.4L579,1166.4z"/>
<path class="st35" d="M649.8,827.2l-3.2-3.2c-0.5-0.5-1.4-0.5-1.9,0c0,0,0,0,0,0l-12,12l-5.2-5.3c-0.5-0.5-1.4-0.5-1.9,0
	c0,0,0,0,0,0l-3.2,3.2c-0.5,0.5-0.5,1.4,0,1.9c0,0,0,0,0,0l9.4,9.5c0.5,0.5,1.4,0.5,1.9,0c0,0,0,0,0,0l16.2-16.1
	C650.4,828.6,650.4,827.8,649.8,827.2C649.8,827.2,649.8,827.2,649.8,827.2z"/>
<text transform="matrix(1 0 0 1 229.79 903.7599)" class="st10 st3 st47">1041 - Offline A</text>
<path class="st1" d="M198.5,898.1c-0.8,0.8-2,2-1.9,5.9c0,0.4,0.3,0.8,0.7,0.8c0,0,0.1,0,0.1,0h10.1c0.4,0,0.8-0.3,0.8-0.7
	c0,0,0-0.1,0-0.1c0-0.3,0.5-3.9-1.7-5.9C204.4,900.4,200.8,900.4,198.5,898.1C198.5,898.1,198.5,898.1,198.5,898.1z"/>
<path class="st1" d="M213.9,896.8c-1.4,1.4-3.4,2-5.4,1.7c1.2,1.3,1.8,3.2,1.5,5h4.7c0.4,0,0.7-0.3,0.8-0.7
	C215.6,902.7,216.1,899,213.9,896.8z"/>
<circle class="st1" cx="202.5" cy="893.9" r="4.2"/>
<path class="st1" d="M209.7,888.4c-1.1,0-2.2,0.5-3,1.3c1.1,1.1,1.7,2.6,1.7,4.2c0,0.9-0.2,1.8-0.7,2.5c0.6,0.2,1.3,0.4,2,0.5
	c2.3,0,4.2-1.8,4.2-4.1c0,0,0-0.1,0-0.1C214,890.4,212.1,888.4,209.7,888.4z"/>
<text transform="matrix(1 0 0 1 231.11 1358.51)" class="st10 st3 st47">289 - Offline A</text>
<path class="st1" d="M198.5,1352.9c-0.8,0.8-2,2-1.9,5.9c0,0.4,0.3,0.8,0.7,0.8c0,0,0.1,0,0.1,0h10.1c0.4,0,0.8-0.3,0.8-0.7
	c0,0,0-0.1,0-0.1c0-0.3,0.5-3.9-1.7-5.9C204.4,1355.1,200.8,1355.1,198.5,1352.9C198.5,1352.9,198.5,1352.9,198.5,1352.9z"/>
<path class="st1" d="M213.9,1351.5c-1.4,1.4-3.4,2-5.4,1.7c1.2,1.3,1.8,3.2,1.5,5h4.7c0.4,0,0.7-0.3,0.8-0.7
	C215.6,1357.4,216.1,1353.7,213.9,1351.5z"/>
<circle class="st1" cx="202.5" cy="1348.7" r="4.2"/>
<path class="st1" d="M209.7,1343.1c-1.1,0-2.2,0.5-3,1.3c1.1,1.1,1.7,2.6,1.7,4.2c0,0.9-0.2,1.8-0.7,2.5c0.6,0.2,1.3,0.4,2,0.5
	c2.3,0,4.2-1.8,4.2-4.1c0,0,0-0.1,0-0.1C214,1345.1,212.1,1343.2,209.7,1343.1z"/>
<rect x="990.7" y="513.3" class="st7" width="161.4" height="45.5"/>
<rect x="1152" y="513.3" class="st6" width="161.5" height="45.5"/>
<text transform="matrix(1 0 0 1 1208.63 543.5)" class="st0 st5 st4 st45">T</text>
<text transform="matrix(1 0 0 1 1218.45 543.5)" class="st0 st5 st4">rend</text>
<text transform="matrix(1 0 0 1 1052.36 543.5)" class="st2 st5 st4">Grid</text>
<text transform="matrix(1 0 0 1 195.0701 626.38)" class="st2 st3 st11">Metric</text>
<path class="st48" d="M177.3,612.2c2.5,9.5-3.3,19.2-12.8,21.7c-2.9,0.8-6,0.8-8.9,0c-6.3-1.6-11.1-6.5-12.7-12.7
	c-2.5-9.5,3.3-19.2,12.8-21.7c2.9-0.8,6-0.8,8.9,0C170.8,601.1,175.7,605.9,177.3,612.2z"/>
<path class="st0" d="M168.9,614.6h-6.7v-6.7c0-0.5-0.4-0.9-0.9-0.9h-2.4c-0.5,0-0.9,0.4-0.9,0.9v6.7h-6.7c-0.5,0-0.9,0.4-0.9,0.9
	v2.4c0,0.5,0.4,0.9,0.9,0.9h6.7v6.7c0,0.5,0.4,0.9,0.9,0.9h2.4c0.5,0,0.9-0.4,0.9-0.9v-6.7h6.7c0.5,0,0.9-0.4,0.9-0.9v-2.4
	C169.8,615,169.4,614.6,168.9,614.6C168.9,614.6,168.9,614.6,168.9,614.6z"/>
<text transform="matrix(1 0 0 1 404.89 626.38)" class="st2 st3 st11">Show </text>
<text transform="matrix(1 0 0 1 480.11 626.38)" class="st2 st3 st11 st42">T</text>
<text transform="matrix(1 0 0 1 493.5 626.38)" class="st2 st3 st11">argets</text>
<rect x="357.6" y="604.9" class="st49" width="24.8" height="24.8"/>
<path class="st1" d="M378.6,612.7l-2-2c-0.3-0.3-0.9-0.3-1.2,0c0,0,0,0,0,0l-7.5,7.5l-3.3-3.3c-0.3-0.3-0.9-0.3-1.2,0c0,0,0,0,0,0
	l-2,2c-0.3,0.3-0.3,0.9,0,1.2c0,0,0,0,0,0l5.9,5.9c0.3,0.3,0.9,0.3,1.2,0c0,0,0,0,0,0l10.2-10.1C379,613.5,379,613,378.6,612.7
	C378.7,612.7,378.7,612.7,378.6,612.7z"/>
<path class="st0" d="M168.4,698L168.4,698l-3-3l-6.3-6.2c-0.4-0.4-0.9-0.4-1.3,0l-0.9,0.9l-0.9,0.9c-0.4,0.4-0.4,0.9,0,1.3l6.3,6.2
	l-6.3,6.2c-0.4,0.4-0.4,0.9,0,1.3l0.9,0.9l0.9,0.9c0.4,0.4,0.9,0.4,1.3,0L168.4,698L168.4,698L168.4,698z"/>
<text transform="matrix(1 0 0 1 196.2 725.2)" class="st2 st3 st11">Hide Users</text>
<path class="st48" d="M178.4,711.3c2.5,9.5-3.2,19.2-12.7,21.7c-2.9,0.8-6,0.8-9,0c-6.3-1.6-11.2-6.5-12.8-12.8
	c-2.5-9.5,3.3-19.2,12.8-21.7c2.9-0.8,6-0.8,8.9,0C172,700.1,176.9,705,178.4,711.3z"/>
<path class="st0" d="M153.5,715.8L153.5,715.8l3-3l6.3-6.2c0.4-0.4,0.9-0.4,1.3,0l0.9,0.9l0.9,0.9c0.4,0.4,0.4,0.9,0,1.3l-6.3,6.2
	l6.3,6.2c0.4,0.4,0.4,0.9,0,1.3l-0.9,0.9l-0.9,0.9c-0.4,0.4-0.9,0.4-1.3,0L153.5,715.8L153.5,715.8L153.5,715.8z"/>
<rect x="2806.5" y="611.2" class="st7" width="161.4" height="45.5"/>
<rect x="2527.2" y="611.2" class="st6" width="139.4" height="45.5"/>
<text transform="matrix(1 0 0 1 2570.3899 640.6)" class="st0 st5 st4">Daily</text>
<text transform="matrix(1 0 0 1 2701.05 640.6)" class="st2 st5 st4">W</text>
<text transform="matrix(1 0 0 1 2720.8501 640.6)" class="st2 st5 st4">eekly</text>
<rect x="2666.6" y="611.2" class="st7" width="139.4" height="45.5"/>
<text transform="matrix(1 0 0 1 2848.8101 640.6)" class="st2 st5 st4">Monthly</text>
<rect x="2805.6" y="611.2" class="st7" width="162.3" height="45.5"/>
<rect id="overlay" x="61.1" y="119.6" class="st50" width="3011.3" height="1519.9"/>
<polygon class="st49" points="1800.4,735.3 1196.9,735.3 1196.9,405.2 1213.9,383 1231.6,405.8 1800.4,405.8 "/>
<path class="st24" d="M1774.6,420.2l4.2,4.1l-4.1,4.2c-0.3,0.3-0.3,0.8,0,1.1l0.8,0.8l0.8,0.8c0.3,0.3,0.8,0.3,1.1,0l4.1-4.2
	l4.2,4.1c0.3,0.3,0.8,0.3,1.1,0l0.8-0.8l0.8-0.8c0.3-0.3,0.3-0.8,0-1.1l-4.2-4.1l4.1-4.2c0.3-0.3,0.3-0.8,0-1.1l-0.8-0.8l-0.8-0.8
	c-0.3-0.3-0.8-0.3-1.1,0l-4.1,4.2l-4.2-4.1c-0.3-0.3-0.8-0.3-1.1,0l-0.8,0.8l-0.8,0.8C1774.3,419.4,1774.3,419.9,1774.6,420.2z"/>
<text transform="matrix(1 0 0 1 1213.45 434.26)" class="st2 st3 st17">Select a Super Group</text>
<text transform="matrix(1 0 0 1 1311.6899 475.51)" class="st2 st3 st51">P</text>
<text transform="matrix(1 0 0 1 1321.99 475.51)" class="st2 st3 st51">ersonal</text>
<text transform="matrix(1 0 0 1 1589.58 475.21)" class="st2 st3 st51">Subordinates</text>
<text transform="matrix(1 0 0 1 1264.2 507.93)" class="st2 st5 st52">Jan 11, 2019 - Jan 20, 2019</text>
<text transform="matrix(1 0 0 1 1559.17 505.07)" class="st2 st5 st52">Jan 11, 2019 - Jan 20, 2019</text>
<rect x="1282.2" y="483.2" class="st53" width="125.2" height="0.2"/>
<rect x="1492" y="433.9" class="st53" width="0.2" height="218.9"/>
<rect x="1577.2" y="485.7" class="st53" width="125.2" height="0.2"/>
<text transform="matrix(1 0 0 1 1616.49 531.27)" class="st10 st5 st20">TM  -  SG 1</text>
<path class="st1" d="M1589.4,527.3c-0.8,0.8-2,2-1.8,5.9c0,0.4,0.3,0.8,0.7,0.8c0,0,0.1,0,0.1,0h10.1c0.4,0,0.8-0.3,0.8-0.7
	c0,0,0-0.1,0-0.1c0-0.3,0.5-3.9-1.7-5.9C1595.3,529.6,1591.7,529.6,1589.4,527.3C1589.4,527.3,1589.4,527.3,1589.4,527.3z"/>
<path class="st1" d="M1604.8,526c-1.4,1.4-3.4,2-5.4,1.7c1.2,1.3,1.8,3.2,1.5,5h4.7c0.4,0,0.7-0.3,0.8-0.7
	C1606.5,531.8,1607,528.2,1604.8,526z"/>
<circle class="st1" cx="1593.4" cy="523.1" r="4.2"/>
<path class="st1" d="M1600.6,517.6c-1.1,0-2.2,0.5-3,1.3c1.1,1.1,1.7,2.6,1.7,4.2c0,0.9-0.2,1.8-0.7,2.5c0.6,0.2,1.3,0.4,2,0.5
	c2.3,0,4.2-1.8,4.2-4.1c0,0,0-0.1,0-0.1C1604.9,519.6,1603,517.6,1600.6,517.6z"/>
<text transform="matrix(1 0 0 1 1616.49 559.06)" class="st10 st5 st20">TM  -  SG 2</text>
<path class="st1" d="M1589.4,555.1c-0.8,0.8-2,2-1.8,5.9c0,0.4,0.3,0.8,0.7,0.8c0,0,0.1,0,0.1,0h10.1c0.4,0,0.8-0.3,0.8-0.7
	c0,0,0-0.1,0-0.1c0-0.3,0.5-3.9-1.7-5.9C1595.3,557.4,1591.7,557.4,1589.4,555.1C1589.4,555.1,1589.4,555.1,1589.4,555.1z"/>
<path class="st1" d="M1604.8,553.8c-1.4,1.4-3.4,2-5.4,1.7c1.2,1.3,1.8,3.2,1.5,5h4.7c0.4,0,0.7-0.3,0.8-0.7
	C1606.5,559.7,1607,556,1604.8,553.8z"/>
<circle class="st1" cx="1593.4" cy="550.9" r="4.2"/>
<path class="st1" d="M1600.6,545.3c-1.1,0-2.2,0.5-3,1.3c1.1,1.1,1.7,2.6,1.7,4.2c0,0.9-0.2,1.8-0.7,2.5c0.6,0.2,1.3,0.4,2,0.5
	c2.3,0,4.2-1.8,4.2-4.1c0,0,0-0.1,0-0.1C1604.9,547.4,1603,545.4,1600.6,545.3z"/>
<text transform="matrix(1 0 0 1 1616.49 587.13)" class="st10 st5 st20">TM  -  SG 3</text>
<path class="st1" d="M1589.4,583.2c-0.8,0.8-2,2-1.8,5.9c0,0.4,0.3,0.8,0.7,0.8c0,0,0.1,0,0.1,0h10.1c0.4,0,0.8-0.3,0.8-0.7
	c0,0,0-0.1,0-0.1c0-0.3,0.5-3.9-1.7-5.9C1595.3,585.5,1591.7,585.5,1589.4,583.2C1589.4,583.2,1589.4,583.2,1589.4,583.2z"/>
<path class="st1" d="M1604.8,581.8c-1.4,1.4-3.4,2-5.4,1.7c1.2,1.3,1.8,3.2,1.5,5h4.7c0.4,0,0.7-0.3,0.8-0.7
	C1606.5,587.7,1607,584,1604.8,581.8z"/>
<circle class="st1" cx="1593.4" cy="579" r="4.2"/>
<path class="st1" d="M1600.6,573.4c-1.1,0-2.2,0.5-3,1.3c1.1,1.1,1.7,2.6,1.7,4.2c0,0.9-0.2,1.8-0.7,2.5c0.6,0.2,1.3,0.4,2,0.5
	c2.3,0,4.2-1.8,4.2-4.1c0,0,0-0.1,0-0.1C1604.9,575.4,1603,573.5,1600.6,573.4z"/>
<path class="st1" d="M1284.1,529.5c-0.8,0.8-2,2-1.8,5.9c0,0.4,0.3,0.8,0.7,0.8c0,0,0.1,0,0.1,0h10.1c0.4,0,0.8-0.3,0.8-0.7
	c0,0,0-0.1,0-0.1c0-0.3,0.5-3.9-1.7-5.9C1290.1,531.8,1286.4,531.8,1284.1,529.5C1284.1,529.5,1284.1,529.5,1284.1,529.5z"/>
<circle class="st1" cx="1288.1" cy="525.3" r="4.2"/>
<text transform="matrix(1 0 0 1 1303.4301 534.15)" class="st10 st5 st20">SNR MGR - SG</text>
<text transform="matrix(1 0 0 1 1616.49 648.95)" class="st10 st5 st20">TM  -  SG 1</text>
<path class="st1" d="M1589.4,645c-0.8,0.8-2,2-1.8,5.9c0,0.4,0.3,0.8,0.7,0.8c0,0,0.1,0,0.1,0h10.1c0.4,0,0.8-0.3,0.8-0.7
	c0,0,0-0.1,0-0.1c0-0.3,0.5-3.9-1.7-5.9C1595.3,647.3,1591.7,647.3,1589.4,645C1589.4,645,1589.4,645,1589.4,645z"/>
<path class="st1" d="M1604.8,643.7c-1.4,1.4-3.4,2-5.4,1.7c1.2,1.3,1.8,3.2,1.5,5h4.7c0.4,0,0.7-0.3,0.8-0.7
	C1606.5,649.5,1607,645.8,1604.8,643.7z"/>
<circle class="st1" cx="1593.4" cy="640.8" r="4.2"/>
<path class="st1" d="M1600.6,635.2c-1.1,0-2.2,0.5-3,1.3c1.1,1.1,1.7,2.6,1.7,4.2c0,0.9-0.2,1.8-0.7,2.5c0.6,0.2,1.3,0.4,2,0.5
	c2.3,0,4.2-1.8,4.2-4.1c0,0,0-0.1,0-0.1C1604.9,637.2,1603,635.3,1600.6,635.2z"/>
<text transform="matrix(1 0 0 1 1616.49 676.7399)" class="st10 st5 st20">TM  -  SG 2</text>
<path class="st1" d="M1589.4,672.8c-0.8,0.8-2,2-1.8,5.9c0,0.4,0.3,0.8,0.7,0.8c0,0,0.1,0,0.1,0h10.1c0.4,0,0.8-0.3,0.8-0.7
	c0,0,0-0.1,0-0.1c0-0.3,0.5-3.9-1.7-5.9C1595.3,675.1,1591.7,675.1,1589.4,672.8C1589.4,672.8,1589.4,672.8,1589.4,672.8z"/>
<path class="st1" d="M1604.8,671.4c-1.4,1.4-3.4,2-5.4,1.7c1.2,1.3,1.8,3.2,1.5,5h4.7c0.4,0,0.7-0.3,0.8-0.7
	C1606.5,677.3,1607,673.6,1604.8,671.4z"/>
<circle class="st1" cx="1593.4" cy="668.6" r="4.2"/>
<path class="st1" d="M1600.6,663c-1.1,0-2.2,0.5-3,1.3c1.1,1.1,1.7,2.6,1.7,4.2c0,0.9-0.2,1.8-0.7,2.5c0.6,0.2,1.3,0.4,2,0.5
	c2.3,0,4.2-1.8,4.2-4.1c0,0,0-0.1,0-0.1C1604.9,665,1603,663.1,1600.6,663z"/>
<path class="st1" d="M1284.1,594.3c-0.8,0.8-2,2-1.8,5.9c0,0.4,0.3,0.8,0.7,0.8c0,0,0.1,0,0.1,0h10.1c0.4,0,0.8-0.3,0.8-0.7
	c0,0,0-0.1,0-0.1c0-0.3,0.5-3.9-1.7-5.9C1290.1,596.6,1286.4,596.6,1284.1,594.3C1284.1,594.3,1284.1,594.3,1284.1,594.3z"/>
<circle class="st1" cx="1288.1" cy="590.1" r="4.2"/>
<text transform="matrix(1 0 0 1 1303.4301 598.97)" class="st10 st5 st20">SNR MGR - SG</text>
<text transform="matrix(1 0 0 1 1268.12 572.7)" class="st2 st5 st52">Jan 1, 2019 - Jan 10, 2019</text>
<text transform="matrix(1 0 0 1 1563.1 627.57)" class="st2 st5 st52">Jan 1, 2019 - Jan 10, 2019</text>
<rect x="1787.1" y="477.7" class="st54" width="3" height="189.9"/>
<text transform="matrix(1 0 0 1 1031.9399 372.14)" class="st1 st3 st20">Pr</text>
<text transform="matrix(1 0 0 1 1048.6799 372.14)" class="st1 st3 st20">e</text>
<text transform="matrix(1 0 0 1 1057.0699 372.14)" class="st1 st3 st20">vious Super Groups</text>
<path class="st55" d="M1221.7,365.8c1.2,4.6-1.6,9.2-6.1,10.4c-1.4,0.4-2.9,0.4-4.3,0c-3-0.8-5.3-3.1-6.1-6.1
	c-1.2-4.6,1.6-9.2,6.1-10.4c1.4-0.4,2.9-0.4,4.3,0C1218.6,360.5,1221,362.8,1221.7,365.8z"/>
<path class="st1" d="M1217.7,367h-3.2v-3.2c0-0.2-0.2-0.4-0.4-0.4h-1.2c-0.2,0-0.4,0.2-0.4,0.4v3.2h-3.2c-0.2,0-0.4,0.2-0.4,0.4v1.2
	c0,0.2,0.2,0.4,0.4,0.4h3.2v3.2c0,0.2,0.2,0.4,0.4,0.4h1.1c0.2,0,0.4-0.2,0.4-0.4V369h3.2c0.2,0,0.4-0.2,0.4-0.4v-1.2
	C1218.1,367.2,1217.9,367,1217.7,367z"/>
</svg>
