<?xml version="1.0" encoding="utf-8"?>
<!-- Generator: Adobe Illustrator 21.0.0, SVG Export Plug-In . SVG Version: 6.00 Build 0)  -->
<svg version="1.1" xmlns="http://www.w3.org/2000/svg" xmlns:xlink="http://www.w3.org/1999/xlink" x="0px" y="0px"
	 viewBox="0 0 583 95" style="enable-background:new 0 0 583 95;" xml:space="preserve">
<style type="text/css">
	.st0{display:none;}
	.st1{display:inline;}
	.st2{fill:#424242;}
	.st3{font-family:'OpenSans-Regular';}
	.st4{font-size:114.2262px;}
	.st5{letter-spacing:-5;}
	.st6{fill:#78A746;}
	.st7{font-family:'InkFree';}
	.st8{font-size:135.4829px;}
	.st9{letter-spacing:-6;}
	.st10{letter-spacing:-3;}
	.st11{display:inline;fill:#424242;}
	.st12{display:inline;fill:#78A746;}
</style>
<g id="Live_Text" class="st0">
	<text transform="matrix(1 0 0 1 -6 67.543)" class="st1"><tspan x="0" y="0" class="st2 st3 st4">c</tspan><tspan x="51.2" y="0" class="st2 st3 st4 st5">   </tspan><tspan x="106.7" y="0" class="st2 st3 st4">mpas</tspan></text>
	<g class="st1">
		<text transform="matrix(1 0 0 1 413.5781 66.8398)"><tspan x="0" y="0" class="st6 st7 st8 st9">o</tspan><tspan x="67.6" y="0" class="st6 st7 st8 st10">ne</tspan></text>
	</g>
	<path class="st11" d="M110.5,19.2l-2.6,10.2c2.8,7.7,1.7,16.6-3.8,23.4c-8.3,10.3-23.5,12-33.8,3.6s-12-23.5-3.6-33.8
		c5.5-6.8,14-9.8,22.1-8.7l9.4-4.7c-12.6-5.7-28-2.4-37.1,8.9C50.2,31.5,52.3,51.2,65.8,62s33.1,8.7,43.9-4.7
		C118.8,46,118.7,30.3,110.5,19.2z"/>
	<polygon class="st12" points="83.8,39.7 93.4,56.5 104.2,14.3 65.2,33.8 	"/>
</g>
<g id="Outline">
	<g>
		<path class="st2" d="M28.2,68.7c-8.9,0-15.7-2.7-20.6-8.2C2.8,55,0.4,47.3,0.4,37.4c0-10.2,2.5-18.1,7.4-23.7
			c4.9-5.6,11.9-8.4,21.1-8.4c2.9,0,5.9,0.3,8.8,0.9c2.9,0.6,5.2,1.4,6.9,2.2l-2.8,7.9c-2-0.8-4.3-1.5-6.7-2
			c-2.4-0.5-4.6-0.8-6.4-0.8C16.2,13.5,10,21.4,10,37.3c0,7.5,1.5,13.3,4.5,17.3c3,4,7.5,6,13.5,6c5.1,0,10.3-1.1,15.7-3.3v8.2
			C39.6,67.6,34.5,68.7,28.2,68.7z"/>
		<path class="st2" d="M208,67.5V27.8c0-4.9-1-8.5-3.1-11c-2.1-2.4-5.3-3.7-9.7-3.7c-5.8,0-10,1.7-12.8,5c-2.8,3.3-4.1,8.4-4.1,15.3
			v34.1H169V27.8c0-4.9-1-8.5-3.1-11c-2.1-2.4-5.3-3.7-9.8-3.7c-5.8,0-10,1.7-12.7,5.2c-2.7,3.5-4,9.2-4,17.1v32.1h-9.3V6.4h7.5
			l1.5,8.4h0.4c1.7-3,4.2-5.3,7.4-7s6.7-2.5,10.7-2.5c9.6,0,15.8,3.5,18.7,10.4h0.4c1.8-3.2,4.5-5.7,7.9-7.6
			c3.5-1.9,7.4-2.8,11.8-2.8c6.9,0,12.1,1.8,15.5,5.3c3.4,3.6,5.2,9.2,5.2,17v39.9H208z"/>
		<path class="st2" d="M264.8,68.7c-4,0-7.6-0.7-10.9-2.2c-3.3-1.5-6.1-3.7-8.3-6.8h-0.7c0.4,3.6,0.7,7,0.7,10.2V95h-9.3V6.4h7.5
			l1.3,8.4h0.4c2.4-3.3,5.1-5.8,8.3-7.3c3.2-1.5,6.8-2.2,10.9-2.2c8.1,0,14.4,2.8,18.8,8.3c4.4,5.5,6.6,13.3,6.6,23.3
			c0,10-2.2,17.8-6.7,23.4C278.9,65.9,272.7,68.7,264.8,68.7z M263.4,13.2c-6.2,0-10.8,1.7-13.6,5.2c-2.8,3.5-4.2,9-4.3,16.5v2.1
			c0,8.6,1.4,14.7,4.3,18.4c2.9,3.7,7.5,5.5,13.8,5.5c5.3,0,9.4-2.1,12.4-6.4c3-4.3,4.5-10.2,4.5-17.7c0-7.6-1.5-13.5-4.5-17.5
			C273.1,15.2,268.9,13.2,263.4,13.2z"/>
		<path class="st2" d="M343.9,67.5l-1.8-8.7h-0.4c-3,3.8-6.1,6.4-9.1,7.8c-3,1.4-6.8,2-11.4,2c-6.1,0-10.8-1.6-14.3-4.7
			c-3.4-3.1-5.2-7.6-5.2-13.3c0-12.3,9.9-18.8,29.6-19.4l10.4-0.3v-3.8c0-4.8-1-8.3-3.1-10.6s-5.4-3.4-9.9-3.4
			c-5.1,0-10.9,1.6-17.3,4.7l-2.8-7.1c3-1.6,6.3-2.9,9.9-3.8c3.6-0.9,7.2-1.4,10.8-1.4c7.3,0,12.7,1.6,16.2,4.9
			c3.5,3.2,5.3,8.4,5.3,15.6v41.7H343.9z M323,61c5.8,0,10.3-1.6,13.6-4.7c3.3-3.2,4.9-7.6,4.9-13.3v-5.5l-9.3,0.4
			c-7.4,0.3-12.7,1.4-15.9,3.4c-3.3,2-4.9,5.2-4.9,9.5c0,3.3,1,5.9,3,7.6C316.5,60.1,319.4,61,323,61z"/>
		<path class="st2" d="M409.3,50.9c0,5.7-2.1,10.1-6.4,13.2c-4.2,3.1-10.2,4.6-17.8,4.6c-8.1,0-14.4-1.3-19-3.8v-8.6
			c2.9,1.5,6.1,2.7,9.5,3.5c3.4,0.9,6.6,1.3,9.7,1.3c4.8,0,8.6-0.8,11.2-2.3c2.6-1.5,3.9-3.9,3.9-7.1c0-2.4-1-4.4-3.1-6.1
			c-2.1-1.7-6.1-3.7-12.1-6c-5.7-2.1-9.7-4-12.1-5.5c-2.4-1.6-4.2-3.4-5.4-5.4s-1.8-4.4-1.8-7.2c0-5,2-8.9,6.1-11.8
			c4.1-2.9,9.6-4.3,16.7-4.3c6.6,0,13,1.3,19.3,4l-3.3,7.5c-6.1-2.5-11.7-3.8-16.7-3.8c-4.4,0-7.7,0.7-9.9,2.1
			c-2.2,1.4-3.3,3.3-3.3,5.7c0,1.6,0.4,3,1.3,4.2c0.8,1.2,2.2,2.3,4,3.3c1.9,1,5.4,2.5,10.7,4.5c7.3,2.6,12.1,5.3,14.7,8
			C408,43.4,409.3,46.8,409.3,50.9z"/>
	</g>
	<g>
		<g>
			<path class="st6" d="M463.6,51c-2.6,4.6-6.3,8.6-11.1,11.9c-4.8,3.3-10.3,4.9-16.4,4.9c-6.1,0-10.5-1.7-13.4-5
				c-2.9-3.3-4.3-7.5-4.3-12.5c0-4.3,0.8-9.7,2.4-16.1c1.6-6.4,3.8-12.1,6.7-17.2c0.2-0.4,0.9-1.7,2.2-4c1.3-2.3,2.8-4.1,4.4-5.3
				c1.6-1.2,3.3-1.8,5.1-1.8c0.8,0,1.6,0.2,2.2,0.6c0.7,0.4,1,0.9,1,1.6c0,0.2-0.2,0.6-0.7,1.3c-0.5,0.7-0.9,1.2-1.2,1.6
				c-3.1,3.7-5.6,7.4-7.5,11c-2.5,4.6-4.5,9.2-5.9,13.7c-1.4,4.5-2.1,9.4-2.1,14.8c0,7.1,4.3,10.7,13,10.7c4.1,0,7.8-1.2,11.3-3.5
				c3.5-2.3,6.3-5.2,8.3-8.6c2.1-3.4,3.1-6.5,3.1-9.3c0-3.2-1-5.9-3.1-8.3c-2.1-2.3-4.9-4.8-8.5-7.5c-2.3-1.7-4.1-3.1-5.1-4.2
				c-1.1-1.1-1.6-2-1.6-2.7c0-1.1,0.8-2,2.3-2.6c1.5-0.7,3.3-1,5.4-1c1.2,0,1.9,0.1,2.3,0.2c0.4,0.1,0.5,0.4,0.5,0.7
				c0,0.2-0.2,0.5-0.5,0.9c-0.3,0.4-0.5,0.7-0.5,1s0.9,1.2,2.7,2.7c3.6,3,6.6,6,9.1,9.1c2.4,3.1,3.7,6.7,3.7,10.8
				C467.5,42.3,466.2,46.4,463.6,51z"/>
			<path class="st6" d="M516.8,70.6c-0.9,0.8-2,1.2-3.3,1.2c-0.9,0-1.7-0.2-2.3-0.6c-0.6-0.4-0.9-1-0.9-1.7c0-3.7,0.3-9.4,0.8-17.2
				c0.5-8.3,0.8-15.2,0.8-20.7c0-5.3-0.2-9.7-0.5-13.1c-0.3-3.4-1.1-5.1-2.2-5.1c-3.1,0-6.4,3.8-10.1,11.4
				c-3.7,7.6-7.8,17.7-12.5,30.1l-2,5.4c-0.4,0.9-1,1.6-1.8,2.2c-0.9,0.5-1.7,0.8-2.6,0.8c-1.1,0-1.8-0.1-2.2-0.3
				c-0.4-0.2-0.6-0.7-0.7-1.6l-1.1-11.1l-2-19.5c-0.6-7.8-1.4-14.5-2.3-20.3c-0.3-1.4-0.4-2.4-0.4-3.1c0-1.4,0.6-2.5,1.8-3.3
				c1.2-0.9,2.5-1.3,4.1-1.3c0.9,0,1.6,2.2,2,6.5c0.4,4.3,0.8,11.3,1.3,21l0.5,7.2c0.7,9.1,1.1,14.9,1.2,17.3
				c0.3-0.5,0.5-1.2,0.7-1.8c0.2-0.7,0.5-1.4,0.9-2.2c4.9-12.6,9.5-23.2,13.8-31.6c4.3-8.4,8.4-12.7,12.4-12.7
				c2.8,0,4.7,2.4,5.8,7.1c1,4.7,1.7,10.8,2,18.2c0.3,8.2,0.4,20.2,0.4,36C518.2,68.9,517.7,69.8,516.8,70.6z"/>
			<path class="st6" d="M582.8,34.3c0,1.6-1.2,5.2-3.6,10.7c-2.4,5.5-6,10.6-10.8,15.3c-4.8,4.7-10.8,7-17.8,7
				c-5.8,0-10.6-1.8-14.5-5.4c-3.9-3.6-5.8-9.2-5.8-16.7c0-7,1.6-14,4.9-20.9c3.3-6.9,7.5-12.6,12.7-16.9c5.2-4.4,10.7-6.6,16.3-6.6
				c3.3,0,6.2,0.7,8.5,2.2c2.3,1.5,3.5,3.6,3.5,6.4c0,3.2-1.8,6.2-5.4,9.2c-3.6,3-8.2,5.6-13.9,7.9c-5.7,2.3-11.6,3.9-17.6,4.9
				c-1.1,4.2-1.6,8.2-1.6,12.2c0,5.2,1.2,9.3,3.7,12.2c2.5,2.9,6,4.3,10.6,4.3c7,0,12.6-2.5,16.9-7.5c4.3-5,7.9-10.6,10.8-16.8
				c0.2-0.4,0.5-1.1,0.9-2.1c0.5-1,0.9-1.6,1.2-1.6C582.5,32.3,582.8,33,582.8,34.3z M567.7,7.6c-1.5-0.8-3.2-1.2-5.2-1.2
				c-3.4,0-6.7,1.1-9.9,3.4c-3.2,2.3-5.8,5-7.9,8.1c-2.1,3.2-3.5,6-4.1,8.4c4.2-0.5,8.5-1.6,13.1-3.5c4.6-1.9,8.5-4,11.6-6.2
				c3.1-2.3,4.7-4.1,4.7-5.6C569.9,9.6,569.2,8.4,567.7,7.6z"/>
		</g>
	</g>
	<path class="st2" d="M110.5,19.2l-2.6,10.2c2.8,7.7,1.7,16.6-3.8,23.4c-8.3,10.3-23.5,12-33.8,3.6s-12-23.5-3.6-33.8
		c5.5-6.8,14-9.8,22.1-8.7l9.4-4.7c-12.6-5.7-28-2.4-37.1,8.9C50.2,31.5,52.3,51.2,65.8,62s33.1,8.7,43.9-4.7
		C118.8,46,118.7,30.3,110.5,19.2z"/>
	<polygon class="st6" points="83.8,39.7 93.4,56.5 104.2,14.3 65.2,33.8 	"/>
</g>
</svg>
