<svg id="Graphic_Alexpmez_icon" data-name="Graphic Alexpmez icon" xmlns="http://www.w3.org/2000/svg" viewBox="0 0 1881.79 687.29"><defs><style>.cls-1{fill:#bec7af;}</style></defs><title>img-6-escambray-logo</title><path class="cls-1" d="M488.2,409.7V285.2l-16.6-3V267.5H587.1l2.9,36.8H573l-7.3-21.7H523.5v54.2H550l3.9-17.5h15.2v53.1H554l-3.7-18.7H523.6v56h47l13-27.9,17.8,5L596,426.3H471.9v-14Z" transform="translate(0 -2.5)"/><path class="cls-1" d="M612.5,378.3H632l5.3,25.7c1.7,2,4.8,3.8,9.2,5.2a49.51,49.51,0,0,0,15.1,2.2c8.8,0,15.3-1.8,19.5-5.5s6.3-8.8,6.3-15.5a19.07,19.07,0,0,0-4-12,38.73,38.73,0,0,0-11.3-9.4c-4.8-2.8-11.5-6.1-20-10a100.06,100.06,0,0,1-28.9-19.3c-7.9-7.7-11.8-17.9-11.8-30.4a38.3,38.3,0,0,1,6.2-21.1c4.1-6.4,10.4-11.4,18.7-15.2s18.6-5.7,30.7-5.7a105.35,105.35,0,0,1,19.5,1.6c5.7,1.1,11.6,2.4,17.7,4a61,61,0,0,0,7.9,1.8l-1.4,36.8h-19l-5.1-24.7c-1-1.3-3.3-2.5-6.8-3.5a39,39,0,0,0-11.7-1.6c-7.9,0-13.8,1.7-17.5,5.2s-5.6,8.1-5.6,14a18.67,18.67,0,0,0,4.6,12.6,47,47,0,0,0,11.7,9.6c4.8,2.8,11.7,6.4,20.8,10.8a189.86,189.86,0,0,1,20.2,11.3,54,54,0,0,1,14.6,14.4A35.11,35.11,0,0,1,723,380a44.7,44.7,0,0,1-5.8,22c-3.9,7-10.3,12.9-19.3,17.5s-20.6,6.9-35,6.9a115,115,0,0,1-21.9-2c-6.6-1.3-13.6-3-20.7-5.1a54.12,54.12,0,0,0-9.5-2.4Z" transform="translate(0 -2.5)"/><path class="cls-1" d="M739.3,304.7a70.47,70.47,0,0,1,28.2-27.8c12-6.4,25.5-9.6,40.6-9.6a156.12,156.12,0,0,1,18.2,1c5.9.7,12.6,1.7,19.9,2.9,5.8.9,9.4,1.4,11,1.6l-2.5,45.5H832.4l-7.3-30.6c-1.2-1.6-3.4-2.8-6.6-3.8a44.67,44.67,0,0,0-12.9-1.5,28.68,28.68,0,0,0-19.3,7c-5.5,4.7-9.7,11.6-12.7,20.9s-4.5,20.7-4.5,34.2a131.16,131.16,0,0,0,4.1,34.1c2.7,10,7,18,12.7,23.8a28.65,28.65,0,0,0,21.3,8.7c5.4,0,9.7-.6,12.7-1.9a17.81,17.81,0,0,0,7.1-4.8L837,382l20.2,1.9-4,34.4a41.45,41.45,0,0,0-6.3,1c-2,.5-4.5,1.2-7.7,2-5.4,1.6-10.4,2.8-15.1,3.7a95.45,95.45,0,0,1-17.5,1.3c-16.9,0-31.2-3.2-42.8-9.5a61.26,61.26,0,0,1-26.2-27.1c-5.8-11.8-8.8-25.8-8.8-42.2C729.1,331.1,732.5,316.8,739.3,304.7Z" transform="translate(0 -2.5)"/><path class="cls-1" d="M877.8,409.6,926,267.5h36.8l48.5,142.3,12.1,2.6v14H957.3v-14l15-2.7-7.5-25.8H912.3L905,410.1l16.6,2.3v14H865.3l-.2-14Zm82.5-41.8-18.9-63.6-3.2-14.5L935,304.2l-18,63.6Z" transform="translate(0 -2.5)"/><path class="cls-1" d="M1053.9,409.7l14.5-124.6-21-2.9V267.5h69.1l27.2,92.4,3.9,20.2,3.4-20.2,22.9-92.4h69.8v14.7l-22.6,3,18.6,124.4,17.7,2.7v14h-71.5v-14l17.6-2.6-10.8-92-4.1-38.2-6.2,29.5-28.7,111.2h-25.6l-33.7-103.4-9.2-37.9-2.5,38.7-6.8,92,21.2,2.7v14h-61.5v-14Z" transform="translate(0 -2.5)"/><path class="cls-1" d="M1282.8,409V286l-16.1-2.8V267.4h66.6c15,0,26.9,1.4,35.6,4.1s14.9,6.7,18.6,11.8,5.5,11.5,5.5,19.2a37.81,37.81,0,0,1-4.4,18.3,35.43,35.43,0,0,1-12.1,13.1,45,45,0,0,1-17.6,6.6c9,0,17,1.4,23.7,4.3a34.59,34.59,0,0,1,15.8,12.7c3.8,5.6,5.6,12.2,5.6,19.9q0,48.75-68.4,48.8h-69.2V411.6Zm51.8,3.3c10.9,0,18.7-2.7,23.6-8.2s7.4-13.3,7.4-23.6c0-7.1-1-12.7-3.1-16.9a19.32,19.32,0,0,0-9.5-9.2c-4.3-1.9-9.9-2.9-16.8-2.9h-18.6v58.8C1319.9,411.7,1325.5,412.3,1334.6,412.3Zm-.1-76.8c8.3,0,14.3-2.5,18.1-7.4s5.6-12.1,5.6-21.6c0-8.8-2-15.3-6.1-19.3s-10.6-6.1-19.8-6.1c-2.2,0-4.8.2-7.9.5a58.41,58.41,0,0,0-6.6.9v52.7C1320.4,335.4,1326,335.5,1334.5,335.5Z" transform="translate(0 -2.5)"/><path class="cls-1" d="M1429.3,409.7V286l-15.6-2.9V267.5h68.2c15,0,27,1.5,35.9,4.4s15.3,7.4,19.3,13.5,5.9,14.1,5.9,24a48.09,48.09,0,0,1-3.4,17.8,45.07,45.07,0,0,1-10.3,15.7,40.49,40.49,0,0,1-16.9,10,30.45,30.45,0,0,1,11.4,8.5,74.34,74.34,0,0,1,8.9,12.7c2.5,4.6,5.2,10.1,8.2,16.5s5.5,11.2,7.3,14.2,3.7,4.8,5.6,5.3l6.6,2.3v14h-40.6c-2.2,0-4.3-2.3-6.5-6.8s-5-11.7-8.6-21.5c-2.6-7.5-5-13.6-6.9-18.5a101.48,101.48,0,0,0-6.5-13.2c-2.4-3.9-4.8-6.5-7.4-7.8h-19.4V410l19,2.5v14h-70.6v-14Zm70-73.8c4.2-5.6,6.4-14.2,6.4-25.6,0-9.8-2.1-17.2-6.4-22s-11.3-7.3-21.1-7.3a60.23,60.23,0,0,0-13.6,1.2v61.6c1.1.3,4,.5,8.8.5h7.9Q1492.85,344.45,1499.3,335.9Z" transform="translate(0 -2.5)"/><path class="cls-1" d="M1584.3,409.6l48.2-142.2h36.8l48.5,142.3,12.1,2.6v14h-66.1v-14l15-2.7-7.5-25.8h-52.5l-7.3,26.2,16.6,2.3v14H1572l-.2-14Zm82.5-41.8-18.9-63.6-3.2-14.5-3.2,14.5-18,63.6Z" transform="translate(0 -2.5)"/><path class="cls-1" d="M1769.2,409.7v-47l-44.3-77.6-12.5-3V267.4H1779v14.7l-14.1,3,24.9,50.2,4.8,13.5,5.3-13.3,22.9-50.5-16-2.9V267.4h54v14.7l-13.3,2.7-41.1,77.9v46.9l22.6,2.7v14h-81.7v-14Z" transform="translate(0 -2.5)"/><g id="Color_Fill_1" data-name="Color Fill 1"><path class="cls-1" d="M0,507.39,6.39,485.9c2.13-7.57,7.5-13.2,10.5-17,3.8-4.8,11-6.4,18.5-8,1.8-.4,3.7-.8,5.6-1.3,6-1.5,9.1-7.6,10.1-9.9v-.1c-1.1-3-2.8-8,.1-10.9a19.36,19.36,0,0,0,3.2-5.1c1.8-3.6,4.1-8.2,9.7-9.5-.4-.8-.8-1.7-1.2-2.5a158.6,158.6,0,0,1-8.1-18.3c-6.2-18-10.9-43.8-10.6-50.3-.1-1.1.4-2.5,2.6-3.4a4.88,4.88,0,0,0,.7-.3c-3.4-4.3-4.7-11.2-5.5-15.2-.1-.5-.2-1-.3-1.4-2.4-2.4-2.2-6.7-1.4-13.1,1.2-10.7,4.5-17.8,8.4-26,5.2-10.9,11.6-24.5,16.1-53v-.3l.1-.3c13.8-38.8,52-130.7,109.4-147,1.9-.7,6.2-.7,20-.4,4.7.1,9.6.2,13.6.2h.3c2.8.3,6.8-2.3,10.3-4.6a23.92,23.92,0,0,1,2.1-1.3c-5.9-.1-13.3-.4-20.2-1.1-15.8-1.6-19.3-4.1-20.7-6.4-3.2-5.3-2.4-8.6-1.4-11.2l.3-.9.3-.4c8.7-10.3,27.1-15.4,40.6-19.1,5.8-1.6,12.9-3.5,14.7-5,.1-4.8.7-20.4,1-25.2.5-7.6,16.1-15.1,27.4-15.1h56c12.3,0,20.9,6,25,11.5,2.2,3.1,2.4,6.8,2.8,13.7.2,3.1.4,7,.8,11.8v.4c-.3,5.8,9,11,18.9,16.6,13.9,7.8,31.3,17.5,33.1,35l.1.6-.2.6c-.8,2.6-3.7,3.5-11.8,4-4.7.3-11.1.3-19.1.2-10.3-.2-20.6-.7-24.9-.9-1.1,2.7-1.3,3.4-.2,8.6a18.64,18.64,0,0,1,1.6,4.3,44.71,44.71,0,0,1,1.6,8.9v.5l-.1.5c-1.7,6-5.1,6.3-8.1,6.1a4.48,4.48,0,0,0-3.1.5c-1.5,1-2.9,4.1-4,6.6-.5,1.3-1.1,2.5-1.6,3.6a10.34,10.34,0,0,0,2.1-1.1c1.6-1.3,10.7-8.7,17-10.5a42.36,42.36,0,0,1,9.8-1.1c1.8,0,3,1.2,5.6,3.8,2.5,2.4,7,6.9,10,7.2,1-.3,2.3-.7,3.7-1.1.6-.2,1.1-.3,1.7-.5l-5.3-.8,1.5-14.7,1.7-.7c2.2-.8,5.6-.3,6.6-.1l.4.1,4,2a54.94,54.94,0,0,0,8.7.8l1-4.1,34.9,2.1,2.9-3.9h11.7l.7,2.1a10.37,10.37,0,0,1,.3,1.2,26.36,26.36,0,0,0,1,3.1c10.7,1.9,25.5,1.4,42.5.8,19.8-.7,42.1-1.5,62.9,1.6,2.4-3.8,3.6-4.4,8.3-4.7l1.6-.1,1,1.2c1.1,1.4,4.1,2.6,5.8,3l.7-1.4,1.1-.4c3-1.1,5.5-.2,7.3.4a4.6,4.6,0,0,0,1.3.4l2.5.4v1.9l22.1,2.5a11,11,0,0,1,4.6-1.9l2.2-.3.9,2a14.51,14.51,0,0,0,1,1.8,13.41,13.41,0,0,1,1.7,3.4c23.8.5,135.6,8.7,201.9,13.6,2.8.2,4.5.3,4.9.4l1.7.1,1,2,8.9.7c.6-2,1.1-4.2,1.2-4.8l.1-2.9h1.9v-.6l2.5-.4a18.24,18.24,0,0,1,4,.3,43.49,43.49,0,0,0,5.5.6h3v9h3v3.1c1.3,2.4,1.2,5.8,1,8.8v2.8l4,.8V176l-1.9.7a1.42,1.42,0,0,1-.6.2,12.53,12.53,0,0,1-4.1.9l-1.5.2-1-1.2c-1.9-2.2-7.1-2.1-12.1-2h-3.9l-28.2-1.8-1,6.8h-14v-6.7a13.22,13.22,0,0,1-5.4-1.7l-1.2-.6h-2.4V173l-3.1-.2c-33.9-1.7-176.3-8-183.9-8h-.1l-23.2-.9.9,4.3-3.1.5a125.92,125.92,0,0,1-14.7,1l-1.7.1c-8.7.3-47.2,8.5-49.4,8.9-3,.8-6.2.6-9.3.4a20.55,20.55,0,0,0-6.7.2,695.15,695.15,0,0,1-79,73.8c-6.8,5.5-11.9,9.7-14.4,12.4,5.7,21.4,5.8,33.4,6,43.1.1,6.1.2,11.3,1.6,17.4l.2.6-.1.6c-1.3,6.7-2.8,18.3-2.1,20.5l.1.3a82.63,82.63,0,0,0,6.4,18.8,38.84,38.84,0,0,1,3.6,10.3v.1a23.78,23.78,0,0,1-.3,6.3,62.17,62.17,0,0,0-.6,9.1c.2,6.1,6,35.7,6.8,38,1.4,3.7,1.3,7.4,1.2,11.1,0,1.6-.1,3.1,0,4.5,1.2,4.4,1.7,13.3,1.9,18.5l41.3-12.3c10.8-7.2,40.7-8.3,63.8-5.2,8.5,1.2,22.4,2.2,29.8,2.8l1.1.1,6,.6c5.2.6,10.2,1.1,12.3-.1,17.3-9.9,75.5-.5,81.4,1.2,3.7,1.1,7,2.1,10.1,3,28.2,8.3,34.2,10.1,56.6,25.2a182.57,182.57,0,0,0,19.6.5c10.6,0,21.5-.1,32.1,2.5,1.6.4,3.7,1,6.1,1.7,7.8,2.3,19.5,5.8,26,4.5a23.87,23.87,0,0,0,6.4-2.4c6.2-2.8,13.9-6.4,32-2.6,12.9,2.7,16.1,8.8,17.8,12a4.05,4.05,0,0,0,.5.9c.8-.3,2.7-1.3,6.7-4.3,12.7-9.2,76.2-13.7,95.4-14.8,30-1.8,83.2-3.3,92.4,2.3,12.9,7.9,21.4,11.3,48.3,9.7,18.1-1,27.4,2.9,33.6,5.4,2.7,1.1,4.6,1.9,5.9,1.7,7.2-1.1,22.6-4.9,29.7-6.8,8.7-2.2,15.5-1.1,20.9-.1,8.3,1.4,11.7,2,15.7-10.4,3.3-10.2,8.7-9.5,13.5-8,3.6,1.1,5.6,1.7,8.6-3.8,5.4-9.8,26.1-12.3,48.7-14.1,8.7-2.6,16.8,3,24.6,8.4,6.5,4.5,12.7,8.7,18.5,8,32.6-4.1,67.1,13.3,80,20,5.4-2.1,11.5-4.7,17.9-7.4,35.2-14.8,83.4-35.1,127.5-26.7,11.3,2.2,20.3,7.5,30.6,13.7,8.8,5.3,18.8,11.3,32.1,16.1a154.26,154.26,0,0,0,18.4,5.8,146.89,146.89,0,0,1,19.3,6.3c4.9,1.8,11.9-2.2,19.5-6.4,8.4-4.8,17.2-9.7,25.8-8.3,5.5.9,14.3-3,22.1-6.5,8.2-3.7,14.7-6.6,19.2-5.2l.3.1c6,2.6,8.1,7.3,10.1,11.4,9.28,15,25.66,3.49,30,3.59h102.44v6.1h-93.12c-12.88,0-32.83,13.1-44.88-6.7-1.7-3.5-3.1-6.6-6.9-8.3-2.5-.6-9.3,2.5-14.9,5-8.5,3.8-18.2,8.2-25.5,7-6.5-1.1-14.3,3.3-21.8,7.6-8.8,5-17.1,9.6-24.5,6.8-10.7-4.1-14.6-5.1-18.7-6.1a152.8,152.8,0,0,1-18.9-6c-13.8-5-24.1-11.2-33.1-16.6-9.8-5.9-18.4-11-28.7-13-42.3-8.1-89.5,11.8-124,26.3-7,2.9-13.6,5.7-19.4,7.9l-1.3.5-1.2-.6c-11.3-5.9-45.8-24-77.6-20-8.1,1-15.5-4.1-22.6-9s-13.7-9.4-19.7-7.5l-.3.1h-.3c-14,1.1-40,3.2-44.3,11.1-5.3,9.8-11.7,7.9-15.6,6.7-3.4-1-4.3-1.3-6.1,4.1-5.2,16.2-11.9,16.2-22.4,14.5-5.2-.9-11-1.9-18.4,0-7.7,2-22.8,5.7-30.3,6.9-3,.5-5.7-.7-9.2-2.1-5.7-2.4-14.2-5.9-30.9-5-28.4,1.6-38-2.2-51.7-10.6-4.9-3-39.5-4.4-88.9-1.4-47.8,2.8-84.9,8.3-92.2,13.7-6.5,4.8-9.3,6-11.8,5.4-2.3-.6-3.3-2.5-4.2-4.1-1.5-2.9-3.6-6.8-13.7-8.9-16.2-3.4-22.7-.4-28.3,2.2a34.08,34.08,0,0,1-7.8,2.8c-7.9,1.5-20-2.1-28.8-4.7-2.3-.7-4.3-1.3-5.8-1.6-9.8-2.4-19.9-2.4-30.6-2.3-6.9,0-14,.1-21-.6l-.8-.1-.6-.4c-22.1-15-27.9-16.7-55.6-24.9-3.1-.9-6.5-1.9-10.1-3-6.5-1.9-62.3-10-76.7-1.7-3.8,2.2-9.2,1.6-15.9.9l-5.8-.6-1.1-.1c-7.5-.6-21.4-1.7-30.2-2.9-24.5-3.3-52-1.3-60,4.4l-.4.3-49.8,14.9-.1-3.9c-.1-4.4-.6-16.8-1.9-21.2l-.1-.3v-.3a46.84,46.84,0,0,1,0-5.3c.1-3.2.2-6.2-.8-8.8-1.3-3.3-7-33.5-7.2-40a59.5,59.5,0,0,1,.7-10,33.79,33.79,0,0,0,.4-4.6,36.16,36.16,0,0,0-3.2-8.9,90.09,90.09,0,0,1-6.8-19.9c-1.3-4.5,1.2-19.4,1.8-22.7-1.5-6.5-1.6-11.9-1.7-18.1-.1-9.6-.3-21.6-6.2-43.2l-.4-1.4.9-1.2c2.4-3.2,8-7.7,16.3-14.5a685.05,685.05,0,0,0,78.8-73.7l.4-.5.6-.3c3-1.3,6.6-1.1,10-.9a22.41,22.41,0,0,0,7.4-.3h.2c1.7-.4,41.1-8.8,50.5-9.1l1.7-.1c3.7-.1,7.6-.2,10.8-.5l-1.1-5.6,30.7,1.1c8.2,0,141.7,6,180.9,7.9V165h14v1h7v8h2.4l1-7.2,31.7,2.07,5.41.13c5.73-.1,11.66-.22,15.48,2.9v-3.4l-5-1V158h1.1a13.94,13.94,0,0,0-.3-4h-3.6v-9.2c-1-.1-2-.3-3-.4v.6h-2.5c-.6,2.7-1.7,5.9-1.7,5.9l-.7,2.2-17-1.3-1-2c-.8-.1-1.9-.1-3.2-.2-117.5-8.8-189.6-13.6-203.3-13.6h-3.2l-.3-2.6a7,7,0,0,0-1.3-3.6v-.1c-.2.2-.4.3-.5.4l-1,1-1.4-.1-28.7-3.3V125a5.83,5.83,0,0,0-2-.5l-.9,1.8-1.2.4c-3.2,1.1-8.9-1.1-12.1-3.7a4.17,4.17,0,0,0-1.1.2,22,22,0,0,0-2.2,3.3l-1.1,1.7-2-.3c-20.7-3.3-43.5-2.5-63.7-1.8-18.2.6-33.9,1.2-45.5-1.2l-1.5-.3-.6-1.4A24.32,24.32,0,0,1,443,119h-4.2l-3.1,4.1-33.1-1.9-1,3.9h-2.3a82.22,82.22,0,0,1-12.5-1l-.4-.1-4-2a5.7,5.7,0,0,0-1.3-.1l-.5,4.7,12.7,2v2.3a3.39,3.39,0,0,1-2,4.1c-3.1,1.1-8,2.6-12,3.8l-4.1,1.2-.4.1h-.5c-5.4,0-10.7-5.2-14.6-9-.7-.7-1.6-1.6-2.1-2a38.41,38.41,0,0,0-7.5.9c-4.5,1.2-12.3,7.2-14.9,9.4l-.3.2a24,24,0,0,1-9.1,3.4l-.5.1-.5-.1a4.62,4.62,0,0,1-3-2.1,5.54,5.54,0,0,1-.4-4.8l.5-1.5,1.3-.4a19.82,19.82,0,0,0,2.2-4.4c1.5-3.5,3.2-7.4,6.3-9.4a10.18,10.18,0,0,1,6.7-1.5,5.58,5.58,0,0,0,1.3,0,3.45,3.45,0,0,0,.6-1.4,32.5,32.5,0,0,0-1.9-8.6h-.5l-.5-2.4c-1.6-7.4-1.2-9,.4-13,.2-.5.4-1.1.7-1.7l.8-2.1,2.2.1c21.4,1.2,45.2,1.6,51.5.3-2.6-13.2-17-21.2-29.7-28.4-12-6.7-22.4-12.5-22-21.9-.4-4.8-.6-8.7-.8-11.8-.3-5.7-.5-8.9-1.6-10.5-3.2-4.4-10.1-9.1-20.1-9.1h-56c-10.9,0-21.3,7.3-21.4,9.5-.3,5.2-1,22.8-1,25.8v.5l-.2.5c-1.3,3.9-6.8,5.5-19,8.8-12.5,3.4-29.6,8.1-37.2,16.8-.6,1.4-1,2.7.9,5.9,2.4,2.6,23.8,5,42.4,4.6l3.1-.1v8.4l-2.2.6c-1.6.4-4,2-6.2,3.5-4.3,2.8-9.2,6-14,5.6-4.1,0-8.9-.1-13.6-.2-6.7-.1-15.9-.4-17.8,0l-.3.1c-54.6,15.4-91.8,105-105.4,143.1-4.7,29.2-11.3,43.1-16.6,54.3-3.8,8-6.8,14.4-7.9,24.1-.2,1.9-.8,6.9-.3,8.1,1.2.8,1.5,2.6,1.9,4.6.6,3.3,2.2,11.1,5.2,13.6l1.3,1.1-.2,1.7a7.22,7.22,0,0,1-4,5.4c.4,5.7,3.9,27.8,10.3,46.8a141.71,141.71,0,0,0,7.8,17.5c3.3,6.5,3.8,7.7,2.6,9.5l-1,1.4-1.8-.1c-4.8-.3-6.1,1.9-8.4,6.5a30.6,30.6,0,0,1-4.1,6.5q-.15,1.05,1.2,4.8a7.67,7.67,0,0,1,.5,1.7l.1.8-.3.7c-.2.5-4.2,12-14.6,14.7-1.9.5-3.9.9-5.7,1.3-6.5,1.4-12.6,2.8-15.1,5.9-4.4,5.5-8.6,9.8-9.5,15L6.52,507.39ZM357.09,128.6Z" transform="translate(0 -2.5)"/></g><path class="cls-1" d="M386.29,207.6h-.2c-2-.1-4.1-.4-6.2-.6-1-.1-2-.3-3-.4l-2.7-.3v-2.7a16.41,16.41,0,0,1,.2-2.3,8.67,8.67,0,0,0,0-2.8c-1.4-4.5-10-9.5-13.6-11.7a22.5,22.5,0,0,1-2.9-1.8c-2.4-1.8-5.2-1.7-8.4-1.5-.9,0-1.9.1-2.8.1-4.5,0-14.4-2-14.4-8a4.05,4.05,0,0,1,1.7-3.3c3.8-3,15.6-4.8,17.5-4.4,0,0,4.1,3.8,11.9,1.9.8-.4,3-2.4,4.4-3.5a46.53,46.53,0,0,1,3.9-3.1c2.5-1.6,5.5.2,8.2.9.5.1.9.2,1.3.3a12,12,0,0,0,1.1-1.2L386,153.15s23,10.05,23.26,10.25l.3-.2s.5-8,1.1-8.6,1.1-2.4,1.9-2.9,17.8,4.1,18,6a8.19,8.19,0,0,1-.3,3.3,25.06,25.06,0,0,1-1.5,6.7h3.9l-1.5,4.1a19.24,19.24,0,0,0-.8,5.9h16.9l.7.4a3.52,3.52,0,0,1,1.7,3,3.56,3.56,0,0,1-1.7,3.1c-7.8,4.8-32.8,19.9-33,20l-.4.2c-3.1,1.3-9.8.9-12.9.1-.1,0-4.7-1.3-8.2-.6a8.23,8.23,0,0,0-3.2,1.9C388.89,206.7,387.79,207.6,386.29,207.6Zm-5.9-6.7h.2c1.7.2,3.5.4,5.1.6.2-.1.5-.4.7-.5a14.56,14.56,0,0,1,5.7-3c4.9-1,10.6.6,10.9.6a24.57,24.57,0,0,0,8.9.2c2-1.2,15.6-9.4,25.2-15.3h-12.9l-.1-2.9a57.24,57.24,0,0,1,.2-6.1h-4.1l1.1-6.3c1-.9,1.6-6.81,1.6-6.81a25.73,25.73,0,0,1-6.13-1.87c-.3.3-.57,4.58-1,5.88a13.65,13.65,0,0,1-1.6,3l-1.7.8c-2.4,1.2-20.93-7.93-23-8.63,0,0-1.17,3-2.17,5.23a21.23,21.23,0,0,1-3.8,4.9l-1.6-.2c-1.2-.1-2.5-1.5-3.7-1.8a12.81,12.81,0,0,0-3.4-.6c-.7.5-2,1.6-3.2,2.6a13.49,13.49,0,0,1-7.3,3.5c-9.1,2.3-12.7.3-14.9-1.4a18.35,18.35,0,0,0-9.5,3.4c1.4,2.1,4.4,1.4,6.7,1.4a21.75,21.75,0,0,0,2.5-.1c3.7-.2,8.3-.4,12.4,2.8.3.2,1.3.8,2.2,1.4,4.9,2.9,14.2,8.4,16.3,15A8.86,8.86,0,0,1,380.39,200.9Zm-16.9-31.2Zm11.2-1.5Z" transform="translate(0 -2.5)"/><path class="cls-1" d="M221.49,296.3a7.45,7.45,0,0,1-1.8-.2,1.76,1.76,0,0,0-.6-.1h-4.6l1.9-4.2c3.1-6.9,6.1-11.3,8.7-13.1,2.5-3.2,8.5-10.1,21.3-11.7,6.5-4.3,18.3-13.1,19.8-15.7a21.2,21.2,0,0,0,.3-3.3,21.41,21.41,0,0,1,.7-4.8c.6-2.2,2.6-4.8,5.8-8.9,1.4-1.8,2.9-3.8,4.5-6.1.9-1.2,1.7-2.4,2.5-3.7,3.8-5.6,6.5-9.6,10.1-9.6,6,0,9.9,3,14,6.2.6.5,1.2.9,1.8,1.4,2.1,1.6,22,11.5,33,14.5l.7.2.5.5c2,1.8,2.5,3.1,2.1,5.3a3.08,3.08,0,0,0-.1,1v2.2l-2.1.7c-35,11-74.2,27.5-113.3,47.7-1.7.9-2.2,1.1-2.4,1.2A7.9,7.9,0,0,1,221.49,296.3Zm68.8-75.3c-1.2.8-3.7,4.5-5.4,6.9-.9,1.3-1.8,2.6-2.6,3.8-1.7,2.3-3.2,4.4-4.6,6.2-2.1,2.7-4.4,5.8-4.7,6.8a19.48,19.48,0,0,0-.5,3.7c-.1,1.1-.2,2.4-.4,4-.9,5.6-22.1,19.4-23,20l-.6.4-.7.1c-11.4,1.2-16.2,7.3-18.3,10l-.4.5-.6.3c-.7.3-2.1,2-3.9,5.2,38-19.6,76.1-35.7,110.4-46.7-11.8-3.7-30-12.8-32.6-14.8a23.07,23.07,0,0,0-1.9-1.4C296.79,223.2,294.09,221.1,290.29,221Z" transform="translate(0 -2.5)"/><path class="cls-1" d="M342,465h-2.7c-4.5,0-15.3-2.3-21.4-4h-10.6v-1h-14v-1.5c-4.8-.5-11.7.8-17.2,2.4l-.4.1-43.3,1.1-.2-2.9c-.1-1.8-.2-3.7-.2-5.4a86.16,86.16,0,0,0-.7-10.3c-2.3-14.7-21.8-32-22-32.2l-.6-.6-.2-.8a6.38,6.38,0,0,0-.2-.7l-.1-.1-2.9-2.9,3.7-1.9c.4-.2,43.5-21.8,68.6-41.9,47.6-38.2,54.3-44.7,55.1-45.8.5-1,1.8-2.3,4.6-1.6h3v3a371.87,371.87,0,0,1-2.1,42.9c-.9,9.6-1.6,17.2-.9,21.8h0c.4,3.3,1,6.9,1.7,10.7,2.7,16.7,6.5,39.5,3.4,69Zm-28.7-10h5.4l.4.1a148.07,148.07,0,0,0,17.5,3.7c2.5-27.3-.9-47.9-3.6-64.6-.6-3.8-1.2-7.5-1.7-10.8h0c-.7-5.3,0-13.2.9-23.1.9-10.3,2.1-22.7,2.1-37-5.3,4.9-18.6,16.2-53,43.8-21.6,17.3-56.1,35.6-66.5,41,4.9,4.6,20.3,20,22.5,34.4a82.59,82.59,0,0,1,.8,11c0,.8.1,1.6.1,2.4l36.7-.9c4.7-1.3,15.4-3.8,22.3-1.9l2.2.6v.3h14v1Zm19.3-138.4a.1.1,0,0,1-.1.1A.1.1,0,0,0,332.59,316.6Z" transform="translate(0 -2.5)"/><path class="cls-1" d="M11.78,590.37v-49l-6.2-1v-4.83H29.26q8.37,0,13.3,2a13.27,13.27,0,0,1,7,5.68,18.87,18.87,0,0,1,2.09,9.34,20.14,20.14,0,0,1-3,11.09,19.21,19.21,0,0,1-8.31,7.15,28.54,28.54,0,0,1-12.13,2.46H23.86a19,19,0,0,1-2.8-.12v17.28l10.65.91v4.3H5.15v-4.3ZM38,564.92q3.77-3.75,3.77-12.52,0-6.8-3.31-9.79t-10.34-3H21v28.69a48.06,48.06,0,0,0,7.22.35A13.19,13.19,0,0,0,38,564.92Z" transform="translate(0 -2.5)"/><path class="cls-1" d="M64.91,590.33V541l-6.51-1.09v-4.4H99.52l1.1,12.52H95.54l-2.45-7.74H74.19v21.9H87l1.18-6.67h5.09v18.7H88.2l-1.14-7H74.19v23h21.7l4.46-10.34,5.05,1.5-2.33,14.17H58.28v-4.3Z" transform="translate(0 -2.5)"/><path class="cls-1" d="M111.81,590.34l19.45-54.82h9.39l19.61,54.82,5,.94v4.3H143.62v-4.3l6.43-.95-3.75-11.52H123.1l-3.59,11.52,6.75.95v4.3H106.84l0-4.3Zm32.87-16.54-8.44-25.52-1.74-6.53-1.74,6.6-8.09,25.44Z" transform="translate(0 -2.5)"/><path class="cls-1" d="M170.15,577.74h5.49l1.58,9.81a10.62,10.62,0,0,0,4.34,2.36,20.91,20.91,0,0,0,6.51,1q5.88,0,8.86-2.55a8.84,8.84,0,0,0,3-7.09,8.11,8.11,0,0,0-1.64-5.09,14.83,14.83,0,0,0-4.44-3.75,83.23,83.23,0,0,0-7.69-3.76,55.34,55.34,0,0,1-7.66-4.07,21,21,0,0,1-5.84-5.69,14,14,0,0,1-2.45-8.26,13.3,13.3,0,0,1,2.41-7.82,15.83,15.83,0,0,1,6.87-5.38,25.82,25.82,0,0,1,10.38-1.94,34.49,34.49,0,0,1,6.71.61q3.08.61,6.39,1.56,1.74.51,2.8.71l-.51,13.2h-5.29l-1.81-9.31a7.19,7.19,0,0,0-3.16-1.48,19.38,19.38,0,0,0-5.21-.67q-10.65,0-10.65,8.38a7.87,7.87,0,0,0,1.62,5,15.19,15.19,0,0,0,4.3,3.67q2.68,1.6,7.93,4.09a89,89,0,0,1,8.52,4.57,20.58,20.58,0,0,1,5.68,5.28,12.42,12.42,0,0,1,2.37,7.59,15.16,15.16,0,0,1-2.43,8.13,17.69,17.69,0,0,1-7.3,6.36A26,26,0,0,1,188,595.62a36.34,36.34,0,0,1-7.77-.77q-3.51-.77-7.3-2a21.68,21.68,0,0,0-3.43-.91Z" transform="translate(0 -2.5)"/><path class="cls-1" d="M217.29,590.34l19.45-54.82h9.39l19.61,54.82,5,.94v4.3H249.09v-4.3l6.43-.95-3.75-11.52h-23.2L225,590.33l6.75.95v4.3H212.32l0-4.3Zm32.87-16.54-8.44-25.52L240,541.75l-1.74,6.6-8.09,25.44Z" transform="translate(0 -2.5)"/><path class="cls-1" d="M280.72,590.37V540.93l-6.51-1v-4.38H289.8l26.56,38.79,4.18,7.81V540.89l-7.06-1v-4.38H333v4.38l-6.55,1v54.65H320L292.84,556l-6.16-10.73v45.06l7.54.95v4.3h-20v-4.3Z" transform="translate(0 -2.5)"/><path class="cls-1" d="M358.87,590.33V540.42H345.73l-3,16.69h-5.72l1.38-21.58h50l1.26,21.58H384l-3-16.69H368.38v49.92l11.17.95v4.3h-31v-4.3Z" transform="translate(0 -2.5)"/><path class="cls-1" d="M422.68,577.74h5.49l1.58,9.81a10.62,10.62,0,0,0,4.34,2.36,20.91,20.91,0,0,0,6.51,1q5.88,0,8.86-2.55a8.84,8.84,0,0,0,3-7.09,8.11,8.11,0,0,0-1.64-5.09,14.83,14.83,0,0,0-4.44-3.75,83.23,83.23,0,0,0-7.69-3.76,55.34,55.34,0,0,1-7.66-4.07,21,21,0,0,1-5.84-5.69,14,14,0,0,1-2.45-8.26,13.3,13.3,0,0,1,2.41-7.82,15.83,15.83,0,0,1,6.87-5.38,25.82,25.82,0,0,1,10.38-1.94,34.49,34.49,0,0,1,6.71.61q3.08.61,6.39,1.56,1.74.51,2.8.71l-.51,13.2h-5.29l-1.81-9.31a7.19,7.19,0,0,0-3.16-1.48,19.38,19.38,0,0,0-5.21-.67q-10.65,0-10.65,8.38a7.87,7.87,0,0,0,1.62,5,15.19,15.19,0,0,0,4.3,3.67q2.68,1.6,7.93,4.09A89,89,0,0,1,454,565.8a20.58,20.58,0,0,1,5.68,5.28,12.42,12.42,0,0,1,2.37,7.59,15.16,15.16,0,0,1-2.43,8.13,17.69,17.69,0,0,1-7.3,6.36,26,26,0,0,1-11.82,2.46,36.34,36.34,0,0,1-7.77-.77q-3.51-.77-7.3-2A21.68,21.68,0,0,0,422,592Z" transform="translate(0 -2.5)"/><path class="cls-1" d="M489.23,590.33V540.42H476.09l-3,16.69h-5.72l1.38-21.58h50L520,557.11h-5.64l-3-16.69H498.74v49.92l11.17.95v4.3h-31v-4.3Z" transform="translate(0 -2.5)"/><path class="cls-1" d="M533.05,590.41V541.2l-6.23-1v-4.67H550.1a39.28,39.28,0,0,1,12.79,1.7,13,13,0,0,1,7,5.11,16.15,16.15,0,0,1,2.15,8.75,18.14,18.14,0,0,1-1.4,7,17.14,17.14,0,0,1-4.06,5.92,15.69,15.69,0,0,1-6.33,3.66,12.49,12.49,0,0,1,3.35,3.06,37.56,37.56,0,0,1,3,4.42q1.38,2.35,3.39,6.06,2.37,4.46,3.81,6.65t2.7,2.51l3.08.95v4.26H567.89q-1.34,0-2.94-2.81T560.67,584q-2.8-6.29-4.81-9.93a12.88,12.88,0,0,0-4-4.87h-9.55v21.19l7.77.87v4.3H526.42v-4.3Zm26.06-29.07q2.82-3.3,2.82-9.86,0-5.61-2.9-8.72t-10-3.1a27,27,0,0,0-5.56.54l-1.22.18v24.16q1.26.1,4,.1h4.93A9.85,9.85,0,0,0,559.11,561.34Z" transform="translate(0 -2.5)"/><path class="cls-1" d="M587.53,541.13l-5.68-1v-4.59h22v4.59l-6.71,1v29.72q0,10.72,3.87,15.4T612,590.92q7,0,10.58-5.11t3.59-14.55V541.13l-6.51-1v-4.59h18.9v4.59l-5.84,1v29.79q0,8.29-2.8,13.83a18.53,18.53,0,0,1-7.69,8.21,23.22,23.22,0,0,1-11.29,2.66q-8.21,0-13.34-2.7a16.52,16.52,0,0,1-7.58-8.34q-2.45-5.64-2.45-14.59Z" transform="translate(0 -2.5)"/><path class="cls-1" d="M648,549.84a27.19,27.19,0,0,1,11-10.66,33.05,33.05,0,0,1,15.71-3.7,63.09,63.09,0,0,1,10.16.77q4.71.77,8.78,1.76l-.79,13.31h-6.08l-2.13-8.81a9,9,0,0,0-3.51-1.67,26.22,26.22,0,0,0-7.06-.74A18.71,18.71,0,0,0,664,542.84a18.16,18.16,0,0,0-6.85,8.17,31.88,31.88,0,0,0-2.47,13.24,40.62,40.62,0,0,0,2.07,13.22,22,22,0,0,0,6.35,9.75,15.52,15.52,0,0,0,10.52,3.7,25.27,25.27,0,0,0,6.67-.85,10.82,10.82,0,0,0,4.81-2.51V570.29l-9.67-.91v-5.09H699v5.09l-4.62.83v21.31a9.72,9.72,0,0,0-2.35.33q-1.32.34-3.29,1-4.18,1.3-7.81,2.05a40.11,40.11,0,0,1-8.09.75,30,30,0,0,1-15.39-3.79,25.39,25.39,0,0,1-10-10.45,35.16,35.16,0,0,1,.57-31.53Z" transform="translate(0 -2.5)"/><path class="cls-1" d="M708.9,549.84a27.19,27.19,0,0,1,11-10.66,33.05,33.05,0,0,1,15.71-3.7,63.09,63.09,0,0,1,10.16.77q4.71.77,8.78,1.76l-.79,13.31h-6.08l-2.13-8.81a9,9,0,0,0-3.51-1.67,26.22,26.22,0,0,0-7.06-.74,18.71,18.71,0,0,0-10.14,2.74A18.16,18.16,0,0,0,718,551a31.88,31.88,0,0,0-2.47,13.24,40.62,40.62,0,0,0,2.07,13.22,22,22,0,0,0,6.35,9.75,15.52,15.52,0,0,0,10.52,3.7,25.27,25.27,0,0,0,6.67-.85,10.82,10.82,0,0,0,4.81-2.51V570.29l-9.67-.91v-5.09h23.56v5.09l-4.62.83v21.31a9.72,9.72,0,0,0-2.35.33q-1.32.34-3.29,1-4.18,1.3-7.81,2.05a40.11,40.11,0,0,1-8.09.75,30,30,0,0,1-15.39-3.79,25.39,25.39,0,0,1-10-10.45,35.16,35.16,0,0,1,.57-31.53Z" transform="translate(0 -2.5)"/><path class="cls-1" d="M772.81,590.33V540.89l-6.51-1v-4.38h23.48v4.38l-7.62,1v49h19.93l4.81-13.57,5.29.91-2.68,18.27H766.18v-4.3Z" transform="translate(0 -2.5)"/><path class="cls-1" d="M824.88,590.33V541l-6.51-1.09v-4.4h41.12l1.1,12.52H855.5l-2.45-7.74h-18.9v21.9H847l1.18-6.67h5.09v18.7h-5.09l-1.14-7H834.15v23h21.7l4.46-10.34,5.05,1.5L863,595.58H818.25v-4.3Z" transform="translate(0 -2.5)"/><path class="cls-1" d="M896.89,590.34l19.45-54.82h9.39l19.61,54.82,5,.94v4.3H928.7v-4.3l6.43-.95-3.75-11.52h-23.2l-3.59,11.52,6.75.95v4.3H891.92l0-4.3Zm32.87-16.54-8.44-25.52-1.74-6.53-1.74,6.6-8.09,25.44Z" transform="translate(0 -2.5)"/><path class="cls-1" d="M957.41,549.84a27.19,27.19,0,0,1,11-10.66,33.05,33.05,0,0,1,15.71-3.7,63.08,63.08,0,0,1,10.16.77q4.72.77,8.78,1.76l-.79,13.31H996.2l-2.13-8.81a9,9,0,0,0-3.51-1.67,26.22,26.22,0,0,0-7.06-.74,18.71,18.71,0,0,0-10.14,2.74A18.16,18.16,0,0,0,966.5,551,31.88,31.88,0,0,0,964,564.25a40.62,40.62,0,0,0,2.07,13.22,22,22,0,0,0,6.35,9.75,15.52,15.52,0,0,0,10.52,3.7,25.27,25.27,0,0,0,6.67-.85,10.82,10.82,0,0,0,4.81-2.51V570.29l-9.67-.91v-5.09h23.56v5.09l-4.62.83v21.31a9.71,9.71,0,0,0-2.35.33q-1.32.34-3.29,1-4.18,1.3-7.81,2.05a40.11,40.11,0,0,1-8.09.75,30,30,0,0,1-15.39-3.79,25.39,25.39,0,0,1-10-10.45,35.16,35.16,0,0,1,.57-31.53Z" transform="translate(0 -2.5)"/><path class="cls-1" d="M1014.49,590.34l19.45-54.82h9.39l19.61,54.82,5,.94v4.3h-21.66v-4.3l6.43-.95L1049,578.81h-23.2l-3.59,11.52,6.75.95v4.3h-19.41l0-4.3Zm32.87-16.54-8.45-25.52-1.74-6.53-1.74,6.6-8.09,25.44Z" transform="translate(0 -2.5)"/><path class="cls-1" d="M1079.18,590.33V540.93l-7.22-1v-4.38h23.75v4.38l-7.22,1v49.44l7.34,1.07v4.18H1072v-4.3Z" transform="translate(0 -2.5)"/><path class="cls-1" d="M1111.36,590.37V540.93l-6.51-1v-4.38h15.59L1147,574.31l4.18,7.81V540.89l-7.06-1v-4.38h19.57v4.38l-6.55,1v54.65h-6.47L1123.47,556l-6.16-10.73v45.06l7.54.95v4.3h-20v-4.3Z" transform="translate(0 -2.5)"/><path class="cls-1" d="M1171.71,577.74h5.48l1.58,9.81a10.62,10.62,0,0,0,4.34,2.36,20.9,20.9,0,0,0,6.51,1q5.88,0,8.86-2.55a8.84,8.84,0,0,0,3-7.09,8.11,8.11,0,0,0-1.64-5.09,14.82,14.82,0,0,0-4.44-3.75,83.21,83.21,0,0,0-7.69-3.76,55.28,55.28,0,0,1-7.66-4.07,21,21,0,0,1-5.84-5.69,14,14,0,0,1-2.45-8.26,13.3,13.3,0,0,1,2.41-7.82,15.83,15.83,0,0,1,6.87-5.38,25.82,25.82,0,0,1,10.38-1.94,34.51,34.51,0,0,1,6.71.61q3.08.61,6.39,1.56,1.74.51,2.8.71l-.51,13.2h-5.29l-1.82-9.31a7.19,7.19,0,0,0-3.16-1.48,19.38,19.38,0,0,0-5.21-.67q-10.65,0-10.65,8.38a7.87,7.87,0,0,0,1.62,5,15.2,15.2,0,0,0,4.3,3.67q2.68,1.6,7.93,4.09a89,89,0,0,1,8.52,4.57,20.6,20.6,0,0,1,5.68,5.28,12.42,12.42,0,0,1,2.37,7.59,15.17,15.17,0,0,1-2.43,8.13,17.7,17.7,0,0,1-7.3,6.36,26,26,0,0,1-11.82,2.46,36.33,36.33,0,0,1-7.77-.77q-3.51-.77-7.3-2A21.72,21.72,0,0,0,1171,592Z" transform="translate(0 -2.5)"/><path class="cls-1" d="M1238.26,590.33V540.42h-13.14l-3,16.69h-5.72l1.38-21.58h50l1.26,21.58h-5.64l-3-16.69h-12.63v49.92l11.17.95v4.3h-31v-4.3Z" transform="translate(0 -2.5)"/><path class="cls-1" d="M1303.24,549.51a26.39,26.39,0,0,1,10.52-10.4,30.75,30.75,0,0,1,14.92-3.62,47.32,47.32,0,0,1,7.32.55q3.53.55,8,1.46l2.13.43-.75,14.41h-5.88l-2.21-9.78a6.06,6.06,0,0,0-3.35-1.71,28.17,28.17,0,0,0-6.63-.63,14.9,14.9,0,0,0-8.94,2.8,18.18,18.18,0,0,0-6.08,8.27,35.43,35.43,0,0,0-2.19,13.18,42.23,42.23,0,0,0,2,13.14,21.66,21.66,0,0,0,6,9.67,14.71,14.71,0,0,0,10.2,3.66q6.35,0,9.12-2.83l3.43-8.07,5.6.73-1.74,11.81a11.81,11.81,0,0,0-2.05.33q-1,.25-2.57.79a41,41,0,0,1-5.13,1.43,30.64,30.64,0,0,1-6,.5,33.13,33.13,0,0,1-16-3.6,23.76,23.76,0,0,1-10.06-10.38,35.63,35.63,0,0,1-3.43-16.26A31.62,31.62,0,0,1,1303.24,549.51Z" transform="translate(0 -2.5)"/><path class="cls-1" d="M1356.43,549.88a26,26,0,0,1,9.77-10.65,26.52,26.52,0,0,1,14-3.75q8.44,0,14.25,3.6a22.17,22.17,0,0,1,8.7,10.18,38.35,38.35,0,0,1,2.9,15.55,35.11,35.11,0,0,1-3.57,16.19,26.27,26.27,0,0,1-9.87,10.8,26.84,26.84,0,0,1-14.19,3.81,25.12,25.12,0,0,1-13.95-3.71,23,23,0,0,1-8.66-10.43,38.87,38.87,0,0,1-2.92-15.61A34.4,34.4,0,0,1,1356.43,549.88Zm8.64,29.28a19.08,19.08,0,0,0,5.6,8.74,13.27,13.27,0,0,0,8.8,3.07,13.47,13.47,0,0,0,8.66-2.91,18.61,18.61,0,0,0,5.66-8.76,44.75,44.75,0,0,0,2-14.43,40.93,40.93,0,0,0-1.91-13.24,18.31,18.31,0,0,0-5.58-8.55,13.55,13.55,0,0,0-8.8-3,13.9,13.9,0,0,0-8.72,2.82,17.77,17.77,0,0,0-5.66,8.57,44.25,44.25,0,0,0-2,14.34A41.4,41.4,0,0,0,1365.07,579.16Z" transform="translate(0 -2.5)"/><path class="cls-1" d="M1416.54,590.37l5.92-49.48-8.44-1v-4.38h21.55L1448,571.71l2.05,9.08,1.78-9.08,10.93-36.19h21.55v4.38l-8.76,1,7.66,49.41,7.06.95v4.3h-23.44v-4.3l7-.91-5-35.83-1.74-15.75-2.72,10.81-12.86,43.29h-5.09L1432.13,554l-4.38-15.19-1.26,15.67-3.2,35.83,7.77.95v4.3h-21.55v-4.3Z" transform="translate(0 -2.5)"/><path class="cls-1" d="M1498.09,590.37l5.92-49.48-8.44-1v-4.38h21.55l12.39,36.19,2.05,9.08,1.78-9.08,10.93-36.19h21.55v4.38l-8.76,1,7.66,49.41,7.06.95v4.3h-23.44v-4.3l7-.91-5-35.83-1.74-15.75-2.72,10.81L1533,592.9h-5.09L1513.68,554l-4.38-15.19L1508,554.5l-3.2,35.83,7.77.95v4.3h-21.55v-4.3Z" transform="translate(0 -2.5)"/><path class="cls-1" d="M1579.83,541.13l-5.68-1v-4.59h22v4.59l-6.71,1v29.72q0,10.72,3.87,15.4t10.93,4.68q7,0,10.58-5.11t3.59-14.55V541.13l-6.51-1v-4.59h18.9v4.59l-5.84,1v29.79q0,8.29-2.8,13.83a18.54,18.54,0,0,1-7.7,8.21,23.22,23.22,0,0,1-11.29,2.66q-8.21,0-13.34-2.7a16.52,16.52,0,0,1-7.58-8.34q-2.45-5.64-2.45-14.59Z" transform="translate(0 -2.5)"/><path class="cls-1" d="M1643.26,590.37V540.93l-6.51-1v-4.38h15.59l26.56,38.79,4.18,7.81V540.89l-7.06-1v-4.38h19.57v4.38l-6.55,1v54.65h-6.47L1655.38,556l-6.16-10.73v45.06l7.54.95v4.3h-20v-4.3Z" transform="translate(0 -2.5)"/><path class="cls-1" d="M1710,590.33V540.93l-7.22-1v-4.38h23.75v4.38l-7.22,1v49.44l7.34,1.07v4.18h-23.87v-4.3Z" transform="translate(0 -2.5)"/><path class="cls-1" d="M1737.06,577.74h5.48l1.58,9.81a10.62,10.62,0,0,0,4.34,2.36,20.9,20.9,0,0,0,6.51,1q5.88,0,8.86-2.55a8.84,8.84,0,0,0,3-7.09,8.11,8.11,0,0,0-1.64-5.09,14.82,14.82,0,0,0-4.44-3.75,83.21,83.21,0,0,0-7.69-3.76,55.28,55.28,0,0,1-7.66-4.07,21,21,0,0,1-5.84-5.69,14,14,0,0,1-2.45-8.26,13.3,13.3,0,0,1,2.41-7.82,15.83,15.83,0,0,1,6.87-5.38,25.82,25.82,0,0,1,10.38-1.94,34.51,34.51,0,0,1,6.71.61q3.08.61,6.39,1.56,1.74.51,2.8.71l-.51,13.2h-5.29l-1.82-9.31a7.19,7.19,0,0,0-3.16-1.48,19.38,19.38,0,0,0-5.21-.67q-10.65,0-10.65,8.38a7.87,7.87,0,0,0,1.62,5,15.2,15.2,0,0,0,4.3,3.67q2.68,1.6,7.93,4.09a89,89,0,0,1,8.52,4.57,20.6,20.6,0,0,1,5.68,5.28,12.42,12.42,0,0,1,2.37,7.59,15.17,15.17,0,0,1-2.43,8.13,17.7,17.7,0,0,1-7.3,6.36,26,26,0,0,1-11.82,2.46,36.33,36.33,0,0,1-7.77-.77q-3.51-.77-7.3-2a21.72,21.72,0,0,0-3.43-.91Z" transform="translate(0 -2.5)"/><path class="cls-1" d="M1787.59,590.37l5.92-49.48-8.44-1v-4.38h21.55L1819,571.71l2.05,9.08,1.78-9.08,10.93-36.19h21.55v4.38l-8.76,1,7.66,49.41,7.06.95v4.3h-23.44v-4.3l7-.91-5-35.83-1.74-15.75-2.72,10.81-12.86,43.29h-5.09L1803.18,554l-4.38-15.19-1.26,15.67-3.2,35.83,7.77.95v4.3h-21.55v-4.3Z" transform="translate(0 -2.5)"/><path class="cls-1" d="M1395.14,612.44a27.23,27.23,0,0,0-5.89,6.08,47.8,47.8,0,0,0-6.45,12.16,50.8,50.8,0,0,0-3.09,17.21v1.46a54.84,54.84,0,0,0,2.92,18.57,49.84,49.84,0,0,0,6.58,13,32.77,32.77,0,0,0,6.27,6.77l-3.18,2.07a35.29,35.29,0,0,1-7.31-6.62,47.92,47.92,0,0,1-8-13.52,52.56,52.56,0,0,1-3.62-20.37,46.42,46.42,0,0,1,3.55-18.46,51.24,51.24,0,0,1,8-13.45q4.47-5.16,7.35-6.77Z" transform="translate(0 -2.5)"/><path class="cls-1" d="M1416.88,671.83V633.62a36.89,36.89,0,0,1-5.24,1.76,43.21,43.21,0,0,1-6,1.3l-.84-3.68a36.48,36.48,0,0,0,14.66-7.21h0l3.8.81v45.24h10.28v3.68h-27.16v-3.68Z" transform="translate(0 -2.5)"/><path class="cls-1" d="M1477.9,667.44a40.55,40.55,0,0,1-11.22,14.06,34.87,34.87,0,0,1-14.87,7.06l-1.54-3a34.93,34.93,0,0,0,11.32-6.08,34.29,34.29,0,0,0,8-9.21A38.49,38.49,0,0,0,1474,659a16.23,16.23,0,0,1-5.56,4.39,16.54,16.54,0,0,1-7.63,1.82,19.25,19.25,0,0,1-9.73-2.34,15.7,15.7,0,0,1-6.27-6.6,21.56,21.56,0,0,1-2.19-10,21.87,21.87,0,0,1,2.42-10.15,19.08,19.08,0,0,1,6.93-7.54,19.34,19.34,0,0,1,10.53-2.84,19,19,0,0,1,11,3A18.12,18.12,0,0,1,1480,637a29.85,29.85,0,0,1,2.15,11.57A41.89,41.89,0,0,1,1477.9,667.44ZM1475,651l0-1.73q0-8.82-2.94-14.41T1462,629.28a10.55,10.55,0,0,0-6.87,2.3,14,14,0,0,0-4.24,5.89,20.24,20.24,0,0,0-1.4,7.42q0,8.36,3.22,12.3a10.63,10.63,0,0,0,8.67,3.93,15.8,15.8,0,0,0,6.12-1.17,16.09,16.09,0,0,0,4.7-2.88,10.55,10.55,0,0,0,2.61-3.32Q1474.91,652.84,1475,651Z" transform="translate(0 -2.5)"/><path class="cls-1" d="M1499.65,633.79a42.74,42.74,0,0,1,12.07-13.89,37.44,37.44,0,0,1,15.35-7l1.46,2.92a38.21,38.21,0,0,0-20.39,15.31,36.39,36.39,0,0,0-5,11.13,16.51,16.51,0,0,1,5.72-4.35,19.07,19.07,0,0,1,8.48-1.78,18.61,18.61,0,0,1,9.38,2.19,13.72,13.72,0,0,1,5.72,6.23,22.46,22.46,0,0,1,1.9,9.61,24.22,24.22,0,0,1-2.34,10.55,19.18,19.18,0,0,1-6.77,7.87,18.34,18.34,0,0,1-10.42,3,18.07,18.07,0,0,1-10.74-3.18,19.81,19.81,0,0,1-6.79-8.54A29.55,29.55,0,0,1,1495,652,37.06,37.06,0,0,1,1499.65,633.79Zm2.51,15.75V651q0,9.13,3,15.12t10.05,6a10,10,0,0,0,6.77-2.38,14.35,14.35,0,0,0,4.09-6.1,22.56,22.56,0,0,0,1.34-7.71q0-8.09-3.11-11.8a10.49,10.49,0,0,0-8.48-3.7,16.55,16.55,0,0,0-6.18,1.13,17.3,17.3,0,0,0-4.76,2.74,10,10,0,0,0-2.65,3.11A20.68,20.68,0,0,0,1502.17,649.54Z" transform="translate(0 -2.5)"/><path class="cls-1" d="M1549,637.24a21.52,21.52,0,0,1,7.44-8.83,18.22,18.22,0,0,1,10.3-3.13q10.44,0,14.85,6.79t4.33,18.11a31.26,31.26,0,0,1-2.69,13,22.35,22.35,0,0,1-7.23,9.09,18.67,18.67,0,0,1-21.45-.17,19.66,19.66,0,0,1-6.33-9.19,38.3,38.3,0,0,1-2-12.58A29.75,29.75,0,0,1,1549,637.24Zm27.07-2.51q-3-5.87-9.78-5.87t-10,5.43q-3.2,5.43-3.2,15.1a45.73,45.73,0,0,0,1.29,11.22,18.75,18.75,0,0,0,4.16,8.23A9.62,9.62,0,0,0,1566,672a10.49,10.49,0,0,0,9.88-5.68q3.13-5.68,3.13-15.81Q1579,640.6,1576.08,634.73Z" transform="translate(0 -2.5)"/><path class="cls-1" d="M1632.27,649.5v4.76h-31.65V649.5Z" transform="translate(0 -2.5)"/><path class="cls-1" d="M1657.11,671.83V633.62a36.93,36.93,0,0,1-5.24,1.76,43.24,43.24,0,0,1-6,1.3L1645,633a36.48,36.48,0,0,0,14.66-7.21h0l3.8.81v45.24h10.28v3.68H1646.6v-3.68Z" transform="translate(0 -2.5)"/><path class="cls-1" d="M1718.13,667.44a40.54,40.54,0,0,1-11.22,14.06,34.87,34.87,0,0,1-14.87,7.06l-1.54-3a34.92,34.92,0,0,0,11.32-6.08,34.31,34.31,0,0,0,8-9.21,38.49,38.49,0,0,0,4.43-11.3,16.23,16.23,0,0,1-5.56,4.39,16.54,16.54,0,0,1-7.63,1.82,19.24,19.24,0,0,1-9.73-2.34,15.7,15.7,0,0,1-6.27-6.6,21.56,21.56,0,0,1-2.19-10,21.87,21.87,0,0,1,2.42-10.15,19.08,19.08,0,0,1,6.93-7.54,19.34,19.34,0,0,1,10.53-2.84,19,19,0,0,1,11,3,18.12,18.12,0,0,1,6.58,8.19,29.83,29.83,0,0,1,2.15,11.57A41.89,41.89,0,0,1,1718.13,667.44ZM1715.22,651l0-1.73q0-8.82-2.94-14.41t-10.07-5.58a10.56,10.56,0,0,0-6.87,2.3,14,14,0,0,0-4.24,5.89,20.22,20.22,0,0,0-1.4,7.42q0,8.36,3.22,12.3a10.63,10.63,0,0,0,8.67,3.93,15.81,15.81,0,0,0,6.12-1.17,16.07,16.07,0,0,0,4.7-2.88,10.55,10.55,0,0,0,2.61-3.32Q1715.14,652.84,1715.22,651Z" transform="translate(0 -2.5)"/><path class="cls-1" d="M1739.89,633.79A42.74,42.74,0,0,1,1752,619.9a37.44,37.44,0,0,1,15.35-7l1.46,2.92a38.21,38.21,0,0,0-20.39,15.31,36.39,36.39,0,0,0-5,11.13,16.51,16.51,0,0,1,5.72-4.35,19.07,19.07,0,0,1,8.48-1.78,18.61,18.61,0,0,1,9.38,2.19,13.72,13.72,0,0,1,5.72,6.23,22.46,22.46,0,0,1,1.9,9.61,24.22,24.22,0,0,1-2.34,10.55,19.18,19.18,0,0,1-6.77,7.87,18.34,18.34,0,0,1-10.42,3,18.07,18.07,0,0,1-10.74-3.18,19.81,19.81,0,0,1-6.79-8.54,29.55,29.55,0,0,1-2.3-11.8A37.06,37.06,0,0,1,1739.89,633.79Zm2.51,15.75V651q0,9.13,3,15.12t10.05,6a10,10,0,0,0,6.77-2.38,14.35,14.35,0,0,0,4.09-6.1,22.56,22.56,0,0,0,1.34-7.71q0-8.09-3.11-11.8a10.49,10.49,0,0,0-8.48-3.7,16.55,16.55,0,0,0-6.18,1.13,17.3,17.3,0,0,0-4.76,2.74,10,10,0,0,0-2.65,3.11A20.68,20.68,0,0,0,1742.4,649.54Z" transform="translate(0 -2.5)"/><path class="cls-1" d="M1792.43,633.79a42.73,42.73,0,0,1,12.07-13.89,37.43,37.43,0,0,1,15.35-7l1.46,2.92a38.22,38.22,0,0,0-20.39,15.31,36.38,36.38,0,0,0-5,11.13,16.51,16.51,0,0,1,5.72-4.35,19.06,19.06,0,0,1,8.48-1.78,18.61,18.61,0,0,1,9.38,2.19,13.72,13.72,0,0,1,5.72,6.23,22.44,22.44,0,0,1,1.9,9.61,24.21,24.21,0,0,1-2.34,10.55,19.17,19.17,0,0,1-6.77,7.87,18.34,18.34,0,0,1-10.42,3,18.08,18.08,0,0,1-10.74-3.18,19.82,19.82,0,0,1-6.79-8.54,29.56,29.56,0,0,1-2.3-11.8A37.05,37.05,0,0,1,1792.43,633.79Zm2.51,15.75V651q0,9.13,3,15.12t10.05,6a10,10,0,0,0,6.77-2.38,14.35,14.35,0,0,0,4.09-6.1,22.54,22.54,0,0,0,1.34-7.71q0-8.09-3.11-11.8a10.49,10.49,0,0,0-8.48-3.7,16.54,16.54,0,0,0-6.18,1.13,17.28,17.28,0,0,0-4.76,2.74,10,10,0,0,0-2.65,3.11A20.42,20.42,0,0,0,1794.94,649.54Z" transform="translate(0 -2.5)"/><path class="cls-1" d="M1839.66,687.95a27.25,27.25,0,0,0,5.89-6.08A47.84,47.84,0,0,0,1852,669.7a50.79,50.79,0,0,0,3.09-17.21V651a54.87,54.87,0,0,0-2.92-18.57,49.91,49.91,0,0,0-6.58-13,32.79,32.79,0,0,0-6.27-6.77l3.18-2.07a35.31,35.31,0,0,1,7.31,6.62,48,48,0,0,1,8,13.52,52.57,52.57,0,0,1,3.63,20.37,46.41,46.41,0,0,1-3.55,18.45,51.29,51.29,0,0,1-8,13.45q-4.47,5.16-7.35,6.77Z" transform="translate(0 -2.5)"/><path class="cls-1" d="M955.2,217.5V120.9l-12-2.3V107.2H996v11.4l-13.5,2.3v39.8H1029V121l-12.5-2.3V107.3h52.2v11.4l-12.3,2.3v96.6l12.3,2v10.8h-52V219.6l12.4-2.1v-43H982.6v43l13.5,2.1v10.8H943V219.6Z" transform="translate(0 -2.5)"/><path class="cls-1" d="M1089.9,217.5V121l-12.9-2.3V107.3h89.5l2.3,28.5h-13.2L1150,119h-32.7v42h20.5l3-13.6h11.8v41.2h-11.8l-2.8-14.5h-20.7v43.4h36.4l10.1-21.6,13.8,3.9-4.2,30.6h-96.2V219.6Z" transform="translate(0 -2.5)"/><path class="cls-1" d="M1194.7,217.5V121.6l-12.1-2.2V107.3h52.9c11.6,0,20.9,1.1,27.8,3.4s11.9,5.7,15,10.4,4.6,10.9,4.6,18.6a38.81,38.81,0,0,1-2.6,13.8,34.55,34.55,0,0,1-8,12.1,31.88,31.88,0,0,1-13.1,7.7,23.75,23.75,0,0,1,8.9,6.6,48.76,48.76,0,0,1,6.9,9.9c1.9,3.5,4,7.8,6.3,12.8s4.3,8.7,5.7,11,2.9,3.7,4.4,4.1l5.1,1.8v10.8H1265c-1.7,0-3.3-1.8-5-5.3s-3.9-9.1-6.6-16.6c-2-5.8-3.8-10.6-5.4-14.3a60.64,60.64,0,0,0-5.1-10.2,16.17,16.17,0,0,0-5.7-6.1h-15v39.8l14.7,1.9v10.8H1182V219.5Zm54.1-57.2c3.3-4.4,4.9-11,4.9-19.8,0-7.6-1.6-13.3-4.9-17.1s-8.7-5.6-16.3-5.6a41.22,41.22,0,0,0-10.5,1v47.8a38.58,38.58,0,0,0,6.8.4h6.1C1240.9,166.9,1245.6,164.7,1248.8,160.3Z" transform="translate(0 -2.5)"/><path class="cls-1" d="M1303.4,136.4a50.45,50.45,0,0,1,20-21.6c8.6-5.1,18.6-7.6,29.9-7.6,18.6,0,32.4,5.2,41.4,15.7s13.5,25.1,13.5,44c0,12.6-2.4,23.7-7.2,33.4a53.8,53.8,0,0,1-20.3,22.4c-8.7,5.3-18.8,7.9-30.2,7.9-12.3,0-22.5-2.5-30.5-7.6a45.66,45.66,0,0,1-17.9-21.3c-3.9-9.1-5.8-19.9-5.8-32.4S1298.7,145.8,1303.4,136.4Zm29.7,70.3c4.5,8.4,10.8,12.5,19.1,12.5a19.2,19.2,0,0,0,14-5.9c3.9-3.9,6.8-9.8,8.9-17.6s3.1-17.4,3.1-28.8c0-16.6-2.2-28.9-6.7-36.8s-10.9-11.8-19.2-11.8-14.7,4.2-19.2,12.6-6.7,21.1-6.7,38S1328.6,198.3,1333.1,206.7Z" transform="translate(0 -2.5)"/><path class="cls-1" d="M1427.4,217.5V121l-12.9-2.3V107.3H1504l2.3,28.5h-13.2l-5.7-16.8h-32.7v42h20.5l3-13.6H1490v41.2h-11.8l-2.8-14.5h-20.7v43.4h36.4l10.1-21.6,13.8,3.9-4.2,30.6h-96.2V219.6Z" transform="translate(0 -2.5)"/><path class="cls-1" d="M1523.7,193.2h15.1l4.1,19.9c1.3,1.6,3.7,2.9,7.1,4a37.94,37.94,0,0,0,11.7,1.7c6.8,0,11.8-1.4,15.1-4.2s4.9-6.8,4.9-12a14.69,14.69,0,0,0-3.1-9.3,30.62,30.62,0,0,0-8.7-7.3,148.26,148.26,0,0,0-15.5-7.7,80.33,80.33,0,0,1-22.4-14.9c-6.2-5.9-9.2-13.8-9.2-23.6a29.1,29.1,0,0,1,4.8-16.3c3.2-4.9,8-8.9,14.5-11.8s14.4-4.4,23.8-4.4a86.4,86.4,0,0,1,15.1,1.2c4.4.8,9,1.9,13.7,3.1,3.2.8,5.2,1.3,6.1,1.4l-1.1,28.5H1585l-4-19.1c-.8-1-2.6-1.9-5.3-2.7a32.24,32.24,0,0,0-9.1-1.3c-6.1,0-10.7,1.3-13.6,4a14.09,14.09,0,0,0-4.4,10.8,14.66,14.66,0,0,0,3.6,9.8,33.85,33.85,0,0,0,9.1,7.4c3.7,2.1,9.1,4.9,16.1,8.3a127.68,127.68,0,0,1,15.6,8.8,41.13,41.13,0,0,1,11.3,11.1,27.27,27.27,0,0,1,4.7,15.8,35.26,35.26,0,0,1-4.5,17.1c-3,5.5-8,10-15,13.6s-16,5.4-27.1,5.4a88.54,88.54,0,0,1-16.9-1.5,164.13,164.13,0,0,1-16.1-4,52.31,52.31,0,0,0-7.4-1.9Z" transform="translate(0 -2.5)"/><path class="cls-1" d="M1655,136.4a50.45,50.45,0,0,1,20-21.6c8.6-5.1,18.6-7.6,29.9-7.6,18.6,0,32.4,5.2,41.4,15.7s13.5,25.1,13.5,44c0,12.6-2.4,23.7-7.2,33.4a53.8,53.8,0,0,1-20.3,22.4c-8.7,5.3-18.8,7.9-30.2,7.9-12.3,0-22.5-2.5-30.5-7.6a45.66,45.66,0,0,1-17.9-21.3c-3.9-9.1-5.8-19.9-5.8-32.4S1650.3,145.8,1655,136.4Zm29.7,70.3c4.5,8.4,10.8,12.5,19.1,12.5a19.2,19.2,0,0,0,14-5.9c3.9-3.9,6.8-9.8,8.9-17.6s3.1-17.4,3.1-28.8c0-16.6-2.2-28.9-6.7-36.8s-10.9-11.8-19.2-11.8-14.7,4.2-19.2,12.6-6.7,21.1-6.7,38S1680.2,198.3,1684.7,206.7Z" transform="translate(0 -2.5)"/><path class="cls-1" d="M1779,217.5V121.2l-12.9-2.5V107.3h92.1l1.9,30.5h-14.6l-6.4-18.5h-32.6v44.3h21.8l3.5-14.6h12v43.1h-12l-3.6-15h-21.8v40.4l24.5,2.1v10.8h-64.5V219.6Z" transform="translate(0 -2.5)"/></svg>