<?xml version="1.0" encoding="utf-8"?>
<!-- Generator: Adobe Illustrator 21.0.0, SVG Export Plug-In . SVG Version: 6.00 Build 0)  -->
<svg version="1.1" id="Layer_1" xmlns="http://www.w3.org/2000/svg" xmlns:xlink="http://www.w3.org/1999/xlink" x="0px" y="0px"
	 width="2376.2px" height="937.4px" viewBox="0 0 2376.2 937.4" style="enable-background:new 0 0 2376.2 937.4;"
	 xml:space="preserve">
<style type="text/css">
	.st0{fill:#CEA25F;}
</style>
<title>img-9-iberowine-logo-beige</title>
<g id="Layer_4">
	<path class="st0" d="M139.8,400.4c0.7,11.7,0.4,23.3-1,35c-0.6,2.6,0.9,4.2,3.4,7l3.4,4.1c1,1.2,1.4,2.8,1.1,4.3
		c-0.3,1.1-1.3,1.8-2.4,1.9v2c1.3,6.2-4,8.4-8.2,10.1c-3.2,1-6.1,2.8-8.4,5.3l-6.8,12.5c-2.2,4.8-3.5,8.1-5.3,8.8
		c-7.3,16.8-13.6,34-19,51.5c-2.2,4.5-5.4,8.4-9.4,11.4l-4.5,4.3l-6.1,5.3l-1.5,1.6v2.3c1.6,4.9,0.6,10.2-2.6,14.2
		c-1.6,2.4-2.3,5.2-2.2,8.1c-0.2,4.6-1.2,9.1-3.1,13.2c-4.4,6.6-6,14.7-4.4,22.5c1.1,2.3,3,2.5,8,2.5h7.6c4.1,0.9,5.3-1.2,7.2-7
		c1.9-5.8,3.7-10.8,13.2-9.1c2.9,0.5,5.4,2.3,6.7,4.9c0.8,1.6,1.1,3.5,1.1,5.3c0,2.3-0.5,4.7-1.5,6.8c-1.1,2.1-3,3.8-5.2,4.7l0,0
		c-0.5,2.8-3.4,5.4-9.2,7.9c-2.8,1.7-6.2,1.9-9.1,0.6c1.2,2.7,1.7,5.7,1.3,8.7v7c0,0,2.3,0.8,10.8-3.9l3.3-1.8c4.2-3,9.4-4,14.4-2.8
		l6.8,3.5v9.4c-0.2,2.5-1.6,4.8-3.9,5.9l-1.3,0.9l0.8,1.3c1.3,2.2,1.9,4.8,1.7,7.4c-0.9,11-3.3,21.9-7.2,32.3
		c-0.1,0.5-0.1,0.9,0,1.4c0.2,1.7,0.8,3.4,1.7,4.9c1.2,6.6,1.6,13.3,1.3,20c0.3,12.1-0.5,24.3-2.6,36.2l-8.2,18.7l-6.1,14.1
		c1.7,1.4,3.8,2.2,6,2.5c2.4,0.4,4.9-0.1,7-1.4c8.2-4.4,17.8-5.6,26.9-3.4h8.6c10-1.7,20.3,1.2,28,8c8.8,10.8,12.2,10.8,16.2,9.4
		c4-2,7.6-4.6,10.8-7.7c5.1-4.6,10.9-8.5,17.1-11.5c10.3-4,21.4-5.1,32.3-3.1l8.6,0.8c4.4-0.3,8.8,0.6,12.8,2.6l33.8,25.1
		c8.9,7.5,12.8,10.8,10.8,21.5c-1.8,5.2-1.4,11,1.2,15.9c0.6,1.4,0.8,1.4,2.4,1.3c3-0.5,6.1,0.3,8.5,2.3l2.8,5.1c0,0.3,0,0.6,0,0.9
		c-0.8,5.1-3.1,9.9-6.6,13.8c-4.2,11.8-10.1,22.9-17.5,33c9.5,6.6,22.7,13.1,26.2,8.7l3.1-4c3.9-5.7,9.3-10.3,15.5-13.2l6.1-0.6
		c3.2,1.2,4.6,4.7,5.8,7.7c0,1.4,1.7,4.3,2.4,4.3c2.9,0.2,5.4,1.9,6.8,4.4c2,2.7,3.3,4.5,9.7,1.7c10-7.2,17.8-16.9,22.9-28.1
		l6.6-10.8c2.4-4.3,7.3-6.4,12-5.2c5.5,0.9,11-1.2,14.6-5.5c15.5-12.6,34-20.9,53.8-24.1c6.9-0.8,25.1,0,43,0
		c12.1,0.9,24.3,0.9,36.5,0l11.7-2.2l18.8-5.2c5.8-0.9,11.7,0.5,16.3,4l6.8,3.4c2.3,1,4.8,1,7.1,0c2.5-1.3,4.7-4.9,7-11.8
		c0.8-3.5,3.1-6.5,6.2-8.3c4.1-1.2,8.5-0.5,12.2,1.7l5.1,1.8c4,1.3,7.7,3.4,10.8,6.3c1.6,1.5,3.4,2.8,5.4,3.9l7.4-9.8l7.5-8.3
		c5.4-7.7,9.9-16,13.3-24.7c3.4-8.9,7.8-17.4,12.9-25.5c2.9-5,8-8.4,13.8-9.2c2.3,0,2.9,0,3.7-2.4c4.1-10.8,39.3-8.9,44.7-8h2.3
		l-1.1-14c-0.3-2.3-0.1-4.6,0.5-6.9l4.8,3.8c-0.1,1-0.1,2.1,0,3.1l0.6,9.5c0,3.8,0.9,6.5-1.1,8.3c-2.1,1.5-4.7,1.9-7.1,1.1
		c-10.8-1.8-37.1,0-38.9,4.7c-1.2,3.3-4.2,5.6-7.7,5.7c-4.2,0.5-8,3-10.1,6.7c-4.8,7.8-8.9,16.1-12.2,24.7
		c-3.6,9.5-8.3,18.6-14.1,27l-7.7,8.5l-6.6,8.5c-0.6,1.5-1.9,2.5-3.4,2.9c-3.1,0.6-6.3-1.9-10.1-4.9c-2.4-2.3-5.3-4.1-8.4-5.3
		l-6.1-2.2c-2.9-1.3-5.9-2.6-7.9-1.7c-1.7,1.2-2.9,3-3.3,5.1c-2.8,8.5-5.7,12.9-9.7,14.9c-3.4,1.4-7.3,1.4-10.8,0l-8.7-4.2
		c-3.6-2.9-8.3-4-12.8-3.1l-17.6,4.9l-12.6,3.9c-12.5,0.7-25,0.7-37.5,0c-17.4-0.6-35.4-1.3-41.8-0.5c-18.7,3-36.4,10.8-51.1,22.8
		c-4.8,5.2-11.7,7.7-18.7,6.8c-2.8-0.9-5.8,0.4-7.1,3l-6.3,10.8c-6.7,11.4-14.9,25.6-25.4,30.2c-10.4,4.6-14,0-16.2-3.4
		c-2.3-3.4-1.7-2.2-2.4-2.2c-4.3,0-6-4.3-7.3-7.6c-1.3-3.3-1.7-4.4-2.7-4.7h-1.8c-5.6,2.6-10.3,6.7-13.8,11.8l-2.9,3.5
		c-8.5,10.8-31.3-5.9-35.7-9.4l-2.2-1.6l1.6-2.2c7.8-10.4,14-21.9,18.5-34.1v-0.6l0,0c2.9-3,4.8-6.7,5.5-10.8v-2.7
		c-1.3-1.1-3.1-1.6-4.7-1.2c-3.3,0.8-6.6-1-7.7-4.2c-3.1-5.9-3.7-12.9-1.7-19.2c1.2-7.1,0-9.1-9.2-16.6l-33.3-24.7
		c-3.2-1.3-6.6-1.8-10-1.6l-9.5-0.9c-9.8-1.7-19.8-0.7-29,2.8c-5.9,3-11.3,6.8-16.1,11.3c-3.5,3.8-7.7,6.9-12.5,9
		c-7.5,1.8-13-1-21.5-10.8c-6.7-5.4-15.3-7.6-23.8-6.1h-9.6c-7.6-2.1-15.8-1.2-22.8,2.4c-5.4,3-11.9,3-17.3,0
		c-3.7-1.8-4.4-3.9-4.4-5.3c1.5-5.8,3.8-11.3,6.8-16.5l8-18.2c2.4-17.3,3-34.8,1.6-52.2c-2.2-3.2-2.7-7.2-1.4-10.8
		c2-4.2,9.1-29.8,6-33.8l-1.7-5.4l3.5-4.5c1-0.6,1.6-1.2,1.6-1.5l1.1-6.5l-3.2-1.2c-3.7-1-7.7-0.3-10.8,2l-4.1,1.8
		c-7.1,3.5-15.6,7-18.2,1.7l-1-9.8c-0.2-1.9-0.2-3.7,0-5.6c0,0-5.5-5.5-3.9-9.4c0.7-1.7,2.5-2.7,4.3-2.5c2.2,0,4.2,1.3,5.2,3.2
		c0.6,1.1,1.1,1.7,5.5,0c2.2-0.6,4.2-1.7,5.8-3.3l-2.4-2.4l4.6-1.8c1.7-0.6,3.2-1.7,4.3-3.1c0.6-1.4,0.9-2.9,0.9-4.4
		c0-1-0.2-2-0.5-2.9c-0.6-1.1-1.7-1.9-2.9-2c-4.7-1-5.5,0.6-7.3,6.2c-1.8,5.6-3.9,11.6-13,9.8h-6.6c-4.7,0-10.1,0-12.8-5.4
		c-1-2.2-1.5-4.6-1.4-7c0.5-7.1,2.5-14,5.8-20.3c1.6-3.6,2.4-7.5,2.6-11.4c0-3.9,1.3-7.7,3.7-10.8c1.2-1.3,1.7-3,1.6-4.7
		c-0.1-1.6-0.2-3.2-0.5-4.7v-3.2c0-3,1.8-4.4,4-6l5.6-4.7l4.6-4.4c3.2-2.5,5.9-5.6,7.9-9.1c4.1-12.2,17.6-52.2,21.5-53.8l3.4-6.7
		l7.5-13.8c2.9-3.2,6.6-5.6,10.8-6.9c4.1-1.7,4.9-2.4,4.9-3.4c0-0.2,0-0.4,0-0.6c-0.1-0.9-0.1-1.7,0-2.6c-0.1-2.2,1.2-4.2,3.2-4.9
		l-1.1,1.2l-3.1-3.9c-2.9-2.4-4.8-5.8-5.2-9.6c-0.1-0.8-0.1-1.7,0-2.5c0.9-7.1,1.2-14.3,1-21.5v-16.5L139.8,400.4z"/>
	<path class="st0" d="M854.3,643.6c5.6-3.9,9.8-6.5,9.8-10.8l0,0c-0.9-4.1-4-4.9-9.4-6l-3.2-0.6c-4.7-1.2-12.9-9.6-24.3-24.9
		l-2.6-8.6c0-5-2.1-9.7-5.9-13c-4-3.7-6.2-8.9-6.2-14.4c1-8.5,3.9-16.7,8.7-23.9l21.5-30.6l-16.9,33.2c-7.6,13.8-11.9,23.3-3.3,32.3
		c4.8,4.2,7.5,10.2,7.5,16.6l1.5,5.7c11.9,15.9,18.8,22.3,21.5,22.9l3,0.6c5.1,1,12,2.4,13.7,10.8c1.6,8.4-1.2,8.7-8.9,14.1
		L854.3,643.6z"/>
</g>
<g id="Layer_1-2">
	<path class="st0" d="M221,485.1c0,0,31.4,38.7,30.9,39.3c-13-10.3-26.6-19.8-40.9-28.4c-26.8-14.8-56.5-27.1-73.1-10.8
		c0,0-28.8,26.5,0,45.7c10.8,6.2,31.3-4,30.3-14.4c-0.2-5.2-4.5-9.2-9.7-9c-0.4,0-0.7,0-1.1,0.1c8.6-3.1,13.1,4.6,13,11.5
		c-4.6,13.7-19.4,21-33.1,16.4c-3-1-5.8-2.6-8.3-4.6c-13.3-10.4-15.7-29.6-5.5-43l0.9-1.1c8.9-13.4,25.6-28,62.9-15.6
		c9.7,3,19.2,6.6,28.5,10.8C217.7,482.8,219.4,483.9,221,485.1z"/>
	<path class="st0" d="M265.5,533.5l16.1-0.9c-1-3.3-67.4-84-67.4-84C225,464.3,116.8,303.9,0,347.9c36.2-5.9,98.9-32.3,224.1,132.9
		C223.9,480.7,265.5,534.4,265.5,533.5z"/>
	<path class="st0" d="M325.3,603.4c43,33,88.4,58.1,138.9,24c1.8-4.9,3.2-9.9,4.2-15.1c-28.6,19.4-65.8,31.6-119.9-10.1
		C348.5,602.2,333.4,603.4,325.3,603.4z"/>
	<path class="st0" d="M357.5,531.4c34-19.8,76-34.8,117.2,10.8v6.3c-24.5-30.1-61.7-39.3-101.3-11.9
		C368.3,534.3,362.9,532.6,357.5,531.4z"/>
	<path class="st0" d="M365.6,547.1c18.2,6.8,14,16.3,2.2,18.6C383.6,557.2,365.6,547.1,365.6,547.1z"/>
	<path class="st0" d="M291.8,352.2c31.6,64.5,33,122.5,8.2,191.7C324.4,497.6,349.3,411.5,291.8,352.2z"/>
	<path class="st0" d="M395.3,328.2c-57.5,38.9-61.3,143.1-34.4,223.9C331.4,492.6,310.1,374.7,395.3,328.2z"/>
	<path class="st0" d="M239,560.1c18.5,38.9,110.2,35.6,147.2,23.2c26.5-8.8,28-33.7-8.3-40c44.1,1.1,38.8,38,7.3,47.4
		s-133.4,18-154.3-16.8c-14.9-25.4,36.2-38.5,67.3-37.4C267.1,536.3,233.6,547.1,239,560.1z"/>
	<path class="st0" d="M335.4,342.3C258.6,367,177.7,280.8,213.8,201C195.4,292.5,275.7,359.9,335.4,342.3z"/>
	<path class="st0" d="M319.8,188c37.1-8.4,165.2-40.8,174.9-12c14.6,41.7-200.7,75.3-273.8,40c83.3,26.1,277.2-17.5,258.1-39.5
		C463.2,159.3,348.8,187.4,319.8,188z"/>
	<path class="st0" d="M494.7,189.3c19.5,85.1-75.3,152.9-161.3,137.7C415.6,335.3,498,271.9,494.7,189.3z"/>
	<path class="st0" d="M340.5,554.6c-4.4-7.4,3.5-10,8.3-7.2c8.1,4.7,2.8,13.9-19.2,15.3c-22,1.4-41.5-1.3-38.9-9.5
		c1.4-2.1,3.9-3.3,6.5-3.2c-4.9-0.8-11.4,3.2-8.6,8.6c2.8,5.4,20.4,11.9,44.2,8.9c30.3-3.8,27.4-17.2,19.2-20.8
		c-8.2-3.5-14.9-0.8-13.6,4.9C338.8,552.8,339.5,553.8,340.5,554.6z"/>
	<path class="st0" d="M227.6,260.7c35.2,28.9,67.6,22.7,103.8,19C283.3,282.7,258.1,277.9,227.6,260.7z"/>
	<path class="st0" d="M348.6,277.3c43.1-1.6,83.7-20.6,112.5-52.7C434.8,259.9,392.6,279.6,348.6,277.3z"/>
	<path class="st0" d="M222.2,229.3c36.6,33.2,82.3,22.3,107.5,17.5c-20.1,7-86,20.1-106.8-16.9C222.6,229.9,222.6,230,222.2,229.3z"
		/>
	<path class="st0" d="M258.1,299.7v0.6c17.7,22.9,48.7,30.9,75.3,19.6C306.5,328.2,277.7,315.6,258.1,299.7z"/>
	<path class="st0" d="M276.5,603.4c-26,24.3-21.5,88.8-8.7,114.1c38,74.2,120.1,58.4,144.1,22.8c21.5-32.3-12.6-82.1-68.2-31.4
		c43.9-29.9,61-13,63.4-2.4c9,39.6-57.3,71-104.5,31c-22.9-19.4-47.4-76.5,4.9-131.7C297.2,605.7,286.8,604.9,276.5,603.4z"/>
	<path class="st0" d="M563.8,149.2l6.1,1.4c4,1.4,14.5,6.3,19.7,8.3c80.4,37.1,141.2,18.4,145.2-28.6c3.2-37.3-20.9-68.1-47.3-95.6
		c29.5,31.5,65.3,80.7,29.5,120.4c-25.6,25.3-74.6,21.5-132.7-4.5l-5.4-2.5l-7.2-2.7l-8.5-3L563.8,149.2z"/>
	<path class="st0" d="M525.7,141c-4.8,1.8-9.8,3.2-14.8,4.3l-6.2,1.6c-14,1.8-28.3,1.3-42.2-1.4c-16.1-1.9-32-5.5-47.3-10.8
		c-5.6-1.7-11.4-2.5-17.2-2.4c-6.1,0.5-12.3-0.7-17.9-3.3c-2.7-2-4.9-4.6-6.5-7.5c-4.5,2.7-9.5,4.4-14.7,5.1
		c-32.8,2.2-65.8,2.2-98.6,0c-7.4-1.1-8.5-4-9.2-8l-2.7-6.2c0,0-3-3.2-3.7-3l-5.9,1.1c-3.3,0.2-6.6-0.9-9.1-3.1l-2.6-1.2l-6.5,2.8
		l-5.5,2.9c-1.2,0.7-2.7,0.7-4,0c-1-0.9-1.5-2.3-1.3-3.7c0-1.2,0-1.5-1.8-1.8c-1.7-0.6-3.6-0.6-5.3,0c0.1,0.6,0.1,1.2,0,1.7
		c0.1,1.4-0.3,2.9-1.1,4.1c-1.5,2-4,3.1-6.6,2.9c-4.4-0.1-8.6,2.2-10.8,6.1l1.4,1.8l4.4,7.7c0.2,1.4,0.2,2.8,0,4.2
		c0.1,2-0.5,4-1.7,5.6c-2.7,3-6.8,4.4-10.8,3.8h-9.8c-1.9,1.9-4.4,3.1-7,3.4l-12.7,4.2c-3.2,1.6-10-1.7-15.7-5.2
		c-0.8,0.2-1.4,0.9-1.3,1.7c0,4.2,0,10-8.5,10H114l-5.4,9.2c-2.1,2.3-3.6,5-4.5,8l0,0c3.8,3.5,6.9,7.7,9.2,12.4c1,1.8,1,1.8,4.2,1.5
		h10.8c1.3,0,5.4,0.8,6.2,4c0.1,0.4,0.1,0.8,0,1.2c0,3.3-3.8,6.5-7.1,9.1l-2.2,1.9c-2.2,2.4-3.6,5.5-4,8.7l0,0
		c0.2,0.4,0.5,0.7,0.9,1v-0.4l4.4-8.3c1.7-2.7,3.7-5.3,6.3-4.9c2.7,0.3,3.4,2.8,4.2,5.2l2.6,5.4c3.3,4.4,3.3,6.1,1.9,9.4l-0.8,4.1
		l-0.5,2.7c-1.1,4.8-1.2,5.5,2.8,9.5c4,4,4.3,5.6,3.7,8.8v5.8c0.6,5-2.8,9.7-7.7,10.8c-0.8,0.4-1.6,0.8-2.5,1.1
		c0,2.7-1.7,5.2-4.3,6.1c-1.5,0.9-2.6,1.4-3.1,3.3c-1.1,4.2,0.6,6.1,8.1,13.6c2.2,2.2,4.3,4.6,3.3,7.2c-1,2.6-3.9,2.6-7,2.7H129
		c-0.1,0.3-0.1,0.6,0,0.9c0.4,3.8,1.6,7.5,3.7,10.8l1.8,2.9c1.2,5,1.2,10.2,0,15.3c-0.8,7.9-0.8,15.9,0,23.8l1.4,10.8l-6.1-4.8
		c-1.2-5-1.9-10.1-1.9-15.3c0.1-4.9,0.5-9.8,1.2-14.6c0.4-2.7,0.6-5.4,0.6-8.2c0.1-1.7-0.2-3.4-1-4.9c-2.8-4.8-4.5-10.1-5.2-15.6
		c-0.2-1-0.2-2,0-3c0.6-1.5,1.9-2.5,3.4-2.9l6.7-0.6l-0.5-0.6c-6.2-6.2-9.9-10-9.9-15.3c-0.1-1.1-0.1-2.3,0-3.4
		c0.8-3,2.9-5.5,5.7-6.8c1.5-0.9,1.5-1,1.5-1.4c0-3.5,3.3-4.9,5.8-6c2.5-1.1,4.6-2.2,4.6-4.2c0-0.3,0-0.6,0-1v-7.7
		c0-0.3,0-0.6,0-0.9c0-0.8,0-1.3-2.3-3.1c-2.9-2.2-4.8-5.6-5.1-9.2c0.1-1.7,0.3-3.5,0.8-5.2l0.5-2.6c0,0,1.8-5.6,2.3-6.7v-2.5
		l-3.3-6.9l0,0l-1,1.2l-4,7.4c-1,2.4-1.8,4.2-3.9,4.7c-1.7,0.4-3.4-0.1-4.7-1.2c-1.8-1.2-2.9-3.1-3-5.3c0.1-5,2-9.9,5.5-13.6
		l2.6-2.3c1.5-1.2,4.8-4,5.4-4.3h-2.2h-9.1c-3.8,1.2-8-0.7-9.6-4.4c-2.1-4-4.8-7.7-8.2-10.8c-4.3-4.3,2.2-12.8,4-14.9l6.7-11.6H124
		c3.1,0,3.1,0,3.1-4.6c-0.2-3.7,2.5-7,6.2-7.5h1.8c3.7,2.5,7.7,4.5,11.9,5.8l13.7-4.6l3.2-1.2l-0.8-1.3l7.4-1.1h8.2
		c2.1,0.3,4.3-0.3,5.9-1.7c0.7-1.6,0.7-3.5,0-5.2l-3.2-5.5l-2.7-5.5c2-7,8.5-11.8,15.8-11.5c0.7,0.1,1.5-0.1,2-0.5
		c0.4-1,0.4-2.1,0-3.1v-1.2v-1.1c0-0.8,2.8-4.6,11.6-2.9c4.5,0.9,5.5,3.3,5.8,5.3l3.4-1.7l9.2-3.5l5.8,2.4c1.6,1.4,3.7,2.2,5.8,2
		l4.2-0.8c4-1.4,5.8,0,9.6,4.7l3.8,8.6c0,2.5,0,3,4.7,3.7c32.2,2.1,64.6,2.1,96.8,0c12.4-2.3,14-5.2,14-5.3l3.3-7.2l1.8,7.1
		c1.2,3.5,3.4,6.6,6.3,8.8c4.6,1.8,9.6,2.6,14.5,2.4c6.6,0,13.2,1,19.5,3.1c15.1,4.8,30.7,8.1,46.6,9.7c13,2.5,26.4,3.1,39.6,1.6
		l6.7-1.6c5.4-1,10.6-2.7,15.6-4.9L525.7,141z"/>
	<path class="st0" d="M664.7,12.6L661.2,9L664.7,12.6z"/>
	<path class="st0" d="M664.7,12.6c7.3,7.3,14.9,14.8,22.4,22.6C678.5,25.9,670.3,18.2,664.7,12.6z"/>
	<path class="st0" d="M357.1,508.7C420.5,490.9,662.2,264.2,495.9,0C605.5,165.8,510,417.6,354.1,509.1"/>
</g>
<g id="Layer_8">
	<path class="st0" d="M675.2,481.1l-18.1-49.9h8.4l13.4,39.7l14.7-39.7h5.3l14.2,39.7l13.7-39.7h7.4l-18.1,49.9h-6.5l-13.9-37.7
		l-14.1,37.7H675.2z"/>
	<path class="st0" d="M761.6,481.1v-49.9h8.4v49.9L761.6,481.1z"/>
	<path class="st0" d="M807.3,481.1v-49.9h5.3l37,33.4l2.7,2.7l2.9,3.5c0.1-1.7-0.1-3.4-0.5-5.1c-0.3-2.4-0.3-4.8,0-7.2v-27.4h7.5
		v49.9h-4.6l-38.3-34.7l-0.9-0.8c-1.6-1.4-3-3-4.2-4.8v40.3L807.3,481.1z"/>
	<path class="st0" d="M899.7,481.1v-49.9h48.1v6.8h-39.7v13.7h24.2v6.6h-24.2v16h40v6.9L899.7,481.1z"/>
	<path class="st0" d="M1058.7,478.2c-1,1-2.2,1.8-3.5,2.4c-1.7,0.5-3.4,0.7-5.2,0.6h-16.5c-3.3,0.4-6.6-0.5-9.2-2.5
		c-1.9-2.7-2.8-6.1-2.4-9.4v-3.2c-0.1-1.8,0.3-3.6,1.1-5.2c1.2-1.7,2.9-3.2,4.7-4.2l9.5-6.1c-1.2-1-2.3-2.3-3.1-3.7
		c-0.6-1.2-1-2.5-1-3.9v-2.3c-0.3-2.6,0.7-5.2,2.6-7c2.7-1.6,5.9-2.3,9-2h9.1c3.2-0.3,6.4,0.4,9.1,2.2c1.8,2.2,2.6,5,2.4,7.9v2.7
		l-6.6,1.2v-7.9h-18.5v7.3l24.3,19.2l11.6-10.8l4.3,4.1l-10.8,10.8l16.3,13h-10.8l-10.8-8.4L1058.7,478.2z M1029.1,474.8h24.1l6.5-6
		l-17.9-14.3l-12.7,9V474.8z"/>
	<path class="st0" d="M1203.3,438.1H1168v13.6h31.4c3.2-0.4,6.4,0.5,9,2.5c2,2.7,2.8,6,2.5,9.2v5.6c0.4,3.3-0.5,6.6-2.4,9.4
		c-2.6,1.9-5.8,2.8-9,2.5h-29.1c-5.1,1.4-10.4-1.7-11.7-6.8c-0.4-1.6-0.4-3.3,0-5v-1.4l7.7-1.8v8.1h37v-14.6h-31.2
		c-3.3,0.4-6.5-0.5-9.1-2.5c-1.9-2.7-2.7-6.1-2.4-9.4v-4.3c-0.4-3.3,0.5-6.6,2.4-9.4c2.6-2,5.9-2.9,9.1-2.5h26.6
		c3.2-0.4,6.5,0.5,9.1,2.5c1.9,2.4,2.8,5.5,2.5,8.6v1.1l-7.1,2V438.1z"/>
	<path class="st0" d="M1247.5,481.1v-49.9h40.2c2.9-0.3,5.8,0.5,8.1,2.3c1.8,2,2.7,4.7,2.5,7.4v10.8c0.2,2.7-0.7,5.3-2.5,7.3
		c-2.3,1.7-5.2,2.5-8.1,2.3h-32.3v19.5L1247.5,481.1z M1284.5,438.1h-28.4v17.3h28.6c1.5,0.2,3-0.3,4.2-1.2c0.9-1.2,1.3-2.6,1.2-4.1
		v-7.1c0.1-1.4-0.3-2.9-1.2-4c-1.2-1-2.8-1.5-4.3-1.3L1284.5,438.1z"/>
	<path class="st0" d="M1330.2,481.1v-49.9h8.4v49.9L1330.2,481.1z"/>
	<path class="st0" d="M1375.9,481.1v-49.9h40.2c2.9-0.3,5.8,0.5,8.1,2.3c1.8,2,2.7,4.7,2.5,7.4v10.8c0.3,2.7-0.6,5.4-2.5,7.4
		c-2.3,1.7-5.2,2.5-8.1,2.3h-7.3l22.8,19.5h-12l-20.2-19.5h-14.6v19.5L1375.9,481.1z M1412.9,438.1h-28.6v17.3h28.6
		c1.5,0.2,3-0.2,4.2-1.1c0.9-1.1,1.3-2.5,1.2-3.9v-7.2c0.2-1.4-0.3-2.9-1.2-4c-1.1-1-2.7-1.6-4.2-1.5V438.1z"/>
	<path class="st0" d="M1461,481.1v-49.9h8.4v49.9L1461,481.1z"/>
	<path class="st0" d="M1525.9,438.1v43h-8.3v-43h-22.8v-6.9h53.8v6.9L1525.9,438.1z"/>
	<path class="st0" d="M1617,438.1h-35.3v13.6h31.4c3.2-0.4,6.4,0.5,9,2.5c2,2.7,2.8,6,2.5,9.2v5.6c0.4,3.3-0.5,6.6-2.4,9.4
		c-2.6,2-5.8,2.8-9,2.5h-29.1c-5.1,1.4-10.4-1.7-11.7-6.8c-0.4-1.6-0.4-3.3,0-5v-1.4l7.7-1.8v8.1h37v-14.6h-31.2
		c-3.3,0.4-6.5-0.5-9.1-2.5c-1.9-2.7-2.7-6.1-2.4-9.4v-4.3c-0.4-3.3,0.5-6.6,2.4-9.4c2.6-2,5.9-2.9,9.1-2.5h26.6
		c3.2-0.4,6.5,0.5,9.1,2.5c1.9,2.4,2.8,5.5,2.5,8.6v1.1l-7.1,2L1617,438.1z"/>
	<path class="st0" d="M1751.5,438.1h-35.3v13.6h31.4c3.2-0.4,6.4,0.5,9,2.5c2,2.7,2.8,6,2.5,9.2v5.6c0.4,3.3-0.5,6.6-2.4,9.4
		c-2.6,1.9-5.8,2.8-9,2.5h-29.1c-5.1,1.4-10.4-1.7-11.7-6.8c-0.4-1.6-0.4-3.3,0-5v-1.4l7.7-1.8v8.1h37v-14.6h-31
		c-3.3,0.4-6.5-0.5-9.1-2.5c-1.9-2.7-2.7-6.1-2.4-9.4v-4.3c-0.4-3.3,0.5-6.6,2.4-9.4c2.6-2,5.9-2.9,9.1-2.5h26.6
		c3.2-0.4,6.5,0.5,9.1,2.5c1.9,2.4,2.8,5.5,2.5,8.6v1.1l-7.1,2L1751.5,438.1z"/>
	<path class="st0" d="M1795.9,481.1v-49.9h48.1v6.8h-39.7v13.7h23.9v6.6H1804v16h40v6.9L1795.9,481.1z"/>
	<path class="st0" d="M1875.6,481.1v-49.9h8.4v43h37.6v6.9L1875.6,481.1z"/>
	<path class="st0" d="M1950.1,481.1v-49.9h48.1v6.8h-39.7v13.7h24.2v6.6h-24.2v16h40v6.9L1950.1,481.1z"/>
	<path class="st0" d="M2071.9,438.1h-34.4v36.1h34.4v-12.6l8.4,1.7v5.9c0.4,3.3-0.5,6.6-2.4,9.4c-2.7,2-6,2.8-9.2,2.5h-27.9
		c-3.3,0.4-6.5-0.5-9.1-2.5c-2-2.7-2.8-6-2.5-9.4v-26.1c-0.4-3.3,0.5-6.7,2.5-9.4c2.6-2,5.9-2.8,9.1-2.5h27.9
		c3.3-0.4,6.6,0.5,9.2,2.5c1.9,2.8,2.8,6.1,2.4,9.5v4.7l-8.4,1.5V438.1z"/>
	<path class="st0" d="M2133,438.1v43h-8.3v-43H2102v-6.9h53.8v6.9L2133,438.1z"/>
	<path class="st0" d="M2181.6,481.1v-49.9h8.4v49.9L2181.6,481.1z"/>
	<path class="st0" d="M2226.1,443.2c-0.4-3.3,0.5-6.6,2.4-9.4c2.6-2,6-2.9,9.2-2.5h34.4c3.3-0.4,6.5,0.5,9.1,2.5
		c1.9,2.7,2.8,6,2.5,9.4v26.2c0.4,3.3-0.5,6.7-2.5,9.4c-2.6,1.9-5.9,2.8-9.1,2.5h-34.4c-3.3,0.4-6.6-0.5-9.2-2.5
		c-1.9-2.7-2.7-6-2.4-9.2V443.2z M2234.4,474.3h41.2v-36.1h-41.2V474.3z"/>
	<path class="st0" d="M2321.2,481.1v-49.9h5.3l37.2,33.3l2.7,2.7l2.9,3.5c0.1-1.7-0.1-3.4-0.5-5.1c-0.3-2.4-0.3-4.8,0-7.2v-27.3h7.5
		v49.9h-4.6l-38-34.6l-0.9-0.8c-1.6-1.4-3-3-4.2-4.8v40.3L2321.2,481.1z"/>
</g>
<g id="Layer_7">
	<path class="st0" d="M786.7,167.9c9,0.5,16.9,6.4,19.9,14.9c3.8,8.3,5.8,17.3,5.7,26.5c-1.3,26.4-7.8,52.4-19,76.4
		c-10,24.7-23.2,48-39.3,69.3c16,30.1,40.5,54.7,70.4,70.9c-30.8-14.3-56.6-37.3-74.4-66.1c-11.7,15.9-27.9,28.1-46.5,34.8
		c-18.3,7.3-37.8,10.9-57.4,10.8c-17.7,0.3-35.2-4-50.8-12.4c-16.4-7.2-27.1-23.3-27.4-41.2c0-19.3,11.2-36.7,28.7-44.8
		c16.9-9,35.9-13.4,55.1-13c12.5-0.4,24.8,2.6,35.7,8.7c11.4,6,18.3,18,17.9,30.9c-0.1,14.1-8.5,26.8-21.5,32.3
		c-12.6,6.7-26.8,9.9-41.1,9.4c-22.4-0.4-43.4-11.1-56.9-28.9c15.3,16.5,37.1,25.3,59.5,24c12.5,0.3,24.9-2.6,36-8.4
		c11.2-5.6,18.1-17.2,17.7-29.7c0.1-11.4-6.8-21.7-17.4-25.8c-10.1-4.7-21.1-7-32.3-6.7c-17.3-0.3-34.4,4-49.6,12.4
		c-15.8,7.4-26,23.4-26,40.9c0.5,15.6,9.9,29.5,24.1,35.8c13.3,8,28.6,12.1,44.1,12c38.9,0,71.9-19.5,98.8-58.6
		c-9.5-19.4-14.3-40.8-14.1-62.4c0.4-23.4,5.4-46.5,14.7-68C753.4,182.5,768.4,167.9,786.7,167.9z M781.9,173.9
		c-8,0-16.9,7.7-26.7,23.1c-15.5,24.7-23.3,53.4-22.7,82.6c-0.6,19.5,3.5,39,12,56.6c12.7-22.7,23.5-46.4,32.3-71
		c10.2-23.4,16.6-48.3,18.9-73.7c0-11.8-4.7-17.6-14.2-17.6H781.9z"/>
	<path class="st0" d="M884.2,315.5c-0.7,17.7-6.6,34.9-17,49.3c-12.7,18.8-26.5,28.2-41.4,28.2c-14.9,0-22.4-6.9-22.5-20.8
		c1.4-11.2,4.7-22.1,9.7-32.3l53.8-129h18.4l-47.4,115.7c12.3-17,23.4-25.5,33.3-25.5c3.7-0.1,7.2,1.3,9.7,4
		C883.2,308,884.5,311.7,884.2,315.5z M814.7,381.1c0,2.1,1.2,4.1,3.1,5.1c1.9,1.3,4.2,2,6.5,2c6.5,0,16-11,28.7-33.1
		c12.7-22.1,18.7-36.5,18.1-43.2c0-3.1-1.5-4.7-4.3-4.7c-7.2,0-17.6,10.4-31.4,31.3c-13.8,20.9-20.6,35.2-20.6,43V381.1z"/>
	<path class="st0" d="M1314.4,347.1c2.9-5.4,13.8-24.6,17.1-29.4c5.6-9.5,15.4-15.8,26.5-16.7c6.2,0,9.4,3.3,9.4,10
		c-0.9,9.3-3.4,18.3-7.3,26.8c8-12,13.5-19.8,16.3-23.1c5.1-7.6,13.3-12.6,22.4-13.7c3.1,0,6.1,1.1,8.5,3c2.5,1.8,3.9,4.7,3.9,7.7
		c-2.2,13.4-6.6,26.4-13,38.4c-5.8,11-10.1,22.8-12.7,35c0,1.8,1.1,3.1,3,2.7c16.5-3.5,11.6-36.2,53.8-31.6c-0.4,1.3-1.1,2.5-2,3.5
		c-31-10.8-36.8,24.8-44.8,29.1c-3.7,2.4-7.9,3.7-12.3,3.9c-4,0.3-7.9-1.1-10.8-3.9c-2.6-1.9-4.2-4.9-4.3-8.2
		c2.6-12.7,7-25.1,12.9-36.7c5.2-11.2,9.5-22.7,12.8-34.6c0.1-0.8-0.4-1.6-1.3-1.7c0,0,0,0,0,0l0,0c-1.2-0.1-2.5,0.2-3.5,0.9
		c-6.9,2.5-16.8,14.7-28.3,36.5c-8.2,15.2-15.3,30.8-21.5,46.9h-19.7c10.3-25.5,20.7-53,31.4-82.7c0.2-0.7-0.1-1.4-0.5-1.8
		c-1.1-1-2.7,0-2.7,0c-6.8,4.8-12.6,11-17.1,18.1c-5.7,7.5-10.7,15.5-14.9,24c-2.4,5.2-12.8,25.6-15.5,29.1
		c-4.6,8.1-13,13.4-22.4,14.1c-8.5,0-12.7-3.1-12.7-9.4c2.1-14,6.7-27.5,13.7-39.9c6.1-10.9,10.7-22.7,13.7-34.8
		c0-1.6-0.9-2.4-2.7-2.4c-3.8,0-9,5.7-15.5,17.1c-6.6,11.4-16.7,26.8-27.3,15.7l1.3-1.4c12.3,10.8,17.6-11.8,26.1-21.5
		c5.3-7.6,13.5-12.7,22.6-14.2c7.8,0,11.7,3,11.7,9c-2.1,14.2-6.8,28-13.9,40.5c-6,10.8-10.6,22.3-13.9,34.2c0,1.6,1,2.4,3,2.4
		c4,0,9.4-5.7,16-17.1C1306.8,359.1,1312,352.4,1314.4,347.1z"/>
	<path class="st0" d="M1326.4,262.9c0,3.7-1.6,7.3-4.3,9.8c-2.7,2.7-6.4,4.2-10.2,4.1c-3.7,0-7.2-1.6-9.7-4.3
		c-2.8-2.8-4.3-6.8-4.1-10.8c0-3.7,1.5-7.3,4.3-9.8c2.7-2.7,6.3-4.1,10.1-4.1c3.7,0,7.2,1.6,9.7,4.4
		C1325,255.1,1326.5,259,1326.4,262.9z"/>
	<path class="st0" d="M914.1,356.8c-10.8-1.3-29.7-3-34.4-47.4c0,32.3,10,49,32.3,50.7C912.5,359.9,915.4,359.9,914.1,356.8z"/>
	<path class="st0" d="M1446.5,388.4c-3.2-0.2-6-2.1-7.2-5.1c-1.7-2.8-2.7-6-2.8-9.4c0.3-4.9,1.8-9.6,4.3-13.8
		c12.5,0.3,24.8-3.5,35.1-10.8c10.5-6.8,16.7-18.4,16.7-30.9c1.3-8.4-4.5-16.2-12.9-17.5c-1.6-0.2-3.2-0.2-4.8,0
		c-15.9,1.2-30.4,9.7-39,23.1c-10.5,11.9-16.7,27.1-17.3,43c-0.2,6.7,2.3,13.2,7,18c4.6,4.9,11.1,7.5,17.7,7.2
		c15.5,0,41.5-21.5,47.7-32.3C1490.9,360.9,1464.5,388.3,1446.5,388.4z M1474.6,305.7c3.8,0,5.7,1.8,5.7,5.4
		c-0.8,10.3-4.8,20.1-11.3,28.2c-8.2,11.4-16.3,17.1-24.1,17.1h-2.4C1455.9,322.6,1466.6,305.7,1474.6,305.7z"/>
	<path class="st0" d="M1094,313.4c-3.8,5.4-57.5,48.4-67.9,16.8h1c13.2,30.2,64.5-23.2,73.5-25.2L1094,313.4z"/>
	<path class="st0" d="M1249.1,301.1c-8.7,0-13,5.7-13,17.1c0.4,8.4,4.3,16.1,10.8,21.5c-4.6,10.5-10.3,20.5-17,29.8
		c-9.8,12.9-18.2,19.4-25.4,19.4c-2.7,0-4-1-4-3l34.4-83.3h-19.7c-22.7,56.1-39.1,84-49,83.8h-1.5c-0.1-0.3-0.1-0.6,0-0.9
		c3.1-12,7.7-23.7,13.6-34.6c6.7-12.1,11.2-25.3,13.6-38.9c0-6.2-3.9-9.4-11.7-9.4c-9.5,0.6-18.2,5.8-23.2,13.9
		c-7.6,10.8-14.6,32.3-25.6,28.5v2.2c11.9,2.5,19.4-11.4,26.5-22.8c7.1-11.4,12.2-17.1,15.5-17.1c1.1-0.2,2.2,0.5,2.4,1.7
		c0,0.2,0,0.5,0,0.7c-2.8,11.5-7.2,22.6-13,33c-6.6,11.7-11,24.4-13,37.6c0.1,3.4,1.4,6.7,3.7,9.2c1.9,2.7,5,4.4,8.4,4.5
		c6-0.9,11.5-4.1,15.1-9l11.7-15.1c-1,2.7-1.4,5.5-1.4,8.4c-0.2,4.3,1.6,8.5,4.8,11.4c3.4,2.9,7.7,4.5,12.2,4.3
		c11.1,0,23.4-10.5,37-31.5c10.4-13.8,17-30.1,19-47.2C1259.5,305.3,1256.1,301.1,1249.1,301.1z M1249.1,337.6
		c-8.4-8.4-11.4-22.7-3-27.5c10-6.2,11.5,12.6,2.6,27.2L1249.1,337.6z"/>
	<path class="st0" d="M1129.2,301.1c-10.7,0-16,7.6-16,22.8c-0.3,10.2,6.7,19.2,16.7,21.5c-3,8.8-7.4,17-13,24.4
		c-7.2,10-14.3,15.1-21.5,15.1s-10.8-4-10.8-12c1-13.2,4.7-26.1,10.8-37.9c5.1-12.6,12.4-24.2,21.5-34.2c-0.8-0.5-1.7-0.8-2.7-1
		c-10.8-0.6-23.2,7.9-33.8,23.4c-8.5,12-13.4,26.2-14,40.9c0,6.6,2.1,13.1,6,18.4c3.4,5.8,9.6,9.5,16.3,9.7c13.6,0,25.6-9.5,36-28.5
		c8.7-14.1,13.5-30.3,14-46.9C1139.5,306.3,1136.3,301.1,1129.2,301.1z M1130.8,343.5c-9.7-3.1-15.4-13.1-13.2-23
		c0.1-4.7,2.9-8.9,7.2-10.8c12.3-3.4,13.3,13.4,6.1,34.4L1130.8,343.5z"/>
	<path class="st0" d="M1052.5,303.8c-6.4,0.2-12.5,3.2-16.7,8.1c-4,5-7.6,10.4-10.8,16c1.4-5.3,2.4-10.6,3-16c0-2.7-0.9-5.2-2.7-7.2
		c-1.6-2-3.9-3.2-6.5-3.5c-4.5-0.9-13.1-1.2-25.9,15.5c-5.9,7.7-18.7,24.5-28.2,37.4c-8.3,10.1-17.9,19.1-28.5,26.9
		c-4.6,5-11.1,7.8-17.9,7.7c-3.2-0.2-6-2.1-7.2-5.1c-1.7-2.8-2.7-6-2.8-9.4c0.3-4.9,1.8-9.6,4.3-13.8c12.5,0.3,24.8-3.5,35.1-10.8
		c10.5-6.8,16.7-18.4,16.7-30.9c1.3-8.5-4.6-16.5-13.1-17.7c-1.5-0.2-3-0.2-4.5,0c-15.9,1.2-30.4,9.7-39,23.1
		c-10.6,11.9-16.7,27.1-17.4,43c-0.2,6.7,2.3,13.2,7,18c4.6,4.8,11,7.4,17.6,7.2c10.2-0.2,19.9-4,27.5-10.8
		c7.8-6.7,15-14.2,21.5-22.2c6.1-7.3,19.1-22.5,28.2-34.5s15.4-17.9,18.6-17.9c0,0,3.1,0,2.7,2s-23.1,57.7-34.1,82.7h20.6l12.7-32.3
		c3.4-10.2,8.2-19.9,14.3-28.8c1.9,3.2,5.3,5.3,9,5.4c6.4-0.1,12.4-2.8,16.9-7.3c5-4.2,7.9-10.4,7.9-17
		C1060.5,306.7,1057.8,303.8,1052.5,303.8z M946.4,305.8c3.8,0,5.7,1.8,5.7,5.4c-0.9,10.3-4.8,20.2-11.4,28.2
		c-8.2,11.4-16.3,17.1-24.1,17.1h-2.5C927.5,322.7,938.3,305.8,946.4,305.8z M1048.4,327.4c-4,4.6-10,6.9-16,6
		c-2.1-0.6-3.9-2-5.1-3.9c10.8-13.9,14.2-18,18.4-19.6s6.9,1.4,6.7,5.8c0.5,4.4-1,8.7-4.2,11.7L1048.4,327.4z"/>
	<path class="st0" d="M1838.1,390.2h-19.4l32.3-82.5c0.2-0.3,0.2-0.6,0-0.9c-0.7-0.2-1.4-0.2-2,0c-1.9,0.2-3.7,1.1-5.1,2.4
		c-12.1,10.4-22,23.2-29.1,37.5c-4.2,8.3-10.5,23-18.7,44h-20.5c6-14.3,11.9-28.7,17.7-43c6-13,10.9-26.4,14.7-40.2v-0.8
		c-0.4-0.1-0.9-0.1-1.3,0c-3.8,0-21.5,17.5-23.6,18.6c1.6-2.7,1.7-1.4,7.7-9.7c8.5-9.8,15.8-15.6,23.9-15.6c6.2,0,9.4,3.3,9.4,10.1
		c-0.9,9.3-3.4,18.3-7.3,26.8c14.9-24.6,28-36.9,39.1-36.9c3.3,0,6.6,1,9.2,3c2.6,1.7,4.2,4.6,4.2,7.7c-1.3,9.2-4.2,18-8.7,26.1
		c16.7-24.6,30.2-36.9,40.4-36.9c3.2,0.1,6.3,1.5,8.5,3.9c2.4,2.1,3.8,5.1,3.9,8.3c-2.5,13.1-7.1,25.8-13.8,37.4
		c-6.1,10.9-10.8,22.6-13.8,34.7c0,0.7,0.3,1.3,0.8,1.7c0.4,0.4,1,0.7,1.6,0.6c4,0,9.5-5.7,16.3-17.1c6.9-11.4,18-29.1,18.4-29.8
		l1.7,1.9c-10.8,16.6-12.2,25.4-19.6,35.6c-8.7,12-15.6,14.4-21.5,14.4c-3.5,0-6.9-1.2-9.7-3.3c-2.9-1.8-4.7-5-4.7-8.4
		c2.3-13.2,6.6-26.1,12.7-38.1c5.8-10.9,10.3-22.5,13.6-34.4c0-0.4-0.2-0.8-0.5-1.1c-0.5-0.2-1-0.2-1.5,0c-4.7,0-13,8.3-25.1,24.8
		c-8,10.3-14.9,21.4-20.4,33.2L1838.1,390.2z"/>
	<path class="st0" d="M1911.4,424.2l30.3-72.7c4.6-10.1,17.5-43,17.7-44.3s-1.1-1.1-1.7-1c-3.2,0-9.4,6.3-18.7,17.1
		c-5.3,5.6-10.2,11.5-14.6,17.7l-1.7-1.9c10-14.3,15.8-22.7,18-24.8c6-8.3,15.2-13.7,25.4-14.7c6,0,9,3.3,9,10.1
		c-0.9,9.3-3.4,18.3-7.3,26.8c14.9-24.6,28.7-36.9,41.5-36.9c7.2,0,11,7.2,11.4,21.5c-0.6,16-5.8,31.5-15.1,44.5
		c-11.4,17.2-23.9,25.8-37.4,25.8c-7.5,0.4-14.8-1.8-20.8-6.3l-16.2,39.5L1911.4,424.2z M2006.6,306c-0.1-0.8-0.7-1.5-1.5-1.6
		c-0.7-0.3-1.5-0.3-2.3,0c-12.9,8.4-23.5,19.9-30.8,33.6c-8.7,13.1-16,27.1-22,41.6c3.1,4.5,8.4,6.9,13.8,6.3
		c7.7,0,17.2-11,28.4-32.9c10.7-20.8,15.6-35.5,14.7-44c-1.3-12.8,0-2.4,0-3H2006.6z"/>
	<path class="st0" d="M2274.4,256.6l-18.4,44.5l17.4-0.6v4.7l-19.8,0.6l-17.4,41c-5.7,12-10.4,24.4-14,37.2l0.6,1.7
		c0.9,0.8,2,1.3,3.2,1.4c6.5,0,19.6-10.8,34.1-33.7l3.7,1.4c-16,24.9-29.4,37.3-41.1,37.3c-3.8,0-7.5-1.6-10.2-4.3
		c-2.8-2.4-4.4-6-4.5-9.7c1.8-12.2,5.4-24,10.8-35.2l15.4-36.2l-9.4,0.6v-5.3h11.4l19-45.3L2274.4,256.6z"/>
	<path class="st0" d="M2073.6,307c-12.6,8.2-76.8,135.8-127.5,77.8c0,0,1.8,0,1.6-0.8c53.8,51.1,97.5-66.7,128.5-80.5L2073.6,307z"
		/>
	<path class="st0" d="M2105.2,300.1c-10.8,0-16.1,7.6-16.1,22.9c-0.3,10.3,6.8,19.3,16.8,21.5c-3,8.8-7.4,17.1-13.1,24.5
		c-7.2,10.1-14.3,15.2-21.5,15.2s-10.8-4.1-10.8-12.2c1-13.3,4.7-26.2,10.8-38.1c5.1-12.6,12.4-24.2,21.5-34.3
		c-0.8-0.5-1.7-0.8-2.7-1c-10.8-0.6-23.3,7.9-33.9,23.6c-8.2,12.3-12.7,26.6-12.9,41.4c0,6.7,2.1,13.1,6,18.5
		c3.4,5.9,9.6,9.6,16.5,9.8c13.6,0,25.7-9.5,36.2-28.6c8.7-14.2,13.6-30.4,14.1-47.1C2115.8,305.5,2112.2,300.1,2105.2,300.1z
		 M2106.8,343.2c-9.8-3.1-15.5-13.1-13.3-23.1c0.1-4.7,2.9-8.9,7.2-10.8c12.3-4.3,13.3,12.7,6.1,33.4V343.2z"/>
	<path class="st0" d="M2305.8,306c0.3-6.4,2.5-12.6,6.3-17.7c2.5-3.3,4.5-6.9,6-10.8l-1.3-1.3c-8.3,9-15.5,19-21.5,29.7
		c-13,19.8-33.6,44.1-35.3,47.1l3.7,1.3c15.3-21.5,20.3-19.1,28.8-31.4c0.2,7.2,1.1,14.4,2.7,21.5c1.5,6.8,2.4,13.7,2.7,20.6
		c0,5-1.2,10-3.7,14.4c-1.7,4.5-5.9,7.7-10.8,8.1h-0.6c5-3,7.9-8.5,7.7-14.3c0-3.3-1.3-6.6-3.7-8.9c-2.2-2.5-5.4-3.9-8.7-3.9
		c-4-0.2-8,1.3-10.8,4.2c-5.9,6.9-5.2,17.3,1.7,23.2c3.1,2.7,7.2,4.1,11.3,4c10.4-0.4,19.8-6.1,25.1-15.1c6-8.4,9.3-18.5,9.4-28.8
		c-0.4-7.3-1.8-14.6-4.3-21.5C2308.1,319.8,2306.4,313,2305.8,306z M2278,387.1c-10,1.9-12.5-7.5-9.1-14.1c2.8-5.1,9.2-7,14.3-4.3
		c2.2,1.7,3.4,4.5,2.9,7.3C2285.9,381,2282.7,385.4,2278,387.1z"/>
	<path class="st0" d="M2272.4,390.6c3.2,2,37.7,5.8,63.8-32.9c-13.3,16.6-32.6,27.2-53.8,29.5C2282,388.5,2273.1,389.8,2272.4,390.6
		z"/>
	<path class="st0" d="M2230.2,316.7c-3.5,5.2-53.8,41.9-63.3,12h0.9c12.5,28.6,58.1-12.4,64.5-18L2230.2,316.7z"/>
	<path class="st0" d="M2193.1,302.1c-6.4,0.2-12.5,3.2-16.7,8.1c-4,5.1-7.6,10.5-10.8,16.1c1.5-5.3,2.6-10.7,3.3-16.1
		c0-2.7-0.9-5.2-2.7-7.2c-1.6-2-3.9-3.2-6.5-3.5c-4.4-0.9-13.1-1.2-26,15.5c-5.9,7.7-14.9,34.3-27,27.7l-3.7,1.4
		c17.6,7.3,20.9-8.3,29.9-20.3s15.5-18.1,19.2-18.1c0,0,3.1,0,2.7,2s-23.1,57.7-34.1,82.8h19.1l12.7-32.3
		c3.4-10.2,8.3-19.9,14.4-28.8c1.9,3.2,5.3,5.3,9,5.4c6.4-0.2,12.4-2.8,16.9-7.4c4.9-4.1,7.7-10.1,7.9-16.5
		C2201.1,305,2198.5,302.1,2193.1,302.1z M2189.2,325.6c-3.9,4.5-9.7,6.7-15.6,5.9c-2.1-0.6-3.9-2-5.1-3.9
		c10.8-14,14.2-18,18.4-19.6c4.2-1.6,6.9,1.4,6.7,5.8C2193.7,318.2,2192.1,322.4,2189.2,325.6z"/>
	<path class="st0" d="M1766.2,167.9c9.1,0.5,17,6.4,20,14.9c3.8,8.3,5.8,17.3,5.7,26.5c-1.3,26.4-7.8,52.4-19,76.4
		c-10,24.7-23.2,48-39.4,69.3c16,30.1,40.5,54.7,70.4,70.9c-30.8-14.2-56.7-37.2-74.5-66.1c-11.7,15.9-27.9,28.1-46.5,34.8
		c-18.3,7.3-37.8,10.9-57.4,10.8c-17.7,0.3-35.2-4-50.8-12.4c-16.4-7.2-27.1-23.3-27.3-41.2c0-19.3,11.2-36.7,28.7-44.8
		c16.9-9,35.9-13.4,55.1-13c12.5-0.4,24.8,2.6,35.7,8.7c11.1,5.9,17.9,17.5,17.7,30.1c-0.1,14.1-8.5,26.8-21.5,32.3
		c-12.6,6.7-26.8,9.9-41.1,9.4c-22.4-0.4-43.4-11.1-56.9-28.9c15,16.4,36.4,25.4,58.6,24.5c12.5,0.3,24.9-2.5,36-8.4
		c11.5-5.3,18.8-16.8,18.7-29.5c0.2-11.4-6.7-21.7-17.3-25.8c-10.1-4.7-21.1-7-32.3-6.7c-17.4-0.3-34.5,4-49.7,12.4
		c-15.8,7.4-26,23.4-26,40.9c0.5,15.6,9.9,29.5,24.1,35.8c13.3,8,28.6,12.1,44.1,12c38.9,0,71.9-19.5,98.8-58.6
		c-9.3-19.3-14.1-40.5-14-61.9c0.2-23.5,5.1-46.7,14.3-68.3C1732.8,182.5,1748,167.9,1766.2,167.9z M1761.5,173.9
		c-8,0-16.9,7.7-26.7,23.1c-15.5,24.7-23.3,53.4-22.7,82.6c-0.6,19.5,3.5,39,12,56.6c12.7-22.7,23.5-46.5,32.3-71
		c10.3-23.4,16.8-48.2,19.4-73.7c0-11.8-4.7-17.6-14.2-17.6H1761.5z"/>
</g>
<g id="Layer_3">
	<path class="st0" d="M872.2,700.4v-4.5c-2.4,11.2-11.3,19.9-22.6,22.2c-4.9,1.1-10,1.1-14.8,0c2.2,1.8,4.7,3.2,7.3,4.3
		c8.9-2.6,20.6-2.4,25.9-11.9C868.6,706,871.7,704.4,872.2,700.4z"/>
	<path class="st0" d="M866.9,693.9c2.6-11-1.6-22.5-10.8-29.1c-1.9,1.4,0,5.5-0.6,8l4.4,7.6l-1.5,11.8c-5.1,7.2-16.2,2.6-24.3,1.5
		c-1.1,2.2,3.2,3.2,1.2,5.6l-24.1-11.7c3.2,12.2,15.7,19.1,26.2,25.6c9.5-1.9,20.2-3.1,25.8-11.7C864,697.7,866.7,697,866.9,693.9z"
		/>
	<path class="st0" d="M857.9,659.9l-27.4-8.1c0.8-5.1-0.3-10.4-3-14.8l-8.9-7.5l9.6,16.6l-0.8,7.2c0.8,1.7,0,0,1.4,2l29,4.9
		L857.9,659.9z"/>
	<path class="st0" d="M851,683.6c-3.5,2.3-7.7,3.3-11.9,3c-0.6,3.2,4.7,2.6,7,3.3C848.3,690.7,852.5,683.4,851,683.6z"/>
	<path class="st0" d="M829.1,725.8c-1.8,3.8-5.4,3.7-8.1,6.8c3.8-0.6,6.9-3.2,8.3-6.8H829.1z"/>
	<path class="st0" d="M819.2,721.3v-9.1c-1.4-2.3-3.6-4-6.2-4.6c-1-0.1-1.9,0.4-2.5,1.2c-0.8,1.9,0.8,2.2,1.3,4.6
		c0.5,2.5-3.8,3.2-6.7,4.7c-2.9,1.5-1.9-1.7-4.5-2.3c-1-0.2-1.9-0.2-2.9,0c-2,1.4-1.8,5.5-0.9,8.6c3.1,2.9,6.8,8.6,13.2,7.4
		C814.7,730,818.1,726.1,819.2,721.3z"/>
	<path class="st0" d="M822.9,653l-4.3-13.9L799,626.6c-0.9-0.1-1.9,0.2-2.5,1l1.2,6.2l10.8,9.5l4.3,9.1c0.1,1-0.2,1.9-0.8,2.7
		c-5.2,6.1-13.7,0-20.5,0c-1.6,0.2-2.9,1.4-3.2,2.9c-0.1,1.5,0.4,3.1,1.3,4.3c6.9,4.3,18.2,10.8,26.6,4.5L822.9,653z"/>
	<path class="st0" d="M800.2,690.3v-8.9c-0.6-0.9-1-2.5-2.9-3c-1-0.1-2,0.4-2.6,1.3c0,8.5-1.1,20.6-9.2,25.7
		c-4.8,3.5-11.3,3.5-16.1,0c-2.7-1.4-5.1-3.2-7.3-5.3l-4.8-16.5c-0.1-1.2,0.4-2.3,1.2-3.1l17.9-5.4c-3.2-4.7-11.7-3.4-17.4-1.1
		c-1.8,1.3-4,1.2-5.8,2.3c-8.7,15.6-6.8,35,4.7,48.6c9.1,2,18.7,0.7,26.9-3.9C793.3,715.9,797.2,702,800.2,690.3z"/>
	<path class="st0" d="M801.4,613c0-4.8,1.7-12-2.3-16.3c0,0-1.6-0.6-2.5,0l1.8,10.8c-2.2,6.2-10,6.8-16.6,8H779c-1.9,0,0,1.9,0,3.5
		c4.3,1.8,9.5,6.9,16.1,4.2C798.5,620.7,800.8,617.1,801.4,613z"/>
	<path class="st0" d="M781.7,647.8c1.4-10.2-2.7-20.4-10.8-26.9c-4.2-4-9.6-6.4-15.4-6.8c5.4,3.8,14.1,7.2,16.3,15.3
		c1.8,10.8-6.8,16.5-10.8,23.1c-8.1,6-19.4,0-27.5-2.8c-7.5-4.9-17.4-9.9-17.7-20.3c-0.8-3.1,1.1-4,0-6.1l-2.2,1.4l-0.5,20.5l6.9,8
		c0.1,0.9-0.3,1.8-1.1,2.4c-2.5,0-5.4-2.7-8.3-1.3c3.9,9.2,17.1,16.6,11.7,30.3c-4.9,6.8-13.4,10-21.5,8c-1.6-0.2-3.1-0.8-4.5-1.6
		l-13.9-18.8l3.3-6c3.6-1.7,7.6-2.3,11.6-1.8c1.8-1,3-2.7,3.4-4.7c-0.2-1.1-0.9-2-1.9-2.5c-7.4-1.6-15.1,0.7-20.4,6
		c-6.7,8.3-7.9,19.8-3.1,29.4c4.8,8.9,13.5,15,23.6,16.3c9.2-0.1,17.9-4,24.1-10.8c4.9-11.3,5.4-24,1.3-35.6l23,6.8L777,656
		L781.7,647.8z"/>
	<path class="st0" d="M779.1,586.7c-1.2-7.6-3.1-15.1-10.8-17.9c-7.6-2.8-14.1-6.2-19.7-1.7c7.2,5.9,22.9,3,26.2,16.3
		c0,5.9-6.2,6.7-10.8,9.1c-7.2,0.8-14.4-1.5-19.8-6.5c0-2,0-4-3.2-4.7c-1,0-2,0.5-2.5,1.4v7.3l5.3,9.2c3.1,6.6,13.7,5.4,20.9,4.2
		c4.8-2.3,10.8-4.3,12.5-9.8L779.1,586.7z"/>
	<path class="st0" d="M766.2,632.1v-1.6c0-3.1-3-4.9-5.4-7.3c-3,2.3,2,4.9,2.3,8.7c0.2,3.8-5.8,6.1-8,9.9c0.6,0,1,1.1,1.6,1.4l6.7-4
		L766.2,632.1z"/>
	<path class="st0" d="M732.6,569.3c0-3.8,1.3-7.6-1.1-10.8h-2.6c0,2.6,2.5,4.1,0.8,7.3c-1.7,3.2-7.5-1.1-11.7-0.6
		c-4.2,0.4-5.7-4.9-6.8-9.2c0.1-1.1,0.6-2.2,1.4-3c2.6-2.3,7,0,10.8,0c0.9,0,0.9-1.4,0-2.4c-3.5-2.3-8-2.5-11.7-0.6l-6.2,18.6h-9.8
		c-0.9,0.6-4.1,1.3-1.7,3c9.8,1.4,17.9,8.3,21,17.6c0.7,5.8-1.2,11.6-5.1,15.9c-10.8,4.5-27.5,9-38.4,0c-5.2-5.6-9.9-9-10.8-14.7
		c-0.9-5.7,8.5-8.3,14.1-10.8c5.4,0,8.7,3.3,13.1,1.8c0.9-0.6,2.6-1,3.2-2.9c-1.3-3.7-6.9-3.2-9.5-6.6c0-3.1,3.3-3,4.6-5.5l6.7-4.3
		l10.8-24.6c0-0.8,0-1.8-1.4-1.9l-19.5,23.6c-3.7,3.7-9.6,3.7-13.2,0l0,0c0-2.4-3.9-2.9-5.6-4.4l-3.1-6.3c-0.1-1-0.1-2.1,0-3.1
		c0.4-1.1,1.1-2.1,1.9-2.8l18-5.1c0-0.6,0.6-1.4,0-2.4l-19.4,2.3c-7,8.2-9.4,19.4-6.5,29.8l8.3,9.6l-7.4,10.1
		c-0.8,4.9-1.1,9.9-1.2,14.9c-3.2,3.1-9.4-2.9-13.1,0.6c-2.2,3.1-3.4,6.9-3.3,10.8c2.6,4.7,7.9,7.3,13.2,6.2
		c2.4-0.8,4.9-1.4,7.4-1.8c7.5,8.4,21.5,7.4,32.3,5.8c10-0.8,19.1-6.3,24.3-14.9c4.7-8.8,4.7-19.4,0-28.2c-2.5-5.2-7.2-5.5-8.5-9.6
		l18.2,5.6c3.3-0.9,6-3,7.6-6L732.6,569.3z"/>
	<path class="st0" d="M681.8,640.8l-1.7-5.5c-3.2,2.4,0,9.8-5.4,12.4c-8.5,3.6-18.1,3.4-26.3-0.8c-3.1,0.8,0,6.3,1.1,8.3
		c7.5,4.8,17,5.3,24.9,1.2C679.3,652.8,682.1,646.9,681.8,640.8z"/>
	<path class="st0" d="M652.6,688.3l-8.7,12.7l-18,1.9c-1.8,1.8-1.6,0-1.1,2.6c7.6,3.5,16.5,1.7,22.2-4.4
		C648.8,696.1,652.2,692.5,652.6,688.3z"/>
	<path class="st0" d="M646.4,682l-3.8-22.5c0-0.6-0.9-0.9-2.3-1.7c-1.4-0.9-2.5,0.8-3.2,3c0.3,8-2.8,15.9-8.5,21.5
		c-7.5,4.3-18.1-1.8-24.8-6.2c-4.9-3.7-8.3-9.1-9.6-15.2c0-1.1,1.1-2.4,3.2-2.5c5.4,3,9.8-0.8,16.8,0.9c6.6-3.3,12.4-1.5,16.7-6.3
		c4.1-9.3,3.2-20.1-2.5-28.5c-2.9-4-3.7-4.9-6.8-6l-2.9,24.6c-11,2.6-22.6,0.7-32.3-5.3c-4.9-4.8-9.1-10.4-12.3-16.5
		c1.4-6.4,6-11.6,12.3-13.7c5.1-2.4,8.8-3.1,11.7-7.6c-0.6-4.9-8.8,0.6-12.9,0.8c-8.2,3.9-14,11.6-15.4,20.5
		c0,21.5,21.5,29,21.5,52.3c4.9,14.5,18.8,20.2,33.6,25.1c7.6,1.5,11.8-6.9,17.1-8.4L646.4,682z"/>
	<path class="st0" d="M648.4,565.8l-4.9-23.9l-16.3-4.2c6,3.7,14.6,6.3,16.9,14.8c1.8,9.8-1.8,19.9-9.5,26.3
		c-6,2.5-10.8,7.3-16.7,3.9c-4.9-5.7-10.6-10.7-16.8-14.8c-0.7-0.9-1.2-2-1.4-3.1c6.1-7.2,14.7-11.6,24.1-12.5c1.2,0,1.2-1.5,0-2.9
		h-16.5c-0.6-0.7-0.9-1.6-0.8-2.5l7.9-8c-1.1-0.2-2.2-0.6-3.2-1.1V533c-5.8,2.3-10.8,12.8-21.5,10.8c-5.2-2-9.9-4.9-14-8.7
		c-1-1.2-1.8-2.6-2.3-4.1l4.4-8.7c8.9-4.4,19.3-4.4,28.2,0c1.2,0,2.5-0.6,2.9-2.9c-3.8-7.2-15.3-7.6-23.4-5.5
		c-6,1-11.1,5.1-13.4,10.8c-4.4,8.6,0,16.6,1,23.8c-7.7,0-19.8-8.2-28,0c-8.4,12.7-10.5,28.6-5.6,43c6.3,10.8,22.8,10.8,35.6,10.8
		c2.6,0,1.9-5.4,4.6-7.1c4.6-1.9,5.8-7.7,7.7-13l-6.7-15.8c-4,6-7,14.8-15.4,17.7c-7.9,1.4-16-1.2-21.5-7c-0.4-1-1-2-1.5-3l5.4-22.4
		c8.3-5.4,18.8,0,26.7,3c0.3-0.8,0.6-1.7,0.8-2.6l17,4.8c4,0,5.1-2.7,9.1-4.2c-4.7,12.4-4.3,26.1,1.1,38.2
		c9.3,3.9,19.8,4.1,29.3,0.6C640.5,585.6,646.6,576.3,648.4,565.8z"/>
	<path class="st0" d="M578.2,672.5c-0.9-2.5-4.8-4.2-5.4-7.9v-3.2l-16.6,19.5c0,1.2,0.6,2.5,2.2,1.9l12.5-9.8c2.5-0.9,4.7,2.7,7.3,0
		V672.5z"/>
	<path class="st0" d="M567.6,686.5h-20.9c-2.7,1.4,3.8,2.6,5.7,3.4c5.3-0.7,10.6-1.8,15.8-3.1L567.6,686.5z"/>
	<path class="st0" d="M565.8,658.5l-7.6-17.1h-2.9L556,655c-5.7,5.4-13.8,7.6-21.5,5.7c-8.1-3.3-14.8-9.2-19.1-16.8l0.9-9.5
		c7.4-7.6,21.5-6.1,32.3-5.6l-14.7-7c-3.2,0,0-3.3-2.2-5.8c-0.4-0.7-1-1.3-1.7-1.7l-9.4,6.7c-4.6-0.1-8.7-3.2-10-7.6
		c1-2.7,3.2-4.8,6-5.5c2.7-1,6.7,2.3,8.6,0c-1-3.7-7.6-3.9-10.8-2.9l-3.5,2.2c-3.4,3.9-4.3,9.4-2.3,14.2c2.3,3.5,4.3,4.5,5.1,6.8
		c-5.7,9.4-6.4,21-1.7,31c5.4,6.9,11.7,13.1,18.7,18.4c8.7,1.9,17.8,0.4,25.4-4.3c4-4.1,6.8-5.3,7.9-8.7l1.8-6.3L565.8,658.5z"/>
	<path class="st0" d="M447.7,571.3c1.2-5.6,11.5-9.7,16.2-13.4c3.8-1.5,8.1-0.4,10.8,2.7c2.7,3.6,3.8,8.1,3.1,12.5
		c1.9-5.9,0.8-12.4-3-17.3c-3.1-3.5-8-4.7-12.4-3.2c-5.7,4.6-18.1,9.4-19.4,16c-2.6,13.2,3.8,17.1,10.8,17.5h2.6
		C450.4,585.2,445.6,581.8,447.7,571.3z"/>
	<path class="st0" d="M492.3,573.6c0-0.8,0-2,0-2.5c-0.4-13.1,5.7-25.6,16.2-33.4c2.4,1.2,4.8,2.2,7.3,3c2.3,1.8,4.1,4.2,5.3,7
		c-1.1-4.8-3.8-9.1-7.6-12.2c-3-1-5.9-2.2-8.7-3.7c-12.9,9.3-20.4,24.3-20,40.2c0,1,0.2,2,0.6,2.9c4.8,6.6,15.4,3.9,21.5,2.7
		l2.6-1.6C504.3,577.1,496.2,578.8,492.3,573.6z"/>
	<path class="st0" d="M505.4,674.3c0-0.9,0.3-1.8,0.8-2.6c-3.7-6.9-0.6-16.1-7.7-20c-2.2-0.7-4.6-1.1-6.9-1.3l3.5,6.9l-4.7,9.7
		c-5.8,1.9-8.9-1.8-13.3-4.4c-3.7,0-6.6-3.9-7.9-8.2c-1.2-3.3-0.7-7,1.4-9.9c5.2-7.4,16.6-3,25.4-6.6c2.5-1.1,0-4.7,1.2-7.1
		s2.9-6.6,3-10.8c0.1-4.2-3.2,0-4.4,1.3c-1.2,1.3-3.7,1.3-6,1.2s-5.7-4.5-8.1-7.7c0-4.8,10.1-2.6,13-4c0-2.4-2.7-1.8-4.2-3.5h-6.6
		c-3.4,1.1-6.2,3.6-7.6,6.9c0,6.3,5.8,9.1,8.5,15.3c-7.6,2.5-16.7,4.7-18.8,12.6c-5.7,11.8-2.7,26,7.2,34.5
		c5.5,5.9,13.8,8.3,21.5,6.1l10-6.1L505.4,674.3z"/>
</g>
</svg>
