<svg xmlns="http://www.w3.org/2000/svg" viewBox="0 0 252 144"><defs><style>.cls-1{fill:#fff;}.cls-2{fill:#c4cbb8;}.cls-3{fill:#9e0b0f;}.cls-4{fill:#b8bc9b;}.cls-5{fill:#a13229;}.cls-6{fill:#231f20;}</style></defs><title>img-9-iberowine-sec-1</title><g id="Layer_5" data-name="Layer 5"><rect class="cls-1" width="252" height="144"/></g><g id="reusable_Items" data-name="reusable Items"><rect class="cls-2" y="132.78" width="252" height="11.21"/><rect class="cls-2" x="71.43" y="107.26" width="3.46" height="7.41"/><rect class="cls-2" x="238.39" y="107.26" width="13.61" height="7.41"/></g><g id="Text"><path class="cls-3" d="M83,109.79H80.57v.78H82.9a1.14,1.14,0,0,1,.75.18.91.91,0,0,1,.19.68v.5a.89.89,0,0,1-.2.67,1.15,1.15,0,0,1-.75.18H80.58a1.19,1.19,0,0,1-.76-.18.88.88,0,0,1-.2-.67v-.1l.78-.14v.42h2.66v-.83H80.72a1.14,1.14,0,0,1-.75-.18.91.91,0,0,1-.2-.68V110a.9.9,0,0,1,.2-.67,1.14,1.14,0,0,1,.75-.18h2.13a1.19,1.19,0,0,1,.75.17.77.77,0,0,1,.2.61V110l-.77.17Z"/><path class="cls-3" d="M89.79,112.77l2.15-3.62h.85L95,112.77H94l-.46-.8H91.13l-.45.8Zm1.71-1.45h1.66l-.84-1.51Z"/><path class="cls-3" d="M101,112.77v-3.62h.89v3h2.83v.67Z"/><path class="cls-3" d="M110.81,112.77v-3.62h3.87v.64h-3v.78h1.73v.63H111.7v.91h3v.67Z"/><path class="cls-3" d="M124.45,109.79H122v.78h2.34a1.14,1.14,0,0,1,.75.18.91.91,0,0,1,.19.68v.5a.89.89,0,0,1-.2.67,1.15,1.15,0,0,1-.75.18H122a1.18,1.18,0,0,1-.76-.18.88.88,0,0,1-.2-.67v-.1l.78-.14v.42h2.66v-.83h-2.33a1.14,1.14,0,0,1-.75-.18.91.91,0,0,1-.2-.68V110a.9.9,0,0,1,.2-.67,1.14,1.14,0,0,1,.75-.18h2.13a1.18,1.18,0,0,1,.75.17.77.77,0,0,1,.2.61V110l-.77.17Z"/><path class="cls-4" d="M135.52,112.53a.92.92,0,0,1-.29.2,1.35,1.35,0,0,1-.43.05h-1.34a1.08,1.08,0,0,1-.77-.21,1.12,1.12,0,0,1-.2-.77v-.27a.85.85,0,0,1,.09-.42,1.16,1.16,0,0,1,.39-.34l.79-.5a1.19,1.19,0,0,1-.26-.31.69.69,0,0,1-.08-.32v-.23a.7.7,0,0,1,.21-.58,1.22,1.22,0,0,1,.74-.17h.77a1.16,1.16,0,0,1,.76.18.85.85,0,0,1,.2.65v.22l-.55.1v-.65H134v.6l2,1.64,1-.9.35.33-.93.88,1.3,1.07h-.85l-.84-.7Zm-2.45-.28h2l.54-.49-1.47-1.18-1.06.75Z"/><path class="cls-3" d="M144.58,112.77v-3.62h.7l1.77,2.15,1.76-2.15h.71v3.63h-.81v-2.5l-1.62,2.06h-.17l-1.64-2v2.44Z"/><path class="cls-3" d="M155.71,112.77l2.15-3.62h.85l2.18,3.63h-1l-.46-.8H157l-.46.8Zm1.71-1.45h1.66l-.84-1.51Z"/><path class="cls-3" d="M166.89,112.77v-3.62h3.24a1,1,0,0,1,.65.16.66.66,0,0,1,.2.54v.85a.65.65,0,0,1-.2.53,1,1,0,0,1-.65.16h-.49l1.72,1.38h-1.26l-1.52-1.37h-.83v1.38Zm2.87-3h-2v1h2a.55.55,0,0,0,.31-.07.27.27,0,0,0,.09-.23v-.42a.27.27,0,0,0-.09-.22A.53.53,0,0,0,169.75,109.77Z"/><path class="cls-3" d="M177.56,112.77v-3.62h.89v1.46l2.1-1.46h1.27l-2.49,1.68,2.77,1.95h-1.39l-2.27-1.64v1.64Z"/><path class="cls-3" d="M188,112.77v-3.62h3.87v.64h-3v.78h1.73v.63h-1.73v.91h3v.67Z"/><path class="cls-3" d="M200.44,109.79v3h-.87v-3h-1.75v-.64h4.37v.64Z"/><path class="cls-3" d="M208.44,112.77v-3.62h.87v3.63Z"/><path class="cls-3" d="M216,112.77v-3.62h.6l3.07,2.41v-2.41h.8v3.63h-.61l-3.06-2.45v2.45Z"/><path class="cls-3" d="M230.79,109.82H228v2.27h2.75v-.78h-1.44v-.64h2.3v1.26a.91.91,0,0,1-.19.67,1.12,1.12,0,0,1-.74.18H228.1a1.12,1.12,0,0,1-.74-.18.91.91,0,0,1-.19-.67V110a.92.92,0,0,1,.19-.68,1.11,1.11,0,0,1,.74-.18h2.62a1.13,1.13,0,0,1,.74.18.85.85,0,0,1,.2.64v.1l-.86.15Z"/><path class="cls-1" d="M70.55,136.72H67.34v3h3.22v-1.2H68.88V138h2.36v1.33a1.11,1.11,0,0,1-.2.77,1.08,1.08,0,0,1-.77.21H67.61a1.07,1.07,0,0,1-.77-.21,1.12,1.12,0,0,1-.2-.77v-2.18a1.1,1.1,0,0,1,.2-.76,1.07,1.07,0,0,1,.77-.21h2.66a1.11,1.11,0,0,1,.76.2,1,1,0,0,1,.21.72v.1l-.69.13Z"/><path class="cls-1" d="M79.87,140.28l-1.49-4.12h.69l1.11,3.28,1.22-3.28h.42L83,139.43l1.13-3.28h.62l-1.49,4.13h-.51l-1.14-3.12-1.18,3.12Z"/><path class="cls-1" d="M92,140.28v-4.12h4v.56H92.72v1.14h2v.55h-2v1.31H96v.56Z"/><path class="cls-1" d="M103.64,140.28v-4.12h.43l3.08,2.76.22.23.24.29q0-.2,0-.42t0-.6v-2.26h.62v4.13h-.39l-3.16-2.87-.07-.06a1.75,1.75,0,0,1-.35-.4c0,.13,0,.26,0,.4s0,.31,0,.5v2.43Z"/><path class="cls-1" d="M128.78,136.72h-2.92v1.16h2.6a.79.79,0,0,1,1,1v.46a1.11,1.11,0,0,1-.2.77,1.08,1.08,0,0,1-.76.2h-2.41a1.06,1.06,0,0,1-.76-.21,1.11,1.11,0,0,1-.2-.77v-.11l.64-.15v.66h3.06v-1.23h-2.59a1.05,1.05,0,0,1-.76-.21,1.13,1.13,0,0,1-.2-.77v-.36a1.11,1.11,0,0,1,.2-.77,1,1,0,0,1,.76-.21h2.2a1.1,1.1,0,0,1,.76.2,1,1,0,0,1,.21.7v.08l-.59.17Z"/><path class="cls-1" d="M136.68,140.28l2.25-4.12h.74l2.28,4.13h-.75l-.53-1h-2.78l-.53,1Zm1.49-1.55h2.21l-1.11-2.11Z"/><path class="cls-1" d="M150,140.28l-2.24-4.12h.74l1.82,3.44,1.73-3.44h.68l-2.15,4.13Z"/><path class="cls-1" d="M159.82,137.13a1.1,1.1,0,0,1,.2-.77,1.06,1.06,0,0,1,.77-.21h2.85a1.05,1.05,0,0,1,.75.21,1.11,1.11,0,0,1,.2.77v2.17a1.13,1.13,0,0,1-.2.78,1.06,1.06,0,0,1-.75.2h-2.85a1.07,1.07,0,0,1-.77-.21,1.12,1.12,0,0,1-.2-.77Zm.69,2.57h3.41v-3h-3.41Z"/><path class="cls-1" d="M172.65,140.28v-4.12h.69v4.13Z"/><path class="cls-1" d="M181.46,140.28v-4.12h4v.56h-3.28v1.14h2v.55h-2v1.31h3.31v.56Z"/></g><g id="Layer_4" data-name="Layer 4"><path class="cls-2" d="M22.87,48.48a19,19,0,0,1-.09,3.25c-.06.24.08.39.32.65l.32.38a.46.46,0,0,1,.1.4.25.25,0,0,1-.22.18v.19c.12.58-.37.78-.76.94a1.8,1.8,0,0,0-.78.49l-.63,1.16c-.2.45-.33.75-.49.82a46.29,46.29,0,0,0-1.82,4.79A3,3,0,0,1,18,62.79l-.42.4-.57.49a1.72,1.72,0,0,0-.17.15l0,.21a1.43,1.43,0,0,1-.24,1.32,1.25,1.25,0,0,0-.2.75,3.33,3.33,0,0,1-.29,1.23,2.8,2.8,0,0,0-.41,2.09c.1.21.28.23.74.23l.71.05c.38.08.49-.11.67-.65s.34-1,1.23-.85a.84.84,0,0,1,.62.46,1.09,1.09,0,0,1,.1.49,1.52,1.52,0,0,1-.14.63,1,1,0,0,1-.48.44v0c-.05.26-.32.5-.86.73a.94.94,0,0,1-.85.06,1.52,1.52,0,0,1,.12.81s0,.37,0,.55,0,.1,0,.1.21.07,1.05-.36l.31-.17a1.62,1.62,0,0,1,1.34-.26l.63.33,0,.62,0,.25a.67.67,0,0,1-.36.55.68.68,0,0,1-.12.08l.07.12a1.19,1.19,0,0,1,.16.69,10.82,10.82,0,0,1-.67,3,.29.29,0,0,0,0,.13,1.19,1.19,0,0,0,.16.46,8.2,8.2,0,0,1,.12,1.86A17,17,0,0,1,20,83.2l-.76,1.74-.59,1.26a1.09,1.09,0,0,0,.56.23.91.91,0,0,0,.68-.11,3.54,3.54,0,0,1,2.5-.32l.8,0a3.15,3.15,0,0,1,2.6.74c.82,1,1.13,1,1.51.87a3.86,3.86,0,0,0,1-.72,6.66,6.66,0,0,1,1.59-1.17,5.58,5.58,0,0,1,3-.29l.8.07a2.35,2.35,0,0,1,1.19.24l3.14,2.33c.83.7,1.19,1,1,2a1.9,1.9,0,0,0,.11,1.48c.06.13.07.13.22.12a1,1,0,0,1,.79.21l.26.47a.71.71,0,0,1,0,.08,2.43,2.43,0,0,1-.61,1.28,11.64,11.64,0,0,1-1.63,3.07c.88.61,2.11,1.22,2.44.81l.27-.33a3.65,3.65,0,0,1,1.44-1.23l.57-.06c.3.11.43.44.54.72.05.13.16.4.22.4a.78.78,0,0,1,.63.41c.19.25.31.42.9.16.82-.37,1.55-1.61,2.13-2.61l.61-1A1,1,0,0,1,49,93.61a1.48,1.48,0,0,0,1.36-.51,10.56,10.56,0,0,1,5-2.24c.64-.07,2.33,0,4,0,1.48.05,3,.11,3.39,0l1.11-.33,1.75-.48a2,2,0,0,1,1.52.37l.63.32a.85.85,0,0,0,.66,0c.23-.12.44-.46.65-1.1a1.18,1.18,0,0,1,.58-.77,1.41,1.41,0,0,1,1.13.16l.47.17a2.59,2.59,0,0,1,1,.59,2.55,2.55,0,0,0,.5.36l.69-.91.7-.77a11.42,11.42,0,0,0,1.23-2.38,13.36,13.36,0,0,1,1.2-2.37A1.76,1.76,0,0,1,77.82,83c.21,0,.27,0,.34-.22.38-1,3.65-.83,4.16-.74,0,0,.2,0,.21,0l-.1-1.3a1.66,1.66,0,0,1,.05-.64l.45.35a1.2,1.2,0,0,0,0,.29l.06.88c0,.35.08.6-.1.77a.74.74,0,0,1-.66.1c-1-.17-3.45,0-3.62.44a.8.8,0,0,1-.72.53,1.28,1.28,0,0,0-.94.62,13.17,13.17,0,0,0-1.14,2.27,11.39,11.39,0,0,1-1.31,2.51l-.72.79-.61.79a.47.47,0,0,1-.32.27c-.29.06-.59-.18-.94-.46a2.3,2.3,0,0,0-.78-.49l-.57-.2c-.27-.12-.55-.24-.73-.16a.75.75,0,0,0-.31.47c-.26.79-.53,1.2-.9,1.39a1.31,1.31,0,0,1-1,0l-.74-.37a1.47,1.47,0,0,0-1.19-.29L64,91.09l-1.2.36a32.86,32.86,0,0,1-3.49,0c-1.62-.06-3.29-.12-3.89-.05a10,10,0,0,0-4.75,2.12A2,2,0,0,1,49,94.1a.55.55,0,0,0-.66.28l-.59,1c-.62,1.06-1.39,2.38-2.36,2.81s-1.3,0-1.51-.32-.16-.2-.22-.2c-.4,0-.56-.4-.68-.71s-.16-.41-.25-.44l-.17,0a3.16,3.16,0,0,0-1.28,1.1l-.27.33c-.79,1-2.91-.55-3.32-.87l-.2-.15.15-.2a12.54,12.54,0,0,0,1.72-3.17v-.06l0,0a1.9,1.9,0,0,0,.51-1l-.07-.12a.51.51,0,0,0-.44-.11.61.61,0,0,1-.72-.39A2.36,2.36,0,0,1,38.48,90c.11-.66,0-.85-.86-1.54l-3.1-2.3a2.12,2.12,0,0,0-.93-.15L32.71,86a5.17,5.17,0,0,0-2.7.26,6.32,6.32,0,0,0-1.45,1.08,3.56,3.56,0,0,1-1.16.84c-.7.17-1.21-.09-2-1a2.76,2.76,0,0,0-2.21-.57l-.89,0a2.94,2.94,0,0,0-2.12.22,1.66,1.66,0,0,1-1.61,0c-.34-.17-.41-.36-.41-.49a6.06,6.06,0,0,1,.63-1.53L19.49,83a22.51,22.51,0,0,0,.15-4.85,1.11,1.11,0,0,1-.13-1c.19-.39.85-2.77.56-3.14l-.16-.5.33-.42c.09-.06.15-.11.15-.14l.1-.6-.3-.11a1.15,1.15,0,0,0-1,.19l-.34.19c-.66.33-1.45.65-1.69.16l-.09-.91a2.75,2.75,0,0,1,0-.52s-.51-.51-.36-.87a.39.39,0,0,1,.4-.23.54.54,0,0,1,.48.3c.06.1.1.16.51,0s.52-.3.54-.33L18.41,70l.38-.13a.8.8,0,0,0,.4-.29,1,1,0,0,0,.08-.41.64.64,0,0,0-.05-.27.35.35,0,0,0-.27-.19c-.44-.09-.51.06-.68.58s-.36,1.08-1.21.91l-.61,0c-.44,0-.94,0-1.19-.5a1.47,1.47,0,0,1-.13-.65,4.74,4.74,0,0,1,.54-1.89,2.9,2.9,0,0,0,.24-1.06A1.6,1.6,0,0,1,16.25,65a.6.6,0,0,0,.15-.44,2.73,2.73,0,0,0-.05-.44l0-.3c0-.28.17-.41.37-.56l.52-.44.43-.41a2.82,2.82,0,0,0,.73-.85c.38-1.13,1.64-4.85,2-5l.32-.62.7-1.28a2.29,2.29,0,0,1,1-.64c.38-.16.46-.22.46-.32a.33.33,0,0,0,0-.06,1.14,1.14,0,0,1,0-.24.46.46,0,0,1,.3-.46L23,53l-.26-.31a1.31,1.31,0,0,1-.48-.89.93.93,0,0,1,0-.23,13.39,13.39,0,0,0,.09-2c0-.55,0-1.11,0-1.53Z"/><path class="cls-2" d="M89.27,71.1c.52-.36.91-.6.91-1a.28.28,0,0,0,0-.05c-.08-.38-.37-.46-.87-.56l-.3-.06c-.44-.11-1.2-.89-2.26-2.32l-.24-.8a1.6,1.6,0,0,0-.55-1.21,1.83,1.83,0,0,1-.58-1.34,5,5,0,0,1,.81-2.22l2-2.85-1.57,3.09c-.71,1.28-1.11,2.17-.31,3a2.07,2.07,0,0,1,.7,1.54l.14.53c1.11,1.48,1.75,2.07,2,2.13l.28.06c.47.09,1.12.22,1.27.95s-.11.81-.83,1.31Z"/><path class="cls-2" d="M30.39,56.36c0,.05,2.92,3.6,2.87,3.65a36,36,0,0,0-3.8-2.64c-2.49-1.38-5.25-2.52-6.8-1,0,0-2.68,2.46,0,4.25,1,.58,2.91-.37,2.82-1.34-.06-.29-.23-.93-1-.83.8-.29,1.22.43,1.21,1.07a2.43,2.43,0,0,1-3.83,1.1,2.87,2.87,0,0,1-.43-4.13c.83-1.25,2.38-2.6,5.85-1.45A24.2,24.2,0,0,1,30,56.06,2.46,2.46,0,0,1,30.39,56.36Z"/><path class="cls-2" d="M34.53,60.86l1.5-.08c-.09-.31-6.27-7.81-6.27-7.81,1,1.45-9.06-13.46-19.92-9.37,3.37-.55,9.2-3,20.84,12.36C30.65,56,34.53,60.94,34.53,60.86Z"/><path class="cls-2" d="M40.09,67.37c4,3.07,8.22,5.4,12.92,2.23a8.29,8.29,0,0,0,.39-1.4c-2.66,1.8-6.12,2.94-11.15-.94C42.25,67.26,40.85,67.36,40.09,67.37Z"/><path class="cls-2" d="M43.07,60.66c3.16-1.84,7.07-3.24,10.9,1,0,0,0,.41,0,.55-2.28-2.8-5.74-3.65-9.42-1.11A8.14,8.14,0,0,0,43.07,60.66Z"/><path class="cls-5" d="M43.82,62.12c1.69.63,1.3,1.52.2,1.73C45.51,63.06,43.82,62.12,43.82,62.12Z"/><path class="cls-5" d="M37,44c2.94,6,3.07,11.39.76,17.83C40,57.52,42.32,49.51,37,44Z"/><path class="cls-5" d="M46.59,41.77c-5.35,3.62-5.7,13.31-3.2,20.82C40.66,57.06,38.68,46.09,46.59,41.77Z"/><path class="cls-5" d="M32.06,63.33c1.72,3.62,10.25,3.31,13.69,2.16,2.46-.82,2.6-3.13-.77-3.72,4.1.1,3.61,3.53.68,4.41s-12.4,1.67-14.35-1.56c-1.39-2.36,3.37-3.58,6.26-3.48C34.68,61.12,31.56,62.12,32.06,63.33Z"/><path class="cls-5" d="M41,43.08c-7.14,2.3-14.67-5.72-11.31-13.14C28,38.45,35.48,44.72,41,43.08Z"/><path class="cls-5" d="M39.58,28.73c3.45-.79,15.36-3.79,16.29-1.13,1.36,3.88-18.66,6.95-25.46,3.72,7.75,2.43,25.78-1.63,23.95-3.67C52.91,26.06,42.27,28.68,39.58,28.73Z"/><path class="cls-5" d="M55.86,28.85c1.81,7.91-7,14.22-15,12.8C48.49,42.43,56.15,36.53,55.86,28.85Z"/><path class="cls-2" d="M41.5,62.82c-.41-.69.33-.93.77-.67.75.44.26,1.29-1.79,1.42s-3.86-.12-3.62-.88a.69.69,0,0,1,.6-.3c-.46-.07-1.06.3-.8.8s1.9,1.11,4.11.83c2.82-.35,2.55-1.6,1.79-1.93s-1.39-.07-1.26.46A.61.61,0,0,0,41.5,62.82Z"/><path class="cls-2" d="M31,35.49c3.27,2.69,6.29,2.11,9.65,1.77C36.18,37.54,33.84,37.09,31,35.49Z"/><path class="cls-2" d="M42.26,37a14.82,14.82,0,0,0,10.46-4.9A12.27,12.27,0,0,1,42.26,37Z"/><path class="cls-2" d="M30.49,32.57c3.4,3.09,7.65,2.07,10,1.63-1.87.65-8,1.87-9.93-1.57C30.54,32.63,30.53,32.64,30.49,32.57Z"/><path class="cls-2" d="M33.89,39.12l0,.06A5.92,5.92,0,0,0,40.86,41C38.34,41.77,35.66,40.6,33.89,39.12Z"/><path class="cls-2" d="M35.55,67.36c-2.42,2.26-2,8.26-.81,10.61,3.53,6.9,11.17,5.43,13.4,2.12,2-3-1.17-7.63-6.34-2.92,4.08-2.78,5.67-1.21,5.9-.22.84,3.68-5.33,6.6-9.72,2.88-2.13-1.8-4.41-7.11.45-12.25A21.51,21.51,0,0,1,35.55,67.36Z"/><path class="cls-2" d="M62.27,25.12l.54.17c.37.13,1.35.59,1.83.77,7.48,3.45,13.13,1.71,13.5-2.66.3-3.47-1.94-6.33-4.4-8.89,2.74,2.93,6.07,7.5,2.74,11.2-2.38,2.35-6.94,2-12.34-.42l-.5-.23L63,24.82l-.79-.28Z"/><path class="cls-2" d="M58.72,24.36a9.58,9.58,0,0,1-1.38.4l-.58.15a12.41,12.41,0,0,1-3.92-.13,21.41,21.41,0,0,1-4.4-1,5.34,5.34,0,0,0-1.64-.25,3.24,3.24,0,0,1-1.62-.32,2.22,2.22,0,0,1-.6-.7A3.47,3.47,0,0,1,43.2,23,67.67,67.67,0,0,1,34,23c-.69-.1-.79-.37-.86-.74l-.25-.58s-.28-.3-.34-.28l-.55.1a1.21,1.21,0,0,1-.85-.29l-.24-.11-.6.26-.54.27a.39.39,0,0,1-.37,0,.37.37,0,0,1-.12-.34c0-.11,0-.14-.17-.17a.71.71,0,0,0-.49,0,.54.54,0,0,1,0,.16.67.67,0,0,1-.1.38.68.68,0,0,1-.61.27,1.11,1.11,0,0,0-1,.57l.13.17.41.72a1.61,1.61,0,0,1,.05.39.82.82,0,0,1-.16.52,1.13,1.13,0,0,1-.95.35l-.81,0h-.1a1.16,1.16,0,0,1-.65.32l-1.18.39c-.3.15-.93-.16-1.46-.48a.15.15,0,0,0-.12.16c0,.39,0,.93-.79.93h-.81l-.5.86a2,2,0,0,0-.42.74h0a4,4,0,0,1,.86,1.15c.09.17.09.17.39.14h.91c.12,0,.5.07.58.37a.4.4,0,0,1,0,.11c0,.31-.35.6-.66.85l-.2.18a1.47,1.47,0,0,0-.37.81.27.27,0,0,0,0,0s.05.07.08.09l0-.09.41-.77c.16-.25.34-.49.59-.46s.32.26.39.48l.24.5c.31.41.31.57.18.87l-.14.42-.05.25c-.1.45-.11.51.26.88s.4.52.34.82v.54a.92.92,0,0,1-.72,1s-.24.12-.23.1a.62.62,0,0,1-.4.57c-.14.08-.24.13-.29.31-.1.39.06.57.75,1.26.2.2.4.43.31.67s-.36.24-.65.25l-.44,0a.18.18,0,0,0,0,.08,2.36,2.36,0,0,0,.34,1s.13.2.17.27a3.11,3.11,0,0,1,0,1.42,11.31,11.31,0,0,0,0,2.21l.13,1-.57-.45a6.06,6.06,0,0,1-.18-1.42,12.52,12.52,0,0,1,.1-1.35A7.48,7.48,0,0,0,21.9,41a.86.86,0,0,0-.09-.46A3.74,3.74,0,0,1,21.33,39a.69.69,0,0,1,0-.28.47.47,0,0,1,.32-.27l.62-.06-.05-.06c-.58-.58-.92-.93-.92-1.42a1.39,1.39,0,0,1,0-.32.94.94,0,0,1,.53-.63c.14-.08.14-.09.14-.13,0-.33.31-.46.54-.56s.43-.2.43-.39a.54.54,0,0,0,0-.09v-.72A.45.45,0,0,0,23,34c0-.07,0-.12-.21-.29a1.19,1.19,0,0,1-.47-.86,2.31,2.31,0,0,1,.07-.48l.05-.24s.17-.52.21-.62l-.17-.27-.31-.64v0l-.09.11-.37.69c-.09.22-.17.39-.36.44a.52.52,0,0,1-.44-.11.63.63,0,0,1-.28-.49A1.86,1.86,0,0,1,21.18,30l.24-.21c.14-.11.45-.37.5-.4l-.2-.05h-.79a.73.73,0,0,1-.89-.41,3.51,3.51,0,0,0-.76-1c-.4-.4.2-1.19.37-1.39l.62-1.08h1.09c.29,0,.29,0,.29-.43a.68.68,0,0,1,.58-.7h.09l.08,0a4.12,4.12,0,0,0,1.11.54l1.27-.43.3-.11L25,24.2l.69-.1.76,0A.71.71,0,0,0,27,24a.59.59,0,0,0,0-.48l-.3-.51-.25-.51A1.47,1.47,0,0,1,28,21.43a.26.26,0,0,0,.19-.05.41.41,0,0,0,0-.29l0-.11.05-.1c0-.07.26-.43,1.08-.27.42.08.51.31.54.49l.32-.16.86-.33.54.22A.74.74,0,0,0,32,21l.39-.07c.37-.13.54,0,.89.44l.35.8c0,.23.05.28.44.34a68.21,68.21,0,0,0,9,0c1.15-.21,1.3-.48,1.3-.49l.31-.67.17.66a1.68,1.68,0,0,0,.59.82,3.29,3.29,0,0,0,1.35.22,5.58,5.58,0,0,1,1.81.29,21.11,21.11,0,0,0,4.28.93,12.23,12.23,0,0,0,3.68.15l.62-.16a6.31,6.31,0,0,0,1.45-.46Z"/><path class="cls-2" d="M71.65,12.43l-.34-.34Z"/><path class="cls-2" d="M71.65,12.43c.68.68,1.39,1.38,2.08,2.1C72.92,13.66,72.17,12.94,71.65,12.43Z"/><path class="cls-2" d="M43,58.55C48.94,56.9,71.42,35.82,56,11.25c10.19,15.42,1.31,38.83-13.18,47.34"/><path class="cls-6" d="M72.63,57l-1.68-4.64h.78L73,56l1.37-3.69h.47L76.14,56l1.27-3.69h.69L76.43,57h-.57l-1.29-3.51L73.24,57Z"/><path class="cls-6" d="M80.65,57V52.35h.78V57Z"/><path class="cls-6" d="M84.91,57V52.35h.49l3.46,3.1.25.25.27.33c0-.15,0-.31-.05-.47s0-.39,0-.67V52.35H90V57h-.43L86,53.77l-.08-.07a2,2,0,0,1-.39-.45c0,.14,0,.29,0,.45s0,.35,0,.56V57Z"/><path class="cls-6" d="M93.5,57V52.35H98V53H94.28v1.3h2.25v.61H94.28v1.47H98V57Z"/><path class="cls-6" d="M108.29,56.72a1,1,0,0,1-.33.22,1.51,1.51,0,0,1-.48.06H106a1.19,1.19,0,0,1-.86-.23,1.26,1.26,0,0,1-.22-.87v-.3a1,1,0,0,1,.1-.48,1.32,1.32,0,0,1,.44-.39l.88-.57a1.31,1.31,0,0,1-.29-.34.75.75,0,0,1-.09-.36V53.2a.79.79,0,0,1,.24-.65,1.39,1.39,0,0,1,.84-.19h.87a1.31,1.31,0,0,1,.85.2,1,1,0,0,1,.22.73v.25l-.61.11v-.73h-1.77v.68l2.24,1.84,1.08-1,.4.38-1,1L110.71,57h-1l-.95-.78Zm-2.76-.32h2.24l.6-.56-1.66-1.33-1.18.84Z"/><path class="cls-6" d="M121.73,53h-3.28v1.3h2.92a1.18,1.18,0,0,1,.84.23,1.23,1.23,0,0,1,.23.86v.52a1.27,1.27,0,0,1-.22.87,1.18,1.18,0,0,1-.84.23h-2.71a1.22,1.22,0,0,1-.86-.23,1.23,1.23,0,0,1-.23-.86v-.13l.72-.17v.75h3.44V55h-2.89a1.19,1.19,0,0,1-.85-.23,1.27,1.27,0,0,1-.22-.87v-.4a1.28,1.28,0,0,1,.22-.87,1.18,1.18,0,0,1,.85-.23h2.47a1.21,1.21,0,0,1,.85.23,1.1,1.1,0,0,1,.23.8v.1l-.66.19Z"/><path class="cls-6" d="M125.85,57V52.35h3.74a1.08,1.08,0,0,1,.75.21.91.91,0,0,1,.23.69v1a.89.89,0,0,1-.23.68,1.08,1.08,0,0,1-.75.21h-3V57Zm3.44-4h-2.66v1.61h2.66a.54.54,0,0,0,.39-.11.52.52,0,0,0,.11-.38v-.64a.52.52,0,0,0-.11-.37A.54.54,0,0,0,129.29,53Z"/><path class="cls-6" d="M133.53,57V52.35h.78V57Z"/><path class="cls-6" d="M137.78,57V52.35h3.74a1.08,1.08,0,0,1,.75.21.91.91,0,0,1,.23.69v1a.9.9,0,0,1-.23.69,1.08,1.08,0,0,1-.75.21h-.68L143,57h-1.15l-1.88-1.81h-1.36V57Zm3.44-4h-2.66v1.61h2.66a.56.56,0,0,0,.39-.1.5.5,0,0,0,.11-.36v-.67a.5.5,0,0,0-.11-.37A.55.55,0,0,0,141.22,53Z"/><path class="cls-6" d="M145.7,57V52.35h.78V57Z"/><path class="cls-6" d="M151.73,53v4H151V53h-2.11v-.64h5V53Z"/><path class="cls-6" d="M160.2,53h-3.28v1.3h2.92a1.18,1.18,0,0,1,.84.23,1.23,1.23,0,0,1,.23.86v.52a1.26,1.26,0,0,1-.22.87,1.17,1.17,0,0,1-.84.23h-2.71a1.22,1.22,0,0,1-.86-.23,1.23,1.23,0,0,1-.23-.86v-.13l.72-.17v.75h3.44V55h-2.9a1.18,1.18,0,0,1-.85-.23,1.27,1.27,0,0,1-.22-.87v-.4a1.28,1.28,0,0,1,.22-.87,1.18,1.18,0,0,1,.85-.23h2.47a1.21,1.21,0,0,1,.85.23,1.09,1.09,0,0,1,.23.8v.1l-.66.19Z"/><path class="cls-6" d="M172.71,53h-3.28v1.3h2.92a1.18,1.18,0,0,1,.84.23,1.23,1.23,0,0,1,.23.86v.52a1.27,1.27,0,0,1-.22.87,1.18,1.18,0,0,1-.84.23h-2.71a1.22,1.22,0,0,1-.86-.23,1.23,1.23,0,0,1-.23-.86v-.13l.72-.17v.75h3.44V55h-2.9a1.18,1.18,0,0,1-.85-.23,1.27,1.27,0,0,1-.22-.87v-.4a1.28,1.28,0,0,1,.22-.87,1.18,1.18,0,0,1,.85-.23h2.47a1.21,1.21,0,0,1,.85.23,1.09,1.09,0,0,1,.23.8v.1l-.66.19Z"/><path class="cls-6" d="M176.84,57V52.35h4.47V53h-3.69v1.3h2.25v.61h-2.25v1.47h3.72V57Z"/><path class="cls-6" d="M184.25,57V52.35H185v4h3.5V57Z"/><path class="cls-6" d="M191.18,57V52.35h4.47V53H192v1.3h2.25v.61H192v1.47h3.72V57Z"/><path class="cls-6" d="M202.5,53h-3.2v3.36h3.2V55.18l.78.16v.55a1.26,1.26,0,0,1-.22.87,1.22,1.22,0,0,1-.86.23h-2.59a1.2,1.2,0,0,1-.85-.23,1.24,1.24,0,0,1-.23-.87V53.46a1.25,1.25,0,0,1,.23-.87,1.19,1.19,0,0,1,.85-.23h2.59a1.21,1.21,0,0,1,.86.23,1.28,1.28,0,0,1,.22.88v.44l-.78.14Z"/><path class="cls-6" d="M208.18,53v4h-.77V53H205.3v-.64h5V53Z"/><path class="cls-6" d="M212.69,57V52.35h.78V57Z"/><path class="cls-6" d="M216.88,53.46a1.27,1.27,0,0,1,.22-.87,1.18,1.18,0,0,1,.86-.23h3.2a1.19,1.19,0,0,1,.85.23,1.26,1.26,0,0,1,.23.87V55.9a1.24,1.24,0,0,1-.23.87,1.21,1.21,0,0,1-.85.23H218a1.19,1.19,0,0,1-.86-.23,1.24,1.24,0,0,1-.22-.86Zm.77,2.89h3.83V53h-3.83Z"/><path class="cls-6" d="M225.68,57V52.35h.49l3.46,3.1.25.25.27.33c0-.15,0-.31-.05-.47s0-.39,0-.67V52.35h.7V57h-.43l-3.56-3.23-.08-.07a2,2,0,0,1-.39-.45c0,.14,0,.29,0,.45s0,.35,0,.56V57Z"/><path class="cls-3" d="M83,26.86a2.08,2.08,0,0,1,1.86,1.43,5.71,5.71,0,0,1,.53,2.46,18.86,18.86,0,0,1-1.77,7.1,28.23,28.23,0,0,1-3.66,6.45,16,16,0,0,0,6.55,6.59,16.08,16.08,0,0,1-6.92-6.15A9.34,9.34,0,0,1,75.26,48a14.12,14.12,0,0,1-5.34,1,9.59,9.59,0,0,1-4.72-1.15A4.26,4.26,0,0,1,62.66,44a4.61,4.61,0,0,1,2.67-4.17,10.46,10.46,0,0,1,5.12-1.21,6.41,6.41,0,0,1,3.32.81,3.12,3.12,0,0,1,1.64,2.8,3.27,3.27,0,0,1-2,3,7.6,7.6,0,0,1-3.82.87,6.78,6.78,0,0,1-5.29-2.69,7.05,7.05,0,0,0,5.51,2.23,6.8,6.8,0,0,0,3.35-.78,3,3,0,0,0,1.74-2.74,2.54,2.54,0,0,0-1.62-2.4,6.53,6.53,0,0,0-3-.62,9.26,9.26,0,0,0-4.63,1.12A4.21,4.21,0,0,0,63.19,44a3.79,3.79,0,0,0,2.24,3.33,7.9,7.9,0,0,0,4.1,1.12q5.43,0,9.19-5.45a13,13,0,0,1-1.3-5.76,16.51,16.51,0,0,1,1.37-6.32Q80.44,26.86,83,26.86Zm-.44.56q-1.12,0-2.48,2.15A13.91,13.91,0,0,0,78,37.23a11.31,11.31,0,0,0,1.12,5.26,42.81,42.81,0,0,0,3-6.6A22.44,22.44,0,0,0,83.89,29Q83.89,27.42,82.56,27.42Z"/><path class="cls-3" d="M92.06,40.59a8.37,8.37,0,0,1-1.58,4.58q-1.77,2.62-3.85,2.62t-2.08-1.93a9.48,9.48,0,0,1,.9-3l5-12h1.71L87.74,41.62q1.71-2.34,3.07-2.33a1.17,1.17,0,0,1,.9.37A1.34,1.34,0,0,1,92.06,40.59ZM85.6,46.7a.54.54,0,0,0,.29.47,1.12,1.12,0,0,0,.6.19q.9,0,2.67-3.08t1.71-4c0-.29-.14-.44-.4-.44q-1,0-2.92,2.91T85.6,46.7Z"/><path class="cls-3" d="M132.06,43.53c.27-.5,1.28-2.29,1.59-2.73a3.15,3.15,0,0,1,2.47-1.51c.58,0,.87.31.87.93a7.81,7.81,0,0,1-.68,2.49q1.12-1.68,1.52-2.15a2.93,2.93,0,0,1,2.08-1.28,1.26,1.26,0,0,1,.79.28.87.87,0,0,1,.36.72,11.31,11.31,0,0,1-1.18,3.53,12.64,12.64,0,0,0-1.18,3.25c0,.17.1.29.28.25,1.53-.33,1.08-3.37,5-2.94a.91.91,0,0,1-.19.34c-2.88-1-3.42,2.31-4.17,2.71a2.24,2.24,0,0,1-1.14.36,1.33,1.33,0,0,1-1-.36,1,1,0,0,1-.4-.76,13.5,13.5,0,0,1,1.2-3.41A20.5,20.5,0,0,0,139.5,40a.14.14,0,0,0-.12-.16.59.59,0,0,0-.33.08c-.64.23-1.56,1.37-2.63,3.39a37.67,37.67,0,0,0-2,4.36h-1.83Q134,44.14,135.49,40a.18.18,0,0,0-.05-.17c-.1-.09-.25,0-.25,0a5.92,5.92,0,0,0-1.59,1.68,14.39,14.39,0,0,0-1.39,2.23c-.22.48-1.19,2.38-1.44,2.71a2.61,2.61,0,0,1-2.08,1.31c-.79,0-1.18-.29-1.18-.87a10.85,10.85,0,0,1,1.27-3.71,13,13,0,0,0,1.27-3.24c0-.15-.08-.22-.25-.22q-.53,0-1.44,1.59c-.61,1.06-1.55,2.49-2.54,1.46l.12-.13c1.14,1,1.64-1.1,2.43-2s1.54-1.32,2.1-1.32q1.09,0,1.09.84a10.94,10.94,0,0,1-1.29,3.77A14.41,14.41,0,0,0,129,47.07c0,.15.09.22.28.22q.56,0,1.49-1.59C131.36,44.64,131.79,44,132.06,43.53Z"/><path class="cls-3" d="M133.18,35.7a1.23,1.23,0,0,1-.4.91,1.31,1.31,0,0,1-.95.38,1.21,1.21,0,0,1-.9-.4,1.32,1.32,0,0,1-.38-.95,1.22,1.22,0,0,1,.4-.91,1.31,1.31,0,0,1,.94-.38,1.2,1.2,0,0,1,.9.41A1.34,1.34,0,0,1,133.18,35.7Z"/><path class="cls-3" d="M94.87,44.43c-1-.12-2.76-.28-3.2-4.41,0,3,.93,4.56,3,4.71C94.69,44.72,95,44.72,94.87,44.43Z"/><path class="cls-3" d="M144.35,47.37a.77.77,0,0,1-.67-.47,1.8,1.8,0,0,1-.26-.87,2.78,2.78,0,0,1,.4-1.28,5.43,5.43,0,0,0,3.26-1,3.4,3.4,0,0,0,1.55-2.87A1.43,1.43,0,0,0,147,39.28a4.74,4.74,0,0,0-3.63,2.15,6.44,6.44,0,0,0-1.61,4,2.29,2.29,0,0,0,.65,1.67,2.13,2.13,0,0,0,1.65.67c1.44,0,3.86-2,4.44-3C148.47,44.81,146,47.36,144.35,47.37ZM147,39.68q.53,0,.53.5a4.77,4.77,0,0,1-1.05,2.62q-1.15,1.59-2.24,1.59H144Q145.81,39.68,147,39.68Z"/><path class="cls-3" d="M111.56,40.39c-.35.5-5.35,4.5-6.31,1.56,0,0,.1,0,.09,0,1.23,2.81,6-2.16,6.83-2.34Z"/><path class="cls-3" d="M126,39.22q-1.21,0-1.21,1.59a2.8,2.8,0,0,0,1,2,15.46,15.46,0,0,1-1.58,2.77q-1.34,1.81-2.36,1.81c-.25,0-.37-.09-.37-.28l3.2-7.75h-1.83q-3.17,7.82-4.56,7.79a.34.34,0,0,1-.14,0,.1.1,0,0,1,0-.08,14.35,14.35,0,0,1,1.26-3.22,11.52,11.52,0,0,0,1.26-3.66c0-.58-.36-.87-1.09-.87a2.75,2.75,0,0,0-2.16,1.29c-.71,1-1.36,3-2.38,2.65l0,.2c1.11.23,1.8-1.06,2.46-2.12s1.13-1.59,1.44-1.59a.19.19,0,0,1,.22.22A12.26,12.26,0,0,1,117.89,43a10.29,10.29,0,0,0-1.21,3.5,1.36,1.36,0,0,0,.34.86,1,1,0,0,0,.78.42,2.1,2.1,0,0,0,1.4-.84l1.09-1.4a2.24,2.24,0,0,0-.13.78,1.36,1.36,0,0,0,.45,1.06,1.64,1.64,0,0,0,1.13.4q1.55,0,3.44-2.93A9,9,0,0,0,127,40.47C127,39.64,126.63,39.22,126,39.22Zm0,3.39c-.78-.78-1.06-2.11-.28-2.56C126.64,39.5,126.78,41.22,126,42.61Z"/><path class="cls-3" d="M114.85,39.29q-1.49,0-1.49,2.12a2,2,0,0,0,1.55,2,7.89,7.89,0,0,1-1.21,2.27q-1,1.4-2,1.4t-1-1.12a9.17,9.17,0,0,1,1-3.52,10.69,10.69,0,0,1,2-3.18.75.75,0,0,0-.25-.09c-1-.06-2.16.73-3.14,2.18a7.1,7.1,0,0,0-1.3,3.8,2.87,2.87,0,0,0,.56,1.71,1.81,1.81,0,0,0,1.52.9q1.89,0,3.35-2.65a8.88,8.88,0,0,0,1.3-4.36Q115.81,39.28,114.85,39.29Zm.15,3.94a1.83,1.83,0,0,1-1.23-2.14,1.1,1.1,0,0,1,.67-1C115.56,39.73,115.66,41.3,115,43.22Z"/><path class="cls-3" d="M107.71,39.5a2.13,2.13,0,0,0-1.55.75,11.19,11.19,0,0,0-1,1.49,10.08,10.08,0,0,0,.31-1.49,1,1,0,0,0-.25-.67.92.92,0,0,0-.6-.33c-.42-.08-1.22-.11-2.41,1.44-.55.72-1.74,2.28-2.62,3.48a14.6,14.6,0,0,1-2.65,2.5,2.26,2.26,0,0,1-1.66.72.77.77,0,0,1-.67-.47,1.77,1.77,0,0,1-.26-.87,2.79,2.79,0,0,1,.4-1.28,5.44,5.44,0,0,0,3.26-1,3.4,3.4,0,0,0,1.55-2.87q0-1.59-1.65-1.59a4.74,4.74,0,0,0-3.63,2.15,6.46,6.46,0,0,0-1.62,4,2.29,2.29,0,0,0,.65,1.67,2.2,2.2,0,0,0,1.64.67,3.93,3.93,0,0,0,2.56-1,16.29,16.29,0,0,0,2-2.06c.57-.68,1.78-2.09,2.62-3.21s1.43-1.68,1.79-1.68c0,0,.29,0,.25.19S102,45.37,101,47.69h1.83l1.18-3A10.62,10.62,0,0,1,105.32,42a1,1,0,0,0,.84.5,2.26,2.26,0,0,0,1.57-.68,2.07,2.07,0,0,0,.73-1.53C108.45,39.77,108.2,39.5,107.71,39.5Zm-9.85.19c.35,0,.53.17.53.5a4.78,4.78,0,0,1-1.06,2.62q-1.15,1.59-2.24,1.59h-.22Q96.71,39.69,97.86,39.69Zm9.49,2a1.67,1.67,0,0,1-1.45.55.81.81,0,0,1-.47-.36c1-1.29,1.32-1.67,1.71-1.82s.64.13.62.54A1.29,1.29,0,0,1,107.35,41.69Z"/><path class="cls-3" d="M180.75,47.53H179l3-7.67a.08.08,0,0,0,0-.08.36.36,0,0,0-.19,0,.84.84,0,0,0-.47.22,11.15,11.15,0,0,0-2.71,3.49q-.59,1.16-1.74,4.09h-1.84q.84-2,1.65-4A24,24,0,0,0,178,39.83s0,0,0-.07a.19.19,0,0,0-.12,0c-.35,0-2,1.63-2.19,1.73.15-.25.16-.13.72-.9.79-.91,1.47-1.45,2.22-1.45.58,0,.87.31.87.94a7.86,7.86,0,0,1-.68,2.49q2.08-3.43,3.64-3.43a1.43,1.43,0,0,1,.86.28.85.85,0,0,1,.39.72,6.94,6.94,0,0,1-.81,2.43q2.33-3.43,3.76-3.43a1.11,1.11,0,0,1,.79.36,1.08,1.08,0,0,1,.36.77,11.31,11.31,0,0,1-1.28,3.48,12.92,12.92,0,0,0-1.28,3.23.23.23,0,0,0,.07.16.19.19,0,0,0,.15.06c.37,0,.88-.53,1.52-1.59s1.67-2.71,1.71-2.77l.16.18c-1,1.54-1.13,2.36-1.82,3.31-.81,1.12-1.45,1.34-2,1.34a1.52,1.52,0,0,1-.9-.31.93.93,0,0,1-.44-.78,12.69,12.69,0,0,1,1.26-3.48,15.75,15.75,0,0,0,1.26-3.2.12.12,0,0,0-.05-.1.23.23,0,0,0-.14,0q-.65,0-2.33,2.31a16.49,16.49,0,0,0-1.9,3.09Z"/><path class="cls-3" d="M187.41,50.89l3-6.94c.43-.93,1.63-4,1.65-4.12s-.1-.1-.16-.09c-.3,0-.87.59-1.74,1.59-.45.51-1,1.09-1.36,1.65l-.16-.18c.93-1.33,1.47-2.11,1.67-2.31a3.32,3.32,0,0,1,2.36-1.37c.56,0,.84.31.84.94a7.83,7.83,0,0,1-.68,2.49q2.08-3.43,3.86-3.43,1.05,0,1.06,2a7.64,7.64,0,0,1-1.4,4.15q-1.59,2.4-3.48,2.4a2.92,2.92,0,0,1-1.93-.59l-1.68,3.85Zm9-11.18a.17.17,0,0,0-.14-.15.31.31,0,0,0-.21,0,8.47,8.47,0,0,0-2.86,3.12,23.09,23.09,0,0,0-2.05,3.87,1.38,1.38,0,0,0,1.28.59q1.08,0,2.64-3.06,1.49-2.9,1.37-4.09S196.44,39.76,196.42,39.7Z"/><path class="cls-3" d="M221.33,35.11l-1.71,4.15,1.62-.06v.44l-1.84.06-1.62,3.81a21.42,21.42,0,0,0-1.3,3.46l.06.16a.51.51,0,0,0,.25.09c.6,0,1.82-1,3.17-3.13l.34.13c-1.49,2.32-2.73,3.47-3.82,3.47a1.33,1.33,0,0,1-.95-.4,1.23,1.23,0,0,1-.42-.9,11.54,11.54,0,0,1,1-3.27l1.43-3.37-.87.06v-.44l1.06,0,1.77-4.21Z"/><path class="cls-3" d="M202.66,39.8c-1.17.76-7.14,12.63-11.86,7.23,0,0,.17,0,.15-.07,5,4.75,9.07-6.2,11.95-7.49Z"/><path class="cls-3" d="M205.6,39.16q-1.5,0-1.5,2.13a2,2,0,0,0,1.56,2,7.86,7.86,0,0,1-1.22,2.28q-1,1.41-2,1.41t-1-1.13a9.23,9.23,0,0,1,1-3.54,10.79,10.79,0,0,1,2-3.19.75.75,0,0,0-.25-.09c-1-.06-2.17.73-3.15,2.19a7.12,7.12,0,0,0-1.31,3.82,2.88,2.88,0,0,0,.56,1.72,1.82,1.82,0,0,0,1.53.91q1.9,0,3.37-2.66a8.92,8.92,0,0,0,1.31-4.38Q206.56,39.16,205.6,39.16Zm.15,4A1.84,1.84,0,0,1,204.51,41a1.1,1.1,0,0,1,.67-1C206.31,39.61,206.42,41.19,205.75,43.12Z"/><path class="cls-3" d="M224.25,39.7a3,3,0,0,1,.56-1.65,4.21,4.21,0,0,0,.56-1l-.12-.12a14.94,14.94,0,0,0-2,2.76c-1.21,1.84-3.12,4.1-3.28,4.38l.34.12c1.42-2,1.89-1.78,2.68-2.92a11.15,11.15,0,0,0,.25,1.95,11.48,11.48,0,0,1,.25,1.92,2.76,2.76,0,0,1-.34,1.34,1.18,1.18,0,0,1-1,.75H222a1.51,1.51,0,0,0,.71-1.28,1.17,1.17,0,0,0-.34-.83,1.09,1.09,0,0,0-.81-.36,1.28,1.28,0,0,0-1,.39,1.37,1.37,0,0,0-.37,1q0,1.53,1.58,1.53a2.84,2.84,0,0,0,2.33-1.4,4.69,4.69,0,0,0,.87-2.68,7.11,7.11,0,0,0-.4-2A7.11,7.11,0,0,1,224.25,39.7Zm-2.59,7.52c-.93.18-1.16-.7-.85-1.31a1,1,0,0,1,1.33-.4.71.71,0,0,1,.27.68A1.16,1.16,0,0,1,221.67,47.22Z"/><path class="cls-3" d="M221.15,47.57c.3.19,3.51.54,5.93-3.06a7.43,7.43,0,0,1-5,2.74C222,47.38,221.21,47.5,221.15,47.57Z"/><path class="cls-3" d="M217.22,40.7c-.33.48-5,3.9-5.89,1.12,0,0,.1,0,.08,0,1.16,2.66,5.4-1.15,6-1.67Z"/><path class="cls-3" d="M213.77,39.34a2.13,2.13,0,0,0-1.55.75,11.34,11.34,0,0,0-1,1.5,10.36,10.36,0,0,0,.31-1.5,1,1,0,0,0-.25-.67.93.93,0,0,0-.6-.33c-.41-.08-1.22-.11-2.42,1.44-.55.72-1.39,3.19-2.51,2.58l-.34.13c1.64.68,1.94-.77,2.78-1.89s1.44-1.68,1.79-1.68c0,0,.29,0,.25.19S208,45.2,207,47.53h1.83l1.18-3a10.53,10.53,0,0,1,1.34-2.68,1,1,0,0,0,.84.5,2.26,2.26,0,0,0,1.57-.69,2.06,2.06,0,0,0,.73-1.53Q214.52,39.34,213.77,39.34Zm-.36,2.19a1.64,1.64,0,0,1-1.45.55.81.81,0,0,1-.47-.36c1-1.3,1.32-1.67,1.71-1.82s.64.13.62.54A1.58,1.58,0,0,1,213.41,41.53Z"/><path class="cls-3" d="M174.08,26.86a2.08,2.08,0,0,1,1.86,1.43,5.71,5.71,0,0,1,.53,2.46,18.88,18.88,0,0,1-1.77,7.1A28.16,28.16,0,0,1,171,44.3a16,16,0,0,0,6.55,6.59,16.06,16.06,0,0,1-6.93-6.15A9.35,9.35,0,0,1,166.35,48,14.11,14.11,0,0,1,161,49a9.58,9.58,0,0,1-4.72-1.15A4.25,4.25,0,0,1,153.75,44a4.61,4.61,0,0,1,2.67-4.17,10.46,10.46,0,0,1,5.12-1.21,6.4,6.4,0,0,1,3.32.81,3.12,3.12,0,0,1,1.65,2.8,3.27,3.27,0,0,1-2,3,7.6,7.6,0,0,1-3.82.87,6.79,6.79,0,0,1-5.29-2.69,7.05,7.05,0,0,0,5.51,2.23,6.79,6.79,0,0,0,3.35-.78,3,3,0,0,0,1.74-2.74,2.53,2.53,0,0,0-1.61-2.4,6.53,6.53,0,0,0-3-.62,9.26,9.26,0,0,0-4.63,1.12,4.21,4.21,0,0,0-2.42,3.8,3.79,3.79,0,0,0,2.24,3.33,7.9,7.9,0,0,0,4.1,1.12q5.43,0,9.19-5.45a13,13,0,0,1-1.3-5.76,16.53,16.53,0,0,1,1.37-6.32Q171.53,26.86,174.08,26.86Zm-.44.56q-1.12,0-2.48,2.15a13.91,13.91,0,0,0-2.11,7.66,11.32,11.32,0,0,0,1.12,5.26,42.91,42.91,0,0,0,3-6.6A22.44,22.44,0,0,0,175,29Q175,27.42,173.64,27.42Z"/><path class="cls-5" d="M90.94,76.38c0-.15,0-.22,0-.42A2.68,2.68,0,0,1,88.8,78c-.52.2-1,0-1.38,0a2.6,2.6,0,0,0,.68.4c.83-.24,1.92-.22,2.41-1.11C90.61,76.9,90.9,76.75,90.94,76.38Z"/><path class="cls-5" d="M90.44,75.77a2.6,2.6,0,0,0-1-2.71c-.18.13,0,.51-.06.74l.41.71-.14,1.1c-.47.67-1.51.24-2.26.14-.1.2.3.3.11.52l-2.24-1.09c.3,1.13,1.46,1.78,2.44,2.38.88-.18,1.88-.29,2.4-1.09C90.18,76.13,90.43,76.06,90.44,75.77Z"/><path class="cls-5" d="M89.61,72.62l-2.55-.75a2.08,2.08,0,0,0-.28-1.38l-.83-.7.92,1.54-.07.67c.07.16,0,0,.13.19l2.7.46Z"/><path class="cls-5" d="M89,74.82a1.78,1.78,0,0,1-1.11.28c-.06.3.44.24.65.31S89.11,74.8,89,74.82Z"/><path class="cls-5" d="M86.93,78.74c-.17.35-.5.34-.75.63a1,1,0,0,0,.77-.63Z"/><path class="cls-5" d="M86,78.32l0-.85A.91.91,0,0,0,85.4,77a.25.25,0,0,0-.23.11c-.07.18.07.2.12.43s-.35.3-.62.44-.18-.16-.42-.21a.73.73,0,0,0-.27,0c-.19.13-.17.51-.08.8.29.27.63.8,1.23.69A1.38,1.38,0,0,0,86,78.32Z"/><path class="cls-5" d="M86.35,72,86,70.69l-1.81-1.17a.26.26,0,0,0-.23.09l.11.58,1,.88.4.85a.39.39,0,0,1-.07.25c-.48.57-1.27,0-1.91,0-.08,0-.23.06-.3.27a.61.61,0,0,0,.12.4c.64.4,1.69,1,2.47.42Z"/><path class="cls-5" d="M84.25,75.44l0-.83c-.06-.08-.09-.23-.27-.28a.25.25,0,0,0-.24.12c0,.79-.1,1.92-.86,2.39a1.26,1.26,0,0,1-1.5,0,3.23,3.23,0,0,1-.68-.49l-.45-1.53a.39.39,0,0,1,.11-.29l1.66-.5c-.3-.44-1.09-.32-1.62-.1-.17.12-.37.11-.54.21a4,4,0,0,0,.44,4.52,3.57,3.57,0,0,0,2.5-.36C83.61,77.82,84,76.53,84.25,75.44Z"/><path class="cls-5" d="M84.36,68.25c0-.45.16-1.12-.21-1.52,0,0-.15-.06-.23,0l.17,1c-.2.58-.93.63-1.54.74h-.27c-.18,0,0,.18,0,.33.4.17.88.64,1.5.39A1.42,1.42,0,0,0,84.36,68.25Z"/><path class="cls-5" d="M82.53,71.49a2.74,2.74,0,0,0-1-2.5,2.25,2.25,0,0,0-1.43-.63c.5.35,1.31.67,1.52,1.42.17,1-.63,1.53-1,2.15-.75.56-1.8,0-2.56-.26-.7-.46-1.62-.92-1.65-1.89-.07-.29.1-.37,0-.57l-.2.13-.11,1.93.64.74a.24.24,0,0,1-.1.22c-.23,0-.5-.25-.77-.12.36.86,1.59,1.54,1.09,2.82a1.9,1.9,0,0,1-2,.74,1.11,1.11,0,0,1-.42-.15l-1.26-1.76.31-.56A2,2,0,0,1,74.7,73a.68.68,0,0,0,.32-.44.33.33,0,0,0-.13-.24,2.06,2.06,0,0,0-1.9.56,2.53,2.53,0,0,0-.29,2.73,2.93,2.93,0,0,0,2.21,1.52,3.11,3.11,0,0,0,2.24-1,4.51,4.51,0,0,0,.12-3.31l2.14.63,2.67-1.2Z"/><path class="cls-5" d="M82.29,65.81c-.11-.71-.29-1.4-1-1.66S80,63.56,79.44,64c.67.55,2.13.28,2.44,1.52,0,.55-.58.62-1,.85a2.34,2.34,0,0,1-1.84-.6c0-.19,0-.37-.3-.44a.26.26,0,0,0-.23.13l0,.68L79,67c.29.61,1.27.5,1.94.39.45-.21,1-.4,1.16-.91Z"/><path class="cls-5" d="M81.09,70v-.15c0-.29-.28-.46-.5-.68-.28.21.19.46.21.81s-.54.57-.74.92c.06,0,.08.1.15.13l.62-.37Z"/><path class="cls-5" d="M78,64.19c0-.35.12-.71-.1-1h-.24c0,.24.23.38.07.68s-.7-.1-1.09-.06-.53-.46-.63-.86a.49.49,0,0,1,.13-.28c.24-.21.65,0,1,0,.08,0,.08-.13,0-.22A1.1,1.1,0,0,0,76,62.42l-.58,1.73-.91,0c-.08.06-.38.12-.16.28A2.42,2.42,0,0,1,76.3,66a1.9,1.9,0,0,1-.46,1.49c-1,.42-2.56.84-3.57,0-.48-.52-.92-.84-1-1.37,0-.67.79-.77,1.31-1,.5,0,.81.31,1.22.17.08-.06.24-.09.3-.27-.12-.34-.64-.3-.88-.61-.05-.29.31-.28.43-.51l.62-.4,1-2.29c0-.07,0-.17-.13-.18l-1.78,2.14a.87.87,0,0,1-1.25-.07c0-.22-.36-.27-.52-.41l-.27-.57a2.28,2.28,0,0,1,0-.29.6.6,0,0,1,.18-.26l1.67-.47c0-.06.06-.13,0-.22l-1.8.21a3,3,0,0,0-.6,2.77l.77.89-.69.94a9.71,9.71,0,0,0-.11,1.39c-.3.29-.87-.27-1.22.06a1.65,1.65,0,0,0-.34,1.09,1.15,1.15,0,0,0,1.23.58,5,5,0,0,1,.69-.17c.7.78,2,.69,3,.54a2.91,2.91,0,0,0,2.26-1.39,2.78,2.78,0,0,0,0-2.62c-.23-.48-.67-.51-.79-.89l1.69.52a1.14,1.14,0,0,0,.71-.56Z"/><path class="cls-5" d="M73.24,70.84l-.16-.51c-.3.22,0,.91-.5,1.15a2.91,2.91,0,0,1-2.45-.07c-.29.07,0,.59.1.77a2.33,2.33,0,0,0,2.32.11A1.7,1.7,0,0,0,73.24,70.84Z"/><path class="cls-5" d="M70.52,75.28l-.81,1.18L68,76.64c-.17.17-.15,0-.1.24A1.79,1.79,0,0,0,70,76.47C70.17,76,70.49,75.64,70.52,75.28Z"/><path class="cls-5" d="M69.95,74.67l-.35-2.09c0-.06-.08-.08-.21-.16s-.23.07-.3.28a2.66,2.66,0,0,1-.79,2c-.7.4-1.68-.17-2.31-.58a2.37,2.37,0,0,1-.89-1.41c0-.1.1-.22.3-.23.5.28.91-.07,1.56.08.61-.31,1.15-.14,1.55-.59a2.75,2.75,0,0,0-.23-2.65c-.27-.37-.34-.46-.63-.56l-.27,2.29a4,4,0,0,1-3-.49,6.08,6.08,0,0,1-1.14-1.53,1.71,1.71,0,0,1,1.14-1.27c.47-.22.82-.29,1.09-.71-.06-.46-.82.06-1.2.07A2.56,2.56,0,0,0,62.8,69c0,2,2,2.7,2,4.86.46,1.35,1.75,1.88,3.12,2.33.71.14,1.1-.64,1.59-.78Z"/><path class="cls-5" d="M70.13,63.87l-.46-2.22-1.52-.4c.56.34,1.36.59,1.57,1.38a2.58,2.58,0,0,1-.91,2.45c-.56.23-1,.68-1.55.36a7.9,7.9,0,0,0-1.56-1.38.72.72,0,0,1-.13-.29,3.33,3.33,0,0,1,2.26-1.15c.11,0,.11-.14,0-.27l-1.53,0a.3.3,0,0,1-.07-.23l.73-.74a1.37,1.37,0,0,1-.3-.1l0-.46c-.54.21-1,1.19-2,.95a3.93,3.93,0,0,1-1.3-.81,1,1,0,0,1-.21-.38l.41-.81a2.92,2.92,0,0,1,2.62,0c.11,0,.23-.06.27-.27-.35-.67-1.42-.71-2.18-.51a1.65,1.65,0,0,0-1.25,1c-.41.8,0,1.54.09,2.21-.72,0-1.84-.76-2.6,0a4.56,4.56,0,0,0-.52,4c.59,1,2.12,1,3.31,1,.24,0,.18-.5.43-.66.43-.18.54-.72.72-1.21l-.6-1.48c-.37.56-.65,1.38-1.43,1.65a2.21,2.21,0,0,1-2-.65c-.07-.16-.14-.28-.14-.28l.5-2.08c.77-.5,1.75,0,2.48.28,0,0,.06-.17.07-.24l1.58.45c.37,0,.47-.25.85-.39a4.66,4.66,0,0,0,.1,3.55,3.75,3.75,0,0,0,2.72.06A3.53,3.53,0,0,0,70.13,63.87Z"/><path class="cls-5" d="M63.61,73.78c-.08-.23-.45-.39-.5-.73,0-.09,0-.18,0-.3L61.6,74.56c0,.11.06.23.2.18L63,73.83c.23-.08.44.25.68,0Z"/><path class="cls-5" d="M62.62,75.09l-1.94,0c-.25.13.35.24.53.32a13.08,13.08,0,0,0,1.47-.29Z"/><path class="cls-5" d="M62.45,72.48l-.71-1.59-.27,0,.07,1.27a2.16,2.16,0,0,1-2,.53,3.6,3.6,0,0,1-1.78-1.56l.15-.84c.69-.71,2-.57,3-.52l-1.37-.65c-.3,0,0-.31-.2-.54a.37.37,0,0,0-.16-.16l-.87.62a1,1,0,0,1-.93-.71.81.81,0,0,1,.56-.51c.25-.09.62.21.8,0-.09-.34-.71-.36-1-.27l-.33.2a1.26,1.26,0,0,0-.21,1.32c.21.33.4.42.47.63a3.06,3.06,0,0,0-.16,2.88,9.13,9.13,0,0,0,1.74,1.76,3.17,3.17,0,0,0,2.36-.4c.37-.38.63-.49.73-.81l.17-.59Z"/><path class="cls-5" d="M51.47,64.37c.11-.52,1.07-.9,1.51-1.25a.89.89,0,0,1,1,.25,1.52,1.52,0,0,1,.29,1.16A1.74,1.74,0,0,0,54,62.91a1.07,1.07,0,0,0-1.15-.3c-.53.43-1.68.87-1.8,1.49-.24,1.23.35,1.59,1,1.63h.24C51.72,65.67,51.28,65.35,51.47,64.37Z"/><path class="cls-5" d="M55.62,64.59c0-.07-.05-.19-.05-.23a3.72,3.72,0,0,1,1.56-3.12,5,5,0,0,0,.68.28,1.62,1.62,0,0,1,.49.65A2,2,0,0,0,57.59,61a6,6,0,0,1-.81-.34,4.45,4.45,0,0,0-1.86,3.74s0,.18.06.27c.45.61,1.43.36,2,.25a1.94,1.94,0,0,0,.24-.15C56.73,64.91,56,65.07,55.62,64.59Z"/><path class="cls-5" d="M56.82,73.95a.49.49,0,0,1,.07-.24c-.34-.64-.06-1.5-.72-1.86a3.21,3.21,0,0,0-.64-.12l.33.64-.44.9c-.54.18-.83-.17-1.24-.41-.34,0-.61-.36-.73-.76a1,1,0,0,1,.13-.92c.48-.69,1.54-.28,2.36-.61.23-.1,0-.44.11-.66.24-.17.27-.61.28-1s-.3,0-.41.12-.34.12-.56.11-.53-.42-.75-.72c0-.45.94-.24,1.21-.37,0-.22-.25-.17-.39-.33l-.56,0a1.19,1.19,0,0,0-.71.64c0,.59.54.85.79,1.42-.71.23-1.55.44-1.75,1.17a2.69,2.69,0,0,0,.68,3.14,2,2,0,0,0,2,.57l.93-.57Z"/></g></svg>