<svg xmlns="http://www.w3.org/2000/svg" viewBox="0 0 252 143.99"><defs><style>.cls-1{fill:#fff;}.cls-2{fill:#c4cbb8;}.cls-3{fill:#231f20;}.cls-4{fill:#9e0b0f;}</style></defs><title>img-9-iberowine-sec-2</title><g id="Layer_4" data-name="Layer 4"><rect class="cls-1" width="252" height="143.99"/></g><g id="resuable_items" data-name="resuable items"><rect class="cls-2" y="132.78" width="252" height="11.21"/><rect class="cls-2" x="131.32" y="20.51" width="3.46" height="23.88"/><rect class="cls-2" x="221.92" y="20.51" width="3.46" height="23.88"/><polygon class="cls-2" points="62.05 105.72 62.05 99 58.59 99 58.59 105.97 61.84 105.97 62.05 105.97 252 105.97 252 105.72 62.05 105.72"/><polygon class="cls-2" points="252 87.75 84.13 87.75 84.13 80.86 80.67 80.86 80.67 88.01 84.13 88.01 84.13 88 252 88 252 87.75"/></g><g id="Text"><path class="cls-3" d="M89,85.84l-1.12-3.09h.52l.83,2.46.91-2.46h.32l.88,2.46.84-2.46h.46l-1.12,3.09h-.38l-.86-2.34-.88,2.34Z"/><path class="cls-3" d="M94.4,85.84V82.75h3v.41H94.91V84h1.5v.41h-1.5v1h2.48v.42Z"/><path class="cls-3" d="M99.34,85.84V82.75h2.48a.74.74,0,0,1,.5.14.6.6,0,0,1,.15.46v.36a.51.51,0,0,1-.12.37.65.65,0,0,1-.39.16.55.55,0,0,1,.53.61v.39a.52.52,0,0,1-.21.46,1.13,1.13,0,0,1-.64.15Zm2.61-2.1v-.31a.27.27,0,0,0-.07-.21.38.38,0,0,0-.25-.06H99.85V84h1.78a.37.37,0,0,0,.25-.06A.28.28,0,0,0,101.95,83.74Zm0,1.31V84.8a.43.43,0,0,0-.07-.29.35.35,0,0,0-.26-.08H99.85v1h1.78a.36.36,0,0,0,.27-.08A.43.43,0,0,0,102,85.06Z"/><path class="cls-3" d="M107.28,83.17h-2.2V84h2a.79.79,0,0,1,.56.15.82.82,0,0,1,.15.57v.35a.85.85,0,0,1-.15.58.78.78,0,0,1-.56.15h-1.81a.8.8,0,0,1-.57-.15.83.83,0,0,1-.15-.58V85l.48-.11v.5h2.3v-.93h-1.94a.8.8,0,0,1-.57-.15.85.85,0,0,1-.15-.58v-.27a.84.84,0,0,1,.15-.58.8.8,0,0,1,.57-.15H107a.82.82,0,0,1,.57.15.72.72,0,0,1,.16.53v.06l-.44.13Z"/><path class="cls-3" d="M110,85.84V82.75h.52v3.09Z"/><path class="cls-3" d="M114.06,83.17v2.67h-.52V83.17h-1.41v-.42h3.34v.42Z"/><path class="cls-3" d="M117.06,85.84V82.75h3v.41h-2.45V84h1.5v.41h-1.5v1H120v.42Z"/><path d="M140.49,23.33V26H140V23.33h-1.41V22.9h3.34v.42Z"/><path d="M143.48,26V22.9h3v.41H144v.86h1.5v.41H144v1h2.48V26Z"/><path d="M148.42,26V22.9h.52v2.66h2.34V26Z"/><path d="M141.9,31.33h-2.14v2.24h2.14v-.78l.52.11v.37a.85.85,0,0,1-.15.58.8.8,0,0,1-.57.15H140a.81.81,0,0,1-.57-.15.83.83,0,0,1-.15-.58V31.64a.83.83,0,0,1,.15-.58.81.81,0,0,1,.57-.15h1.73a.8.8,0,0,1,.57.15.85.85,0,0,1,.15.58v.29l-.52.1Z"/><path d="M144.49,34V30.9h3v.41H145v.86h1.5v.41H145v1h2.48V34Z"/><path d="M149.43,34V30.9h.52v2.66h2.34V34Z"/><path d="M154,34V30.9h.52v2.66h2.34V34Z"/><path d="M139.29,42V38.9h2.94v.42H139.8v1h1.38v.41H139.8V42Z"/><path d="M142.81,42l1.69-3.09H145L146.76,42h-.57l-.39-.76h-2.09l-.39.76Zm1.12-1.16h1.66l-.83-1.58Z"/><path d="M148,42l1.5-1.6L148,38.9h.74l1.08,1.17,1-1.17h.64l-1.36,1.45L151.79,42h-.74l-1.23-1.32L148.69,42Z"/><path class="cls-4" d="M178,25.34q.12,0,.15,0a.21.21,0,0,1,0,.13v.34a.21.21,0,0,1,0,.13s-.07,0-.16,0h-.36a.12.12,0,0,1-.09,0,.22.22,0,0,1,0-.13V25.5a.21.21,0,0,1,0-.13s.07,0,.15,0Z"/><path class="cls-4" d="M196.48,25.34q.12,0,.15,0a.21.21,0,0,1,0,.13v.34a.21.21,0,0,1,0,.13s-.07,0-.16,0h-.36a.12.12,0,0,1-.09,0,.21.21,0,0,1,0-.13V25.5a.21.21,0,0,1,0-.13s.07,0,.15,0Z"/><path class="cls-4" d="M164,26v-.74h-2.34v-.38l2.23-2h.58v2h.7v.38h-.7V26Zm0-1.12V23.24l-1.79,1.64Z"/><path class="cls-4" d="M168.4,26V23.39h-.67v-.31l1.15-.2V26Z"/><path class="cls-4" d="M174.85,23.25h-.19a3.32,3.32,0,0,0-1.38.22.88.88,0,0,0-.54.69c.22,0,.45-.08.67-.1s.46,0,.7,0a1.94,1.94,0,0,1,1,.17.69.69,0,0,1,.27.62v.42a.67.67,0,0,1-.24.57,1.25,1.25,0,0,1-.75.18h-1.23a1.05,1.05,0,0,1-.75-.2,1.07,1.07,0,0,1-.2-.75v-.41a1.65,1.65,0,0,1,.56-1.33,2.38,2.38,0,0,1,1.58-.47h.21Zm-2.15,1.29v.11a.68.68,0,0,0,0,.08,1.53,1.53,0,0,0,.1.74q.1.12.55.12h.94a.79.79,0,0,0,.48-.1.48.48,0,0,0,.12-.38v-.2a.43.43,0,0,0-.15-.38,1.15,1.15,0,0,0-.58-.1q-.39,0-.75,0T172.69,24.54Z"/><path class="cls-4" d="M181.06,26a.79.79,0,0,1-.53-.13.65.65,0,0,1-.14-.48v-.25l.49-.12v.55h1.78a.22.22,0,0,0,.28-.28v-.41a.31.31,0,0,0-.06-.22.34.34,0,0,0-.22-.05h-1.09v-.4h1a.28.28,0,0,0,.22-.07.5.5,0,0,0,.06-.29v-.18a.49.49,0,0,0-.06-.28.28.28,0,0,0-.22-.07h-1.65v.48l-.47-.09v-.19a.65.65,0,0,1,.14-.48.8.8,0,0,1,.53-.13h1.57a.79.79,0,0,1,.53.13.65.65,0,0,1,.14.48v.28a.64.64,0,0,1-.11.4.62.62,0,0,1-.36.19.74.74,0,0,1,.45.19.61.61,0,0,1,.14.43v.33a.69.69,0,0,1-.16.52.82.82,0,0,1-.55.14Z"/><path class="cls-4" d="M186,25.64h.18a3.39,3.39,0,0,0,1.39-.22.87.87,0,0,0,.54-.68c-.22,0-.45.08-.68.1s-.46,0-.7,0a1.91,1.91,0,0,1-1-.18.69.69,0,0,1-.27-.63v-.42a.68.68,0,0,1,.24-.57,1.24,1.24,0,0,1,.75-.18h1.22a.78.78,0,0,1,1,1v.41a1.64,1.64,0,0,1-.56,1.33,2.38,2.38,0,0,1-1.58.47h-.21Zm2.15-1.27s0-.07,0-.11,0-.06,0-.09a1.57,1.57,0,0,0-.1-.74q-.1-.11-.55-.11h-.94a.82.82,0,0,0-.48.1.47.47,0,0,0-.12.38V24a.43.43,0,0,0,.15.38,1.14,1.14,0,0,0,.58.1q.39,0,.75,0T188.1,24.37Z"/><path class="cls-4" d="M191.33,26a.82.82,0,0,1-.55-.14.7.7,0,0,1-.16-.52V25a.61.61,0,0,1,.13-.43.7.7,0,0,1,.43-.19.57.57,0,0,1-.38-.18.64.64,0,0,1-.12-.42v-.28a.65.65,0,0,1,.14-.48.79.79,0,0,1,.53-.13h1.81a.8.8,0,0,1,.53.13.65.65,0,0,1,.14.48v.28a.64.64,0,0,1-.12.42.58.58,0,0,1-.39.18.72.72,0,0,1,.44.19.61.61,0,0,1,.13.43v.32a.69.69,0,0,1-.16.52.82.82,0,0,1-.56.14Zm-.21-1.08v.34a.37.37,0,0,0,.06.25.34.34,0,0,0,.24.06h1.65a.35.35,0,0,0,.24-.06.38.38,0,0,0,.06-.25v-.34a.37.37,0,0,0-.06-.25.35.35,0,0,0-.24-.06h-1.65a.34.34,0,0,0-.24.06A.37.37,0,0,0,191.12,24.92Zm.05-1.28v.24a.38.38,0,0,0,.06.26.36.36,0,0,0,.25.06H193a.35.35,0,0,0,.25-.06.39.39,0,0,0,.06-.26v-.24a.37.37,0,0,0-.06-.26.36.36,0,0,0-.25-.06h-1.53a.26.26,0,0,0-.31.32Z"/><path class="cls-4" d="M199.29,25.64h.18a3.39,3.39,0,0,0,1.39-.22.87.87,0,0,0,.54-.68c-.22,0-.45.08-.68.1s-.46,0-.7,0a1.91,1.91,0,0,1-1-.18.69.69,0,0,1-.27-.63v-.42a.67.67,0,0,1,.24-.57,1.24,1.24,0,0,1,.75-.18H201a.78.78,0,0,1,1,1v.41a1.64,1.64,0,0,1-.56,1.33,2.38,2.38,0,0,1-1.58.47h-.21Zm2.15-1.27s0-.07,0-.11,0-.06,0-.09a1.57,1.57,0,0,0-.1-.74c-.06-.08-.25-.11-.55-.11h-.94a.82.82,0,0,0-.48.1.47.47,0,0,0-.12.38V24a.43.43,0,0,0,.15.38,1.15,1.15,0,0,0,.58.1q.39,0,.75,0T201.44,24.37Z"/><path class="cls-4" d="M206.27,26v-.74h-2.34v-.38l2.23-2h.58v2h.7v.38h-.7V26Zm0-1.12V23.24l-1.79,1.64Z"/><path class="cls-4" d="M211.9,23.25h-.19a3.32,3.32,0,0,0-1.38.22.88.88,0,0,0-.54.69q.33-.06.67-.1t.7,0a2,2,0,0,1,1,.17.69.69,0,0,1,.27.62v.42a.67.67,0,0,1-.24.57,1.25,1.25,0,0,1-.75.18H210.2a1.05,1.05,0,0,1-.75-.2,1.07,1.07,0,0,1-.2-.75v-.41a1.65,1.65,0,0,1,.56-1.33,2.37,2.37,0,0,1,1.58-.47h.21Zm-2.15,1.29v.11a.69.69,0,0,0,0,.08,1.52,1.52,0,0,0,.1.74c.07.08.25.12.55.12h.94a.79.79,0,0,0,.48-.1.48.48,0,0,0,.12-.38v-.2a.43.43,0,0,0-.15-.38,1.15,1.15,0,0,0-.58-.1q-.39,0-.75,0T209.75,24.54Z"/><path class="cls-4" d="M216.66,26v-.74h-2.34v-.38l2.23-2h.58v2h.7v.38h-.7V26Zm0-1.12V23.24l-1.79,1.64Z"/><path class="cls-4" d="M163.74,34v-.74h-2.34v-.38l2.23-2h.58v2h.7v.38h-.7V34Zm0-1.12V31.24L162,32.87Z"/><path class="cls-4" d="M168.12,34V31.39h-.67v-.31l1.15-.2V34Z"/><path class="cls-4" d="M174.56,31.25h-.19a3.32,3.32,0,0,0-1.38.22.87.87,0,0,0-.54.69q.33-.06.67-.1t.7,0a2,2,0,0,1,1,.17.69.69,0,0,1,.27.62v.42a.68.68,0,0,1-.24.57,1.25,1.25,0,0,1-.75.18h-1.22a1,1,0,0,1-.75-.2,1.07,1.07,0,0,1-.2-.75v-.41a1.65,1.65,0,0,1,.56-1.33,2.37,2.37,0,0,1,1.58-.47h.21Zm-2.15,1.29v.11a.69.69,0,0,0,0,.08,1.52,1.52,0,0,0,.1.74c.07.08.25.12.55.12H174a.79.79,0,0,0,.48-.1.48.48,0,0,0,.12-.38v-.2a.43.43,0,0,0-.15-.38,1.15,1.15,0,0,0-.58-.1c-.26,0-.51,0-.75,0S172.63,32.5,172.41,32.54Z"/><path class="cls-4" d="M177.67,33.34c.08,0,.13,0,.15,0a.21.21,0,0,1,0,.13v.34a.22.22,0,0,1,0,.13s-.07,0-.16,0h-.36a.12.12,0,0,1-.09,0,.21.21,0,0,1,0-.13V33.5a.21.21,0,0,1,0-.13s.07,0,.15,0Z"/><path class="cls-4" d="M180.67,34a.82.82,0,0,1-.55-.14.7.7,0,0,1-.16-.52V33a.61.61,0,0,1,.13-.43.7.7,0,0,1,.43-.19.57.57,0,0,1-.38-.18.64.64,0,0,1-.12-.42v-.28a.65.65,0,0,1,.14-.48.8.8,0,0,1,.53-.13h1.81A.8.8,0,0,1,183,31a.65.65,0,0,1,.14.48v.28a.64.64,0,0,1-.12.42.58.58,0,0,1-.39.18.72.72,0,0,1,.44.19.61.61,0,0,1,.13.43v.32a.69.69,0,0,1-.16.52.82.82,0,0,1-.56.14Zm-.21-1.08v.34a.37.37,0,0,0,.06.25.34.34,0,0,0,.24.06h1.65a.35.35,0,0,0,.24-.06.38.38,0,0,0,.06-.25v-.34a.37.37,0,0,0-.06-.25.35.35,0,0,0-.24-.06h-1.65a.34.34,0,0,0-.24.06A.37.37,0,0,0,180.46,32.92Zm.05-1.28v.24a.38.38,0,0,0,.06.26.36.36,0,0,0,.25.06h1.53a.35.35,0,0,0,.25-.06.39.39,0,0,0,.06-.26v-.24a.37.37,0,0,0-.06-.26.36.36,0,0,0-.25-.06h-1.53a.26.26,0,0,0-.31.32Z"/><path class="cls-4" d="M185.67,33.64h.18a3.39,3.39,0,0,0,1.39-.22.87.87,0,0,0,.54-.68c-.22,0-.45.08-.68.1s-.46,0-.7,0a1.92,1.92,0,0,1-1-.18.69.69,0,0,1-.27-.63v-.42a.67.67,0,0,1,.24-.57,1.24,1.24,0,0,1,.75-.18h1.22a.78.78,0,0,1,1,1v.41a1.64,1.64,0,0,1-.56,1.33,2.38,2.38,0,0,1-1.58.47H186Zm2.15-1.27s0-.07,0-.11,0-.06,0-.09a1.55,1.55,0,0,0-.1-.74c-.06-.08-.25-.11-.55-.11h-.94a.82.82,0,0,0-.48.1.47.47,0,0,0-.12.38V32a.43.43,0,0,0,.15.38,1.14,1.14,0,0,0,.58.1q.39,0,.75,0C187.37,32.43,187.6,32.41,187.82,32.37Z"/><path class="cls-4" d="M191,34a.82.82,0,0,1-.55-.14.7.7,0,0,1-.15-.52V33a.61.61,0,0,1,.13-.43.7.7,0,0,1,.43-.19.57.57,0,0,1-.38-.18.64.64,0,0,1-.12-.42v-.28a.65.65,0,0,1,.14-.48.8.8,0,0,1,.53-.13h1.81a.8.8,0,0,1,.53.13.65.65,0,0,1,.14.48v.28a.64.64,0,0,1-.12.42.58.58,0,0,1-.38.18.71.71,0,0,1,.43.19.61.61,0,0,1,.13.43v.32a.7.7,0,0,1-.16.52.83.83,0,0,1-.56.14Zm-.21-1.08v.34a.38.38,0,0,0,.06.25.35.35,0,0,0,.24.06h1.65a.34.34,0,0,0,.24-.06.37.37,0,0,0,.06-.25v-.34a.36.36,0,0,0-.06-.25.34.34,0,0,0-.24-.06h-1.65a.34.34,0,0,0-.24.06A.36.36,0,0,0,190.84,32.92Zm.05-1.28v.24a.38.38,0,0,0,.06.26.36.36,0,0,0,.25.06h1.53a.35.35,0,0,0,.25-.06.39.39,0,0,0,.06-.26v-.24a.37.37,0,0,0-.06-.26.36.36,0,0,0-.25-.06h-1.53a.36.36,0,0,0-.25.06A.36.36,0,0,0,190.9,31.64Z"/><path class="cls-4" d="M196.2,33.34q.13,0,.15,0a.21.21,0,0,1,0,.13v.34a.21.21,0,0,1,0,.13s-.07,0-.16,0h-.36a.13.13,0,0,1-.09,0,.21.21,0,0,1,0-.13V33.5a.21.21,0,0,1,0-.13s.07,0,.15,0Z"/><path class="cls-4" d="M200,34V31.39h-.67v-.31l1.15-.2V34Z"/><path class="cls-4" d="M204.5,34a.79.79,0,0,1-.53-.13.65.65,0,0,1-.14-.48v-.25l.49-.12v.55h1.78a.22.22,0,0,0,.28-.28v-.41a.31.31,0,0,0-.06-.22.34.34,0,0,0-.22-.05H205v-.4h1a.28.28,0,0,0,.22-.07.5.5,0,0,0,.06-.29v-.18a.49.49,0,0,0-.06-.28.28.28,0,0,0-.22-.07h-1.65v.48l-.47-.09v-.19A.65.65,0,0,1,204,31a.8.8,0,0,1,.53-.13h1.57a.79.79,0,0,1,.53.13.65.65,0,0,1,.14.48v.28a.64.64,0,0,1-.11.4.63.63,0,0,1-.36.19.74.74,0,0,1,.45.19.61.61,0,0,1,.14.43v.33a.69.69,0,0,1-.16.52.83.83,0,0,1-.55.14Z"/><path class="cls-4" d="M209.93,34.05l1.79-2.73h-2.25V32L209,32V30.9h3.22v.4l-1.7,2.75Z"/><path class="cls-4" d="M216.81,31.25h-.19a3.32,3.32,0,0,0-1.38.22.88.88,0,0,0-.54.69q.33-.06.67-.1t.7,0a2,2,0,0,1,1,.17.69.69,0,0,1,.27.62v.42a.68.68,0,0,1-.24.57,1.25,1.25,0,0,1-.75.18h-1.23a1.05,1.05,0,0,1-.75-.2,1.07,1.07,0,0,1-.2-.75v-.41a1.65,1.65,0,0,1,.56-1.33,2.37,2.37,0,0,1,1.58-.47h.21Zm-2.15,1.29v.11a.67.67,0,0,0,0,.08,1.52,1.52,0,0,0,.1.74q.1.12.55.12h.94a.8.8,0,0,0,.48-.1.48.48,0,0,0,.12-.38v-.2a.42.42,0,0,0-.15-.38,1.14,1.14,0,0,0-.58-.1q-.39,0-.75,0T214.66,32.54Z"/><path class="cls-4" d="M164.43,42v-.74H162.1v-.38l2.23-2h.58v2h.7v.38h-.7V42Zm0-1.12V39.24l-1.79,1.64Z"/><path class="cls-4" d="M168.81,42V39.39h-.67v-.31l1.15-.2V42Z"/><path class="cls-4" d="M175.26,39.25h-.19a3.32,3.32,0,0,0-1.38.22.87.87,0,0,0-.54.69q.33-.06.67-.1t.7,0a2,2,0,0,1,1,.17.69.69,0,0,1,.27.62v.42a.68.68,0,0,1-.24.57,1.25,1.25,0,0,1-.75.18h-1.22a1,1,0,0,1-.75-.2,1.07,1.07,0,0,1-.2-.75v-.41a1.65,1.65,0,0,1,.56-1.33,2.37,2.37,0,0,1,1.58-.47h.21Zm-2.15,1.29v.11a.69.69,0,0,0,0,.08,1.52,1.52,0,0,0,.1.74c.07.08.25.12.55.12h.94a.79.79,0,0,0,.48-.1.48.48,0,0,0,.12-.38v-.2a.43.43,0,0,0-.15-.38,1.15,1.15,0,0,0-.58-.1c-.26,0-.51,0-.75,0S173.32,40.5,173.1,40.54Z"/><path class="cls-4" d="M178.36,41.34c.08,0,.13,0,.15,0a.21.21,0,0,1,0,.13v.34a.22.22,0,0,1,0,.13s-.07,0-.16,0H178a.12.12,0,0,1-.09,0,.21.21,0,0,1,0-.13V41.5a.21.21,0,0,1,0-.13s.07,0,.15,0Z"/><path class="cls-4" d="M183.4,39.25h-.19a3.32,3.32,0,0,0-1.38.22.88.88,0,0,0-.54.69c.22,0,.45-.08.67-.1s.46,0,.7,0a2,2,0,0,1,1,.17.69.69,0,0,1,.27.62v.42a.67.67,0,0,1-.24.57,1.25,1.25,0,0,1-.75.18H181.7a1.05,1.05,0,0,1-.75-.2,1.07,1.07,0,0,1-.2-.75v-.41a1.65,1.65,0,0,1,.56-1.33,2.37,2.37,0,0,1,1.58-.47h.21Zm-2.15,1.29v.11a.69.69,0,0,0,0,.08,1.52,1.52,0,0,0,.1.74q.1.12.55.12h.94a.79.79,0,0,0,.48-.1.48.48,0,0,0,.12-.38v-.2a.43.43,0,0,0-.15-.38,1.15,1.15,0,0,0-.58-.1q-.39,0-.75,0T181.25,40.54Z"/><path class="cls-4" d="M186.66,42a.79.79,0,0,1-.53-.13.65.65,0,0,1-.14-.48v-.25l.49-.12v.55h1.78a.22.22,0,0,0,.28-.28v-.41a.31.31,0,0,0-.06-.22.34.34,0,0,0-.22-.05h-1.09v-.4h1a.28.28,0,0,0,.22-.07.5.5,0,0,0,.06-.29v-.18a.49.49,0,0,0-.06-.28.28.28,0,0,0-.22-.07h-1.65v.48L186,39.7v-.19a.65.65,0,0,1,.14-.48.8.8,0,0,1,.53-.13h1.57a.79.79,0,0,1,.53.13.65.65,0,0,1,.14.48v.28a.64.64,0,0,1-.11.4.63.63,0,0,1-.36.19.74.74,0,0,1,.45.19.61.61,0,0,1,.14.43v.33a.69.69,0,0,1-.16.52.83.83,0,0,1-.55.14Z"/><path class="cls-4" d="M193.78,39.25h-.19a3.32,3.32,0,0,0-1.38.22.87.87,0,0,0-.54.69q.33-.06.67-.1t.7,0a2,2,0,0,1,1,.17.69.69,0,0,1,.27.62v.42a.68.68,0,0,1-.24.57,1.25,1.25,0,0,1-.75.18h-1.22a1,1,0,0,1-.75-.2,1.07,1.07,0,0,1-.2-.75v-.41a1.65,1.65,0,0,1,.56-1.33,2.37,2.37,0,0,1,1.58-.47h.21Zm-2.15,1.29v.11a.69.69,0,0,0,0,.08,1.52,1.52,0,0,0,.1.74c.07.08.25.12.55.12h.94a.8.8,0,0,0,.48-.1.48.48,0,0,0,.12-.38v-.2a.42.42,0,0,0-.15-.38,1.14,1.14,0,0,0-.58-.1q-.39,0-.75,0T191.63,40.54Z"/><path class="cls-4" d="M196.89,41.34q.13,0,.15,0a.21.21,0,0,1,0,.13v.34a.21.21,0,0,1,0,.13s-.07,0-.16,0h-.36a.12.12,0,0,1-.09,0,.21.21,0,0,1,0-.13V41.5a.21.21,0,0,1,0-.13s.07,0,.15,0Z"/><path class="cls-4" d="M199.7,41.64h.18a3.39,3.39,0,0,0,1.39-.22.87.87,0,0,0,.54-.68c-.22,0-.45.08-.68.1s-.46,0-.7,0a1.92,1.92,0,0,1-1-.18.69.69,0,0,1-.27-.63v-.42a.67.67,0,0,1,.24-.57,1.24,1.24,0,0,1,.75-.18h1.22a.78.78,0,0,1,1,1v.41a1.64,1.64,0,0,1-.56,1.33,2.38,2.38,0,0,1-1.58.47H200Zm2.15-1.27s0-.07,0-.11a.74.74,0,0,0,0-.09,1.55,1.55,0,0,0-.1-.74q-.1-.11-.55-.11h-.94a.82.82,0,0,0-.48.1.47.47,0,0,0-.12.38V40a.43.43,0,0,0,.15.38,1.15,1.15,0,0,0,.58.1q.39,0,.75,0C201.4,40.43,201.63,40.41,201.85,40.37Z"/><path class="cls-4" d="M205.43,42.05l1.79-2.73H205V40l-.46-.09V38.9h3.22v.4L206,42.05Z"/><path class="cls-4" d="M210.27,42a.82.82,0,0,1-.55-.14.7.7,0,0,1-.15-.52V41a.61.61,0,0,1,.13-.43.7.7,0,0,1,.43-.19.57.57,0,0,1-.38-.18.64.64,0,0,1-.12-.42v-.28a.65.65,0,0,1,.14-.48.8.8,0,0,1,.53-.13h1.81a.8.8,0,0,1,.53.13.65.65,0,0,1,.14.48v.28a.64.64,0,0,1-.12.42.58.58,0,0,1-.38.18.72.72,0,0,1,.43.19.61.61,0,0,1,.13.43v.32a.7.7,0,0,1-.16.52.83.83,0,0,1-.56.14Zm-.21-1.08v.34a.38.38,0,0,0,.06.25.35.35,0,0,0,.24.06H212a.35.35,0,0,0,.24-.06.38.38,0,0,0,.06-.25v-.34a.37.37,0,0,0-.06-.25.35.35,0,0,0-.24-.06h-1.65a.34.34,0,0,0-.24.06A.36.36,0,0,0,210.06,40.92Zm.05-1.28v.24a.39.39,0,0,0,.06.26.36.36,0,0,0,.25.06H212a.35.35,0,0,0,.25-.06.39.39,0,0,0,.06-.26v-.24a.37.37,0,0,0-.06-.26.36.36,0,0,0-.25-.06h-1.53a.36.36,0,0,0-.25.06A.37.37,0,0,0,210.12,39.64Z"/><path class="cls-4" d="M217.07,42v-.74h-2.34v-.38l2.23-2h.58v2h.7v.38h-.7V42Zm0-1.12V39.24l-1.79,1.64Z"/><path class="cls-4" d="M23.19,25.86v-.74H20.85v-.38l2.23-2h.58v2h.7v.38h-.7v.74Zm0-1.12V23.1l-1.79,1.64Z"/><path class="cls-4" d="M26.88,25.86a.79.79,0,0,1-.53-.13.65.65,0,0,1-.14-.48V25l.49-.12v.55h1.78a.22.22,0,0,0,.28-.28v-.41a.31.31,0,0,0-.06-.22.34.34,0,0,0-.22-.05H27.4v-.4h1A.28.28,0,0,0,28.6,24a.5.5,0,0,0,.06-.29v-.18a.49.49,0,0,0-.06-.28.28.28,0,0,0-.22-.07H26.73v.48l-.47-.09v-.19a.65.65,0,0,1,.14-.48.8.8,0,0,1,.53-.13h1.57a.79.79,0,0,1,.53.13.65.65,0,0,1,.14.48v.28a.64.64,0,0,1-.11.4.62.62,0,0,1-.36.19.74.74,0,0,1,.45.19.61.61,0,0,1,.14.43v.33a.69.69,0,0,1-.16.52.82.82,0,0,1-.55.14Z"/><path class="cls-4" d="M37,23.19H34.88v2.24H37v-.78l.52.11v.37a.84.84,0,0,1-.15.58.8.8,0,0,1-.57.15H35.09a.81.81,0,0,1-.57-.15.83.83,0,0,1-.15-.58V23.5a.83.83,0,0,1,.15-.58.81.81,0,0,1,.57-.15h1.73a.8.8,0,0,1,.57.15.84.84,0,0,1,.15.58v.29l-.52.1Z"/><path class="cls-4" d="M39,25.86l1.69-3.09h.55L43,25.86h-.57L42,25.11H39.91l-.39.76Zm1.12-1.16h1.66L41,23.12Z"/><path class="cls-4" d="M45.09,23.32q0,.09,0,.19c0,.07,0,.15,0,.26v2.09h-.44V22.77h.42l1.5,2,1.4-2h.48v3.09H48V23.78s0-.1,0-.21,0-.19,0-.25l-.1.2-.08.13-1.18,1.72h-.13L45.3,23.7v0A1.32,1.32,0,0,1,45.09,23.32Z"/><path class="cls-4" d="M50.79,25.86V22.77h2.48a.73.73,0,0,1,.5.14.6.6,0,0,1,.15.46v.36a.5.5,0,0,1-.13.37.66.66,0,0,1-.39.16.55.55,0,0,1,.53.61v.39a.52.52,0,0,1-.21.45,1.13,1.13,0,0,1-.64.15Zm2.61-2.1v-.31a.28.28,0,0,0-.07-.21.38.38,0,0,0-.25-.06H51.31V24h1.78a.37.37,0,0,0,.25-.06A.28.28,0,0,0,53.4,23.77Zm0,1.31v-.26a.43.43,0,0,0-.07-.29.35.35,0,0,0-.26-.08H51.31v1h1.78a.35.35,0,0,0,.27-.08A.43.43,0,0,0,53.42,25.08Z"/><path class="cls-4" d="M56.05,23.5a.83.83,0,0,1,.15-.58.8.8,0,0,1,.58-.16h2.13a.8.8,0,0,1,.57.15.84.84,0,0,1,.15.58v1.63a.83.83,0,0,1-.15.58.8.8,0,0,1-.57.15H56.78a.81.81,0,0,1-.58-.15.83.83,0,0,1-.15-.58Zm.52,1.93h2.55V23.19H56.57Z"/><path class="cls-4" d="M61.91,25.86V22.77H64.4a.73.73,0,0,1,.5.14.6.6,0,0,1,.15.46v.7a.59.59,0,0,1-.15.45.73.73,0,0,1-.5.14h-.45l1.41,1.2h-.77l-1.26-1.2h-.91v1.2Zm2.28-2.7H62.43v1.09h1.77a.37.37,0,0,0,.26-.07.35.35,0,0,0,.07-.25v-.45a.35.35,0,0,0-.07-.25A.36.36,0,0,0,64.19,23.17Z"/><path class="cls-4" d="M67.19,25.86V22.77h.32l2.31,2.07L70,25l.18.22c0-.1,0-.2,0-.31s0-.26,0-.45v-1.7h.48v3.09h-.29l-2.37-2.15-.05,0a1.32,1.32,0,0,1-.26-.3c0,.09,0,.19,0,.3s0,.23,0,.38v1.82Z"/><path class="cls-4" d="M72.91,25.86V22.77h3v.41H73.43V24h1.5v.41h-1.5v1h2.48v.42Z"/><path class="cls-4" d="M80.21,25.86l1.69-3.09h.55l1.71,3.09h-.57l-.39-.76H81.11l-.39.76Zm1.12-1.16H83l-.83-1.58Z"/><path class="cls-4" d="M86.47,25.86l-1.69-3.09h.56l1.36,2.58L88,22.77h.51L86.9,25.86Z"/><path class="cls-4" d="M90.23,25.86V22.77h3v.41H90.75V24h1.5v.41h-1.5v1h2.48v.42Z"/><path d="M22.27,31.19v2.67h-.52V31.19H20.34v-.42h3.34v.42Z"/><path d="M25.23,31.5a.83.83,0,0,1,.15-.58.8.8,0,0,1,.58-.16h2.13a.79.79,0,0,1,.57.15.83.83,0,0,1,.15.58v1.63a.83.83,0,0,1-.15.58.8.8,0,0,1-.57.15H26a.81.81,0,0,1-.58-.15.83.83,0,0,1-.15-.58Zm.52,1.93H28.3V31.19H25.74Z"/><path d="M31.09,33.86V30.77h2.49a.73.73,0,0,1,.5.14.6.6,0,0,1,.15.46v.7a.59.59,0,0,1-.15.45.73.73,0,0,1-.5.14h-.45l1.41,1.2h-.77l-1.26-1.2H31.6v1.2Zm2.28-2.7H31.6v1.09h1.77a.37.37,0,0,0,.26-.07.35.35,0,0,0,.07-.25v-.45a.35.35,0,0,0-.07-.25A.36.36,0,0,0,33.37,31.17Z"/><path d="M36.32,31.5a.83.83,0,0,1,.15-.58.8.8,0,0,1,.57-.16h2.13a.79.79,0,0,1,.57.15.84.84,0,0,1,.15.58v1.63a.83.83,0,0,1-.15.58.8.8,0,0,1-.57.15H37a.8.8,0,0,1-.57-.15.83.83,0,0,1-.15-.58Zm.52,1.93h2.55V31.19H36.84Z"/><path d="M42.18,33.86V30.77h.32l2.31,2.07L45,33l.18.22c0-.1,0-.2,0-.31s0-.26,0-.45v-1.7h.48v3.09h-.29l-2.37-2.15-.05,0a1.33,1.33,0,0,1-.26-.3c0,.09,0,.19,0,.3s0,.23,0,.38v1.82Z"/><path d="M49.11,31.19v2.67H48.6V31.19H47.18v-.42h3.34v.42Z"/><path d="M52.07,31.5a.83.83,0,0,1,.15-.58.8.8,0,0,1,.58-.16h2.13a.8.8,0,0,1,.57.15.84.84,0,0,1,.15.58v1.63a.83.83,0,0,1-.15.58.8.8,0,0,1-.57.15H52.8a.81.81,0,0,1-.58-.15.83.83,0,0,1-.15-.58Zm.52,1.93h2.55V31.19H52.59Z"/><path d="M58.29,33.21q.13,0,.15,0a.22.22,0,0,1,0,.13v.46l-.42.64h-.26l.35-.66h-.2a.12.12,0,0,1-.1,0,.23.23,0,0,1,0-.13v-.27a.22.22,0,0,1,0-.13s.07,0,.15,0Z"/><path d="M63.69,31.5a.83.83,0,0,1,.15-.58.8.8,0,0,1,.58-.16h2.13a.79.79,0,0,1,.57.15.84.84,0,0,1,.15.58v1.63a.83.83,0,0,1-.15.58.8.8,0,0,1-.57.15H64.42a.81.81,0,0,1-.58-.15.83.83,0,0,1-.15-.58Zm.52,1.93h2.55V31.19H64.21Z"/><path d="M69.55,33.86V30.77h.32l2.31,2.07.17.17.18.22c0-.1,0-.2,0-.31s0-.26,0-.45v-1.7H73v3.09h-.29L70.3,31.71l-.05,0a1.34,1.34,0,0,1-.26-.3c0,.09,0,.19,0,.3s0,.23,0,.38v1.82Z"/><path d="M76.48,31.19v2.67H76V31.19H74.55v-.42H77.9v.42Z"/><path d="M78.44,33.86l1.69-3.09h.55l1.71,3.09h-.57l-.39-.76H79.34l-.39.76Zm1.12-1.16h1.66l-.83-1.58Z"/><path d="M84.11,33.86V30.77h2.49a.73.73,0,0,1,.5.14.6.6,0,0,1,.15.46v.7a.59.59,0,0,1-.15.45.73.73,0,0,1-.5.14h-.45l1.41,1.2h-.77l-1.26-1.2h-.91v1.2Zm2.28-2.7H84.62v1.09h1.77a.37.37,0,0,0,.26-.07.35.35,0,0,0,.07-.25v-.45a.35.35,0,0,0-.07-.25A.37.37,0,0,0,86.39,31.17Z"/><path d="M89.38,33.86V30.77h.52v3.09Z"/><path d="M92.18,31.5a.83.83,0,0,1,.15-.58.8.8,0,0,1,.58-.16H95a.79.79,0,0,1,.57.15.84.84,0,0,1,.15.58v1.63a.83.83,0,0,1-.15.58.8.8,0,0,1-.57.15H92.91a.81.81,0,0,1-.58-.15.83.83,0,0,1-.15-.58Zm.52,1.93h2.55V31.19H92.69Z"/><path class="cls-4" d="M21.48,39.32q0,.09,0,.19c0,.07,0,.15,0,.26v2.09h-.44V38.77h.42l1.5,2,1.4-2h.48v3.09h-.48V39.78s0-.1,0-.21,0-.19,0-.25l-.1.2-.08.13L23,41.38h-.13L21.69,39.7v0A1.32,1.32,0,0,1,21.48,39.32Z"/><path class="cls-4" d="M27.81,41.86a.79.79,0,0,1-.53-.13.65.65,0,0,1-.14-.48V41l.49-.12v.55h1.78a.22.22,0,0,0,.28-.28v-.41a.31.31,0,0,0-.06-.22.34.34,0,0,0-.22-.05H28.33v-.4h1a.28.28,0,0,0,.22-.07.51.51,0,0,0,.06-.29v-.18a.49.49,0,0,0-.06-.28.28.28,0,0,0-.22-.07H27.65v.48l-.47-.09v-.19a.65.65,0,0,1,.14-.48.8.8,0,0,1,.53-.13h1.57a.79.79,0,0,1,.53.13.65.65,0,0,1,.14.48v.28a.64.64,0,0,1-.11.4.62.62,0,0,1-.36.19.74.74,0,0,1,.45.19.61.61,0,0,1,.14.43v.33a.69.69,0,0,1-.16.52.82.82,0,0,1-.55.14Z"/><path class="cls-4" d="M32.79,39.32q0,.09,0,.19c0,.07,0,.15,0,.26v2.09h-.44V38.77h.42l1.5,2,1.4-2h.48v3.09H35.7V39.78s0-.1,0-.21,0-.19,0-.25l-.1.2-.08.13-1.18,1.72h-.13L33,39.7v0A1.32,1.32,0,0,1,32.79,39.32Z"/><path class="cls-4" d="M41.56,39.38a.65.65,0,0,1,.14-.48.8.8,0,0,1,.53-.13h1.48a.79.79,0,0,1,.53.13.65.65,0,0,1,.14.48v.19a.72.72,0,0,1-.07.36.92.92,0,0,1-.31.28l-2,1.24h2v-.59l.49.16v.25a.64.64,0,0,1-.14.47.81.81,0,0,1-.53.13H41.42v-.19a.54.54,0,0,1,.08-.33,1,1,0,0,1,.27-.23l2.09-1.32v-.6H42v.73l-.49-.13Z"/><path class="cls-4" d="M46.64,41.86V38.77h2.49a.73.73,0,0,1,.5.14.6.6,0,0,1,.15.46v.7a.59.59,0,0,1-.15.45.73.73,0,0,1-.5.14h-.45l1.41,1.2h-.77l-1.26-1.2h-.91v1.2Zm2.28-2.7H47.16v1.09h1.77a.37.37,0,0,0,.26-.07.35.35,0,0,0,.07-.25v-.45a.35.35,0,0,0-.07-.25A.36.36,0,0,0,48.92,39.17Z"/><path class="cls-4" d="M52,39.38a.65.65,0,0,1,.14-.48.8.8,0,0,1,.53-.13h1.48a.79.79,0,0,1,.53.13.65.65,0,0,1,.14.48v.19a.72.72,0,0,1-.07.36.92.92,0,0,1-.31.28l-2,1.24h2v-.59L55,41v.25a.64.64,0,0,1-.14.47.81.81,0,0,1-.53.13H51.88v-.19a.54.54,0,0,1,.08-.33,1,1,0,0,1,.27-.23l2.09-1.32v-.6H52.52v.73L52,39.78Z"/><path d="M23.69,47.19H21.55v2.24h2.14v-.78l.52.11v.37a.84.84,0,0,1-.15.58.8.8,0,0,1-.57.15H21.76a.81.81,0,0,1-.57-.15.83.83,0,0,1-.15-.58V47.5a.83.83,0,0,1,.15-.58.81.81,0,0,1,.57-.15h1.73a.79.79,0,0,1,.57.15.84.84,0,0,1,.15.58v.29l-.52.1Z"/><path d="M25.67,49.86l1.69-3.09h.55l1.72,3.09h-.57l-.39-.76H26.57l-.39.76Zm1.12-1.16h1.66l-.83-1.58Z"/><path d="M31.34,49.86V46.77h.32L34,48.84l.17.17.18.22c0-.1,0-.2,0-.31s0-.26,0-.45v-1.7h.48v3.09h-.29l-2.37-2.15-.05,0a1.32,1.32,0,0,1-.26-.3c0,.09,0,.19,0,.3s0,.23,0,.38v1.82Z"/><path d="M36.46,49.86l1.69-3.09h.55l1.71,3.09h-.57l-.39-.76H37.37l-.39.76Zm1.12-1.16h1.66l-.83-1.58Z"/><path d="M43.83,46.77a3.65,3.65,0,0,1,.71.06A1.4,1.4,0,0,1,45,47a1.35,1.35,0,0,1,.47.54,1.65,1.65,0,0,1,.17.75,1.76,1.76,0,0,1-.17.78,1.33,1.33,0,0,1-.47.55,1.38,1.38,0,0,1-.47.18,3.6,3.6,0,0,1-.71.06h-1.7V46.77Zm-.07.42H42.65v2.24h1.11a1.65,1.65,0,0,0,1.06-.26,1.09,1.09,0,0,0,.31-.87,1,1,0,0,0-.32-.85A1.67,1.67,0,0,0,43.76,47.19Z"/><path d="M47,49.86l1.69-3.09h.55l1.72,3.09h-.57L50,49.11H47.88l-.39.76Zm1.12-1.16h1.66l-.83-1.58Z"/><path class="cls-3" d="M65.87,103.81v-3.09h3v.41H66.39V102h1.5v.41h-1.5v1h2.48v.42Z"/><path class="cls-3" d="M71.23,101.27c0,.06,0,.12,0,.19s0,.15,0,.26v2.09h-.44v-3.09h.42l1.5,2,1.4-2h.48v3.09h-.48v-2.09s0-.1,0-.21,0-.19,0-.25l-.1.2-.08.13-1.18,1.72h-.13l-1.23-1.67v0A1.33,1.33,0,0,1,71.23,101.27Z"/><path class="cls-3" d="M76.33,103.81,78,100.72h.55l1.72,3.09h-.57l-.39-.76H77.23l-.39.76Zm1.12-1.16h1.66l-.83-1.58Z"/><path class="cls-3" d="M82,103.81v-3.09h.52v3.09Z"/><path class="cls-3" d="M84.83,103.81v-3.09h.52v2.66h2.34v.43Z"/><path class="cls-3" d="M94.87,99.44h.29v.45h-.29Zm0,4.37v-3.14h.29v3.14Z"/><path class="cls-3" d="M98.48,103.81v-3.14h.29v.53a1,1,0,0,1,.41-.44,1.17,1.17,0,0,1,1.39.13,1,1,0,0,1,.33.74v2.18h-.29v-2.18a.73.73,0,0,0-.24-.55.82.82,0,0,0-.58-.23,1,1,0,0,0-.66.25,1.09,1.09,0,0,0-.35.64v2.07Z"/><path class="cls-3" d="M104.24,103.81V101h-.49v-.29h.49v-.59a.63.63,0,0,1,.2-.47.65.65,0,0,1,.48-.2h.18v.23h-.17a.34.34,0,0,0-.27.13.43.43,0,0,0-.12.31v.59h.56V101h-.56v2.82Z"/><path class="cls-3" d="M108.19,103.42a1.68,1.68,0,0,1-.41-1.18,1.79,1.79,0,0,1,.41-1.22,1.35,1.35,0,0,1,1.07-.46,1.36,1.36,0,0,1,1.07.46,1.82,1.82,0,0,1,.4,1.22,1.7,1.7,0,0,1-.4,1.18,1.38,1.38,0,0,1-1.07.44A1.37,1.37,0,0,1,108.19,103.42Zm1.92-.18a1.51,1.51,0,0,0,.32-1,1.57,1.57,0,0,0-.32-1,1.06,1.06,0,0,0-.85-.39,1,1,0,0,0-.85.39,1.54,1.54,0,0,0-.32,1,1.48,1.48,0,0,0,.32,1,1.06,1.06,0,0,0,.85.38A1.08,1.08,0,0,0,110.11,103.25Z"/><path class="cls-3" d="M115.65,101.12a1.31,1.31,0,0,1,1-.42,1.19,1.19,0,0,1,.61.17,1.52,1.52,0,0,1,.48.44v-.55H118V103a.37.37,0,0,0,.14.29.47.47,0,0,0,.33.13.8.8,0,0,0,.67-.43,2,2,0,0,0,.27-1.06,2.39,2.39,0,0,0-.81-1.82,2.91,2.91,0,0,0-3.94,0,2.51,2.51,0,0,0-.82,1.88,2.55,2.55,0,0,0,.82,1.9,2.74,2.74,0,0,0,2,.79,3.55,3.55,0,0,0,1-.14,2.52,2.52,0,0,0,.83-.41l.13.26a2.24,2.24,0,0,1-.83.41,4.29,4.29,0,0,1-1.14.14,3,3,0,0,1-2.16-.86,2.78,2.78,0,0,1-.9-2.09,2.74,2.74,0,0,1,.9-2.06,3.19,3.19,0,0,1,4.3,0,2.66,2.66,0,0,1,.88,2,2.22,2.22,0,0,1-.33,1.24,1,1,0,0,1-.81.52.88.88,0,0,1-.52-.16.75.75,0,0,1-.3-.43h-.09a1.23,1.23,0,0,1-.45.34,1.36,1.36,0,0,1-1.53-.3,1.48,1.48,0,0,1,0-2Zm.21,1.84a1,1,0,0,0,.77.36,1,1,0,0,0,.78-.36,1.28,1.28,0,0,0,0-1.67,1,1,0,0,0-.78-.36,1,1,0,0,0-.77.36,1.28,1.28,0,0,0,0,1.67Z"/><path class="cls-3" d="M122.75,99.44H123v.45h-.29Zm0,4.37v-3.14H123v3.14Z"/><path class="cls-3" d="M127.1,103.72a1.23,1.23,0,0,1-.45-.52v.61h-.29V99.44h.29v1.94a1.16,1.16,0,0,1,1.1-.76,1.21,1.21,0,0,1,1,.45,2.11,2.11,0,0,1,0,2.4,1.21,1.21,0,0,1-1,.45A1.16,1.16,0,0,1,127.1,103.72Zm1.45-.43a1.9,1.9,0,0,0,0-2,1,1,0,0,0-.8-.38,1,1,0,0,0-.77.41,1.67,1.67,0,0,0,0,2,1,1,0,0,0,.77.41A1,1,0,0,0,128.55,103.29Z"/><path class="cls-3" d="M132.43,103.47a2.15,2.15,0,0,1,0-2.45,1.26,1.26,0,0,1,1-.46,1.31,1.31,0,0,1,1,.42,1.6,1.6,0,0,1,.38,1.12v.14h-2.51a1.61,1.61,0,0,0,.3,1,1,1,0,0,0,.8.38,1.2,1.2,0,0,0,.68-.2,1.06,1.06,0,0,0,.43-.54h.29a1.1,1.1,0,0,1-.47.72,1.55,1.55,0,0,1-.93.29A1.26,1.26,0,0,1,132.43,103.47Zm2.12-1.5v-.11a1.12,1.12,0,0,0-.35-.74,1.08,1.08,0,0,0-.75-.29,1,1,0,0,0-.74.3,1.14,1.14,0,0,0-.36.76V102Z"/><path class="cls-3" d="M137.91,103.81v-3.14h.29v.71a1.33,1.33,0,0,1,.37-.55.82.82,0,0,1,.53-.21h.17V101h-.08a.84.84,0,0,0-.63.29,1.41,1.41,0,0,0-.36.74v1.84Z"/><path class="cls-3" d="M142.37,103.42a1.68,1.68,0,0,1-.41-1.18,1.8,1.8,0,0,1,.41-1.22,1.48,1.48,0,0,1,2.14,0,1.81,1.81,0,0,1,.4,1.22,1.7,1.7,0,0,1-.4,1.18,1.51,1.51,0,0,1-2.14,0Zm1.92-.18a1.5,1.5,0,0,0,.32-1,1.56,1.56,0,0,0-.32-1,1.05,1.05,0,0,0-.85-.39,1,1,0,0,0-.86.39,1.55,1.55,0,0,0-.32,1,1.48,1.48,0,0,0,.32,1,1.06,1.06,0,0,0,.86.38A1.07,1.07,0,0,0,144.3,103.25Z"/><path class="cls-3" d="M147.66,100.67h.28l.9,2.75.73-2.75h.33l.73,2.69.89-2.69h.29l-1,3.14h-.28l-.76-2.72-.75,2.72h-.28Z"/><path class="cls-3" d="M154.76,99.44h.29v.45h-.29Zm0,4.37v-3.14h.29v3.14Z"/><path class="cls-3" d="M158.37,103.81v-3.14h.29v.53a1,1,0,0,1,.41-.44,1.18,1.18,0,0,1,1.39.13,1,1,0,0,1,.33.74v2.18h-.29v-2.18a.73.73,0,0,0-.24-.55.82.82,0,0,0-.58-.23,1,1,0,0,0-.66.25,1.09,1.09,0,0,0-.35.64v2.07Z"/><path class="cls-3" d="M164.25,103.47a2.15,2.15,0,0,1,0-2.45,1.26,1.26,0,0,1,1-.46,1.31,1.31,0,0,1,1,.42,1.6,1.6,0,0,1,.38,1.12v.14h-2.51a1.61,1.61,0,0,0,.3,1,1,1,0,0,0,.8.38,1.2,1.2,0,0,0,.68-.2,1.06,1.06,0,0,0,.43-.54h.29a1.1,1.1,0,0,1-.47.72,1.55,1.55,0,0,1-.93.29A1.26,1.26,0,0,1,164.25,103.47Zm2.12-1.5v-.11a1.12,1.12,0,0,0-.35-.74,1.08,1.08,0,0,0-.75-.29,1,1,0,0,0-.74.3,1.14,1.14,0,0,0-.36.76V102Z"/><path class="cls-3" d="M169.73,103.36h.43v.45h-.43Z"/><path class="cls-3" d="M173.7,103.45a1.78,1.78,0,0,1-.44-1.21,1.73,1.73,0,0,1,.44-1.19,1.35,1.35,0,0,1,1.05-.49,1.31,1.31,0,0,1,.87.3.94.94,0,0,1,.36.74h-.29a.66.66,0,0,0-.27-.53,1,1,0,0,0-.66-.22,1.09,1.09,0,0,0-.85.41,1.48,1.48,0,0,0-.35,1,1.53,1.53,0,0,0,.35,1,1.07,1.07,0,0,0,.85.42,1,1,0,0,0,.65-.23.69.69,0,0,0,.27-.55H176a1,1,0,0,1-.36.74,1.29,1.29,0,0,1-.87.31A1.34,1.34,0,0,1,173.7,103.45Z"/><path class="cls-3" d="M179.07,103.67a.76.76,0,0,1,0-1.25,1.41,1.41,0,0,1,.8-.31,3.32,3.32,0,0,0,.76-.15q.3-.1.3-.24v-.28a.49.49,0,0,0-.27-.41,1.25,1.25,0,0,0-1.25,0,.48.48,0,0,0-.25.4v.16h-.28v-.19a.64.64,0,0,1,.33-.54,1.45,1.45,0,0,1,.81-.22,1.55,1.55,0,0,1,.83.21.61.61,0,0,1,.35.52v1.9a.59.59,0,0,0,.08.32.23.23,0,0,0,.2.13h.07l0,0v.14a.67.67,0,0,1-.28.05.38.38,0,0,1-.29-.15.55.55,0,0,1-.12-.35.75.75,0,0,1-.38.41,1.38,1.38,0,0,1-.66.15A1.23,1.23,0,0,1,179.07,103.67Zm1.48-.22a1,1,0,0,0,.37-.64v-.72a.88.88,0,0,1-.38.15,5.06,5.06,0,0,1-.69.1,1,1,0,0,0-.58.24.6.6,0,0,0-.24.47.58.58,0,0,0,.24.47.86.86,0,0,0,.58.2A1,1,0,0,0,180.56,103.44Z"/><path class="cls-3" d="M130.37,82.7h.28l.9,2.75.73-2.75h.33l.73,2.69.89-2.69h.29l-1,3.14h-.28l-.76-2.72-.75,2.72h-.28Z"/><path class="cls-3" d="M137.1,82.7h.28l.9,2.75L139,82.7h.33l.73,2.69L141,82.7h.29l-1,3.14h-.28l-.76-2.72-.75,2.72h-.28Z"/><path class="cls-3" d="M143.83,82.7h.28l.9,2.75.73-2.75h.33l.73,2.69.89-2.69H148l-1,3.14h-.28l-.76-2.72-.75,2.72h-.28Z"/><path class="cls-3" d="M150.93,85.39h.43v.45h-.43Z"/><path class="cls-3" d="M154.67,81.47H155v.45h-.29Zm0,4.37V82.7H155v3.14Z"/><path class="cls-3" d="M159,85.75a1.23,1.23,0,0,1-.45-.52v.61h-.29V81.47h.29v1.94a1.16,1.16,0,0,1,1.1-.76,1.21,1.21,0,0,1,1,.45,2.11,2.11,0,0,1,0,2.4,1.21,1.21,0,0,1-1,.45A1.16,1.16,0,0,1,159,85.75Zm1.45-.43a1.9,1.9,0,0,0,0-2,1,1,0,0,0-.8-.38,1,1,0,0,0-.77.41,1.67,1.67,0,0,0,0,2,1,1,0,0,0,.77.41A1,1,0,0,0,160.47,85.32Z"/><path class="cls-3" d="M164.36,85.5a2.15,2.15,0,0,1,0-2.45,1.26,1.26,0,0,1,1-.46,1.31,1.31,0,0,1,1,.42,1.6,1.6,0,0,1,.38,1.12v.14h-2.51a1.61,1.61,0,0,0,.3,1,1,1,0,0,0,.8.38,1.2,1.2,0,0,0,.68-.2,1.06,1.06,0,0,0,.43-.54h.29a1.1,1.1,0,0,1-.47.72,1.55,1.55,0,0,1-.93.29A1.26,1.26,0,0,1,164.36,85.5Zm2.12-1.5v-.11a1.12,1.12,0,0,0-.35-.74,1.08,1.08,0,0,0-.75-.29,1,1,0,0,0-.74.3,1.14,1.14,0,0,0-.36.76V84Z"/><path class="cls-3" d="M169.84,85.84V82.7h.29v.71a1.33,1.33,0,0,1,.37-.55.82.82,0,0,1,.53-.21h.17V83h-.08a.84.84,0,0,0-.63.29,1.41,1.41,0,0,0-.36.74v1.84Z"/><path class="cls-3" d="M174.3,85.45a1.68,1.68,0,0,1-.41-1.18A1.8,1.8,0,0,1,174.3,83a1.48,1.48,0,0,1,2.14,0,1.81,1.81,0,0,1,.4,1.22,1.7,1.7,0,0,1-.4,1.18,1.51,1.51,0,0,1-2.14,0Zm1.92-.18a1.5,1.5,0,0,0,.32-1,1.56,1.56,0,0,0-.32-1,1.05,1.05,0,0,0-.85-.39,1,1,0,0,0-.86.39,1.55,1.55,0,0,0-.32,1,1.48,1.48,0,0,0,.32,1,1.06,1.06,0,0,0,.86.38A1.07,1.07,0,0,0,176.23,85.28Z"/><path class="cls-3" d="M179.59,82.7h.28l.9,2.75.73-2.75h.33l.73,2.69.89-2.69h.29l-1,3.14h-.28l-.76-2.72-.75,2.72h-.28Z"/><path class="cls-3" d="M186.69,81.47H187v.45h-.29Zm0,4.37V82.7H187v3.14Z"/><path class="cls-3" d="M190.3,85.84V82.7h.29v.53a1,1,0,0,1,.41-.44,1.18,1.18,0,0,1,1.39.13,1,1,0,0,1,.33.74v2.18h-.29V83.66a.73.73,0,0,0-.24-.55.82.82,0,0,0-.58-.23,1,1,0,0,0-.66.25,1.09,1.09,0,0,0-.35.64v2.07Z"/><path class="cls-3" d="M196.18,85.5a2.15,2.15,0,0,1,0-2.45,1.26,1.26,0,0,1,1-.46,1.31,1.31,0,0,1,1,.42,1.6,1.6,0,0,1,.38,1.12v.14h-2.51a1.61,1.61,0,0,0,.3,1,1,1,0,0,0,.8.38,1.2,1.2,0,0,0,.68-.2,1.06,1.06,0,0,0,.43-.54h.29a1.1,1.1,0,0,1-.47.72,1.55,1.55,0,0,1-.93.29A1.26,1.26,0,0,1,196.18,85.5ZM198.3,84v-.11a1.12,1.12,0,0,0-.35-.74,1.08,1.08,0,0,0-.75-.29,1,1,0,0,0-.74.3,1.14,1.14,0,0,0-.36.76V84Z"/><path class="cls-3" d="M201.66,85.39h.43v.45h-.43Z"/><path class="cls-3" d="M205.63,85.48a1.78,1.78,0,0,1-.44-1.21,1.73,1.73,0,0,1,.44-1.19,1.35,1.35,0,0,1,1.05-.49,1.31,1.31,0,0,1,.87.3.94.94,0,0,1,.36.74h-.29a.66.66,0,0,0-.27-.53,1,1,0,0,0-.66-.22,1.09,1.09,0,0,0-.85.41,1.48,1.48,0,0,0-.35,1,1.53,1.53,0,0,0,.35,1,1.07,1.07,0,0,0,.85.42,1,1,0,0,0,.65-.23.69.69,0,0,0,.27-.55h.31a1,1,0,0,1-.36.74,1.29,1.29,0,0,1-.87.31A1.34,1.34,0,0,1,205.63,85.48Z"/><path class="cls-3" d="M211,85.7a.76.76,0,0,1,0-1.25,1.41,1.41,0,0,1,.8-.31,3.32,3.32,0,0,0,.76-.15q.3-.1.3-.24v-.28a.49.49,0,0,0-.27-.41,1.25,1.25,0,0,0-1.25,0,.48.48,0,0,0-.25.4v.16h-.28v-.19a.64.64,0,0,1,.33-.54,1.45,1.45,0,0,1,.81-.22,1.55,1.55,0,0,1,.83.21.61.61,0,0,1,.35.52v1.9a.59.59,0,0,0,.08.32.23.23,0,0,0,.2.13h.07l0,0v.14a.67.67,0,0,1-.28.05.38.38,0,0,1-.29-.15.55.55,0,0,1-.12-.35.75.75,0,0,1-.38.41,1.38,1.38,0,0,1-.66.15A1.23,1.23,0,0,1,211,85.7Zm1.48-.22a1,1,0,0,0,.37-.64v-.72a.88.88,0,0,1-.38.15,5.06,5.06,0,0,1-.69.1,1,1,0,0,0-.58.24.6.6,0,0,0-.24.47.58.58,0,0,0,.24.47.86.86,0,0,0,.58.2A1,1,0,0,0,212.48,85.47Z"/><path class="cls-1" d="M70.47,136.87H67.25v3h3.22v-1.2H68.8v-.53h2.36v1.33a1.11,1.11,0,0,1-.2.77,1.08,1.08,0,0,1-.77.21H67.53a1.07,1.07,0,0,1-.77-.21,1.12,1.12,0,0,1-.2-.77v-2.18a1.1,1.1,0,0,1,.2-.76,1.07,1.07,0,0,1,.77-.21h2.66a1.11,1.11,0,0,1,.76.2,1,1,0,0,1,.21.72v.1l-.69.13Z"/><path class="cls-1" d="M79.78,140.43l-1.49-4.12H79l1.11,3.28,1.22-3.28h.42l1.17,3.28L84,136.3h.62l-1.49,4.13h-.51l-1.14-3.12-1.18,3.12Z"/><path class="cls-1" d="M91.95,140.43V136.3h4v.56H92.64V138h2v.55h-2v1.31h3.31v.56Z"/><path class="cls-1" d="M103.56,140.43V136.3H104l3.08,2.76.22.23.24.29q0-.2,0-.42t0-.6V136.3h.63v4.13h-.39l-3.16-2.87-.07-.06a1.75,1.75,0,0,1-.35-.4c0,.13,0,.26,0,.4s0,.31,0,.5v2.43Z"/><path class="cls-1" d="M128.7,136.87h-2.92V138h2.6a.79.79,0,0,1,1,1v.46a1.11,1.11,0,0,1-.2.77,1.08,1.08,0,0,1-.76.2H126a1.06,1.06,0,0,1-.76-.21,1.11,1.11,0,0,1-.2-.77v-.11l.64-.15v.66h3.06v-1.23h-2.59a1.05,1.05,0,0,1-.76-.21,1.13,1.13,0,0,1-.2-.77v-.36a1.11,1.11,0,0,1,.2-.77,1,1,0,0,1,.76-.21h2.2a1.1,1.1,0,0,1,.76.2,1,1,0,0,1,.21.7v.08l-.59.17Z"/><path class="cls-1" d="M136.59,140.43l2.25-4.12h.74l2.28,4.13h-.75l-.53-1h-2.78l-.53,1Zm1.49-1.55h2.21l-1.11-2.11Z"/><path class="cls-1" d="M150,140.43l-2.24-4.12h.74l1.82,3.44L152,136.3h.68l-2.15,4.13Z"/><path class="cls-1" d="M159.74,137.28a1.1,1.1,0,0,1,.2-.77,1.06,1.06,0,0,1,.77-.21h2.85a1.05,1.05,0,0,1,.75.21,1.11,1.11,0,0,1,.2.77v2.17a1.13,1.13,0,0,1-.2.78,1.06,1.06,0,0,1-.75.2h-2.85a1.07,1.07,0,0,1-.77-.21,1.12,1.12,0,0,1-.2-.77Zm.69,2.57h3.41v-3h-3.41Z"/><path class="cls-1" d="M172.57,140.43V136.3h.69v4.13Z"/><path class="cls-1" d="M181.37,140.43V136.3h4v.56h-3.28V138h2v.55h-2v1.31h3.31v.56Z"/></g></svg>