<svg xmlns="http://www.w3.org/2000/svg" viewBox="0 0 2772.34 1782.73"><defs><style>.cls-1{fill:#fff;}.cls-2{fill:#f4f4f5;}.cls-3{fill:#90ca6c;}.cls-4,.cls-5{fill:#f3f6d8;}.cls-5,.cls-6{font-size:12.93px;}.cls-5{font-family:Lato-Black, Lato;}.cls-6{fill:#617d4e;}.cls-10,.cls-6{font-family:Lato-Regular, Lato;}.cls-7{letter-spacing:-0.08em;}.cls-8{fill:#d8d8d8;}.cls-9{fill:#47afdf;}.cls-10{font-size:21.87px;}.cls-10,.cls-13{fill:#4d4d4d;}.cls-11{fill:#eaeaea;}.cls-12{fill:#f5a539;}.cls-13{font-size:32.3px;font-family:Verdana, Verdana;letter-spacing:-0.05em;}.cls-14,.cls-15,.cls-16{fill:none;stroke-miterlimit:10;}.cls-14{stroke:#d8d9d8;}.cls-15{stroke:#92ca6c;}.cls-16{stroke:#47afdf;}.cls-17{fill:#999;}</style></defs><title>mouse-over-menu</title><g id="Background"><rect class="cls-1" width="2772.34" height="1782.73"/></g><g id="Layer_1" data-name="Layer 1"><circle class="cls-2" cx="2392.74" cy="341.8" r="213.63"/><path class="cls-3" d="M2517.07,398.54l2.79-8.08c2.6.53,5.41-1.53,6.58-4.92s.22-6.75-2.15-7.93l2.79-8.08a3,3,0,0,0-1.87-3.84l-35.62-12.28a3,3,0,0,0-3.84,1.87l-10,29a3,3,0,0,0,1.87,3.84l35.62,12.28A3,3,0,0,0,2517.07,398.54Zm7.46-13.66c-.76,2.2-2.5,3.73-4,3.63l3.09-9C2524.86,380.41,2525.29,382.68,2524.53,384.88Zm-46.27,1.35a1,1,0,0,1-.62-1.28l10-29a1,1,0,0,1,1.28-.62l35.62,12.28a1,1,0,0,1,.62,1.28l-10,29a1,1,0,0,1-1.28.62Z"/><rect class="cls-3" x="2506.46" y="375.25" width="13.83" height="1.94" transform="translate(3688.11 -1877.35) rotate(109.02)"/><polygon class="cls-3" points="2509.56 392.09 2511.31 391.24 2510.33 389.24 2512.33 388.27 2511.48 386.52 2509.48 387.5 2508.51 385.5 2506.77 386.35 2507.74 388.35 2505.74 389.32 2506.59 391.06 2508.59 390.09 2509.56 392.09"/><rect class="cls-3" x="2499.49" y="372.85" width="13.83" height="1.94" transform="translate(3676.6 -1873.94) rotate(109.02)"/><polygon class="cls-3" points="2502.59 389.68 2504.34 388.83 2503.36 386.84 2505.36 385.87 2504.51 384.12 2502.51 385.09 2501.54 383.1 2499.8 383.95 2500.77 385.94 2498.77 386.92 2499.62 388.66 2501.62 387.69 2502.59 389.68"/><rect class="cls-3" x="2492.5" y="370.44" width="13.83" height="1.94" transform="translate(3665.06 -1870.53) rotate(109.02)"/><polygon class="cls-3" points="2495.6 387.27 2497.35 386.42 2496.38 384.43 2498.37 383.46 2497.52 381.71 2495.53 382.69 2494.55 380.69 2492.81 381.54 2493.78 383.54 2491.79 384.51 2492.64 386.25 2494.63 385.28 2495.6 387.27"/><rect class="cls-3" x="2485.51" y="368.03" width="13.83" height="1.94" transform="translate(3653.52 -1867.12) rotate(109.02)"/><polygon class="cls-3" points="2488.62 384.87 2490.36 384.02 2489.39 382.02 2491.38 381.05 2490.53 379.31 2488.54 380.28 2487.57 378.28 2485.82 379.13 2486.79 381.13 2484.8 382.1 2485.65 383.84 2487.64 382.87 2488.62 384.87"/><path class="cls-3" d="M2370.68,467l45,0a2.56,2.56,0,0,0,2.56-2.56V431.63a2.56,2.56,0,0,0-2.56-2.56l-45,0a2.56,2.56,0,0,0-2.56,2.56v32.77A2.56,2.56,0,0,0,2370.68,467Zm0-1.71a.85.85,0,0,1-.85-.85v-3.78h14.44v4.62Zm29.74-4.64v4.61H2386v-4.62ZM2386,459V430.81h14.45V459Zm29.74,6.3h-13.58v-4.61h14.43v3.74A.85.85,0,0,1,2415.7,465.25Zm0-34.48a.85.85,0,0,1,.85.85V459h-14.43V430.79Zm-45,0h13.58V459h-14.44V431.67A.85.85,0,0,1,2370.68,430.82Z"/><rect class="cls-3" x="2406.75" y="453.06" width="5.67" height="1.71"/><rect class="cls-3" x="2406.75" y="447.16" width="5.67" height="1.71"/><rect class="cls-3" x="2406.75" y="441.09" width="5.67" height="1.71"/><rect class="cls-3" x="2406.75" y="435.19" width="5.67" height="1.71"/><rect class="cls-3" x="2390.68" y="453.06" width="5.67" height="1.71"/><rect class="cls-3" x="2390.68" y="447.16" width="5.67" height="1.71"/><rect class="cls-3" x="2390.68" y="441.09" width="5.67" height="1.71"/><rect class="cls-3" x="2390.68" y="435.19" width="5.67" height="1.71"/><rect class="cls-3" x="2374.55" y="453.06" width="5.67" height="1.71"/><rect class="cls-3" x="2374.55" y="447.16" width="5.67" height="1.71"/><rect class="cls-3" x="2374.55" y="441.09" width="5.67" height="1.71"/><rect class="cls-3" x="2374.55" y="435.19" width="5.67" height="1.71"/><path class="cls-3" d="M2348.74,249.9a.86.86,0,0,1,1.21.12l1.81,2.22a.86.86,0,0,1-.12,1.21l-27.11,22.11a.86.86,0,0,1-1.21-.12l-16.31-20a.86.86,0,0,1,.12-1.21l2.22-1.81a.86.86,0,0,1,1.21.12l14,17.11Zm-17.24-6.71-2.15,7-9.89-2.45a.86.86,0,0,0-1.06,1l1.73,12,4.71,5.78,21.34-17.4-13.5-6.36A.86.86,0,0,0,2331.5,243.19Z"/><path class="cls-3" d="M2293.59,361.88c1.6.82,3.56,1.91,8.48,0a1,1,0,0,0,.73-1.36l-4.06-13.44a1.14,1.14,0,0,0-1.31-.74c-.35.11-5.32.87-7.16,4.74C2293.63,352.49,2295.93,357.68,2293.59,361.88Z"/><path class="cls-3" d="M2282.47,389.59c1.6.82,3.56,1.91,8.48,0a1,1,0,0,0,.73-1.36l-4.06-13.44a1.14,1.14,0,0,0-1.31-.74c-.35.11-5.32.87-7.16,4.74C2282.51,380.2,2284.81,385.38,2282.47,389.59Z"/><path class="cls-3" d="M2273.4,374.3a12.86,12.86,0,0,1,4.92-14.24,8.24,8.24,0,0,1-.08-3.38,15.76,15.76,0,0,0-6.32,21.57,6.38,6.38,0,0,1,3-.69A12.84,12.84,0,0,1,2273.4,374.3Z"/><path class="cls-3" d="M2298,366.86a12.86,12.86,0,0,1-5.4,14.55l.87,2.89a15.78,15.78,0,0,0,7.32-18.29c-.07-.24-.16-.47-.25-.7a12.84,12.84,0,0,1-3,.31A12.64,12.64,0,0,1,2298,366.86Z"/><circle class="cls-3" cx="2275.22" cy="385.86" r="5.83" transform="translate(-14.37 674.46) rotate(-16.81)"/><circle class="cls-3" cx="2286.35" cy="358.16" r="5.83" transform="translate(-5.88 676.49) rotate(-16.81)"/><polygon class="cls-3" points="2515.99 515.84 2517.07 515.14 2393.52 340.85 2392.43 341.55 2515.99 515.84"/><polygon class="cls-3" points="2269.99 515.84 2268.91 515.14 2392.45 340.83 2393.53 341.54 2269.99 515.84"/><polygon class="cls-3" points="2193.45 264.91 2193.85 263.68 2393.19 340.57 2392.79 341.8 2193.45 264.91"/><path class="cls-3" d="M2393,127.56c100.93,0,185.49,70,207.84,164.1l-.19,0L2393,341.18V127.56Z"/><polygon class="cls-4" points="2459.11 245.78 2455.47 235.94 2453.02 239.6 2448.8 236.79 2446.87 239.69 2451.08 242.51 2448.62 246.19 2459.11 245.78"/><path class="cls-4" d="M2481.18,253.68l-2.09-10.45-9.35-6.24-1.65-8.27-11.79-7.87a2.94,2.94,0,0,0-4.07.81l-17.1,25.62a2.94,2.94,0,0,0,.81,4.07l11.87,7.92-1.68,2.52a2.94,2.94,0,0,0,.81,4.07l15.62,10.42a2.94,2.94,0,0,0,4.07-.81Zm-44.14-4a1,1,0,0,1-.27-1.36l17.1-25.62a1,1,0,0,1,1.36-.27l10.16,6.78-2.56,3.83-.14.24,0,.08-.08.17,0,.09-.06.17,0,.09c0,.07,0,.14-.05.21v0c0,.09,0,.17,0,.26s0,.05,0,.08,0,.12,0,.18,0,.07,0,.1,0,.11,0,.16v.1c0,.06,0,.12,0,.18v.08q0,.12.06.24l0,.07.06.17,0,.1.07.14,0,.1.08.14.05.08.15.2a2.92,2.92,0,0,0,.66.6l.9.6,2.94,2L2454,259.87a1,1,0,0,1-1.36.27Zm26.62,24.93L2448,264.23a1,1,0,0,1-.27-1.36l1.68-2.52,2.12,1.42a2.94,2.94,0,0,0,4.07-.81l4-6,2.83,7.64,2.46-3.68,4.21,2.81,1.94-2.9-4.21-2.81,2.45-3.67-8.14.32,8.8-13.18,6.41,4.28-2.56,3.83a2.94,2.94,0,0,0,.81,4.07l3.83,2.56L2465,274.38A1,1,0,0,1,2463.66,274.65Z"/><text class="cls-5" transform="matrix(0.83, 0.56, -0.56, 0.83, 2468.71, 186.65)">Compare</text><circle class="cls-3" cx="2393" cy="341.18" r="21.06"/><g id="Layer_1_copy" data-name="Layer 1 copy"><path class="cls-4" d="M2397.7,333.48l-4.71,4.71-4.71-4.71a.91.91,0,0,0-1.28,0l-.86.86-.86.86a.91.91,0,0,0,0,1.28l4.71,4.71-4.71,4.71a.91.91,0,0,0,0,1.28l.86.86.86.86a.91.91,0,0,0,1.28,0l4.71-4.71,4.71,4.71a.91.91,0,0,0,1.28,0l.86-.86.86-.86a.91.91,0,0,0,0-1.28l-4.71-4.71,4.71-4.71a.91.91,0,0,0,0-1.28l-.86-.86-.86-.86A.91.91,0,0,0,2397.7,333.48Z"/></g><text class="cls-6" transform="translate(2562.62 369.32) rotate(112.18)"><tspan class="cls-7">T</tspan><tspan x="6.6" y="0">rend chart</tspan></text><text class="cls-6" transform="translate(2276.82 228.05) rotate(-38.8)">Scorecard</text><text class="cls-6" transform="translate(2418.35 495.08) rotate(180)">Coaching</text><text class="cls-6" transform="translate(2242.27 398.4) rotate(-109.94)">Matrix</text><circle class="cls-2" cx="379.73" cy="935.98" r="213.63"/><path class="cls-3" d="M536.68,1012.88l2.42-7c2.26.46,4.71-1.33,5.72-4.28s.19-5.87-1.87-6.9l2.42-7a2.63,2.63,0,0,0-1.63-3.34l-31-10.68a2.63,2.63,0,0,0-3.34,1.63l-8.7,25.25a2.63,2.63,0,0,0,1.63,3.34l31,10.68A2.63,2.63,0,0,0,536.68,1012.88Zm6.49-11.88c-.66,1.92-2.17,3.24-3.48,3.16l2.69-7.8C543.46,997.1,543.83,999.08,543.17,1001Zm-40.26,1.17a.88.88,0,0,1-.54-1.11l8.7-25.25a.88.88,0,0,1,1.11-.54l31,10.68a.88.88,0,0,1,.54,1.11l-8.7,25.25a.88.88,0,0,1-1.11.54Z"/><rect class="cls-3" x="527.44" y="992.61" width="12.03" height="1.69" transform="translate(1646.53 812.86) rotate(109.02)"/><polygon class="cls-3" points="530.14 1007.26 531.66 1006.52 530.82 1004.78 532.55 1003.94 531.81 1002.42 530.08 1003.27 529.23 1001.53 527.71 1002.27 528.56 1004.01 526.82 1004.85 527.56 1006.37 529.3 1005.52 530.14 1007.26"/><rect class="cls-3" x="521.38" y="990.52" width="12.03" height="1.69" transform="translate(1636.51 815.83) rotate(109.02)"/><polygon class="cls-3" points="524.08 1005.17 525.6 1004.43 524.75 1002.7 526.49 1001.85 525.75 1000.33 524.01 1001.18 523.17 999.44 521.65 1000.18 522.5 1001.92 520.76 1002.76 521.5 1004.28 523.23 1003.43 524.08 1005.17"/><rect class="cls-3" x="515.3" y="988.42" width="12.03" height="1.69" transform="translate(1626.47 818.8) rotate(109.02)"/><polygon class="cls-3" points="518 1003.07 519.52 1002.34 518.67 1000.6 520.41 999.75 519.67 998.24 517.93 999.08 517.09 997.35 515.57 998.09 516.41 999.82 514.68 1000.67 515.42 1002.18 517.15 1001.34 518 1003.07"/><rect class="cls-3" x="509.22" y="986.33" width="12.03" height="1.69" transform="translate(1616.43 821.77) rotate(109.02)"/><polygon class="cls-3" points="511.92 1000.98 513.44 1000.24 512.59 998.5 514.33 997.66 513.59 996.14 511.85 996.99 511.01 995.25 509.49 995.99 510.34 997.73 508.6 998.57 509.34 1000.09 511.07 999.24 511.92 1000.98"/><path class="cls-3" d="M357.51,1110.8l39.18,0a2.23,2.23,0,0,0,2.23-2.23V1080a2.23,2.23,0,0,0-2.23-2.23l-39.18,0a2.23,2.23,0,0,0-2.23,2.23v28.51A2.23,2.23,0,0,0,357.51,1110.8Zm0-1.48a.74.74,0,0,1-.74-.74v-3.29h12.56v4Zm25.88-4v4H370.81v-4Zm-12.57-1.48V1079.3h12.57v24.5Zm25.87,5.48H384.87v-4h12.56v3.25A.74.74,0,0,1,396.69,1109.28Zm0-30a.74.74,0,0,1,.74.74v23.77H384.87v-24.5Zm-39.18,0h11.82v24.49H356.77v-23.74A.74.74,0,0,1,357.51,1079.32Z"/><rect class="cls-3" x="388.89" y="1098.66" width="4.93" height="1.48"/><rect class="cls-3" x="388.89" y="1093.54" width="4.93" height="1.48"/><rect class="cls-3" x="388.89" y="1088.25" width="4.93" height="1.48"/><rect class="cls-3" x="388.89" y="1083.12" width="4.93" height="1.48"/><rect class="cls-3" x="374.91" y="1098.66" width="4.93" height="1.48"/><rect class="cls-3" x="374.91" y="1093.54" width="4.93" height="1.48"/><rect class="cls-3" x="374.91" y="1088.25" width="4.93" height="1.48"/><rect class="cls-3" x="374.91" y="1083.12" width="4.93" height="1.48"/><rect class="cls-3" x="360.88" y="1098.66" width="4.93" height="1.48"/><rect class="cls-3" x="360.88" y="1093.54" width="4.93" height="1.48"/><rect class="cls-3" x="360.88" y="1088.25" width="4.93" height="1.48"/><rect class="cls-3" x="360.88" y="1083.12" width="4.93" height="1.48"/><path class="cls-3" d="M308.7,807.08a.86.86,0,0,1,1.21.12l1.81,2.22a.86.86,0,0,1-.12,1.21l-27.11,22.11a.86.86,0,0,1-1.21-.12l-16.31-20a.86.86,0,0,1,.12-1.21l2.22-1.81a.86.86,0,0,1,1.21.12l14,17.11Zm-17.24-6.71-2.15,7-9.89-2.45a.86.86,0,0,0-1.06,1l1.73,12,4.71,5.78,21.34-17.4-13.5-6.36A.86.86,0,0,0,291.45,800.38Z"/><path class="cls-3" d="M233.14,965.8c1.6.82,3.56,1.91,8.48,0a1,1,0,0,0,.73-1.36L238.29,951a1.14,1.14,0,0,0-1.31-.74c-.35.11-5.32.87-7.16,4.74C233.18,956.41,235.48,961.6,233.14,965.8Z"/><path class="cls-3" d="M222,993.51c1.6.82,3.56,1.91,8.48,0a1,1,0,0,0,.73-1.36l-4.06-13.44a1.14,1.14,0,0,0-1.31-.74c-.35.11-5.32.87-7.16,4.74C222.06,984.12,224.35,989.3,222,993.51Z"/><path class="cls-3" d="M213,978.22A12.86,12.86,0,0,1,217.87,964a8.24,8.24,0,0,1-.08-3.38,15.76,15.76,0,0,0-6.32,21.57,6.38,6.38,0,0,1,3-.69A12.84,12.84,0,0,1,213,978.22Z"/><path class="cls-3" d="M237.58,970.78a12.86,12.86,0,0,1-5.4,14.55l.87,2.89a15.78,15.78,0,0,0,7.32-18.29c-.07-.24-.16-.47-.25-.7a12.84,12.84,0,0,1-3,.31A12.64,12.64,0,0,1,237.58,970.78Z"/><circle class="cls-3" cx="214.77" cy="989.78" r="5.83" transform="matrix(0.96, -0.29, 0.29, 0.96, -277.06, 104.4)"/><circle class="cls-3" cx="225.9" cy="962.08" r="5.83" transform="translate(-268.57 106.44) rotate(-16.81)"/><polygon class="cls-3" points="502.98 1110.01 504.07 1109.31 380.51 935.02 379.42 935.73 502.98 1110.01"/><polygon class="cls-3" points="256.99 1110.01 255.9 1109.31 379.44 935.01 380.53 935.71 256.99 1110.01"/><polygon class="cls-3" points="180.44 859.08 180.84 857.85 380.18 934.75 379.78 935.98 180.44 859.08"/><path class="cls-3" d="M380,721.73c100.93,0,185.49,70,207.84,164.1l-.19,0L380,935.36V721.73Z"/><polygon class="cls-4" points="474.29 806.06 470.64 796.22 468.2 799.89 463.98 797.08 462.05 799.98 466.26 802.79 463.8 806.47 474.29 806.06"/><path class="cls-4" d="M496.36,814l-2.09-10.45-9.35-6.24L483.27,789l-11.79-7.87a2.94,2.94,0,0,0-4.07.81l-17.1,25.62a2.94,2.94,0,0,0,.81,4.07L463,819.55l-1.68,2.52a2.94,2.94,0,0,0,.81,4.07l15.62,10.42a2.94,2.94,0,0,0,4.07-.81Zm-44.14-4a1,1,0,0,1-.27-1.36L469,783a1,1,0,0,1,1.36-.27l10.16,6.78L478,793.37l-.14.24,0,.08-.08.17,0,.09-.06.17,0,.09c0,.07,0,.14-.05.21v0c0,.09,0,.17,0,.26s0,.05,0,.08,0,.12,0,.18,0,.07,0,.1,0,.11,0,.16v.1c0,.06,0,.12,0,.18v.08q0,.12.06.24l0,.07.06.17,0,.1.07.14,0,.1.08.14.05.08.15.2a2.92,2.92,0,0,0,.66.6l.9.6,2.94,2-13.45,20.16a1,1,0,0,1-1.36.27Zm26.62,24.93-15.62-10.42a1,1,0,0,1-.27-1.36l1.68-2.52,2.12,1.42a2.94,2.94,0,0,0,4.07-.81l4-6,2.83,7.64,2.46-3.68,4.21,2.81,1.94-2.9L482,816.3l2.45-3.67-8.14.32,8.8-13.18,6.41,4.28L489,807.88a2.94,2.94,0,0,0,.81,4.07l3.83,2.56-13.45,20.16A1,1,0,0,1,478.84,834.94Z"/><circle class="cls-3" cx="379.99" cy="935.36" r="21.06"/><circle class="cls-1" cx="380.18" cy="935.36" r="113.41"/><g id="Layer_1_copy-2" data-name="Layer 1 copy"><path class="cls-3" d="M384.69,927.65,380,932.36l-4.71-4.71a.91.91,0,0,0-1.28,0l-.86.86-.86.86a.91.91,0,0,0,0,1.28l4.71,4.71-4.71,4.71a.91.91,0,0,0,0,1.28l.86.86.86.86a.91.91,0,0,0,1.28,0l4.71-4.71,4.71,4.71a.91.91,0,0,0,1.28,0l.86-.86.86-.86a.91.91,0,0,0,0-1.28L383,935.36l4.71-4.71a.91.91,0,0,0,0-1.28l-.86-.86-.86-.86A.91.91,0,0,0,384.69,927.65Z"/></g><circle class="cls-2" cx="2393.23" cy="935.98" r="213.63"/><path class="cls-3" d="M2550.18,1012.88l2.42-7c2.26.46,4.71-1.33,5.72-4.28s.19-5.87-1.87-6.9l2.42-7a2.63,2.63,0,0,0-1.63-3.34l-31-10.68a2.63,2.63,0,0,0-3.34,1.63l-8.7,25.25a2.63,2.63,0,0,0,1.63,3.34l31,10.68A2.63,2.63,0,0,0,2550.18,1012.88Zm6.49-11.88c-.66,1.92-2.17,3.24-3.48,3.16l2.69-7.8C2557,997.1,2557.33,999.08,2556.67,1001Zm-40.26,1.17a.88.88,0,0,1-.54-1.11l8.7-25.25a.88.88,0,0,1,1.11-.54l31,10.68a.88.88,0,0,1,.54,1.11l-8.7,25.25a.88.88,0,0,1-1.11.54Z"/><rect class="cls-3" x="2540.94" y="992.61" width="12.03" height="1.69" transform="matrix(-0.33, 0.95, -0.95, -0.33, 4316.19, -1090.72)"/><polygon class="cls-3" points="2543.64 1007.26 2545.16 1006.52 2544.32 1004.78 2546.05 1003.94 2545.31 1002.42 2543.58 1003.27 2542.73 1001.53 2541.21 1002.27 2542.06 1004.01 2540.32 1004.85 2541.06 1006.37 2542.8 1005.52 2543.64 1007.26"/><rect class="cls-3" x="2534.88" y="990.52" width="12.03" height="1.69" transform="translate(4306.17 -1087.76) rotate(109.02)"/><polygon class="cls-3" points="2537.58 1005.17 2539.1 1004.43 2538.25 1002.7 2539.99 1001.85 2539.25 1000.33 2537.51 1001.18 2536.67 999.44 2535.15 1000.18 2535.99 1001.92 2534.26 1002.76 2535 1004.28 2536.73 1003.43 2537.58 1005.17"/><rect class="cls-3" x="2528.8" y="988.42" width="12.03" height="1.69" transform="translate(4296.13 -1084.79) rotate(109.02)"/><polygon class="cls-3" points="2531.5 1003.07 2533.02 1002.34 2532.17 1000.6 2533.91 999.75 2533.17 998.24 2531.43 999.08 2530.59 997.35 2529.07 998.09 2529.91 999.82 2528.18 1000.67 2528.92 1002.18 2530.65 1001.34 2531.5 1003.07"/><rect class="cls-3" x="2522.72" y="986.33" width="12.03" height="1.69" transform="translate(4286.09 -1081.82) rotate(109.02)"/><polygon class="cls-3" points="2525.42 1000.98 2526.94 1000.24 2526.09 998.5 2527.83 997.66 2527.09 996.14 2525.35 996.99 2524.51 995.25 2522.99 995.99 2523.84 997.73 2522.1 998.57 2522.84 1000.09 2524.57 999.24 2525.42 1000.98"/><path class="cls-3" d="M2371,1110.8l39.18,0a2.23,2.23,0,0,0,2.23-2.23V1080a2.23,2.23,0,0,0-2.23-2.23l-39.18,0a2.23,2.23,0,0,0-2.23,2.23v28.51A2.23,2.23,0,0,0,2371,1110.8Zm0-1.48a.74.74,0,0,1-.74-.74v-3.29h12.56v4Zm25.88-4v4h-12.57v-4Zm-12.57-1.48V1079.3h12.57v24.5Zm25.87,5.48h-11.82v-4h12.56v3.25A.74.74,0,0,1,2410.18,1109.28Zm0-30a.74.74,0,0,1,.74.74v23.77h-12.56v-24.5Zm-39.18,0h11.82v24.49h-12.56v-23.74A.74.74,0,0,1,2371,1079.32Z"/><rect class="cls-3" x="2402.39" y="1098.66" width="4.93" height="1.48"/><rect class="cls-3" x="2402.39" y="1093.54" width="4.93" height="1.48"/><rect class="cls-3" x="2402.39" y="1088.25" width="4.93" height="1.48"/><rect class="cls-3" x="2402.39" y="1083.12" width="4.93" height="1.48"/><rect class="cls-3" x="2388.41" y="1098.66" width="4.93" height="1.48"/><rect class="cls-3" x="2388.41" y="1093.54" width="4.93" height="1.48"/><rect class="cls-3" x="2388.41" y="1088.25" width="4.93" height="1.48"/><rect class="cls-3" x="2388.41" y="1083.12" width="4.93" height="1.48"/><rect class="cls-3" x="2374.38" y="1098.66" width="4.93" height="1.48"/><rect class="cls-3" x="2374.38" y="1093.54" width="4.93" height="1.48"/><rect class="cls-3" x="2374.38" y="1088.25" width="4.93" height="1.48"/><rect class="cls-3" x="2374.38" y="1083.12" width="4.93" height="1.48"/><path class="cls-3" d="M2322.2,807.08a.86.86,0,0,1,1.21.12l1.81,2.22a.86.86,0,0,1-.12,1.21L2298,832.75a.86.86,0,0,1-1.21-.12l-16.31-20a.86.86,0,0,1,.12-1.21l2.22-1.81a.86.86,0,0,1,1.21.12l14,17.11ZM2305,800.38l-2.15,7-9.89-2.45a.86.86,0,0,0-1.06,1l1.73,12,4.71,5.78,21.34-17.4-13.5-6.36A.86.86,0,0,0,2305,800.38Z"/><path class="cls-3" d="M2246.64,965.8c1.6.82,3.56,1.91,8.48,0a1,1,0,0,0,.73-1.36L2251.79,951a1.14,1.14,0,0,0-1.31-.74c-.35.11-5.32.87-7.16,4.74C2246.68,956.41,2249,961.6,2246.64,965.8Z"/><path class="cls-3" d="M2235.52,993.51c1.6.82,3.56,1.91,8.48,0a1,1,0,0,0,.73-1.36l-4.06-13.44a1.14,1.14,0,0,0-1.31-.74c-.35.11-5.32.87-7.16,4.74C2235.55,984.12,2237.85,989.3,2235.52,993.51Z"/><path class="cls-3" d="M2226.45,978.22a12.86,12.86,0,0,1,4.92-14.24,8.24,8.24,0,0,1-.08-3.38,15.76,15.76,0,0,0-6.32,21.57,6.38,6.38,0,0,1,3-.69A12.84,12.84,0,0,1,2226.45,978.22Z"/><path class="cls-3" d="M2251.08,970.78a12.86,12.86,0,0,1-5.4,14.55l.87,2.89a15.78,15.78,0,0,0,7.32-18.29c-.07-.24-.16-.47-.25-.7a12.84,12.84,0,0,1-3,.31A12.64,12.64,0,0,1,2251.08,970.78Z"/><circle class="cls-3" cx="2228.26" cy="989.78" r="5.83" transform="translate(-191.02 686.68) rotate(-16.81)"/><circle class="cls-3" cx="2239.4" cy="962.08" r="5.83" transform="translate(-182.54 688.72) rotate(-16.81)"/><polygon class="cls-8" points="2516.48 1110.01 2517.57 1109.31 2394.01 935.02 2392.92 935.73 2516.48 1110.01"/><polygon class="cls-8" points="2270.49 1110.01 2269.4 1109.31 2392.94 935.01 2394.03 935.71 2270.49 1110.01"/><polygon class="cls-8" points="2193.94 859.08 2194.34 857.85 2393.68 934.75 2393.28 935.98 2193.94 859.08"/><path class="cls-9" d="M2393.48,721.73c100.93,0,185.49,70,207.84,164.1l-.19,0-207.64,49.48V721.73Z"/><polygon class="cls-1" points="2487.79 806.06 2484.14 796.22 2481.7 799.89 2477.48 797.08 2475.54 799.98 2479.76 802.79 2477.3 806.47 2487.79 806.06"/><path class="cls-1" d="M2509.86,814l-2.09-10.45-9.35-6.24-1.65-8.27L2485,781.14a2.94,2.94,0,0,0-4.07.81l-17.1,25.62a2.94,2.94,0,0,0,.81,4.07l11.87,7.92-1.68,2.52a2.94,2.94,0,0,0,.81,4.07l15.62,10.42a2.94,2.94,0,0,0,4.07-.81Zm-44.14-4a1,1,0,0,1-.27-1.36l17.1-25.62a1,1,0,0,1,1.36-.27l10.16,6.78-2.56,3.83-.14.24,0,.08-.08.17,0,.09-.06.17,0,.09c0,.07,0,.14-.05.21v0c0,.09,0,.17,0,.26s0,.05,0,.08,0,.12,0,.18,0,.07,0,.1,0,.11,0,.16v.1c0,.06,0,.12,0,.18v.08q0,.12.06.24l0,.07.06.17,0,.1.07.14,0,.1.08.14.05.08.15.2a2.92,2.92,0,0,0,.66.6l.9.6,2.94,2-13.45,20.16a1,1,0,0,1-1.36.27Zm26.62,24.93-15.62-10.42a1,1,0,0,1-.27-1.36l1.68-2.52,2.12,1.42a2.94,2.94,0,0,0,4.07-.81l4-6,2.83,7.64,2.46-3.68,4.21,2.81,1.94-2.9-4.21-2.81,2.45-3.67-8.14.32,8.8-13.18,6.41,4.28-2.56,3.83a2.94,2.94,0,0,0,.81,4.07l3.83,2.56-13.45,20.16A1,1,0,0,1,2492.34,834.94Z"/><circle class="cls-1" cx="2393.68" cy="935.36" r="113.41"/><circle class="cls-1" cx="2393.68" cy="935.36" r="113.41"/><text class="cls-10" transform="translate(2353.06 921.18)">Metric 1</text><path class="cls-11" d="M2333.25,919.86a62.39,62.39,0,1,0,75.94-44.93A62.39,62.39,0,0,0,2333.25,919.86ZM2448,949.29a56.06,56.06,0,1,1-40.37-68.23A56.06,56.06,0,0,1,2448,949.29Z"/><path class="cls-12" d="M2407.61,881.06a56,56,0,1,1-51.17,12.39l-4-4.94a62.4,62.4,0,1,0,56.72-13.59Z"/><text class="cls-13" transform="translate(2360.24 960.84)">28.6</text><circle class="cls-2" cx="1049.79" cy="935.67" r="213.63"/><path class="cls-3" d="M1211.5,1014.36l2.42-7c2.26.46,4.71-1.33,5.72-4.28s.19-5.87-1.87-6.9l2.42-7a2.63,2.63,0,0,0-1.63-3.34l-31-10.68a2.63,2.63,0,0,0-3.34,1.63l-8.7,25.25a2.63,2.63,0,0,0,1.63,3.34l31,10.68A2.63,2.63,0,0,0,1211.5,1014.36Zm6.49-11.88c-.66,1.92-2.17,3.24-3.48,3.16l2.69-7.8C1218.28,998.58,1218.65,1000.55,1218,1002.47Zm-40.26,1.17a.88.88,0,0,1-.54-1.11l8.7-25.25a.88.88,0,0,1,1.11-.54l31,10.68a.88.88,0,0,1,.54,1.11l-8.7,25.25a.88.88,0,0,1-1.11.54Z"/><rect class="cls-3" x="1202.26" y="994.09" width="12.03" height="1.69" transform="translate(2542.66 176.84) rotate(109.02)"/><polygon class="cls-3" points="1204.97 1008.74 1206.48 1008 1205.64 1006.26 1207.37 1005.42 1206.63 1003.9 1204.9 1004.75 1204.05 1003.01 1202.54 1003.75 1203.38 1005.49 1201.64 1006.33 1202.38 1007.85 1204.12 1007 1204.97 1008.74"/><rect class="cls-3" x="1196.2" y="992" width="12.03" height="1.69" transform="translate(2532.64 179.8) rotate(109.02)"/><polygon class="cls-3" points="1198.9 1006.65 1200.42 1005.91 1199.57 1004.17 1201.31 1003.33 1200.57 1001.81 1198.83 1002.65 1197.99 1000.92 1196.47 1001.66 1197.32 1003.39 1195.58 1004.24 1196.32 1005.76 1198.06 1004.91 1198.9 1006.65"/><rect class="cls-3" x="1190.12" y="989.9" width="12.03" height="1.69" transform="translate(2522.6 182.77) rotate(109.02)"/><polygon class="cls-3" points="1192.82 1004.55 1194.34 1003.81 1193.49 1002.08 1195.23 1001.23 1194.49 999.71 1192.75 1000.56 1191.91 998.82 1190.39 999.56 1191.24 1001.3 1189.5 1002.14 1190.24 1003.66 1191.98 1002.82 1192.82 1004.55"/><rect class="cls-3" x="1184.04" y="987.81" width="12.03" height="1.69" transform="translate(2512.55 185.74) rotate(109.02)"/><polygon class="cls-3" points="1186.74 1002.46 1188.26 1001.72 1187.41 999.98 1189.15 999.13 1188.41 997.62 1186.67 998.46 1185.83 996.73 1184.31 997.47 1185.16 999.2 1183.42 1000.05 1184.16 1001.57 1185.9 1000.72 1186.74 1002.46"/><path class="cls-3" d="M1027.57,1110.49l39.18,0a2.23,2.23,0,0,0,2.23-2.23v-28.51a2.23,2.23,0,0,0-2.23-2.23l-39.18,0a2.23,2.23,0,0,0-2.23,2.23v28.51A2.23,2.23,0,0,0,1027.57,1110.49Zm0-1.48a.74.74,0,0,1-.74-.74V1105h12.56v4Zm25.88-4v4h-12.57v-4Zm-12.57-1.48V1079h12.57v24.5Zm25.87,5.48h-11.82v-4h12.56v3.25A.74.74,0,0,1,1066.74,1109Zm0-30a.74.74,0,0,1,.74.74v23.77h-12.56V1079Zm-39.18,0h11.82v24.49h-12.56v-23.74A.74.74,0,0,1,1027.57,1079Z"/><rect class="cls-3" x="1058.95" y="1098.36" width="4.93" height="1.48"/><rect class="cls-3" x="1058.95" y="1093.23" width="4.93" height="1.48"/><rect class="cls-3" x="1058.95" y="1087.95" width="4.93" height="1.48"/><rect class="cls-3" x="1058.95" y="1082.82" width="4.93" height="1.48"/><rect class="cls-3" x="1044.97" y="1098.36" width="4.93" height="1.48"/><rect class="cls-3" x="1044.97" y="1093.23" width="4.93" height="1.48"/><rect class="cls-3" x="1044.97" y="1087.95" width="4.93" height="1.48"/><rect class="cls-3" x="1044.97" y="1082.82" width="4.93" height="1.48"/><rect class="cls-3" x="1030.94" y="1098.36" width="4.93" height="1.48"/><rect class="cls-3" x="1030.94" y="1093.23" width="4.93" height="1.48"/><rect class="cls-3" x="1030.94" y="1087.95" width="4.93" height="1.48"/><rect class="cls-3" x="1030.94" y="1082.82" width="4.93" height="1.48"/><path class="cls-3" d="M975.21,802.11a.86.86,0,0,1,1.21.12l1.81,2.22a.86.86,0,0,1-.12,1.21L951,827.78a.86.86,0,0,1-1.21-.12l-16.31-20a.86.86,0,0,1,.12-1.21l2.22-1.81a.86.86,0,0,1,1.21.12l14,17.11ZM958,795.41l-2.15,7-9.89-2.45a.86.86,0,0,0-1.06,1l1.73,12,4.71,5.78,21.34-17.4-13.5-6.36A.86.86,0,0,0,958,795.41Z"/><path class="cls-3" d="M903.2,965.49c1.6.82,3.56,1.91,8.48,0a1,1,0,0,0,.73-1.36l-4.06-13.44a1.14,1.14,0,0,0-1.31-.74c-.35.11-5.32.87-7.16,4.74C903.24,956.11,905.53,961.29,903.2,965.49Z"/><path class="cls-3" d="M892.08,993.2c1.6.82,3.56,1.91,8.48,0a1,1,0,0,0,.73-1.36l-4.06-13.44a1.14,1.14,0,0,0-1.31-.74c-.35.11-5.32.87-7.16,4.74C892.11,983.81,894.41,989,892.08,993.2Z"/><path class="cls-3" d="M883,977.92a12.86,12.86,0,0,1,4.92-14.24,8.24,8.24,0,0,1-.08-3.38,15.76,15.76,0,0,0-6.32,21.57,6.38,6.38,0,0,1,3-.69A12.84,12.84,0,0,1,883,977.92Z"/><path class="cls-3" d="M907.63,970.48a12.86,12.86,0,0,1-5.4,14.55l.87,2.89a15.78,15.78,0,0,0,7.32-18.29c-.07-.24-.16-.47-.25-.7a12.84,12.84,0,0,1-3,.31A12.64,12.64,0,0,1,907.63,970.48Z"/><circle class="cls-3" cx="884.82" cy="989.48" r="5.83" transform="translate(-248.34 298.16) rotate(-16.81)"/><circle class="cls-3" cx="895.96" cy="961.77" r="5.83" transform="translate(-239.85 300.2) rotate(-16.81)"/><path class="cls-9" d="M1050,721.43c100.93,0,185.49,70,207.84,164.1l-.19,0L1050,935.05V721.43Z"/><polygon class="cls-1" points="1144.35 805.76 1140.7 795.91 1138.25 799.58 1134.04 796.77 1132.1 799.67 1136.32 802.49 1133.86 806.17 1144.35 805.76"/><path class="cls-1" d="M1166.42,813.66l-2.09-10.45L1155,797l-1.65-8.27-11.79-7.87a2.94,2.94,0,0,0-4.07.81l-17.1,25.62a2.94,2.94,0,0,0,.81,4.07l11.87,7.92-1.68,2.52a2.94,2.94,0,0,0,.81,4.07l15.62,10.42a2.94,2.94,0,0,0,4.07-.81Zm-44.14-4a1,1,0,0,1-.27-1.36l17.1-25.62a1,1,0,0,1,1.36-.27l10.16,6.78-2.56,3.83-.14.24,0,.08-.08.17,0,.09-.06.17,0,.09c0,.07,0,.14-.05.21v0c0,.09,0,.17,0,.26s0,.05,0,.08,0,.12,0,.18,0,.07,0,.1,0,.11,0,.16v.1c0,.06,0,.12,0,.18v.08q0,.12.06.24l0,.07.06.17,0,.1.07.14,0,.1.08.14.05.08.15.2a2.92,2.92,0,0,0,.66.6l.9.6,2.94,2-13.45,20.16a1,1,0,0,1-1.36.27Zm26.62,24.93-15.62-10.42a1,1,0,0,1-.27-1.36l1.68-2.52,2.12,1.42a2.94,2.94,0,0,0,4.07-.81l4-6,2.83,7.64,2.46-3.68,4.21,2.81,1.94-2.9-4.21-2.81,2.45-3.67-8.14.32,8.8-13.18,6.41,4.28-2.56,3.83a2.94,2.94,0,0,0,.81,4.07l3.83,2.56-13.45,20.16A1,1,0,0,1,1148.9,834.63Z"/><circle class="cls-3" cx="1050.05" cy="935.06" r="21.06"/><circle class="cls-1" cx="1050.24" cy="935.06" r="113.41"/><circle class="cls-9" cx="1050.03" cy="935.06" r="21.06"/><g id="Layer_1_copy-3" data-name="Layer 1 copy"><path class="cls-1" d="M1054.74,927.35l-4.71,4.71-4.71-4.71a.91.91,0,0,0-1.28,0l-.86.86-.86.86a.91.91,0,0,0,0,1.28l4.71,4.71-4.71,4.71a.91.91,0,0,0,0,1.28l.86.86.86.86a.91.91,0,0,0,1.28,0l4.71-4.71,4.71,4.71a.91.91,0,0,0,1.28,0l.86-.86.86-.86a.91.91,0,0,0,0-1.28l-4.71-4.71,4.71-4.71a.91.91,0,0,0,0-1.28l-.86-.86-.86-.86A.91.91,0,0,0,1054.74,927.35Z"/></g><circle class="cls-2" cx="1720.14" cy="935.67" r="213.63"/><path class="cls-3" d="M1882.11,1016.41l2.67-7.76c2.49.51,5.19-1.46,6.31-4.72s.21-6.48-2.06-7.61l2.67-7.76a2.9,2.9,0,0,0-1.8-3.69l-34.19-11.78a2.9,2.9,0,0,0-3.69,1.8l-9.6,27.85a2.9,2.9,0,0,0,1.8,3.69l34.19,11.78A2.9,2.9,0,0,0,1882.11,1016.41Zm7.16-13.11c-.73,2.12-2.4,3.58-3.84,3.49l3-8.6C1889.59,999,1890,1001.19,1889.27,1003.3Zm-44.4,1.29a1,1,0,0,1-.6-1.23l9.6-27.85a1,1,0,0,1,1.23-.6l34.19,11.78a1,1,0,0,1,.6,1.23l-9.6,27.85a1,1,0,0,1-1.23.6Z"/><rect class="cls-3" x="1871.92" y="994.05" width="13.27" height="1.86" transform="translate(3431.42 -456.78) rotate(109.02)"/><polygon class="cls-3" points="1874.9 1010.21 1876.58 1009.4 1875.64 1007.48 1877.56 1006.55 1876.74 1004.88 1874.83 1005.81 1873.9 1003.89 1872.22 1004.71 1873.15 1006.63 1871.24 1007.56 1872.06 1009.23 1873.97 1008.3 1874.9 1010.21"/><rect class="cls-3" x="1865.23" y="991.75" width="13.27" height="1.86" transform="translate(3420.37 -453.51) rotate(109.02)"/><polygon class="cls-3" points="1868.21 1007.91 1869.89 1007.09 1868.95 1005.18 1870.87 1004.25 1870.05 1002.57 1868.14 1003.5 1867.21 1001.59 1865.53 1002.4 1866.46 1004.32 1864.55 1005.25 1865.37 1006.93 1867.28 1005.99 1868.21 1007.91"/><rect class="cls-3" x="1858.53" y="989.44" width="13.27" height="1.86" transform="translate(3409.29 -450.24) rotate(109.02)"/><polygon class="cls-3" points="1861.51 1005.6 1863.18 1004.78 1862.25 1002.87 1864.16 1001.93 1863.35 1000.26 1861.43 1001.19 1860.5 999.28 1858.83 1000.09 1859.76 1002.01 1857.84 1002.94 1858.66 1004.62 1860.57 1003.68 1861.51 1005.6"/><rect class="cls-3" x="1851.82" y="987.12" width="13.27" height="1.86" transform="translate(3398.21 -446.96) rotate(109.02)"/><polygon class="cls-3" points="1854.8 1003.28 1856.47 1002.47 1855.54 1000.55 1857.46 999.62 1856.64 997.95 1854.73 998.88 1853.79 996.97 1852.12 997.78 1853.05 999.7 1851.14 1000.63 1851.95 1002.3 1853.87 1001.37 1854.8 1003.28"/><path class="cls-3" d="M1698.15,1110.49l43.17,0a2.46,2.46,0,0,0,2.45-2.45v-31.42a2.46,2.46,0,0,0-2.45-2.45l-43.17,0a2.46,2.46,0,0,0-2.45,2.45V1108A2.46,2.46,0,0,0,1698.15,1110.49Zm0-1.64a.82.82,0,0,1-.82-.82v-3.63h13.84v4.43Zm28.51-4.44v4.42H1712.8v-4.43Zm-13.86-1.64v-27h13.86v27Zm28.51,6h-13v-4.42h13.84V1108A.82.82,0,0,1,1741.31,1108.81Zm0-33.05a.82.82,0,0,1,.82.82v26.2h-13.84v-27Zm-43.17,0h13v27h-13.84v-26.16A.82.82,0,0,1,1698.15,1075.8Z"/><rect class="cls-3" x="1732.73" y="1097.12" width="5.43" height="1.64"/><rect class="cls-3" x="1732.73" y="1091.47" width="5.43" height="1.64"/><rect class="cls-3" x="1732.73" y="1085.64" width="5.43" height="1.64"/><rect class="cls-3" x="1732.73" y="1079.99" width="5.43" height="1.64"/><rect class="cls-3" x="1717.32" y="1097.12" width="5.43" height="1.64"/><rect class="cls-3" x="1717.32" y="1091.47" width="5.43" height="1.64"/><rect class="cls-3" x="1717.32" y="1085.64" width="5.43" height="1.64"/><rect class="cls-3" x="1717.32" y="1079.99" width="5.43" height="1.64"/><rect class="cls-3" x="1701.86" y="1097.12" width="5.43" height="1.64"/><rect class="cls-3" x="1701.86" y="1091.47" width="5.43" height="1.64"/><rect class="cls-3" x="1701.86" y="1085.64" width="5.43" height="1.64"/><rect class="cls-3" x="1701.86" y="1079.99" width="5.43" height="1.64"/><path class="cls-3" d="M1647.27,801.1a1.09,1.09,0,0,1,1.53.16l2.3,2.82a1.09,1.09,0,0,1-.16,1.53l-34.37,28a1.09,1.09,0,0,1-1.53-.16l-20.68-25.35a1.09,1.09,0,0,1,.16-1.53l2.82-2.3a1.09,1.09,0,0,1,1.53.16l17.69,21.69Zm-21.86-8.5-2.72,8.84-12.54-3.11a1.09,1.09,0,0,0-1.34,1.21l2.2,15.18,6,7.32L1644,800l-17.12-8.06A1.09,1.09,0,0,0,1625.41,792.6Z"/><path class="cls-3" d="M1572.93,962.83c2,1,4.52,2.42,10.76,0a1.24,1.24,0,0,0,.92-1.72L1579.46,944a1.45,1.45,0,0,0-1.66-.94c-.44.13-6.75,1.11-9.09,6C1573,950.91,1575.89,957.5,1572.93,962.83Z"/><path class="cls-3" d="M1558.81,998c2,1,4.52,2.42,10.76,0a1.24,1.24,0,0,0,.92-1.72l-5.15-17.05a1.45,1.45,0,0,0-1.66-.94c-.44.13-6.75,1.11-9.09,6C1558.86,986.08,1561.77,992.67,1558.81,998Z"/><path class="cls-3" d="M1547.3,978.6a16.32,16.32,0,0,1,6.25-18.07,10.46,10.46,0,0,1-.1-4.3,20,20,0,0,0-8,27.38,8.1,8.1,0,0,1,3.81-.87A16.3,16.3,0,0,1,1547.3,978.6Z"/><path class="cls-3" d="M1578.56,969.16a16.32,16.32,0,0,1-6.85,18.47l1.11,3.66a20,20,0,0,0,9.3-23.21c-.09-.31-.21-.6-.31-.89a16.3,16.3,0,0,1-3.84.4A16,16,0,0,1,1578.56,969.16Z"/><circle class="cls-3" cx="1549.6" cy="993.27" r="7.41" transform="translate(-221.03 490.57) rotate(-16.81)"/><circle class="cls-3" cx="1563.74" cy="958.11" r="7.41" transform="translate(-210.26 493.16) rotate(-16.81)"/><path class="cls-9" d="M1720.39,721.43c100.93,0,185.49,70,207.84,164.1l-.19,0-207.64,49.48V721.43Z"/><polygon class="cls-1" points="1814.7 805.75 1811.05 795.91 1808.61 799.58 1804.39 796.77 1802.45 799.67 1806.67 802.48 1804.21 806.16 1814.7 805.75"/><path class="cls-1" d="M1836.77,813.66l-2.09-10.45-9.35-6.24-1.65-8.27-11.79-7.87a2.94,2.94,0,0,0-4.07.81l-17.1,25.62a2.94,2.94,0,0,0,.81,4.07l11.87,7.92-1.68,2.52a2.94,2.94,0,0,0,.81,4.07l15.62,10.42a2.94,2.94,0,0,0,4.07-.81Zm-44.14-4a1,1,0,0,1-.27-1.36l17.1-25.62a1,1,0,0,1,1.36-.27l10.16,6.78-2.56,3.83-.14.24,0,.08-.08.17,0,.09-.06.17,0,.09c0,.07,0,.14-.05.21v0c0,.09,0,.17,0,.26s0,.05,0,.08,0,.12,0,.18,0,.07,0,.1,0,.11,0,.16v.1c0,.06,0,.12,0,.18v.08q0,.12.06.24l0,.07.06.17,0,.1.07.14,0,.1.08.14.05.08.15.2a2.92,2.92,0,0,0,.66.6l.9.6,2.94,2-13.45,20.16a1,1,0,0,1-1.36.27Zm26.62,24.93-15.62-10.42a1,1,0,0,1-.27-1.36l1.68-2.52,2.12,1.42a2.94,2.94,0,0,0,4.07-.81l4-6,2.83,7.64,2.46-3.68,4.21,2.81,1.94-2.9-4.21-2.81,2.45-3.67-8.14.32,8.8-13.18,6.41,4.28-2.56,3.83a2.94,2.94,0,0,0,.81,4.07l3.83,2.56-13.45,20.16A1,1,0,0,1,1819.25,834.63Z"/><circle class="cls-1" cx="1720.59" cy="935.05" r="113.41"/><circle class="cls-9" cx="1720.59" cy="935.05" r="78.35"/><g id="Layer_1_copy-4" data-name="Layer 1 copy"><path class="cls-1" d="M1729.88,919.86l-9.28,9.28-9.28-9.28a1.8,1.8,0,0,0-2.53,0l-1.69,1.69-1.69,1.69a1.8,1.8,0,0,0,0,2.53l9.28,9.28-9.28,9.28a1.8,1.8,0,0,0,0,2.53l1.69,1.69,1.69,1.69a1.8,1.8,0,0,0,2.53,0l9.28-9.28,9.28,9.28a1.8,1.8,0,0,0,2.53,0l1.69-1.69,1.69-1.69a1.8,1.8,0,0,0,0-2.53l-9.28-9.28,9.28-9.28a1.8,1.8,0,0,0,0-2.53l-1.69-1.69-1.69-1.69A1.8,1.8,0,0,0,1729.88,919.86Z"/></g><circle class="cls-2" cx="1721.19" cy="347.95" r="189.7"/><polygon class="cls-3" points="1599.92 379.68 1590.44 372.81 1590.44 377.73 1584.79 377.73 1584.79 381.62 1590.44 381.62 1590.44 386.56 1599.92 379.68"/><path class="cls-3" d="M1625.29,373.35l-8.41-8.41h-12.54l-6.65-6.65h-15.81a3.28,3.28,0,0,0-3.27,3.27v34.36a3.28,3.28,0,0,0,3.27,3.27h15.92v3.38a3.28,3.28,0,0,0,3.27,3.27h21a3.28,3.28,0,0,0,3.27-3.27ZM1581.88,397a1.09,1.09,0,0,1-1.09-1.09V361.56a1.09,1.09,0,0,1,1.09-1.09h13.63v5.14c0,.1,0,.21,0,.31v.1c0,.07,0,.14,0,.21l0,.1.05.19,0,.1.08.22,0,.05c0,.09.08.18.13.26l0,.08.1.17.06.09.11.15.07.09.13.15.06.07.21.19.07.05.16.12.1.06.15.09.1.06.16.08.1,0,.27.1a3.26,3.26,0,0,0,1,.15h5.14v27a1.09,1.09,0,0,1-1.09,1.09Zm40.15,6.65h-21a1.09,1.09,0,0,1-1.09-1.09v-3.38h2.85a3.28,3.28,0,0,0,3.27-3.27v-8l7.36,5.34v-4.94h5.65v-3.89h-5.65v-4.92l-7.36,5.34V367.12h8.6v5.14a3.28,3.28,0,0,0,3.27,3.27h5.14v27A1.09,1.09,0,0,1,1622,403.66Z"/><path class="cls-3" d="M1856.08,358.14h-9.54c-.38-2.93-3.58-5.15-7.58-5.15s-7.2,2.22-7.58,5.15h-9.54a3.38,3.38,0,0,0-3.37,3.37v42a3.38,3.38,0,0,0,3.37,3.37h34.24a3.38,3.38,0,0,0,3.37-3.37v-42A3.38,3.38,0,0,0,1856.08,358.14Zm-17.12-2.9c2.6,0,4.84,1.28,5.29,2.9h-10.58C1834.12,356.52,1836.36,355.24,1839,355.24Zm18.25,48.31a1.13,1.13,0,0,1-1.12,1.12h-34.24a1.13,1.13,0,0,1-1.12-1.12v-42a1.13,1.13,0,0,1,1.12-1.12h34.24a1.13,1.13,0,0,1,1.12,1.12Z"/><rect class="cls-3" x="1826.16" y="369.08" width="15.43" height="2.16"/><polygon class="cls-3" points="1852 368.41 1850.47 366.88 1848.71 368.63 1846.96 366.88 1845.43 368.41 1847.18 370.16 1845.43 371.91 1846.96 373.44 1848.71 371.69 1850.47 373.44 1852 371.91 1850.25 370.16 1852 368.41"/><rect class="cls-3" x="1826.16" y="377.3" width="15.43" height="2.16"/><polygon class="cls-3" points="1852 376.63 1850.47 375.1 1848.71 376.86 1846.96 375.1 1845.43 376.63 1847.18 378.38 1845.43 380.14 1846.96 381.67 1848.71 379.92 1850.47 381.67 1852 380.14 1850.25 378.38 1852 376.63"/><rect class="cls-3" x="1826.16" y="385.55" width="15.43" height="2.16"/><polygon class="cls-3" points="1852 384.88 1850.47 383.35 1848.71 385.1 1846.96 383.35 1845.43 384.88 1847.18 386.63 1845.43 388.38 1846.96 389.91 1848.71 388.16 1850.47 389.91 1852 388.38 1850.25 386.63 1852 384.88"/><rect class="cls-3" x="1826.16" y="393.8" width="15.43" height="2.16"/><polygon class="cls-3" points="1852 393.13 1850.47 391.6 1848.71 393.35 1846.96 391.6 1845.43 393.13 1847.18 394.88 1845.43 396.63 1846.96 398.16 1848.71 396.41 1850.47 398.16 1852 396.63 1850.25 394.88 1852 393.13"/><path class="cls-3" d="M1746.92,441.09l-50.24,0a2.86,2.86,0,0,0-2.85,2.85v36.56a2.86,2.86,0,0,0,2.86,2.85l50.24,0a2.86,2.86,0,0,0,2.85-2.85V443.94A2.86,2.86,0,0,0,1746.92,441.09Zm0,1.9a1,1,0,0,1,1,1v4.22h-16.11V443Zm-33.18,5.17V443l16.12,0v5.16Zm16.12,1.9v31.41l-16.12,0V450.07Zm-33.18-7h15.15v5.14h-16.1V444A1,1,0,0,1,1696.68,443Zm0,38.46a1,1,0,0,1-1-1V450.07h16.1v31.42Zm50.24,0h-15.15v-31.4h16.11V480.5A1,1,0,0,1,1746.92,481.46Z"/><rect class="cls-3" x="1700.35" y="454.74" width="6.32" height="1.9"/><rect class="cls-3" x="1700.35" y="461.32" width="6.32" height="1.9"/><rect class="cls-3" x="1700.35" y="468.1" width="6.32" height="1.9"/><rect class="cls-3" x="1700.35" y="474.67" width="6.32" height="1.9"/><rect class="cls-3" x="1718.28" y="454.74" width="6.32" height="1.9"/><rect class="cls-3" x="1718.28" y="461.32" width="6.32" height="1.9"/><rect class="cls-3" x="1718.28" y="468.1" width="6.32" height="1.9"/><rect class="cls-3" x="1718.28" y="474.67" width="6.32" height="1.9"/><rect class="cls-3" x="1736.27" y="454.74" width="6.32" height="1.9"/><rect class="cls-3" x="1736.27" y="461.32" width="6.32" height="1.9"/><rect class="cls-3" x="1736.27" y="468.1" width="6.32" height="1.9"/><rect class="cls-3" x="1736.27" y="474.67" width="6.32" height="1.9"/><circle class="cls-9" cx="1720.64" cy="340.89" r="21.06"/><g id="Layer_1_copy-5" data-name="Layer 1 copy"><path class="cls-1" d="M1725.35,333.19l-4.71,4.71-4.71-4.71a.91.91,0,0,0-1.28,0l-.86.86-.86.86a.91.91,0,0,0,0,1.28l4.71,4.71-4.71,4.71a.91.91,0,0,0,0,1.28l.86.86.86.86a.91.91,0,0,0,1.28,0l4.71-4.71,4.71,4.71a.91.91,0,0,0,1.28,0l.86-.86.86-.86a.91.91,0,0,0,0-1.28l-4.71-4.71,4.71-4.71a.91.91,0,0,0,0-1.28l-.86-.86-.86-.86A.91.91,0,0,0,1725.35,333.19Z"/></g><path class="cls-3" d="M1658.38,257.82a1,1,0,0,1,1,1V262a1,1,0,0,1-1,1h-39a1,1,0,0,1-1-1v-28.8a1,1,0,0,1,1-1h3.2a1,1,0,0,1,1,1v24.64Zm-10.18-18-6.78,4.52-6.82-9.09a1,1,0,0,0-1.59.08l-6.94,11.57v8.32h30.72l-7.19-15A1,1,0,0,0,1648.2,239.86Z"/><circle class="cls-9" cx="1875.55" cy="164.07" r="39.42"/><circle class="cls-9" cx="1932.01" cy="232.22" r="39.42"/><circle class="cls-9" cx="1804.93" cy="246.68" r="45.89"/><circle class="cls-9" cx="1798.46" cy="120.64" r="39.42"/><path class="cls-1" d="M1810.72,256.25c-1.25,1.3-2.85,2.85-2.44,8.12a1,1,0,0,0,1.09,1.09h14a1.14,1.14,0,0,0,1.09-1c0-.36.7-5.34-2.46-8.22C1819.69,259,1814.07,259.7,1810.72,256.25Z"/><path class="cls-1" d="M1787.41,237.59c-1.25,1.3-2.85,2.85-2.44,8.12a1,1,0,0,0,1.09,1.09h14a1.14,1.14,0,0,0,1.09-1c0-.36.7-5.34-2.46-8.22C1796.39,240.34,1790.76,241,1787.41,237.59Z"/><path class="cls-1" d="M1804.66,233.33a12.86,12.86,0,0,1,12.21,8.83,8.24,8.24,0,0,1,3.26.9,15.76,15.76,0,0,0-18.82-12.29,6.38,6.38,0,0,1-.21,3.07A12.84,12.84,0,0,1,1804.66,233.33Z"/><path class="cls-1" d="M1804.66,259.05a12.86,12.86,0,0,1-12.37-9.38h-3a15.78,15.78,0,0,0,15.39,12.3c.25,0,.5,0,.75,0a12.84,12.84,0,0,1,.57-3A12.64,12.64,0,0,1,1804.66,259.05Z"/><circle class="cls-1" cx="1793.08" cy="231.72" r="5.83"/><circle class="cls-1" cx="1816.37" cy="250.39" r="5.83"/><path class="cls-1" d="M1795.13,131.22c.73.12,1.63,1.18,1.46,3.34s-.73,3.09-1.6,3.15-2-1-1.85-3.37S1794.79,131.17,1795.13,131.22Z"/><path class="cls-1" d="M1793.41,129.79a2,2,0,0,0-2.75.51c-1.56,1.78-2.12,5.56.62,5.62C1791.45,134,1791.9,130.94,1793.41,129.79Z"/><path class="cls-1" d="M1790.36,128.07c-.34-.8-1.77-2.29-3.43.46s-1.26,5.53.63,5.32C1787.73,132.34,1788.37,129.42,1790.36,128.07Z"/><path class="cls-1" d="M1785.67,127.19c-.54-.55-1.38-1.26-2.31.37s-.4,2.31.6,3A5.23,5.23,0,0,1,1785.67,127.19Z"/><path class="cls-1" d="M1798.23,135.38c.68.47,2.79,1.68,3.16,2s2.34.55,1.89-1.13c-1.54-1.25-4.12-3.77-4.43-4.12s-.82-2,.94-1.52c.84.72,5,4.63,5.35,4.92s2.38.25,2.15-1.31c-1.11-1.09-5.29-5.21-6-5.8s.35-2.17,1.07-1.64,5.78,5.62,6.23,6a1.77,1.77,0,0,0,2.44-2.07c-1.25-1.09-5.53-4.82-6.35-5.7s.61-1.93,1.29-1.33,5.88,5.27,6.21,5.6,3.18.86,2.56-1.64c-1.6-1.5-5.68-4.92-6.89-6.6-2.42-1.21-6.31-3.1-8-7.17a8.88,8.88,0,0,0-1.62-.08c-2.27,2-6.74,4.24-8.63,1.76-2.44-3.2,2.44-6.19,2.85-6.66a18.12,18.12,0,0,0-6.61,2.2c-1.52-.78-6-3.57-6-3.57s-7.41,11.48-7.34,11.48,9.75,7,9.75,7,2.45-2.58,5-.43c1.13-.71,3.36-1.34,4.57,1.49a3.91,3.91,0,0,1,3.4,1.54c.84,1.08,1.67,1,2,1.58a10.14,10.14,0,0,1,1,1.69C1798.26,132.21,1798.23,135.38,1798.23,135.38Z"/><path class="cls-1" d="M1815.61,126l8.88-4.54-4.92-12.83s-8.76,3.72-9.26,3.78c-3.37-1.58-9.17-4.83-11-5s-5.89,2.37-8.11,5.48c-.38.64-.85,2.37,2.08,1.73a11.34,11.34,0,0,0,4-2.49,11.35,11.35,0,0,1,4-.15c.47,1.41,2.46,6.27,7.5,7.18C1809.84,120.3,1815.61,126,1815.61,126Z"/><rect class="cls-1" x="1919.05" y="222.51" width="13.65" height="2.57" rx="0.46" ry="0.46"/><rect class="cls-1" x="1919.05" y="230.94" width="23.38" height="2.57" rx="0.46" ry="0.46"/><rect class="cls-1" x="1919.05" y="239.37" width="25.89" height="2.57" rx="0.46" ry="0.46"/><path class="cls-1" d="M1951,231c0,.42.06.84.06,1.26a19.11,19.11,0,1,1-14.78-18.54v-1.31a20.3,20.3,0,1,0,16,19.85c0-.43,0-.84-.06-1.26Z"/><polygon class="cls-1" points="1951.51 224.12 1947.12 219.76 1951.48 215.36 1948.52 212.43 1944.16 216.82 1939.76 212.46 1936.83 215.42 1941.23 219.78 1936.87 224.18 1939.82 227.11 1944.18 222.71 1948.58 227.07 1951.51 224.12"/><path class="cls-1" d="M1875.7,178.35a9.74,9.74,0,1,1,9.74-9.74A9.74,9.74,0,0,1,1875.7,178.35Zm22.65-12.76c-20.23-19-34.86-10.67-45.08-.07l-3.58-3.06c15.52-17.91,36.2-15.75,51.72-.3Z"/><path class="cls-2" d="M1272.81,1401.32a276.4,276.4,0,0,1,34.61,61.78l66.76-18.32a344.86,344.86,0,0,0-43.49-80.94Z"/><path class="cls-2" d="M1268.36,1395.47l54.18-42.5a347.71,347.71,0,0,0-69.48-66.83l-38.11,57.43A278.47,278.47,0,0,1,1268.36,1395.47Z"/><text class="cls-10" transform="translate(1009.84 1505.45)">Metric 1</text><text class="cls-13" transform="translate(1015.09 1541.86)">28.6</text><rect class="cls-2" x="990.74" y="1551.95" width="118.48" height="20.8"/><rect class="cls-12" x="990.74" y="1551.95" width="88.81" height="20.8"/><text class="cls-10" transform="translate(2353.77 1501.09)">Metric 1</text><text class="cls-13" transform="translate(2359.03 1537.5)">28.6</text><rect class="cls-2" x="2334.68" y="1547.59" width="118.48" height="20.8"/><rect class="cls-12" x="2334.68" y="1547.59" width="88.81" height="20.8"/><circle class="cls-2" cx="971.97" cy="242.82" r="56.03"/><circle class="cls-2" cx="927.98" cy="382.48" r="56.03"/><circle class="cls-9" cx="1120.9" cy="240.74" r="56.03"/><circle class="cls-2" cx="1167.35" cy="384.21" r="56.03"/><circle class="cls-2" cx="1050.19" cy="469.7" r="56.03"/><path class="cls-3" d="M1182.72,363.19h-8.55c-.34-2.63-3.21-4.62-6.8-4.62s-6.45,2-6.8,4.62H1152a3,3,0,0,0-3,3v37.68a3,3,0,0,0,3,3h30.69a3,3,0,0,0,3-3V366.22A3,3,0,0,0,1182.72,363.19Zm-15.35-2.6c2.33,0,4.34,1.15,4.74,2.6h-9.48C1163,361.74,1165,360.59,1167.37,360.59Zm16.35,43.3a1,1,0,0,1-1,1H1152a1,1,0,0,1-1-1V366.22a1,1,0,0,1,1-1h30.69a1,1,0,0,1,1,1Z"/><rect class="cls-3" x="1155.9" y="373" width="13.83" height="1.94"/><polygon class="cls-3" points="1179.06 372.4 1177.69 371.02 1176.12 372.59 1174.55 371.02 1173.18 372.4 1174.75 373.96 1173.18 375.54 1174.55 376.91 1176.12 375.34 1177.69 376.91 1179.06 375.54 1177.49 373.96 1179.06 372.4"/><rect class="cls-3" x="1155.9" y="380.37" width="13.83" height="1.94"/><polygon class="cls-3" points="1179.06 379.77 1177.69 378.4 1176.12 379.97 1174.55 378.4 1173.18 379.77 1174.75 381.34 1173.18 382.91 1174.55 384.28 1176.12 382.71 1177.69 384.28 1179.06 382.91 1177.49 381.34 1179.06 379.77"/><rect class="cls-3" x="1155.9" y="387.76" width="13.83" height="1.94"/><polygon class="cls-3" points="1179.06 387.16 1177.69 385.79 1176.12 387.36 1174.55 385.79 1173.18 387.16 1174.75 388.73 1173.18 390.3 1174.55 391.67 1176.12 390.1 1177.69 391.67 1179.06 390.3 1177.49 388.73 1179.06 387.16"/><rect class="cls-3" x="1155.9" y="395.15" width="13.83" height="1.94"/><polygon class="cls-3" points="1179.06 394.55 1177.69 393.18 1176.12 394.75 1174.55 393.18 1173.18 394.55 1174.75 396.12 1173.18 397.69 1174.55 399.06 1176.12 397.49 1177.69 399.06 1179.06 397.69 1177.49 396.12 1179.06 394.55"/><polygon class="cls-1" points="1119.08 238.65 1110.58 232.49 1110.58 236.9 1105.51 236.9 1105.51 240.39 1110.58 240.39 1110.58 244.81 1119.08 238.65"/><path class="cls-1" d="M1141.82,233l-7.54-7.54H1123l-6-6H1102.9a2.94,2.94,0,0,0-2.93,2.93v30.8a2.94,2.94,0,0,0,2.93,2.93h14.27v3a2.94,2.94,0,0,0,2.93,2.93h18.78a2.94,2.94,0,0,0,2.93-2.93Zm-38.91,21.2a1,1,0,0,1-1-1v-30.8a1,1,0,0,1,1-1h12.22V226c0,.09,0,.18,0,.28v.09c0,.06,0,.12,0,.18l0,.09,0,.17,0,.09.07.2,0,0,.11.23,0,.07.09.15.06.08.1.13.06.08.12.13.06.06.19.17.06,0,.14.11.09.06.13.08.09.05.15.07.09,0,.24.09a2.92,2.92,0,0,0,.88.13h4.61V253.2a1,1,0,0,1-1,1Zm36,6h-18.78a1,1,0,0,1-1-1v-3h2.55a2.94,2.94,0,0,0,2.93-2.93V246l6.6,4.79v-4.43h5.07v-3.49h-5.07v-4.41l-6.6,4.79V227.39h7.71V232a2.94,2.94,0,0,0,2.93,2.93h4.61v24.24A1,1,0,0,1,1138.89,260.14Z"/><path class="cls-3" d="M1072.71,450.73l-45,0a2.56,2.56,0,0,0-2.56,2.56V486.1a2.56,2.56,0,0,0,2.56,2.56l45,0a2.56,2.56,0,0,0,2.56-2.56V453.29A2.56,2.56,0,0,0,1072.71,450.73Zm0,1.71a.85.85,0,0,1,.85.85v3.78h-14.44v-4.62ZM1043,457.07v-4.61h14.45v4.62Zm14.45,1.71v28.15H1043V458.78Zm-29.74-6.3h13.58v4.61h-14.43v-3.74A.85.85,0,0,1,1027.68,452.48Zm0,34.48a.85.85,0,0,1-.85-.85V458.78h14.43v28.16Zm45,0h-13.58V458.78h14.44v27.28A.85.85,0,0,1,1072.71,486.91Z"/><rect class="cls-3" x="1030.97" y="462.97" width="5.67" height="1.71"/><rect class="cls-3" x="1030.97" y="468.86" width="5.67" height="1.71"/><rect class="cls-3" x="1030.97" y="474.94" width="5.67" height="1.71"/><rect class="cls-3" x="1030.97" y="480.84" width="5.67" height="1.71"/><rect class="cls-3" x="1047.04" y="462.97" width="5.67" height="1.71"/><rect class="cls-3" x="1047.04" y="468.86" width="5.67" height="1.71"/><rect class="cls-3" x="1047.04" y="474.94" width="5.67" height="1.71"/><rect class="cls-3" x="1047.04" y="480.84" width="5.67" height="1.71"/><rect class="cls-3" x="1063.17" y="462.97" width="5.67" height="1.71"/><rect class="cls-3" x="1063.17" y="468.86" width="5.67" height="1.71"/><rect class="cls-3" x="1063.17" y="474.94" width="5.67" height="1.71"/><rect class="cls-3" x="1063.17" y="480.84" width="5.67" height="1.71"/><path class="cls-3" d="M989.46,252a.86.86,0,0,1,.86.86v2.87a.86.86,0,0,1-.86.86h-35a.86.86,0,0,1-.86-.86V229.92a.86.86,0,0,1,.86-.86h2.87a.86.86,0,0,1,.86.86V252Zm-9.13-16.1L974.26,240l-6.12-8.15a.86.86,0,0,0-1.43.07l-6.22,10.37v7.46H988l-6.45-13.46A.86.86,0,0,0,980.34,235.9Z"/><path class="cls-3" d="M934,393.06c-1.25,1.3-2.85,2.85-2.44,8.12a1,1,0,0,0,1.09,1.09h14a1.14,1.14,0,0,0,1.09-1c0-.36.7-5.34-2.46-8.22C942.94,395.81,937.31,396.51,934,393.06Z"/><path class="cls-3" d="M910.66,374.4c-1.25,1.3-2.85,2.85-2.44,8.12a1,1,0,0,0,1.09,1.09h14a1.14,1.14,0,0,0,1.09-1c0-.36.7-5.34-2.46-8.22C919.64,377.15,914,377.85,910.66,374.4Z"/><path class="cls-3" d="M927.91,370.14A12.86,12.86,0,0,1,940.12,379a8.24,8.24,0,0,1,3.26.9,15.76,15.76,0,0,0-18.82-12.29,6.38,6.38,0,0,1-.21,3.07A12.84,12.84,0,0,1,927.91,370.14Z"/><path class="cls-3" d="M927.91,395.86a12.86,12.86,0,0,1-12.37-9.38h-3a15.78,15.78,0,0,0,15.39,12.3c.25,0,.5,0,.75,0a12.84,12.84,0,0,1,.57-3A12.64,12.64,0,0,1,927.91,395.86Z"/><circle class="cls-3" cx="916.32" cy="368.53" r="5.83"/><circle class="cls-3" cx="939.62" cy="387.2" r="5.83"/><text class="cls-10" transform="translate(1007.23 329.46)">Metric 1</text><path class="cls-11" d="M987.42,328.14a62.39,62.39,0,1,0,75.94-44.93A62.39,62.39,0,0,0,987.42,328.14Zm114.74,29.43a56.06,56.06,0,1,1-40.37-68.23A56.06,56.06,0,0,1,1102.16,357.57Z"/><path class="cls-12" d="M1061.79,289.34a56,56,0,1,1-51.17,12.39l-4-4.94a62.4,62.4,0,1,0,56.72-13.59Z"/><text class="cls-13" transform="translate(1014.42 369.12)">28.6</text><circle class="cls-9" cx="305.56" cy="242.87" r="56.03"/><circle class="cls-9" cx="253.53" cy="382.17" r="56.03"/><circle class="cls-9" cx="454.22" cy="242.87" r="56.03"/><circle class="cls-9" cx="506.25" cy="382.17" r="56.03"/><circle class="cls-9" cx="379.89" cy="460.79" r="56.03"/><path class="cls-1" d="M521.62,361.16h-8.55c-.34-2.63-3.21-4.62-6.8-4.62s-6.45,2-6.8,4.62h-8.55a3,3,0,0,0-3,3v37.68a3,3,0,0,0,3,3h30.69a3,3,0,0,0,3-3V364.18A3,3,0,0,0,521.62,361.16Zm-15.35-2.6c2.33,0,4.34,1.15,4.74,2.6h-9.48C501.94,359.7,503.94,358.55,506.27,358.55Zm16.35,43.3a1,1,0,0,1-1,1H490.93a1,1,0,0,1-1-1V364.18a1,1,0,0,1,1-1h30.69a1,1,0,0,1,1,1Z"/><rect class="cls-1" x="494.8" y="370.96" width="13.83" height="1.94"/><polygon class="cls-1" points="517.96 370.36 516.59 368.99 515.02 370.56 513.45 368.99 512.08 370.36 513.65 371.93 512.08 373.5 513.45 374.87 515.02 373.3 516.59 374.87 517.96 373.5 516.39 371.93 517.96 370.36"/><rect class="cls-1" x="494.8" y="378.33" width="13.83" height="1.94"/><polygon class="cls-1" points="517.96 377.73 516.59 376.36 515.02 377.93 513.45 376.36 512.08 377.73 513.65 379.3 512.08 380.87 513.45 382.24 515.02 380.67 516.59 382.24 517.96 380.87 516.39 379.3 517.96 377.73"/><rect class="cls-1" x="494.8" y="385.72" width="13.83" height="1.94"/><polygon class="cls-1" points="517.96 385.12 516.59 383.75 515.02 385.32 513.45 383.75 512.08 385.12 513.65 386.69 512.08 388.26 513.45 389.63 515.02 388.06 516.59 389.63 517.96 388.26 516.39 386.69 517.96 385.12"/><rect class="cls-1" x="494.8" y="393.11" width="13.83" height="1.94"/><polygon class="cls-1" points="517.96 392.51 516.59 391.14 515.02 392.71 513.45 391.14 512.08 392.51 513.65 394.08 512.08 395.65 513.45 397.02 515.02 395.45 516.59 397.02 517.96 395.65 516.39 394.08 517.96 392.51"/><polygon class="cls-1" points="452.4 240.78 443.91 234.62 443.91 239.03 438.84 239.03 438.84 242.52 443.91 242.52 443.91 246.95 452.4 240.78"/><path class="cls-1" d="M475.15,235.11l-7.54-7.54H456.37l-6-6H436.23a2.94,2.94,0,0,0-2.93,2.93v30.8a2.94,2.94,0,0,0,2.93,2.93H450.5v3a2.94,2.94,0,0,0,2.93,2.93h18.78a2.94,2.94,0,0,0,2.93-2.93Zm-38.91,21.2a1,1,0,0,1-1-1v-30.8a1,1,0,0,1,1-1h12.22v4.61c0,.09,0,.18,0,.28v.09c0,.06,0,.12,0,.18l0,.09,0,.17,0,.09.07.2,0,0,.11.23,0,.07.09.15.06.08.1.13.06.08.12.13.06.06.19.17.06,0,.14.11.09.06.13.08.09.05.15.07.09,0,.24.09a2.92,2.92,0,0,0,.88.13H456v24.24a1,1,0,0,1-1,1Zm36,6H453.44a1,1,0,0,1-1-1v-3H455a2.94,2.94,0,0,0,2.93-2.93v-7.21l6.6,4.79v-4.43h5.07V245h-5.07v-4.41l-6.6,4.79V229.52h7.71v4.61a2.94,2.94,0,0,0,2.93,2.93h4.61V261.3A1,1,0,0,1,472.21,262.28Z"/><path class="cls-1" d="M402.4,441.83l-45,0a2.56,2.56,0,0,0-2.56,2.56V477.2a2.56,2.56,0,0,0,2.56,2.56l45,0a2.56,2.56,0,0,0,2.56-2.56V444.39A2.56,2.56,0,0,0,402.4,441.83Zm0,1.71a.85.85,0,0,1,.85.85v3.78H388.82v-4.62Zm-29.74,4.64v-4.61h14.45v4.62Zm14.45,1.71V478H372.66V449.88Zm-29.74-6.3H371v4.61H356.52v-3.74A.85.85,0,0,1,357.38,443.58Zm0,34.48a.85.85,0,0,1-.85-.85V449.88H371V478Zm45,0H388.82V449.88h14.44v27.28A.85.85,0,0,1,402.4,478Z"/><rect class="cls-1" x="360.67" y="454.07" width="5.67" height="1.71"/><rect class="cls-1" x="360.67" y="459.96" width="5.67" height="1.71"/><rect class="cls-1" x="360.67" y="466.04" width="5.67" height="1.71"/><rect class="cls-1" x="360.67" y="471.93" width="5.67" height="1.71"/><rect class="cls-1" x="376.74" y="454.07" width="5.67" height="1.71"/><rect class="cls-1" x="376.74" y="459.96" width="5.67" height="1.71"/><rect class="cls-1" x="376.74" y="466.04" width="5.67" height="1.71"/><rect class="cls-1" x="376.74" y="471.93" width="5.67" height="1.71"/><rect class="cls-1" x="392.86" y="454.07" width="5.67" height="1.71"/><rect class="cls-1" x="392.86" y="459.96" width="5.67" height="1.71"/><rect class="cls-1" x="392.86" y="466.04" width="5.67" height="1.71"/><rect class="cls-1" x="392.86" y="471.93" width="5.67" height="1.71"/><circle class="cls-3" cx="379.91" cy="340.89" r="21.06"/><g id="Layer_1_copy-6" data-name="Layer 1 copy"><path class="cls-1" d="M384.62,333.18l-4.71,4.71-4.71-4.71a.91.91,0,0,0-1.28,0l-.86.86-.86.86a.91.91,0,0,0,0,1.28l4.71,4.71-4.71,4.71a.91.91,0,0,0,0,1.28l.86.86.86.86a.91.91,0,0,0,1.28,0l4.71-4.71,4.71,4.71a.91.91,0,0,0,1.28,0l.86-.86.86-.86a.91.91,0,0,0,0-1.28l-4.71-4.71,4.71-4.71a.91.91,0,0,0,0-1.28l-.86-.86-.86-.86A.91.91,0,0,0,384.62,333.18Z"/></g><line class="cls-14" x1="343.77" y1="289.08" x2="364.19" y2="317.23"/><line class="cls-14" x1="415.51" y1="289.92" x2="396.68" y2="315.87"/><line class="cls-14" x1="379.89" y1="368.99" x2="379.89" y2="400.35"/><line class="cls-14" x1="408.28" y1="343.89" x2="447.18" y2="359.86"/><line class="cls-14" x1="351.2" y1="343.98" x2="311.02" y2="360.48"/><path class="cls-1" d="M323.05,252a.86.86,0,0,1,.86.86v2.87a.86.86,0,0,1-.86.86h-35a.86.86,0,0,1-.86-.86V230a.86.86,0,0,1,.86-.86h2.87a.86.86,0,0,1,.86.86V252ZM313.92,236,307.85,240l-6.12-8.15a.86.86,0,0,0-1.43.07l-6.22,10.37v7.46h27.53l-6.45-13.46A.86.86,0,0,0,313.92,236Z"/><path class="cls-1" d="M259.51,392.75c-1.25,1.3-2.85,2.85-2.44,8.12a1,1,0,0,0,1.09,1.09h14a1.14,1.14,0,0,0,1.09-1c0-.36.7-5.34-2.46-8.22C268.49,395.5,262.86,396.2,259.51,392.75Z"/><path class="cls-1" d="M236.2,374.09c-1.25,1.3-2.85,2.85-2.44,8.12a1,1,0,0,0,1.09,1.09h14a1.14,1.14,0,0,0,1.09-1c0-.36.7-5.34-2.46-8.22C245.18,376.84,239.55,377.54,236.2,374.09Z"/><path class="cls-1" d="M253.46,369.83a12.86,12.86,0,0,1,12.21,8.83,8.24,8.24,0,0,1,3.26.9,15.76,15.76,0,0,0-18.82-12.29,6.38,6.38,0,0,1-.21,3.07A12.84,12.84,0,0,1,253.46,369.83Z"/><path class="cls-1" d="M253.46,395.55a12.86,12.86,0,0,1-12.37-9.38h-3a15.78,15.78,0,0,0,15.39,12.3c.25,0,.5,0,.75,0a12.84,12.84,0,0,1,.57-3A12.64,12.64,0,0,1,253.46,395.55Z"/><circle class="cls-1" cx="241.87" cy="368.22" r="5.83"/><circle class="cls-1" cx="265.17" cy="386.89" r="5.83"/></g><g id="Layer_4" data-name="Layer 4"><path class="cls-9" d="M2275.23,1527.5l-119.15-44a252.52,252.52,0,0,0,.37,171l119.63-43.75a125.14,125.14,0,0,1-.86-83.3Z"/><path class="cls-9" d="M2285.94,1340.8l53.16,114.83a125.09,125.09,0,0,0-59.24,60.32L2165,1462A252.51,252.51,0,0,1,2285.94,1340.8Z"/><path class="cls-9" d="M2435.95,1450.9a125.1,125.1,0,0,0-85-.22l-42.8-119a252.48,252.48,0,0,1,170.36.28Z"/><path class="cls-9" d="M2506.31,1515.81l114.75-53.26a252.51,252.51,0,0,0-121-121.67l-53,114.68A125.08,125.08,0,0,1,2506.31,1515.81Z"/><path class="cls-9" d="M2510.92,1527.28a125.1,125.1,0,0,1-.85,83.72l119.4,43.13a252.47,252.47,0,0,0,.48-169.86Z"/><path class="cls-1" d="M2605.61,1585.47v-9.54c2.93-.39,5.15-3.58,5.14-7.59s-2.23-7.19-5.16-7.58v-9.54a3.38,3.38,0,0,0-3.38-3.37l-42,.05a3.38,3.38,0,0,0-3.37,3.38l0,34.24a3.38,3.38,0,0,0,3.38,3.37l42-.05A3.38,3.38,0,0,0,2605.61,1585.47Zm2.88-17.12c0,2.6-1.27,4.84-2.9,5.29v-10.58C2607.21,1563.5,2608.49,1565.74,2608.49,1568.34Zm-48.29,18.3a1.13,1.13,0,0,1-1.13-1.12l0-34.24a1.13,1.13,0,0,1,1.12-1.13l42-.05a1.13,1.13,0,0,1,1.13,1.12l0,34.24a1.13,1.13,0,0,1-1.12,1.13Z"/><rect class="cls-1" x="2585.85" y="1562.19" width="15.43" height="2.16" transform="translate(4153.67 -1032.2) rotate(89.93)"/><polygon class="cls-1" points="2595.34 1581.4 2596.87 1579.87 2595.12 1578.12 2596.86 1576.36 2595.33 1574.83 2593.58 1576.59 2591.83 1574.84 2590.3 1576.37 2592.05 1578.12 2590.31 1579.87 2591.84 1581.4 2593.59 1579.65 2595.34 1581.4"/><rect class="cls-1" x="2577.63" y="1562.2" width="15.43" height="2.16" transform="translate(4145.47 -1023.96) rotate(89.93)"/><polygon class="cls-1" points="2587.11 1581.41 2588.64 1579.88 2586.89 1578.13 2588.64 1576.37 2587.11 1574.84 2585.36 1576.6 2583.6 1574.85 2582.08 1576.38 2583.83 1578.13 2582.08 1579.88 2583.61 1581.41 2585.36 1579.66 2587.11 1581.41"/><rect class="cls-1" x="2569.38" y="1562.21" width="15.43" height="2.16" transform="translate(4137.24 -1015.71) rotate(89.93)"/><polygon class="cls-1" points="2578.87 1581.42 2580.4 1579.88 2578.64 1578.14 2580.39 1576.38 2578.86 1574.86 2577.11 1576.61 2575.36 1574.86 2573.83 1576.39 2575.58 1578.14 2573.83 1579.89 2575.37 1581.42 2577.11 1579.67 2578.87 1581.42"/><rect class="cls-1" x="2561.13" y="1562.22" width="15.43" height="2.16" transform="translate(4129.01 -1007.45) rotate(89.93)"/><polygon class="cls-1" points="2570.62 1581.43 2572.15 1579.89 2570.4 1578.15 2572.15 1576.39 2570.61 1574.87 2568.86 1576.62 2567.11 1574.87 2565.58 1576.4 2567.34 1578.15 2565.59 1579.9 2567.12 1581.43 2568.87 1579.68 2570.62 1581.43"/><polygon class="cls-1" points="2524.83 1428.68 2522.13 1417.28 2518.92 1421.02 2514.63 1417.33 2512.1 1420.28 2516.38 1423.97 2513.16 1427.71 2524.83 1428.68"/><path class="cls-1" d="M2548.21,1440.42l-.9-11.86-9.51-8.18-.71-9.38-12-10.31a3.28,3.28,0,0,0-4.61.35l-22.4,26.06a3.28,3.28,0,0,0,.35,4.61l12.08,10.38-2.2,2.56a3.28,3.28,0,0,0,.35,4.61l15.89,13.66a3.28,3.28,0,0,0,4.61-.35Zm-48.35-10.36a1.09,1.09,0,0,1-.12-1.54l22.4-26.06a1.09,1.09,0,0,1,1.54-.12l10.34,8.89-3.35,3.9-.19.24-.05.08-.11.18-.05.09-.09.18,0,.09-.08.22,0,.05c0,.09-.05.19-.07.28l0,.09c0,.07,0,.13,0,.2v.11q0,.09,0,.18s0,.07,0,.11,0,.13,0,.2,0,.06,0,.09,0,.19,0,.28l0,.09c0,.07,0,.13,0,.2l0,.11.05.17,0,.11.07.17,0,.1.14.25a3.26,3.26,0,0,0,.65.75l.91.78,3,2.57-17.63,20.51a1.09,1.09,0,0,1-1.54.12Zm26.11,31.21-15.89-13.66a1.09,1.09,0,0,1-.12-1.54l2.2-2.56,2.16,1.86a3.28,3.28,0,0,0,4.61-.35l5.25-6.1,2.1,8.85,3.22-3.75,4.29,3.68,2.54-3-4.29-3.68,3.21-3.73-9.06-.75,11.52-13.41,6.52,5.61-3.35,3.9a3.28,3.28,0,0,0,.35,4.61l3.9,3.35-17.63,20.51A1.09,1.09,0,0,1,2526,1461.27Z"/><path class="cls-1" d="M2418.4,1360.21l-50.24,0a2.86,2.86,0,0,0-2.85,2.85v36.56a2.86,2.86,0,0,0,2.86,2.85l50.24,0a2.86,2.86,0,0,0,2.85-2.85v-36.56A2.86,2.86,0,0,0,2418.4,1360.21Zm0,1.9a1,1,0,0,1,1,1v4.22h-16.11v-5.16Zm-33.18,5.17v-5.14l16.12,0v5.16Zm16.12,1.9v31.41l-16.12,0v-31.42Zm-33.18-7h15.15v5.14h-16.1v-4.17A1,1,0,0,1,2368.17,1362.16Zm0,38.46a1,1,0,0,1-1-1v-30.49h16.1v31.42Zm50.24,0h-15.15v-31.4h16.11v30.44A1,1,0,0,1,2418.4,1400.58Z"/><rect class="cls-1" x="2371.84" y="1373.86" width="6.32" height="1.9"/><rect class="cls-1" x="2371.84" y="1380.44" width="6.32" height="1.9"/><rect class="cls-1" x="2371.84" y="1387.22" width="6.32" height="1.9"/><rect class="cls-1" x="2371.84" y="1393.8" width="6.32" height="1.9"/><rect class="cls-1" x="2389.77" y="1373.86" width="6.32" height="1.9"/><rect class="cls-1" x="2389.77" y="1380.44" width="6.32" height="1.9"/><rect class="cls-1" x="2389.77" y="1387.22" width="6.32" height="1.9"/><rect class="cls-1" x="2389.77" y="1393.8" width="6.32" height="1.9"/><rect class="cls-1" x="2407.76" y="1373.86" width="6.32" height="1.9"/><rect class="cls-1" x="2407.76" y="1380.44" width="6.32" height="1.9"/><rect class="cls-1" x="2407.76" y="1387.22" width="6.32" height="1.9"/><rect class="cls-1" x="2407.76" y="1393.8" width="6.32" height="1.9"/><path class="cls-1" d="M2210.75,1543.92a1,1,0,0,1,.93-1l3.2-.09a1,1,0,0,1,1,.93l1.06,39a1,1,0,0,1-.93,1l-28.79.78a1,1,0,0,1-1-.93l-.09-3.2a1,1,0,0,1,.93-1l24.63-.67Zm-17.67,10.67,4.7,6.65-8.91,7.07a1,1,0,0,0,.12,1.59l11.76,6.63,8.32-.23-.84-30.71-14.82,7.6A1,1,0,0,0,2193.07,1554.59Z"/><path class="cls-1" d="M2268.71,1435.66c.16,2,.28,4.5,5,8a1.09,1.09,0,0,0,1.72-.1l10.38-11.73a1.27,1.27,0,0,0-.06-1.68c-.3-.27-3.95-4.54-8.69-4C2277.65,1430.19,2274.07,1435.41,2268.71,1435.66Z"/><path class="cls-1" d="M2235.89,1441.34c.16,2,.28,4.5,5,8a1.09,1.09,0,0,0,1.72-.1l10.38-11.73a1.27,1.27,0,0,0-.06-1.68c-.3-.27-3.95-4.54-8.69-4C2244.82,1435.87,2241.25,1441.1,2235.89,1441.34Z"/><path class="cls-1" d="M2245.08,1423.78a14.35,14.35,0,0,1,16.4-3.67,9.19,9.19,0,0,1,3.16-2.06,17.59,17.59,0,0,0-24.18,6.64,7.12,7.12,0,0,1,2.41,2.44A14.33,14.33,0,0,1,2245.08,1423.78Z"/><path class="cls-1" d="M2266.58,1442.79a14.35,14.35,0,0,1-17,3.41l-2.23,2.52A17.61,17.61,0,0,0,2269,1445c.19-.21.35-.43.52-.65a14.32,14.32,0,0,1-2.07-2.69A14.1,14.1,0,0,1,2266.58,1442.79Z"/><circle class="cls-1" cx="2235.18" cy="1432.27" r="6.51" transform="translate(-318.59 2157.32) rotate(-48.5)"/><circle class="cls-1" cx="2268" cy="1426.61" r="6.51" transform="translate(-303.27 2179.99) rotate(-48.5)"/><path class="cls-3" d="M262.37,1527.5l-119.15-44a252.52,252.52,0,0,0,.37,171l119.63-43.75a125.14,125.14,0,0,1-.86-83.3Z"/><path class="cls-3" d="M273.08,1340.8l53.16,114.83A125.09,125.09,0,0,0,267,1515.95L152.1,1462A252.51,252.51,0,0,1,273.08,1340.8Z"/><path class="cls-3" d="M423.08,1450.9a125.1,125.1,0,0,0-85-.22l-42.8-119a252.48,252.48,0,0,1,170.36.28Z"/><path class="cls-9" d="M493.44,1515.81l114.75-53.26a252.51,252.51,0,0,0-121-121.67l-53,114.68A125.08,125.08,0,0,1,493.44,1515.81Z"/><path class="cls-3" d="M498.05,1527.28a125.1,125.1,0,0,1-.85,83.72l119.4,43.13a252.47,252.47,0,0,0,.48-169.86Z"/><path class="cls-1" d="M592.75,1585.47v-9.54c2.93-.39,5.15-3.58,5.14-7.59s-2.23-7.19-5.16-7.58v-9.54a3.38,3.38,0,0,0-3.38-3.37l-42,.05a3.38,3.38,0,0,0-3.37,3.38l0,34.24a3.38,3.38,0,0,0,3.38,3.37l42-.05A3.38,3.38,0,0,0,592.75,1585.47Zm2.88-17.12c0,2.6-1.27,4.84-2.9,5.29v-10.58C594.35,1563.5,595.63,1565.74,595.63,1568.34Zm-48.29,18.3a1.13,1.13,0,0,1-1.13-1.12l0-34.24a1.13,1.13,0,0,1,1.12-1.13l42-.05a1.13,1.13,0,0,1,1.13,1.12l0,34.24a1.13,1.13,0,0,1-1.12,1.13Z"/><rect class="cls-1" x="572.99" y="1562.19" width="15.43" height="2.16" transform="translate(2143.27 980.66) rotate(89.93)"/><polygon class="cls-1" points="582.48 1581.4 584 1579.87 582.25 1578.12 584 1576.36 582.47 1574.83 580.72 1576.59 578.97 1574.84 577.44 1576.37 579.19 1578.12 577.44 1579.87 578.97 1581.4 580.72 1579.65 582.48 1581.4"/><rect class="cls-1" x="564.76" y="1562.2" width="15.43" height="2.16" transform="translate(2135.06 988.9) rotate(89.93)"/><polygon class="cls-1" points="574.25 1581.41 575.78 1579.88 574.02 1578.13 575.77 1576.37 574.24 1574.84 572.49 1576.6 570.74 1574.85 569.21 1576.38 570.96 1578.13 569.22 1579.88 570.75 1581.41 572.5 1579.66 574.25 1581.41"/><rect class="cls-1" x="556.51" y="1562.21" width="15.43" height="2.16" transform="translate(2126.84 997.16) rotate(89.93)"/><polygon class="cls-1" points="566 1581.42 567.53 1579.88 565.78 1578.14 567.53 1576.38 566 1574.86 564.25 1576.61 562.49 1574.86 560.97 1576.39 562.72 1578.14 560.97 1579.89 562.5 1581.42 564.25 1579.67 566 1581.42"/><rect class="cls-1" x="548.27" y="1562.22" width="15.43" height="2.16" transform="translate(2118.61 1005.41) rotate(89.93)"/><polygon class="cls-1" points="557.76 1581.43 559.29 1579.89 557.53 1578.15 559.28 1576.39 557.75 1574.87 556 1576.62 554.25 1574.87 552.72 1576.4 554.47 1578.15 552.72 1579.9 554.25 1581.43 556 1579.68 557.76 1581.43"/><polygon class="cls-1" points="511.97 1428.68 509.26 1417.28 506.06 1421.02 501.77 1417.33 499.23 1420.28 503.52 1423.97 500.3 1427.71 511.97 1428.68"/><path class="cls-1" d="M535.34,1440.42l-.9-11.86-9.51-8.18-.71-9.38-12-10.31a3.28,3.28,0,0,0-4.61.35l-22.4,26.06a3.28,3.28,0,0,0,.35,4.61l12.08,10.38-2.2,2.56a3.28,3.28,0,0,0,.35,4.61l15.89,13.66a3.28,3.28,0,0,0,4.61-.35ZM487,1430.06a1.09,1.09,0,0,1-.12-1.54l22.4-26.06a1.09,1.09,0,0,1,1.54-.12l10.34,8.89-3.35,3.9-.19.24-.05.08-.11.18-.05.09-.09.18,0,.09-.08.22,0,.05c0,.09-.05.19-.07.28l0,.09c0,.07,0,.13,0,.2v.11q0,.09,0,.18s0,.07,0,.11,0,.13,0,.2,0,.06,0,.09,0,.19,0,.28l0,.09c0,.07,0,.13,0,.2l0,.11.05.17,0,.11.07.17,0,.1.14.25a3.26,3.26,0,0,0,.65.75l.91.78,3,2.57-17.63,20.51a1.09,1.09,0,0,1-1.54.12Zm26.11,31.21-15.89-13.66a1.09,1.09,0,0,1-.12-1.54l2.2-2.56,2.16,1.86a3.28,3.28,0,0,0,4.61-.35l5.25-6.1,2.1,8.85,3.22-3.75,4.29,3.68,2.54-3-4.29-3.68,3.21-3.73-9.06-.75,11.52-13.41,6.52,5.61-3.35,3.9a3.28,3.28,0,0,0,.35,4.61l3.9,3.35-17.63,20.51A1.09,1.09,0,0,1,513.1,1461.27Z"/><path class="cls-1" d="M405.54,1360.21l-50.24,0a2.86,2.86,0,0,0-2.85,2.85v36.56a2.86,2.86,0,0,0,2.86,2.85l50.24,0a2.86,2.86,0,0,0,2.85-2.85v-36.56A2.86,2.86,0,0,0,405.54,1360.21Zm0,1.9a1,1,0,0,1,1,1v4.22H390.38v-5.16Zm-33.18,5.17v-5.14l16.12,0v5.16Zm16.12,1.9v31.41l-16.12,0v-31.42Zm-33.18-7h15.15v5.14h-16.1v-4.17A1,1,0,0,1,355.3,1362.16Zm0,38.46a1,1,0,0,1-1-1v-30.49h16.1v31.42Zm50.24,0H390.38v-31.4h16.11v30.44A1,1,0,0,1,405.54,1400.58Z"/><rect class="cls-1" x="358.97" y="1373.86" width="6.32" height="1.9"/><rect class="cls-1" x="358.97" y="1380.44" width="6.32" height="1.9"/><rect class="cls-1" x="358.97" y="1387.22" width="6.32" height="1.9"/><rect class="cls-1" x="358.97" y="1393.8" width="6.32" height="1.9"/><rect class="cls-1" x="376.91" y="1373.86" width="6.32" height="1.9"/><rect class="cls-1" x="376.91" y="1380.44" width="6.32" height="1.9"/><rect class="cls-1" x="376.91" y="1387.22" width="6.32" height="1.9"/><rect class="cls-1" x="376.91" y="1393.8" width="6.32" height="1.9"/><rect class="cls-1" x="394.9" y="1373.86" width="6.32" height="1.9"/><rect class="cls-1" x="394.9" y="1380.44" width="6.32" height="1.9"/><rect class="cls-1" x="394.9" y="1387.22" width="6.32" height="1.9"/><rect class="cls-1" x="394.9" y="1393.8" width="6.32" height="1.9"/><circle class="cls-3" cx="380.09" cy="1567.95" r="21.06"/><g id="Layer_1_copy-7" data-name="Layer 1 copy"><path class="cls-1" d="M384.8,1560.24l-4.71,4.71-4.71-4.71a.91.91,0,0,0-1.28,0l-.86.86-.86.86a.91.91,0,0,0,0,1.28l4.71,4.71-4.71,4.71a.91.91,0,0,0,0,1.28l.86.86.86.86a.91.91,0,0,0,1.28,0l4.71-4.71,4.71,4.71a.91.91,0,0,0,1.28,0l.86-.86.86-.86a.91.91,0,0,0,0-1.28l-4.71-4.71,4.71-4.71a.91.91,0,0,0,0-1.28l-.86-.86-.86-.86A.91.91,0,0,0,384.8,1560.24Z"/></g><path class="cls-1" d="M197.88,1543.92a1,1,0,0,1,.93-1l3.2-.09a1,1,0,0,1,1,.93l1.06,39a1,1,0,0,1-.93,1l-28.79.78a1,1,0,0,1-1-.93l-.09-3.2a1,1,0,0,1,.93-1l24.63-.67Zm-17.67,10.67,4.7,6.65-8.91,7.07a1,1,0,0,0,.12,1.59l11.76,6.63,8.32-.23-.84-30.71-14.82,7.6A1,1,0,0,0,180.21,1554.59Z"/><path class="cls-1" d="M255.85,1435.66c.16,2,.28,4.5,5,8a1.09,1.09,0,0,0,1.72-.1l10.38-11.73a1.27,1.27,0,0,0-.06-1.68c-.3-.27-3.95-4.54-8.69-4C264.78,1430.19,261.21,1435.41,255.85,1435.66Z"/><path class="cls-1" d="M223,1441.34c.16,2,.28,4.5,5,8a1.09,1.09,0,0,0,1.72-.1l10.38-11.73a1.27,1.27,0,0,0-.06-1.68c-.3-.27-3.95-4.54-8.69-4C232,1435.87,228.38,1441.1,223,1441.34Z"/><path class="cls-1" d="M232.22,1423.78a14.35,14.35,0,0,1,16.4-3.67,9.19,9.19,0,0,1,3.16-2.06,17.59,17.59,0,0,0-24.18,6.64,7.12,7.12,0,0,1,2.41,2.44A14.33,14.33,0,0,1,232.22,1423.78Z"/><path class="cls-1" d="M253.72,1442.79a14.35,14.35,0,0,1-17,3.41l-2.23,2.52a17.61,17.61,0,0,0,21.65-3.76c.19-.21.35-.43.52-.65a14.32,14.32,0,0,1-2.07-2.69A14.1,14.1,0,0,1,253.72,1442.79Z"/><circle class="cls-1" cx="222.31" cy="1432.27" r="6.51" transform="translate(-997.72 649.75) rotate(-48.5)"/><circle class="cls-1" cx="255.14" cy="1426.61" r="6.51" transform="translate(-982.4 672.42) rotate(-48.5)"/><path class="cls-2" d="M932.79,1525.26l-119.15-44a252.52,252.52,0,0,0,.37,171l119.63-43.75a125.14,125.14,0,0,1-.86-83.3Z"/><path class="cls-2" d="M943.49,1338.55l53.16,114.83a125.09,125.09,0,0,0-59.24,60.32l-114.9-53.93A252.51,252.51,0,0,1,943.49,1338.55Z"/><path class="cls-2" d="M1093.5,1448.65a125.1,125.1,0,0,0-85-.22l-42.8-119a252.48,252.48,0,0,1,170.36.28Z"/><path class="cls-9" d="M1163.86,1513.57l114.75-53.26a252.51,252.51,0,0,0-121-121.67l-53,114.68A125.08,125.08,0,0,1,1163.86,1513.57Z"/><path class="cls-2" d="M1168.47,1525a125.1,125.1,0,0,1-.85,83.72l119.4,43.13a252.47,252.47,0,0,0,.48-169.86Z"/><path class="cls-3" d="M1263.16,1583.22v-9.54c2.93-.39,5.15-3.58,5.14-7.59s-2.23-7.19-5.16-7.58V1549a3.38,3.38,0,0,0-3.38-3.37l-42,.05a3.38,3.38,0,0,0-3.37,3.38l0,34.24a3.38,3.38,0,0,0,3.38,3.37l42-.05A3.38,3.38,0,0,0,1263.16,1583.22Zm2.88-17.12c0,2.6-1.27,4.84-2.9,5.29v-10.58C1264.76,1561.26,1266,1563.49,1266,1566.09Zm-48.29,18.3a1.13,1.13,0,0,1-1.13-1.12l0-34.24a1.13,1.13,0,0,1,1.12-1.13l42-.05a1.13,1.13,0,0,1,1.13,1.12l0,34.24a1.13,1.13,0,0,1-1.12,1.13Z"/><rect class="cls-3" x="1243.4" y="1559.95" width="15.43" height="2.16" transform="translate(2810.62 308) rotate(89.93)"/><polygon class="cls-3" points="1252.89 1579.15 1254.42 1577.62 1252.67 1575.87 1254.42 1574.12 1252.88 1572.59 1251.14 1574.34 1249.38 1572.59 1247.85 1574.12 1249.61 1575.87 1247.86 1577.63 1249.39 1579.15 1251.14 1577.4 1252.89 1579.15"/><rect class="cls-3" x="1235.18" y="1559.96" width="15.43" height="2.16" transform="translate(2802.41 316.24) rotate(89.93)"/><polygon class="cls-3" points="1244.67 1579.16 1246.19 1577.63 1244.44 1575.88 1246.19 1574.13 1244.66 1572.6 1242.91 1574.35 1241.16 1572.6 1239.63 1574.13 1241.38 1575.88 1239.63 1577.63 1241.16 1579.16 1242.91 1577.41 1244.67 1579.16"/><rect class="cls-3" x="1226.93" y="1559.97" width="15.43" height="2.16" transform="translate(2794.18 324.49) rotate(89.93)"/><polygon class="cls-3" points="1236.42 1579.17 1237.95 1577.64 1236.2 1575.89 1237.94 1574.14 1236.41 1572.61 1234.66 1574.36 1232.91 1572.61 1231.38 1574.14 1233.13 1575.89 1231.39 1577.64 1232.92 1579.17 1234.67 1577.42 1236.42 1579.17"/><rect class="cls-3" x="1218.68" y="1559.98" width="15.43" height="2.16" transform="translate(2785.96 332.75) rotate(89.93)"/><polygon class="cls-3" points="1228.17 1579.18 1229.7 1577.65 1227.95 1575.9 1229.7 1574.15 1228.16 1572.62 1226.42 1574.37 1224.66 1572.62 1223.13 1574.15 1224.89 1575.9 1223.14 1577.65 1224.67 1579.18 1226.42 1577.43 1228.17 1579.18"/><path class="cls-3" d="M1076,1358l-50.24,0a2.86,2.86,0,0,0-2.85,2.85v36.56a2.86,2.86,0,0,0,2.86,2.85l50.24,0a2.86,2.86,0,0,0,2.85-2.85v-36.56A2.86,2.86,0,0,0,1076,1358Zm0,1.9a1,1,0,0,1,1,1V1365H1060.8v-5.16Zm-33.18,5.17v-5.14l16.12,0V1365Zm16.12,1.9v31.41l-16.12,0v-31.42Zm-33.18-7h15.15V1365h-16.1v-4.17A1,1,0,0,1,1025.72,1359.91Zm0,38.46a1,1,0,0,1-1-1v-30.49h16.1v31.42Zm50.24,0H1060.8v-31.4h16.11v30.44A1,1,0,0,1,1076,1398.33Z"/><rect class="cls-3" x="1029.39" y="1371.62" width="6.32" height="1.9"/><rect class="cls-3" x="1029.39" y="1378.19" width="6.32" height="1.9"/><rect class="cls-3" x="1029.39" y="1384.97" width="6.32" height="1.9"/><rect class="cls-3" x="1029.39" y="1391.55" width="6.32" height="1.9"/><rect class="cls-3" x="1047.32" y="1371.62" width="6.32" height="1.9"/><rect class="cls-3" x="1047.32" y="1378.19" width="6.32" height="1.9"/><rect class="cls-3" x="1047.32" y="1384.97" width="6.32" height="1.9"/><rect class="cls-3" x="1047.32" y="1391.55" width="6.32" height="1.9"/><rect class="cls-3" x="1065.31" y="1371.62" width="6.32" height="1.9"/><rect class="cls-3" x="1065.31" y="1378.19" width="6.32" height="1.9"/><rect class="cls-3" x="1065.31" y="1384.97" width="6.32" height="1.9"/><rect class="cls-3" x="1065.31" y="1391.55" width="6.32" height="1.9"/><path class="cls-3" d="M868.3,1541.67a1,1,0,0,1,.93-1l3.2-.09a1,1,0,0,1,1,.93l1.06,39a1,1,0,0,1-.93,1l-28.79.78a1,1,0,0,1-1-.93l-.09-3.2a1,1,0,0,1,.93-1l24.63-.67Zm-17.67,10.67,4.7,6.65-8.91,7.07a1,1,0,0,0,.12,1.59l11.76,6.63,8.32-.23-.84-30.71-14.82,7.6A1,1,0,0,0,850.63,1552.34Z"/><path class="cls-1" d="M1180.61,1443.42c-2,.11-4.5.14-8.18,4.75a1.09,1.09,0,0,0,.05,1.72l11.42,10.71a1.27,1.27,0,0,0,1.68,0c.28-.3,4.65-3.81,4.27-8.57C1185.81,1452.51,1180.7,1448.78,1180.61,1443.42Z"/><path class="cls-1" d="M1175.89,1410.44c-2,.11-4.5.14-8.18,4.75a1.09,1.09,0,0,0,.05,1.72l11.42,10.71a1.27,1.27,0,0,0,1.68,0c.28-.3,4.65-3.81,4.27-8.57C1181.09,1419.53,1176,1415.8,1175.89,1410.44Z"/><path class="cls-1" d="M1193.18,1420.14a14.35,14.35,0,0,1,3.19,16.5,9.19,9.19,0,0,1,2,3.22,17.59,17.59,0,0,0-5.94-24.37,7.12,7.12,0,0,1-2.51,2.34A14.33,14.33,0,0,1,1193.18,1420.14Z"/><path class="cls-1" d="M1173.54,1441.08a14.35,14.35,0,0,1-2.91-17.07l-2.45-2.3a17.61,17.61,0,0,0,3.13,21.75c.2.19.42.36.63.54a14.32,14.32,0,0,1,2.75-2A14.1,14.1,0,0,1,1173.54,1441.08Z"/><circle class="cls-1" cx="1184.97" cy="1409.99" r="6.51" transform="translate(-654.09 1309.6) rotate(-46.83)"/><circle class="cls-1" cx="1189.68" cy="1442.97" r="6.51" transform="translate(-676.66 1323.45) rotate(-46.83)"/><polygon class="cls-3" points="910.98 1429.99 899.53 1432.46 903.2 1435.75 899.43 1439.96 902.33 1442.56 906.1 1438.34 909.78 1441.64 910.98 1429.99"/><path class="cls-3" d="M923.18,1406.86l-11.88.66-8.36,9.35-9.39.52L883,1429.16a3.28,3.28,0,0,0,.26,4.62l25.6,22.91a3.28,3.28,0,0,0,4.62-.26l10.62-11.87,2.52,2.25a3.28,3.28,0,0,0,4.62-.26l14-15.61a3.28,3.28,0,0,0-.26-4.62ZM911.86,1455a1.09,1.09,0,0,1-1.54.09l-25.6-22.91a1.09,1.09,0,0,1-.09-1.54l9.09-10.16,3.83,3.43.24.19.08.05.17.11.09.05.18.09.09,0,.22.09.05,0,.28.08.09,0,.2,0h.11l.18,0h.4l.28,0,.09,0,.2,0,.11,0,.17-.05.11,0,.17-.07.1,0,.25-.13a3.26,3.26,0,0,0,.77-.63l.8-.89,2.63-2.93,20.15,18a1.09,1.09,0,0,1,.09,1.54Zm31.73-25.48-14,15.61a1.09,1.09,0,0,1-1.54.09l-2.52-2.25,1.9-2.12a3.28,3.28,0,0,0-.26-4.62l-6-5.37,8.89-1.92-3.68-3.29,3.77-4.21-2.9-2.6-3.77,4.21-3.67-3.28-.93,9L905.74,1417l5.74-6.41,3.83,3.43a3.28,3.28,0,0,0,4.62-.26l3.43-3.83,20.15,18A1.09,1.09,0,0,1,943.59,1429.51Z"/><path class="cls-9" d="M1209.3,1339.51l32.92-60.91a344.28,344.28,0,0,0-85.82-41.48L1139,1303.87A275.91,275.91,0,0,1,1209.3,1339.51Z"/><path class="cls-1" d="M1180.1,1298c.66.32,1.22,1.6.44,3.62s-1.59,2.75-2.44,2.55-1.58-1.56-.8-3.76S1179.8,1297.84,1180.1,1298Z"/><path class="cls-1" d="M1178.88,1296.13a2,2,0,0,0-2.78-.31c-2,1.25-3.63,4.71-1,5.56C1175.79,1299.57,1177.09,1296.79,1178.88,1296.13Z"/><path class="cls-1" d="M1176.44,1293.6c-.09-.86-1-2.7-3.42-.55s-2.8,4.94-.93,5.28C1172.7,1296.93,1174.16,1294.32,1176.44,1293.6Z"/><path class="cls-1" d="M1172.21,1291.41c-.36-.69-1-1.61-2.31-.31s-1,2.09-.3,3.09A5.23,5.23,0,0,1,1172.21,1291.41Z"/><path class="cls-1" d="M1181.88,1302.87c.51.65,2.18,2.41,2.45,2.81s2.08,1.2,2.13-.54c-1.11-1.64-2.86-4.8-3.05-5.22s-.21-2.14,1.34-1.18c.6.93,3.45,5.88,3.7,6.25s2.21.92,2.44-.64c-.75-1.36-3.56-6.51-4.08-7.29s1-2,1.49-1.26,3.92,7,4.23,7.57a1.77,1.77,0,0,0,2.93-1.28c-.88-1.4-3.91-6.21-4.44-7.29s1.14-1.67,1.62-.9,4.11,6.74,4.33,7.15,2.79,1.74,2.93-.83c-1.1-1.89-4-6.35-4.69-8.3-2-1.86-5.15-4.78-5.61-9.18a8.88,8.88,0,0,0-1.53-.54c-2.75,1.26-7.67,2.12-8.77-.8-1.41-3.76,4.12-5.22,4.65-5.56a18.12,18.12,0,0,0-7,.2c-1.23-1.18-4.76-5.17-4.76-5.17s-10.4,8.86-10.34,8.88,7.31,9.53,7.31,9.53,3.09-1.76,4.9,1c1.28-.36,3.6-.32,3.95,2.75a3.91,3.91,0,0,1,2.81,2.45c.5,1.28,1.3,1.46,1.49,2.1a10.14,10.14,0,0,1,.49,1.91C1182.82,1299.84,1181.88,1302.87,1181.88,1302.87Z"/><path class="cls-1" d="M1201.21,1298.93l9.81-1.79-1-13.7s-9.46,1-10,1c-2.77-2.49-7.39-7.27-9.12-8s-6.32.58-9.35,2.91c-.55.51-1.5,2,1.49,2.25a11.34,11.34,0,0,0,4.53-1.24,11.35,11.35,0,0,1,3.83,1c0,1.48.55,6.71,5.11,9C1197.34,1291.77,1201.21,1298.93,1201.21,1298.93Z"/><rect class="cls-3" x="1320.07" y="1404.65" width="13.65" height="2.57" rx="0.46" ry="0.46" transform="matrix(0.51, 0.86, -0.86, 0.51, 1857.07, -453.15)"/><rect class="cls-3" x="1310.44" y="1413.13" width="23.38" height="2.57" rx="0.46" ry="0.46" transform="translate(1862.04 -444.92) rotate(59.26)"/><rect class="cls-3" x="1302.59" y="1418.52" width="25.89" height="2.57" rx="0.46" ry="0.46" transform="translate(1863.44 -436.61) rotate(59.26)"/><path class="cls-3" d="M1333.56,1431.17c-.35.24-.69.48-1.05.7a19.11,19.11,0,1,1,8.38-22.18l1.13-.67a20.3,20.3,0,1,0-8.86,23.94c.37-.22.7-.46,1.05-.7Z"/><polygon class="cls-3" points="1339.72 1428.12 1341.22 1422.12 1347.23 1423.62 1348.24 1419.58 1342.23 1418.08 1343.73 1412.07 1339.69 1411.06 1338.19 1417.07 1332.18 1415.57 1331.17 1419.61 1337.18 1421.11 1335.68 1427.12 1339.72 1428.12"/><path class="cls-3" d="M1256.64,1354.25a9.74,9.74,0,1,1,13.76-.62A9.74,9.74,0,0,1,1256.64,1354.25Zm25.33,5.85c-2.1-27.69-18.54-31.39-33.24-30.46l-.58-4.68c23.54-2.76,37.35,12.78,38.39,34.66Z"/><path class="cls-2" d="M1604.28,1525.26l-119.15-44a252.52,252.52,0,0,0,.37,171l119.63-43.75a125.14,125.14,0,0,1-.86-83.3Z"/><path class="cls-2" d="M1615,1338.55l53.16,114.83a125.09,125.09,0,0,0-59.24,60.32L1494,1459.77A252.51,252.51,0,0,1,1615,1338.55Z"/><path class="cls-9" d="M1765,1448.65a125.1,125.1,0,0,0-85-.22l-42.8-119a252.48,252.48,0,0,1,170.36.28Z"/><path class="cls-2" d="M1835.36,1513.57l114.75-53.26a252.51,252.51,0,0,0-121-121.67l-53,114.68A125.08,125.08,0,0,1,1835.36,1513.57Z"/><path class="cls-2" d="M1840,1525a125.1,125.1,0,0,1-.85,83.72l119.4,43.13A252.47,252.47,0,0,0,1959,1482Z"/><path class="cls-3" d="M1934.66,1583.22v-9.54c2.93-.39,5.15-3.58,5.14-7.59s-2.23-7.19-5.16-7.58V1549a3.38,3.38,0,0,0-3.38-3.37l-42,.05a3.38,3.38,0,0,0-3.37,3.38l0,34.24a3.38,3.38,0,0,0,3.38,3.37l42-.05A3.38,3.38,0,0,0,1934.66,1583.22Zm2.88-17.12c0,2.6-1.27,4.84-2.9,5.29v-10.58C1936.26,1561.26,1937.54,1563.49,1937.54,1566.09Zm-48.29,18.3a1.13,1.13,0,0,1-1.13-1.12l0-34.24a1.13,1.13,0,0,1,1.12-1.13l42-.05a1.13,1.13,0,0,1,1.13,1.12l0,34.24a1.13,1.13,0,0,1-1.12,1.13Z"/><rect class="cls-3" x="1914.9" y="1559.95" width="15.43" height="2.16" transform="translate(3481.29 -363.5) rotate(89.93)"/><polygon class="cls-3" points="1924.39 1579.15 1925.92 1577.62 1924.17 1575.87 1925.91 1574.12 1924.38 1572.59 1922.63 1574.34 1920.88 1572.59 1919.35 1574.12 1921.11 1575.87 1919.36 1577.63 1920.89 1579.15 1922.64 1577.4 1924.39 1579.15"/><rect class="cls-3" x="1906.68" y="1559.96" width="15.43" height="2.16" transform="translate(3473.09 -355.26) rotate(89.93)"/><polygon class="cls-3" points="1916.16 1579.16 1917.69 1577.63 1915.94 1575.88 1917.69 1574.13 1916.16 1572.6 1914.41 1574.35 1912.65 1572.6 1911.13 1574.13 1912.88 1575.88 1911.13 1577.63 1912.66 1579.16 1914.41 1577.41 1916.16 1579.16"/><rect class="cls-3" x="1898.43" y="1559.97" width="15.43" height="2.16" transform="translate(3464.86 -347) rotate(89.93)"/><polygon class="cls-3" points="1907.92 1579.17 1909.45 1577.64 1907.69 1575.89 1909.44 1574.14 1907.91 1572.61 1906.16 1574.36 1904.41 1572.61 1902.88 1574.14 1904.63 1575.89 1902.88 1577.64 1904.42 1579.17 1906.16 1577.42 1907.92 1579.17"/><rect class="cls-3" x="1890.18" y="1559.98" width="15.43" height="2.16" transform="translate(3456.64 -338.75) rotate(89.93)"/><polygon class="cls-3" points="1899.67 1579.18 1901.2 1577.65 1899.45 1575.9 1901.2 1574.15 1899.66 1572.62 1897.91 1574.37 1896.16 1572.62 1894.63 1574.15 1896.39 1575.9 1894.64 1577.65 1896.17 1579.18 1897.92 1577.43 1899.67 1579.18"/><path class="cls-1" d="M1747.45,1358l-50.24,0a2.86,2.86,0,0,0-2.85,2.85v36.56a2.86,2.86,0,0,0,2.86,2.85l50.24,0a2.86,2.86,0,0,0,2.85-2.85v-36.56A2.86,2.86,0,0,0,1747.45,1358Zm0,1.9a1,1,0,0,1,1,1V1365H1732.3v-5.16Zm-33.18,5.17v-5.14l16.12,0V1365Zm16.12,1.9v31.41l-16.12,0v-31.42Zm-33.18-7h15.15V1365h-16.1v-4.17A1,1,0,0,1,1697.22,1359.91Zm0,38.46a1,1,0,0,1-1-1v-30.49h16.1v31.42Zm50.24,0H1732.3v-31.4h16.11v30.44A1,1,0,0,1,1747.45,1398.33Z"/><rect class="cls-1" x="1700.89" y="1371.62" width="6.32" height="1.9"/><rect class="cls-1" x="1700.89" y="1378.19" width="6.32" height="1.9"/><rect class="cls-1" x="1700.89" y="1384.97" width="6.32" height="1.9"/><rect class="cls-1" x="1700.89" y="1391.55" width="6.32" height="1.9"/><rect class="cls-1" x="1718.82" y="1371.62" width="6.32" height="1.9"/><rect class="cls-1" x="1718.82" y="1378.19" width="6.32" height="1.9"/><rect class="cls-1" x="1718.82" y="1384.97" width="6.32" height="1.9"/><rect class="cls-1" x="1718.82" y="1391.55" width="6.32" height="1.9"/><rect class="cls-1" x="1736.81" y="1371.62" width="6.32" height="1.9"/><rect class="cls-1" x="1736.81" y="1378.19" width="6.32" height="1.9"/><rect class="cls-1" x="1736.81" y="1384.97" width="6.32" height="1.9"/><rect class="cls-1" x="1736.81" y="1391.55" width="6.32" height="1.9"/><path class="cls-3" d="M1539.8,1541.67a1,1,0,0,1,.93-1l3.2-.09a1,1,0,0,1,1,.93l1.06,39a1,1,0,0,1-.93,1l-28.79.78a1,1,0,0,1-1-.93l-.09-3.2a1,1,0,0,1,.93-1l24.63-.67Zm-17.67,10.67,4.7,6.65-8.91,7.07a1,1,0,0,0,.12,1.59l11.76,6.63,8.32-.23-.84-30.71-14.82,7.6A1,1,0,0,0,1522.12,1552.34Z"/><path class="cls-3" d="M1852.11,1443.42c-2,.11-4.5.14-8.18,4.75a1.09,1.09,0,0,0,.05,1.72l11.42,10.71a1.27,1.27,0,0,0,1.68,0c.28-.3,4.65-3.81,4.27-8.57C1857.31,1452.51,1852.2,1448.78,1852.11,1443.42Z"/><path class="cls-3" d="M1847.38,1410.44c-2,.11-4.5.14-8.18,4.75a1.09,1.09,0,0,0,.05,1.72l11.42,10.71a1.27,1.27,0,0,0,1.68,0c.28-.3,4.65-3.81,4.27-8.57C1852.59,1419.53,1847.47,1415.8,1847.38,1410.44Z"/><path class="cls-3" d="M1864.67,1420.14a14.35,14.35,0,0,1,3.19,16.5,9.19,9.19,0,0,1,2,3.22,17.59,17.59,0,0,0-5.94-24.37,7.12,7.12,0,0,1-2.51,2.34A14.33,14.33,0,0,1,1864.67,1420.14Z"/><path class="cls-3" d="M1845,1441.08a14.35,14.35,0,0,1-2.91-17.07l-2.45-2.3a17.61,17.61,0,0,0,3.13,21.75c.2.19.42.36.63.54a14.32,14.32,0,0,1,2.75-2A14.1,14.1,0,0,1,1845,1441.08Z"/><circle class="cls-3" cx="1856.47" cy="1409.99" r="6.51" transform="translate(-442 1799.36) rotate(-46.83)"/><circle class="cls-3" cx="1861.18" cy="1442.97" r="6.51" transform="matrix(0.68, -0.73, 0.73, 0.68, -464.56, 1813.2)"/><circle class="cls-9" cx="1721.99" cy="1565.7" r="21.06"/><path class="cls-15" d="M1771.62,1565.66a49.64,49.64,0,0,0-78.78-40.15l-.18.15a5.83,5.83,0,1,0,7.4,9,38,38,0,0,1,59.92,31h-9.9l7.86,11.67,7.86,11.67,7.86-11.67,7.86-11.67Z"/><path class="cls-16" d="M1753.59,1601.13a5.82,5.82,0,0,0-9.46-4.55h0A38,38,0,0,1,1684,1565.7v0h9.93l-7.86-11.67-7.86-11.67-7.86,11.67-7.86,11.67h9.89v0a49.63,49.63,0,0,0,78.56,40.33l.35-.25.08-.05,0,0A5.81,5.81,0,0,0,1753.59,1601.13Z"/><g id="Layer_1_copy-8" data-name="Layer 1 copy"><path class="cls-1" d="M1726.7,1558l-4.71,4.71-4.71-4.71a.91.91,0,0,0-1.28,0l-.86.86-.86.86a.91.91,0,0,0,0,1.28l4.71,4.71-4.71,4.71a.91.91,0,0,0,0,1.28l.86.86.86.86a.91.91,0,0,0,1.28,0l4.71-4.71,4.71,4.71a.91.91,0,0,0,1.28,0l.86-.86.86-.86a.91.91,0,0,0,0-1.28l-4.71-4.71,4.71-4.71a.91.91,0,0,0,0-1.28l-.86-.86-.86-.86A.91.91,0,0,0,1726.7,1558Z"/></g><polygon class="cls-3" points="1582.47 1429.99 1571.03 1432.46 1574.7 1435.75 1570.93 1439.96 1573.83 1442.56 1577.6 1438.34 1581.28 1441.64 1582.47 1429.99"/><path class="cls-3" d="M1594.68,1406.86l-11.88.66-8.36,9.35-9.39.52-10.55,11.78a3.28,3.28,0,0,0,.26,4.62l25.6,22.91a3.28,3.28,0,0,0,4.62-.26l10.62-11.87,2.52,2.25a3.28,3.28,0,0,0,4.62-.26l14-15.61a3.28,3.28,0,0,0-.26-4.62ZM1583.35,1455a1.09,1.09,0,0,1-1.54.09l-25.6-22.91a1.09,1.09,0,0,1-.09-1.54l9.09-10.16,3.83,3.43.24.19.08.05.17.11.09.05.18.09.09,0,.22.09.05,0,.28.08.09,0,.2,0h.11l.18,0h.4l.28,0,.09,0,.2,0,.11,0,.17-.05.11,0,.17-.07.1,0,.25-.13a3.26,3.26,0,0,0,.77-.63l.8-.89,2.63-2.93,20.15,18a1.09,1.09,0,0,1,.09,1.54Zm31.73-25.48-14,15.61a1.09,1.09,0,0,1-1.54.09l-2.52-2.25,1.9-2.12a3.28,3.28,0,0,0-.26-4.62l-6-5.37,8.89-1.92-3.68-3.29,3.77-4.21-2.9-2.6L1595,1423l-3.67-3.28-.93,9L1577.24,1417l5.74-6.41,3.83,3.43a3.28,3.28,0,0,0,4.62-.26l3.43-3.83,20.15,18A1.09,1.09,0,0,1,1615.08,1429.51Z"/><polygon class="cls-2" points="2049.97 1296.43 1741.26 1296.43 1720.64 1314.73 1698.12 1296.43 1698.12 1198.56 2049.97 1198.56 2049.97 1296.43"/><circle class="cls-9" cx="1871.08" cy="1246.59" r="34.03"/><path class="cls-1" d="M1871.63,1260.86a9.74,9.74,0,1,1,9.49-10A9.74,9.74,0,0,1,1871.63,1260.86Zm22.33-13.33c-20.7-18.52-35.11-9.8-45.07,1.05l-3.66-3c15.07-18.3,35.79-16.65,51.7-1.59Z"/><path class="cls-3" d="M1762.66,1259.11c.7-.22,2,.31,2.82,2.31s.76,3.08,0,3.53-2.22,0-3.19-2.16S1762.33,1259.22,1762.66,1259.11Z"/><path class="cls-3" d="M1760.48,1258.62c-.25-.2-1.81.08-2.22,1.7-.58,2.29.64,5.91,3.11,4.72C1760.64,1263.24,1759.66,1260.33,1760.48,1258.62Z"/><path class="cls-3" d="M1757,1258.48c-.67-.56-2.62-1.23-2.84,2s1.4,5.5,3,4.45C1756.58,1263.48,1755.83,1260.59,1757,1258.48Z"/><path class="cls-3" d="M1752.4,1259.83c-.73-.25-1.81-.49-1.88,1.38s.69,2.23,1.92,2.44A5.23,5.23,0,0,1,1752.4,1259.83Z"/><path class="cls-3" d="M1767.32,1261.4c.82.11,3.25.23,3.72.33s2.33-.57,1.17-1.86c-1.94-.41-5.39-1.48-5.82-1.65s-1.64-1.4.15-1.78c1.07.26,6.56,1.85,7,1.94s2.23-.86,1.32-2.15c-1.48-.46-7.08-2.23-8-2.43s-.68-2.09.2-1.95,7.7,2.37,8.29,2.53a1.77,1.77,0,0,0,1.23-3c-1.61-.4-7.12-1.77-8.25-2.18s-.33-2,.54-1.77,7.64,2,8.08,2.15,3.22-.68,1.53-2.63c-2.1-.6-7.29-1.79-9.14-2.74-2.7,0-7,.12-10.4-2.74a8.88,8.88,0,0,0-1.47.67c-1.11,2.81-4.07,6.84-6.88,5.5-3.63-1.74-.65-6.62-.5-7.23a18.12,18.12,0,0,0-4.88,5c-1.71,0-7-.43-7-.43s-1.37,13.6-1.31,13.57,11.88,1.81,11.88,1.81,1-3.41,4.24-2.66c.68-1.15,2.38-2.73,4.75-.75a3.91,3.91,0,0,1,3.73-.18c1.25.58,1.95.15,2.53.48a10.14,10.14,0,0,1,1.68,1C1765.9,1258.56,1767.32,1261.4,1767.32,1261.4Z"/><path class="cls-3" d="M1778.54,1245.17l5.83-8.08-10.22-9.18s-6.1,7.3-6.52,7.58c-3.72.13-10.36-.13-12.13.54s-4.16,4.79-4.73,8.57c0,.75.32,2.5,2.64.59a11.34,11.34,0,0,0,2.41-4,11.35,11.35,0,0,1,3.45-1.93c1.06,1,5,4.46,9.94,3C1770.78,1242.69,1778.54,1245.17,1778.54,1245.17Z"/><rect class="cls-3" x="1970.22" y="1236.82" width="13.65" height="2.57" rx="0.46" ry="0.46" transform="translate(12.99 -20.5) rotate(0.6)"/><rect class="cls-3" x="1970.13" y="1245.29" width="23.38" height="2.57" rx="0.46" ry="0.46" transform="translate(13.08 -20.55) rotate(0.6)"/><rect class="cls-3" x="1970.05" y="1253.73" width="25.89" height="2.57" rx="0.46" ry="0.46" transform="translate(13.17 -20.57) rotate(0.6)"/><path class="cls-3" d="M2002.08,1245.53c0,.42.06.84.05,1.26a19.11,19.11,0,1,1-14.58-18.69v-1.31a20.3,20.3,0,1,0,15.84,20c0-.43,0-.84-.05-1.26Z"/><polygon class="cls-3" points="2002.68 1238.69 1998.33 1234.28 2002.73 1229.93 1999.81 1226.97 1995.4 1231.32 1991.05 1226.91 1988.09 1229.84 1992.44 1234.24 1988.03 1238.59 1990.96 1241.56 1995.36 1237.21 1999.71 1241.61 2002.68 1238.69"/></g><g id="Numbers"><g id="Circles"><circle class="cls-11" cx="150.61" cy="105.96" r="22.12"/><circle class="cls-11" cx="820.78" cy="105.96" r="22.12"/><circle class="cls-11" cx="1492.43" cy="105.96" r="22.12"/><circle class="cls-11" cx="2163.47" cy="105.96" r="22.12"/><circle class="cls-11" cx="150.61" cy="699.97" r="22.12"/><circle class="cls-11" cx="820.78" cy="699.88" r="22.12"/><circle class="cls-11" cx="1492.43" cy="699.88" r="22.12"/><circle class="cls-11" cx="2163.47" cy="699.88" r="22.12"/><circle class="cls-11" cx="150.61" cy="1294.93" r="22.12"/><circle class="cls-11" cx="820.62" cy="1295.19" r="22.12"/><circle class="cls-11" cx="1492.43" cy="1295.21" r="22.12"/><circle class="cls-11" cx="2163.47" cy="1294.93" r="22.12"/></g><g id="Numbers-2" data-name="Numbers"><path class="cls-17" d="M153.45,115.12h-4.23V103.54l0-1.9.07-2.08q-1.05,1.05-1.47,1.38l-2.3,1.85-2-2.55L150,95.1h3.48Z"/><path class="cls-17" d="M827.56,115.9h-14V113l5-5.08q2.23-2.29,2.92-3.17a7,7,0,0,0,1-1.64,4.17,4.17,0,0,0,.3-1.56,2.28,2.28,0,0,0-.66-1.79,2.58,2.58,0,0,0-1.77-.59,5.09,5.09,0,0,0-2.26.53,11.59,11.59,0,0,0-2.29,1.52l-2.3-2.73A15.06,15.06,0,0,1,816,96.67a9,9,0,0,1,2.12-.8,10.86,10.86,0,0,1,2.57-.28,7.63,7.63,0,0,1,3.31.68,5.29,5.29,0,0,1,2.23,1.92A5.09,5.09,0,0,1,827,101a6.91,6.91,0,0,1-.49,2.6A10,10,0,0,1,825,106.1a36.8,36.8,0,0,1-3.6,3.63l-2.58,2.42v.19h8.73Z"/><path class="cls-17" d="M1499.32,100.37a4.71,4.71,0,0,1-1.14,3.19,5.89,5.89,0,0,1-3.19,1.81v.08a6.38,6.38,0,0,1,3.67,1.47,4.13,4.13,0,0,1,1.25,3.16,5.35,5.35,0,0,1-2.1,4.5,9.66,9.66,0,0,1-6,1.61,14.53,14.53,0,0,1-5.78-1.08v-3.6a13,13,0,0,0,2.56,1,10.79,10.79,0,0,0,2.77.37,5.38,5.38,0,0,0,3.1-.71,2.62,2.62,0,0,0,1-2.29,2.07,2.07,0,0,0-1.15-2,8.52,8.52,0,0,0-3.67-.59h-1.52V104h1.55a7.2,7.2,0,0,0,3.4-.61,2.2,2.2,0,0,0,1.08-2.09q0-2.27-2.85-2.27a6.5,6.5,0,0,0-2,.33,9.83,9.83,0,0,0-2.27,1.14l-2-2.92a10.88,10.88,0,0,1,6.53-2,8.44,8.44,0,0,1,4.91,1.26A4,4,0,0,1,1499.32,100.37Z"/><path class="cls-17" d="M2170.68,110.46h-2.41v4.15h-4.14v-4.15h-8.55v-2.94l8.78-12.93h3.9v12.59h2.41Zm-6.55-3.29v-3.4q0-.85.07-2.47t.11-1.88h-.11a15.33,15.33,0,0,1-1.22,2.19l-3.67,5.55Z"/><path class="cls-17" d="M151.64,696.34a6.45,6.45,0,0,1,4.62,1.63,5.86,5.86,0,0,1,1.72,4.47,6.49,6.49,0,0,1-2.07,5.16,8.72,8.72,0,0,1-5.92,1.81,11.59,11.59,0,0,1-5.4-1.08v-3.66a12.17,12.17,0,0,0,5.25,1.3q3.88,0,3.88-3.18t-4-3a10,10,0,0,0-1.6.14,11.72,11.72,0,0,0-1.42.31l-1.68-.9.75-10.2h10.86v3.59h-7.15l-.37,3.93.48-.1A9.42,9.42,0,0,1,151.64,696.34Z"/><path class="cls-17" d="M814.21,700q0-5.95,2.51-8.85t7.53-2.9a13.59,13.59,0,0,1,2.68.21v3.38a11,11,0,0,0-2.41-.27,8.29,8.29,0,0,0-3.55.66,4.43,4.43,0,0,0-2.06,1.95,8.93,8.93,0,0,0-.81,3.66h.18a4.65,4.65,0,0,1,4.34-2.33,5.38,5.38,0,0,1,4.21,1.69,6.7,6.7,0,0,1,1.52,4.66,7,7,0,0,1-1.81,5.08,6.65,6.65,0,0,1-5,1.87,7.16,7.16,0,0,1-3.87-1,6.67,6.67,0,0,1-2.55-3A11.42,11.42,0,0,1,814.21,700Zm7.23,5.4a2.51,2.51,0,0,0,2.08-.91,4.08,4.08,0,0,0,.73-2.6,3.58,3.58,0,0,0-.68-2.31,2.47,2.47,0,0,0-2-.84,3.14,3.14,0,0,0-2.2.83,2.57,2.57,0,0,0-.91,1.95,4.41,4.41,0,0,0,.86,2.75A2.62,2.62,0,0,0,821.44,705.42Z"/><path class="cls-17" d="M1488,709.84l7.52-16.44h-9.88v-3.56H1500v2.66l-7.57,17.34Z"/><path class="cls-17" d="M2164,689.55a7.59,7.59,0,0,1,4.64,1.31,4.17,4.17,0,0,1,1.76,3.53,4.61,4.61,0,0,1-.85,2.73,7.25,7.25,0,0,1-2.74,2.14,9.71,9.71,0,0,1,3.23,2.51,4.69,4.69,0,0,1,1,2.87,4.77,4.77,0,0,1-1.93,4,8.05,8.05,0,0,1-5.08,1.5,8.48,8.48,0,0,1-5.16-1.4,4.65,4.65,0,0,1-1.88-4,5.25,5.25,0,0,1,.91-3,7.57,7.57,0,0,1,2.92-2.34,7.52,7.52,0,0,1-2.46-2.32,5.08,5.08,0,0,1-.75-2.7,4.14,4.14,0,0,1,1.78-3.48A7.56,7.56,0,0,1,2164,689.55Zm-3.12,15a2.22,2.22,0,0,0,.82,1.83,4.3,4.3,0,0,0,4.6,0,2.25,2.25,0,0,0,.78-1.79,2.45,2.45,0,0,0-.77-1.72,9.93,9.93,0,0,0-2.51-1.71Q2160.86,702.46,2160.86,704.51Zm3.09-11.86a2.63,2.63,0,0,0-1.75.56,1.84,1.84,0,0,0-.66,1.49,2.27,2.27,0,0,0,.53,1.47,5.8,5.8,0,0,0,1.91,1.34,5.35,5.35,0,0,0,1.88-1.29,2.34,2.34,0,0,0,.54-1.52,1.81,1.81,0,0,0-.69-1.49A2.72,2.72,0,0,0,2164,692.65Z"/><path class="cls-17" d="M157.78,1292.62q0,5.92-2.49,8.83t-7.55,2.92a14.17,14.17,0,0,1-2.7-.19v-3.4a9.92,9.92,0,0,0,2.41.29,8.46,8.46,0,0,0,3.49-.62,4.41,4.41,0,0,0,2.1-2,8.62,8.62,0,0,0,.84-3.68h-.16a4.68,4.68,0,0,1-1.84,1.81,5.8,5.8,0,0,1-2.6.52,5.26,5.26,0,0,1-4.12-1.68,6.73,6.73,0,0,1-1.51-4.66,7,7,0,0,1,1.83-5.09,6.65,6.65,0,0,1,5-1.87,7.17,7.17,0,0,1,3.88,1,6.68,6.68,0,0,1,2.55,3A11.44,11.44,0,0,1,157.78,1292.62Zm-7.25-5.38a2.51,2.51,0,0,0-2.05.9,4,4,0,0,0-.74,2.6,3.61,3.61,0,0,0,.67,2.3,2.44,2.44,0,0,0,2,.85,3.15,3.15,0,0,0,2.21-.84,2.56,2.56,0,0,0,.92-1.94,4.41,4.41,0,0,0-.86-2.75A2.64,2.64,0,0,0,150.54,1287.23Z"/><path class="cls-17" d="M816.75,1305.14h-4.23v-11.59l0-1.9.07-2.08q-1.05,1.05-1.47,1.38l-2.3,1.85-2-2.55,6.45-5.14h3.48Z"/><path class="cls-17" d="M834.08,1295.13q0,5.25-1.72,7.77a6,6,0,0,1-5.29,2.52,5.9,5.9,0,0,1-5.23-2.6q-1.76-2.6-1.76-7.68,0-5.3,1.71-7.81a6.66,6.66,0,0,1,10.51.12Q834.08,1290.06,834.08,1295.13Zm-9.79,0a15.59,15.59,0,0,0,.64,5.28,2.21,2.21,0,0,0,2.14,1.6,2.23,2.23,0,0,0,2.14-1.62,21.4,21.4,0,0,0,0-10.55,2.22,2.22,0,0,0-4.27,0A15.55,15.55,0,0,0,824.29,1295.13Z"/><path class="cls-17" d="M1488.44,1305.17h-4.23v-11.59l0-1.9.07-2.08q-1.05,1.05-1.47,1.38l-2.3,1.85-2-2.55,6.45-5.14h3.48Z"/><path class="cls-17" d="M1503,1305.17h-4.23v-11.59l0-1.9.07-2.08q-1.05,1.05-1.47,1.38l-2.3,1.85-2-2.55,6.45-5.14H1503Z"/><path class="cls-17" d="M2158.55,1304.89h-4.23V1293.3l0-1.9.07-2.08q-1.05,1.05-1.47,1.38l-2.3,1.85-2-2.55,6.45-5.14h3.48Z"/><path class="cls-17" d="M2176.69,1304.89h-14v-2.95l5-5.08q2.23-2.29,2.92-3.17a6.94,6.94,0,0,0,1-1.64,4.16,4.16,0,0,0,.3-1.56,2.28,2.28,0,0,0-.66-1.79,2.58,2.58,0,0,0-1.77-.59,5.1,5.1,0,0,0-2.26.53,11.62,11.62,0,0,0-2.29,1.52l-2.3-2.73a15.06,15.06,0,0,1,2.45-1.78,9,9,0,0,1,2.12-.8,10.86,10.86,0,0,1,2.58-.28,7.64,7.64,0,0,1,3.32.68,5.29,5.29,0,0,1,2.23,1.92,5.1,5.1,0,0,1,.79,2.82,6.92,6.92,0,0,1-.49,2.6,10,10,0,0,1-1.51,2.49,36.68,36.68,0,0,1-3.6,3.63l-2.57,2.42v.19h8.72Z"/></g></g></svg>