<?xml version="1.0" encoding="utf-8"?>
<!-- Generator: Adobe Illustrator 21.0.0, SVG Export Plug-In . SVG Version: 6.00 Build 0)  -->
<svg version="1.1" id="novoWords_Green" xmlns="http://www.w3.org/2000/svg" xmlns:xlink="http://www.w3.org/1999/xlink" x="0px"
	 y="0px" width="439px" height="132px" viewBox="0 0 439 132" style="enable-background:new 0 0 439 132;" xml:space="preserve">
<style type="text/css">
	.st0{fill:#9CC94D;}
</style>
<path id="book_symbol" class="st0" d="M-1,117.4c2.8,4.4,3,7.5,4.2,7.5c168.1,4.7,177-38.6,215.3,6.1c34.5-51.5,79,1,215.5-8.2
	c1.7-2.8,2.9-8.1,4.1-9.7c-141.3,13-172.3-47.6-219.5-1.6C178.4,69.4,152.6,127.4-1,117.4z"/>
<path id="Novo" class="st0" d="M52,95H33c0,0,0-31.8,0-32c-3.7-5.9-12.2-5.9-16,3c0.2,5.9,0,29,0,29H0V46h17v8c3.8-3.6,5.6-9.1,19-9
	c7.8,0,15.5,5.6,16,16V95z M81.7,44.9c22.5,0,28,14.2,28.3,24.1c0.3,10-4.8,27.1-28,27c-18.1,0-28.1-8.9-28-27
	C53.9,54.9,63.3,44.9,81.7,44.9z M127,46l9.5,31l9.5-31h19l-20,49h-18l-20-49H127z M82,57c-6.1,0.1-9.9,6.1-10,12
	c0.1,8.6,3.1,15,10,15c5.9,0,8.9-4.8,9-15C91.1,63.2,88.1,56.9,82,57z M190.7,44.9c22.5,0,28,14.2,28.3,24.1c0.3,10-4.8,27.1-28,27
	c-18.1,0-28.1-8.9-28-27C162.9,54.9,172.3,44.9,190.7,44.9z M191,57c-6.1,0.1-9.9,6.1-10,12c0.1,8.6,3.1,15,10,15
	c5.9,0,8.9-4.8,9-15C200.1,63.2,197.1,56.9,191,57z"/>
<g>
	<path d="M309.1,42.3c-12.6-1.9-23.4,28.2-24.2,34.2c-0.8,6,2.6,18,14.1,18.1c11.5,0.1,24.5-11.5,28.2-26.2S321.7,44.2,309.1,42.3z
		 M299.1,84.6c-8.1,0.9-8.1-3-8.1-6c0.1-3,12.4-26.8,22.2-24.2v0c7.5,2,7.5,5.1,8.1,8.1S317.6,83.8,299.1,84.6z"/>
	<path d="M282.9,14.1c1.3,12.6-14.2,83.5-26.2,78.6c-12-5,8.1-54.4,8.1-54.4s-5.8-0.2-6,0c-1,3.5-14.9,52.3-24.2,46.3
		c-8.8-13,13.6-51.7,22.2-68.5l0,0C228,33.4,216,93.5,234.6,92.7c5.9-0.3,8-3.7,14.1-10.1c0.4,5.8,1.1,17.9,10.1,18.1
		C280.3,101.8,291.3,24.3,282.9,14.1z"/>
	<path d="M426,42.3c-11,1.7-17.6,13.6-18.1,22.2c-1.4,12.8,4.8,15.6,10.1,20.1c-4.4,3.7-11.6,10.4-20.1,4c-1.3,4.4,1.7,11.7,6,12.1
		c4.3,0.4,27.6-8.9,28.2-12.1c-3.3-4.3-21.9-18.4-20.1-22.2c1.7-3.8,10.9-18.4,24.2-14.1v0C436,52.4,436.9,40.6,426,42.3z"/>
	<path d="M389.7,70.5C392.2,51,407.8,0,407.8,0s-10.5,1.2-18.1,44.3v0c-7.6-6.7-32.3,16.4-32.2,36.3c0.1,19.9,15.3,18.6,24.2-2
		c2.1,16.8,8.4,24.2,14.1,6C390,88.7,387.2,90,389.7,70.5z M385.7,52.4L385.7,52.4c0.1,6.7-11.6,32.2-22.2,30.2
		C359.1,78.5,379.5,47.3,385.7,52.4C385.7,52.4,385.7,52.4,385.7,52.4L385.7,52.4z"/>
	<path d="M369.6,44.3c-2.3-5.3-16-7.4-28.2,12.1c-2.9,0-0.6-8.3-4-12.1v0c0,0-10.6,45-4,52.4c2.2,0.4,5.8-2.6,6-4
		C334.2,91,337.9,52.7,369.6,44.3z"/>
</g>
</svg>
