<?xml version="1.0" encoding="utf-8"?>
<!-- Generator: Adobe Illustrator 21.0.0, SVG Export Plug-In . SVG Version: 6.00 Build 0)  -->
<svg version="1.1" id="Layer_1" xmlns="http://www.w3.org/2000/svg" xmlns:xlink="http://www.w3.org/1999/xlink" x="0px" y="0px"
	 viewBox="0 0 1009.7 1009.7" style="enable-background:new 0 0 1009.7 1009.7;" xml:space="preserve">
<style type="text/css">
	.st0{fill:none;}
	.st1{fill:#131313;}
	.st2{fill:#1C1B1A;}
	.st3{fill:url(#SVGID_5_);}
	.st4{fill:url(#SVGID_6_);}
	.st5{fill:url(#SVGID_7_);}
	.st6{fill:url(#SVGID_8_);}
	.st7{fill:#A3A3A2;}
	.st8{fill:#515151;}
	.st9{font-family:'Lato-Light';}
	.st10{font-size:28.0815px;}
	.st11{letter-spacing:1;}
	.st12{font-size:23.1266px;}
	.st13{font-family:'Lato-Regular';}
	.st14{font-size:21.9378px;}
	.st15{fill:#FFFFFF;}
	.st16{font-family:'Lato-Black';}
	.st17{font-size:50.1571px;}
</style>
<pattern  x="814.1" y="1009.7" width="7.5" height="12.1" patternUnits="userSpaceOnUse" id="SVGID_1_" viewBox="3.6 -15.1 7.5 12.1" style="overflow:visible;">
	<g>
		<rect x="3.6" y="-15.1" class="st0" width="7.5" height="12.1"/>
		<g>
			<rect x="3.6" y="-15.1" class="st0" width="7.5" height="12.1"/>
			<rect x="3.6" y="-15.1" class="st0" width="7.4" height="12.1"/>
			<circle class="st1" cx="11.1" cy="-3" r="1.3"/>
			<path class="st1" d="M14.1-3c0-1.7-1.3-3-3-3c-0.7,0-1.3,0.2-1.8,0.6l0,0C9.1-5.3,9.1-5.1,9.2-4.9c0.1,0.2,0.3,0.2,0.5,0.1
				c1-0.7,2.5-0.5,3.2,0.6c0.3,0.4,0.4,0.8,0.4,1.3h-0.6l0.5,0.7l0.5,0.7l0.5-0.7l0.5-0.7L14.1-3z"/>
			<path class="st1" d="M13-0.9c0-0.2-0.1-0.4-0.3-0.4c-0.1,0-0.2,0-0.2,0.1l0,0c-1,0.7-2.5,0.5-3.2-0.5C9-2.1,8.9-2.6,8.9-3.1h0.6
				L9-3.8L8.5-4.5L8-3.8L7.5-3.1h0.6c0,1.7,1.3,3,3,3c0.7,0,1.3-0.2,1.8-0.6l0,0l0,0C12.9-0.7,13-0.8,13-0.9z"/>
			<circle class="st1" cx="3.6" cy="-3" r="1.3"/>
			<path class="st1" d="M6.6-3c0-1.7-1.3-3-3-3C3-6,2.3-5.8,1.8-5.4l0,0C1.7-5.3,1.7-5.2,1.7-5.1c0,0.2,0.2,0.4,0.3,0.4l0,0
				c0.1,0,0.2,0,0.2-0.1C2.6-5.1,3-5.2,3.5-5.2c1.3,0,2.3,1,2.3,2.3H5.3l0.5,0.7l0.5,0.7l0.5-0.7l0.5-0.7H6.6V-3z"/>
			<path class="st1" d="M5.5-0.9c0-0.2-0.1-0.4-0.3-0.4C5.1-1.3,5-1.3,5-1.2l0,0C4.6-0.9,4.1-0.8,3.7-0.8c-1.3,0-2.3-1-2.3-2.3l0,0
				H2L1.5-3.8L1-4.4L0.5-3.7L0-3h0.6c0,1.7,1.3,3,3,3c0.6,0,1.2-0.2,1.8-0.6l0,0l0,0C5.5-0.7,5.5-0.8,5.5-0.9z"/>
			<circle class="st1" cx="7.4" cy="-9.1" r="1.3"/>
			<path class="st1" d="M10.4-9.1c0-1.7-1.4-3-3-3c-0.7,0-1.3,0.2-1.8,0.6l0,0c-0.1,0.1-0.1,0.3,0,0.5c0.1,0.2,0.3,0.2,0.5,0
				c1.1-0.7,2.5-0.4,3.2,0.7c0.2,0.4,0.3,0.8,0.3,1.2H9l0.5,0.7L10-7.7l0.5-0.7L11-9.1H10.4z"/>
			<path class="st1" d="M9.3-6.9c0-0.2-0.1-0.4-0.3-0.4c-0.1,0-0.2,0-0.2,0.1l0,0c-1,0.7-2.5,0.5-3.2-0.5C5.2-8.1,5-8.6,5-9.1h0.6
				L5.1-9.8l-0.4-0.7L4.2-9.8L3.7-9.1h0.6c0,1.7,1.3,3,2.9,3.1C7.9-6,8.5-6.2,9-6.6l0,0l0,0C9.2-6.7,9.3-6.8,9.3-6.9z"/>
			<circle class="st1" cx="11.1" cy="-15.1" r="1.3"/>
			<path class="st1" d="M14.1-15.1c0-1.7-1.3-3-3-3c-0.6,0-1.3,0.2-1.8,0.6l0,0c-0.1,0-0.1,0.1-0.1,0.3c0,0.2,0.2,0.4,0.4,0.4
				c0.1,0,0.2,0,0.2-0.1c0.4-0.3,0.9-0.4,1.3-0.4c1.3,0,2.3,1,2.3,2.3h-0.6l0.5,0.7l0.5,0.7l0.5-0.7l0.4-0.8H14.1z"/>
			<path class="st1" d="M13-12.9c0-0.2-0.1-0.4-0.3-0.4c-0.1,0-0.2,0-0.2,0.1l0,0c-0.4,0.3-0.9,0.4-1.4,0.4c-1.3,0-2.3-1-2.3-2.3
				h0.6l-0.5-0.7l-0.5-0.7l-0.5,0.7l-0.4,0.7h0.6c0,1.7,1.3,3,3,3c0.6,0,1.2-0.2,1.8-0.6l0,0l0,0C12.9-12.7,13-12.8,13-12.9z"/>
			<circle class="st1" cx="3.6" cy="-15.1" r="1.3"/>
			<path class="st1" d="M6.6-15.1c0-1.7-1.3-3-3-3c-0.6,0-1.2,0.2-1.7,0.6l0,0c-0.1,0-0.2,0.1-0.2,0.3c0,0.2,0.2,0.4,0.4,0.4l0,0
				c0.1,0,0.2,0,0.2-0.1c0.4-0.3,0.8-0.4,1.3-0.4c1.3,0,2.3,1,2.3,2.3l0,0H5.3l0.5,0.7l0.5,0.7l0.5-0.7l0.4-0.8H6.6z"/>
			<path class="st1" d="M5.5-12.9c0-0.2-0.1-0.4-0.3-0.4c-0.1,0-0.2,0-0.2,0.1l0,0c-0.4,0.3-0.9,0.4-1.4,0.4c-1.3,0-2.3-1-2.3-2.3
				l0,0h0.6l-0.5-0.7L1-16.5l-0.5,0.7L0-15.1h0.6c0,1.7,1.3,3,3,3c0.6,0,1.2-0.2,1.8-0.6l0,0l0,0C5.5-12.7,5.5-12.8,5.5-12.9z"/>
		</g>
	</g>
</pattern>
<pattern  x="814.1" y="1009.7" width="7.5" height="12.1" patternUnits="userSpaceOnUse" id="SVGID_2_" viewBox="3.6 -15.1 7.5 12.1" style="overflow:visible;">
	<g>
		<rect x="3.6" y="-15.1" class="st0" width="7.5" height="12.1"/>
		<g>
			<rect x="3.6" y="-15.1" class="st0" width="7.5" height="12.1"/>
			<rect x="3.6" y="-15.1" class="st0" width="7.4" height="12.1"/>
			<circle class="st1" cx="11.1" cy="-3" r="1.3"/>
			<path class="st1" d="M14.1-3c0-1.7-1.3-3-3-3c-0.7,0-1.3,0.2-1.8,0.6l0,0C9.1-5.3,9.1-5.1,9.2-4.9c0.1,0.2,0.3,0.2,0.5,0.1
				c1-0.7,2.5-0.5,3.2,0.6c0.3,0.4,0.4,0.8,0.4,1.3h-0.6l0.5,0.7l0.5,0.7l0.5-0.7l0.5-0.7L14.1-3z"/>
			<path class="st1" d="M13-0.9c0-0.2-0.1-0.4-0.3-0.4c-0.1,0-0.2,0-0.2,0.1l0,0c-1,0.7-2.5,0.5-3.2-0.5C9-2.1,8.9-2.6,8.9-3.1h0.6
				L9-3.8L8.5-4.5L8-3.8L7.5-3.1h0.6c0,1.7,1.3,3,3,3c0.7,0,1.3-0.2,1.8-0.6l0,0l0,0C12.9-0.7,13-0.8,13-0.9z"/>
			<circle class="st1" cx="3.6" cy="-3" r="1.3"/>
			<path class="st1" d="M6.6-3c0-1.7-1.3-3-3-3C3-6,2.3-5.8,1.8-5.4l0,0C1.7-5.3,1.7-5.2,1.7-5.1c0,0.2,0.2,0.4,0.3,0.4l0,0
				c0.1,0,0.2,0,0.2-0.1C2.6-5.1,3-5.2,3.5-5.2c1.3,0,2.3,1,2.3,2.3H5.3l0.5,0.7l0.5,0.7l0.5-0.7l0.5-0.7H6.6V-3z"/>
			<path class="st1" d="M5.5-0.9c0-0.2-0.1-0.4-0.3-0.4C5.1-1.3,5-1.3,5-1.2l0,0C4.6-0.9,4.1-0.8,3.7-0.8c-1.3,0-2.3-1-2.3-2.3l0,0
				H2L1.5-3.8L1-4.4L0.5-3.7L0-3h0.6c0,1.7,1.3,3,3,3c0.6,0,1.2-0.2,1.8-0.6l0,0l0,0C5.5-0.7,5.5-0.8,5.5-0.9z"/>
			<circle class="st1" cx="7.4" cy="-9.1" r="1.3"/>
			<path class="st1" d="M10.4-9.1c0-1.7-1.4-3-3-3c-0.7,0-1.3,0.2-1.8,0.6l0,0c-0.1,0.1-0.1,0.3,0,0.5c0.1,0.2,0.3,0.2,0.5,0
				c1.1-0.7,2.5-0.4,3.2,0.7c0.2,0.4,0.3,0.8,0.3,1.2H9l0.5,0.7L10-7.7l0.5-0.7L11-9.1H10.4z"/>
			<path class="st1" d="M9.3-6.9c0-0.2-0.1-0.4-0.3-0.4c-0.1,0-0.2,0-0.2,0.1l0,0c-1,0.7-2.5,0.5-3.2-0.5C5.2-8.1,5-8.6,5-9.1h0.6
				L5.1-9.8l-0.4-0.7L4.2-9.8L3.7-9.1h0.6c0,1.7,1.3,3,2.9,3.1C7.9-6,8.5-6.2,9-6.6l0,0l0,0C9.2-6.7,9.3-6.8,9.3-6.9z"/>
			<circle class="st1" cx="11.1" cy="-15.1" r="1.3"/>
			<path class="st1" d="M14.1-15.1c0-1.7-1.3-3-3-3c-0.6,0-1.3,0.2-1.8,0.6l0,0c-0.1,0-0.1,0.1-0.1,0.3c0,0.2,0.2,0.4,0.4,0.4
				c0.1,0,0.2,0,0.2-0.1c0.4-0.3,0.9-0.4,1.3-0.4c1.3,0,2.3,1,2.3,2.3h-0.6l0.5,0.7l0.5,0.7l0.5-0.7l0.4-0.8H14.1z"/>
			<path class="st1" d="M13-12.9c0-0.2-0.1-0.4-0.3-0.4c-0.1,0-0.2,0-0.2,0.1l0,0c-0.4,0.3-0.9,0.4-1.4,0.4c-1.3,0-2.3-1-2.3-2.3
				h0.6l-0.5-0.7l-0.5-0.7l-0.5,0.7l-0.4,0.7h0.6c0,1.7,1.3,3,3,3c0.6,0,1.2-0.2,1.8-0.6l0,0l0,0C12.9-12.7,13-12.8,13-12.9z"/>
			<circle class="st1" cx="3.6" cy="-15.1" r="1.3"/>
			<path class="st1" d="M6.6-15.1c0-1.7-1.3-3-3-3c-0.6,0-1.2,0.2-1.7,0.6l0,0c-0.1,0-0.2,0.1-0.2,0.3c0,0.2,0.2,0.4,0.4,0.4l0,0
				c0.1,0,0.2,0,0.2-0.1c0.4-0.3,0.8-0.4,1.3-0.4c1.3,0,2.3,1,2.3,2.3l0,0H5.3l0.5,0.7l0.5,0.7l0.5-0.7l0.4-0.8H6.6z"/>
			<path class="st1" d="M5.5-12.9c0-0.2-0.1-0.4-0.3-0.4c-0.1,0-0.2,0-0.2,0.1l0,0c-0.4,0.3-0.9,0.4-1.4,0.4c-1.3,0-2.3-1-2.3-2.3
				l0,0h0.6l-0.5-0.7L1-16.5l-0.5,0.7L0-15.1h0.6c0,1.7,1.3,3,3,3c0.6,0,1.2-0.2,1.8-0.6l0,0l0,0C5.5-12.7,5.5-12.8,5.5-12.9z"/>
		</g>
	</g>
</pattern>
<pattern  x="814.1" y="1009.7" width="7.5" height="12.1" patternUnits="userSpaceOnUse" id="SVGID_3_" viewBox="3.6 -15.1 7.5 12.1" style="overflow:visible;">
	<g>
		<rect x="3.6" y="-15.1" class="st0" width="7.5" height="12.1"/>
		<g>
			<rect x="3.6" y="-15.1" class="st0" width="7.5" height="12.1"/>
			<rect x="3.6" y="-15.1" class="st0" width="7.4" height="12.1"/>
			<circle class="st1" cx="11.1" cy="-3" r="1.3"/>
			<path class="st1" d="M14.1-3c0-1.7-1.3-3-3-3c-0.7,0-1.3,0.2-1.8,0.6l0,0C9.1-5.3,9.1-5.1,9.2-4.9c0.1,0.2,0.3,0.2,0.5,0.1
				c1-0.7,2.5-0.5,3.2,0.6c0.3,0.4,0.4,0.8,0.4,1.3h-0.6l0.5,0.7l0.5,0.7l0.5-0.7l0.5-0.7L14.1-3z"/>
			<path class="st1" d="M13-0.9c0-0.2-0.1-0.4-0.3-0.4c-0.1,0-0.2,0-0.2,0.1l0,0c-1,0.7-2.5,0.5-3.2-0.5C9-2.1,8.9-2.6,8.9-3.1h0.6
				L9-3.8L8.5-4.5L8-3.8L7.5-3.1h0.6c0,1.7,1.3,3,3,3c0.7,0,1.3-0.2,1.8-0.6l0,0l0,0C12.9-0.7,13-0.8,13-0.9z"/>
			<circle class="st1" cx="3.6" cy="-3" r="1.3"/>
			<path class="st1" d="M6.6-3c0-1.7-1.3-3-3-3C3-6,2.3-5.8,1.8-5.4l0,0C1.7-5.3,1.7-5.2,1.7-5.1c0,0.2,0.2,0.4,0.3,0.4l0,0
				c0.1,0,0.2,0,0.2-0.1C2.6-5.1,3-5.2,3.5-5.2c1.3,0,2.3,1,2.3,2.3H5.3l0.5,0.7l0.5,0.7l0.5-0.7l0.5-0.7H6.6V-3z"/>
			<path class="st1" d="M5.5-0.9c0-0.2-0.1-0.4-0.3-0.4C5.1-1.3,5-1.3,5-1.2l0,0C4.6-0.9,4.1-0.8,3.7-0.8c-1.3,0-2.3-1-2.3-2.3l0,0
				H2L1.5-3.8L1-4.4L0.5-3.7L0-3h0.6c0,1.7,1.3,3,3,3c0.6,0,1.2-0.2,1.8-0.6l0,0l0,0C5.5-0.7,5.5-0.8,5.5-0.9z"/>
			<circle class="st1" cx="7.4" cy="-9.1" r="1.3"/>
			<path class="st1" d="M10.4-9.1c0-1.7-1.4-3-3-3c-0.7,0-1.3,0.2-1.8,0.6l0,0c-0.1,0.1-0.1,0.3,0,0.5c0.1,0.2,0.3,0.2,0.5,0
				c1.1-0.7,2.5-0.4,3.2,0.7c0.2,0.4,0.3,0.8,0.3,1.2H9l0.5,0.7L10-7.7l0.5-0.7L11-9.1H10.4z"/>
			<path class="st1" d="M9.3-6.9c0-0.2-0.1-0.4-0.3-0.4c-0.1,0-0.2,0-0.2,0.1l0,0c-1,0.7-2.5,0.5-3.2-0.5C5.2-8.1,5-8.6,5-9.1h0.6
				L5.1-9.8l-0.4-0.7L4.2-9.8L3.7-9.1h0.6c0,1.7,1.3,3,2.9,3.1C7.9-6,8.5-6.2,9-6.6l0,0l0,0C9.2-6.7,9.3-6.8,9.3-6.9z"/>
			<circle class="st1" cx="11.1" cy="-15.1" r="1.3"/>
			<path class="st1" d="M14.1-15.1c0-1.7-1.3-3-3-3c-0.6,0-1.3,0.2-1.8,0.6l0,0c-0.1,0-0.1,0.1-0.1,0.3c0,0.2,0.2,0.4,0.4,0.4
				c0.1,0,0.2,0,0.2-0.1c0.4-0.3,0.9-0.4,1.3-0.4c1.3,0,2.3,1,2.3,2.3h-0.6l0.5,0.7l0.5,0.7l0.5-0.7l0.4-0.8H14.1z"/>
			<path class="st1" d="M13-12.9c0-0.2-0.1-0.4-0.3-0.4c-0.1,0-0.2,0-0.2,0.1l0,0c-0.4,0.3-0.9,0.4-1.4,0.4c-1.3,0-2.3-1-2.3-2.3
				h0.6l-0.5-0.7l-0.5-0.7l-0.5,0.7l-0.4,0.7h0.6c0,1.7,1.3,3,3,3c0.6,0,1.2-0.2,1.8-0.6l0,0l0,0C12.9-12.7,13-12.8,13-12.9z"/>
			<circle class="st1" cx="3.6" cy="-15.1" r="1.3"/>
			<path class="st1" d="M6.6-15.1c0-1.7-1.3-3-3-3c-0.6,0-1.2,0.2-1.7,0.6l0,0c-0.1,0-0.2,0.1-0.2,0.3c0,0.2,0.2,0.4,0.4,0.4l0,0
				c0.1,0,0.2,0,0.2-0.1c0.4-0.3,0.8-0.4,1.3-0.4c1.3,0,2.3,1,2.3,2.3l0,0H5.3l0.5,0.7l0.5,0.7l0.5-0.7l0.4-0.8H6.6z"/>
			<path class="st1" d="M5.5-12.9c0-0.2-0.1-0.4-0.3-0.4c-0.1,0-0.2,0-0.2,0.1l0,0c-0.4,0.3-0.9,0.4-1.4,0.4c-1.3,0-2.3-1-2.3-2.3
				l0,0h0.6l-0.5-0.7L1-16.5l-0.5,0.7L0-15.1h0.6c0,1.7,1.3,3,3,3c0.6,0,1.2-0.2,1.8-0.6l0,0l0,0C5.5-12.7,5.5-12.8,5.5-12.9z"/>
		</g>
	</g>
</pattern>
<pattern  x="814.1" y="1009.7" width="7.5" height="12.1" patternUnits="userSpaceOnUse" id="SVGID_4_" viewBox="3.6 -15.1 7.5 12.1" style="overflow:visible;">
	<g>
		<rect x="3.6" y="-15.1" class="st0" width="7.5" height="12.1"/>
		<g>
			<rect x="3.6" y="-15.1" class="st0" width="7.5" height="12.1"/>
			<rect x="3.6" y="-15.1" class="st0" width="7.4" height="12.1"/>
			<circle class="st1" cx="11.1" cy="-3" r="1.3"/>
			<path class="st1" d="M14.1-3c0-1.7-1.3-3-3-3c-0.7,0-1.3,0.2-1.8,0.6l0,0C9.1-5.3,9.1-5.1,9.2-4.9c0.1,0.2,0.3,0.2,0.5,0.1
				c1-0.7,2.5-0.5,3.2,0.6c0.3,0.4,0.4,0.8,0.4,1.3h-0.6l0.5,0.7l0.5,0.7l0.5-0.7l0.5-0.7L14.1-3z"/>
			<path class="st1" d="M13-0.9c0-0.2-0.1-0.4-0.3-0.4c-0.1,0-0.2,0-0.2,0.1l0,0c-1,0.7-2.5,0.5-3.2-0.5C9-2.1,8.9-2.6,8.9-3.1h0.6
				L9-3.8L8.5-4.5L8-3.8L7.5-3.1h0.6c0,1.7,1.3,3,3,3c0.7,0,1.3-0.2,1.8-0.6l0,0l0,0C12.9-0.7,13-0.8,13-0.9z"/>
			<circle class="st1" cx="3.6" cy="-3" r="1.3"/>
			<path class="st1" d="M6.6-3c0-1.7-1.3-3-3-3C3-6,2.3-5.8,1.8-5.4l0,0C1.7-5.3,1.7-5.2,1.7-5.1c0,0.2,0.2,0.4,0.3,0.4l0,0
				c0.1,0,0.2,0,0.2-0.1C2.6-5.1,3-5.2,3.5-5.2c1.3,0,2.3,1,2.3,2.3H5.3l0.5,0.7l0.5,0.7l0.5-0.7l0.5-0.7H6.6V-3z"/>
			<path class="st1" d="M5.5-0.9c0-0.2-0.1-0.4-0.3-0.4C5.1-1.3,5-1.3,5-1.2l0,0C4.6-0.9,4.1-0.8,3.7-0.8c-1.3,0-2.3-1-2.3-2.3l0,0
				H2L1.5-3.8L1-4.4L0.5-3.7L0-3h0.6c0,1.7,1.3,3,3,3c0.6,0,1.2-0.2,1.8-0.6l0,0l0,0C5.5-0.7,5.5-0.8,5.5-0.9z"/>
			<circle class="st1" cx="7.4" cy="-9.1" r="1.3"/>
			<path class="st1" d="M10.4-9.1c0-1.7-1.4-3-3-3c-0.7,0-1.3,0.2-1.8,0.6l0,0c-0.1,0.1-0.1,0.3,0,0.5c0.1,0.2,0.3,0.2,0.5,0
				c1.1-0.7,2.5-0.4,3.2,0.7c0.2,0.4,0.3,0.8,0.3,1.2H9l0.5,0.7L10-7.7l0.5-0.7L11-9.1H10.4z"/>
			<path class="st1" d="M9.3-6.9c0-0.2-0.1-0.4-0.3-0.4c-0.1,0-0.2,0-0.2,0.1l0,0c-1,0.7-2.5,0.5-3.2-0.5C5.2-8.1,5-8.6,5-9.1h0.6
				L5.1-9.8l-0.4-0.7L4.2-9.8L3.7-9.1h0.6c0,1.7,1.3,3,2.9,3.1C7.9-6,8.5-6.2,9-6.6l0,0l0,0C9.2-6.7,9.3-6.8,9.3-6.9z"/>
			<circle class="st1" cx="11.1" cy="-15.1" r="1.3"/>
			<path class="st1" d="M14.1-15.1c0-1.7-1.3-3-3-3c-0.6,0-1.3,0.2-1.8,0.6l0,0c-0.1,0-0.1,0.1-0.1,0.3c0,0.2,0.2,0.4,0.4,0.4
				c0.1,0,0.2,0,0.2-0.1c0.4-0.3,0.9-0.4,1.3-0.4c1.3,0,2.3,1,2.3,2.3h-0.6l0.5,0.7l0.5,0.7l0.5-0.7l0.4-0.8H14.1z"/>
			<path class="st1" d="M13-12.9c0-0.2-0.1-0.4-0.3-0.4c-0.1,0-0.2,0-0.2,0.1l0,0c-0.4,0.3-0.9,0.4-1.4,0.4c-1.3,0-2.3-1-2.3-2.3
				h0.6l-0.5-0.7l-0.5-0.7l-0.5,0.7l-0.4,0.7h0.6c0,1.7,1.3,3,3,3c0.6,0,1.2-0.2,1.8-0.6l0,0l0,0C12.9-12.7,13-12.8,13-12.9z"/>
			<circle class="st1" cx="3.6" cy="-15.1" r="1.3"/>
			<path class="st1" d="M6.6-15.1c0-1.7-1.3-3-3-3c-0.6,0-1.2,0.2-1.7,0.6l0,0c-0.1,0-0.2,0.1-0.2,0.3c0,0.2,0.2,0.4,0.4,0.4l0,0
				c0.1,0,0.2,0,0.2-0.1c0.4-0.3,0.8-0.4,1.3-0.4c1.3,0,2.3,1,2.3,2.3l0,0H5.3l0.5,0.7l0.5,0.7l0.5-0.7l0.4-0.8H6.6z"/>
			<path class="st1" d="M5.5-12.9c0-0.2-0.1-0.4-0.3-0.4c-0.1,0-0.2,0-0.2,0.1l0,0c-0.4,0.3-0.9,0.4-1.4,0.4c-1.3,0-2.3-1-2.3-2.3
				l0,0h0.6l-0.5-0.7L1-16.5l-0.5,0.7L0-15.1h0.6c0,1.7,1.3,3,3,3c0.6,0,1.2-0.2,1.8-0.6l0,0l0,0C5.5-12.7,5.5-12.8,5.5-12.9z"/>
		</g>
	</g>
</pattern>
<title>Business-Card-Square-3</title>
<rect x="0" y="0" class="st2" width="1009.7" height="1009.7"/>
<rect x="0" y="0" class="st2" width="1009.7" height="1009.7"/>
<pattern  id="SVGID_5_" xlink:href="#SVGID_1_" patternTransform="matrix(0.9987 0 0 0.9987 -13.7792 16376.9082)">
</pattern>
<path class="st3" d="M217.3,288c-46.5-12.4-93.4,13.4-105.8,58.3s15.5,90.9,61.9,103.2s93.4-13.4,105.8-58.3S263.8,300.4,217.3,288z
	 M182.7,416.1c-26.3-8.8-40.3-37.2-32-63c7.7-24.3,32.5-38.2,57.8-33c26.3,8.8,40.3,37.2,32,63C232.3,406.8,207.5,421.2,182.7,416.1
	z"/>
<pattern  id="SVGID_6_" xlink:href="#SVGID_2_" patternTransform="matrix(0.9987 0 0 0.9987 -13.7792 16376.9082)">
</pattern>
<path class="st4" d="M660.7,498.1c24.8-92.4-65.6-125.4-103.2-86.7l6.2-23.2l-33-8.8l-58.3,215.3l37.2,9.8l21.2-79
	C548.2,572,638.5,580.7,660.7,498.1z M622.5,487.8c-6.2,23.7-23.7,44.4-53.7,36.1c-21.7-5.7-29.9-33-23.2-56.8
	c8.3-29.4,27.4-45.9,52.7-39.2C621.5,434.1,630.3,458.4,622.5,487.8L622.5,487.8z"/>
<pattern  id="SVGID_7_" xlink:href="#SVGID_3_" patternTransform="matrix(0.9987 0 0 0.9987 -13.7792 16376.9082)">
</pattern>
<path class="st5" d="M413.5,486.8c-16.5,89.3-96.5,20.6-96.5,20.6l-19.6,26.8c3.1,7.7,106.3,75.4,147.1-13.4
	c8.8-32,41.3-153.8,41.3-153.8l-34.6-9.3l-4.6,17.6c-11.9-42.3-104.8-64.5-129.6,27.9C298.9,468.2,361.3,521.4,413.5,486.8z
	 M404.7,374.8c28.9,7.7,31.5,31.5,24.3,58.3c-7.2,26.8-27.4,38.7-49,32.5c-21.7-6.2-31-29.4-24.8-52.7
	C362.9,386.1,375.8,367,404.7,374.8z"/>
<pattern  id="SVGID_8_" xlink:href="#SVGID_4_" patternTransform="matrix(0.9987 0 0 0.9987 -13.7792 16376.9082)">
</pattern>
<path class="st6" d="M579.2,0H187.4C113,34.1,48.5,86.2,0,152.3v560.6C154.9,924.5,451.7,971,663.8,816.1s258.1-451.7,103.2-663.8
	C718.6,86.2,653.5,33.6,579.2,0z M383,763.5c-182.7,0-330.9-148.1-330.9-330.9S200.3,101.7,383,101.7s330.9,148.1,330.9,330.9
	S565.8,763.5,383,763.5L383,763.5z"/>
<path class="st7" d="M522.9,465.6c1.5-1.5,1-2.6,0-3.6c-1.5-1.5-3.6-2.6-6.2-3.1h-0.5c-1.5,1-2.1,1.5-3.1,1.5c-1,0-1-0.5-2.1-1l0,0
	c-1-0.5-1.5-1.5-2.6-2.6l0,0h-0.5c-0.5-0.5-1-1-2.1-2.6l0,0c-1-1-1.5-1.5-1.5-2.1c0-0.5,0.5-1.5,1.5-3.1c1-1.5-0.5-4.1-2.6-6.7l0,0
	c-0.5-0.5-1-1-1.5-1c-0.5,0-1.5,0.5-2.1,0.5l0,0c-1,0.5-1.5,1-1.5,2.1c-0.5,1.5-0.5,3.1,1.5,6.7c3.1,5.2,7.2,9.8,12.4,13.4
	c2.1,1.5,4.6,2.6,6.7,3.1C520.3,468.2,522.4,467.2,522.9,465.6z"/>
<path class="st7" d="M493.5,500.2h34.6v23.2h-34.6V500.2z M511,513.1l14.5-11.4h-29.4L511,513.1z M495,521.9h31.5v-19.1l-10.3,7.7
	l6.2,6.7l0,0l-7.2-6.2l-4.1,3.6l-4.1-3.1l-7.2,6.2l0,0l6.2-6.7l-10.3-7.7L495,521.9z"/>
<path class="st7" d="M496.1,568.9h12.4c0.5,0,0.5-0.5,0.5-0.5c0-0.5-0.5-0.5-0.5-0.5h-12.4c-0.5,0-0.5,0-0.5,0.5
	C495.6,568.3,496.1,568.3,496.1,568.9z M496.1,570.9h6.2c0.5,0,0.5,0,0.5-0.5c0,0,0-0.5-0.5-0.5l0,0h-5.7c-0.5,0-0.5,0-0.5,0.5
	C496.1,570.9,496.1,570.9,496.1,570.9L496.1,570.9z M496.1,573.5h6.2c0.5,0,0.5,0,0.5-0.5c0,0,0-0.5-0.5-0.5l0,0h-5.7
	c-0.5,0-0.5,0-0.5,0.5C495.6,573.5,496.1,573.5,496.1,573.5S496.6,573.5,496.1,573.5L496.1,573.5z M496.1,576.1h12.4
	c0.5,0,0.5-0.5,0.5-0.5c0-0.5-0.5-0.5-0.5-0.5h-12.4c-0.5,0-0.5,0.5-0.5,0.5L496.1,576.1L496.1,576.1z M509,578.1h-12.4
	c-0.5,0-0.5,0-0.5,0.5c0,0,0,0.5,0.5,0.5l0,0H509c0.5,0,0.5,0,0.5-0.5S509,578.1,509,578.1L509,578.1L509,578.1z M528.6,558.5H493
	v24.3h35.6V558.5z M527.6,559.6v3.6H494v-3.6H527.6z M494,581.8v-17.6h33.6v17.6H494z M496.6,562.1c0.5,0,1-0.5,1-1s-0.5-1-1-1
	c-0.5,0-1,0.5-1,1S496.1,562.1,496.6,562.1L496.6,562.1z M499.7,561.6c0,0.5-0.5,1-1,1c-0.5,0-1-0.5-1-1c0-0.5,0.5-1,1-1
	C499.2,560.1,499.7,560.6,499.7,561.6C499.7,561.1,499.7,561.1,499.7,561.6L499.7,561.6z M502.3,561.6c0,0.5-0.5,1-1,1s-1-0.5-1-1
	c0-0.5,0.5-1,1-1C501.7,560.1,502.3,560.6,502.3,561.6C502.3,561.1,502.3,561.1,502.3,561.6L502.3,561.6z M514.7,579.2h10.8v-11.9
	h-11.4L514.7,579.2L514.7,579.2z M515.7,568.3h9.3v9.8h-9.3V568.3z"/>
<rect x="457.9" y="377.9" class="st8" width="0.5" height="254"/>
<text transform="matrix(1 0 0 1 550.6964 516.4761)" class="st7 st9 st10 st11">steve.clinton@orbitgroup.ca</text>
<text transform="matrix(1 0 0 1 550.694 579.4637)" class="st7 st9 st10 st11">orbitgroup.ca</text>
<text transform="matrix(1 0 0 1 550.3722 457.4728)" class="st7 st9 st12 st11">+1.289.444.3516</text>
<text transform="matrix(1 0 0 1 120.3201 554.6924)" class="st7 st13 st14 st11">Vice President, Technology</text>
<text transform="matrix(1 0 0 1 120.3201 524.3004)" class="st15 st16 st17">Steve Clinton</text>
</svg>
