<?xml version="1.0" encoding="utf-8"?>
<!-- Generator: Adobe Illustrator 21.0.0, SVG Export Plug-In . SVG Version: 6.00 Build 0)  -->
<svg version="1.1" id="Layer_1" xmlns="http://www.w3.org/2000/svg" xmlns:xlink="http://www.w3.org/1999/xlink" x="0px" y="0px"
	 viewBox="0 0 263.5 155.6" style="enable-background:new 0 0 263.5 155.6;" xml:space="preserve">
<style type="text/css">
	.st0{fill:none;}
	.st1{fill:#181818;}
	.st2{fill:#020202;}
	.st3{opacity:0.57;fill:url(#SVGID_1_);enable-background:new    ;}
	.st4{fill:#B5D481;}
	.st5{fill:#3FBFEA;}
	.st6{fill:#FFFFFF;}
	.st7{fill:none;stroke:#FFFFFF;stroke-width:0;stroke-linecap:round;stroke-linejoin:round;}
	.st8{enable-background:new    ;}
	.st9{font-family:'Lato-Light';}
	.st10{font-size:6.6895px;}
	.st11{font-size:5.5091px;}
	.st12{font-size:5.762px;}
</style>
<pattern  y="155.6" width="7.2" height="12.1" patternUnits="userSpaceOnUse" id="New_Pattern" viewBox="3.6 -15.1 7.2 12.1" style="overflow:visible;">
	<g>
		<rect x="3.6" y="-15.1" class="st0" width="7.2" height="12.1"/>
		<rect x="3.6" y="-15.1" class="st0" width="7.2" height="12.1"/>
		<circle class="st1" cx="10.9" cy="-15.1" r="1.3"/>
		<path class="st1" d="M13.9-15.1c0,1.7-1.3,3-3,3c-0.6,0-1.3-0.2-1.8-0.6l0,0C8.9-12.8,8.9-13,9-13.1c0.1-0.2,0.3-0.2,0.5-0.1
			c1,0.7,2.5,0.5,3.2-0.6c0.3-0.4,0.4-0.8,0.4-1.3h-0.6l0.5-0.7l0.5-0.7l0.5,0.7l0.5,0.7L13.9-15.1z"/>
		<path class="st1" d="M12.8-17.2c0,0.2-0.1,0.4-0.3,0.4c-0.1,0-0.2,0-0.2-0.1l0,0c-1-0.7-2.5-0.5-3.2,0.5c-0.3,0.4-0.4,0.9-0.4,1.4
			h0.6l-0.5,0.7l-0.5,0.7l-0.5-0.7l-0.5-0.7h0.6c0-1.7,1.3-3,2.9-3.1c0.7,0,1.3,0.2,1.8,0.6l0,0l0,0C12.7-17.5,12.8-17.3,12.8-17.2z
			"/>
		<circle class="st1" cx="3.6" cy="-15.1" r="1.3"/>
		<path class="st1" d="M6.6-15.1c0,1.7-1.3,3-3,3c-0.6,0-1.3-0.2-1.8-0.6l0,0c-0.1-0.1-0.1-0.2-0.1-0.3c0-0.2,0.2-0.4,0.3-0.4
			c0,0,0,0,0,0c0.1,0,0.2,0,0.2,0.1c0.4,0.3,0.8,0.4,1.3,0.4c1.3,0,2.3-1,2.3-2.3H5.3l0.5-0.7l0.5-0.7l0.5,0.7l0.5,0.7H6.6z"/>
		<path class="st1" d="M5.5-17.2c0,0.2-0.1,0.4-0.3,0.4c-0.1,0-0.2,0-0.2-0.1l0,0c-0.4-0.3-0.9-0.4-1.3-0.4c-1.3,0-2.3,1-2.3,2.3
			c0,0,0,0,0,0h0.6l-0.5,0.7L1-13.7l-0.5-0.7L0-15.1h0.6c0-1.7,1.3-3,3-3c0.6,0,1.2,0.2,1.8,0.6l0,0l0,0C5.5-17.4,5.5-17.3,5.5-17.2
			z"/>
		<circle class="st1" cx="7.2" cy="-9" r="1.3"/>
		<path class="st1" d="M10.3-9c0,1.7-1.3,3-3,3C6.6-6,6-6.2,5.5-6.6l0,0C5.3-6.7,5.3-6.9,5.4-7.1s0.3-0.2,0.5-0.1l0,0
			c1,0.7,2.5,0.5,3.2-0.6C9.4-8.1,9.6-8.5,9.6-9H9l0.5-0.7l0.5-0.7l0.5,0.7L10.9-9H10.3z"/>
		<path class="st1" d="M9.2-11.2c0,0.2-0.2,0.3-0.4,0.3c-0.1,0-0.1,0-0.2-0.1l0,0c-1-0.8-2.5-0.6-3.2,0.5C5.1-10,4.9-9.5,4.9-9h0.6
			L5.1-8.3L4.6-7.6L4.1-8.3L3.6-9h0.6c0-1.7,1.3-3,2.9-3.1c0.7,0,1.3,0.2,1.9,0.6l0,0l0,0C9.1-11.4,9.2-11.3,9.2-11.2z"/>
		<circle class="st1" cx="10.9" cy="-3" r="1.3"/>
		<path class="st1" d="M13.9-3c0,1.7-1.3,3-3,3c-0.6,0-1.3-0.2-1.8-0.6l0,0C9-0.6,9-0.7,9-0.9C9-1,9.1-1.2,9.3-1.2
			c0.1,0,0.2,0,0.2,0.1c0.4,0.3,0.9,0.4,1.3,0.4c1.3,0,2.3-1,2.3-2.3h-0.6l0.5-0.7l0.5-0.7L14-3.7L14.5-3H13.9z"/>
		<path class="st1" d="M12.8-5.2c0,0.2-0.1,0.4-0.3,0.4c-0.1,0-0.2,0-0.2-0.1l0,0c-0.4-0.3-0.9-0.4-1.4-0.4c-1.3,0-2.3,1-2.3,2.3
			h0.6L8.7-2.3L8.2-1.6L7.7-2.3L7.2-3h0.6c0-1.7,1.3-3,3-3c0.6,0,1.3,0.2,1.8,0.6l0,0l0,0C12.7-5.4,12.8-5.3,12.8-5.2z"/>
		<circle class="st1" cx="3.6" cy="-3" r="1.3"/>
		<path class="st1" d="M6.6-3c0,1.7-1.3,3-3,3C3,0,2.4-0.2,1.9-0.6l0,0C1.8-0.6,1.7-0.7,1.7-0.9c0-0.2,0.2-0.4,0.4-0.4l0,0
			c0.1,0,0.2,0,0.2,0.1c0.4,0.3,0.8,0.4,1.3,0.4c1.3,0,2.3-1,2.3-2.3l0,0H5.3l0.5-0.7l0.5-0.7l0.5,0.7L7.2-3H6.6z"/>
		<path class="st1" d="M5.5-5.2c0,0.2-0.1,0.4-0.3,0.4C5.1-4.8,5-4.8,5-4.9l0,0C4.6-5.2,4.1-5.3,3.6-5.3c-1.3,0-2.3,1-2.3,2.3l0,0
			h0.6L1.4-2.3L1-1.6L0.5-2.3L0-3h0.6c0-1.7,1.3-3,3-3c0.6,0,1.2,0.2,1.8,0.6l0,0l0,0C5.5-5.4,5.5-5.3,5.5-5.2z"/>
	</g>
</pattern>
<title>Business Card Landscape - Back 2.3</title>
<g id="Your_Design_copy_4">
	<g id="Your_Design_copy">
		<rect y="0" class="st2" width="263.5" height="155.5"/>
	</g>
	<pattern  id="SVGID_1_" xlink:href="#New_Pattern" patternTransform="matrix(1 0 0 -1 2 -16411.6016)">
	</pattern>
	<rect y="0" class="st3" width="263.5" height="155.5"/>
</g>
<g id="logo_color">
	<path class="st2" d="M263.5,110.3c-18,0-32.6-14.6-32.6-32.6s14.6-32.6,32.6-32.6V110.3z"/>
	<path class="st2" d="M263.5,0.8c-16.2,0-32,5.1-45.1,14.6c-0.1,0.1-0.2,0.1-0.3,0.2c-3.8,3.2-4.4,8.8-1.2,12.7
		c3.2,3.8,8.8,4.4,12.7,1.2c9.9-7,21.8-10.8,34-10.8L263.5,0.8z"/>
	<path class="st2" d="M263.5,136.5c-32.5,0-58.8-26.3-58.8-58.8l0,0c0,0,0,0,0-0.1h15.4l-12.2-18.1l-12.2-18.1l-12.2,18.1
		l-12.2,18.1h15.3v0.1c0,42.4,34.4,76.9,76.8,76.9V136.5z"/>
</g>
<g id="icons_backg">
	<polygon class="st4" points="106.1,102.3 162.3,102.3 146.6,79.3 90.4,79.3 	"/>
	<polygon class="st4" points="87.7,71.9 141.6,71.9 125.9,48.9 72.1,48.9 	"/>
	<polygon class="st4" points="66.3,41.5 120.8,41.5 105.1,18.5 50.6,18.5 	"/>
</g>
<g id="Lines">
	<rect x="103.8" y="41.3" class="st4" width="159.7" height="0.2"/>
	<rect x="118.7" y="71.7" class="st4" width="144.8" height="0.2"/>
	<rect x="126.3" y="102.1" class="st4" width="137.2" height="0.2"/>
</g>
<g id="Your_Design_copy_5">
	<polygon class="st2" points="159.8,155.6 0,155.6 0,0 53.7,0 	"/>
</g>
<g id="contact_info">
	<path class="st5" d="M93.6,36c-3.3,0-6-2.7-6-6s2.7-6,6-6s6,2.7,6,6S96.9,36,93.6,36z"/>
	<path class="st6" d="M96.5,32.7c0.4-0.4,0.3-0.6,0-0.9c-0.4-0.4-0.9-0.7-1.4-0.8c-0.1,0-0.1,0-0.2,0c-0.4,0.2-0.6,0.4-0.7,0.4
		s-0.3-0.1-0.5-0.3l0,0c-0.2-0.2-0.4-0.4-0.6-0.6l0,0L93,30.5c-0.1-0.1-0.2-0.2-0.5-0.6l0,0c-0.2-0.2-0.3-0.4-0.4-0.6
		s0.1-0.4,0.3-0.7s-0.1-1-0.6-1.6l0,0c-0.1-0.1-0.3-0.2-0.4-0.2c-0.2,0-0.3,0.1-0.5,0.2l0,0c-0.2,0.1-0.3,0.3-0.4,0.5
		c-0.1,0.3-0.1,0.7,0.3,1.6c0.7,1.3,1.7,2.5,3,3.3c0.5,0.4,1.1,0.7,1.7,0.8C95.9,33.2,96.3,33,96.5,32.7z"/>
	<path class="st5" d="M114.3,66.4c-3.3,0-6-2.7-6-6s2.7-6,6-6s6,2.7,6,6S117.6,66.4,114.3,66.4L114.3,66.4z"/>
	<g>
		<path class="st5" d="M131,93.5h8.1v-4.2H131V93.5z M135.9,90.1h2.6v2.7h-2.6L135.9,90.1z M131.5,90.3c0-0.1,0.1-0.1,0.1-0.1h3
			c0.1,0,0.1,0.1,0.1,0.1v0c0,0.1-0.1,0.1-0.1,0.1h-3C131.6,90.4,131.5,90.3,131.5,90.3L131.5,90.3z M131.5,90.9
			c0-0.1,0.1-0.1,0.1-0.1h1.4c0.1,0,0.1,0.1,0.1,0.1v0c0,0.1-0.1,0.1-0.1,0.1h-1.4C131.6,91,131.5,90.9,131.5,90.9L131.5,90.9z
			 M131.5,91.5c0-0.1,0.1-0.1,0.1-0.1h1.4c0.1,0,0.1,0.1,0.1,0.1v0c0,0.1-0.1,0.1-0.1,0.1h-1.4C131.6,91.6,131.5,91.5,131.5,91.5
			L131.5,91.5z M131.5,92.1c0-0.1,0.1-0.1,0.1-0.1h3c0.1,0,0.1,0.1,0.1,0.1v0c0,0.1-0.1,0.1-0.1,0.1h-3
			C131.6,92.2,131.5,92.1,131.5,92.1L131.5,92.1z M131.5,92.7c0-0.1,0.1-0.1,0.1-0.1h3c0.1,0,0.1,0.1,0.1,0.1v0
			c0,0.1-0.1,0.1-0.1,0.1h-3C131.6,92.8,131.5,92.7,131.5,92.7L131.5,92.7z"/>
		<rect x="136.1" y="90.3" class="st5" width="2.2" height="2.3"/>
		<path class="st5" d="M135,84.8c-3.3,0-6,2.7-6,6c0,3.3,2.7,6,6,6s6-2.7,6-6C141,87.5,138.3,84.8,135,84.8z M130.8,93.7l0-5.7h8.5
			l0,5.7H130.8z"/>
		<path class="st5" d="M131,89.1h8.1v-0.9H131V89.1z M132.7,88.4c0.1,0,0.2,0.1,0.2,0.2c0,0.1-0.1,0.2-0.2,0.2
			c-0.1,0-0.2-0.1-0.2-0.2C132.5,88.5,132.6,88.4,132.7,88.4z M132.2,88.4c0.1,0,0.2,0.1,0.2,0.2c0,0.1-0.1,0.2-0.2,0.2
			c-0.1,0-0.2-0.1-0.2-0.2C132,88.5,132.1,88.4,132.2,88.4z M131.6,88.4c0.1,0,0.2,0.1,0.2,0.2c0,0.1-0.1,0.2-0.2,0.2
			c-0.1,0-0.2-0.1-0.2-0.2C131.4,88.5,131.5,88.4,131.6,88.4z"/>
		<line class="st7" x1="-801" y1="9688.6" x2="-801" y2="-6694.4"/>
		<line class="st7" x1="-705.1" y1="9688.6" x2="-705.1" y2="-6694.4"/>
		<line class="st7" x1="-731" y1="9688.6" x2="-731" y2="-6694.4"/>
		<line class="st7" x1="-702.9" y1="9688.6" x2="-702.9" y2="-6694.4"/>
		<path class="st6" d="M131.6,90.4h3c0.1,0,0.1-0.1,0.1-0.1v0c0-0.1-0.1-0.1-0.1-0.1h-3c-0.1,0-0.1,0.1-0.1,0.1v0
			C131.5,90.3,131.6,90.4,131.6,90.4z"/>
		<path class="st6" d="M131.6,91h1.4c0.1,0,0.1-0.1,0.1-0.1v0c0-0.1-0.1-0.1-0.1-0.1h-1.4c-0.1,0-0.1,0.1-0.1,0.1v0
			C131.5,90.9,131.6,91,131.6,91z"/>
		<path class="st6" d="M131.6,91.6h1.4c0.1,0,0.1-0.1,0.1-0.1v0c0-0.1-0.1-0.1-0.1-0.1h-1.4c-0.1,0-0.1,0.1-0.1,0.1v0
			C131.5,91.5,131.6,91.6,131.6,91.6z"/>
		<path class="st6" d="M131.6,92.8h3c0.1,0,0.1-0.1,0.1-0.1v0c0-0.1-0.1-0.1-0.1-0.1h-3c-0.1,0-0.1,0.1-0.1,0.1v0
			C131.5,92.7,131.6,92.8,131.6,92.8z"/>
		<path class="st6" d="M131.6,92.2h3c0.1,0,0.1-0.1,0.1-0.1v0c0-0.1-0.1-0.1-0.1-0.1h-3c-0.1,0-0.1,0.1-0.1,0.1v0
			C131.5,92.1,131.6,92.2,131.6,92.2z"/>
		<circle class="st6" cx="132.7" cy="88.6" r="0.2"/>
		<circle class="st6" cx="131.6" cy="88.6" r="0.2"/>
		<path class="st6" d="M139.3,88h-8.5l0,5.7h8.5L139.3,88z M139.1,93.5H131v-4.2h8.1V93.5z M139.1,89.1H131v-0.9h8.1V89.1z"/>
		<path class="st6" d="M138.5,90.1h-2.6l0,2.7h2.6V90.1z M138.3,92.6h-2.2v-2.3h2.2V92.6z"/>
		<circle class="st6" cx="132.2" cy="88.6" r="0.2"/>
	</g>
	<path class="st6" d="M110.2,57.8h8.3v5.5h-8.3C110.2,63.3,110.2,57.8,110.2,57.8z M114.3,60.9l3.5-2.7h-7L114.3,60.9z M110.5,63
		h7.6v-4.6l-2.5,1.9l1.5,1.7l0,0l-1.8-1.4l-1,0.8l-1-0.8l-1.8,1.5l0,0l1.5-1.7l-2.5-1.9V63z"/>
</g>
<g class="st8">
	<path class="st6" d="M24.5,126.8c0,1-0.3,1.7-1,2.3c-0.7,0.5-1.6,0.8-2.9,0.8c-1.1,0-2.1-0.2-3-0.6v-2.1c0.7,0.3,1.3,0.5,1.8,0.7
		c0.5,0.1,0.9,0.2,1.4,0.2c0.5,0,0.9-0.1,1.1-0.3c0.3-0.2,0.4-0.5,0.4-0.8c0-0.2-0.1-0.4-0.2-0.6c-0.1-0.2-0.3-0.3-0.5-0.5
		c-0.2-0.1-0.7-0.4-1.4-0.7c-0.6-0.3-1.1-0.6-1.4-0.9c-0.3-0.3-0.6-0.6-0.8-1c-0.2-0.4-0.3-0.8-0.3-1.3c0-0.9,0.3-1.7,0.9-2.2
		c0.6-0.5,1.5-0.8,2.6-0.8c0.5,0,1.1,0.1,1.6,0.2c0.5,0.1,1,0.3,1.6,0.5l-0.7,1.7c-0.6-0.2-1-0.4-1.4-0.5c-0.4-0.1-0.7-0.1-1.1-0.1
		c-0.4,0-0.7,0.1-1,0.3c-0.2,0.2-0.3,0.5-0.3,0.8c0,0.2,0,0.4,0.1,0.5c0.1,0.1,0.2,0.3,0.4,0.4c0.2,0.1,0.7,0.4,1.4,0.7
		c1,0.5,1.7,0.9,2,1.4C24.3,125.6,24.5,126.2,24.5,126.8z"/>
	<path class="st6" d="M30.4,128.2c0.4,0,0.8-0.1,1.4-0.3v1.6c-0.5,0.2-1.2,0.4-2,0.4c-0.9,0-1.5-0.2-1.9-0.7c-0.4-0.4-0.6-1.1-0.6-2
		v-3.9h-1.1v-0.9l1.2-0.7l0.6-1.7h1.4v1.7h2.3v1.7h-2.3v3.9c0,0.3,0.1,0.5,0.3,0.7C29.9,128.1,30.2,128.2,30.4,128.2z"/>
	<path class="st6" d="M37.9,129.9c-1.3,0-2.3-0.4-3-1.1c-0.7-0.7-1.1-1.7-1.1-3c0-1.4,0.3-2.4,1-3.1c0.7-0.7,1.6-1.1,2.8-1.1
		c1.1,0,2,0.3,2.7,1c0.6,0.6,1,1.5,1,2.7v1.1H36c0,0.6,0.2,1.1,0.6,1.5c0.3,0.4,0.8,0.5,1.5,0.5c0.5,0,0.9-0.1,1.4-0.2
		c0.4-0.1,0.9-0.3,1.4-0.5v1.7c-0.4,0.2-0.8,0.3-1.2,0.4C39.1,129.9,38.6,129.9,37.9,129.9z M37.6,123.1c-0.5,0-0.8,0.1-1.1,0.4
		c-0.3,0.3-0.4,0.7-0.5,1.3h3.1c0-0.5-0.2-1-0.4-1.3C38.5,123.3,38.1,123.1,37.6,123.1z"/>
	<path class="st6" d="M45.5,129.8l-3.1-8.1h2.3l1.6,4.6c0.2,0.6,0.3,1.1,0.3,1.7h0c0-0.5,0.1-1,0.3-1.7l1.6-4.6h2.3l-3.1,8.1H45.5z"
		/>
	<path class="st6" d="M56.4,129.9c-1.3,0-2.3-0.4-3-1.1c-0.7-0.7-1.1-1.7-1.1-3c0-1.4,0.3-2.4,1-3.1c0.7-0.7,1.6-1.1,2.8-1.1
		c1.1,0,2,0.3,2.7,1c0.6,0.6,1,1.5,1,2.7v1.1h-5.2c0,0.6,0.2,1.1,0.6,1.5c0.3,0.4,0.8,0.5,1.5,0.5c0.5,0,0.9-0.1,1.4-0.2
		c0.4-0.1,0.9-0.3,1.4-0.5v1.7c-0.4,0.2-0.8,0.3-1.2,0.4C57.6,129.9,57.1,129.9,56.4,129.9z M56.1,123.1c-0.5,0-0.8,0.1-1.1,0.4
		c-0.3,0.3-0.4,0.7-0.5,1.3h3.1c0-0.5-0.2-1-0.4-1.3C56.9,123.3,56.6,123.1,56.1,123.1z"/>
	<path class="st6" d="M71.6,120.9c-0.8,0-1.5,0.3-2,0.9c-0.5,0.6-0.7,1.5-0.7,2.6c0,2.4,0.9,3.5,2.6,3.5c0.7,0,1.6-0.2,2.7-0.6v1.9
		c-0.9,0.4-1.8,0.5-2.9,0.5c-1.5,0-2.7-0.5-3.5-1.4c-0.8-0.9-1.2-2.3-1.2-4c0-1.1,0.2-2.1,0.6-2.9c0.4-0.8,1-1.5,1.7-1.9
		c0.7-0.4,1.6-0.7,2.6-0.7c1,0,2.1,0.2,3.1,0.7l-0.7,1.8c-0.4-0.2-0.8-0.4-1.2-0.5C72.4,121,72,120.9,71.6,120.9z"/>
	<path class="st6" d="M79.4,129.8h-2.2v-11.2h2.2V129.8z"/>
	<path class="st6" d="M82.5,119.6c0-0.7,0.4-1.1,1.2-1.1c0.8,0,1.2,0.4,1.2,1.1c0,0.3-0.1,0.6-0.3,0.8c-0.2,0.2-0.5,0.3-0.9,0.3
		C82.9,120.7,82.5,120.4,82.5,119.6z M84.8,129.8h-2.2v-8.1h2.2V129.8z"/>
	<path class="st6" d="M95.3,129.8h-2.2v-4.7c0-0.6-0.1-1-0.3-1.3c-0.2-0.3-0.5-0.4-1-0.4c-0.6,0-1.1,0.2-1.3,0.6
		c-0.3,0.4-0.4,1.1-0.4,2v3.8h-2.2v-8.1h1.7l0.3,1H90c0.2-0.4,0.6-0.7,1-0.9c0.4-0.2,0.9-0.3,1.5-0.3c0.9,0,1.6,0.3,2.1,0.8
		c0.5,0.5,0.7,1.2,0.7,2.2V129.8z"/>
	<path class="st6" d="M101.8,128.2c0.4,0,0.8-0.1,1.4-0.3v1.6c-0.5,0.2-1.2,0.4-2,0.4c-0.9,0-1.5-0.2-1.9-0.7
		c-0.4-0.4-0.6-1.1-0.6-2v-3.9h-1.1v-0.9l1.2-0.7l0.6-1.7h1.4v1.7h2.3v1.7h-2.3v3.9c0,0.3,0.1,0.5,0.3,0.7
		C101.3,128.1,101.5,128.2,101.8,128.2z"/>
	<path class="st6" d="M113,125.7c0,1.3-0.3,2.3-1,3.1c-0.7,0.7-1.7,1.1-2.9,1.1c-0.8,0-1.5-0.2-2-0.5c-0.6-0.3-1-0.8-1.4-1.5
		c-0.3-0.6-0.5-1.4-0.5-2.2c0-1.3,0.3-2.3,1-3.1c0.7-0.7,1.7-1.1,2.9-1.1c0.8,0,1.5,0.2,2,0.5c0.6,0.3,1,0.8,1.4,1.4
		C112.8,124.1,113,124.9,113,125.7z M107.4,125.7c0,0.8,0.1,1.4,0.4,1.8c0.3,0.4,0.7,0.6,1.3,0.6c0.6,0,1-0.2,1.3-0.6
		c0.3-0.4,0.4-1,0.4-1.8c0-0.8-0.1-1.4-0.4-1.8c-0.3-0.4-0.7-0.6-1.3-0.6c-0.6,0-1,0.2-1.3,0.6C107.6,124.3,107.4,124.9,107.4,125.7
		z"/>
	<path class="st6" d="M123.1,129.8h-2.2v-4.7c0-0.6-0.1-1-0.3-1.3c-0.2-0.3-0.5-0.4-1-0.4c-0.6,0-1.1,0.2-1.3,0.6
		c-0.3,0.4-0.4,1.1-0.4,2v3.8h-2.2v-8.1h1.7l0.3,1h0.1c0.2-0.4,0.6-0.7,1-0.9c0.4-0.2,0.9-0.3,1.5-0.3c0.9,0,1.6,0.3,2.1,0.8
		c0.5,0.5,0.7,1.2,0.7,2.2V129.8z"/>
</g>
<text transform="matrix(1 0 0 1 142.2784 58.7866)" class="st6 st9 st10">steve.clinton@orbitgroup.ca</text>
<text transform="matrix(1 0 0 1 163.6846 90.8205)" class="st6 st9 st10">orbitgroup.ca</text>
<text transform="matrix(1 0 0 1 121.8461 30.2937)" class="st6 st9 st11">+1.289.444.3516</text>
<text transform="matrix(1 0 0 1 17.5137 136.6581)" class="st6 st9 st12">Vice President, Technology &amp; IT Operations</text>
</svg>
