<?xml version="1.0" encoding="utf-8"?>
<!-- Generator: Adobe Illustrator 21.0.0, SVG Export Plug-In . SVG Version: 6.00 Build 0)  -->
<svg version="1.1" id="Layer_1" xmlns="http://www.w3.org/2000/svg" xmlns:xlink="http://www.w3.org/1999/xlink" x="0px" y="0px"
	 viewBox="0 0 960.9 567" style="enable-background:new 0 0 960.9 567;" xml:space="preserve">
<style type="text/css">
	.st0{fill:none;}
	.st1{fill:#181818;}
	.st2{fill:#FFFFFF;}
	.st3{fill:#F7F7F7;}
	.st4{fill:#020202;}
	.st5{opacity:0.57;fill:url(#SVGID_2_);enable-background:new    ;}
	.st6{fill:#B5D481;}
	.st7{fill:#53AEDE;}
	.st8{fill:#333333;}
	.st9{font-family:'Lato-Light';}
	.st10{font-size:21.15px;}
	.st11{font-size:21.223px;}
	.st12{font-size:20.0561px;}
	.st13{font-family:'Lato-Regular';}
	.st14{font-size:21.697px;}
	.st15{letter-spacing:1;}
</style>
<pattern  x="697.4" y="567" width="7.5" height="12.1" patternUnits="userSpaceOnUse" id="SVGID_1_" viewBox="3.6 -15.1 7.5 12.1" style="overflow:visible;">
	<g>
		<rect x="3.6" y="-15.1" class="st0" width="7.5" height="12.1"/>
		<g>
			<rect x="3.6" y="-15.1" class="st0" width="7.5" height="12.1"/>
			<rect x="3.6" y="-15.1" class="st0" width="7.5" height="12.1"/>
			<rect x="3.6" y="-15.1" class="st0" width="7.5" height="12.1"/>
			<rect x="3.6" y="-15.1" class="st0" width="7.5" height="12.1"/>
			<rect x="3.6" y="-15.1" class="st0" width="7.4" height="12.1"/>
			<circle class="st1" cx="11.1" cy="-15.1" r="1.3"/>
			<path class="st1" d="M14.1-15.1c0,1.7-1.3,3-3,3c-0.7,0-1.3-0.2-1.8-0.6l0,0c-0.2-0.1-0.2-0.3-0.1-0.5c0.1-0.2,0.3-0.2,0.5-0.1
				c1,0.7,2.5,0.5,3.2-0.6l0,0c0.3-0.4,0.4-0.8,0.4-1.3h-0.6l0.5-0.7l0.5-0.7l0.5,0.7l0.5,0.7L14.1-15.1z"/>
			<path class="st1" d="M13-17.2c0,0.2-0.1,0.4-0.3,0.4s-0.2,0-0.2-0.1l0,0c-1-0.7-2.4-0.5-3.2,0.5C9-16,8.9-15.5,8.9-15h0.6L9-14.3
				l-0.5,0.7L8-14.3L7.5-15h0.6c0-1.7,1.3-3,3-3l0,0c0.7,0,1.3,0.2,1.8,0.6l0,0C13-17.3,13-17.3,13-17.2z"/>
			<circle class="st1" cx="3.6" cy="-15.1" r="1.3"/>
			<path class="st1" d="M6.6-15.1c0,1.7-1.3,3-3,3c-0.6,0-1.3-0.2-1.8-0.6l0,0c-0.1-0.1-0.1-0.2-0.1-0.3c0-0.2,0.1-0.3,0.3-0.4l0,0
				c0.1,0,0.2,0,0.2,0.1C2.6-13,3-12.9,3.5-12.9c1.2,0,2.3-1,2.3-2.2v-0.1H5.3l0.5-0.7l0.5-0.7l0.5,0.7l0.5,0.7L6.6-15.1L6.6-15.1z"
				/>
			<path class="st1" d="M5.5-17.2c0,0.2-0.1,0.4-0.3,0.4S5-16.8,5-16.9l0,0c-0.4-0.3-0.8-0.4-1.3-0.4c-1.2,0-2.3,1-2.3,2.2v0.1H2
				l-0.5,0.7L1-13.7l-0.5-0.7L0-15.1h0.6c0-1.7,1.3-3,3-3c0.6,0,1.3,0.2,1.8,0.6l0,0C5.5-17.4,5.5-17.3,5.5-17.2z"/>
			<circle class="st1" cx="7.4" cy="-9" r="1.3"/>
			<path class="st1" d="M10.4-9c0,1.7-1.3,3-3,3l0,0C6.7-6,6.1-6.2,5.6-6.6l0,0c-0.1-0.2-0.1-0.3,0-0.5s0.3-0.2,0.5,0
				c1.1,0.7,2.5,0.4,3.2-0.7l0,0C9.5-8.2,9.6-8.6,9.6-9H9l0.5-0.7l0.5-0.7l0.5,0.7L11-9H10.4z"/>
			<path class="st1" d="M9.3-11.2c0,0.2-0.1,0.4-0.3,0.4s-0.2,0-0.2-0.1l0,0c-1-0.7-2.4-0.5-3.2,0.5C5.2-10,5-9.5,5-9h0.6L5.1-8.3
				L4.7-7.6L4.2-8.3L3.7-9h0.6c0-1.6,1.3-3,2.9-3.1c0.7,0,1.3,0.2,1.8,0.6l0,0C9.2-11.4,9.3-11.3,9.3-11.2z"/>
			<circle class="st1" cx="11.1" cy="-3" r="1.3"/>
			<path class="st1" d="M14.1-3c0,1.7-1.3,3-3,3c-0.6,0-1.3-0.2-1.8-0.6l0,0c-0.1,0-0.1-0.1-0.1-0.3c0-0.2,0.2-0.4,0.4-0.4
				c0.1,0,0.2,0,0.2,0.1c0.4,0.3,0.8,0.4,1.3,0.4c1.2,0,2.3-1,2.3-2.2v-0.1h-0.6l0.5-0.7l0.5-0.7l0.5,0.7L14.7-3
				C14.7-3,14.1-3,14.1-3z"/>
			<path class="st1" d="M13-5.2c0,0.2-0.1,0.4-0.3,0.4s-0.2,0-0.2-0.1l0,0c-0.4-0.3-0.9-0.4-1.4-0.4c-1.2,0-2.3,1-2.3,2.2V-3h0.6
				L8.9-2.3L8.4-1.6L7.9-2.3L7.5-3h0.6c0-1.7,1.3-3,3-3c0.6,0,1.3,0.2,1.8,0.6l0,0C13-5.3,13-5.3,13-5.2z"/>
			<circle class="st1" cx="3.6" cy="-3" r="1.3"/>
			<path class="st1" d="M6.6-3c0,1.7-1.3,3-3,3C3,0,2.4-0.2,1.9-0.6l0,0c-0.1,0-0.2-0.1-0.2-0.3c0-0.2,0.2-0.4,0.4-0.4l0,0
				c0.1,0,0.2,0,0.2,0.1c0.4,0.3,0.8,0.4,1.3,0.4c1.2,0,2.3-1,2.3-2.2v-0.1H5.3l0.5-0.7l0.5-0.7l0.5,0.7L7.2-3C7.2-3,6.6-3,6.6-3z"
				/>
			<path class="st1" d="M5.5-5.2c0,0.2-0.1,0.4-0.3,0.4S5-4.8,5-4.9l0,0C4.6-5.2,4.1-5.3,3.6-5.3c-1.2,0-2.3,1-2.3,2.2V-3h0.6
				L1.4-2.3L1-1.6L0.5-2.3L0-3h0.6c0-1.7,1.3-3,3-3c0.6,0,1.3,0.2,1.8,0.6l0,0C5.5-5.4,5.5-5.3,5.5-5.2z"/>
		</g>
	</g>
</pattern>
<title>Artboard 1</title>
<rect x="0" class="st2" width="960.9" height="567"/>
<path class="st3" d="M960.9,405.9C895.2,405.9,842,352.6,842,287s53.2-118.9,118.9-118.9V405.9z"/>
<path class="st3" d="M960.9,501.4c-118.5,0-214.4-95.9-214.4-214.1c0,0,0,0,0-0.4l0,0v-0.4h56.2l-44.5-66l-44.5-66l-44.5,66
	l-44.5,66h55.8v0.4c0,154.6,125.4,280.1,280.1,280.1h0.4L960.9,501.4L960.9,501.4z"/>
<rect x="0" class="st4" width="960.9" height="261.5"/>
<pattern  id="SVGID_2_" xlink:href="#SVGID_1_" patternTransform="matrix(1 0 0 -1 -22.07 -33127.6016)">
</pattern>
<rect x="0" class="st5" width="960.9" height="261.5"/>
<path class="st4" d="M960.9,164.5v97H845.3C855.8,205.7,904,165.2,960.9,164.5z"/>
<polygon class="st4" points="789.1,261.5 759.2,217 714.7,151.3 670.6,217 640.7,261.5 "/>
<rect x="324.5" y="322.4" class="st6" width="0.7" height="160.1"/>
<rect x="635.6" y="322.4" class="st6" width="0.7" height="160.1"/>
<g>
	<path class="st2" d="M280.4,128c0,3.6-1.5,7.3-4.4,9.8c-3.6,2.6-8,4-12.4,3.6c-4.4,0-9.1-1.1-13.1-2.9v-9.1c2.6,1.1,5.5,2.2,8,2.9
		c1.8,0.7,4,0.7,5.8,0.7s3.6-0.4,5.1-1.1c1.1-0.7,1.8-2.2,1.8-3.6c0-0.7-0.4-1.8-0.7-2.6c-0.4-0.7-1.5-1.8-2.2-2.2
		c-1.8-1.1-3.6-2.2-5.8-3.3c-2.2-1.1-4.4-2.2-6.2-3.6c-1.5-1.1-2.6-2.6-3.3-4.4c-0.7-1.8-1.1-4-1.1-5.8c0-3.6,1.5-6.9,4-9.5
		c3.3-2.6,7.3-3.6,11.3-3.6c2.2,0,4.7,0.4,6.9,0.7c2.2,0.7,4.4,1.5,6.9,2.6l-4,8.4c-1.8-1.1-4-1.8-6.2-2.2c-1.5-0.4-3.3-0.7-4.7-0.7
		s-3.3,0.4-4.4,1.5c-1.1,0.7-1.5,2.2-1.5,3.3c0,0.7,0.4,1.5,0.7,2.2c0.4,0.7,1.1,1.1,1.8,1.8c1.8,1.5,4,2.6,6.2,3.3
		c3.3,1.5,6.2,3.3,8.8,6.2C279.7,122.5,280.4,125.1,280.4,128z"/>
	<path class="st2" d="M306.7,133.8c2.2,0,4.4-0.4,6.2-1.1v7.3c-2.9,1.1-5.8,1.5-8.8,1.5c-2.9,0.4-6.2-0.7-8.4-2.9
		c-1.8-2.6-2.9-5.5-2.6-8.8v-17.1h-5.1v-4l5.1-3.3l2.9-7.3h6.2v7.7h9.8v7.3h-9.8v17.1c0,1.5,0.4,2.6,1.1,2.9
		C304.5,133.5,305.6,133.8,306.7,133.8z"/>
	<path class="st2" d="M339.1,141.5c-4.7,0.4-9.5-1.5-13.1-4.7c-3.3-3.6-5.1-8.4-4.7-13.1c-0.4-4.7,1.1-9.8,4.4-13.5
		c6.9-6.2,17.1-6.2,24.1-0.4c2.9,3.3,4.4,7.3,4,11.7v4.7h-22.6c0,2.6,1.1,4.7,2.6,6.6c1.8,1.5,4,2.2,6.2,2.2c1.8,0,4-0.4,5.8-0.7
		c2.2-0.4,4-1.1,5.8-2.2v7.3c-1.8,0.7-3.6,1.5-5.5,1.8C344.2,141.1,342,141.5,339.1,141.5z M338,111.9c-1.8,0-3.6,0.7-4.7,1.8
		c-1.1,1.5-1.8,3.6-1.8,5.5H345c0-1.8-0.7-4-1.8-5.5C341.7,112.3,339.9,111.9,338,111.9z"/>
	<path class="st2" d="M371.9,140.8l-13.1-35H369l6.9,20.1c0.7,2.6,1.1,4.7,1.5,7.3h0.4c0.4-2.6,0.7-5.1,1.5-7.3l6.9-20.1h10.2
		l-13.5,35H371.9z"/>
	<path class="st2" d="M419.7,141.5c-4.7,0.4-9.5-1.5-13.1-4.7c-3.3-3.6-5.1-8.4-4.7-13.1c-0.4-4.7,1.1-9.8,4.4-13.5
		c6.9-6.2,17.1-6.2,24.1-0.4c2.9,3.3,4.4,7.3,4,11.7v4.7h-22.6c0,2.6,1.1,4.7,2.6,6.6c1.8,1.5,4,2.2,6.2,2.2c1.8,0,4-0.4,5.8-0.7
		c2.2-0.4,4-1.1,5.8-2.2v7.3c-1.8,0.7-3.6,1.5-5.5,1.8C424.8,141.1,422.6,141.5,419.7,141.5z M418.6,111.9c-1.8,0-3.6,0.7-4.7,1.8
		c-1.1,1.5-1.8,3.6-1.8,5.5h13.5c0-1.8-0.7-4-1.8-5.5C422.3,112.3,420.4,111.9,418.6,111.9z"/>
	<path class="st2" d="M486.1,102.1c-3.3,0-6.6,1.5-8.4,4c-2.2,3.3-3.3,7.7-2.9,11.7c0,10.2,4,15.3,11.7,15.3c4,0,8-1.1,11.7-2.6v8
		c-4,1.5-8.4,2.2-12.8,2.2c-5.8,0.4-11.3-1.8-15.3-6.2c-4-5.1-5.8-11.3-5.5-17.5c-0.4-4.4,0.7-8.4,2.6-12.4c1.8-3.3,4.4-6.2,7.7-8.4
		c3.3-1.8,7.3-2.9,11.3-2.9c4.7,0,9.5,1.1,13.5,3.3l-3.3,8c-1.8-0.7-3.3-1.5-5.1-2.2C489.7,102.5,487.9,102.1,486.1,102.1z"/>
	<path class="st2" d="M520.4,140.8h-9.8V91.9h9.5L520.4,140.8L520.4,140.8z"/>
	<path class="st2" d="M533.5,96.6c0-3.3,1.8-4.7,5.1-4.7s5.1,1.5,5.1,4.7c0,1.5-0.4,2.6-1.5,3.6c-1.1,0.7-2.6,1.1-4,1.1
		c-2.6,0.4-4.4-1.5-4.7-4C533.5,97,533.5,97,533.5,96.6z M543.3,140.8h-9.5v-35h9.5V140.8z"/>
	<path class="st2" d="M589.6,140.8h-9.5v-20.4c0-2.2-0.4-4-1.5-5.8c-1.1-1.5-2.6-1.8-4.4-1.8c-2.2-0.4-4.4,0.7-5.8,2.6
		c-1.5,2.6-1.8,5.8-1.8,8.8v16.4h-9.5v-34.6h7.3l1.5,4.4h0.4c1.1-1.8,2.6-2.9,4.4-4c2.2-0.7,4.4-1.5,6.6-1.5
		c6.2-0.7,12,3.6,12.8,10.2c0,0.7,0,1.8,0,2.6L589.6,140.8L589.6,140.8z"/>
	<path class="st2" d="M618.1,133.8c2.2,0,4.4-0.4,6.2-1.1v7.3c-2.9,1.1-5.8,1.5-8.8,1.5c-2.9,0.4-6.2-0.7-8.4-2.9
		c-1.8-2.6-2.9-5.5-2.6-8.8v-17.1h-4.7v-4l5.1-3.3l2.9-7.3h6.2v7.7h9.8v7.3h-9.8v17.1c0,1.5,0.4,2.6,1.1,2.9
		C615.9,133.8,617,133.8,618.1,133.8z"/>
	<path class="st2" d="M666.6,123.3c0.4,4.7-1.1,9.8-4.4,13.5c-3.3,3.3-8,5.1-12.8,4.7c-3.3,0-6.2-0.7-9.1-2.2
		c-2.6-1.5-4.7-3.6-5.8-6.2c-1.5-2.9-2.2-6.6-2.2-9.8c-0.4-4.7,1.1-9.8,4.4-13.5c3.3-3.3,8-5.1,12.8-4.7c3.3,0,6.2,0.7,9.1,2.2
		c2.6,1.5,4.7,3.6,5.8,6.2C665.9,116.3,666.6,120,666.6,123.3z M642.5,123.3c0,2.9,0.4,5.5,1.8,8c2.6,2.9,7.3,3.3,10.2,0.7
		c0.4-0.4,0.4-0.4,0.7-0.7c1.5-2.6,1.8-5.1,1.8-8c0.4-2.6-0.4-5.5-1.8-7.7c-2.6-2.9-7.3-3.3-10.2-0.7c-0.4,0.4-0.4,0.4-0.7,0.7
		C642.9,117.8,642.2,120.7,642.5,123.3z"/>
	<path class="st2" d="M710.7,140.8h-9.5v-20.4c0-2.2-0.4-4-1.5-5.8c-1.1-1.5-2.6-1.8-4.4-1.8c-2.2-0.4-4.4,0.7-5.8,2.6
		c-1.5,2.6-1.8,5.8-1.8,8.8v16.4h-9.5v-34.6h7.3l1.5,4.4h0.4c1.1-1.8,2.6-2.9,4.4-4c2.2-0.7,4.4-1.5,6.6-1.5
		c6.2-0.7,12,3.6,12.8,10.2c0,0.7,0,1.8,0,2.6v23.3L710.7,140.8z"/>
</g>
<g>
	<path class="st7" d="M161.9,357.4c-12,0-21.9,9.8-21.9,21.9c0,12,9.8,21.9,21.9,21.9c12,0,21.9-9.8,21.9-21.9
		C183.8,367.2,173.9,357.4,161.9,357.4z M172.8,388.7c-0.7,1.1-2.2,1.8-3.6,1.8c-2.2-0.4-4.4-1.5-6.2-2.9c-4.7-2.9-8.4-7.3-10.9-12
		c-1.5-3.3-1.5-4.7-1.1-5.8c0.4-0.7,0.7-1.5,1.5-1.8c0.7-0.4,1.1-0.7,1.8-0.7c0.7,0,1.1,0.4,1.5,0.7c1.8,2.2,2.9,4.7,2.2,5.8
		c-0.7,1.1-1.5,1.8-1.1,2.6c0.4,0.7,0.7,1.5,1.5,2.2c0.4,0.7,1.1,1.5,1.8,2.2l0.4,0.4l2.2,2.2c0.4,0.7,1.1,1.1,1.8,1.1
		c0.7-0.4,1.8-1.1,2.6-1.5h0.7c1.8,0.4,3.6,1.5,5.1,2.9C173.9,386.5,174.3,387.3,172.8,388.7z"/>
	<path class="st2" d="M172.8,385.8c-1.5-1.5-3.3-2.6-5.1-2.9H167c-0.7,0.4-1.8,1.1-2.6,1.5c-0.7,0-1.5-0.4-1.8-1.1l-2.2-2.2
		l-0.4-0.4c-0.7-0.7-1.5-1.5-1.8-2.2c-0.7-0.7-1.1-1.5-1.5-2.2c-0.4-0.7,0.4-1.5,1.1-2.6c0.7-1.1-0.4-3.6-2.2-5.8
		c-0.4-0.4-0.7-0.7-1.5-0.7c-0.7,0-1.1,0.4-1.8,0.7s-1.1,1.1-1.5,1.8c-0.4,1.1-0.4,2.6,1.1,5.8c2.6,4.7,6.2,9.1,10.9,12
		c1.8,1.5,4,2.6,6.2,2.9c1.5,0,2.9-0.7,3.6-1.8C174.3,387.3,173.9,386.5,172.8,385.8z"/>
</g>
<path class="st7" d="M480.6,401.1c-12,0-21.9-9.8-21.9-21.9c0-12,9.8-21.9,21.9-21.9s21.9,9.8,21.9,21.9
	C502.5,391.3,492.6,401.1,480.6,401.1z"/>
<path class="st2" d="M465.3,369.4h30.3v20.1h-30.3L465.3,369.4z M480.6,380.7l12.8-9.8h-25.5L480.6,380.7z M466.8,388.4h27.7v-16.8
	l-9.1,6.9l5.5,6.2l0,0l-6.6-5.1l-3.6,2.9l-3.6-2.9l-6.6,5.5l0,0l5.5-6.2l-9.1-6.9V388.4z"/>
<rect x="801.9" y="377.1" class="st7" width="8" height="8.4"/>
<path class="st7" d="M798.2,357.4c-12,0-21.9,9.8-21.9,21.9c0,12,9.8,21.9,21.9,21.9c12,0,21.9-9.8,21.9-21.9
	C820.1,367.2,810.3,357.4,798.2,357.4z M782.6,389.5v-20.8h31v20.8H782.6z"/>
<path class="st7" d="M783.3,388.7h29.5v-15.3h-29.5V388.7z M801.1,376.3h9.5v9.8h-9.5V376.3z M785.1,377.1c0-0.4,0-0.4,0.4-0.4l0,0
	h10.9c0.4,0,0.4,0,0.4,0.4l0,0l0,0c0,0.4,0,0.4-0.4,0.4l0,0h-10.9C785.1,377.4,785.1,377.4,785.1,377.1L785.1,377.1z M785.1,379.2
	c0-0.4,0-0.4,0.4-0.4l0,0h5.1c0.4,0,0.4,0,0.4,0.4l0,0l0,0c0,0.4,0,0.4-0.4,0.4l0,0h-5.1C785.1,379.6,785.1,379.6,785.1,379.2
	L785.1,379.2z M785.1,381.4c0-0.4,0-0.4,0.4-0.4l0,0h5.1c0.4,0,0.4,0,0.4,0.4l0,0l0,0c0,0.4,0,0.4-0.4,0.4l0,0h-5.1
	C785.1,381.8,785.1,381.8,785.1,381.4L785.1,381.4z M785.1,383.6c0-0.4,0-0.4,0.4-0.4l0,0h10.9c0.4,0,0.4,0,0.4,0.4l0,0l0,0
	c0,0.4,0,0.4-0.4,0.4l0,0h-10.9C785.1,384,785.1,384,785.1,383.6L785.1,383.6z M785.1,385.8c0-0.4,0-0.4,0.4-0.4l0,0h10.9
	c0.4,0,0.4,0,0.4,0.4l0,0l0,0c0,0.4,0,0.4-0.4,0.4l0,0h-10.9C785.1,386.2,785.1,386.2,785.1,385.8L785.1,385.8z"/>
<path class="st7" d="M783.3,372.7h29.5v-3.3h-29.5V372.7z M789.5,370.1c0.4,0,0.7,0.4,0.7,0.7s-0.4,0.7-0.7,0.7
	c-0.4,0-0.7-0.4-0.7-0.7l0,0C788.8,370.5,789.1,370.1,789.5,370.1z M787.7,370.1c0.4,0,0.7,0.4,0.7,0.7s-0.4,0.7-0.7,0.7
	s-0.7-0.4-0.7-0.7l0,0C786.9,370.5,787.3,370.1,787.7,370.1z M785.5,370.1c0.4,0,0.7,0.4,0.7,0.7s-0.4,0.7-0.7,0.7s-0.7-0.4-0.7-0.7
	l0,0C784.7,370.5,785.1,370.1,785.5,370.1z"/>
<path class="st2" d="M785.5,377.4h10.9c0.4,0,0.4,0,0.4-0.4l0,0l0,0c0-0.4,0-0.4-0.4-0.4l0,0h-10.9c-0.4,0-0.4,0-0.4,0.4l0,0l0,0
	C785.1,377.4,785.1,377.4,785.5,377.4L785.5,377.4z"/>
<circle class="st2" cx="787.7" cy="370.9" r="0.7"/>
<path class="st2" d="M785.5,386.2h10.9c0.4,0,0.4,0,0.4-0.4l0,0l0,0c0-0.4,0-0.4-0.4-0.4l0,0h-10.9c-0.4,0-0.4,0-0.4,0.4l0,0l0,0
	C785.1,386.2,785.1,386.2,785.5,386.2L785.5,386.2z"/>
<circle class="st2" cx="789.5" cy="370.9" r="0.7"/>
<circle class="st2" cx="785.5" cy="370.9" r="0.7"/>
<path class="st2" d="M782.6,368.7v20.8h31v-20.8H782.6z M812.8,388.7h-29.5v-15.3h29.5V388.7z M812.8,372.7h-29.5v-3.3h29.5V372.7z"
	/>
<path class="st2" d="M810.6,376.3h-9.5v9.8h9.5V376.3z M809.9,385.4h-8v-8.4h8V385.4z"/>
<path class="st2" d="M785.5,379.6h5.1c0.4,0,0.4,0,0.4-0.4l0,0l0,0c0-0.4,0-0.4-0.4-0.4l0,0h-5.1c-0.4,0-0.4,0-0.4,0.4l0,0l0,0
	C785.1,379.6,785.1,379.6,785.5,379.6L785.5,379.6z"/>
<path class="st2" d="M785.5,384h10.9c0.4,0,0.4,0,0.4-0.4l0,0l0,0c0-0.4,0-0.4-0.4-0.4l0,0h-10.9c-0.4,0-0.4,0-0.4,0.4l0,0l0,0
	C785.1,384,785.1,384,785.5,384L785.5,384z"/>
<path class="st2" d="M785.5,381.8h5.1c0.4,0,0.4,0,0.4-0.4l0,0l0,0c0-0.4,0-0.4-0.4-0.4l0,0h-5.1c-0.4,0-0.4,0-0.4,0.4l0,0l0,0
	C785.1,381.8,785.1,381.8,785.5,381.8L785.5,381.8z"/>
<text transform="matrix(1 0 0 1 353.8954 432.3717)" class="st8 st9 st10">st</text>
<text transform="matrix(1 0 0 1 370.5243 432.3717)" class="st8 st9 st10">ev</text>
<text transform="matrix(1 0 0 1 391.2353 432.3717)" class="st8 st9 st10">e.clinton@orbitgroup.ca</text>
<text transform="matrix(1 0 0 1 738.2451 432.9557)" class="st8 st9 st11">orbitgroup.ca</text>
<text transform="matrix(1 0 0 1 80.1825 432.4088)" class="st8 st9 st12">+1.289.444.3516</text>
<text transform="matrix(1 0 0 1 249.9345 167.1314)" class="st2 st13 st14 st15">Vice President, Technology &amp; IT Operations </text>
</svg>
