<?xml version="1.0" encoding="utf-8"?>
<!-- Generator: Adobe Illustrator 21.0.0, SVG Export Plug-In . SVG Version: 6.00 Build 0)  -->
<svg version="1.1" id="Layer_1" xmlns="http://www.w3.org/2000/svg" xmlns:xlink="http://www.w3.org/1999/xlink" x="0px" y="0px"
	 viewBox="0 0 263.5 155.5" style="enable-background:new 0 0 263.5 155.5;" xml:space="preserve">
<style type="text/css">
	.st0{fill:none;}
	.st1{fill:#F7F7F7;}
	.st2{fill:#FFFFFF;}
	.st3{opacity:0.4;fill:url(#SVGID_1_);enable-background:new    ;}
	.st4{fill:#F4F4F4;}
	.st5{fill:#B5D481;}
	.st6{fill:#3FBFEA;}
	.st7{fill:#727578;}
</style>
<pattern  y="155.5" width="7.5" height="12.1" patternUnits="userSpaceOnUse" id="New_Pattern_3" viewBox="3.6 -15.1 7.5 12.1" style="overflow:visible;">
	<g>
		<rect x="3.6" y="-15.1" class="st0" width="7.5" height="12.1"/>
		<rect x="3.6" y="-15.1" class="st0" width="7.4" height="12.1"/>
		<circle class="st1" cx="11.1" cy="-15.1" r="1.3"/>
		<path class="st1" d="M14.1-15.1c0,1.7-1.3,3-3,3c-0.7,0-1.3-0.2-1.8-0.6l0,0c-0.2-0.1-0.2-0.3-0.1-0.5c0.1-0.2,0.3-0.2,0.5-0.1
			c1,0.7,2.5,0.5,3.2-0.6c0.3-0.4,0.4-0.8,0.4-1.3h-0.6l0.5-0.7l0.5-0.7l0.5,0.7l0.5,0.7L14.1-15.1z"/>
		<path class="st1" d="M13-17.2c0,0.2-0.1,0.4-0.3,0.4c-0.1,0-0.2,0-0.2-0.1l0,0c-1-0.7-2.5-0.5-3.2,0.5c-0.3,0.4-0.4,0.9-0.4,1.4
			h0.6l-0.5,0.7l-0.5,0.7l-0.5-0.7l-0.5-0.7h0.6c0-1.7,1.3-3,3-3c0.7,0,1.3,0.2,1.8,0.6l0,0l0,0C12.9-17.4,13-17.3,13-17.2z"/>
		<circle class="st1" cx="3.6" cy="-15.1" r="1.3"/>
		<path class="st1" d="M6.6-15.1c0,1.7-1.3,3-3,3c-0.6,0-1.3-0.2-1.8-0.6l0,0c-0.1-0.1-0.1-0.2-0.1-0.3c0-0.2,0.2-0.4,0.3-0.4
			c0,0,0,0,0,0c0.1,0,0.2,0,0.2,0.1c0.4,0.3,0.8,0.4,1.3,0.4c1.3,0,2.3-1,2.3-2.3H5.3l0.5-0.7l0.5-0.7l0.5,0.7l0.5,0.7H6.6z"/>
		<path class="st1" d="M5.5-17.2c0,0.2-0.1,0.4-0.3,0.4c-0.1,0-0.2,0-0.2-0.1l0,0c-0.4-0.3-0.9-0.4-1.3-0.4c-1.3,0-2.3,1-2.3,2.3
			c0,0,0,0,0,0h0.6l-0.5,0.7L1-13.7l-0.5-0.7L0-15.1h0.6c0-1.7,1.3-3,3-3c0.6,0,1.2,0.2,1.8,0.6l0,0l0,0C5.5-17.4,5.5-17.3,5.5-17.2
			z"/>
		<circle class="st1" cx="7.4" cy="-9" r="1.3"/>
		<path class="st1" d="M10.4-9c0,1.7-1.4,3-3,3C6.7-6,6.1-6.2,5.6-6.6l0,0C5.5-6.7,5.5-6.9,5.6-7.1c0.1-0.2,0.3-0.2,0.5,0
			c1.1,0.7,2.5,0.4,3.2-0.7C9.5-8.2,9.6-8.6,9.6-9H9l0.5-0.7l0.5-0.7l0.5,0.7L11-9H10.4z"/>
		<path class="st1" d="M9.3-11.2c0,0.2-0.1,0.4-0.3,0.4c-0.1,0-0.2,0-0.2-0.1l0,0c-1-0.7-2.5-0.5-3.2,0.5C5.2-10,5-9.5,5-9h0.6
			L5.1-8.3L4.7-7.6L4.2-8.3L3.7-9h0.6c0-1.7,1.3-3,2.9-3.1c0.7,0,1.3,0.2,1.8,0.6l0,0l0,0C9.2-11.4,9.3-11.3,9.3-11.2z"/>
		<circle class="st1" cx="11.1" cy="-3" r="1.3"/>
		<path class="st1" d="M14.1-3c0,1.7-1.3,3-3,3c-0.6,0-1.3-0.2-1.8-0.6l0,0C9.2-0.6,9.2-0.7,9.2-0.9c0-0.2,0.2-0.4,0.4-0.4
			c0.1,0,0.2,0,0.2,0.1c0.4,0.3,0.9,0.4,1.3,0.4c1.3,0,2.3-1,2.3-2.3h-0.6l0.5-0.7l0.5-0.7l0.5,0.7L14.7-3H14.1z"/>
		<path class="st1" d="M13-5.2c0,0.2-0.1,0.4-0.3,0.4c-0.1,0-0.2,0-0.2-0.1l0,0c-0.4-0.3-0.9-0.4-1.4-0.4c-1.3,0-2.3,1-2.3,2.3h0.6
			L8.9-2.3L8.4-1.6L7.9-2.3L7.5-3h0.6c0-1.7,1.3-3,3-3c0.6,0,1.2,0.2,1.8,0.6l0,0l0,0C12.9-5.4,13-5.3,13-5.2z"/>
		<circle class="st1" cx="3.6" cy="-3" r="1.3"/>
		<path class="st1" d="M6.6-3c0,1.7-1.3,3-3,3C3,0,2.4-0.2,1.9-0.6l0,0C1.8-0.6,1.7-0.7,1.7-0.9c0-0.2,0.2-0.4,0.4-0.4l0,0
			c0.1,0,0.2,0,0.2,0.1c0.4,0.3,0.8,0.4,1.3,0.4c1.3,0,2.3-1,2.3-2.3l0,0H5.3l0.5-0.7l0.5-0.7l0.5,0.7L7.2-3H6.6z"/>
		<path class="st1" d="M5.5-5.2c0,0.2-0.1,0.4-0.3,0.4C5.1-4.8,5-4.8,5-4.9l0,0C4.6-5.2,4.1-5.3,3.6-5.3c-1.3,0-2.3,1-2.3,2.3l0,0
			h0.6L1.4-2.3L1-1.6L0.5-2.3L0-3h0.6c0-1.7,1.3-3,3-3c0.6,0,1.2,0.2,1.8,0.6l0,0l0,0C5.5-5.4,5.5-5.3,5.5-5.2z"/>
	</g>
</pattern>
<title>Business Card Landscape - Front - 2</title>
<g id="Your_Design_copy">
	<rect y="0" class="st2" width="263.5" height="155.5"/>
</g>
<g id="Layer_19">
	<pattern  id="SVGID_1_" xlink:href="#New_Pattern_3" patternTransform="matrix(0.9987 0 0 -0.9987 -4.1645 -16398.4629)">
	</pattern>
	<rect y="0" class="st3" width="263.5" height="155.5"/>
</g>
<g id="logo_color">
	<path class="st4" d="M263.5,137.3L263.5,137.3c-32.9,0-59.5-26.7-59.5-59.5c0,0,0,0,0-0.1h15.6l-12.3-18.3l-12.3-18.3l-12.3,18.3
		l-12.3,18.3h15.5v0.1c0,41.9,33.3,76.3,75.2,77.7h2.6V137.3z"/>
</g>
<g id="Logo">
	<path class="st5" d="M129,83.1h-2.6V72.2h2.6v2.5c0,0,1.1-2.8,3.8-2.6v2.6c-3.8-0.2-3.8,4-3.8,4V83.1z"/>
	<rect x="98.3" y="72.2" class="st6" width="2.6" height="10.9"/>
	<path class="st6" d="M109.7,80.9v2.3c-4.6,0.3-5.2-2-5.2-4.2v-4.4H103v-2.1h1.4v-3.1h2.6v3.1h2.4v2.1h-2.4v3.8
		C107.1,79.3,107,81,109.7,80.9z"/>
	<rect x="98.3" y="68" class="st6" width="2.6" height="2.3"/>
	<path class="st6" d="M68.9,72c-3.2,0.1-5.6,2.8-5.5,5.9c0.1,3.2,2.8,5.6,5.9,5.5c3.1-0.1,5.5-2.6,5.5-5.7
		C74.7,74.5,72.1,71.9,68.9,72z M69.1,81.3c-1.9,0-3.4-1.6-3.4-3.5s1.5-3.5,3.4-3.5s3.4,1.6,3.4,3.5S71,81.3,69.1,81.3z"/>
	<path class="st6" d="M87.9,73.6V68h-2.6v15.1h2.6v-1.2c1.5,2.6,8.1,2.4,8.1-4.2C96.1,71.9,90.7,70.4,87.9,73.6z M90.7,81.2
		c-1.5,0-2.8-1.6-2.8-3.5s1.2-3.5,2.8-3.5s2.8,1.6,2.8,3.5S92.2,81.2,90.7,81.2L90.7,81.2z"/>
	<path class="st5" d="M171.6,77.8c0-6.6-6.6-7.2-8.4-3.9v-1.6h-2.3v15.3h2.6v-5.6C165.5,84.7,171.6,83.7,171.6,77.8z M168.9,77.8
		c0,1.7-0.8,3.4-2.9,3.4c-1.5,0-2.6-1.6-2.6-3.4c0-2.1,1-3.5,2.8-3.5S168.9,75.7,168.9,77.8z"/>
	<path class="st5" d="M120.7,81.5c0.5,6.2-6,3.1-6,3.1l-0.8,2.1c0.3,0.4,8.4,3.1,9.5-3.5c0-2.3,0-10.9,0-10.9h-2.4v1.2
		c-1.6-2.6-8.1-2.4-8.1,4.2C112.8,82.3,117.8,84.7,120.7,81.5z M118.1,74.2c2.1,0,2.7,1.5,2.7,3.4s-1.1,3-2.7,3
		c-1.5-0.1-2.7-1.4-2.6-3c0,0,0,0,0,0C115.5,75.8,116.1,74.2,118.1,74.2L118.1,74.2z"/>
	<path class="st5" d="M147.8,72.2h2.6V79c0,3.1,4.8,2.7,4.8-1.8v-5h2.7v11h-2.5c0,0,0-1.6,0-2c-0.8,1.5-2.4,2.4-4.1,2.2
		c-1.8,0.1-3.3-1.4-3.4-3.2c0-0.1,0-0.2,0-0.3C147.8,77.9,147.8,72.2,147.8,72.2z"/>
	<path class="st6" d="M79.6,83.1H77V72.2h2.6v2.5c0,0,1.1-2.8,3.8-2.6v2.6c-3.8-0.2-3.8,4-3.8,4L79.6,83.1z"/>
	<circle class="st7" cx="187.6" cy="77.8" r="4.6"/>
	<path class="st5" d="M198.4,77.8c0-6-4.9-10.9-10.9-10.8c-2.3,0-4.5,0.7-6.3,2.1l0,0c-0.6,0.4-0.6,1.3-0.2,1.8s1.3,0.6,1.8,0.2
		c3.8-2.7,9-1.8,11.6,2c1,1.4,1.5,3.1,1.5,4.8h-2.2l1.7,2.6l1.7,2.6l1.7-2.6l1.7-2.6L198.4,77.8z"/>
	<path class="st6" d="M194.5,85.5c0-0.7-0.6-1.3-1.3-1.3c-0.3,0-0.6,0.1-0.8,0.3l0,0c-3.7,2.7-8.9,1.8-11.6-1.9
		c-1-1.4-1.6-3.1-1.6-4.8h2.2l-1.7-2.6l-1.7-2.6l-1.7,2.6l-1.7,2.6h2.2c0,6,4.9,10.9,10.9,10.8c2.2,0,4.4-0.7,6.3-2l0.1-0.1l0,0
		C194.3,86.3,194.5,85.9,194.5,85.5z"/>
	<path class="st5" d="M139.8,72c-3.2,0.1-5.6,2.8-5.5,5.9c0.1,3.2,2.8,5.6,5.9,5.5c3.1-0.1,5.5-2.6,5.5-5.7
		C145.7,74.5,143,71.9,139.8,72z M140.1,81.3c-1.9,0-3.4-1.6-3.4-3.5s1.5-3.5,3.4-3.5s3.4,1.6,3.4,3.5S141.9,81.3,140.1,81.3z"/>
</g>
<g id="Layer_16">
	<path class="st4" d="M263.5,0L263.5,0c-16.4,0-32.4,5.2-45.7,14.8c-0.1,0.1-0.2,0.2-0.3,0.2c-4,3.1-4.7,8.8-1.6,12.8
		s8.8,4.7,12.8,1.6c0.1-0.1,0.3-0.2,0.4-0.3c10-7.1,22-10.9,34.3-10.9l0,0L263.5,0z"/>
	<path class="st4" d="M263.5,44.8L263.5,44.8c-18.2,0-33,14.8-33,33s14.8,33,33,33l0,0V44.8z"/>
</g>
</svg>
