<?xml version="1.0" encoding="utf-8"?>
<!-- Generator: Adobe Illustrator 21.0.0, SVG Export Plug-In . SVG Version: 6.00 Build 0)  -->
<svg version="1.1" id="Layer_1" xmlns="http://www.w3.org/2000/svg" xmlns:xlink="http://www.w3.org/1999/xlink" x="0px" y="0px"
	 viewBox="0 0 263.5 155.6" style="enable-background:new 0 0 263.5 155.6;" xml:space="preserve">
<style type="text/css">
	.st0{fill:none;}
	.st1{fill:#181818;}
	.st2{fill:#F7F7F7;}
	.st3{fill:#FFFFFF;}
	.st4{opacity:0.72;fill:url(#SVGID_1_);enable-background:new    ;}
	.st5{fill:#020202;}
	.st6{opacity:0.57;fill:url(#SVGID_2_);enable-background:new    ;}
	.st7{fill:#B5D481;}
	.st8{fill:#3FBFEA;}
	.st9{fill:#727578;}
	.st10{fill:#A3A3A2;}
	.st11{font-family:'Lato-Regular';}
	.st12{font-size:5.1305px;}
	.st13{font-family:'Lato-Light';}
	.st14{font-size:6.6895px;}
	.st15{font-size:5.5091px;}
	.st16{fill:none;stroke:#A3A3A2;stroke-width:0;stroke-linecap:round;stroke-linejoin:round;}
</style>
<pattern  y="155.6" width="7.5" height="12.1" patternUnits="userSpaceOnUse" id="New_Pattern" viewBox="3.6 -15.1 7.5 12.1" style="overflow:visible;">
	<g>
		<rect x="3.6" y="-15.1" class="st0" width="7.5" height="12.1"/>
		<rect x="3.6" y="-15.1" class="st0" width="7.4" height="12.1"/>
		<circle class="st1" cx="11.1" cy="-15.1" r="1.3"/>
		<path class="st1" d="M14.1-15.1c0,1.7-1.3,3-3,3c-0.7,0-1.3-0.2-1.8-0.6l0,0c-0.2-0.1-0.2-0.3-0.1-0.5c0.1-0.2,0.3-0.2,0.5-0.1
			c1,0.7,2.5,0.5,3.2-0.6c0.3-0.4,0.4-0.8,0.4-1.3h-0.6l0.5-0.7l0.5-0.7l0.5,0.7l0.5,0.7L14.1-15.1z"/>
		<path class="st1" d="M13-17.2c0,0.2-0.1,0.4-0.3,0.4c-0.1,0-0.2,0-0.2-0.1l0,0c-1-0.7-2.5-0.5-3.2,0.5c-0.3,0.4-0.4,0.9-0.4,1.4
			h0.6l-0.5,0.7l-0.5,0.7l-0.5-0.7l-0.5-0.7h0.6c0-1.7,1.3-3,3-3c0.7,0,1.3,0.2,1.8,0.6l0,0l0,0C12.9-17.4,13-17.3,13-17.2z"/>
		<circle class="st1" cx="3.6" cy="-15.1" r="1.3"/>
		<path class="st1" d="M6.6-15.1c0,1.7-1.3,3-3,3c-0.6,0-1.3-0.2-1.8-0.6l0,0c-0.1-0.1-0.1-0.2-0.1-0.3c0-0.2,0.2-0.4,0.3-0.4
			c0,0,0,0,0,0c0.1,0,0.2,0,0.2,0.1c0.4,0.3,0.8,0.4,1.3,0.4c1.3,0,2.3-1,2.3-2.3H5.3l0.5-0.7l0.5-0.7l0.5,0.7l0.5,0.7H6.6z"/>
		<path class="st1" d="M5.5-17.2c0,0.2-0.1,0.4-0.3,0.4c-0.1,0-0.2,0-0.2-0.1l0,0c-0.4-0.3-0.9-0.4-1.3-0.4c-1.3,0-2.3,1-2.3,2.3
			c0,0,0,0,0,0h0.6l-0.5,0.7L1-13.7l-0.5-0.7L0-15.1h0.6c0-1.7,1.3-3,3-3c0.6,0,1.2,0.2,1.8,0.6l0,0l0,0C5.5-17.4,5.5-17.3,5.5-17.2
			z"/>
		<circle class="st1" cx="7.4" cy="-9" r="1.3"/>
		<path class="st1" d="M10.4-9c0,1.7-1.4,3-3,3C6.7-6,6.1-6.2,5.6-6.6l0,0C5.5-6.7,5.5-6.9,5.6-7.1c0.1-0.2,0.3-0.2,0.5,0
			c1.1,0.7,2.5,0.4,3.2-0.7C9.5-8.2,9.6-8.6,9.6-9H9l0.5-0.7l0.5-0.7l0.5,0.7L11-9H10.4z"/>
		<path class="st1" d="M9.3-11.2c0,0.2-0.1,0.4-0.3,0.4c-0.1,0-0.2,0-0.2-0.1l0,0c-1-0.7-2.5-0.5-3.2,0.5C5.2-10,5-9.5,5-9h0.6
			L5.1-8.3L4.7-7.6L4.2-8.3L3.7-9h0.6c0-1.7,1.3-3,2.9-3.1c0.7,0,1.3,0.2,1.8,0.6l0,0l0,0C9.2-11.4,9.3-11.3,9.3-11.2z"/>
		<circle class="st1" cx="11.1" cy="-3" r="1.3"/>
		<path class="st1" d="M14.1-3c0,1.7-1.3,3-3,3c-0.6,0-1.3-0.2-1.8-0.6l0,0C9.2-0.6,9.2-0.7,9.2-0.9c0-0.2,0.2-0.4,0.4-0.4
			c0.1,0,0.2,0,0.2,0.1c0.4,0.3,0.9,0.4,1.3,0.4c1.3,0,2.3-1,2.3-2.3h-0.6l0.5-0.7l0.5-0.7l0.5,0.7L14.7-3H14.1z"/>
		<path class="st1" d="M13-5.2c0,0.2-0.1,0.4-0.3,0.4c-0.1,0-0.2,0-0.2-0.1l0,0c-0.4-0.3-0.9-0.4-1.4-0.4c-1.3,0-2.3,1-2.3,2.3h0.6
			L8.9-2.3L8.4-1.6L7.9-2.3L7.5-3h0.6c0-1.7,1.3-3,3-3c0.6,0,1.2,0.2,1.8,0.6l0,0l0,0C12.9-5.4,13-5.3,13-5.2z"/>
		<circle class="st1" cx="3.6" cy="-3" r="1.3"/>
		<path class="st1" d="M6.6-3c0,1.7-1.3,3-3,3C3,0,2.4-0.2,1.9-0.6l0,0C1.8-0.6,1.7-0.7,1.7-0.9c0-0.2,0.2-0.4,0.4-0.4l0,0
			c0.1,0,0.2,0,0.2,0.1c0.4,0.3,0.8,0.4,1.3,0.4c1.3,0,2.3-1,2.3-2.3l0,0H5.3l0.5-0.7l0.5-0.7l0.5,0.7L7.2-3H6.6z"/>
		<path class="st1" d="M5.5-5.2c0,0.2-0.1,0.4-0.3,0.4C5.1-4.8,5-4.8,5-4.9l0,0C4.6-5.2,4.1-5.3,3.6-5.3c-1.3,0-2.3,1-2.3,2.3l0,0
			h0.6L1.4-2.3L1-1.6L0.5-2.3L0-3h0.6c0-1.7,1.3-3,3-3c0.6,0,1.2,0.2,1.8,0.6l0,0l0,0C5.5-5.4,5.5-5.3,5.5-5.2z"/>
	</g>
</pattern>
<pattern  y="155.6" width="7.5" height="12.1" patternUnits="userSpaceOnUse" id="New_Pattern_3" viewBox="3.6 -15.1 7.5 12.1" style="overflow:visible;">
	<g>
		<rect x="3.6" y="-15.1" class="st0" width="7.5" height="12.1"/>
		<rect x="3.6" y="-15.1" class="st0" width="7.4" height="12.1"/>
		<circle class="st2" cx="11.1" cy="-15.1" r="1.3"/>
		<path class="st2" d="M14.1-15.1c0,1.7-1.3,3-3,3c-0.7,0-1.3-0.2-1.8-0.6l0,0c-0.2-0.1-0.2-0.3-0.1-0.5c0.1-0.2,0.3-0.2,0.5-0.1
			c1,0.7,2.5,0.5,3.2-0.6c0.3-0.4,0.4-0.8,0.4-1.3h-0.6l0.5-0.7l0.5-0.7l0.5,0.7l0.5,0.7L14.1-15.1z"/>
		<path class="st2" d="M13-17.2c0,0.2-0.1,0.4-0.3,0.4c-0.1,0-0.2,0-0.2-0.1l0,0c-1-0.7-2.5-0.5-3.2,0.5c-0.3,0.4-0.4,0.9-0.4,1.4
			h0.6l-0.5,0.7l-0.5,0.7l-0.5-0.7l-0.5-0.7h0.6c0-1.7,1.3-3,3-3c0.7,0,1.3,0.2,1.8,0.6l0,0l0,0C12.9-17.4,13-17.3,13-17.2z"/>
		<circle class="st2" cx="3.6" cy="-15.1" r="1.3"/>
		<path class="st2" d="M6.6-15.1c0,1.7-1.3,3-3,3c-0.6,0-1.3-0.2-1.8-0.6l0,0c-0.1-0.1-0.1-0.2-0.1-0.3c0-0.2,0.2-0.4,0.3-0.4
			c0,0,0,0,0,0c0.1,0,0.2,0,0.2,0.1c0.4,0.3,0.8,0.4,1.3,0.4c1.3,0,2.3-1,2.3-2.3H5.3l0.5-0.7l0.5-0.7l0.5,0.7l0.5,0.7H6.6z"/>
		<path class="st2" d="M5.5-17.2c0,0.2-0.1,0.4-0.3,0.4c-0.1,0-0.2,0-0.2-0.1l0,0c-0.4-0.3-0.9-0.4-1.3-0.4c-1.3,0-2.3,1-2.3,2.3
			c0,0,0,0,0,0h0.6l-0.5,0.7L1-13.7l-0.5-0.7L0-15.1h0.6c0-1.7,1.3-3,3-3c0.6,0,1.2,0.2,1.8,0.6l0,0l0,0C5.5-17.4,5.5-17.3,5.5-17.2
			z"/>
		<circle class="st2" cx="7.4" cy="-9" r="1.3"/>
		<path class="st2" d="M10.4-9c0,1.7-1.4,3-3,3C6.7-6,6.1-6.2,5.6-6.6l0,0C5.5-6.7,5.5-6.9,5.6-7.1c0.1-0.2,0.3-0.2,0.5,0
			c1.1,0.7,2.5,0.4,3.2-0.7C9.5-8.2,9.6-8.6,9.6-9H9l0.5-0.7l0.5-0.7l0.5,0.7L11-9H10.4z"/>
		<path class="st2" d="M9.3-11.2c0,0.2-0.1,0.4-0.3,0.4c-0.1,0-0.2,0-0.2-0.1l0,0c-1-0.7-2.5-0.5-3.2,0.5C5.2-10,5-9.5,5-9h0.6
			L5.1-8.3L4.7-7.6L4.2-8.3L3.7-9h0.6c0-1.7,1.3-3,2.9-3.1c0.7,0,1.3,0.2,1.8,0.6l0,0l0,0C9.2-11.4,9.3-11.3,9.3-11.2z"/>
		<circle class="st2" cx="11.1" cy="-3" r="1.3"/>
		<path class="st2" d="M14.1-3c0,1.7-1.3,3-3,3c-0.6,0-1.3-0.2-1.8-0.6l0,0C9.2-0.6,9.2-0.7,9.2-0.9c0-0.2,0.2-0.4,0.4-0.4
			c0.1,0,0.2,0,0.2,0.1c0.4,0.3,0.9,0.4,1.3,0.4c1.3,0,2.3-1,2.3-2.3h-0.6l0.5-0.7l0.5-0.7l0.5,0.7L14.7-3H14.1z"/>
		<path class="st2" d="M13-5.2c0,0.2-0.1,0.4-0.3,0.4c-0.1,0-0.2,0-0.2-0.1l0,0c-0.4-0.3-0.9-0.4-1.4-0.4c-1.3,0-2.3,1-2.3,2.3h0.6
			L8.9-2.3L8.4-1.6L7.9-2.3L7.5-3h0.6c0-1.7,1.3-3,3-3c0.6,0,1.2,0.2,1.8,0.6l0,0l0,0C12.9-5.4,13-5.3,13-5.2z"/>
		<circle class="st2" cx="3.6" cy="-3" r="1.3"/>
		<path class="st2" d="M6.6-3c0,1.7-1.3,3-3,3C3,0,2.4-0.2,1.9-0.6l0,0C1.8-0.6,1.7-0.7,1.7-0.9c0-0.2,0.2-0.4,0.4-0.4l0,0
			c0.1,0,0.2,0,0.2,0.1c0.4,0.3,0.8,0.4,1.3,0.4c1.3,0,2.3-1,2.3-2.3l0,0H5.3l0.5-0.7l0.5-0.7l0.5,0.7L7.2-3H6.6z"/>
		<path class="st2" d="M5.5-5.2c0,0.2-0.1,0.4-0.3,0.4C5.1-4.8,5-4.8,5-4.9l0,0C4.6-5.2,4.1-5.3,3.6-5.3c-1.3,0-2.3,1-2.3,2.3l0,0
			h0.6L1.4-2.3L1-1.6L0.5-2.3L0-3h0.6c0-1.7,1.3-3,3-3c0.6,0,1.2,0.2,1.8,0.6l0,0l0,0C5.5-5.4,5.5-5.3,5.5-5.2z"/>
	</g>
</pattern>
<title>Business Card Landscape - Back 1 - outline</title>
<g id="Layer_10">
	<rect y="0.1" class="st3" width="263.5" height="155.5"/>
</g>
<g id="Layer_10_copy">
	<pattern  id="SVGID_1_" xlink:href="#New_Pattern_3" patternTransform="matrix(0.9987 0 0 -0.9987 -4.1445 -16398.6426)">
	</pattern>
	<rect y="0.1" class="st4" width="263.5" height="155.5"/>
</g>
<g id="Your_Design">
	<path class="st5" d="M131.8,0v64.3c7.4,0.2,13.3,6.4,13.1,13.8c-0.2,7.1-5.9,12.9-13.1,13.1v64.3h131.8V0H131.8z"/>
</g>
<g id="Your_Design_copy_10">
	<pattern  id="SVGID_2_" xlink:href="#New_Pattern" patternTransform="matrix(0.9987 0 0 -0.9987 -8.7783 -16400.5703)">
	</pattern>
	<path class="st6" d="M131.8,0v64.3c7.4,0.2,13.3,6.4,13.1,13.8c-0.2,7.1-5.9,12.9-13.1,13.1v64.3h131.8V0H131.8z"/>
</g>
<g id="logo_color">
	<path class="st5" d="M208.6,77.6c0-42.4-34.4-76.8-76.8-76.8v18c32.5,0,58.8,26.3,58.8,58.8h-15.3l12.2,18.1l12.2,18.1l12.2-18.1
		L224,77.6H208.6z"/>
	<path class="st5" d="M171.7,123.5c-2,0-4,0.7-5.6,2l0,0c-10,7.2-22,11-34.3,11v18c16.1,0,31.7-5,44.8-14.4c0.2-0.1,0.4-0.2,0.6-0.4
		l0.1-0.1l0,0c3.9-3.1,4.6-8.7,1.6-12.6C177.1,124.8,174.4,123.5,171.7,123.5L171.7,123.5z"/>
</g>
<g id="Your_Design_copy_11">
	<path class="st5" d="M131.8,45v19.3l0,0c7.4,0.2,13.3,6.4,13.1,13.8c-0.2,7.1-5.9,12.9-13.1,13.1l0,0v19.1
		c18,0,32.6-14.6,32.6-32.6S149.8,45,131.8,45z"/>
</g>
<g id="Logo">
	<path class="st7" d="M84.5,82.1h-2.1v-8.8h2.1v2c0.5-1.3,1.7-2.1,3.1-2.1v2.1c-3.1-0.2-3.1,3.2-3.1,3.2V82.1z"/>
	<rect x="59.7" y="73.4" class="st8" width="2.1" height="8.8"/>
	<path class="st8" d="M68.9,80.3v1.9c-3.7,0.3-4.2-1.6-4.2-3.4v-3.6h-1.1v-1.7h1.1V71h2.1v2.5h1.9v1.7h-1.9v3.1
		C66.8,79,66.7,80.5,68.9,80.3z"/>
	<rect x="59.7" y="69.9" class="st8" width="2.1" height="1.9"/>
	<path class="st8" d="M35.9,73.1c-2.6,0.1-4.6,2.2-4.5,4.8c0.1,2.6,2.2,4.6,4.8,4.5c2.5-0.1,4.5-2.1,4.5-4.6
		C40.7,75.2,38.5,73.1,35.9,73.1C35.9,73.1,35.9,73.1,35.9,73.1z M35.9,80.5c-1.5,0.1-2.5-1.1-2.6-2.6c-0.1-1.5,1.1-2.8,2.6-2.9
		c1.5-0.1,2.8,1.1,2.9,2.6c0,0.1,0,0.1,0,0.2c0,1.5-1.1,2.7-2.6,2.8C36.2,80.5,35.9,80.5,35.9,80.5z"/>
	<path class="st7" d="M93.2,73.1c-2.6,0.1-4.5,2.3-4.4,4.8c0.1,2.6,2.3,4.5,4.8,4.4c2.5-0.1,4.4-2.2,4.4-4.6
		C98,75.2,95.8,73.1,93.2,73.1C93.2,73.1,93.2,73.1,93.2,73.1z M93.5,80.5c-1.5,0.1-2.8-1.1-2.9-2.6c-0.1-1.5,1.1-2.8,2.6-2.9
		c1.5-0.1,2.8,1.1,2.9,2.6c0,0.1,0,0.1,0,0.2c0,1.5-1.5,2.7-3,2.8C93.2,80.5,93.5,80.5,93.5,80.5z"/>
	<path class="st8" d="M51.3,74.5v-4.5h-2.1v12.2h2.1v-1c1.2,2.1,6.5,1.9,6.5-3.4C57.9,73,53.5,71.9,51.3,74.5z M53.5,80.6
		c-1.5-0.4-2.5-1.9-2.2-3.5c0.2-1.1,1.1-1.9,2.2-2.2c1.9,0.1,2.5,1.9,2.2,3.5C55.4,79.5,55,80.5,53.5,80.6z"/>
	<path class="st7" d="M118.9,77.8c0-5.3-5.3-5.8-6.8-3.2v-1.3h-1.9v12.3h2.1v-4.5C114,83.4,118.9,82.6,118.9,77.8z M116.7,77.8
		c0,1.4-0.6,2.7-2.3,2.7c-1.2,0-2.1-1.3-2.1-2.7c0-1.7,0.8-2.9,2.2-2.9S116.7,76.2,116.7,77.8z"/>
	<path class="st7" d="M77.8,80.8c0.4,5-4.9,2.5-4.9,2.5L72.2,85c0.3,0.4,6.8,2.5,7.7-2.8c0-1.8,0-8.8,0-8.8h-2v1
		c-1.2-2.1-6.6-1.9-6.6,3.4C71.4,81.5,75.5,83.4,77.8,80.8z M75.7,75c1.7,0,2.1,1.2,2.1,2.8c0.2,1.2-0.7,2.3-1.9,2.4
		c-0.1,0-0.2,0-0.3,0c-1.2-0.1-2.2-1.2-2.1-2.4c0,0,0,0,0,0C73.6,76.2,74,75,75.7,75z"/>
	<path class="st7" d="M99.7,73.4h2.1v5.5c0,2.5,3.9,2.2,3.9-1.5v-4h2.2v8.8h-2c0,0,0-1.2,0-1.6c-0.7,1.2-2,1.9-3.3,1.8
		c-1.5,0-2.7-1.1-2.7-2.6c0-0.1,0-0.1,0-0.2C99.7,77.9,99.7,73.4,99.7,73.4z"/>
	<path class="st8" d="M44.6,82.1h-2.1v-8.8h2.1v2c0.5-1.3,1.7-2.1,3.1-2.1v2.1c-3.1-0.2-3.1,3.2-3.1,3.2L44.6,82.1z"/>
	<circle class="st9" cx="131.8" cy="77.8" r="3.7"/>
	<path class="st7" d="M140.6,77.8c0-4.8-3.9-8.8-8.8-8.8c-1.9,0-3.7,0.6-5.2,1.7l0,0c-0.4,0.4-0.5,1-0.1,1.4s1,0.5,1.4,0.1
		c3-2.1,7.2-1.4,9.4,1.6c0.8,1.1,1.2,2.5,1.2,3.9h-1.8l1.4,2.1l1.4,2.1l1.4-2.1l1.4-2.1L140.6,77.8z"/>
	<path class="st8" d="M137.4,84.1c0-0.6-0.4-1-0.9-1.1c-0.3,0-0.5,0.1-0.7,0.3l0,0c-3,2.2-7.2,1.5-9.4-1.5c-0.8-1.2-1.3-2.5-1.3-4
		h1.8l-1.4-2.1l-1.4-2.1l-1.4,2.1l-1.4,2.1h1.8c0,4.8,3.9,8.8,8.8,8.8c1.8,0,3.6-0.6,5.1-1.6h0.1l0,0
		C137.2,84.8,137.4,84.4,137.4,84.1z"/>
</g>
<g id="contact_icons">
	<path class="st10" d="M150.4,104.1c0.4-0.4,0.3-0.6,0-0.8c-0.4-0.4-0.9-0.7-1.4-0.8c-0.1,0-0.1,0-0.2,0c-0.4,0.2-0.6,0.4-0.7,0.4
		s-0.3-0.1-0.5-0.3l0,0c-0.2-0.2-0.4-0.4-0.6-0.6l0,0l-0.1-0.1c-0.1-0.1-0.2-0.2-0.5-0.6l0,0c-0.2-0.2-0.3-0.4-0.4-0.6
		s0.1-0.4,0.3-0.7s-0.1-1-0.6-1.6l0,0c-0.1-0.1-0.3-0.2-0.4-0.2c-0.2,0-0.3,0.1-0.5,0.2l0,0c-0.2,0.1-0.3,0.3-0.4,0.5
		c-0.1,0.3-0.1,0.7,0.3,1.6c0.7,1.3,1.7,2.5,3,3.3c0.5,0.4,1.1,0.7,1.7,0.8C149.8,104.6,150.2,104.4,150.4,104.1z"/>
	<path class="st10" d="M143.3,113.2h8.3v5.5h-8.3C143.3,118.7,143.3,113.2,143.3,113.2z M147.5,116.3l3.5-2.7h-7L147.5,116.3z
		 M143.7,118.4h7.6v-4.6l-2.5,1.9l1.5,1.7l0,0l-1.8-1.4l-1,0.8l-1-0.8l-1.8,1.5l0,0l1.5-1.7l-2.5-1.9V118.4z"/>
</g>
<text transform="matrix(1 0 0 1 143.0984 44.8999)" class="st10 st11 st12">Vice President, Technology &amp; IT Operations</text>
<g>
	<path class="st3" d="M148.9,30.5c-0.1,0.1-0.1,0.2-0.2,0.2s-0.2,0.1-0.3,0.1c-0.1,0-0.2,0-0.3-0.1c-0.1-0.1-0.2-0.1-0.4-0.2
		c-0.1-0.1-0.3-0.1-0.5-0.2c-0.2-0.1-0.4-0.1-0.6-0.1c-0.4,0-0.7,0.1-0.9,0.3c-0.2,0.2-0.3,0.4-0.3,0.7c0,0.2,0.1,0.3,0.2,0.5
		s0.3,0.2,0.5,0.3c0.2,0.1,0.4,0.2,0.6,0.2c0.2,0.1,0.5,0.2,0.7,0.2c0.3,0.1,0.5,0.2,0.7,0.3c0.2,0.1,0.5,0.3,0.6,0.5
		c0.2,0.2,0.3,0.4,0.5,0.7c0.1,0.3,0.2,0.6,0.2,1c0,0.4-0.1,0.8-0.2,1.2c-0.1,0.4-0.4,0.7-0.6,1c-0.3,0.3-0.6,0.5-1,0.6
		c-0.4,0.2-0.9,0.2-1.4,0.2c-0.3,0-0.6,0-0.9-0.1c-0.3-0.1-0.6-0.1-0.8-0.2c-0.3-0.1-0.5-0.2-0.8-0.4s-0.4-0.3-0.6-0.5l0.6-1
		c0-0.1,0.1-0.1,0.2-0.2s0.2-0.1,0.3-0.1c0.1,0,0.2,0,0.4,0.1s0.3,0.2,0.4,0.3c0.2,0.1,0.3,0.2,0.6,0.3c0.2,0.1,0.5,0.1,0.7,0.1
		c0.4,0,0.7-0.1,0.9-0.3c0.2-0.2,0.3-0.4,0.3-0.8c0-0.2-0.1-0.4-0.2-0.5c-0.1-0.1-0.3-0.2-0.5-0.3c-0.2-0.1-0.4-0.2-0.6-0.2
		c-0.2-0.1-0.5-0.1-0.7-0.2c-0.3-0.1-0.5-0.2-0.7-0.3s-0.5-0.3-0.6-0.5c-0.2-0.2-0.3-0.4-0.5-0.7s-0.2-0.6-0.2-1.1
		c0-0.3,0.1-0.7,0.2-1s0.3-0.6,0.6-0.9c0.3-0.3,0.6-0.5,1-0.6s0.8-0.2,1.3-0.2c0.3,0,0.5,0,0.8,0.1c0.3,0,0.5,0.1,0.7,0.2
		s0.5,0.2,0.7,0.3s0.4,0.3,0.5,0.4L148.9,30.5z"/>
	<path class="st3" d="M154.1,37.8c-0.3,0-0.6,0-0.8-0.1c-0.2-0.1-0.4-0.2-0.6-0.4c-0.2-0.2-0.3-0.4-0.4-0.6
		c-0.1-0.2-0.1-0.5-0.1-0.8v-3.3h-0.5c-0.1,0-0.2,0-0.3-0.1c-0.1-0.1-0.1-0.2-0.1-0.3v-0.8l1-0.2l0.4-1.6c0-0.2,0.2-0.3,0.4-0.3h1
		v1.9h1.6v1.3h-1.6v3.2c0,0.1,0,0.3,0.1,0.4c0.1,0.1,0.2,0.1,0.3,0.1c0.1,0,0.1,0,0.2,0c0,0,0.1,0,0.1,0c0,0,0.1,0,0.1,0
		s0.1,0,0.1,0c0.1,0,0.1,0,0.1,0s0.1,0.1,0.1,0.1l0.6,0.9c-0.2,0.2-0.5,0.3-0.8,0.4C154.7,37.7,154.4,37.8,154.1,37.8z"/>
	<path class="st3" d="M160.8,31.1c0.4,0,0.8,0.1,1.2,0.2c0.4,0.1,0.7,0.3,0.9,0.6s0.5,0.6,0.6,0.9c0.1,0.4,0.2,0.8,0.2,1.2
		c0,0.1,0,0.3,0,0.4c0,0.1,0,0.2-0.1,0.2s-0.1,0.1-0.1,0.1c-0.1,0-0.1,0-0.2,0h-3.7c0.1,0.5,0.2,0.9,0.5,1.2c0.3,0.2,0.6,0.4,1,0.4
		c0.2,0,0.4,0,0.6-0.1c0.2-0.1,0.3-0.1,0.4-0.2c0.1-0.1,0.2-0.1,0.3-0.2c0.1-0.1,0.2-0.1,0.3-0.1c0.2,0,0.3,0.1,0.3,0.2l0.6,0.7
		c-0.2,0.2-0.4,0.4-0.6,0.6c-0.2,0.1-0.5,0.3-0.7,0.3c-0.2,0.1-0.5,0.1-0.7,0.2c-0.2,0-0.5,0-0.7,0c-0.5,0-0.9-0.1-1.3-0.2
		c-0.4-0.1-0.7-0.4-1-0.7c-0.3-0.3-0.5-0.7-0.7-1.1s-0.3-0.9-0.3-1.5c0-0.4,0.1-0.8,0.2-1.2s0.4-0.7,0.6-1c0.3-0.3,0.6-0.5,1-0.7
		C159.9,31.2,160.3,31.1,160.8,31.1z M160.8,32.5c-0.4,0-0.7,0.1-0.9,0.3s-0.3,0.5-0.4,0.9h2.4c0-0.2,0-0.3-0.1-0.4
		s-0.1-0.3-0.2-0.4c-0.1-0.1-0.2-0.2-0.4-0.3C161.2,32.5,161,32.5,160.8,32.5z"/>
	<path class="st3" d="M169.4,37.7h-1.8l-2.5-6.4h1.6c0.1,0,0.3,0,0.3,0.1c0.1,0.1,0.2,0.1,0.2,0.2l0.9,2.9c0.1,0.2,0.1,0.5,0.2,0.7
		c0.1,0.2,0.1,0.4,0.2,0.7c0-0.2,0.1-0.4,0.2-0.7c0.1-0.2,0.1-0.5,0.2-0.7l0.9-2.9c0-0.1,0.1-0.2,0.2-0.2c0.1-0.1,0.2-0.1,0.3-0.1
		h1.5L169.4,37.7z"/>
	<path class="st3" d="M176.4,31.1c0.4,0,0.8,0.1,1.2,0.2c0.4,0.1,0.7,0.3,0.9,0.6s0.5,0.6,0.6,0.9c0.1,0.4,0.2,0.8,0.2,1.2
		c0,0.1,0,0.3,0,0.4c0,0.1,0,0.2-0.1,0.2s-0.1,0.1-0.1,0.1c-0.1,0-0.1,0-0.2,0h-3.7c0.1,0.5,0.2,0.9,0.5,1.2c0.3,0.2,0.6,0.4,1,0.4
		c0.2,0,0.4,0,0.6-0.1c0.2-0.1,0.3-0.1,0.4-0.2c0.1-0.1,0.2-0.1,0.3-0.2c0.1-0.1,0.2-0.1,0.3-0.1c0.2,0,0.3,0.1,0.3,0.2l0.6,0.7
		c-0.2,0.2-0.4,0.4-0.6,0.6c-0.2,0.1-0.5,0.3-0.7,0.3c-0.2,0.1-0.5,0.1-0.7,0.2c-0.2,0-0.5,0-0.7,0c-0.5,0-0.9-0.1-1.3-0.2
		c-0.4-0.1-0.7-0.4-1-0.7c-0.3-0.3-0.5-0.7-0.7-1.1s-0.3-0.9-0.3-1.5c0-0.4,0.1-0.8,0.2-1.2s0.4-0.7,0.6-1c0.3-0.3,0.6-0.5,1-0.7
		C175.5,31.2,175.9,31.1,176.4,31.1z M176.5,32.5c-0.4,0-0.7,0.1-0.9,0.3s-0.3,0.5-0.4,0.9h2.4c0-0.2,0-0.3-0.1-0.4
		s-0.1-0.3-0.2-0.4c-0.1-0.1-0.2-0.2-0.4-0.3C176.9,32.5,176.7,32.5,176.5,32.5z"/>
	<path class="st3" d="M191.4,35.3c0,0,0.1,0,0.1,0s0.1,0.1,0.1,0.1l0.8,0.9c-0.4,0.5-0.8,0.8-1.4,1.1c-0.5,0.2-1.2,0.4-1.9,0.4
		c-0.7,0-1.3-0.1-1.8-0.4c-0.5-0.2-1-0.6-1.4-1c-0.4-0.4-0.7-0.9-0.9-1.5s-0.3-1.2-0.3-1.8c0-0.7,0.1-1.3,0.3-1.9
		c0.2-0.6,0.6-1.1,1-1.5c0.4-0.4,0.9-0.7,1.5-1s1.2-0.3,1.9-0.3c0.3,0,0.7,0,1,0.1s0.6,0.1,0.8,0.2c0.3,0.1,0.5,0.2,0.7,0.4
		s0.4,0.3,0.6,0.5l-0.7,1c0,0.1-0.1,0.1-0.2,0.2c-0.1,0-0.1,0.1-0.3,0.1c-0.1,0-0.1,0-0.2,0c-0.1,0-0.1-0.1-0.2-0.1
		c-0.1,0-0.2-0.1-0.2-0.2c-0.1-0.1-0.2-0.1-0.3-0.2s-0.3-0.1-0.4-0.1c-0.2,0-0.4,0-0.6,0c-0.4,0-0.7,0.1-1,0.2
		c-0.3,0.1-0.6,0.3-0.8,0.6c-0.2,0.3-0.4,0.6-0.5,0.9c-0.1,0.4-0.2,0.8-0.2,1.2c0,0.5,0.1,0.9,0.2,1.2c0.1,0.4,0.3,0.7,0.5,0.9
		c0.2,0.2,0.5,0.4,0.8,0.6c0.3,0.1,0.6,0.2,0.9,0.2c0.2,0,0.4,0,0.5,0c0.2,0,0.3-0.1,0.4-0.1c0.1,0,0.3-0.1,0.4-0.2
		c0.1-0.1,0.2-0.2,0.4-0.3c0,0,0.1-0.1,0.2-0.1C191.3,35.3,191.4,35.3,191.4,35.3z"/>
	<path class="st3" d="M196.7,28.4v9.3h-1.9v-9.3H196.7z"/>
	<path class="st3" d="M201.7,29.5c0,0.2,0,0.3-0.1,0.4s-0.1,0.3-0.3,0.4c-0.1,0.1-0.2,0.2-0.4,0.2c-0.1,0.1-0.3,0.1-0.5,0.1
		c-0.2,0-0.3,0-0.4-0.1s-0.3-0.1-0.4-0.2c-0.1-0.1-0.2-0.2-0.2-0.4c-0.1-0.1-0.1-0.3-0.1-0.4c0-0.2,0-0.3,0.1-0.4
		c0.1-0.1,0.1-0.3,0.2-0.4c0.1-0.1,0.2-0.2,0.4-0.2c0.1-0.1,0.3-0.1,0.4-0.1c0.2,0,0.3,0,0.5,0.1c0.1,0.1,0.3,0.1,0.4,0.2
		s0.2,0.2,0.3,0.4C201.7,29.2,201.7,29.3,201.7,29.5z M201.5,31.2v6.4h-1.9v-6.4H201.5z"/>
	<path class="st3" d="M204.3,37.7v-6.4h1.2c0.1,0,0.2,0,0.3,0.1c0.1,0.1,0.1,0.1,0.2,0.2l0.1,0.4c0.1-0.1,0.3-0.2,0.4-0.3
		c0.1-0.1,0.3-0.2,0.4-0.3s0.3-0.1,0.5-0.2c0.2,0,0.4-0.1,0.6-0.1c0.4,0,0.7,0.1,0.9,0.2c0.3,0.1,0.5,0.3,0.7,0.5s0.3,0.5,0.4,0.8
		c0.1,0.3,0.1,0.6,0.1,1v4.1h-1.9v-4.1c0-0.3-0.1-0.6-0.2-0.7s-0.4-0.3-0.6-0.3c-0.2,0-0.4,0-0.6,0.1s-0.4,0.2-0.5,0.4v4.6H204.3z"
		/>
	<path class="st3" d="M215,37.8c-0.3,0-0.6,0-0.8-0.1c-0.2-0.1-0.4-0.2-0.6-0.4c-0.2-0.2-0.3-0.4-0.4-0.6c-0.1-0.2-0.1-0.5-0.1-0.8
		v-3.3h-0.5c-0.1,0-0.2,0-0.3-0.1c-0.1-0.1-0.1-0.2-0.1-0.3v-0.8l1-0.2l0.4-1.6c0-0.2,0.2-0.3,0.4-0.3h1v1.9h1.6v1.3h-1.6v3.2
		c0,0.1,0,0.3,0.1,0.4c0.1,0.1,0.2,0.1,0.3,0.1c0.1,0,0.1,0,0.2,0c0,0,0.1,0,0.1,0c0,0,0.1,0,0.1,0s0.1,0,0.1,0c0.1,0,0.1,0,0.1,0
		s0.1,0.1,0.1,0.1l0.6,0.9c-0.2,0.2-0.5,0.3-0.8,0.4C215.7,37.7,215.4,37.8,215,37.8z"/>
	<path class="st3" d="M221.9,31.1c0.5,0,0.9,0.1,1.3,0.2s0.7,0.4,1,0.7s0.5,0.6,0.7,1c0.2,0.4,0.2,0.9,0.2,1.4c0,0.5-0.1,1-0.2,1.4
		c-0.2,0.4-0.4,0.8-0.7,1.1s-0.6,0.5-1,0.7c-0.4,0.2-0.8,0.2-1.3,0.2c-0.5,0-0.9-0.1-1.3-0.2c-0.4-0.2-0.8-0.4-1-0.7
		c-0.3-0.3-0.5-0.6-0.7-1.1c-0.2-0.4-0.2-0.9-0.2-1.4c0-0.5,0.1-1,0.2-1.4c0.2-0.4,0.4-0.8,0.7-1c0.3-0.3,0.6-0.5,1-0.7
		S221.4,31.1,221.9,31.1z M221.9,36.3c0.4,0,0.8-0.2,1-0.5s0.3-0.8,0.3-1.4c0-0.6-0.1-1.1-0.3-1.4c-0.2-0.3-0.5-0.5-1-0.5
		c-0.5,0-0.8,0.2-1,0.5c-0.2,0.3-0.3,0.8-0.3,1.4c0,0.6,0.1,1.1,0.3,1.4C221.1,36.2,221.4,36.3,221.9,36.3z"/>
	<path class="st3" d="M227.4,37.7v-6.4h1.2c0.1,0,0.2,0,0.3,0.1c0.1,0.1,0.1,0.1,0.2,0.2l0.1,0.4c0.1-0.1,0.3-0.2,0.4-0.3
		c0.1-0.1,0.3-0.2,0.4-0.3s0.3-0.1,0.5-0.2c0.2,0,0.4-0.1,0.6-0.1c0.4,0,0.7,0.1,0.9,0.2c0.3,0.1,0.5,0.3,0.7,0.5s0.3,0.5,0.4,0.8
		c0.1,0.3,0.1,0.6,0.1,1v4.1h-1.9v-4.1c0-0.3-0.1-0.6-0.2-0.7s-0.4-0.3-0.6-0.3c-0.2,0-0.4,0-0.6,0.1s-0.4,0.2-0.5,0.4v4.6H227.4z"
		/>
</g>
<text transform="matrix(1 0 0 1 157.1035 117.2883)" class="st10 st13 st14">steve.clinton@orbitgroup.ca</text>
<text transform="matrix(1 0 0 1 157.1037 131.7206)" class="st10 st13 st14">orbitgroup.ca</text>
<text transform="matrix(1 0 0 1 157.1035 102.4852)" class="st10 st13 st15">+1.289.444.3516</text>
<g>
	<path class="st0" d="M143.4,132.8h8.1v-4.2h-8.1V132.8z M148.3,129.4h2.6v2.7h-2.6L148.3,129.4z M143.9,129.6
		c0-0.1,0.1-0.1,0.1-0.1h3c0.1,0,0.1,0.1,0.1,0.1v0c0,0.1-0.1,0.1-0.1,0.1h-3C143.9,129.8,143.9,129.7,143.9,129.6L143.9,129.6z
		 M143.9,130.2c0-0.1,0.1-0.1,0.1-0.1h1.4c0.1,0,0.1,0.1,0.1,0.1v0c0,0.1-0.1,0.1-0.1,0.1H144C143.9,130.4,143.9,130.3,143.9,130.2
		L143.9,130.2z M143.9,130.8c0-0.1,0.1-0.1,0.1-0.1h1.4c0.1,0,0.1,0.1,0.1,0.1v0c0,0.1-0.1,0.1-0.1,0.1H144
		C143.9,131,143.9,130.9,143.9,130.8L143.9,130.8z M143.9,131.4c0-0.1,0.1-0.1,0.1-0.1h3c0.1,0,0.1,0.1,0.1,0.1v0
		c0,0.1-0.1,0.1-0.1,0.1h-3C143.9,131.6,143.9,131.5,143.9,131.4L143.9,131.4z M143.9,132c0-0.1,0.1-0.1,0.1-0.1h3
		c0.1,0,0.1,0.1,0.1,0.1v0c0,0.1-0.1,0.1-0.1,0.1h-3C143.9,132.2,143.9,132.1,143.9,132L143.9,132z"/>
	<rect x="148.5" y="129.6" class="st0" width="2.2" height="2.3"/>
	<path class="st0" d="M143.4,128.4h8.1v-0.9h-8.1V128.4z M145.1,127.7c0.1,0,0.2,0.1,0.2,0.2c0,0.1-0.1,0.2-0.2,0.2
		c-0.1,0-0.2-0.1-0.2-0.2C144.9,127.8,145,127.7,145.1,127.7z M144.5,127.7c0.1,0,0.2,0.1,0.2,0.2c0,0.1-0.1,0.2-0.2,0.2
		c-0.1,0-0.2-0.1-0.2-0.2C144.3,127.8,144.4,127.7,144.5,127.7z M144,127.7c0.1,0,0.2,0.1,0.2,0.2c0,0.1-0.1,0.2-0.2,0.2
		c-0.1,0-0.2-0.1-0.2-0.2C143.8,127.8,143.9,127.7,144,127.7z"/>
	<line class="st16" x1="-788.6" y1="9728" x2="-788.6" y2="-6655"/>
	<line class="st16" x1="-692.7" y1="9728" x2="-692.7" y2="-6655"/>
	<line class="st16" x1="-718.7" y1="9728" x2="-718.7" y2="-6655"/>
	<line class="st16" x1="-690.5" y1="9728" x2="-690.5" y2="-6655"/>
	<path class="st10" d="M144,130.4h1.4c0.1,0,0.1-0.1,0.1-0.1v0c0-0.1-0.1-0.1-0.1-0.1H144c-0.1,0-0.1,0.1-0.1,0.1v0
		C143.9,130.3,143.9,130.4,144,130.4z"/>
	<circle class="st10" cx="144" cy="127.9" r="0.2"/>
	<circle class="st10" cx="145.1" cy="127.9" r="0.2"/>
	<circle class="st10" cx="144.5" cy="127.9" r="0.2"/>
	<path class="st10" d="M151.7,127.3h-8.5l0,5.7h8.5L151.7,127.3z M151.5,132.8h-8.1v-4.2h8.1V132.8z M151.5,128.4h-8.1v-0.9h8.1
		V128.4z"/>
	<path class="st10" d="M144,131.6h3c0.1,0,0.1-0.1,0.1-0.1v0c0-0.1-0.1-0.1-0.1-0.1h-3c-0.1,0-0.1,0.1-0.1,0.1v0
		C143.9,131.5,143.9,131.6,144,131.6z"/>
	<path class="st10" d="M144,129.8h3c0.1,0,0.1-0.1,0.1-0.1v0c0-0.1-0.1-0.1-0.1-0.1h-3c-0.1,0-0.1,0.1-0.1,0.1v0
		C143.9,129.7,143.9,129.8,144,129.8z"/>
	<path class="st10" d="M144,132.2h3c0.1,0,0.1-0.1,0.1-0.1v0c0-0.1-0.1-0.1-0.1-0.1h-3c-0.1,0-0.1,0.1-0.1,0.1v0
		C143.9,132.1,143.9,132.2,144,132.2z"/>
	<path class="st10" d="M144,131h1.4c0.1,0,0.1-0.1,0.1-0.1v0c0-0.1-0.1-0.1-0.1-0.1H144c-0.1,0-0.1,0.1-0.1,0.1v0
		C143.9,130.9,143.9,131,144,131z"/>
	<path class="st10" d="M150.9,129.4h-2.6l0,2.7h2.6V129.4z M150.7,131.9h-2.2v-2.3h2.2V131.9z"/>
</g>
</svg>
