<?xml version="1.0" encoding="utf-8"?>
<!-- Generator: Adobe Illustrator 21.0.0, SVG Export Plug-In . SVG Version: 6.00 Build 0)  -->
<svg version="1.1" id="Layer_1" xmlns="http://www.w3.org/2000/svg" xmlns:xlink="http://www.w3.org/1999/xlink" x="0px" y="0px"
	 viewBox="0 0 1005.7 1005.7" style="enable-background:new 0 0 1005.7 1005.7;" xml:space="preserve">
<style type="text/css">
	.st0{fill:none;}
	.st1{fill:#181818;}
	.st2{fill:#FFFFFF;}
	.st3{fill:#1C1B1A;}
	.st4{fill:url(#SVGID_2_);}
	.st5{fill:#53AEDE;}
	.st6{fill:#020202;}
	.st7{fill:#F7F7F7;}
	.st8{fill:#606060;}
	.st9{fill:#333333;}
	.st10{font-family:'Lato-Light';}
	.st11{font-size:25.2142px;}
	.st12{fill:#B5D481;}
	.st13{fill:#3FBFEA;}
	.st14{fill:#727578;}
	.st15{font-size:28.3152px;}
	.st16{letter-spacing:1;}
	.st17{font-size:23.1611px;}
	.st18{font-family:'Lato-Black';}
	.st19{font-size:57.9699px;}
</style>
<pattern  x="810.1" y="1005.7" width="7.5" height="12.1" patternUnits="userSpaceOnUse" id="SVGID_1_" viewBox="3.6 -15.1 7.5 12.1" style="overflow:visible;">
	<g>
		<rect x="3.6" y="-15.1" class="st0" width="7.5" height="12.1"/>
		<g>
			<rect x="3.6" y="-15.1" class="st0" width="7.5" height="12.1"/>
			<rect x="3.6" y="-15.1" class="st0" width="7.4" height="12.1"/>
			<circle class="st1" cx="11.1" cy="-3" r="1.3"/>
			<path class="st1" d="M14.1-3c0-1.7-1.3-3-3-3c-0.7,0-1.3,0.2-1.8,0.6l0,0C9.1-5.3,9.1-5.1,9.2-4.9c0.1,0.2,0.3,0.2,0.5,0.1
				c1-0.7,2.5-0.5,3.2,0.6c0.3,0.4,0.4,0.8,0.4,1.3h-0.6l0.5,0.7l0.5,0.7l0.5-0.7l0.5-0.7L14.1-3z"/>
			<path class="st1" d="M13-0.9c0-0.2-0.1-0.4-0.3-0.4c-0.1,0-0.2,0-0.2,0.1l0,0c-1,0.7-2.5,0.5-3.2-0.5C9-2.1,8.9-2.6,8.9-3.1h0.6
				L9-3.8L8.5-4.5L8-3.8L7.5-3.1h0.6c0,1.7,1.3,3,3,3c0.7,0,1.3-0.2,1.8-0.6l0,0l0,0C12.9-0.7,13-0.8,13-0.9z"/>
			<circle class="st1" cx="3.6" cy="-3" r="1.3"/>
			<path class="st1" d="M6.6-3c0-1.7-1.3-3-3-3C3-6,2.3-5.8,1.8-5.4l0,0C1.7-5.3,1.7-5.2,1.7-5.1c0,0.2,0.2,0.4,0.3,0.4l0,0
				c0.1,0,0.2,0,0.2-0.1C2.6-5.1,3-5.2,3.5-5.2c1.3,0,2.3,1,2.3,2.3H5.3l0.5,0.7l0.5,0.7l0.5-0.7l0.5-0.7H6.6V-3z"/>
			<path class="st1" d="M5.5-0.9c0-0.2-0.1-0.4-0.3-0.4C5.1-1.3,5-1.3,5-1.2l0,0C4.6-0.9,4.1-0.8,3.7-0.8c-1.3,0-2.3-1-2.3-2.3l0,0
				H2L1.5-3.8L1-4.4L0.5-3.7L0-3h0.6c0,1.7,1.3,3,3,3c0.6,0,1.2-0.2,1.8-0.6l0,0l0,0C5.5-0.7,5.5-0.8,5.5-0.9z"/>
			<circle class="st1" cx="7.4" cy="-9.1" r="1.3"/>
			<path class="st1" d="M10.4-9.1c0-1.7-1.4-3-3-3c-0.7,0-1.3,0.2-1.8,0.6l0,0c-0.1,0.1-0.1,0.3,0,0.5c0.1,0.2,0.3,0.2,0.5,0
				c1.1-0.7,2.5-0.4,3.2,0.7c0.2,0.4,0.3,0.8,0.3,1.2H9l0.5,0.7L10-7.7l0.5-0.7L11-9.1H10.4z"/>
			<path class="st1" d="M9.3-6.9c0-0.2-0.1-0.4-0.3-0.4c-0.1,0-0.2,0-0.2,0.1l0,0c-1,0.7-2.5,0.5-3.2-0.5C5.2-8.1,5-8.6,5-9.1h0.6
				L5.1-9.8l-0.4-0.7L4.2-9.8L3.7-9.1h0.6c0,1.7,1.3,3,2.9,3.1C7.9-6,8.5-6.2,9-6.6l0,0l0,0C9.2-6.7,9.3-6.8,9.3-6.9z"/>
			<circle class="st1" cx="11.1" cy="-15.1" r="1.3"/>
			<path class="st1" d="M14.1-15.1c0-1.7-1.3-3-3-3c-0.6,0-1.3,0.2-1.8,0.6l0,0c-0.1,0-0.1,0.1-0.1,0.3c0,0.2,0.2,0.4,0.4,0.4
				c0.1,0,0.2,0,0.2-0.1c0.4-0.3,0.9-0.4,1.3-0.4c1.3,0,2.3,1,2.3,2.3h-0.6l0.5,0.7l0.5,0.7l0.5-0.7l0.4-0.8H14.1z"/>
			<path class="st1" d="M13-12.9c0-0.2-0.1-0.4-0.3-0.4c-0.1,0-0.2,0-0.2,0.1l0,0c-0.4,0.3-0.9,0.4-1.4,0.4c-1.3,0-2.3-1-2.3-2.3
				h0.6l-0.5-0.7l-0.5-0.7l-0.5,0.7l-0.4,0.7h0.6c0,1.7,1.3,3,3,3c0.6,0,1.2-0.2,1.8-0.6l0,0l0,0C12.9-12.7,13-12.8,13-12.9z"/>
			<circle class="st1" cx="3.6" cy="-15.1" r="1.3"/>
			<path class="st1" d="M6.6-15.1c0-1.7-1.3-3-3-3c-0.6,0-1.2,0.2-1.7,0.6l0,0c-0.1,0-0.2,0.1-0.2,0.3c0,0.2,0.2,0.4,0.4,0.4l0,0
				c0.1,0,0.2,0,0.2-0.1c0.4-0.3,0.8-0.4,1.3-0.4c1.3,0,2.3,1,2.3,2.3l0,0H5.3l0.5,0.7l0.5,0.7l0.5-0.7l0.4-0.8H6.6z"/>
			<path class="st1" d="M5.5-12.9c0-0.2-0.1-0.4-0.3-0.4c-0.1,0-0.2,0-0.2,0.1l0,0c-0.4,0.3-0.9,0.4-1.4,0.4c-1.3,0-2.3-1-2.3-2.3
				l0,0h0.6l-0.5-0.7L1-16.5l-0.5,0.7L0-15.1h0.6c0,1.7,1.3,3,3,3c0.6,0,1.2-0.2,1.8-0.6l0,0l0,0C5.5-12.7,5.5-12.8,5.5-12.9z"/>
		</g>
	</g>
</pattern>
<rect x="0" y="0.4" class="st2" width="1005.3" height="1005.3"/>
<rect x="0" y="0.4" class="st3" width="1005.3" height="466.1"/>
<pattern  id="SVGID_2_" xlink:href="#SVGID_1_" patternTransform="matrix(0.9987 0 0 0.9987 -13.764 16376.9395)">
</pattern>
<rect x="0" y="0.4" class="st4" width="1005.3" height="466.1"/>
<path class="st5" d="M192.2,740.5c-17,0-30.8-13.9-30.8-30.8c0-17,13.9-30.8,30.8-30.8s30.8,13.9,30.8,30.8
	C223.1,726.6,209.2,740.5,192.2,740.5z"/>
<path class="st2" d="M207.1,723.5c2.1-2.1,1.5-3.1,0-4.6c-2.1-2.1-4.6-3.6-7.2-4.1c-0.5,0-0.5,0-1,0c-2.1,1-3.1,2.1-3.6,2.1
	c-0.5,0-1.5-0.5-2.6-1.5l0,0c-1-1-2.1-2.1-3.1-3.1l0,0l-0.5-0.5c-0.5-0.5-1-1-2.6-3.1l0,0c-1-1-1.5-2.1-2.1-3.1s0.5-2.1,1.5-3.6
	c1-1.5-0.5-5.1-3.1-8.2l0,0c-0.5-0.5-1.5-1-2.1-1c-1,0-1.5,0.5-2.6,1l0,0c-1,0.5-1.5,1.5-2.1,2.6c-0.5,1.5-0.5,3.6,1.5,8.2
	c3.6,6.7,8.7,12.8,15.4,17c2.6,2.1,5.7,3.6,8.7,4.1C204,726.6,206.1,725.6,207.1,723.5z"/>
<path class="st5" d="M171.1,895.7h41.6v-21.6h-41.6C171.1,874.1,171.1,895.7,171.1,895.7z M196.3,878.2h13.4v13.9h-13.4V878.2z
	 M173.7,879.3c0-0.5,0.5-0.5,0.5-0.5h15.4c0.5,0,0.5,0.5,0.5,0.5l0,0c0,0.5-0.5,0.5-0.5,0.5h-15.4
	C174.2,879.8,173.7,879.3,173.7,879.3L173.7,879.3z M173.7,882.3c0-0.5,0.5-0.5,0.5-0.5h7.2c0.5,0,0.5,0.5,0.5,0.5l0,0
	c0,0.5-0.5,0.5-0.5,0.5h-6.7C174.2,882.9,173.7,882.3,173.7,882.3L173.7,882.3z M173.7,885.4c0-0.5,0.5-0.5,0.5-0.5h7.2
	c0.5,0,0.5,0.5,0.5,0.5l0,0c0,0.5-0.5,0.5-0.5,0.5h-6.7C174.2,885.9,173.7,885.4,173.7,885.4L173.7,885.4z M173.7,888.5
	c0-0.5,0.5-0.5,0.5-0.5h15.4c0.5,0,0.5,0.5,0.5,0.5l0,0c0,0.5-0.5,0.5-0.5,0.5h-15.4C174.2,889,173.7,888.5,173.7,888.5L173.7,888.5
	z M173.7,891.6c0-0.5,0.5-0.5,0.5-0.5h15.4c0.5,0,0.5,0.5,0.5,0.5l0,0c0,0.5-0.5,0.5-0.5,0.5h-15.4
	C174.2,892.1,173.7,891.6,173.7,891.6L173.7,891.6z"/>
<path class="st5" d="M192.2,851c-17,0-30.8,13.9-30.8,30.8c0,17,13.9,30.8,30.8,30.8s30.8-13.9,30.8-30.8
	C223.1,864.9,209.2,851,192.2,851z M170.1,896.7v-29.3h43.7v29.3H170.1z"/>
<rect x="197.4" y="879.3" class="st5" width="11.3" height="11.8"/>
<path class="st5" d="M171.1,873.1h41.6v-4.6h-41.6C171.1,868.5,171.1,873.1,171.1,873.1z M179.9,869.5c0.5,0,1,0.5,1,1
	c0,0.5-0.5,1-1,1c-0.5,0-1-0.5-1-1C178.9,870,179.4,869.5,179.9,869.5z M177.3,869.5c0.5,0,1,0.5,1,1c0,0.5-0.5,1-1,1
	c-0.5,0-1-0.5-1-1C176.3,870,176.8,869.5,177.3,869.5z M174.2,869.5c0.5,0,1,0.5,1,1c0,0.5-0.5,1-1,1s-1-0.5-1-1
	C173.2,870,173.7,869.5,174.2,869.5z"/>
<line class="st0" x1="-18.6" y1="10579.4" x2="-18.6" y2="-5803.6"/>
<line class="st0" x1="-88.5" y1="10579.4" x2="-88.5" y2="-5803.6"/>
<line class="st0" x1="9.5" y1="10579.4" x2="9.5" y2="-5803.6"/>
<line class="st0" x1="7.4" y1="10579.4" x2="7.4" y2="-5803.6"/>
<path class="st2" d="M174.7,885.9h7.2c0.5,0,0.5-0.5,0.5-0.5l0,0c0-0.5-0.5-0.5-0.5-0.5h-7.2c-0.5,0-0.5,0.5-0.5,0.5l0,0
	C173.7,885.4,174.2,885.9,174.7,885.9z"/>
<path class="st2" d="M209.7,878.2h-13.4v13.9h13.4V878.2z M208.7,891.1h-11.3v-11.8h11.3V891.1z"/>
<circle class="st2" cx="177.3" cy="870.5" r="1"/>
<circle class="st2" cx="174.2" cy="870.5" r="1"/>
<path class="st2" d="M170.1,867.4v29.3h43.7v-29.3H170.1z M212.8,895.7h-41.6v-21.6h41.6V895.7z M212.8,873.1h-41.6v-4.6h41.6V873.1
	z"/>
<circle class="st2" cx="179.9" cy="870.5" r="1"/>
<path class="st2" d="M174.7,892.1h15.4c0.5,0,0.5-0.5,0.5-0.5l0,0c0-0.5-0.5-0.5-0.5-0.5h-15.4c-0.5,0-0.5,0.5-0.5,0.5l0,0
	C173.7,891.6,174.2,892.1,174.7,892.1z"/>
<path class="st2" d="M174.7,882.9h7.2c0.5,0,0.5-0.5,0.5-0.5l0,0c0-0.5-0.5-0.5-0.5-0.5h-7.2c-0.5,0-0.5,0.5-0.5,0.5l0,0
	C173.7,882.3,174.2,882.9,174.7,882.9z"/>
<path class="st2" d="M174.7,879.8h15.4c0.5,0,0.5-0.5,0.5-0.5l0,0c0-0.5-0.5-0.5-0.5-0.5h-15.4c-0.5,0-0.5,0.5-0.5,0.5l0,0
	C173.7,879.3,174.2,879.8,174.7,879.8z"/>
<path class="st2" d="M174.7,889h15.4c0.5,0,0.5-0.5,0.5-0.5l0,0c0-0.5-0.5-0.5-0.5-0.5h-15.4c-0.5,0-0.5,0.5-0.5,0.5l0,0
	C173.7,888.5,174.2,889,174.7,889z"/>
<polygon class="st5" points="210.7,784.2 174.7,784.2 192.7,798.1 "/>
<path class="st5" d="M192.7,765.2c-17,0-30.8,13.9-30.8,30.8c0,17,13.9,30.8,30.8,30.8s30.8-13.9,30.8-30.8
	C223.6,779,209.7,765.2,192.7,765.2z M213.8,810.4h-42.7v-28.3h42.7V810.4z"/>
<polygon class="st5" points="212.3,785.2 199.4,795 207.1,803.7 197.9,796.5 192.7,800.6 187.6,796.5 178.3,804.2 186,795.5 
	173.2,785.7 173.2,808.8 212.3,808.8 "/>
<path class="st2" d="M171.1,810.4h42.7v-28.3h-42.7V810.4z M210.7,784.2l-18,13.9l-18-13.9H210.7z M173.2,785.7l12.8,9.8l-7.7,8.7
	l9.3-7.7l5.1,4.1l5.1-4.1l9.3,7.2l-7.7-8.7l12.8-9.8v23.6h-39.1V785.7z"/>
<path class="st6" d="M1005.3,329.9v136.7H842.4C856.7,387.9,925.1,330.9,1005.3,329.9z"/>
<path class="st6" d="M1005.3,102.7c-82.7,0-163.4,26.7-230.2,75c-0.5,0.5-1,0.5-1.5,1c-19.5,16.4-22.6,45.7-6.2,65.3
	c16.4,19.5,45.7,22.6,65.3,6.2l0,0c50.4-36,111-55,173.2-55.5L1005.3,102.7z"/>
<polygon class="st6" points="762.7,466.6 721.1,404.4 658.4,311.4 595.7,404.4 554,466.6 "/>
<path class="st7" d="M704.6,497.4L704.6,497.4l79.1-0.5l-20.6-30.3H554l-20.6,30.3h78.6v0.5c0,217.4,175.8,394.2,393.7,395.2v-92.5
	C838.8,799.1,704.6,663.9,704.6,497.4z"/>
<path class="st7" d="M842.4,466.6c-17,91,43.2,178.3,134.1,195.3c9.8,1.5,19,2.6,28.8,2.6V466.6H842.4z"/>
<polygon class="st8" points="1005.3,466.6 1005.3,664.9 1005.3,799.6 1005.3,892.6 "/>
<text transform="matrix(1 0 0 1 155.5739 626.5024)" class="st9 st10 st11">Vice President, Technology &amp; IT Operations</text>
<path class="st12" d="M491.8,246.1H478v-55.5h13.4v12.8c0,0,5.7-14.4,19.5-13.4v13.4c-19.5-1-19.5,20.6-19.5,20.6L491.8,246.1z"/>
<rect x="334.1" y="190.6" class="st13" width="13.4" height="56"/>
<path class="st13" d="M392.7,234.8v11.8c-23.6,1.5-26.7-10.3-26.7-21.6v-22.6h-7.2v-10.8h7.2v-16.4h13.4v15.9h12.3v10.8h-12.3v19.5
	C379.3,226.6,378.8,235.8,392.7,234.8z"/>
<rect x="334.1" y="168.5" class="st13" width="13.4" height="11.8"/>
<path class="st13" d="M280.6,197.3v-28.8h-13.4v77.6h13.4v-6.2c7.7,13.4,41.6,12.3,41.6-21.6C322.2,188.5,294.5,181.3,280.6,197.3z
	 M294.5,236.3c-7.7,0-14.4-8.2-14.4-18c0-9.8,6.2-18,14.4-18c8.2,0,14.4,8.2,14.4,18C308.9,228.1,302.2,236.3,294.5,236.3z"/>
<path class="st12" d="M710.8,218.8c0-33.9-33.9-37-43.2-20v-8.2h-11.8v78.1h13.4v-28.8C679.4,254.3,710.8,249.2,710.8,218.8z
	 M696.4,218.8c0,8.7-4.1,17.5-14.9,17.5c-7.7,0-13.4-8.2-13.4-17.5c0-10.8,5.1-18,14.4-18S696.4,208.6,696.4,218.8z"/>
<path class="st12" d="M448.7,237.9c2.6,31.9-30.8,15.9-30.8,15.9l-4.1,10.8c1.5,2.6,43.2,15.9,48.8-18c0-11.8,0-56,0-56h-12.8v6.2
	c-8.2-13.4-41.6-12.3-41.6,21.6C408.1,242,434.3,254.3,448.7,237.9z M435.8,200.9c10.8,0,13.9,7.7,13.9,17.5
	c0,9.8-5.7,15.4-13.9,15.4c-7.7-0.5-13.9-7.2-13.4-15.4l0,0C422.5,208.6,425,200.9,435.8,200.9z"/>
<path class="st12" d="M588.5,190.6h12.8v34.9c0,15.9,24.7,13.9,24.7-9.3v-25.7h13.9v55.5H627c0,0,0-7.7,0-10.3
	c-4.1,7.7-12.3,12.3-21.1,11.3c-9.3,0.5-17-7.2-17.5-16.4c0-0.5,0-1,0-1.5C588.5,219.4,588.5,190.6,588.5,190.6z"/>
<path class="st13" d="M238,246.1h-13.4v-55.5H238v12.8c0,0,5.7-14.4,19.5-13.4v13.4C238,202.4,238,224,238,224V246.1z"/>
<circle class="st14" cx="792.5" cy="218.8" r="23.6"/>
<path class="st12" d="M848.5,218.8c0-30.8-25.2-56-56-56c-11.8,0-23.1,3.6-32.9,10.8l0,0c-3.1,2.1-3.1,6.7-1,9.3
	c2.1,2.6,6.7,3.1,9.3,1c19.5-13.9,46.3-9.3,59.6,10.3c5.1,7.2,7.7,15.9,7.7,24.7h-11.3l8.7,12.8l8.7,13.4l8.7-13.4l8.7-13.4
	L848.5,218.8z"/>
<path class="st13" d="M828.5,258.9c0-3.6-3.1-6.7-6.7-6.7c-1.5,0-3.1,0.5-4.1,1.5l0,0c-19,13.9-45.7,9.3-59.6-9.8
	c-5.1-7.2-8.2-15.9-8.2-24.7h11.3l-8.7-13.4l-8.7-13.4l-8.7,13.4l-8.7,13.4h11.3c0,30.8,25.2,56,56,56c11.8,0,23.1-3.6,32.4-10.3
	h0.5l0,0C827.5,262.5,828.5,261,828.5,258.9z"/>
<path class="st13" d="M182.5,189c-16.4,0.5-28.8,14.4-28.3,30.3c0.5,16.4,14.4,28.8,30.3,28.3s28.3-13.4,28.3-29.3
	C212.8,201.9,199.4,188.5,182.5,189z M184,236.8c-9.8,0-17.5-8.2-17.5-18c0-9.8,7.7-18,17.5-18c9.8,0,17.5,8.2,17.5,18
	C201.5,228.6,193.8,236.8,184,236.8z"/>
<path class="st12" d="M546.8,188.5c-16.4,0.5-28.8,14.4-28.3,30.3c0.5,16.4,14.4,28.8,30.3,28.3c15.9-0.5,28.3-13.4,28.3-29.3
	C577.2,201.4,563.8,188.5,546.8,188.5z M548.4,236.8c-9.8,0-17.5-8.2-17.5-18c0-9.8,7.7-18,17.5-18s17.5,8.2,17.5,18
	C565.9,228.6,558.1,236.8,548.4,236.8z"/>
<text transform="matrix(1 0 0 1 242.5251 800.1938)" class="st9 st10 st15 st16">steve.clinton@orbitgroup.ca</text>
<text transform="matrix(1 0 0 1 242.7843 888.1006)" class="st9 st10 st15 st16">orbitgroup.ca</text>
<text transform="matrix(1 0 0 1 242.9176 716.459)" class="st9 st10 st17 st16">+1.289.444.3516</text>
<text transform="matrix(1 0 0 1 153.9162 594.5757)" class="st9 st18 st19">Steve Clinton</text>
</svg>
