<?xml version="1.0" encoding="utf-8"?>
<!-- Generator: Adobe Illustrator 21.0.0, SVG Export Plug-In . SVG Version: 6.00 Build 0)  -->
<svg version="1.1" id="Layer_1" xmlns="http://www.w3.org/2000/svg" xmlns:xlink="http://www.w3.org/1999/xlink" x="0px" y="0px"
	 viewBox="0 0 263.5 155.5" style="enable-background:new 0 0 263.5 155.5;" xml:space="preserve">
<style type="text/css">
	.st0{fill:none;}
	.st1{fill:#181818;}
	.st2{fill:#FFFFFF;}
	.st3{fill:#F7F7F7;}
	.st4{fill:#020202;}
	.st5{opacity:0.57;fill:url(#SVGID_1_);enable-background:new    ;}
	.st6{fill:#B5D481;}
	.st7{enable-background:new    ;}
	.st8{fill:#53AEDE;}
	.st9{fill:#333333;}
</style>
<pattern  y="155.5" width="7.5" height="12.1" patternUnits="userSpaceOnUse" id="SVGID_2_" viewBox="3.6 -15.1 7.5 12.1" style="overflow:visible;">
	<g>
		<rect x="3.6" y="-15.1" class="st0" width="7.5" height="12.1"/>
		<g>
			<rect x="3.6" y="-15.1" class="st0" width="7.5" height="12.1"/>
			<g>
				<rect x="3.6" y="-15.1" class="st0" width="7.5" height="12.1"/>
				<rect x="3.6" y="-15.1" class="st0" width="7.4" height="12.1"/>
				<circle class="st1" cx="11.1" cy="-15.1" r="1.3"/>
				<path class="st1" d="M14.1-15.1c0,1.7-1.3,3-3,3c-0.7,0-1.3-0.2-1.8-0.6l0,0c-0.2-0.1-0.2-0.3-0.1-0.5c0.1-0.2,0.3-0.2,0.5-0.1
					c1,0.7,2.5,0.5,3.2-0.6c0.3-0.4,0.4-0.8,0.4-1.3h-0.6l0.5-0.7l0.5-0.7l0.5,0.7l0.5,0.7L14.1-15.1z"/>
				<path class="st1" d="M13-17.2c0,0.2-0.1,0.4-0.3,0.4c-0.1,0-0.2,0-0.2-0.1l0,0c-1-0.7-2.5-0.5-3.2,0.5C9-16,8.9-15.5,8.9-15h0.6
					L9-14.3l-0.5,0.7L8-14.3L7.5-15h0.6c0-1.7,1.3-3,3-3c0.7,0,1.3,0.2,1.8,0.6l0,0l0,0C12.9-17.4,13-17.3,13-17.2z"/>
				<circle class="st1" cx="3.6" cy="-15.1" r="1.3"/>
				<path class="st1" d="M6.6-15.1c0,1.7-1.3,3-3,3c-0.6,0-1.3-0.2-1.8-0.6l0,0c-0.1-0.1-0.1-0.2-0.1-0.3c0-0.2,0.2-0.4,0.3-0.4l0,0
					c0.1,0,0.2,0,0.2,0.1C2.6-13,3-12.9,3.5-12.9c1.3,0,2.3-1,2.3-2.3H5.3l0.5-0.7l0.5-0.7l0.5,0.7l0.5,0.7H6.6V-15.1z"/>
				<path class="st1" d="M5.5-17.2c0,0.2-0.1,0.4-0.3,0.4c-0.1,0-0.2,0-0.2-0.1l0,0c-0.4-0.3-0.9-0.4-1.3-0.4c-1.3,0-2.3,1-2.3,2.3
					l0,0H2l-0.5,0.7L1-13.7l-0.5-0.7L0-15.1h0.6c0-1.7,1.3-3,3-3c0.6,0,1.2,0.2,1.8,0.6l0,0l0,0C5.5-17.4,5.5-17.3,5.5-17.2z"/>
				<circle class="st1" cx="7.4" cy="-9" r="1.3"/>
				<path class="st1" d="M10.4-9c0,1.7-1.4,3-3,3C6.7-6,6.1-6.2,5.6-6.6l0,0c-0.1-0.1-0.1-0.3,0-0.5s0.3-0.2,0.5,0
					c1.1,0.7,2.5,0.4,3.2-0.7C9.5-8.2,9.6-8.6,9.6-9H9l0.5-0.7l0.5-0.7l0.5,0.7L11-9H10.4z"/>
				<path class="st1" d="M9.3-11.2c0,0.2-0.1,0.4-0.3,0.4c-0.1,0-0.2,0-0.2-0.1l0,0c-1-0.7-2.5-0.5-3.2,0.5C5.2-10,5-9.5,5-9h0.6
					L5.1-8.3L4.7-7.6L4.2-8.3L3.7-9h0.6c0-1.7,1.3-3,2.9-3.1c0.7,0,1.3,0.2,1.8,0.6l0,0l0,0C9.2-11.4,9.3-11.3,9.3-11.2z"/>
				<circle class="st1" cx="11.1" cy="-3" r="1.3"/>
				<path class="st1" d="M14.1-3c0,1.7-1.3,3-3,3c-0.6,0-1.3-0.2-1.8-0.6l0,0c-0.1,0-0.1-0.1-0.1-0.3c0-0.2,0.2-0.4,0.4-0.4
					c0.1,0,0.2,0,0.2,0.1c0.4,0.3,0.9,0.4,1.3,0.4c1.3,0,2.3-1,2.3-2.3h-0.6l0.5-0.7l0.5-0.7l0.5,0.7L14.7-3C14.7-3,14.1-3,14.1-3z"
					/>
				<path class="st1" d="M13-5.2c0,0.2-0.1,0.4-0.3,0.4c-0.1,0-0.2,0-0.2-0.1l0,0c-0.4-0.3-0.9-0.4-1.4-0.4c-1.3,0-2.3,1-2.3,2.3
					h0.6L8.9-2.3L8.4-1.6L7.9-2.3L7.5-3h0.6c0-1.7,1.3-3,3-3c0.6,0,1.2,0.2,1.8,0.6l0,0l0,0C12.9-5.4,13-5.3,13-5.2z"/>
				<circle class="st1" cx="3.6" cy="-3" r="1.3"/>
				<path class="st1" d="M6.6-3c0,1.7-1.3,3-3,3C3,0,2.4-0.2,1.9-0.6l0,0c-0.1,0-0.2-0.1-0.2-0.3c0-0.2,0.2-0.4,0.4-0.4l0,0
					c0.1,0,0.2,0,0.2,0.1c0.4,0.3,0.8,0.4,1.3,0.4c1.3,0,2.3-1,2.3-2.3l0,0H5.3l0.5-0.7l0.5-0.7l0.5,0.7L7.2-3C7.2-3,6.6-3,6.6-3z"
					/>
				<path class="st1" d="M5.5-5.2c0,0.2-0.1,0.4-0.3,0.4C5.1-4.8,5-4.8,5-4.9l0,0C4.6-5.2,4.1-5.3,3.6-5.3c-1.3,0-2.3,1-2.3,2.3l0,0
					h0.6L1.4-2.3L1-1.6L0.5-2.3L0-3h0.6c0-1.7,1.3-3,3-3c0.6,0,1.2,0.2,1.8,0.6l0,0l0,0C5.5-5.4,5.5-5.3,5.5-5.2z"/>
			</g>
		</g>
	</g>
</pattern>
<rect y="0" class="st2" width="263.5" height="155.5"/>
<path class="st3" d="M263.5,111.3c-18,0-32.6-14.6-32.6-32.6s14.6-32.6,32.6-32.6V111.3z"/>
<path class="st3" d="M263.5,137.5c-32.5,0-58.8-26.3-58.8-58.8l0,0c0,0,0,0,0-0.1h15.4l-12.2-18.1l-12.2-18.1l-12.2,18.1l-12.2,18.1
	h15.3v0.1c0,42.4,34.4,76.8,76.8,76.8h0.1L263.5,137.5L263.5,137.5z"/>
<rect y="0" class="st4" width="263.5" height="71.7"/>
<pattern  id="SVGID_1_" xlink:href="#SVGID_2_" patternTransform="matrix(0.9987 0 0 -0.9987 -32.9419 -32946.2344)">
</pattern>
<rect y="0" class="st5" width="263.5" height="71.7"/>
<path class="st4" d="M263.5,45.1v26.6h-31.7C234.7,56.4,248,45.2,263.5,45.1z"/>
<polygon class="st4" points="216.4,71.7 208.2,59.5 196,41.5 183.9,59.5 175.7,71.7 "/>
<rect x="89" y="88.4" class="st6" width="0.2" height="43.9"/>
<rect x="174.3" y="88.4" class="st6" width="0.2" height="43.9"/>
<g class="st7">
	<path class="st2" d="M76.9,35.1c0,1.1-0.4,2-1.2,2.7c-0.8,0.7-2,1-3.4,1c-1.3,0-2.5-0.3-3.6-0.8v-2.5c0.9,0.4,1.6,0.6,2.2,0.8
		s1.1,0.2,1.6,0.2c0.6,0,1-0.1,1.4-0.3c0.3-0.2,0.5-0.6,0.5-1c0-0.2-0.1-0.5-0.2-0.7s-0.3-0.4-0.6-0.6c-0.3-0.2-0.8-0.5-1.6-0.9
		c-0.8-0.4-1.3-0.7-1.7-1c-0.4-0.3-0.7-0.7-0.9-1.2c-0.2-0.4-0.3-1-0.3-1.6c0-1.1,0.4-2,1.1-2.6c0.8-0.6,1.8-1,3.1-1
		c0.7,0,1.3,0.1,1.9,0.2c0.6,0.2,1.2,0.4,1.9,0.7L76,28.8c-0.7-0.3-1.2-0.5-1.7-0.6C73.9,28.1,73.5,28,73,28s-0.9,0.1-1.2,0.4
		c-0.3,0.2-0.4,0.5-0.4,0.9c0,0.2,0.1,0.4,0.2,0.6s0.3,0.3,0.5,0.5s0.8,0.5,1.7,0.9c1.2,0.6,2,1.1,2.4,1.7
		C76.7,33.6,76.9,34.3,76.9,35.1z"/>
	<path class="st2" d="M84.1,36.7c0.5,0,1-0.1,1.7-0.3v2c-0.7,0.3-1.5,0.4-2.4,0.4c-1.1,0-1.8-0.3-2.3-0.8s-0.7-1.3-0.7-2.4v-4.7H79
		v-1.1l1.4-0.9l0.8-2h1.7V29h2.7v2h-2.7v4.7c0,0.4,0.1,0.7,0.3,0.8C83.4,36.6,83.7,36.7,84.1,36.7z"/>
	<path class="st2" d="M93,38.8c-1.6,0-2.8-0.4-3.6-1.3c-0.9-0.9-1.3-2.1-1.3-3.6c0-1.6,0.4-2.9,1.2-3.7c0.8-0.9,1.9-1.3,3.4-1.3
		c1.4,0,2.4,0.4,3.2,1.2c0.8,0.8,1.1,1.8,1.1,3.2v1.3h-6.2c0,0.7,0.3,1.3,0.7,1.8c0.4,0.4,1,0.6,1.7,0.6c0.6,0,1.1-0.1,1.6-0.2
		s1.1-0.3,1.6-0.6v2c-0.5,0.2-1,0.4-1.5,0.5C94.4,38.7,93.8,38.8,93,38.8z M92.7,30.7c-0.6,0-1,0.2-1.3,0.5
		c-0.3,0.4-0.5,0.9-0.5,1.5h3.7c0-0.6-0.2-1.2-0.5-1.5C93.7,30.8,93.2,30.7,92.7,30.7z"/>
	<path class="st2" d="M102,38.6L98.4,29h2.8l1.9,5.5c0.2,0.7,0.3,1.4,0.4,2h0.1c0-0.6,0.2-1.2,0.4-2l1.9-5.5h2.8l-3.7,9.6H102z"/>
	<path class="st2" d="M115.1,38.8c-1.6,0-2.8-0.4-3.6-1.3c-0.9-0.9-1.3-2.1-1.3-3.6c0-1.6,0.4-2.9,1.2-3.7c0.8-0.9,1.9-1.3,3.4-1.3
		c1.4,0,2.4,0.4,3.2,1.2c0.8,0.8,1.1,1.8,1.1,3.2v1.3h-6.2c0,0.7,0.3,1.3,0.7,1.8c0.4,0.4,1,0.6,1.7,0.6c0.6,0,1.1-0.1,1.6-0.2
		s1.1-0.3,1.6-0.6v2c-0.5,0.2-1,0.4-1.5,0.5C116.5,38.7,115.9,38.8,115.1,38.8z M114.8,30.7c-0.6,0-1,0.2-1.3,0.5
		c-0.3,0.4-0.5,0.9-0.5,1.5h3.7c0-0.6-0.2-1.2-0.5-1.5C115.8,30.8,115.3,30.7,114.8,30.7z"/>
	<path class="st2" d="M133.3,28c-1,0-1.8,0.4-2.3,1.1c-0.6,0.8-0.8,1.8-0.8,3.2c0,2.8,1.1,4.2,3.2,4.2c0.9,0,2-0.2,3.2-0.7V38
		c-1,0.4-2.2,0.6-3.5,0.6c-1.8,0-3.2-0.6-4.2-1.7c-1-1.1-1.5-2.7-1.5-4.8c0-1.3,0.2-2.5,0.7-3.4c0.5-1,1.2-1.7,2.1-2.3
		c0.9-0.5,1.9-0.8,3.1-0.8c1.2,0,2.5,0.3,3.7,0.9l-0.9,2.2c-0.5-0.2-0.9-0.4-1.4-0.6C134.3,28.1,133.8,28,133.3,28z"/>
	<path class="st2" d="M142.7,38.6H140V25.2h2.6L142.7,38.6L142.7,38.6z"/>
	<path class="st2" d="M146.3,26.5c0-0.9,0.5-1.3,1.4-1.3c1,0,1.4,0.4,1.4,1.3c0,0.4-0.1,0.7-0.4,1c-0.2,0.2-0.6,0.3-1.1,0.3
		C146.8,27.8,146.3,27.3,146.3,26.5z M149,38.6h-2.6V29h2.6V38.6z"/>
	<path class="st2" d="M161.7,38.6h-2.6V33c0-0.7-0.1-1.2-0.4-1.6c-0.2-0.3-0.6-0.5-1.2-0.5c-0.7,0-1.3,0.2-1.6,0.7
		c-0.3,0.5-0.5,1.3-0.5,2.4v4.5h-2.6V29h2l0.4,1.2h0.1c0.3-0.5,0.7-0.8,1.2-1.1c0.5-0.2,1.1-0.4,1.8-0.4c1.1,0,2,0.3,2.6,0.9
		s0.9,1.5,0.9,2.6L161.7,38.6L161.7,38.6z"/>
	<path class="st2" d="M169.5,36.7c0.5,0,1-0.1,1.7-0.3v2c-0.7,0.3-1.5,0.4-2.4,0.4c-1.1,0-1.8-0.3-2.3-0.8s-0.7-1.3-0.7-2.4v-4.7
		h-1.3v-1.1l1.4-0.9l0.8-2h1.7V29h2.7v2h-2.7v4.7c0,0.4,0.1,0.7,0.3,0.8C168.8,36.6,169.1,36.7,169.5,36.7z"/>
	<path class="st2" d="M182.8,33.8c0,1.6-0.4,2.8-1.2,3.7s-2,1.3-3.5,1.3c-0.9,0-1.7-0.2-2.5-0.6c-0.7-0.4-1.3-1-1.6-1.7
		c-0.4-0.8-0.6-1.6-0.6-2.7c0-1.6,0.4-2.8,1.2-3.7c0.8-0.9,2-1.3,3.5-1.3c0.9,0,1.7,0.2,2.5,0.6c0.7,0.4,1.3,1,1.6,1.7
		C182.6,31.9,182.8,32.8,182.8,33.8z M176.2,33.8c0,1,0.2,1.7,0.5,2.2s0.8,0.7,1.5,0.7s1.2-0.2,1.5-0.7s0.5-1.2,0.5-2.2
		s-0.2-1.7-0.5-2.1c-0.3-0.5-0.8-0.7-1.5-0.7s-1.2,0.2-1.5,0.7C176.3,32.1,176.2,32.8,176.2,33.8z"/>
	<path class="st2" d="M194.9,38.6h-2.6V33c0-0.7-0.1-1.2-0.4-1.6c-0.2-0.3-0.6-0.5-1.2-0.5c-0.7,0-1.3,0.2-1.6,0.7
		c-0.3,0.5-0.5,1.3-0.5,2.4v4.5H186V29h2l0.4,1.2h0.1c0.3-0.5,0.7-0.8,1.2-1.1c0.5-0.2,1.1-0.4,1.8-0.4c1.1,0,2,0.3,2.6,0.9
		s0.9,1.5,0.9,2.6v6.4H194.9z"/>
</g>
<path class="st8" d="M46.4,110c-3.3,0-6-2.7-6-6s2.7-6,6-6s6,2.7,6,6S49.7,110,46.4,110z"/>
<path class="st2" d="M49.4,106.6c0.4-0.4,0.3-0.6,0-0.8c-0.4-0.4-0.8-0.7-1.4-0.8c-0.1,0-0.1,0-0.2,0c-0.4,0.2-0.6,0.4-0.7,0.4
	c-0.1,0-0.3-0.1-0.5-0.3l0,0c-0.2-0.2-0.4-0.4-0.6-0.6l0,0l-0.1-0.1c-0.1-0.1-0.2-0.2-0.5-0.6l0,0c-0.2-0.2-0.3-0.4-0.4-0.6
	c-0.1-0.2,0.1-0.4,0.3-0.7c0.2-0.3-0.1-1-0.6-1.6l0,0c-0.1-0.1-0.3-0.2-0.4-0.2c-0.2,0-0.3,0.1-0.5,0.2l0,0
	c-0.2,0.1-0.3,0.3-0.4,0.5c-0.1,0.3-0.1,0.7,0.3,1.6c0.7,1.3,1.7,2.5,3,3.3c0.5,0.4,1.1,0.7,1.7,0.8
	C48.8,107.1,49.2,106.9,49.4,106.6z"/>
<path class="st8" d="M131.8,110c-3.3,0-6-2.7-6-6s2.7-6,6-6s6,2.7,6,6S135.1,110,131.8,110z"/>
<path class="st2" d="M127.6,101.3h8.3v5.5h-8.3C127.6,106.8,127.6,101.3,127.6,101.3z M131.8,104.4l3.5-2.7h-7L131.8,104.4z
	 M128,106.5h7.6v-4.6l-2.5,1.9l1.5,1.7l0,0l-1.8-1.4l-1,0.8l-1-0.8l-1.8,1.5l0,0l1.5-1.7L128,102V106.5z"/>
<g>
	<rect x="219.9" y="103.4" class="st8" width="2.2" height="2.3"/>
	<path class="st8" d="M218.9,98c-3.3,0-6,2.7-6,6s2.7,6,6,6s6-2.7,6-6S222.2,98,218.9,98z M214.6,106.8v-5.7h8.5v5.7H214.6z"/>
	<path class="st8" d="M214.8,106.6h8.1v-4.2h-8.1V106.6z M219.7,103.2h2.6v2.7h-2.6V103.2z M215.3,103.4c0-0.1,0.1-0.1,0.1-0.1h3
		c0.1,0,0.1,0.1,0.1,0.1l0,0c0,0.1-0.1,0.1-0.1,0.1h-3C215.4,103.5,215.3,103.5,215.3,103.4L215.3,103.4z M215.3,104
		c0-0.1,0.1-0.1,0.1-0.1h1.4c0.1,0,0.1,0.1,0.1,0.1l0,0c0,0.1-0.1,0.1-0.1,0.1h-1.4C215.4,104.1,215.3,104.1,215.3,104L215.3,104z
		 M215.3,104.6c0-0.1,0.1-0.1,0.1-0.1h1.4c0.1,0,0.1,0.1,0.1,0.1l0,0c0,0.1-0.1,0.1-0.1,0.1h-1.4
		C215.4,104.7,215.3,104.7,215.3,104.6L215.3,104.6z M215.3,105.2c0-0.1,0.1-0.1,0.1-0.1h3c0.1,0,0.1,0.1,0.1,0.1l0,0
		c0,0.1-0.1,0.1-0.1,0.1h-3C215.4,105.3,215.3,105.3,215.3,105.2L215.3,105.2z M215.3,105.8c0-0.1,0.1-0.1,0.1-0.1h3
		c0.1,0,0.1,0.1,0.1,0.1l0,0c0,0.1-0.1,0.1-0.1,0.1h-3C215.4,105.9,215.3,105.9,215.3,105.8L215.3,105.8z"/>
	<path class="st8" d="M214.8,102.2h8.1v-0.9h-8.1V102.2z M216.5,101.5c0.1,0,0.2,0.1,0.2,0.2s-0.1,0.2-0.2,0.2
		c-0.1,0-0.2-0.1-0.2-0.2S216.4,101.5,216.5,101.5z M216,101.5c0.1,0,0.2,0.1,0.2,0.2s-0.1,0.2-0.2,0.2c-0.1,0-0.2-0.1-0.2-0.2
		S215.9,101.5,216,101.5z M215.4,101.5c0.1,0,0.2,0.1,0.2,0.2s-0.1,0.2-0.2,0.2c-0.1,0-0.2-0.1-0.2-0.2S215.3,101.5,215.4,101.5z"/>
	<line class="st0" x1="-621.3" y1="9701.8" x2="-621.3" y2="-6681.2"/>
	<line class="st0" x1="-619.1" y1="9701.8" x2="-619.1" y2="-6681.2"/>
	<line class="st0" x1="-647.2" y1="9701.8" x2="-647.2" y2="-6681.2"/>
	<line class="st0" x1="-717.1" y1="9701.8" x2="-717.1" y2="-6681.2"/>
	<path class="st2" d="M215.4,103.5h3c0.1,0,0.1-0.1,0.1-0.1l0,0c0-0.1-0.1-0.1-0.1-0.1h-3c-0.1,0-0.1,0.1-0.1,0.1l0,0
		C215.3,103.5,215.4,103.5,215.4,103.5z"/>
	<circle class="st2" cx="216" cy="101.7" r="0.2"/>
	<path class="st2" d="M215.4,105.9h3c0.1,0,0.1-0.1,0.1-0.1l0,0c0-0.1-0.1-0.1-0.1-0.1h-3c-0.1,0-0.1,0.1-0.1,0.1l0,0
		C215.3,105.9,215.4,105.9,215.4,105.9z"/>
	<circle class="st2" cx="216.5" cy="101.7" r="0.2"/>
	<circle class="st2" cx="215.4" cy="101.7" r="0.2"/>
	<path class="st2" d="M214.6,101.1v5.7h8.5v-5.7H214.6z M222.9,106.6h-8.1v-4.2h8.1V106.6z M222.9,102.2h-8.1v-0.9h8.1V102.2z"/>
	<path class="st2" d="M222.3,103.2h-2.6v2.7h2.6V103.2z M222.1,105.7h-2.2v-2.3h2.2V105.7z"/>
	<path class="st2" d="M215.4,104.1h1.4c0.1,0,0.1-0.1,0.1-0.1l0,0c0-0.1-0.1-0.1-0.1-0.1h-1.4c-0.1,0-0.1,0.1-0.1,0.1l0,0
		C215.3,104.1,215.4,104.1,215.4,104.1z"/>
	<path class="st2" d="M215.4,105.3h3c0.1,0,0.1-0.1,0.1-0.1l0,0c0-0.1-0.1-0.1-0.1-0.1h-3c-0.1,0-0.1,0.1-0.1,0.1l0,0
		C215.3,105.3,215.4,105.3,215.4,105.3z"/>
	<path class="st2" d="M215.4,104.7h1.4c0.1,0,0.1-0.1,0.1-0.1l0,0c0-0.1-0.1-0.1-0.1-0.1h-1.4c-0.1,0-0.1,0.1-0.1,0.1l0,0
		C215.3,104.7,215.4,104.7,215.4,104.7z"/>
</g>
<g class="st7">
	<path class="st2" d="M75.5,41.6H76c0.1,0,0.1,0,0.1,0c0,0,0.1,0.1,0.1,0.1l1.2,3c0,0.1,0.1,0.1,0.1,0.2c0,0.1,0,0.2,0.1,0.2
		c0-0.1,0-0.2,0.1-0.2c0-0.1,0-0.2,0.1-0.2l1.2-3c0,0,0-0.1,0.1-0.1c0,0,0.1,0,0.1,0h0.5l-1.7,4.3h-0.5L75.5,41.6z"/>
	<path class="st2" d="M80.7,41.9c0,0.1,0,0.1,0,0.1c0,0,0,0.1-0.1,0.1c0,0-0.1,0.1-0.1,0.1c0,0-0.1,0-0.1,0c-0.1,0-0.1,0-0.1,0
		c0,0-0.1,0-0.1-0.1c0,0-0.1-0.1-0.1-0.1c0,0,0-0.1,0-0.1c0-0.1,0-0.1,0-0.1c0,0,0-0.1,0.1-0.1c0,0,0.1-0.1,0.1-0.1c0,0,0.1,0,0.1,0
		c0.1,0,0.1,0,0.1,0c0,0,0.1,0,0.1,0.1c0,0,0.1,0.1,0.1,0.1C80.6,41.8,80.7,41.8,80.7,41.9z M80.5,42.8v3H80v-3H80.5z"/>
	<path class="st2" d="M83.5,43.3C83.5,43.4,83.5,43.4,83.5,43.3c-0.1,0.1-0.1,0.1-0.1,0.1s-0.1,0-0.1,0c0,0-0.1-0.1-0.1-0.1
		c-0.1,0-0.1-0.1-0.2-0.1c-0.1,0-0.2,0-0.3,0c-0.1,0-0.3,0-0.4,0.1c-0.1,0.1-0.2,0.1-0.3,0.2c-0.1,0.1-0.1,0.2-0.2,0.4
		s-0.1,0.3-0.1,0.5c0,0.2,0,0.3,0.1,0.5s0.1,0.3,0.2,0.4c0.1,0.1,0.2,0.2,0.3,0.2c0.1,0.1,0.2,0.1,0.4,0.1c0.1,0,0.2,0,0.3,0
		c0.1,0,0.2-0.1,0.2-0.1c0.1,0,0.1-0.1,0.1-0.1c0,0,0.1,0,0.1,0c0,0,0.1,0,0.1,0.1l0.1,0.2c-0.1,0.2-0.3,0.3-0.5,0.4
		c-0.2,0.1-0.4,0.1-0.6,0.1c-0.2,0-0.4,0-0.5-0.1s-0.3-0.2-0.4-0.3c-0.1-0.1-0.2-0.3-0.3-0.5s-0.1-0.4-0.1-0.7c0-0.2,0-0.4,0.1-0.6
		c0.1-0.2,0.2-0.4,0.3-0.5c0.1-0.1,0.3-0.2,0.4-0.3s0.4-0.1,0.6-0.1c0.2,0,0.4,0,0.6,0.1s0.3,0.2,0.4,0.3L83.5,43.3z"/>
	<path class="st2" d="M85.4,42.8c0.2,0,0.3,0,0.5,0.1c0.2,0.1,0.3,0.1,0.4,0.3c0.1,0.1,0.2,0.3,0.3,0.4c0.1,0.2,0.1,0.4,0.1,0.6
		c0,0.1,0,0.1,0,0.2c0,0-0.1,0-0.1,0h-2c0,0.2,0,0.4,0.1,0.5c0,0.1,0.1,0.3,0.2,0.4c0.1,0.1,0.2,0.2,0.3,0.2c0.1,0,0.2,0.1,0.4,0.1
		c0.1,0,0.2,0,0.3,0c0.1,0,0.2-0.1,0.2-0.1c0.1,0,0.1-0.1,0.2-0.1c0,0,0.1,0,0.1,0c0,0,0.1,0,0.1,0.1l0.1,0.2
		c-0.1,0.1-0.1,0.1-0.2,0.2s-0.2,0.1-0.3,0.1s-0.2,0.1-0.3,0.1c-0.1,0-0.2,0-0.3,0c-0.2,0-0.4,0-0.6-0.1c-0.2-0.1-0.3-0.2-0.5-0.3
		s-0.2-0.3-0.3-0.5S84,44.5,84,44.2c0-0.2,0-0.4,0.1-0.6c0.1-0.2,0.2-0.3,0.3-0.5c0.1-0.1,0.3-0.2,0.4-0.3S85.2,42.8,85.4,42.8z
		 M85.4,43.1c-0.3,0-0.5,0.1-0.6,0.2s-0.2,0.4-0.3,0.6h1.6c0-0.1,0-0.2-0.1-0.3c0-0.1-0.1-0.2-0.1-0.3s-0.1-0.1-0.2-0.2
		C85.7,43.2,85.6,43.1,85.4,43.1z"/>
	<path class="st2" d="M89.2,44.2v1.6h-0.6v-4.3h1.3c0.3,0,0.5,0,0.7,0.1s0.4,0.2,0.5,0.3c0.1,0.1,0.2,0.3,0.3,0.4
		c0.1,0.2,0.1,0.3,0.1,0.5c0,0.2,0,0.4-0.1,0.5c-0.1,0.2-0.2,0.3-0.3,0.4c-0.1,0.1-0.3,0.2-0.5,0.3s-0.4,0.1-0.7,0.1H89.2z
		 M89.2,43.8h0.7c0.2,0,0.3,0,0.4-0.1c0.1,0,0.2-0.1,0.3-0.2c0.1-0.1,0.1-0.2,0.2-0.3c0-0.1,0.1-0.2,0.1-0.4c0-0.3-0.1-0.5-0.3-0.6
		c-0.2-0.2-0.4-0.2-0.8-0.2h-0.7V43.8z"/>
	<path class="st2" d="M92.1,45.8v-3h0.3c0.1,0,0.1,0,0.1,0c0,0,0,0.1,0,0.1l0,0.5c0.1-0.2,0.2-0.4,0.4-0.5c0.2-0.1,0.3-0.2,0.5-0.2
		c0.1,0,0.2,0,0.2,0s0.1,0,0.2,0.1l-0.1,0.4c0,0,0,0.1-0.1,0.1c0,0-0.1,0-0.1,0c-0.1,0-0.1,0-0.2,0c-0.2,0-0.3,0.1-0.5,0.2
		c-0.1,0.1-0.2,0.3-0.3,0.5v1.9H92.1z"/>
	<path class="st2" d="M95.7,42.8c0.2,0,0.3,0,0.5,0.1c0.2,0.1,0.3,0.1,0.4,0.3c0.1,0.1,0.2,0.3,0.3,0.4c0.1,0.2,0.1,0.4,0.1,0.6
		c0,0.1,0,0.1,0,0.2c0,0-0.1,0-0.1,0h-2c0,0.2,0,0.4,0.1,0.5c0,0.1,0.1,0.3,0.2,0.4c0.1,0.1,0.2,0.2,0.3,0.2c0.1,0,0.2,0.1,0.4,0.1
		c0.1,0,0.2,0,0.3,0c0.1,0,0.2-0.1,0.2-0.1c0.1,0,0.1-0.1,0.2-0.1c0,0,0.1,0,0.1,0c0,0,0.1,0,0.1,0.1l0.1,0.2
		c-0.1,0.1-0.1,0.1-0.2,0.2s-0.2,0.1-0.3,0.1s-0.2,0.1-0.3,0.1c-0.1,0-0.2,0-0.3,0c-0.2,0-0.4,0-0.6-0.1c-0.2-0.1-0.3-0.2-0.5-0.3
		s-0.2-0.3-0.3-0.5s-0.1-0.4-0.1-0.7c0-0.2,0-0.4,0.1-0.6c0.1-0.2,0.2-0.3,0.3-0.5c0.1-0.1,0.3-0.2,0.4-0.3S95.5,42.8,95.7,42.8z
		 M95.7,43.1c-0.3,0-0.5,0.1-0.6,0.2s-0.2,0.4-0.3,0.6h1.6c0-0.1,0-0.2-0.1-0.3c0-0.1-0.1-0.2-0.1-0.3s-0.1-0.1-0.2-0.2
		C96,43.2,95.9,43.1,95.7,43.1z"/>
	<path class="st2" d="M99.4,43.3c0,0-0.1,0.1-0.1,0.1c0,0-0.1,0-0.1,0c0,0-0.1,0-0.1-0.1c-0.1,0-0.1-0.1-0.2-0.1c-0.1,0-0.2,0-0.3,0
		c-0.1,0-0.2,0-0.2,0s-0.1,0.1-0.2,0.1c-0.1,0-0.1,0.1-0.1,0.1c0,0.1,0,0.1,0,0.2c0,0.1,0,0.1,0.1,0.2c0,0.1,0.1,0.1,0.2,0.1
		c0.1,0,0.2,0.1,0.2,0.1c0.1,0,0.2,0.1,0.3,0.1c0.1,0,0.2,0.1,0.3,0.1s0.2,0.1,0.2,0.1c0.1,0.1,0.1,0.1,0.2,0.2s0.1,0.2,0.1,0.3
		c0,0.1,0,0.3-0.1,0.4c0,0.1-0.1,0.2-0.2,0.3s-0.2,0.2-0.4,0.2c-0.1,0-0.3,0.1-0.5,0.1c-0.2,0-0.4,0-0.6-0.1
		c-0.2-0.1-0.3-0.2-0.4-0.3l0.1-0.2c0,0,0,0,0.1-0.1c0,0,0.1,0,0.1,0c0,0,0.1,0,0.1,0c0,0,0.1,0.1,0.1,0.1c0.1,0,0.1,0.1,0.2,0.1
		c0.1,0,0.2,0,0.3,0c0.1,0,0.2,0,0.3,0c0.1,0,0.1-0.1,0.2-0.1c0.1,0,0.1-0.1,0.1-0.2c0-0.1,0-0.1,0-0.2c0-0.1,0-0.2-0.1-0.2
		s-0.1-0.1-0.2-0.1c-0.1,0-0.2-0.1-0.3-0.1c-0.1,0-0.2-0.1-0.3-0.1c-0.1,0-0.2-0.1-0.3-0.1c-0.1,0-0.2-0.1-0.3-0.2
		c-0.1-0.1-0.1-0.1-0.2-0.2c0-0.1-0.1-0.2-0.1-0.3c0-0.1,0-0.2,0.1-0.3c0-0.1,0.1-0.2,0.2-0.3c0.1-0.1,0.2-0.1,0.3-0.2
		s0.3-0.1,0.5-0.1c0.2,0,0.4,0,0.5,0.1s0.3,0.1,0.4,0.3L99.4,43.3z"/>
	<path class="st2" d="M100.9,41.9c0,0.1,0,0.1,0,0.1c0,0,0,0.1-0.1,0.1c0,0-0.1,0.1-0.1,0.1c0,0-0.1,0-0.1,0c-0.1,0-0.1,0-0.1,0
		c0,0-0.1,0-0.1-0.1c0,0-0.1-0.1-0.1-0.1c0,0,0-0.1,0-0.1c0-0.1,0-0.1,0-0.1c0,0,0-0.1,0.1-0.1c0,0,0.1-0.1,0.1-0.1c0,0,0.1,0,0.1,0
		c0.1,0,0.1,0,0.1,0c0,0,0.1,0,0.1,0.1c0,0,0.1,0.1,0.1,0.1C100.9,41.8,100.9,41.8,100.9,41.9z M100.8,42.8v3h-0.5v-3H100.8z"/>
	<path class="st2" d="M103.9,45.8c-0.1,0-0.1,0-0.1-0.1l0-0.4c-0.1,0.2-0.3,0.3-0.4,0.4s-0.4,0.1-0.6,0.1c-0.2,0-0.3,0-0.5-0.1
		c-0.1-0.1-0.3-0.2-0.4-0.3s-0.2-0.3-0.2-0.5c-0.1-0.2-0.1-0.4-0.1-0.7c0-0.2,0-0.4,0.1-0.6s0.1-0.4,0.3-0.5
		c0.1-0.1,0.2-0.3,0.4-0.3c0.2-0.1,0.3-0.1,0.5-0.1c0.2,0,0.3,0,0.5,0.1s0.2,0.2,0.4,0.3v-1.7h0.5v4.4H103.9z M102.9,45.4
		c0.2,0,0.3,0,0.5-0.1c0.1-0.1,0.2-0.2,0.4-0.3v-1.5c-0.1-0.1-0.2-0.2-0.3-0.3c-0.1-0.1-0.2-0.1-0.4-0.1c-0.3,0-0.5,0.1-0.6,0.3
		c-0.2,0.2-0.2,0.5-0.2,0.9c0,0.2,0,0.4,0.1,0.5s0.1,0.3,0.1,0.3c0.1,0.1,0.1,0.2,0.2,0.2C102.6,45.4,102.7,45.4,102.9,45.4z"/>
	<path class="st2" d="M106.3,42.8c0.2,0,0.3,0,0.5,0.1c0.2,0.1,0.3,0.1,0.4,0.3c0.1,0.1,0.2,0.3,0.3,0.4c0.1,0.2,0.1,0.4,0.1,0.6
		c0,0.1,0,0.1,0,0.2c0,0-0.1,0-0.1,0h-2c0,0.2,0,0.4,0.1,0.5c0,0.1,0.1,0.3,0.2,0.4c0.1,0.1,0.2,0.2,0.3,0.2c0.1,0,0.2,0.1,0.4,0.1
		c0.1,0,0.2,0,0.3,0c0.1,0,0.2-0.1,0.2-0.1c0.1,0,0.1-0.1,0.2-0.1c0,0,0.1,0,0.1,0c0,0,0.1,0,0.1,0.1l0.1,0.2
		c-0.1,0.1-0.1,0.1-0.2,0.2s-0.2,0.1-0.3,0.1s-0.2,0.1-0.3,0.1c-0.1,0-0.2,0-0.3,0c-0.2,0-0.4,0-0.6-0.1c-0.2-0.1-0.3-0.2-0.5-0.3
		s-0.2-0.3-0.3-0.5s-0.1-0.4-0.1-0.7c0-0.2,0-0.4,0.1-0.6c0.1-0.2,0.2-0.3,0.3-0.5c0.1-0.1,0.3-0.2,0.4-0.3S106.1,42.8,106.3,42.8z
		 M106.3,43.1c-0.3,0-0.5,0.1-0.6,0.2s-0.2,0.4-0.3,0.6h1.6c0-0.1,0-0.2-0.1-0.3c0-0.1-0.1-0.2-0.1-0.3s-0.1-0.1-0.2-0.2
		C106.5,43.2,106.4,43.1,106.3,43.1z"/>
	<path class="st2" d="M108.2,45.8v-3h0.3c0.1,0,0.1,0,0.1,0.1l0,0.3c0.1-0.1,0.3-0.3,0.4-0.4s0.3-0.1,0.6-0.1c0.2,0,0.3,0,0.4,0.1
		s0.2,0.1,0.3,0.2c0.1,0.1,0.1,0.2,0.2,0.4c0,0.1,0.1,0.3,0.1,0.5v1.9h-0.5v-1.9c0-0.2-0.1-0.4-0.2-0.5s-0.3-0.2-0.5-0.2
		c-0.2,0-0.3,0-0.4,0.1s-0.3,0.2-0.4,0.3v2.2H108.2z"/>
	<path class="st2" d="M112.4,45.9c-0.2,0-0.4-0.1-0.5-0.2s-0.2-0.3-0.2-0.6v-1.8h-0.4c0,0-0.1,0-0.1,0c0,0,0,0,0-0.1v-0.2l0.5-0.1
		l0.1-0.9c0,0,0-0.1,0-0.1c0,0,0,0,0.1,0h0.3v1h0.9v0.4h-0.9v1.8c0,0.1,0,0.2,0.1,0.3s0.1,0.1,0.2,0.1c0.1,0,0.1,0,0.1,0
		c0,0,0.1,0,0.1,0c0,0,0.1,0,0.1,0c0,0,0,0,0.1,0c0,0,0.1,0,0.1,0.1l0.2,0.3c-0.1,0.1-0.2,0.2-0.3,0.2S112.6,45.9,112.4,45.9z"/>
	<path class="st2" d="M113.6,45.4c0,0,0-0.1,0-0.1c0,0,0-0.1,0.1-0.1c0,0,0.1-0.1,0.1-0.1c0,0,0.1,0,0.1,0c0.1,0,0.1,0,0.2,0
		c0,0,0.1,0.1,0.1,0.1c0,0,0.1,0.1,0.1,0.1c0,0.1,0,0.1,0,0.2c0,0.1,0,0.2,0,0.3c0,0.1-0.1,0.2-0.1,0.3c0,0.1-0.1,0.2-0.2,0.3
		c-0.1,0.1-0.1,0.2-0.2,0.2l-0.1-0.1c0,0,0-0.1,0-0.1c0,0,0-0.1,0-0.1c0,0,0-0.1,0.1-0.1c0,0,0.1-0.1,0.1-0.1c0,0,0.1-0.1,0.1-0.2
		s0-0.1,0.1-0.2h0c-0.1,0-0.1,0-0.1,0c0,0-0.1,0-0.1-0.1c0,0-0.1-0.1-0.1-0.1C113.6,45.6,113.6,45.5,113.6,45.4z"/>
	<path class="st2" d="M119.1,41.6V42h-1.4v3.8h-0.6V42h-1.4v-0.5H119.1z"/>
	<path class="st2" d="M120.2,42.8c0.2,0,0.3,0,0.5,0.1c0.2,0.1,0.3,0.1,0.4,0.3c0.1,0.1,0.2,0.3,0.3,0.4c0.1,0.2,0.1,0.4,0.1,0.6
		c0,0.1,0,0.1,0,0.2c0,0-0.1,0-0.1,0h-2c0,0.2,0,0.4,0.1,0.5c0,0.1,0.1,0.3,0.2,0.4c0.1,0.1,0.2,0.2,0.3,0.2c0.1,0,0.2,0.1,0.4,0.1
		c0.1,0,0.2,0,0.3,0c0.1,0,0.2-0.1,0.2-0.1c0.1,0,0.1-0.1,0.2-0.1c0,0,0.1,0,0.1,0c0,0,0.1,0,0.1,0.1l0.1,0.2
		c-0.1,0.1-0.1,0.1-0.2,0.2s-0.2,0.1-0.3,0.1s-0.2,0.1-0.3,0.1c-0.1,0-0.2,0-0.3,0c-0.2,0-0.4,0-0.6-0.1c-0.2-0.1-0.3-0.2-0.5-0.3
		s-0.2-0.3-0.3-0.5s-0.1-0.4-0.1-0.7c0-0.2,0-0.4,0.1-0.6c0.1-0.2,0.2-0.3,0.3-0.5c0.1-0.1,0.3-0.2,0.4-0.3S120,42.8,120.2,42.8z
		 M120.2,43.1c-0.3,0-0.5,0.1-0.6,0.2s-0.2,0.4-0.3,0.6h1.6c0-0.1,0-0.2-0.1-0.3c0-0.1-0.1-0.2-0.1-0.3s-0.1-0.1-0.2-0.2
		C120.4,43.2,120.3,43.1,120.2,43.1z"/>
	<path class="st2" d="M124.2,43.3C124.2,43.4,124.2,43.4,124.2,43.3c-0.1,0.1-0.1,0.1-0.1,0.1s-0.1,0-0.1,0c0,0-0.1-0.1-0.1-0.1
		c-0.1,0-0.1-0.1-0.2-0.1c-0.1,0-0.2,0-0.3,0c-0.1,0-0.3,0-0.4,0.1c-0.1,0.1-0.2,0.1-0.3,0.2c-0.1,0.1-0.1,0.2-0.2,0.4
		s-0.1,0.3-0.1,0.5c0,0.2,0,0.3,0.1,0.5s0.1,0.3,0.2,0.4c0.1,0.1,0.2,0.2,0.3,0.2c0.1,0.1,0.2,0.1,0.4,0.1c0.1,0,0.2,0,0.3,0
		c0.1,0,0.2-0.1,0.2-0.1c0.1,0,0.1-0.1,0.1-0.1c0,0,0.1,0,0.1,0c0,0,0.1,0,0.1,0.1l0.1,0.2c-0.1,0.2-0.3,0.3-0.5,0.4
		c-0.2,0.1-0.4,0.1-0.6,0.1c-0.2,0-0.4,0-0.5-0.1s-0.3-0.2-0.4-0.3c-0.1-0.1-0.2-0.3-0.3-0.5s-0.1-0.4-0.1-0.7c0-0.2,0-0.4,0.1-0.6
		c0.1-0.2,0.2-0.4,0.3-0.5c0.1-0.1,0.3-0.2,0.4-0.3s0.4-0.1,0.6-0.1c0.2,0,0.4,0,0.6,0.1s0.3,0.2,0.4,0.3L124.2,43.3z"/>
	<path class="st2" d="M124.9,45.8v-4.4h0.5v1.8c0.1-0.1,0.3-0.2,0.4-0.3c0.2-0.1,0.3-0.1,0.5-0.1c0.2,0,0.3,0,0.4,0.1
		s0.2,0.1,0.3,0.2c0.1,0.1,0.1,0.2,0.2,0.4c0,0.1,0.1,0.3,0.1,0.5v1.9h-0.5v-1.9c0-0.2-0.1-0.4-0.2-0.5s-0.3-0.2-0.5-0.2
		c-0.2,0-0.3,0-0.4,0.1s-0.3,0.2-0.4,0.3v2.2H124.9z"/>
	<path class="st2" d="M128.2,45.8v-3h0.3c0.1,0,0.1,0,0.1,0.1l0,0.3c0.1-0.1,0.3-0.3,0.4-0.4s0.3-0.1,0.6-0.1c0.2,0,0.3,0,0.4,0.1
		s0.2,0.1,0.3,0.2c0.1,0.1,0.1,0.2,0.2,0.4c0,0.1,0.1,0.3,0.1,0.5v1.9h-0.5v-1.9c0-0.2-0.1-0.4-0.2-0.5s-0.3-0.2-0.5-0.2
		c-0.2,0-0.3,0-0.4,0.1s-0.3,0.2-0.4,0.3v2.2H128.2z"/>
	<path class="st2" d="M132.7,42.8c0.2,0,0.4,0,0.6,0.1s0.3,0.2,0.5,0.3s0.2,0.3,0.3,0.5s0.1,0.4,0.1,0.6c0,0.2,0,0.5-0.1,0.6
		s-0.2,0.4-0.3,0.5s-0.3,0.2-0.5,0.3c-0.2,0.1-0.4,0.1-0.6,0.1c-0.2,0-0.4,0-0.6-0.1c-0.2-0.1-0.3-0.2-0.5-0.3s-0.2-0.3-0.3-0.5
		s-0.1-0.4-0.1-0.6c0-0.2,0-0.4,0.1-0.6s0.2-0.4,0.3-0.5s0.3-0.2,0.5-0.3C132.3,42.8,132.5,42.8,132.7,42.8z M132.7,45.4
		c0.3,0,0.5-0.1,0.7-0.3c0.1-0.2,0.2-0.5,0.2-0.8c0-0.4-0.1-0.6-0.2-0.8c-0.1-0.2-0.4-0.3-0.7-0.3c-0.2,0-0.3,0-0.4,0.1
		c-0.1,0.1-0.2,0.1-0.3,0.2c-0.1,0.1-0.1,0.2-0.2,0.4c0,0.1-0.1,0.3-0.1,0.5c0,0.2,0,0.3,0.1,0.5c0,0.1,0.1,0.3,0.2,0.4
		c0.1,0.1,0.2,0.2,0.3,0.2C132.5,45.4,132.6,45.4,132.7,45.4z"/>
	<path class="st2" d="M135.4,41.4v4.4h-0.5v-4.4H135.4z"/>
	<path class="st2" d="M137.6,42.8c0.2,0,0.4,0,0.6,0.1c0.2,0.1,0.3,0.2,0.5,0.3s0.2,0.3,0.3,0.5s0.1,0.4,0.1,0.6
		c0,0.2,0,0.5-0.1,0.6s-0.2,0.4-0.3,0.5s-0.3,0.2-0.5,0.3c-0.2,0.1-0.4,0.1-0.6,0.1s-0.4,0-0.6-0.1c-0.2-0.1-0.3-0.2-0.5-0.3
		s-0.2-0.3-0.3-0.5s-0.1-0.4-0.1-0.6c0-0.2,0-0.4,0.1-0.6s0.2-0.4,0.3-0.5s0.3-0.2,0.5-0.3C137.1,42.8,137.3,42.8,137.6,42.8z
		 M137.6,45.4c0.3,0,0.5-0.1,0.7-0.3s0.2-0.5,0.2-0.8c0-0.4-0.1-0.6-0.2-0.8s-0.4-0.3-0.7-0.3c-0.2,0-0.3,0-0.4,0.1
		c-0.1,0.1-0.2,0.1-0.3,0.2c-0.1,0.1-0.1,0.2-0.2,0.4s-0.1,0.3-0.1,0.5c0,0.2,0,0.3,0.1,0.5s0.1,0.3,0.2,0.4
		c0.1,0.1,0.2,0.2,0.3,0.2C137.3,45.4,137.4,45.4,137.6,45.4z"/>
	<path class="st2" d="M140.7,42.8c0.1,0,0.3,0,0.4,0c0.1,0,0.2,0.1,0.3,0.1h0.8v0.2c0,0.1,0,0.1-0.1,0.1l-0.3,0
		c0.1,0.1,0.1,0.3,0.1,0.4c0,0.1,0,0.3-0.1,0.4s-0.1,0.2-0.2,0.3c-0.1,0.1-0.2,0.2-0.4,0.2s-0.3,0.1-0.5,0.1c-0.1,0-0.3,0-0.4-0.1
		c-0.1,0-0.1,0.1-0.1,0.1c0,0,0,0.1,0,0.1c0,0.1,0,0.1,0.1,0.2s0.1,0.1,0.2,0.1c0.1,0,0.2,0,0.3,0s0.2,0,0.4,0s0.2,0,0.4,0
		c0.1,0,0.2,0.1,0.3,0.1c0.1,0.1,0.2,0.1,0.2,0.2c0.1,0.1,0.1,0.2,0.1,0.3c0,0.1,0,0.3-0.1,0.4c-0.1,0.1-0.2,0.2-0.3,0.3
		c-0.1,0.1-0.3,0.2-0.4,0.2c-0.2,0.1-0.4,0.1-0.6,0.1c-0.2,0-0.4,0-0.6-0.1c-0.2,0-0.3-0.1-0.4-0.2c-0.1-0.1-0.2-0.2-0.2-0.3
		c-0.1-0.1-0.1-0.2-0.1-0.3c0-0.1,0-0.3,0.1-0.4c0.1-0.1,0.2-0.2,0.4-0.2c-0.1,0-0.2-0.1-0.2-0.2c0-0.1-0.1-0.2-0.1-0.3
		c0,0,0-0.1,0-0.1c0,0,0-0.1,0.1-0.1c0,0,0.1-0.1,0.1-0.1c0,0,0.1-0.1,0.2-0.1c-0.1-0.1-0.3-0.2-0.3-0.3c-0.1-0.1-0.1-0.3-0.1-0.5
		c0-0.1,0-0.3,0.1-0.4s0.1-0.2,0.2-0.3c0.1-0.1,0.2-0.1,0.4-0.2S140.5,42.8,140.7,42.8z M141.6,46c0-0.1,0-0.1-0.1-0.2
		c0,0-0.1-0.1-0.2-0.1s-0.2,0-0.2-0.1c-0.1,0-0.2,0-0.3,0c-0.1,0-0.2,0-0.3,0c-0.1,0-0.2,0-0.3,0c-0.1,0.1-0.2,0.1-0.3,0.2
		s-0.1,0.2-0.1,0.3c0,0.1,0,0.1,0.1,0.2c0,0.1,0.1,0.1,0.2,0.2c0.1,0,0.2,0.1,0.3,0.1c0.1,0,0.2,0,0.4,0c0.1,0,0.3,0,0.4,0
		c0.1,0,0.2-0.1,0.3-0.1c0.1,0,0.1-0.1,0.2-0.2C141.6,46.1,141.6,46,141.6,46z M140.7,44.3c0.1,0,0.2,0,0.3,0c0.1,0,0.2-0.1,0.2-0.1
		c0.1-0.1,0.1-0.1,0.1-0.2c0-0.1,0-0.2,0-0.2c0-0.2-0.1-0.3-0.2-0.4c-0.1-0.1-0.3-0.2-0.5-0.2c-0.2,0-0.4,0.1-0.5,0.2
		c-0.1,0.1-0.2,0.3-0.2,0.4c0,0.1,0,0.2,0,0.2c0,0.1,0.1,0.1,0.1,0.2c0.1,0.1,0.1,0.1,0.2,0.1C140.5,44.3,140.6,44.3,140.7,44.3z"/>
	<path class="st2" d="M143.6,46.7C143.6,46.7,143.5,46.8,143.6,46.7c-0.1,0.1-0.1,0.1-0.2,0.1H143l0.6-1.2l-1.2-2.8h0.5
		c0,0,0.1,0,0.1,0c0,0,0,0,0.1,0.1l0.8,1.9c0,0,0,0.1,0,0.1c0,0,0,0.1,0,0.1c0,0,0-0.1,0-0.1s0-0.1,0-0.1l0.8-1.9c0,0,0-0.1,0.1-0.1
		c0,0,0.1,0,0.1,0h0.4L143.6,46.7z"/>
	<path class="st2" d="M148.4,41.5c0.2,0,0.3,0,0.4,0.1s0.2,0.1,0.3,0.2c0.1,0.1,0.2,0.2,0.2,0.3c0.1,0.1,0.1,0.2,0.1,0.3l-0.3,0.1
		c0,0,0,0,0,0c0,0,0,0-0.1,0c0,0,0,0,0-0.1c0-0.1,0-0.1-0.1-0.2c0-0.1-0.1-0.1-0.1-0.2s-0.1-0.1-0.2-0.1c-0.1,0-0.1,0-0.2,0
		c-0.1,0-0.2,0-0.3,0c-0.1,0-0.1,0.1-0.2,0.1c-0.1,0.1-0.1,0.1-0.1,0.2c0,0.1,0,0.2,0,0.2c0,0.1,0,0.1,0,0.2c0,0.1,0,0.1,0.1,0.2
		c0,0.1,0.1,0.1,0.1,0.2s0.1,0.1,0.2,0.2l1.2,1.2c0.1-0.1,0.1-0.3,0.2-0.4c0-0.1,0.1-0.3,0.1-0.4c0,0,0-0.1,0-0.1c0,0,0,0,0.1,0h0.3
		c0,0.2,0,0.5-0.1,0.7s-0.2,0.4-0.3,0.6l0.9,0.9h-0.5c-0.1,0-0.1,0-0.1,0c0,0-0.1,0-0.1-0.1l-0.4-0.4c-0.2,0.2-0.4,0.3-0.6,0.4
		c-0.2,0.1-0.5,0.2-0.8,0.2c-0.2,0-0.3,0-0.5-0.1c-0.2-0.1-0.3-0.1-0.4-0.2c-0.1-0.1-0.2-0.2-0.3-0.4c-0.1-0.1-0.1-0.3-0.1-0.5
		c0-0.1,0-0.3,0.1-0.4c0-0.1,0.1-0.2,0.2-0.3s0.2-0.2,0.3-0.3c0.1-0.1,0.2-0.2,0.4-0.2c-0.1-0.2-0.2-0.3-0.3-0.4s-0.1-0.3-0.1-0.4
		c0-0.1,0-0.3,0.1-0.4c0.1-0.1,0.1-0.2,0.2-0.3c0.1-0.1,0.2-0.2,0.4-0.2C148.1,41.5,148.2,41.5,148.4,41.5z M147.2,44.6
		c0,0.1,0,0.2,0.1,0.3c0,0.1,0.1,0.2,0.2,0.2c0.1,0.1,0.2,0.1,0.3,0.2c0.1,0,0.2,0.1,0.3,0.1c0.2,0,0.4,0,0.6-0.1
		c0.2-0.1,0.3-0.2,0.5-0.3l-1.3-1.3c-0.2,0.1-0.4,0.2-0.5,0.4C147.3,44.3,147.2,44.5,147.2,44.6z"/>
	<path class="st2" d="M153,45.8h-0.6v-4.3h0.6V45.8z"/>
	<path class="st2" d="M157,41.6V42h-1.4v3.8h-0.6V42h-1.4v-0.5H157z"/>
	<path class="st2" d="M162.7,43.7c0,0.3-0.1,0.6-0.2,0.9c-0.1,0.3-0.2,0.5-0.4,0.7c-0.2,0.2-0.4,0.3-0.7,0.4
		c-0.3,0.1-0.5,0.2-0.9,0.2c-0.3,0-0.6-0.1-0.9-0.2c-0.3-0.1-0.5-0.3-0.7-0.4c-0.2-0.2-0.3-0.4-0.4-0.7c-0.1-0.3-0.2-0.6-0.2-0.9
		s0.1-0.6,0.2-0.9c0.1-0.3,0.2-0.5,0.4-0.7c0.2-0.2,0.4-0.3,0.7-0.5c0.3-0.1,0.5-0.2,0.9-0.2c0.3,0,0.6,0.1,0.9,0.2
		c0.3,0.1,0.5,0.3,0.7,0.5s0.3,0.4,0.4,0.7C162.7,43.1,162.7,43.4,162.7,43.7z M162.1,43.7c0-0.3,0-0.5-0.1-0.7
		c-0.1-0.2-0.2-0.4-0.3-0.5s-0.3-0.3-0.5-0.3c-0.2-0.1-0.4-0.1-0.6-0.1c-0.2,0-0.4,0-0.6,0.1c-0.2,0.1-0.3,0.2-0.5,0.3
		s-0.2,0.3-0.3,0.5c-0.1,0.2-0.1,0.4-0.1,0.7s0,0.5,0.1,0.7s0.2,0.4,0.3,0.5s0.3,0.3,0.5,0.3s0.4,0.1,0.6,0.1c0.2,0,0.4,0,0.6-0.1
		c0.2-0.1,0.3-0.2,0.5-0.3s0.2-0.3,0.3-0.5S162.1,43.9,162.1,43.7z"/>
	<path class="st2" d="M163.4,46.8v-4h0.3c0.1,0,0.1,0,0.1,0.1l0,0.4c0.1-0.2,0.3-0.3,0.4-0.4c0.2-0.1,0.4-0.1,0.6-0.1
		c0.2,0,0.3,0,0.5,0.1c0.1,0.1,0.3,0.2,0.4,0.3c0.1,0.1,0.2,0.3,0.2,0.5c0.1,0.2,0.1,0.4,0.1,0.7c0,0.2,0,0.4-0.1,0.6
		s-0.1,0.4-0.3,0.5c-0.1,0.1-0.2,0.2-0.4,0.3c-0.2,0.1-0.3,0.1-0.5,0.1c-0.2,0-0.3,0-0.5-0.1s-0.2-0.1-0.3-0.3v1.3H163.4z
		 M164.8,43.2c-0.2,0-0.3,0-0.5,0.1c-0.1,0.1-0.2,0.2-0.4,0.3v1.5c0.1,0.1,0.2,0.2,0.3,0.3s0.2,0.1,0.4,0.1c0.3,0,0.5-0.1,0.6-0.3
		s0.2-0.5,0.2-0.9c0-0.2,0-0.4-0.1-0.5c0-0.1-0.1-0.3-0.2-0.3c-0.1-0.1-0.1-0.2-0.2-0.2C165,43.2,164.9,43.2,164.8,43.2z"/>
	<path class="st2" d="M167.9,42.8c0.2,0,0.3,0,0.5,0.1s0.3,0.1,0.4,0.3s0.2,0.3,0.3,0.4c0.1,0.2,0.1,0.4,0.1,0.6c0,0.1,0,0.1,0,0.2
		c0,0-0.1,0-0.1,0h-2c0,0.2,0,0.4,0.1,0.5c0,0.1,0.1,0.3,0.2,0.4c0.1,0.1,0.2,0.2,0.3,0.2s0.2,0.1,0.4,0.1c0.1,0,0.2,0,0.3,0
		c0.1,0,0.2-0.1,0.2-0.1c0.1,0,0.1-0.1,0.2-0.1c0,0,0.1,0,0.1,0c0,0,0.1,0,0.1,0.1l0.1,0.2c-0.1,0.1-0.1,0.1-0.2,0.2
		c-0.1,0.1-0.2,0.1-0.3,0.1c-0.1,0-0.2,0.1-0.3,0.1c-0.1,0-0.2,0-0.3,0c-0.2,0-0.4,0-0.6-0.1s-0.3-0.2-0.5-0.3s-0.2-0.3-0.3-0.5
		s-0.1-0.4-0.1-0.7c0-0.2,0-0.4,0.1-0.6c0.1-0.2,0.2-0.3,0.3-0.5s0.3-0.2,0.4-0.3C167.5,42.8,167.7,42.8,167.9,42.8z M167.9,43.1
		c-0.3,0-0.5,0.1-0.6,0.2s-0.2,0.4-0.3,0.6h1.6c0-0.1,0-0.2-0.1-0.3c0-0.1-0.1-0.2-0.1-0.3s-0.1-0.1-0.2-0.2
		C168.2,43.2,168,43.1,167.9,43.1z"/>
	<path class="st2" d="M169.8,45.8v-3h0.3c0.1,0,0.1,0,0.1,0c0,0,0,0.1,0,0.1l0,0.5c0.1-0.2,0.2-0.4,0.4-0.5s0.3-0.2,0.5-0.2
		c0.1,0,0.2,0,0.2,0s0.1,0,0.2,0.1l-0.1,0.4c0,0,0,0.1-0.1,0.1c0,0-0.1,0-0.1,0c-0.1,0-0.1,0-0.2,0c-0.2,0-0.3,0.1-0.5,0.2
		c-0.1,0.1-0.2,0.3-0.3,0.5v1.9H169.8z"/>
	<path class="st2" d="M174.3,45.8h-0.2c-0.1,0-0.1,0-0.1,0c0,0-0.1,0-0.1-0.1l-0.1-0.3c-0.1,0.1-0.2,0.1-0.2,0.2s-0.2,0.1-0.2,0.1
		c-0.1,0-0.2,0.1-0.3,0.1c-0.1,0-0.2,0-0.3,0c-0.1,0-0.2,0-0.3,0c-0.1,0-0.2-0.1-0.3-0.1s-0.1-0.1-0.2-0.2s-0.1-0.2-0.1-0.4
		c0-0.1,0-0.2,0.1-0.3s0.2-0.2,0.3-0.3c0.1-0.1,0.3-0.2,0.6-0.2c0.2-0.1,0.5-0.1,0.9-0.1v-0.2c0-0.2,0-0.4-0.2-0.5
		c-0.1-0.1-0.2-0.2-0.4-0.2c-0.1,0-0.2,0-0.3,0c-0.1,0-0.2,0.1-0.2,0.1c-0.1,0-0.1,0.1-0.2,0.1c0,0-0.1,0-0.1,0c0,0-0.1,0-0.1,0
		c0,0,0,0-0.1-0.1l-0.1-0.2c0.2-0.2,0.3-0.3,0.5-0.4c0.2-0.1,0.4-0.1,0.6-0.1c0.2,0,0.3,0,0.4,0.1s0.2,0.1,0.3,0.2
		c0.1,0.1,0.2,0.2,0.2,0.4s0.1,0.3,0.1,0.5V45.8z M173,45.5c0.1,0,0.2,0,0.3,0c0.1,0,0.2,0,0.2-0.1c0.1,0,0.1-0.1,0.2-0.1
		c0.1,0,0.1-0.1,0.2-0.2v-0.6c-0.2,0-0.5,0-0.6,0c-0.2,0-0.3,0.1-0.4,0.1c-0.1,0-0.2,0.1-0.2,0.2c0,0.1-0.1,0.1-0.1,0.2
		c0,0.1,0,0.1,0,0.2c0,0.1,0.1,0.1,0.1,0.1c0,0,0.1,0.1,0.2,0.1C172.8,45.5,172.9,45.5,173,45.5z"/>
	<path class="st2" d="M176,45.9c-0.2,0-0.4-0.1-0.5-0.2s-0.2-0.3-0.2-0.6v-1.8h-0.4c0,0-0.1,0-0.1,0c0,0,0,0,0-0.1v-0.2l0.5-0.1
		l0.1-0.9c0,0,0-0.1,0-0.1s0,0,0.1,0h0.3v1h0.9v0.4h-0.9v1.8c0,0.1,0,0.2,0.1,0.3s0.1,0.1,0.2,0.1c0.1,0,0.1,0,0.1,0
		c0,0,0.1,0,0.1,0s0.1,0,0.1,0c0,0,0,0,0.1,0c0,0,0.1,0,0.1,0.1l0.2,0.3c-0.1,0.1-0.2,0.2-0.3,0.2S176.2,45.9,176,45.9z"/>
	<path class="st2" d="M178.1,41.9c0,0.1,0,0.1,0,0.1c0,0,0,0.1-0.1,0.1c0,0-0.1,0.1-0.1,0.1s-0.1,0-0.1,0c-0.1,0-0.1,0-0.1,0
		s-0.1,0-0.1-0.1c0,0-0.1-0.1-0.1-0.1c0,0,0-0.1,0-0.1c0-0.1,0-0.1,0-0.1c0,0,0-0.1,0.1-0.1c0,0,0.1-0.1,0.1-0.1c0,0,0.1,0,0.1,0
		c0.1,0,0.1,0,0.1,0c0,0,0.1,0,0.1,0.1c0,0,0.1,0.1,0.1,0.1C178.1,41.8,178.1,41.8,178.1,41.9z M177.9,42.8v3h-0.5v-3H177.9z"/>
	<path class="st2" d="M180.1,42.8c0.2,0,0.4,0,0.6,0.1c0.2,0.1,0.3,0.2,0.5,0.3s0.2,0.3,0.3,0.5s0.1,0.4,0.1,0.6
		c0,0.2,0,0.5-0.1,0.6s-0.2,0.4-0.3,0.5s-0.3,0.2-0.5,0.3c-0.2,0.1-0.4,0.1-0.6,0.1s-0.4,0-0.6-0.1c-0.2-0.1-0.3-0.2-0.5-0.3
		s-0.2-0.3-0.3-0.5s-0.1-0.4-0.1-0.6c0-0.2,0-0.4,0.1-0.6s0.2-0.4,0.3-0.5s0.3-0.2,0.5-0.3C179.7,42.8,179.9,42.8,180.1,42.8z
		 M180.1,45.4c0.3,0,0.5-0.1,0.7-0.3s0.2-0.5,0.2-0.8c0-0.4-0.1-0.6-0.2-0.8s-0.4-0.3-0.7-0.3c-0.2,0-0.3,0-0.4,0.1
		c-0.1,0.1-0.2,0.1-0.3,0.2c-0.1,0.1-0.1,0.2-0.2,0.4s-0.1,0.3-0.1,0.5c0,0.2,0,0.3,0.1,0.5s0.1,0.3,0.2,0.4
		c0.1,0.1,0.2,0.2,0.3,0.2C179.8,45.4,179.9,45.4,180.1,45.4z"/>
	<path class="st2" d="M182.2,45.8v-3h0.3c0.1,0,0.1,0,0.1,0.1l0,0.3c0.1-0.1,0.3-0.3,0.4-0.4c0.2-0.1,0.3-0.1,0.6-0.1
		c0.2,0,0.3,0,0.4,0.1s0.2,0.1,0.3,0.2c0.1,0.1,0.1,0.2,0.2,0.4s0.1,0.3,0.1,0.5v1.9h-0.5v-1.9c0-0.2-0.1-0.4-0.2-0.5
		c-0.1-0.1-0.3-0.2-0.5-0.2c-0.2,0-0.3,0-0.4,0.1s-0.3,0.2-0.4,0.3v2.2H182.2z"/>
	<path class="st2" d="M187.2,43.3c0,0-0.1,0.1-0.1,0.1c0,0-0.1,0-0.1,0c0,0-0.1,0-0.1-0.1c-0.1,0-0.1-0.1-0.2-0.1
		c-0.1,0-0.2,0-0.3,0c-0.1,0-0.2,0-0.2,0s-0.1,0.1-0.2,0.1c-0.1,0-0.1,0.1-0.1,0.1c0,0.1,0,0.1,0,0.2c0,0.1,0,0.1,0.1,0.2
		c0,0.1,0.1,0.1,0.2,0.1c0.1,0,0.2,0.1,0.2,0.1c0.1,0,0.2,0.1,0.3,0.1c0.1,0,0.2,0.1,0.3,0.1c0.1,0,0.2,0.1,0.2,0.1
		c0.1,0.1,0.1,0.1,0.2,0.2c0,0.1,0.1,0.2,0.1,0.3c0,0.1,0,0.3-0.1,0.4c0,0.1-0.1,0.2-0.2,0.3c-0.1,0.1-0.2,0.2-0.4,0.2
		c-0.1,0-0.3,0.1-0.5,0.1c-0.2,0-0.4,0-0.6-0.1c-0.2-0.1-0.3-0.2-0.4-0.3l0.1-0.2c0,0,0,0,0.1-0.1c0,0,0,0,0.1,0s0.1,0,0.1,0
		c0,0,0.1,0.1,0.1,0.1c0.1,0,0.1,0.1,0.2,0.1c0.1,0,0.2,0,0.3,0c0.1,0,0.2,0,0.3,0c0.1,0,0.1-0.1,0.2-0.1c0.1,0,0.1-0.1,0.1-0.2
		c0-0.1,0-0.1,0-0.2c0-0.1,0-0.2-0.1-0.2c0-0.1-0.1-0.1-0.2-0.1c-0.1,0-0.2-0.1-0.3-0.1c-0.1,0-0.2-0.1-0.3-0.1
		c-0.1,0-0.2-0.1-0.3-0.1c-0.1,0-0.2-0.1-0.3-0.2c-0.1-0.1-0.1-0.1-0.2-0.2c0-0.1-0.1-0.2-0.1-0.3c0-0.1,0-0.2,0.1-0.3
		c0-0.1,0.1-0.2,0.2-0.3c0.1-0.1,0.2-0.1,0.3-0.2s0.3-0.1,0.5-0.1c0.2,0,0.4,0,0.5,0.1c0.2,0.1,0.3,0.1,0.4,0.3L187.2,43.3z"/>
</g>
<g class="st7">
	<path class="st9" d="M99.6,116C99.6,116.1,99.6,116.1,99.6,116c-0.1,0-0.1,0-0.1,0s-0.1-0.1-0.1-0.1s-0.1-0.1-0.2-0.1
		c-0.1,0-0.2,0-0.3,0c-0.1,0-0.2,0-0.3,0c-0.1,0-0.2,0.1-0.2,0.1c-0.1,0-0.1,0.1-0.1,0.2s-0.1,0.1-0.1,0.2c0,0.1,0,0.2,0.1,0.2
		s0.1,0.1,0.2,0.2c0.1,0,0.2,0.1,0.3,0.1c0.1,0,0.2,0.1,0.3,0.1c0.1,0,0.2,0.1,0.3,0.1c0.1,0,0.2,0.1,0.3,0.1
		c0.1,0.1,0.1,0.1,0.2,0.2c0,0.1,0.1,0.2,0.1,0.3c0,0.1,0,0.2-0.1,0.4c0,0.1-0.1,0.2-0.2,0.3s-0.2,0.1-0.3,0.2
		c-0.1,0-0.3,0.1-0.4,0.1c-0.2,0-0.4,0-0.5-0.1c-0.1-0.1-0.3-0.1-0.4-0.3l0.1-0.1c0,0,0,0,0,0s0,0,0,0c0,0,0.1,0,0.1,0
		c0,0,0.1,0.1,0.1,0.1c0.1,0,0.1,0.1,0.2,0.1c0.1,0,0.2,0,0.3,0c0.1,0,0.2,0,0.3-0.1c0.1,0,0.2-0.1,0.2-0.1c0.1-0.1,0.1-0.1,0.1-0.2
		c0-0.1,0-0.2,0-0.2c0-0.1,0-0.2-0.1-0.2c0-0.1-0.1-0.1-0.2-0.2c-0.1,0-0.2-0.1-0.3-0.1c-0.1,0-0.2-0.1-0.3-0.1
		c-0.1,0-0.2-0.1-0.3-0.1c-0.1,0-0.2-0.1-0.3-0.1c-0.1-0.1-0.1-0.1-0.2-0.2s-0.1-0.2-0.1-0.3c0-0.1,0-0.2,0.1-0.3s0.1-0.2,0.2-0.2
		c0.1-0.1,0.2-0.1,0.3-0.2c0.1,0,0.2-0.1,0.4-0.1c0.2,0,0.3,0,0.5,0.1C99.4,115.8,99.6,115.8,99.6,116L99.6,116z"/>
	<path class="st9" d="M101.3,118.6c-0.2,0-0.3-0.1-0.5-0.2c-0.1-0.1-0.2-0.3-0.2-0.5v-2h-0.4c0,0,0,0-0.1,0c0,0,0,0,0,0v-0.1l0.5,0
		l0.1-1c0,0,0,0,0,0c0,0,0,0,0.1,0h0.1v1.1h0.9v0.2H101v2c0,0.1,0,0.1,0,0.2c0,0.1,0,0.1,0.1,0.1c0,0,0.1,0.1,0.1,0.1s0.1,0,0.2,0
		c0.1,0,0.1,0,0.2,0s0.1,0,0.1-0.1c0,0,0.1,0,0.1-0.1c0,0,0,0,0.1,0c0,0,0,0,0,0l0.1,0.1c-0.1,0.1-0.2,0.1-0.3,0.2
		C101.5,118.6,101.4,118.6,101.3,118.6z"/>
	<path class="st9" d="M103.7,115.6c0.2,0,0.3,0,0.5,0.1c0.1,0.1,0.3,0.1,0.4,0.2s0.2,0.2,0.2,0.4s0.1,0.3,0.1,0.5c0,0,0,0.1,0,0.1
		c0,0,0,0-0.1,0h-2.1v0.1c0,0.2,0,0.4,0.1,0.6s0.1,0.3,0.2,0.4s0.2,0.2,0.3,0.3c0.1,0.1,0.3,0.1,0.4,0.1c0.1,0,0.3,0,0.4,0
		c0.1,0,0.2-0.1,0.3-0.1c0.1,0,0.1-0.1,0.2-0.1c0,0,0.1,0,0.1,0c0,0,0,0,0.1,0l0.1,0.1c0,0.1-0.1,0.1-0.2,0.2
		c-0.1,0.1-0.2,0.1-0.3,0.1c-0.1,0-0.2,0.1-0.3,0.1c-0.1,0-0.2,0-0.3,0c-0.2,0-0.4,0-0.5-0.1c-0.2-0.1-0.3-0.2-0.4-0.3
		s-0.2-0.3-0.3-0.5s-0.1-0.4-0.1-0.7c0-0.2,0-0.4,0.1-0.6c0.1-0.2,0.1-0.3,0.3-0.5c0.1-0.1,0.2-0.2,0.4-0.3
		C103.3,115.7,103.5,115.6,103.7,115.6z M103.7,115.8c-0.1,0-0.3,0-0.4,0.1c-0.1,0-0.2,0.1-0.3,0.2s-0.2,0.2-0.2,0.3
		c-0.1,0.1-0.1,0.3-0.1,0.4h1.9c0-0.2,0-0.3-0.1-0.4s-0.1-0.2-0.2-0.3s-0.2-0.2-0.3-0.2C103.9,115.9,103.8,115.8,103.7,115.8z"/>
	<path class="st9" d="M106.6,118.6h-0.2l-1.2-2.9h0.2c0,0,0,0,0.1,0c0,0,0,0,0,0l1,2.3c0,0,0,0.1,0,0.1c0,0,0,0.1,0,0.1
		c0,0,0-0.1,0-0.1c0,0,0-0.1,0-0.1l1-2.3c0,0,0,0,0-0.1c0,0,0,0,0.1,0h0.2L106.6,118.6z"/>
	<path class="st9" d="M109.3,115.6c0.2,0,0.3,0,0.5,0.1c0.1,0.1,0.3,0.1,0.4,0.2s0.2,0.2,0.2,0.4s0.1,0.3,0.1,0.5c0,0,0,0.1,0,0.1
		c0,0,0,0-0.1,0h-2.1v0.1c0,0.2,0,0.4,0.1,0.6s0.1,0.3,0.2,0.4s0.2,0.2,0.3,0.3c0.1,0.1,0.3,0.1,0.4,0.1c0.1,0,0.3,0,0.4,0
		c0.1,0,0.2-0.1,0.3-0.1c0.1,0,0.1-0.1,0.2-0.1c0,0,0.1,0,0.1,0c0,0,0,0,0.1,0l0.1,0.1c0,0.1-0.1,0.1-0.2,0.2
		c-0.1,0.1-0.2,0.1-0.3,0.1c-0.1,0-0.2,0.1-0.3,0.1c-0.1,0-0.2,0-0.3,0c-0.2,0-0.4,0-0.5-0.1c-0.2-0.1-0.3-0.2-0.4-0.3
		s-0.2-0.3-0.3-0.5s-0.1-0.4-0.1-0.7c0-0.2,0-0.4,0.1-0.6c0.1-0.2,0.1-0.3,0.3-0.5c0.1-0.1,0.2-0.2,0.4-0.3
		C109,115.7,109.1,115.6,109.3,115.6z M109.4,115.8c-0.1,0-0.3,0-0.4,0.1c-0.1,0-0.2,0.1-0.3,0.2s-0.2,0.2-0.2,0.3
		c-0.1,0.1-0.1,0.3-0.1,0.4h1.9c0-0.2,0-0.3-0.1-0.4s-0.1-0.2-0.2-0.3s-0.2-0.2-0.3-0.2C109.6,115.9,109.5,115.8,109.4,115.8z"/>
	<path class="st9" d="M111.1,118.3c0,0,0-0.1,0-0.1c0,0,0-0.1,0.1-0.1c0,0,0.1,0,0.1-0.1c0,0,0.1,0,0.1,0c0,0,0.1,0,0.1,0
		s0.1,0,0.1,0.1c0,0,0,0.1,0.1,0.1c0,0,0,0.1,0,0.1c0,0,0,0.1,0,0.1c0,0,0,0.1-0.1,0.1c0,0-0.1,0-0.1,0.1s-0.1,0-0.1,0
		c-0.1,0-0.1,0-0.2-0.1C111.1,118.5,111.1,118.4,111.1,118.3z"/>
	<path class="st9" d="M114.3,116.1C114.3,116.1,114.2,116.1,114.3,116.1C114.2,116.1,114.2,116.1,114.3,116.1c-0.1,0-0.1,0-0.1,0
		S114,116,114,116c-0.1,0-0.1-0.1-0.2-0.1s-0.2,0-0.3,0c-0.2,0-0.3,0-0.4,0.1c-0.1,0.1-0.2,0.1-0.3,0.3s-0.2,0.2-0.2,0.4
		c0,0.2-0.1,0.3-0.1,0.5c0,0.2,0,0.4,0.1,0.5s0.1,0.3,0.2,0.4s0.2,0.2,0.3,0.2c0.1,0.1,0.3,0.1,0.4,0.1c0.1,0,0.3,0,0.3,0
		c0.1,0,0.2-0.1,0.2-0.1c0.1,0,0.1-0.1,0.1-0.1c0,0,0.1,0,0.1,0c0,0,0,0,0.1,0l0.1,0.1c0,0.1-0.1,0.1-0.2,0.2
		c-0.1,0.1-0.1,0.1-0.2,0.1c-0.1,0-0.2,0.1-0.3,0.1c-0.1,0-0.2,0-0.3,0c-0.2,0-0.4,0-0.5-0.1s-0.3-0.2-0.4-0.3
		c-0.1-0.1-0.2-0.3-0.3-0.5c-0.1-0.2-0.1-0.4-0.1-0.6c0-0.2,0-0.4,0.1-0.6c0.1-0.2,0.1-0.3,0.3-0.5c0.1-0.1,0.2-0.2,0.4-0.3
		c0.2-0.1,0.3-0.1,0.6-0.1c0.2,0,0.4,0,0.5,0.1C114.1,115.8,114.2,115.9,114.3,116.1L114.3,116.1z"/>
	<path class="st9" d="M115.4,114.3v4.2h-0.3v-4.2H115.4z"/>
	<path class="st9" d="M116.9,114.7C116.9,114.7,116.9,114.8,116.9,114.7c0,0.1-0.1,0.2-0.1,0.2c0,0-0.1,0-0.1,0.1c0,0-0.1,0-0.1,0
		s-0.1,0-0.1,0s-0.1,0-0.1-0.1c0,0,0,0-0.1-0.1s0-0.1,0-0.1c0,0,0-0.1,0-0.1s0-0.1,0.1-0.1c0,0,0.1,0,0.1-0.1s0.1,0,0.1,0
		s0.1,0,0.1,0c0,0,0.1,0,0.1,0.1c0,0,0,0,0.1,0.1C116.9,114.6,116.9,114.7,116.9,114.7z M116.7,115.7v2.9h-0.3v-2.9H116.7z"/>
	<path class="st9" d="M117.8,118.6v-2.9h0.2c0.1,0,0.1,0,0.1,0.1l0,0.4c0.1-0.2,0.3-0.3,0.5-0.4s0.4-0.2,0.6-0.2
		c0.2,0,0.3,0,0.4,0.1c0.1,0.1,0.2,0.1,0.3,0.2c0.1,0.1,0.1,0.2,0.2,0.3c0,0.1,0.1,0.3,0.1,0.5v1.8h-0.3v-1.8c0-0.3-0.1-0.5-0.2-0.6
		c-0.1-0.2-0.3-0.2-0.6-0.2c-0.2,0-0.4,0-0.5,0.1c-0.2,0.1-0.3,0.2-0.4,0.4v2.2H117.8z"/>
	<path class="st9" d="M121.7,118.6c-0.2,0-0.3-0.1-0.5-0.2c-0.1-0.1-0.2-0.3-0.2-0.5v-2h-0.4c0,0,0,0-0.1,0c0,0,0,0,0,0v-0.1l0.5,0
		l0.1-1c0,0,0,0,0,0c0,0,0,0,0.1,0h0.1v1.1h0.9v0.2h-0.9v2c0,0.1,0,0.1,0,0.2c0,0.1,0,0.1,0.1,0.1c0,0,0.1,0.1,0.1,0.1s0.1,0,0.2,0
		c0.1,0,0.1,0,0.2,0s0.1,0,0.1-0.1c0,0,0.1,0,0.1-0.1c0,0,0,0,0.1,0c0,0,0,0,0,0l0.1,0.1c-0.1,0.1-0.2,0.1-0.3,0.2
		C121.9,118.6,121.8,118.6,121.7,118.6z"/>
	<path class="st9" d="M124.1,115.6c0.2,0,0.4,0,0.6,0.1c0.2,0.1,0.3,0.2,0.4,0.3c0.1,0.1,0.2,0.3,0.3,0.5c0.1,0.2,0.1,0.4,0.1,0.6
		c0,0.2,0,0.4-0.1,0.6c-0.1,0.2-0.1,0.3-0.3,0.5c-0.1,0.1-0.2,0.2-0.4,0.3c-0.2,0.1-0.3,0.1-0.6,0.1c-0.2,0-0.4,0-0.6-0.1
		c-0.2-0.1-0.3-0.2-0.4-0.3c-0.1-0.1-0.2-0.3-0.3-0.5c-0.1-0.2-0.1-0.4-0.1-0.6c0-0.2,0-0.4,0.1-0.6c0.1-0.2,0.1-0.3,0.3-0.5
		c0.1-0.1,0.3-0.2,0.4-0.3C123.7,115.7,123.9,115.6,124.1,115.6z M124.1,118.4c0.2,0,0.3,0,0.5-0.1c0.1-0.1,0.2-0.1,0.3-0.3
		s0.1-0.2,0.2-0.4c0-0.2,0.1-0.3,0.1-0.5c0-0.2,0-0.4-0.1-0.5c0-0.2-0.1-0.3-0.2-0.4c-0.1-0.1-0.2-0.2-0.3-0.3
		c-0.1-0.1-0.3-0.1-0.5-0.1c-0.2,0-0.3,0-0.5,0.1c-0.1,0.1-0.2,0.1-0.3,0.3c-0.1,0.1-0.2,0.2-0.2,0.4c0,0.2-0.1,0.3-0.1,0.5
		c0,0.2,0,0.4,0.1,0.5c0,0.2,0.1,0.3,0.2,0.4c0.1,0.1,0.2,0.2,0.3,0.3C123.7,118.4,123.9,118.4,124.1,118.4z"/>
	<path class="st9" d="M126.1,118.6v-2.9h0.2c0.1,0,0.1,0,0.1,0.1l0,0.4c0.1-0.2,0.3-0.3,0.5-0.4s0.4-0.2,0.6-0.2
		c0.2,0,0.3,0,0.4,0.1c0.1,0.1,0.2,0.1,0.3,0.2c0.1,0.1,0.1,0.2,0.2,0.3c0,0.1,0.1,0.3,0.1,0.5v1.8h-0.3v-1.8c0-0.3-0.1-0.5-0.2-0.6
		c-0.1-0.2-0.3-0.2-0.6-0.2c-0.2,0-0.4,0-0.5,0.1c-0.2,0.1-0.3,0.2-0.4,0.4v2.2H126.1z"/>
	<path class="st9" d="M132.1,118c-0.2,0-0.3,0-0.4-0.1s-0.1-0.2-0.1-0.4c-0.1,0.2-0.2,0.3-0.4,0.4s-0.3,0.1-0.4,0.1
		c-0.1,0-0.2,0-0.3-0.1c-0.1,0-0.1-0.1-0.2-0.2c-0.1-0.1-0.1-0.1-0.1-0.2s0-0.2,0-0.3c0-0.2,0-0.3,0.1-0.5c0.1-0.2,0.2-0.3,0.3-0.4
		c0.1-0.1,0.3-0.2,0.4-0.3s0.4-0.1,0.6-0.1c0.1,0,0.2,0,0.3,0c0.1,0,0.2,0,0.2,0.1l-0.3,1c0,0.1,0,0.2-0.1,0.2s0,0.1,0,0.2
		c0,0.1,0,0.2,0,0.2c0,0.1,0,0.1,0.1,0.1s0.1,0.1,0.1,0.1s0.1,0,0.1,0c0.1,0,0.2,0,0.3-0.1s0.2-0.1,0.3-0.2s0.1-0.2,0.2-0.4
		s0.1-0.3,0.1-0.5c0-0.3,0-0.5-0.1-0.8c-0.1-0.2-0.2-0.4-0.4-0.5c-0.2-0.1-0.3-0.2-0.6-0.3c-0.2-0.1-0.4-0.1-0.7-0.1
		c-0.3,0-0.5,0.1-0.8,0.2c-0.2,0.1-0.4,0.2-0.6,0.4s-0.3,0.4-0.4,0.7s-0.2,0.5-0.2,0.8c0,0.3,0.1,0.6,0.2,0.9
		c0.1,0.3,0.3,0.5,0.4,0.7s0.4,0.3,0.7,0.4c0.2,0.1,0.5,0.1,0.8,0.1c0.3,0,0.5,0,0.8-0.1c0.2-0.1,0.5-0.2,0.6-0.3c0,0,0,0,0,0
		c0,0,0,0,0.1,0l0,0.1c-0.2,0.1-0.5,0.3-0.7,0.3c-0.3,0.1-0.5,0.1-0.9,0.1c-0.3,0-0.6-0.1-0.9-0.2c-0.3-0.1-0.5-0.2-0.7-0.4
		c-0.2-0.2-0.4-0.4-0.5-0.7c-0.1-0.3-0.2-0.6-0.2-1c0-0.3,0.1-0.6,0.2-0.9c0.1-0.3,0.3-0.5,0.5-0.7s0.4-0.4,0.7-0.5s0.5-0.2,0.8-0.2
		c0.3,0,0.5,0,0.7,0.1c0.2,0.1,0.4,0.2,0.6,0.4c0.2,0.2,0.3,0.4,0.4,0.6c0.1,0.2,0.2,0.5,0.2,0.8c0,0.2,0,0.4-0.1,0.6
		c-0.1,0.2-0.1,0.3-0.2,0.4c-0.1,0.1-0.2,0.2-0.3,0.3C132.4,118,132.3,118,132.1,118z M130.9,117.8c0.1,0,0.1,0,0.2,0
		c0.1,0,0.1-0.1,0.2-0.1c0.1-0.1,0.1-0.1,0.2-0.2s0.1-0.2,0.2-0.4l0.2-0.9c0,0-0.1,0-0.1,0s-0.1,0-0.2,0c-0.2,0-0.3,0-0.5,0.1
		c-0.1,0.1-0.3,0.2-0.4,0.3s-0.2,0.2-0.2,0.4c-0.1,0.1-0.1,0.3-0.1,0.4c0,0.1,0,0.1,0,0.2c0,0.1,0,0.1,0.1,0.2c0,0,0.1,0.1,0.1,0.1
		S130.8,117.8,130.9,117.8z"/>
	<path class="st9" d="M135.1,115.6c0.2,0,0.4,0,0.6,0.1c0.2,0.1,0.3,0.2,0.4,0.3c0.1,0.1,0.2,0.3,0.3,0.5s0.1,0.4,0.1,0.6
		c0,0.2,0,0.4-0.1,0.6s-0.1,0.3-0.3,0.5c-0.1,0.1-0.2,0.2-0.4,0.3c-0.2,0.1-0.3,0.1-0.6,0.1s-0.4,0-0.6-0.1
		c-0.2-0.1-0.3-0.2-0.4-0.3s-0.2-0.3-0.3-0.5s-0.1-0.4-0.1-0.6c0-0.2,0-0.4,0.1-0.6s0.1-0.3,0.3-0.5c0.1-0.1,0.3-0.2,0.4-0.3
		C134.7,115.7,134.9,115.6,135.1,115.6z M135.1,118.4c0.2,0,0.3,0,0.5-0.1c0.1-0.1,0.2-0.1,0.3-0.3s0.2-0.2,0.2-0.4
		c0-0.2,0.1-0.3,0.1-0.5c0-0.2,0-0.4-0.1-0.5c0-0.2-0.1-0.3-0.2-0.4c-0.1-0.1-0.2-0.2-0.3-0.3c-0.1-0.1-0.3-0.1-0.5-0.1
		s-0.3,0-0.5,0.1c-0.1,0.1-0.2,0.1-0.3,0.3c-0.1,0.1-0.2,0.2-0.2,0.4c0,0.2-0.1,0.3-0.1,0.5c0,0.2,0,0.4,0.1,0.5
		c0,0.2,0.1,0.3,0.2,0.4s0.2,0.2,0.3,0.3C134.8,118.4,134.9,118.4,135.1,118.4z"/>
	<path class="st9" d="M137.1,118.6v-2.9h0.1c0,0,0.1,0,0.1,0c0,0,0,0,0,0.1l0,0.6c0.1-0.2,0.2-0.4,0.4-0.5c0.2-0.1,0.3-0.2,0.6-0.2
		c0.1,0,0.2,0,0.2,0c0.1,0,0.1,0,0.2,0.1l0,0.2c0,0,0,0-0.1,0c0,0,0,0,0,0c0,0,0,0-0.1,0c0,0-0.1,0-0.1,0c0,0-0.1,0-0.2,0
		c-0.2,0-0.4,0.1-0.5,0.2c-0.1,0.1-0.3,0.3-0.3,0.6v1.9H137.1z"/>
	<path class="st9" d="M139.5,118.6v-4.2h0.3l0,1.8c0.1-0.2,0.3-0.3,0.4-0.4c0.2-0.1,0.4-0.1,0.6-0.1c0.4,0,0.6,0.1,0.8,0.4
		c0.2,0.2,0.3,0.6,0.3,1.1c0,0.2,0,0.4-0.1,0.6c-0.1,0.2-0.1,0.3-0.2,0.5c-0.1,0.1-0.2,0.2-0.4,0.3c-0.2,0.1-0.3,0.1-0.5,0.1
		c-0.2,0-0.4,0-0.5-0.1c-0.1-0.1-0.3-0.2-0.4-0.3l0,0.4c0,0,0,0.1-0.1,0.1H139.5z M140.7,115.9c-0.2,0-0.4,0-0.5,0.1
		c-0.2,0.1-0.3,0.2-0.4,0.4v1.5c0.1,0.2,0.2,0.3,0.4,0.3c0.1,0.1,0.3,0.1,0.5,0.1c0.2,0,0.3,0,0.4-0.1c0.1-0.1,0.2-0.1,0.3-0.3
		c0.1-0.1,0.2-0.2,0.2-0.4s0.1-0.3,0.1-0.5c0-0.4-0.1-0.7-0.2-0.9C141.2,116,141,115.9,140.7,115.9z"/>
	<path class="st9" d="M143.1,114.7C143.1,114.7,143.1,114.8,143.1,114.7c0,0.1-0.1,0.2-0.1,0.2c0,0,0,0-0.1,0.1s-0.1,0-0.1,0
		c0,0-0.1,0-0.1,0c0,0-0.1,0-0.1-0.1c0,0,0,0-0.1-0.1s0-0.1,0-0.1c0,0,0-0.1,0-0.1s0-0.1,0.1-0.1c0,0,0.1,0,0.1-0.1c0,0,0.1,0,0.1,0
		c0,0,0.1,0,0.1,0s0.1,0,0.1,0.1c0,0,0,0,0.1,0.1S143.1,114.7,143.1,114.7z M143,115.7v2.9h-0.3v-2.9H143z"/>
	<path class="st9" d="M144.8,118.6c-0.2,0-0.3-0.1-0.5-0.2s-0.2-0.3-0.2-0.5v-2h-0.4c0,0,0,0-0.1,0c0,0,0,0,0,0v-0.1l0.5,0l0.1-1
		c0,0,0,0,0,0c0,0,0,0,0.1,0h0.1v1.1h0.9v0.2h-0.9v2c0,0.1,0,0.1,0,0.2c0,0.1,0,0.1,0.1,0.1c0,0,0.1,0.1,0.1,0.1c0,0,0.1,0,0.2,0
		c0.1,0,0.1,0,0.2,0c0.1,0,0.1,0,0.1-0.1c0,0,0.1,0,0.1-0.1s0,0,0.1,0c0,0,0,0,0,0l0.1,0.1c-0.1,0.1-0.2,0.1-0.3,0.2
		C145,118.6,144.9,118.6,144.8,118.6z"/>
	<path class="st9" d="M147,115.6c0.1,0,0.2,0,0.3,0c0.1,0,0.2,0.1,0.3,0.1h0.7v0.1c0,0,0,0.1-0.1,0.1l-0.4,0
		c0.1,0.1,0.1,0.2,0.1,0.2c0,0.1,0,0.2,0,0.3c0,0.1,0,0.3-0.1,0.4c-0.1,0.1-0.1,0.2-0.2,0.3s-0.2,0.1-0.3,0.2
		c-0.1,0-0.3,0.1-0.4,0.1c-0.2,0-0.3,0-0.5-0.1c-0.1,0-0.1,0.1-0.2,0.2c0,0.1-0.1,0.1-0.1,0.2c0,0.1,0,0.1,0.1,0.2
		c0.1,0,0.1,0.1,0.2,0.1s0.2,0,0.3,0c0.1,0,0.2,0,0.4,0c0.1,0,0.3,0,0.4,0c0.1,0,0.2,0,0.3,0.1c0.1,0,0.2,0.1,0.2,0.2
		c0.1,0.1,0.1,0.2,0.1,0.3c0,0.1,0,0.2-0.1,0.3c-0.1,0.1-0.1,0.2-0.3,0.3s-0.2,0.2-0.4,0.2c-0.2,0.1-0.3,0.1-0.5,0.1
		c-0.2,0-0.4,0-0.5-0.1c-0.2,0-0.3-0.1-0.4-0.2c-0.1-0.1-0.2-0.2-0.2-0.2c-0.1-0.1-0.1-0.2-0.1-0.3c0-0.2,0.1-0.3,0.2-0.4
		s0.2-0.2,0.4-0.3c-0.1,0-0.2-0.1-0.2-0.1c-0.1-0.1-0.1-0.1-0.1-0.3c0,0,0-0.1,0-0.1c0,0,0-0.1,0.1-0.1c0,0,0.1-0.1,0.1-0.1
		c0,0,0.1-0.1,0.2-0.1c-0.1-0.1-0.2-0.2-0.3-0.3s-0.1-0.3-0.1-0.5c0-0.1,0-0.3,0.1-0.4c0-0.1,0.1-0.2,0.2-0.3s0.2-0.1,0.3-0.2
		C146.7,115.7,146.8,115.6,147,115.6z M148.1,118.8c0-0.1,0-0.2-0.1-0.2c0-0.1-0.1-0.1-0.2-0.1c-0.1,0-0.2-0.1-0.3-0.1s-0.2,0-0.3,0
		c-0.1,0-0.2,0-0.3,0c-0.1,0-0.2,0-0.3,0c-0.1,0-0.1,0.1-0.2,0.1c-0.1,0-0.1,0.1-0.2,0.1c0,0-0.1,0.1-0.1,0.2c0,0.1,0,0.1,0,0.2
		c0,0.1,0,0.2,0.1,0.2c0,0.1,0.1,0.1,0.2,0.2c0.1,0.1,0.2,0.1,0.3,0.1c0.1,0,0.3,0,0.4,0c0.1,0,0.3,0,0.4,0c0.1,0,0.2-0.1,0.3-0.1
		c0.1-0.1,0.2-0.1,0.2-0.2C148,119,148.1,118.9,148.1,118.8z M147,117.3c0.1,0,0.2,0,0.3-0.1c0.1,0,0.2-0.1,0.2-0.1
		c0.1-0.1,0.1-0.1,0.1-0.2c0-0.1,0.1-0.2,0.1-0.3s0-0.2-0.1-0.3c0-0.1-0.1-0.2-0.2-0.2c-0.1-0.1-0.1-0.1-0.2-0.1
		c-0.1,0-0.2-0.1-0.3-0.1c-0.1,0-0.2,0-0.3,0.1c-0.1,0-0.2,0.1-0.2,0.1c-0.1,0.1-0.1,0.1-0.2,0.2c0,0.1-0.1,0.2-0.1,0.3
		s0,0.2,0.1,0.3c0,0.1,0.1,0.2,0.2,0.2c0.1,0.1,0.1,0.1,0.2,0.1S146.9,117.3,147,117.3z"/>
	<path class="st9" d="M149,118.6v-2.9h0.1c0,0,0.1,0,0.1,0c0,0,0,0,0,0.1l0,0.6c0.1-0.2,0.2-0.4,0.4-0.5c0.2-0.1,0.3-0.2,0.6-0.2
		c0.1,0,0.2,0,0.2,0c0.1,0,0.1,0,0.2,0.1l0,0.2c0,0,0,0-0.1,0c0,0,0,0,0,0c0,0,0,0-0.1,0c0,0-0.1,0-0.1,0c0,0-0.1,0-0.2,0
		c-0.2,0-0.4,0.1-0.5,0.2c-0.1,0.1-0.3,0.3-0.3,0.6v1.9H149z"/>
	<path class="st9" d="M152.4,115.6c0.2,0,0.4,0,0.6,0.1c0.2,0.1,0.3,0.2,0.4,0.3c0.1,0.1,0.2,0.3,0.3,0.5c0.1,0.2,0.1,0.4,0.1,0.6
		c0,0.2,0,0.4-0.1,0.6c-0.1,0.2-0.1,0.3-0.3,0.5s-0.2,0.2-0.4,0.3c-0.2,0.1-0.3,0.1-0.6,0.1c-0.2,0-0.4,0-0.6-0.1
		c-0.2-0.1-0.3-0.2-0.4-0.3c-0.1-0.1-0.2-0.3-0.3-0.5c-0.1-0.2-0.1-0.4-0.1-0.6c0-0.2,0-0.4,0.1-0.6c0.1-0.2,0.1-0.3,0.3-0.5
		c0.1-0.1,0.3-0.2,0.4-0.3C152,115.7,152.2,115.6,152.4,115.6z M152.4,118.4c0.2,0,0.3,0,0.5-0.1c0.1-0.1,0.2-0.1,0.3-0.3
		s0.1-0.2,0.2-0.4c0-0.2,0.1-0.3,0.1-0.5c0-0.2,0-0.4-0.1-0.5c0-0.2-0.1-0.3-0.2-0.4c-0.1-0.1-0.2-0.2-0.3-0.3
		c-0.1-0.1-0.3-0.1-0.5-0.1c-0.2,0-0.3,0-0.5,0.1c-0.1,0.1-0.2,0.1-0.3,0.3c-0.1,0.1-0.2,0.2-0.2,0.4c0,0.2-0.1,0.3-0.1,0.5
		c0,0.2,0,0.4,0.1,0.5c0,0.2,0.1,0.3,0.2,0.4c0.1,0.1,0.2,0.2,0.3,0.3C152,118.4,152.2,118.4,152.4,118.4z"/>
	<path class="st9" d="M154.6,115.7v1.8c0,0.3,0.1,0.5,0.2,0.6c0.1,0.2,0.3,0.2,0.6,0.2c0.2,0,0.4,0,0.5-0.1c0.2-0.1,0.3-0.2,0.4-0.4
		v-2.2h0.3v2.9h-0.2c-0.1,0-0.1,0-0.1-0.1l0-0.4c-0.1,0.2-0.3,0.3-0.5,0.4c-0.2,0.1-0.4,0.2-0.6,0.2c-0.2,0-0.3,0-0.4-0.1
		c-0.1,0-0.2-0.1-0.3-0.2c-0.1-0.1-0.1-0.2-0.2-0.3c0-0.1-0.1-0.3-0.1-0.5v-1.8H154.6z"/>
	<path class="st9" d="M157.5,119.6v-3.9h0.2c0,0,0,0,0.1,0s0,0,0,0.1l0,0.4c0.1-0.2,0.3-0.3,0.4-0.4c0.2-0.1,0.4-0.2,0.6-0.2
		c0.4,0,0.6,0.1,0.8,0.4c0.2,0.2,0.3,0.6,0.3,1.1c0,0.2,0,0.4-0.1,0.6c-0.1,0.2-0.1,0.3-0.2,0.5c-0.1,0.1-0.2,0.2-0.4,0.3
		c-0.2,0.1-0.3,0.1-0.5,0.1c-0.2,0-0.4,0-0.5-0.1c-0.1-0.1-0.3-0.2-0.4-0.3v1.4H157.5z M158.8,115.9c-0.2,0-0.4,0-0.5,0.1
		c-0.2,0.1-0.3,0.2-0.4,0.4v1.5c0.1,0.2,0.2,0.3,0.4,0.4c0.1,0.1,0.3,0.1,0.5,0.1c0.2,0,0.3,0,0.4-0.1c0.1-0.1,0.2-0.1,0.3-0.3
		c0.1-0.1,0.2-0.2,0.2-0.4c0-0.2,0.1-0.3,0.1-0.5c0-0.4-0.1-0.7-0.2-0.9C159.3,116,159,115.9,158.8,115.9z"/>
	<path class="st9" d="M160.5,118.3c0,0,0-0.1,0-0.1c0,0,0-0.1,0.1-0.1c0,0,0.1,0,0.1-0.1c0,0,0.1,0,0.1,0c0,0,0.1,0,0.1,0
		c0,0,0.1,0,0.1,0.1c0,0,0,0.1,0.1,0.1c0,0,0,0.1,0,0.1c0,0,0,0.1,0,0.1c0,0,0,0.1-0.1,0.1c0,0-0.1,0-0.1,0.1c0,0-0.1,0-0.1,0
		c-0.1,0-0.1,0-0.2-0.1C160.5,118.5,160.5,118.4,160.5,118.3z"/>
	<path class="st9" d="M163.7,116.1C163.7,116.1,163.7,116.1,163.7,116.1C163.7,116.1,163.6,116.1,163.7,116.1c-0.1,0-0.1,0-0.1,0
		c0,0-0.1-0.1-0.1-0.1c-0.1,0-0.1-0.1-0.2-0.1s-0.2,0-0.3,0c-0.2,0-0.3,0-0.4,0.1c-0.1,0.1-0.2,0.1-0.3,0.3s-0.2,0.2-0.2,0.4
		c0,0.2-0.1,0.3-0.1,0.5c0,0.2,0,0.4,0.1,0.5c0,0.2,0.1,0.3,0.2,0.4s0.2,0.2,0.3,0.2c0.1,0.1,0.3,0.1,0.4,0.1c0.1,0,0.3,0,0.3,0
		c0.1,0,0.2-0.1,0.2-0.1c0.1,0,0.1-0.1,0.1-0.1c0,0,0.1,0,0.1,0c0,0,0,0,0.1,0l0.1,0.1c0,0.1-0.1,0.1-0.2,0.2
		c-0.1,0.1-0.1,0.1-0.2,0.1c-0.1,0-0.2,0.1-0.3,0.1c-0.1,0-0.2,0-0.3,0c-0.2,0-0.4,0-0.5-0.1c-0.2-0.1-0.3-0.2-0.4-0.3
		c-0.1-0.1-0.2-0.3-0.3-0.5c-0.1-0.2-0.1-0.4-0.1-0.6c0-0.2,0-0.4,0.1-0.6s0.1-0.3,0.3-0.5c0.1-0.1,0.2-0.2,0.4-0.3
		c0.2-0.1,0.3-0.1,0.6-0.1c0.2,0,0.4,0,0.5,0.1C163.5,115.8,163.7,115.9,163.7,116.1L163.7,116.1z"/>
	<path class="st9" d="M166.3,118.6c-0.1,0-0.1,0-0.1-0.1l0-0.4c-0.1,0.1-0.2,0.1-0.2,0.2c-0.1,0.1-0.2,0.1-0.2,0.2
		c-0.1,0-0.2,0.1-0.3,0.1c-0.1,0-0.2,0-0.3,0c-0.1,0-0.2,0-0.3,0s-0.2-0.1-0.2-0.1c-0.1-0.1-0.1-0.1-0.2-0.2c0-0.1-0.1-0.2-0.1-0.3
		c0-0.1,0-0.2,0.1-0.3c0.1-0.1,0.2-0.2,0.3-0.3c0.1-0.1,0.3-0.1,0.6-0.2c0.2,0,0.5-0.1,0.8-0.1v-0.3c0-0.3-0.1-0.5-0.2-0.6
		c-0.1-0.1-0.3-0.2-0.5-0.2c-0.1,0-0.3,0-0.4,0.1c-0.1,0-0.2,0.1-0.2,0.1c-0.1,0-0.1,0.1-0.2,0.1c0,0-0.1,0.1-0.1,0.1
		c0,0-0.1,0-0.1-0.1l0-0.1c0.2-0.2,0.3-0.3,0.5-0.3c0.2-0.1,0.4-0.1,0.6-0.1c0.2,0,0.3,0,0.4,0.1c0.1,0,0.2,0.1,0.3,0.2
		s0.1,0.2,0.2,0.3c0,0.1,0.1,0.3,0.1,0.4v1.9H166.3z M165.1,118.4c0.1,0,0.2,0,0.3,0c0.1,0,0.2-0.1,0.3-0.1c0.1,0,0.2-0.1,0.2-0.2
		c0.1-0.1,0.1-0.1,0.2-0.2v-0.8c-0.3,0-0.5,0-0.7,0.1c-0.2,0-0.4,0.1-0.5,0.1c-0.1,0.1-0.2,0.1-0.3,0.2s-0.1,0.2-0.1,0.3
		c0,0.1,0,0.2,0,0.3c0,0.1,0.1,0.1,0.1,0.2c0.1,0,0.1,0.1,0.2,0.1C165,118.4,165,118.4,165.1,118.4z"/>
</g>
<g class="st7">
	<path class="st9" d="M204,115.8c0.2,0,0.4,0,0.6,0.1c0.2,0.1,0.3,0.2,0.4,0.3s0.2,0.3,0.3,0.5c0.1,0.2,0.1,0.4,0.1,0.6
		c0,0.2,0,0.4-0.1,0.6c-0.1,0.2-0.1,0.3-0.3,0.5s-0.3,0.2-0.4,0.3c-0.2,0.1-0.3,0.1-0.6,0.1c-0.2,0-0.4,0-0.6-0.1
		c-0.2-0.1-0.3-0.2-0.4-0.3c-0.1-0.1-0.2-0.3-0.3-0.5c-0.1-0.2-0.1-0.4-0.1-0.6c0-0.2,0-0.4,0.1-0.6c0.1-0.2,0.1-0.3,0.3-0.5
		c0.1-0.1,0.3-0.2,0.4-0.3C203.6,115.8,203.8,115.8,204,115.8z M204,118.5c0.2,0,0.3,0,0.5-0.1c0.1-0.1,0.2-0.1,0.3-0.3
		s0.2-0.2,0.2-0.4c0-0.2,0.1-0.3,0.1-0.5c0-0.2,0-0.4-0.1-0.5c0-0.2-0.1-0.3-0.2-0.4s-0.2-0.2-0.3-0.3c-0.1-0.1-0.3-0.1-0.5-0.1
		c-0.2,0-0.3,0-0.5,0.1c-0.1,0.1-0.2,0.1-0.3,0.3s-0.2,0.2-0.2,0.4c0,0.2-0.1,0.3-0.1,0.5c0,0.2,0,0.4,0.1,0.5
		c0,0.2,0.1,0.3,0.2,0.4s0.2,0.2,0.3,0.3C203.7,118.5,203.8,118.5,204,118.5z"/>
	<path class="st9" d="M206.1,118.7v-2.9h0.1c0,0,0.1,0,0.1,0c0,0,0,0,0,0.1l0,0.6c0.1-0.2,0.2-0.4,0.4-0.6c0.2-0.1,0.3-0.2,0.6-0.2
		c0.1,0,0.2,0,0.2,0c0.1,0,0.1,0,0.2,0.1l0,0.2c0,0,0,0-0.1,0c0,0,0,0,0,0s0,0-0.1,0c0,0-0.1,0-0.1,0c0,0-0.1,0-0.2,0
		c-0.2,0-0.4,0.1-0.5,0.2s-0.3,0.3-0.3,0.6v1.9H206.1z"/>
	<path class="st9" d="M208.4,118.7v-4.2h0.3l0,1.8c0.1-0.2,0.3-0.3,0.4-0.4c0.2-0.1,0.4-0.1,0.6-0.1c0.4,0,0.6,0.1,0.8,0.4
		c0.2,0.2,0.3,0.6,0.3,1.1c0,0.2,0,0.4-0.1,0.6c-0.1,0.2-0.1,0.3-0.2,0.5s-0.2,0.2-0.4,0.3c-0.2,0.1-0.3,0.1-0.5,0.1
		c-0.2,0-0.4,0-0.5-0.1c-0.1-0.1-0.3-0.2-0.4-0.3l0,0.4c0,0,0,0.1-0.1,0.1H208.4z M209.6,116c-0.2,0-0.4,0-0.5,0.1s-0.3,0.2-0.4,0.4
		v1.5c0.1,0.2,0.2,0.3,0.4,0.4c0.1,0.1,0.3,0.1,0.5,0.1c0.2,0,0.3,0,0.4-0.1c0.1-0.1,0.2-0.1,0.3-0.3c0.1-0.1,0.2-0.2,0.2-0.4
		c0-0.2,0.1-0.3,0.1-0.5c0-0.4-0.1-0.7-0.2-0.9C210.1,116.1,209.9,116,209.6,116z"/>
	<path class="st9" d="M212,114.8C212,114.9,212,114.9,212,114.8c0,0.1-0.1,0.2-0.1,0.2c0,0,0,0-0.1,0.1c0,0-0.1,0-0.1,0
		s-0.1,0-0.1,0c0,0-0.1,0-0.1-0.1s0,0-0.1-0.1s0-0.1,0-0.1c0,0,0-0.1,0-0.1c0,0,0-0.1,0.1-0.1s0.1,0,0.1-0.1c0,0,0.1,0,0.1,0
		s0.1,0,0.1,0s0.1,0,0.1,0.1C212,114.7,212,114.7,212,114.8C212,114.8,212,114.8,212,114.8z M211.9,115.8v2.9h-0.3v-2.9H211.9z"/>
	<path class="st9" d="M213.7,118.8c-0.2,0-0.3-0.1-0.5-0.2s-0.2-0.3-0.2-0.5v-2h-0.4c0,0,0,0-0.1,0s0,0,0,0V116l0.5,0l0.1-1
		c0,0,0,0,0,0s0,0,0.1,0h0.1v1.1h0.9v0.2h-0.9v2c0,0.1,0,0.1,0,0.2c0,0.1,0,0.1,0.1,0.1c0,0,0.1,0.1,0.1,0.1c0,0,0.1,0,0.2,0
		c0.1,0,0.1,0,0.2,0c0,0,0.1,0,0.1-0.1c0,0,0.1,0,0.1-0.1s0,0,0.1,0c0,0,0,0,0,0l0.1,0.1c-0.1,0.1-0.2,0.1-0.3,0.2
		C214,118.8,213.8,118.8,213.7,118.8z"/>
	<path class="st9" d="M216,115.8c0.1,0,0.2,0,0.4,0c0.1,0,0.2,0.1,0.3,0.1h0.7v0.1c0,0,0,0.1-0.1,0.1l-0.4,0
		c0.1,0.1,0.1,0.2,0.1,0.2c0,0.1,0,0.2,0,0.3c0,0.1,0,0.3-0.1,0.4c-0.1,0.1-0.1,0.2-0.2,0.3s-0.2,0.1-0.3,0.2s-0.3,0.1-0.4,0.1
		c-0.2,0-0.3,0-0.5-0.1c-0.1,0-0.1,0.1-0.2,0.2c0,0.1-0.1,0.1-0.1,0.2c0,0.1,0,0.1,0.1,0.2s0.1,0.1,0.2,0.1c0.1,0,0.2,0,0.3,0
		s0.2,0,0.4,0s0.3,0,0.4,0s0.2,0,0.3,0.1s0.2,0.1,0.2,0.2c0.1,0.1,0.1,0.2,0.1,0.3c0,0.1,0,0.2-0.1,0.3c-0.1,0.1-0.1,0.2-0.3,0.3
		c-0.1,0.1-0.3,0.2-0.4,0.2c-0.2,0.1-0.3,0.1-0.5,0.1c-0.2,0-0.4,0-0.5-0.1c-0.2,0-0.3-0.1-0.4-0.2c-0.1-0.1-0.2-0.2-0.2-0.2
		c-0.1-0.1-0.1-0.2-0.1-0.3c0-0.2,0-0.3,0.2-0.4c0.1-0.1,0.2-0.2,0.4-0.3c-0.1,0-0.2-0.1-0.2-0.1c-0.1-0.1-0.1-0.1-0.1-0.3
		c0,0,0-0.1,0-0.1c0,0,0-0.1,0.1-0.1c0,0,0.1-0.1,0.1-0.1c0,0,0.1-0.1,0.2-0.1c-0.1-0.1-0.2-0.2-0.3-0.3c-0.1-0.1-0.1-0.3-0.1-0.5
		c0-0.1,0-0.3,0.1-0.4c0-0.1,0.1-0.2,0.2-0.3c0.1-0.1,0.2-0.1,0.3-0.2C215.7,115.8,215.8,115.8,216,115.8z M217,118.9
		c0-0.1,0-0.2-0.1-0.2c0-0.1-0.1-0.1-0.2-0.1c-0.1,0-0.2-0.1-0.3-0.1c-0.1,0-0.2,0-0.3,0s-0.2,0-0.3,0s-0.2,0-0.3,0
		c-0.1,0-0.1,0.1-0.2,0.1c-0.1,0-0.1,0.1-0.2,0.1c0,0-0.1,0.1-0.1,0.2c0,0.1,0,0.1,0,0.2c0,0.1,0,0.2,0.1,0.2c0,0.1,0.1,0.1,0.2,0.2
		s0.2,0.1,0.3,0.1c0.1,0,0.3,0,0.4,0c0.1,0,0.3,0,0.4,0c0.1,0,0.2-0.1,0.3-0.1c0.1-0.1,0.2-0.1,0.2-0.2C217,119.1,217,119,217,118.9
		z M216,117.5c0.1,0,0.2,0,0.3-0.1c0.1,0,0.2-0.1,0.2-0.1c0.1-0.1,0.1-0.1,0.1-0.2c0-0.1,0.1-0.2,0.1-0.3s0-0.2-0.1-0.3
		c0-0.1-0.1-0.2-0.2-0.2c-0.1-0.1-0.1-0.1-0.2-0.1s-0.2-0.1-0.3-0.1s-0.2,0-0.3,0.1c-0.1,0-0.2,0.1-0.2,0.1
		c-0.1,0.1-0.1,0.1-0.2,0.2c0,0.1-0.1,0.2-0.1,0.3s0,0.2,0.1,0.3c0,0.1,0.1,0.2,0.2,0.2c0.1,0.1,0.1,0.1,0.2,0.1
		C215.7,117.4,215.8,117.5,216,117.5z"/>
	<path class="st9" d="M217.9,118.7v-2.9h0.1c0,0,0.1,0,0.1,0c0,0,0,0,0,0.1l0,0.6c0.1-0.2,0.2-0.4,0.4-0.6c0.2-0.1,0.3-0.2,0.6-0.2
		c0.1,0,0.2,0,0.2,0c0.1,0,0.1,0,0.2,0.1l0,0.2c0,0,0,0-0.1,0c0,0,0,0,0,0s0,0-0.1,0c0,0-0.1,0-0.1,0c0,0-0.1,0-0.2,0
		c-0.2,0-0.4,0.1-0.5,0.2s-0.3,0.3-0.3,0.6v1.9H217.9z"/>
	<path class="st9" d="M221.3,115.8c0.2,0,0.4,0,0.6,0.1c0.2,0.1,0.3,0.2,0.4,0.3c0.1,0.1,0.2,0.3,0.3,0.5c0.1,0.2,0.1,0.4,0.1,0.6
		c0,0.2,0,0.4-0.1,0.6c-0.1,0.2-0.1,0.3-0.3,0.5c-0.1,0.1-0.2,0.2-0.4,0.3c-0.2,0.1-0.3,0.1-0.6,0.1s-0.4,0-0.6-0.1
		c-0.2-0.1-0.3-0.2-0.4-0.3s-0.2-0.3-0.3-0.5c-0.1-0.2-0.1-0.4-0.1-0.6c0-0.2,0-0.4,0.1-0.6c0.1-0.2,0.1-0.3,0.3-0.5
		s0.3-0.2,0.4-0.3C221,115.8,221.1,115.8,221.3,115.8z M221.3,118.5c0.2,0,0.3,0,0.5-0.1c0.1-0.1,0.2-0.1,0.3-0.3
		c0.1-0.1,0.2-0.2,0.2-0.4c0-0.2,0.1-0.3,0.1-0.5c0-0.2,0-0.4-0.1-0.5c0-0.2-0.1-0.3-0.2-0.4c-0.1-0.1-0.2-0.2-0.3-0.3
		c-0.1-0.1-0.3-0.1-0.5-0.1s-0.3,0-0.5,0.1c-0.1,0.1-0.2,0.1-0.3,0.3c-0.1,0.1-0.2,0.2-0.2,0.4c0,0.2-0.1,0.3-0.1,0.5
		c0,0.2,0,0.4,0.1,0.5c0,0.2,0.1,0.3,0.2,0.4c0.1,0.1,0.2,0.2,0.3,0.3C221,118.5,221.2,118.5,221.3,118.5z"/>
	<path class="st9" d="M223.6,115.8v1.8c0,0.3,0.1,0.5,0.2,0.6c0.1,0.2,0.3,0.2,0.6,0.2c0.2,0,0.4,0,0.5-0.1c0.2-0.1,0.3-0.2,0.4-0.4
		v-2.2h0.3v2.9h-0.2c-0.1,0-0.1,0-0.1-0.1l0-0.4c-0.1,0.2-0.3,0.3-0.5,0.4s-0.4,0.2-0.6,0.2c-0.2,0-0.3,0-0.4-0.1
		c-0.1,0-0.2-0.1-0.3-0.2c-0.1-0.1-0.1-0.2-0.2-0.3c0-0.1-0.1-0.3-0.1-0.5v-1.8H223.6z"/>
	<path class="st9" d="M226.5,119.8v-3.9h0.2c0,0,0,0,0.1,0c0,0,0,0,0,0.1l0,0.4c0.1-0.2,0.3-0.3,0.4-0.4s0.4-0.2,0.6-0.2
		c0.4,0,0.6,0.1,0.8,0.4c0.2,0.2,0.3,0.6,0.3,1.1c0,0.2,0,0.4-0.1,0.6c-0.1,0.2-0.1,0.3-0.2,0.5s-0.2,0.2-0.4,0.3
		c-0.2,0.1-0.3,0.1-0.5,0.1c-0.2,0-0.4,0-0.5-0.1c-0.1-0.1-0.3-0.2-0.4-0.3v1.4H226.5z M227.8,116c-0.2,0-0.4,0-0.5,0.2
		c-0.2,0.1-0.3,0.2-0.4,0.4v1.5c0.1,0.2,0.2,0.3,0.4,0.4c0.1,0.1,0.3,0.1,0.5,0.1c0.2,0,0.3,0,0.4-0.1c0.1-0.1,0.2-0.1,0.3-0.3
		s0.2-0.2,0.2-0.4c0-0.2,0.1-0.3,0.1-0.5c0-0.4-0.1-0.7-0.2-0.9C228.3,116.1,228,116,227.8,116z"/>
	<path class="st9" d="M229.5,118.5c0,0,0-0.1,0-0.1c0,0,0-0.1,0.1-0.1s0.1,0,0.1-0.1c0,0,0.1,0,0.1,0c0,0,0.1,0,0.1,0
		c0,0,0.1,0,0.1,0.1s0,0.1,0.1,0.1c0,0,0,0.1,0,0.1c0,0,0,0.1,0,0.1c0,0,0,0.1-0.1,0.1s-0.1,0-0.1,0.1c0,0-0.1,0-0.1,0
		c-0.1,0-0.1,0-0.2-0.1C229.5,118.6,229.5,118.6,229.5,118.5z"/>
	<path class="st9" d="M232.7,116.2C232.7,116.2,232.7,116.2,232.7,116.2C232.7,116.3,232.7,116.3,232.7,116.2c-0.1,0-0.1,0-0.1,0
		s-0.1-0.1-0.1-0.1c-0.1,0-0.1-0.1-0.2-0.1c-0.1,0-0.2,0-0.3,0c-0.2,0-0.3,0-0.4,0.1c-0.1,0.1-0.2,0.1-0.3,0.3
		c-0.1,0.1-0.2,0.2-0.2,0.4c0,0.2-0.1,0.3-0.1,0.5c0,0.2,0,0.4,0.1,0.5c0,0.2,0.1,0.3,0.2,0.4c0.1,0.1,0.2,0.2,0.3,0.2
		c0.1,0.1,0.3,0.1,0.4,0.1c0.1,0,0.3,0,0.4,0c0.1,0,0.2-0.1,0.2-0.1c0.1,0,0.1-0.1,0.1-0.1c0,0,0.1,0,0.1,0c0,0,0,0,0.1,0l0.1,0.1
		c0,0.1-0.1,0.1-0.2,0.2c-0.1,0-0.1,0.1-0.2,0.1c-0.1,0-0.2,0.1-0.3,0.1c-0.1,0-0.2,0-0.3,0c-0.2,0-0.4,0-0.5-0.1
		c-0.2-0.1-0.3-0.2-0.4-0.3c-0.1-0.1-0.2-0.3-0.3-0.5c-0.1-0.2-0.1-0.4-0.1-0.6c0-0.2,0-0.4,0.1-0.6c0.1-0.2,0.1-0.3,0.3-0.5
		c0.1-0.1,0.2-0.2,0.4-0.3c0.2-0.1,0.3-0.1,0.6-0.1c0.2,0,0.4,0,0.5,0.1C232.5,115.9,232.7,116,232.7,116.2L232.7,116.2z"/>
	<path class="st9" d="M235.3,118.7c-0.1,0-0.1,0-0.1-0.1l0-0.4c-0.1,0.1-0.2,0.1-0.2,0.2c-0.1,0.1-0.2,0.1-0.2,0.2
		c-0.1,0-0.2,0.1-0.3,0.1c-0.1,0-0.2,0-0.3,0c-0.1,0-0.2,0-0.3,0c-0.1,0-0.2-0.1-0.2-0.1c-0.1-0.1-0.1-0.1-0.2-0.2
		c0-0.1-0.1-0.2-0.1-0.3c0-0.1,0-0.2,0.1-0.3c0.1-0.1,0.2-0.2,0.3-0.3c0.1-0.1,0.3-0.1,0.6-0.2c0.2,0,0.5-0.1,0.8-0.1v-0.3
		c0-0.3-0.1-0.5-0.2-0.6s-0.3-0.2-0.5-0.2c-0.1,0-0.3,0-0.4,0.1c-0.1,0-0.2,0.1-0.2,0.1c-0.1,0-0.1,0.1-0.2,0.1c0,0-0.1,0.1-0.1,0.1
		c0,0-0.1,0-0.1-0.1l0-0.1c0.2-0.2,0.3-0.3,0.5-0.3c0.2-0.1,0.4-0.1,0.6-0.1c0.2,0,0.3,0,0.4,0.1c0.1,0,0.2,0.1,0.3,0.2
		c0.1,0.1,0.1,0.2,0.2,0.3c0,0.1,0.1,0.3,0.1,0.4v1.9H235.3z M234.1,118.6c0.1,0,0.2,0,0.3,0s0.2-0.1,0.3-0.1c0.1,0,0.2-0.1,0.2-0.2
		c0.1-0.1,0.1-0.1,0.2-0.2v-0.8c-0.3,0-0.5,0-0.7,0.1c-0.2,0-0.4,0.1-0.5,0.1c-0.1,0.1-0.2,0.1-0.3,0.2c-0.1,0.1-0.1,0.2-0.1,0.3
		c0,0.1,0,0.2,0,0.3c0,0.1,0.1,0.1,0.1,0.2c0.1,0,0.1,0.1,0.2,0.1C234,118.6,234,118.6,234.1,118.6z"/>
</g>
<g class="st7">
	<path class="st9" d="M25.7,115.4v1.2h1.2v0.2h-1.2v1.2h-0.2v-1.2h-1.2v-0.2h1.2v-1.2H25.7z"/>
	<path class="st9" d="M28,118.4h0.9v-3.2c0-0.1,0-0.1,0-0.2l-0.9,0.8c0,0,0,0-0.1,0c0,0-0.1,0-0.1,0l-0.1-0.1l1.1-1h0.2v3.7H30v0.2
		h-2V118.4z"/>
	<path class="st9" d="M30.7,118.4C30.7,118.3,30.7,118.3,30.7,118.4c0-0.1,0-0.2,0.1-0.2c0,0,0,0,0.1-0.1s0.1,0,0.1,0
		c0,0,0.1,0,0.1,0s0.1,0,0.1,0.1c0,0,0,0,0.1,0.1s0,0.1,0,0.1c0,0,0,0.1,0,0.1s0,0.1-0.1,0.1c0,0,0,0-0.1,0.1c0,0-0.1,0-0.1,0
		c-0.1,0-0.1,0-0.2-0.1C30.7,118.5,30.7,118.4,30.7,118.4z"/>
	<path class="st9" d="M33.1,114.6c0.1,0,0.3,0,0.4,0.1c0.1,0,0.3,0.1,0.4,0.2c0.1,0.1,0.2,0.2,0.2,0.3s0.1,0.3,0.1,0.5
		c0,0.1,0,0.3-0.1,0.4s-0.1,0.2-0.2,0.4c-0.1,0.1-0.2,0.2-0.3,0.3c-0.1,0.1-0.2,0.2-0.3,0.3l-1.2,1.2c0.1,0,0.1,0,0.2,0
		c0.1,0,0.1,0,0.2,0h1.7c0,0,0.1,0,0.1,0s0,0,0,0.1v0.2h-2.5v-0.1c0,0,0,0,0-0.1c0,0,0,0,0-0.1l1.3-1.3c0.1-0.1,0.2-0.2,0.3-0.3
		s0.2-0.2,0.2-0.3s0.1-0.2,0.2-0.3c0-0.1,0.1-0.2,0.1-0.4c0-0.1,0-0.3-0.1-0.4c0-0.1-0.1-0.2-0.2-0.3c-0.1-0.1-0.2-0.1-0.3-0.2
		c-0.1,0-0.2,0-0.3,0c-0.1,0-0.2,0-0.3,0.1c-0.1,0-0.2,0.1-0.3,0.2c-0.1,0.1-0.1,0.1-0.2,0.2s-0.1,0.2-0.1,0.3
		c0,0.1-0.1,0.1-0.1,0.1c0,0,0,0,0,0c0,0,0,0,0,0l-0.1,0c0-0.2,0.1-0.3,0.1-0.4s0.2-0.2,0.3-0.3c0.1-0.1,0.2-0.2,0.4-0.2
		C32.8,114.7,33,114.6,33.1,114.6z"/>
	<path class="st9" d="M36.2,118.6c-0.2,0-0.4,0-0.5-0.1c-0.2,0-0.3-0.1-0.4-0.2c-0.1-0.1-0.2-0.2-0.3-0.3c-0.1-0.1-0.1-0.3-0.1-0.4
		c0-0.1,0-0.3,0.1-0.4c0-0.1,0.1-0.2,0.2-0.3s0.2-0.2,0.3-0.2c0.1-0.1,0.2-0.1,0.3-0.1c-0.1,0-0.2-0.1-0.3-0.1s-0.2-0.1-0.2-0.2
		c-0.1-0.1-0.1-0.2-0.1-0.3c0-0.1,0-0.2,0-0.3c0-0.1,0-0.3,0.1-0.4s0.1-0.2,0.2-0.3s0.2-0.2,0.4-0.2c0.1-0.1,0.3-0.1,0.5-0.1
		c0.2,0,0.3,0,0.5,0.1c0.1,0.1,0.3,0.1,0.4,0.2s0.2,0.2,0.2,0.3s0.1,0.2,0.1,0.4c0,0.1,0,0.2,0,0.3c0,0.1-0.1,0.2-0.1,0.3
		c-0.1,0.1-0.1,0.1-0.2,0.2s-0.2,0.1-0.3,0.1c0.1,0,0.2,0.1,0.3,0.1c0.1,0.1,0.2,0.1,0.3,0.2s0.1,0.2,0.2,0.3c0,0.1,0.1,0.2,0.1,0.4
		c0,0.2,0,0.3-0.1,0.4c-0.1,0.1-0.1,0.2-0.3,0.3s-0.2,0.2-0.4,0.2C36.6,118.6,36.4,118.6,36.2,118.6z M36.2,118.4
		c0.1,0,0.3,0,0.4-0.1c0.1,0,0.2-0.1,0.3-0.2c0.1-0.1,0.2-0.2,0.2-0.3c0-0.1,0.1-0.2,0.1-0.4c0-0.2,0-0.3-0.1-0.4
		c-0.1-0.1-0.1-0.2-0.2-0.3c-0.1-0.1-0.2-0.1-0.3-0.1c-0.1,0-0.2,0-0.3,0c-0.1,0-0.2,0-0.3,0c-0.1,0-0.2,0.1-0.3,0.1
		c-0.1,0.1-0.2,0.2-0.2,0.3c-0.1,0.1-0.1,0.3-0.1,0.4c0,0.1,0,0.2,0.1,0.4s0.1,0.2,0.2,0.3s0.2,0.1,0.3,0.2
		C36,118.4,36.1,118.4,36.2,118.4z M36.2,116.5c0.1,0,0.3,0,0.4-0.1c0.1,0,0.2-0.1,0.3-0.2c0.1-0.1,0.1-0.2,0.2-0.3
		c0-0.1,0.1-0.2,0.1-0.3c0-0.1,0-0.2-0.1-0.3c0-0.1-0.1-0.2-0.2-0.3c-0.1-0.1-0.2-0.1-0.3-0.2c-0.1,0-0.2-0.1-0.4-0.1
		s-0.3,0-0.4,0.1c-0.1,0-0.2,0.1-0.3,0.2c-0.1,0.1-0.1,0.2-0.2,0.3c0,0.1-0.1,0.2-0.1,0.3c0,0.1,0,0.2,0.1,0.3
		c0,0.1,0.1,0.2,0.2,0.3c0.1,0.1,0.2,0.1,0.3,0.2C36,116.4,36.1,116.5,36.2,116.5z"/>
	<path class="st9" d="M39.4,116.9c-0.2,0-0.3,0-0.4-0.1c-0.1-0.1-0.3-0.1-0.3-0.2s-0.2-0.2-0.2-0.4c-0.1-0.1-0.1-0.3-0.1-0.5
		c0-0.2,0-0.3,0.1-0.5s0.1-0.3,0.3-0.4c0.1-0.1,0.2-0.2,0.4-0.2s0.3-0.1,0.5-0.1c0.2,0,0.3,0,0.5,0.1c0.1,0.1,0.3,0.1,0.4,0.2
		c0.1,0.1,0.2,0.2,0.2,0.4c0.1,0.1,0.1,0.3,0.1,0.5c0,0.1,0,0.2,0,0.3s-0.1,0.2-0.1,0.3c0,0.1-0.1,0.2-0.2,0.3
		c-0.1,0.1-0.1,0.2-0.2,0.3l-1,1.5c0,0-0.1,0.1-0.1,0.1h-0.2L40,117c0.1-0.1,0.1-0.2,0.2-0.2c0-0.1,0.1-0.1,0.1-0.2
		c-0.1,0.1-0.2,0.2-0.4,0.3C39.8,116.9,39.6,116.9,39.4,116.9z M40.5,115.8c0-0.1,0-0.3-0.1-0.4s-0.1-0.2-0.2-0.3
		c-0.1-0.1-0.2-0.1-0.3-0.2s-0.2-0.1-0.4-0.1c-0.1,0-0.3,0-0.4,0.1s-0.2,0.1-0.3,0.2c-0.1,0.1-0.2,0.2-0.2,0.3
		c0,0.1-0.1,0.2-0.1,0.4c0,0.1,0,0.3,0.1,0.4c0,0.1,0.1,0.2,0.2,0.3c0.1,0.1,0.2,0.1,0.3,0.2c0.1,0,0.2,0.1,0.4,0.1
		c0.2,0,0.3,0,0.4-0.1c0.1-0.1,0.2-0.1,0.3-0.2c0.1-0.1,0.1-0.2,0.2-0.3S40.5,115.9,40.5,115.8z"/>
	<path class="st9" d="M41.3,118.4C41.3,118.3,41.3,118.3,41.3,118.4c0-0.1,0-0.2,0.1-0.2c0,0,0,0,0.1-0.1s0.1,0,0.1,0
		c0,0,0.1,0,0.1,0s0.1,0,0.1,0.1c0,0,0,0,0.1,0.1s0,0.1,0,0.1c0,0,0,0.1,0,0.1s0,0.1-0.1,0.1c0,0,0,0-0.1,0.1c0,0-0.1,0-0.1,0
		c-0.1,0-0.1,0-0.2-0.1C41.3,118.5,41.3,118.4,41.3,118.4z"/>
	<path class="st9" d="M44.5,117.3h0.7v0.1c0,0,0,0,0,0c0,0,0,0-0.1,0h-0.6v1.1h-0.2v-1.1h-1.8c0,0,0,0-0.1,0s0,0,0,0l0-0.1l2-2.6
		h0.2V117.3z M44.2,115.2C44.2,115.2,44.2,115.2,44.2,115.2c0-0.1,0-0.2,0-0.2l-1.7,2.2h1.7V115.2z"/>
	<path class="st9" d="M47.7,117.3h0.7v0.1c0,0,0,0,0,0c0,0,0,0-0.1,0h-0.6v1.1h-0.2v-1.1h-1.8c0,0,0,0-0.1,0s0,0,0,0l0-0.1l2-2.6
		h0.2V117.3z M47.4,115.2C47.4,115.2,47.4,115.2,47.4,115.2c0-0.1,0-0.2,0-0.2l-1.7,2.2h1.7V115.2z"/>
	<path class="st9" d="M50.9,117.3h0.7v0.1c0,0,0,0,0,0c0,0,0,0-0.1,0h-0.6v1.1h-0.2v-1.1h-1.8c0,0,0,0-0.1,0s0,0,0,0l0-0.1l2-2.6
		h0.2V117.3z M50.6,115.2C50.6,115.2,50.6,115.2,50.6,115.2c0-0.1,0-0.2,0-0.2l-1.7,2.2h1.7V115.2z"/>
	<path class="st9" d="M52,118.4C52,118.3,52,118.3,52,118.4c0-0.1,0-0.2,0.1-0.2c0,0,0,0,0.1-0.1s0.1,0,0.1,0c0,0,0.1,0,0.1,0
		s0.1,0,0.1,0.1c0,0,0,0,0.1,0.1s0,0.1,0,0.1c0,0,0,0.1,0,0.1s0,0.1-0.1,0.1c0,0,0,0-0.1,0.1c0,0-0.1,0-0.1,0c-0.1,0-0.1,0-0.2-0.1
		C52,118.5,52,118.4,52,118.4z"/>
	<path class="st9" d="M54.5,114.6c0.1,0,0.3,0,0.4,0.1c0.1,0,0.2,0.1,0.3,0.2c0.1,0.1,0.2,0.2,0.2,0.3c0.1,0.1,0.1,0.3,0.1,0.4
		c0,0.1,0,0.2-0.1,0.3c0,0.1-0.1,0.2-0.2,0.3c-0.1,0.1-0.1,0.1-0.2,0.2c-0.1,0.1-0.2,0.1-0.3,0.1c0.3,0.1,0.5,0.2,0.6,0.3
		s0.2,0.4,0.2,0.6c0,0.2,0,0.3-0.1,0.4c-0.1,0.1-0.2,0.3-0.3,0.4c-0.1,0.1-0.2,0.2-0.4,0.2c-0.2,0.1-0.3,0.1-0.5,0.1
		c-0.2,0-0.4,0-0.6-0.1c-0.1-0.1-0.3-0.1-0.4-0.2c-0.1-0.1-0.2-0.2-0.2-0.3s-0.1-0.2-0.1-0.4l0.1,0c0,0,0,0,0.1,0c0,0,0,0,0.1,0
		c0,0,0,0,0,0.1l0,0.1c0,0,0,0.1,0,0.1c0,0,0,0.1,0.1,0.2c0,0.1,0.1,0.1,0.1,0.2c0,0.1,0.1,0.1,0.2,0.1c0.1,0,0.1,0.1,0.2,0.1
		c0.1,0,0.2,0,0.3,0c0.2,0,0.3,0,0.4-0.1c0.1-0.1,0.2-0.1,0.3-0.2c0.1-0.1,0.1-0.2,0.2-0.3c0-0.1,0.1-0.2,0.1-0.3
		c0-0.1,0-0.2-0.1-0.3s-0.1-0.2-0.2-0.3c-0.1-0.1-0.2-0.1-0.3-0.2c-0.1,0-0.3-0.1-0.5-0.1v-0.2c0.2,0,0.3,0,0.4-0.1s0.2-0.1,0.3-0.2
		c0.1-0.1,0.2-0.2,0.2-0.3c0-0.1,0.1-0.2,0.1-0.3c0-0.1,0-0.3-0.1-0.4s-0.1-0.2-0.2-0.2c-0.1-0.1-0.2-0.1-0.3-0.1
		c-0.1,0-0.2,0-0.3,0c-0.1,0-0.2,0-0.3,0.1c-0.1,0-0.2,0.1-0.3,0.2c-0.1,0.1-0.1,0.1-0.2,0.2s-0.1,0.2-0.1,0.3c0,0.1,0,0.1-0.1,0.1
		c0,0,0,0,0,0l-0.1,0c0-0.2,0.1-0.3,0.1-0.4s0.2-0.2,0.3-0.3c0.1-0.1,0.2-0.2,0.4-0.2C54.2,114.7,54.3,114.6,54.5,114.6z"/>
	<path class="st9" d="M58.6,114.8C58.6,114.8,58.6,114.9,58.6,114.8c-0.1,0.1-0.1,0.1-0.2,0.1h-1.4l-0.2,1.3c0.1,0,0.2-0.1,0.3-0.1
		c0.1,0,0.2,0,0.3,0c0.2,0,0.4,0,0.5,0.1c0.2,0.1,0.3,0.1,0.4,0.2s0.2,0.2,0.2,0.4c0.1,0.1,0.1,0.3,0.1,0.5c0,0.2,0,0.4-0.1,0.6
		c-0.1,0.2-0.2,0.3-0.3,0.4c-0.1,0.1-0.3,0.2-0.4,0.3s-0.3,0.1-0.5,0.1c-0.1,0-0.2,0-0.3,0c-0.1,0-0.2,0-0.3-0.1
		c-0.1,0-0.2-0.1-0.2-0.1c-0.1,0-0.1-0.1-0.2-0.1l0.1-0.1c0,0,0,0,0.1,0c0,0,0.1,0,0.1,0s0.1,0.1,0.2,0.1c0.1,0,0.2,0.1,0.3,0.1
		s0.2,0,0.3,0c0.2,0,0.3,0,0.4-0.1c0.1,0,0.2-0.1,0.3-0.2c0.1-0.1,0.2-0.2,0.2-0.3c0.1-0.1,0.1-0.3,0.1-0.5c0-0.1,0-0.3-0.1-0.4
		c0-0.1-0.1-0.2-0.2-0.3c-0.1-0.1-0.2-0.1-0.3-0.2s-0.3-0.1-0.4-0.1c-0.1,0-0.2,0-0.3,0c-0.1,0-0.2,0-0.4,0.1l-0.2-0.1l0.3-1.7h1.7
		V114.8z"/>
	<path class="st9" d="M60,118.4h0.9v-3.2c0-0.1,0-0.1,0-0.2l-0.9,0.8c0,0,0,0-0.1,0c0,0-0.1,0-0.1,0l-0.1-0.1l1.1-1h0.2v3.7H62v0.2
		h-2V118.4z"/>
	<path class="st9" d="M64.1,116.3c0.2,0,0.3,0,0.5,0.1c0.1,0.1,0.3,0.1,0.4,0.2c0.1,0.1,0.2,0.2,0.2,0.4c0.1,0.1,0.1,0.3,0.1,0.5
		c0,0.2,0,0.3-0.1,0.5c-0.1,0.1-0.2,0.3-0.3,0.4s-0.2,0.2-0.4,0.3s-0.3,0.1-0.5,0.1c-0.2,0-0.3,0-0.5-0.1s-0.3-0.1-0.4-0.3
		c-0.1-0.1-0.2-0.2-0.2-0.4c-0.1-0.2-0.1-0.3-0.1-0.5c0-0.2,0-0.3,0.1-0.5s0.2-0.4,0.4-0.6l1.1-1.4c0,0,0.1-0.1,0.1-0.1h0.2
		l-1.2,1.5c-0.1,0.1-0.1,0.1-0.2,0.2c0,0.1-0.1,0.1-0.1,0.2c0.1-0.1,0.2-0.2,0.4-0.3C63.7,116.3,63.9,116.3,64.1,116.3z M63,117.4
		c0,0.1,0,0.3,0.1,0.4s0.1,0.2,0.2,0.3s0.2,0.2,0.3,0.2c0.1,0,0.3,0.1,0.4,0.1c0.2,0,0.3,0,0.4-0.1c0.1,0,0.2-0.1,0.3-0.2
		c0.1-0.1,0.2-0.2,0.2-0.3s0.1-0.3,0.1-0.4c0-0.1,0-0.3-0.1-0.4c0-0.1-0.1-0.2-0.2-0.3c-0.1-0.1-0.2-0.1-0.3-0.2
		c-0.1,0-0.2-0.1-0.4-0.1c-0.2,0-0.3,0-0.4,0.1s-0.2,0.1-0.3,0.2c-0.1,0.1-0.2,0.2-0.2,0.3C63,117.2,63,117.3,63,117.4z"/>
</g>
</svg>
