<?xml version="1.0" encoding="utf-8"?>
<!-- Generator: Adobe Illustrator 21.0.0, SVG Export Plug-In . SVG Version: 6.00 Build 0)  -->
<svg version="1.1" id="Layer_1" xmlns="http://www.w3.org/2000/svg" xmlns:xlink="http://www.w3.org/1999/xlink" x="0px" y="0px"
	 viewBox="0 0 263.5 155.5" style="enable-background:new 0 0 263.5 155.5;" xml:space="preserve">
<style type="text/css">
	.st0{fill:none;}
	.st1{fill:#181818;}
	.st2{fill:#FFFFFF;}
	.st3{fill:#F7F7F7;}
	.st4{fill:#020202;}
	.st5{opacity:0.57;fill:url(#SVGID_2_);enable-background:new    ;}
	.st6{fill:#B5D481;}
	.st7{fill:#53AEDE;}
	.st8{fill:#333333;}
	.st9{font-family:'Lato-Light';}
	.st10{font-size:5.8px;}
	.st11{font-size:5.82px;}
	.st12{font-size:5.5px;}
	.st13{font-family:'Lato-Regular';}
	.st14{font-size:5.95px;}
</style>
<pattern  y="155.5" width="7.5" height="12.1" patternUnits="userSpaceOnUse" id="SVGID_1_" viewBox="3.6 -15.1 7.5 12.1" style="overflow:visible;">
	<g>
		<rect x="3.6" y="-15.1" class="st0" width="7.5" height="12.1"/>
		<g>
			<rect x="3.6" y="-15.1" class="st0" width="7.5" height="12.1"/>
			<rect x="3.6" y="-15.1" class="st0" width="7.5" height="12.1"/>
			<rect x="3.6" y="-15.1" class="st0" width="7.5" height="12.1"/>
			<rect x="3.6" y="-15.1" class="st0" width="7.5" height="12.1"/>
			<rect x="3.6" y="-15.1" class="st0" width="7.4" height="12.1"/>
			<circle class="st1" cx="11.1" cy="-15.1" r="1.3"/>
			<path class="st1" d="M14.1-15.1c0,1.7-1.3,3-3,3c-0.7,0-1.3-0.2-1.8-0.6l0,0c-0.2-0.1-0.2-0.3-0.1-0.5c0.1-0.2,0.3-0.2,0.5-0.1
				c1,0.7,2.5,0.5,3.2-0.6l0,0c0.3-0.4,0.4-0.8,0.4-1.3h-0.6l0.5-0.7l0.5-0.7l0.5,0.7l0.5,0.7L14.1-15.1z"/>
			<path class="st1" d="M13-17.2c0,0.2-0.1,0.4-0.3,0.4s-0.2,0-0.2-0.1l0,0c-1-0.7-2.4-0.5-3.2,0.5C9-16,8.9-15.5,8.9-15h0.6L9-14.3
				l-0.5,0.7L8-14.3L7.5-15h0.6c0-1.7,1.3-3,3-3l0,0c0.7,0,1.3,0.2,1.8,0.6l0,0C13-17.3,13-17.3,13-17.2z"/>
			<circle class="st1" cx="3.6" cy="-15.1" r="1.3"/>
			<path class="st1" d="M6.6-15.1c0,1.7-1.3,3-3,3c-0.6,0-1.3-0.2-1.8-0.6l0,0c-0.1-0.1-0.1-0.2-0.1-0.3c0-0.2,0.1-0.3,0.3-0.4l0,0
				c0.1,0,0.2,0,0.2,0.1C2.6-13,3-12.9,3.5-12.9c1.2,0,2.3-1,2.3-2.2v-0.1H5.3l0.5-0.7l0.5-0.7l0.5,0.7l0.5,0.7L6.6-15.1L6.6-15.1z"
				/>
			<path class="st1" d="M5.5-17.2c0,0.2-0.1,0.4-0.3,0.4S5-16.8,5-16.9l0,0c-0.4-0.3-0.8-0.4-1.3-0.4c-1.2,0-2.3,1-2.3,2.2v0.1H2
				l-0.5,0.7L1-13.7l-0.5-0.7L0-15.1h0.6c0-1.7,1.3-3,3-3c0.6,0,1.3,0.2,1.8,0.6l0,0C5.5-17.4,5.5-17.3,5.5-17.2z"/>
			<circle class="st1" cx="7.4" cy="-9" r="1.3"/>
			<path class="st1" d="M10.4-9c0,1.7-1.3,3-3,3l0,0C6.7-6,6.1-6.2,5.6-6.6l0,0c-0.1-0.2-0.1-0.3,0-0.5s0.3-0.2,0.5,0
				c1.1,0.7,2.5,0.4,3.2-0.7l0,0C9.5-8.2,9.6-8.6,9.6-9H9l0.5-0.7l0.5-0.7l0.5,0.7L11-9H10.4z"/>
			<path class="st1" d="M9.3-11.2c0,0.2-0.1,0.4-0.3,0.4s-0.2,0-0.2-0.1l0,0c-1-0.7-2.4-0.5-3.2,0.5C5.2-10,5-9.5,5-9h0.6L5.1-8.3
				L4.7-7.6L4.2-8.3L3.7-9h0.6c0-1.6,1.3-3,2.9-3.1c0.7,0,1.3,0.2,1.8,0.6l0,0C9.2-11.4,9.3-11.3,9.3-11.2z"/>
			<circle class="st1" cx="11.1" cy="-3" r="1.3"/>
			<path class="st1" d="M14.1-3c0,1.7-1.3,3-3,3c-0.6,0-1.3-0.2-1.8-0.6l0,0c-0.1,0-0.1-0.1-0.1-0.3c0-0.2,0.2-0.4,0.4-0.4
				c0.1,0,0.2,0,0.2,0.1c0.4,0.3,0.8,0.4,1.3,0.4c1.2,0,2.3-1,2.3-2.2v-0.1h-0.6l0.5-0.7l0.5-0.7l0.5,0.7L14.7-3
				C14.7-3,14.1-3,14.1-3z"/>
			<path class="st1" d="M13-5.2c0,0.2-0.1,0.4-0.3,0.4s-0.2,0-0.2-0.1l0,0c-0.4-0.3-0.9-0.4-1.4-0.4c-1.2,0-2.3,1-2.3,2.2V-3h0.6
				L8.9-2.3L8.4-1.6L7.9-2.3L7.5-3h0.6c0-1.7,1.3-3,3-3c0.6,0,1.3,0.2,1.8,0.6l0,0C13-5.3,13-5.3,13-5.2z"/>
			<circle class="st1" cx="3.6" cy="-3" r="1.3"/>
			<path class="st1" d="M6.6-3c0,1.7-1.3,3-3,3C3,0,2.4-0.2,1.9-0.6l0,0c-0.1,0-0.2-0.1-0.2-0.3c0-0.2,0.2-0.4,0.4-0.4l0,0
				c0.1,0,0.2,0,0.2,0.1c0.4,0.3,0.8,0.4,1.3,0.4c1.2,0,2.3-1,2.3-2.2v-0.1H5.3l0.5-0.7l0.5-0.7l0.5,0.7L7.2-3C7.2-3,6.6-3,6.6-3z"
				/>
			<path class="st1" d="M5.5-5.2c0,0.2-0.1,0.4-0.3,0.4S5-4.8,5-4.9l0,0C4.6-5.2,4.1-5.3,3.6-5.3c-1.2,0-2.3,1-2.3,2.2V-3h0.6
				L1.4-2.3L1-1.6L0.5-2.3L0-3h0.6c0-1.7,1.3-3,3-3c0.6,0,1.3,0.2,1.8,0.6l0,0C5.5-5.4,5.5-5.3,5.5-5.2z"/>
		</g>
	</g>
</pattern>
<title>Artboard 1</title>
<rect y="0" class="st2" width="263.5" height="155.5"/>
<path class="st3" d="M263.5,111.3c-18,0-32.6-14.6-32.6-32.6s14.6-32.6,32.6-32.6V111.3z"/>
<path class="st3" d="M263.5,137.5c-32.5,0-58.8-26.3-58.8-58.7c0,0,0,0,0-0.1l0,0v-0.1h15.4l-12.2-18.1l-12.2-18.1l-12.2,18.1
	l-12.2,18.1h15.3v0.1c0,42.4,34.4,76.8,76.8,76.8h0.1L263.5,137.5L263.5,137.5z"/>
<rect y="0" class="st4" width="263.5" height="71.7"/>
<pattern  id="SVGID_2_" xlink:href="#SVGID_1_" patternTransform="matrix(1 0 0 -1 -22.07 -33127.6016)">
</pattern>
<rect y="0" class="st5" width="263.5" height="71.7"/>
<path class="st4" d="M263.5,45.1v26.6h-31.7C234.7,56.4,247.9,45.3,263.5,45.1z"/>
<polygon class="st4" points="216.4,71.7 208.2,59.5 196,41.5 183.9,59.5 175.7,71.7 "/>
<rect x="89" y="88.4" class="st6" width="0.2" height="43.9"/>
<rect x="174.3" y="88.4" class="st6" width="0.2" height="43.9"/>
<g>
	<path class="st2" d="M76.9,35.1c0,1-0.4,2-1.2,2.7c-1,0.7-2.2,1.1-3.4,1c-1.2,0-2.5-0.3-3.6-0.8v-2.5c0.7,0.3,1.5,0.6,2.2,0.8
		c0.5,0.2,1.1,0.2,1.6,0.2s1-0.1,1.4-0.3c0.3-0.2,0.5-0.6,0.5-1c0-0.2-0.1-0.5-0.2-0.7s-0.4-0.5-0.6-0.6c-0.5-0.3-1-0.6-1.6-0.9
		c-0.6-0.3-1.2-0.6-1.7-1c-0.4-0.3-0.7-0.7-0.9-1.2c-0.2-0.5-0.3-1.1-0.3-1.6c0-1,0.4-1.9,1.1-2.6c0.9-0.7,2-1,3.1-1
		c0.6,0,1.3,0.1,1.9,0.2c0.6,0.2,1.2,0.4,1.9,0.7L76,28.8c-0.5-0.3-1.1-0.5-1.7-0.6C73.9,28.1,73.4,28,73,28s-0.9,0.1-1.2,0.4
		c-0.3,0.2-0.4,0.6-0.4,0.9c0,0.2,0.1,0.4,0.2,0.6s0.3,0.3,0.5,0.5c0.5,0.4,1.1,0.7,1.7,0.9c0.9,0.4,1.7,0.9,2.4,1.7
		C76.7,33.6,76.9,34.3,76.9,35.1z"/>
	<path class="st2" d="M84.1,36.7c0.6,0,1.2-0.1,1.7-0.3v2c-0.8,0.3-1.6,0.4-2.4,0.4c-0.8,0.1-1.7-0.2-2.3-0.8
		c-0.5-0.7-0.8-1.5-0.7-2.4v-4.7H79v-1.1l1.4-0.9l0.8-2h1.7V29h2.7v2h-2.7v4.7c0,0.4,0.1,0.7,0.3,0.8C83.5,36.6,83.8,36.7,84.1,36.7
		z"/>
	<path class="st2" d="M93,38.8c-1.3,0.1-2.6-0.4-3.6-1.3c-0.9-1-1.4-2.3-1.3-3.6c-0.1-1.3,0.3-2.7,1.2-3.7c1.9-1.7,4.7-1.7,6.6-0.1
		c0.8,0.9,1.2,2,1.1,3.2v1.3h-6.2c0,0.7,0.3,1.3,0.7,1.8c0.5,0.4,1.1,0.6,1.7,0.6c0.5,0,1.1-0.1,1.6-0.2c0.6-0.1,1.1-0.3,1.6-0.6v2
		c-0.5,0.2-1,0.4-1.5,0.5C94.4,38.7,93.8,38.8,93,38.8z M92.7,30.7c-0.5,0-1,0.2-1.3,0.5c-0.3,0.4-0.5,1-0.5,1.5h3.7
		c0-0.5-0.2-1.1-0.5-1.5C93.7,30.8,93.2,30.7,92.7,30.7z"/>
	<path class="st2" d="M102,38.6L98.4,29h2.8l1.9,5.5c0.2,0.7,0.3,1.3,0.4,2h0.1c0.1-0.7,0.2-1.4,0.4-2l1.9-5.5h2.8l-3.7,9.6H102z"/>
	<path class="st2" d="M115.1,38.8c-1.3,0.1-2.6-0.4-3.6-1.3c-0.9-1-1.4-2.3-1.3-3.6c-0.1-1.3,0.3-2.7,1.2-3.7
		c1.9-1.7,4.7-1.7,6.6-0.1c0.8,0.9,1.2,2,1.1,3.2v1.3h-6.2c0,0.7,0.3,1.3,0.7,1.8c0.5,0.4,1.1,0.6,1.7,0.6c0.5,0,1.1-0.1,1.6-0.2
		c0.6-0.1,1.1-0.3,1.6-0.6v2c-0.5,0.2-1,0.4-1.5,0.5C116.5,38.7,115.9,38.8,115.1,38.8z M114.8,30.7c-0.5,0-1,0.2-1.3,0.5
		c-0.3,0.4-0.5,1-0.5,1.5h3.7c0-0.5-0.2-1.1-0.5-1.5C115.8,30.8,115.3,30.7,114.8,30.7z"/>
	<path class="st2" d="M133.3,28c-0.9,0-1.8,0.4-2.3,1.1c-0.6,0.9-0.9,2.1-0.8,3.2c0,2.8,1.1,4.2,3.2,4.2c1.1,0,2.2-0.3,3.2-0.7V38
		c-1.1,0.4-2.3,0.6-3.5,0.6c-1.6,0.1-3.1-0.5-4.2-1.7c-1.1-1.4-1.6-3.1-1.5-4.8c-0.1-1.2,0.2-2.3,0.7-3.4c0.5-0.9,1.2-1.7,2.1-2.3
		c0.9-0.5,2-0.8,3.1-0.8c1.3,0,2.6,0.3,3.7,0.9l-0.9,2.2c-0.5-0.2-0.9-0.4-1.4-0.6C134.3,28.1,133.8,28,133.3,28z"/>
	<path class="st2" d="M142.7,38.6H140V25.2h2.6L142.7,38.6L142.7,38.6z"/>
	<path class="st2" d="M146.3,26.5c0-0.9,0.5-1.3,1.4-1.3s1.4,0.4,1.4,1.3c0,0.4-0.1,0.7-0.4,1c-0.3,0.2-0.7,0.3-1.1,0.3
		c-0.7,0.1-1.2-0.4-1.3-1.1C146.3,26.6,146.3,26.6,146.3,26.5z M149,38.6h-2.6V29h2.6V38.6z"/>
	<path class="st2" d="M161.7,38.6h-2.6V33c0-0.6-0.1-1.1-0.4-1.6c-0.3-0.4-0.7-0.5-1.2-0.5c-0.6-0.1-1.2,0.2-1.6,0.7
		c-0.4,0.7-0.5,1.6-0.5,2.4v4.5h-2.6V29h2l0.4,1.2h0.1c0.3-0.5,0.7-0.8,1.2-1.1c0.6-0.2,1.2-0.4,1.8-0.4c1.7-0.2,3.3,1,3.5,2.8
		c0,0.2,0,0.5,0,0.7L161.7,38.6L161.7,38.6z"/>
	<path class="st2" d="M169.5,36.7c0.6,0,1.2-0.1,1.7-0.3v2c-0.8,0.3-1.6,0.4-2.4,0.4c-0.8,0.1-1.7-0.2-2.3-0.8
		c-0.5-0.7-0.8-1.5-0.7-2.4v-4.7h-1.3v-1.1l1.4-0.9l0.8-2h1.7V29h2.7v2h-2.7v4.7c0,0.4,0.1,0.7,0.3,0.8
		C168.9,36.7,169.2,36.7,169.5,36.7z"/>
	<path class="st2" d="M182.8,33.8c0.1,1.3-0.3,2.7-1.2,3.7c-0.9,0.9-2.2,1.4-3.5,1.3c-0.9,0-1.7-0.2-2.5-0.6c-0.7-0.4-1.3-1-1.6-1.7
		c-0.4-0.8-0.6-1.8-0.6-2.7c-0.1-1.3,0.3-2.7,1.2-3.7c0.9-0.9,2.2-1.4,3.5-1.3c0.9,0,1.7,0.2,2.5,0.6c0.7,0.4,1.3,1,1.6,1.7
		C182.6,31.9,182.8,32.9,182.8,33.8z M176.2,33.8c0,0.8,0.1,1.5,0.5,2.2c0.7,0.8,2,0.9,2.8,0.2c0.1-0.1,0.1-0.1,0.2-0.2
		c0.4-0.7,0.5-1.4,0.5-2.2c0.1-0.7-0.1-1.5-0.5-2.1c-0.7-0.8-2-0.9-2.8-0.2c-0.1,0.1-0.1,0.1-0.2,0.2
		C176.3,32.3,176.1,33.1,176.2,33.8z"/>
	<path class="st2" d="M194.9,38.6h-2.6V33c0-0.6-0.1-1.1-0.4-1.6c-0.3-0.4-0.7-0.5-1.2-0.5c-0.6-0.1-1.2,0.2-1.6,0.7
		c-0.4,0.7-0.5,1.6-0.5,2.4v4.5H186V29h2l0.4,1.2h0.1c0.3-0.5,0.7-0.8,1.2-1.1c0.6-0.2,1.2-0.4,1.8-0.4c1.7-0.2,3.3,1,3.5,2.8
		c0,0.2,0,0.5,0,0.7v6.4L194.9,38.6z"/>
</g>
<g>
	<path class="st7" d="M44.4,98c-3.3,0-6,2.7-6,6s2.7,6,6,6s6-2.7,6-6S47.7,98,44.4,98z M47.4,106.6c-0.2,0.3-0.6,0.5-1,0.5
		c-0.6-0.1-1.2-0.4-1.7-0.8c-1.3-0.8-2.3-2-3-3.3c-0.4-0.9-0.4-1.3-0.3-1.6c0.1-0.2,0.2-0.4,0.4-0.5s0.3-0.2,0.5-0.2
		s0.3,0.1,0.4,0.2c0.5,0.6,0.8,1.3,0.6,1.6s-0.4,0.5-0.3,0.7c0.1,0.2,0.2,0.4,0.4,0.6c0.1,0.2,0.3,0.4,0.5,0.6l0.1,0.1l0.6,0.6
		c0.1,0.2,0.3,0.3,0.5,0.3c0.2-0.1,0.5-0.3,0.7-0.4H46c0.5,0.1,1,0.4,1.4,0.8C47.7,106,47.8,106.2,47.4,106.6z"/>
	<path class="st2" d="M47.4,105.8c-0.4-0.4-0.9-0.7-1.4-0.8h-0.2c-0.2,0.1-0.5,0.3-0.7,0.4c-0.2,0-0.4-0.1-0.5-0.3l-0.6-0.6
		l-0.1-0.1c-0.2-0.2-0.4-0.4-0.5-0.6c-0.2-0.2-0.3-0.4-0.4-0.6c-0.1-0.2,0.1-0.4,0.3-0.7s-0.1-1-0.6-1.6c-0.1-0.1-0.2-0.2-0.4-0.2
		s-0.3,0.1-0.5,0.2s-0.3,0.3-0.4,0.5c-0.1,0.3-0.1,0.7,0.3,1.6c0.7,1.3,1.7,2.5,3,3.3c0.5,0.4,1.1,0.7,1.7,0.8c0.4,0,0.8-0.2,1-0.5
		C47.8,106.2,47.7,106,47.4,105.8z"/>
</g>
<path class="st7" d="M131.8,110c-3.3,0-6-2.7-6-6s2.7-6,6-6s6,2.7,6,6S135.1,110,131.8,110z"/>
<path class="st2" d="M127.6,101.3h8.3v5.5h-8.3L127.6,101.3z M131.8,104.4l3.5-2.7h-7L131.8,104.4z M128,106.5h7.6v-4.6l-2.5,1.9
	l1.5,1.7l0,0l-1.8-1.4l-1,0.8l-1-0.8l-1.8,1.5l0,0l1.5-1.7L128,102V106.5z"/>
<rect x="219.9" y="103.4" class="st7" width="2.2" height="2.3"/>
<path class="st7" d="M218.9,98c-3.3,0-6,2.7-6,6s2.7,6,6,6s6-2.7,6-6S222.2,98,218.9,98z M214.6,106.8v-5.7h8.5v5.7H214.6z"/>
<path class="st7" d="M214.8,106.6h8.1v-4.2h-8.1V106.6z M219.7,103.2h2.6v2.7h-2.6V103.2z M215.3,103.4c0-0.1,0-0.1,0.1-0.1l0,0h3
	c0.1,0,0.1,0,0.1,0.1l0,0l0,0c0,0.1,0,0.1-0.1,0.1l0,0h-3C215.3,103.5,215.3,103.5,215.3,103.4L215.3,103.4z M215.3,104
	c0-0.1,0-0.1,0.1-0.1l0,0h1.4c0.1,0,0.1,0,0.1,0.1l0,0l0,0c0,0.1,0,0.1-0.1,0.1l0,0h-1.4C215.3,104.1,215.3,104.1,215.3,104
	L215.3,104z M215.3,104.6c0-0.1,0-0.1,0.1-0.1l0,0h1.4c0.1,0,0.1,0,0.1,0.1l0,0l0,0c0,0.1,0,0.1-0.1,0.1l0,0h-1.4
	C215.3,104.7,215.3,104.7,215.3,104.6L215.3,104.6z M215.3,105.2c0-0.1,0-0.1,0.1-0.1l0,0h3c0.1,0,0.1,0,0.1,0.1l0,0l0,0
	c0,0.1,0,0.1-0.1,0.1l0,0h-3C215.3,105.3,215.3,105.3,215.3,105.2L215.3,105.2z M215.3,105.8c0-0.1,0-0.1,0.1-0.1l0,0h3
	c0.1,0,0.1,0,0.1,0.1l0,0l0,0c0,0.1,0,0.1-0.1,0.1l0,0h-3C215.3,105.9,215.3,105.9,215.3,105.8L215.3,105.8z"/>
<path class="st7" d="M214.8,102.2h8.1v-0.9h-8.1V102.2z M216.5,101.5c0.1,0,0.2,0.1,0.2,0.2s-0.1,0.2-0.2,0.2s-0.2-0.1-0.2-0.2l0,0
	C216.3,101.6,216.4,101.5,216.5,101.5z M216,101.5c0.1,0,0.2,0.1,0.2,0.2s-0.1,0.2-0.2,0.2s-0.2-0.1-0.2-0.2l0,0
	C215.8,101.6,215.9,101.5,216,101.5z M215.4,101.5c0.1,0,0.2,0.1,0.2,0.2s-0.1,0.2-0.2,0.2s-0.2-0.1-0.2-0.2l0,0
	C215.2,101.6,215.3,101.5,215.4,101.5z"/>
<path class="st2" d="M215.4,103.5h3c0.1,0,0.1,0,0.1-0.1l0,0l0,0c0-0.1,0-0.1-0.1-0.1l0,0h-3c-0.1,0-0.1,0-0.1,0.1l0,0l0,0
	C215.3,103.5,215.3,103.5,215.4,103.5L215.4,103.5z"/>
<circle class="st2" cx="216" cy="101.7" r="0.2"/>
<path class="st2" d="M215.4,105.9h3c0.1,0,0.1,0,0.1-0.1l0,0l0,0c0-0.1,0-0.1-0.1-0.1l0,0h-3c-0.1,0-0.1,0-0.1,0.1l0,0l0,0
	C215.3,105.9,215.3,105.9,215.4,105.9L215.4,105.9z"/>
<circle class="st2" cx="216.5" cy="101.7" r="0.2"/>
<circle class="st2" cx="215.4" cy="101.7" r="0.2"/>
<path class="st2" d="M214.6,101.1v5.7h8.5v-5.7H214.6z M222.9,106.6h-8.1v-4.2h8.1V106.6z M222.9,102.2h-8.1v-0.9h8.1V102.2z"/>
<path class="st2" d="M222.3,103.2h-2.6v2.7h2.6V103.2z M222.1,105.7h-2.2v-2.3h2.2V105.7z"/>
<path class="st2" d="M215.4,104.1h1.4c0.1,0,0.1,0,0.1-0.1l0,0l0,0c0-0.1,0-0.1-0.1-0.1l0,0h-1.4c-0.1,0-0.1,0-0.1,0.1l0,0l0,0
	C215.3,104.1,215.3,104.1,215.4,104.1L215.4,104.1z"/>
<path class="st2" d="M215.4,105.3h3c0.1,0,0.1,0,0.1-0.1l0,0l0,0c0-0.1,0-0.1-0.1-0.1l0,0h-3c-0.1,0-0.1,0-0.1,0.1l0,0l0,0
	C215.3,105.3,215.3,105.3,215.4,105.3L215.4,105.3z"/>
<path class="st2" d="M215.4,104.7h1.4c0.1,0,0.1,0,0.1-0.1l0,0l0,0c0-0.1,0-0.1-0.1-0.1l0,0h-1.4c-0.1,0-0.1,0-0.1,0.1l0,0l0,0
	C215.3,104.7,215.3,104.7,215.4,104.7L215.4,104.7z"/>
<text transform="matrix(1 0 0 1 97.0493 118.57)" class="st8 st9 st10">st</text>
<text transform="matrix(1 0 0 1 101.6093 118.57)" class="st8 st9 st10">ev</text>
<text transform="matrix(1 0 0 1 107.2893 118.57)" class="st8 st9 st10">e.clinton@orbitgroup.ca</text>
<text transform="matrix(1 0 0 1 202.45 118.73)" class="st8 st9 st11">orbitgroup.ca</text>
<text transform="matrix(1 0 0 1 21.9887 118.58)" class="st8 st9 st12">+1.289.444.3516</text>
<text transform="matrix(1 0 0 1 68.5398 45.8331)" class="st2 st13 st14">Vice President, Technology &amp; IT Operations </text>
</svg>
