<?xml version="1.0" encoding="utf-8"?>
<!-- Generator: Adobe Illustrator 21.0.0, SVG Export Plug-In . SVG Version: 6.00 Build 0)  -->
<svg version="1.1" xmlns="http://www.w3.org/2000/svg" xmlns:xlink="http://www.w3.org/1999/xlink" x="0px" y="0px"
	 viewBox="0 0 195.6 195.6" style="enable-background:new 0 0 195.6 195.6;" xml:space="preserve">
<style type="text/css">
	.st0{fill:none;}
	.st1{fill:#181818;}
	.st2{fill:#FFFFFF;}
	.st3{fill:#1C1B1A;}
	.st4{fill:url(#SVGID_1_);}
	.st5{fill:#53AEDE;}
	.st6{fill:none;stroke:#FFFFFF;stroke-width:0;stroke-linecap:round;stroke-linejoin:round;}
	.st7{fill:#020202;}
	.st8{fill:#F7F7F7;}
	.st9{fill:#606060;}
	.st10{fill:#333333;}
	.st11{font-family:'Lato-Light';}
	.st12{font-size:4.9062px;}
	.st13{fill:#B5D481;}
	.st14{fill:#3FBFEA;}
	.st15{fill:#727578;}
	.st16{font-size:5.5096px;}
	.st17{font-size:4.5067px;}
	.st18{font-family:'Lato-Black';}
	.st19{font-size:9.7167px;}
</style>
<pattern  y="195.6" width="7.5" height="12.1" patternUnits="userSpaceOnUse" id="New_Pattern_2" viewBox="3.6 -15.1 7.5 12.1" style="overflow:visible;">
	<g>
		<rect x="3.6" y="-15.1" class="st0" width="7.5" height="12.1"/>
		<rect x="3.6" y="-15.1" class="st0" width="7.4" height="12.1"/>
		<circle class="st1" cx="11.1" cy="-15.1" r="1.3"/>
		<path class="st1" d="M14.1-15.1c0,1.7-1.3,3-3,3c-0.7,0-1.3-0.2-1.8-0.6l0,0c-0.2-0.1-0.2-0.3-0.1-0.5c0.1-0.2,0.3-0.2,0.5-0.1
			c1,0.7,2.5,0.5,3.2-0.6c0.3-0.4,0.4-0.8,0.4-1.3h-0.6l0.5-0.7l0.5-0.7l0.5,0.7l0.5,0.7L14.1-15.1z"/>
		<path class="st1" d="M13-17.2c0,0.2-0.1,0.4-0.3,0.4c-0.1,0-0.2,0-0.2-0.1l0,0c-1-0.7-2.5-0.5-3.2,0.5c-0.3,0.4-0.4,0.9-0.4,1.4
			h0.6l-0.5,0.7l-0.5,0.7l-0.5-0.7l-0.5-0.7h0.6c0-1.7,1.3-3,3-3c0.7,0,1.3,0.2,1.8,0.6l0,0l0,0C12.9-17.4,13-17.3,13-17.2z"/>
		<circle class="st1" cx="3.6" cy="-15.1" r="1.3"/>
		<path class="st1" d="M6.6-15.1c0,1.7-1.3,3-3,3c-0.6,0-1.3-0.2-1.8-0.6l0,0c-0.1-0.1-0.1-0.2-0.1-0.3c0-0.2,0.2-0.4,0.3-0.4
			c0,0,0,0,0,0c0.1,0,0.2,0,0.2,0.1c0.4,0.3,0.8,0.4,1.3,0.4c1.3,0,2.3-1,2.3-2.3H5.3l0.5-0.7l0.5-0.7l0.5,0.7l0.5,0.7H6.6z"/>
		<path class="st1" d="M5.5-17.2c0,0.2-0.1,0.4-0.3,0.4c-0.1,0-0.2,0-0.2-0.1l0,0c-0.4-0.3-0.9-0.4-1.3-0.4c-1.3,0-2.3,1-2.3,2.3
			c0,0,0,0,0,0h0.6l-0.5,0.7L1-13.7l-0.5-0.7L0-15.1h0.6c0-1.7,1.3-3,3-3c0.6,0,1.2,0.2,1.8,0.6l0,0l0,0C5.5-17.4,5.5-17.3,5.5-17.2
			z"/>
		<circle class="st1" cx="7.4" cy="-9" r="1.3"/>
		<path class="st1" d="M10.4-9c0,1.7-1.4,3-3,3C6.7-6,6.1-6.2,5.6-6.6l0,0C5.5-6.7,5.5-6.9,5.6-7.1c0.1-0.2,0.3-0.2,0.5,0
			c1.1,0.7,2.5,0.4,3.2-0.7C9.5-8.2,9.6-8.6,9.6-9H9l0.5-0.7l0.5-0.7l0.5,0.7L11-9H10.4z"/>
		<path class="st1" d="M9.3-11.2c0,0.2-0.1,0.4-0.3,0.4c-0.1,0-0.2,0-0.2-0.1l0,0c-1-0.7-2.5-0.5-3.2,0.5C5.2-10,5-9.5,5-9h0.6
			L5.1-8.3L4.7-7.6L4.2-8.3L3.7-9h0.6c0-1.7,1.3-3,2.9-3.1c0.7,0,1.3,0.2,1.8,0.6l0,0l0,0C9.2-11.4,9.3-11.3,9.3-11.2z"/>
		<circle class="st1" cx="11.1" cy="-3" r="1.3"/>
		<path class="st1" d="M14.1-3c0,1.7-1.3,3-3,3c-0.6,0-1.3-0.2-1.8-0.6l0,0C9.2-0.6,9.2-0.7,9.2-0.9c0-0.2,0.2-0.4,0.4-0.4
			c0.1,0,0.2,0,0.2,0.1c0.4,0.3,0.9,0.4,1.3,0.4c1.3,0,2.3-1,2.3-2.3h-0.6l0.5-0.7l0.5-0.7l0.5,0.7L14.7-3H14.1z"/>
		<path class="st1" d="M13-5.2c0,0.2-0.1,0.4-0.3,0.4c-0.1,0-0.2,0-0.2-0.1l0,0c-0.4-0.3-0.9-0.4-1.4-0.4c-1.3,0-2.3,1-2.3,2.3h0.6
			L8.9-2.3L8.4-1.6L7.9-2.3L7.5-3h0.6c0-1.7,1.3-3,3-3c0.6,0,1.2,0.2,1.8,0.6l0,0l0,0C12.9-5.4,13-5.3,13-5.2z"/>
		<circle class="st1" cx="3.6" cy="-3" r="1.3"/>
		<path class="st1" d="M6.6-3c0,1.7-1.3,3-3,3C3,0,2.4-0.2,1.9-0.6l0,0C1.8-0.6,1.7-0.7,1.7-0.9c0-0.2,0.2-0.4,0.4-0.4l0,0
			c0.1,0,0.2,0,0.2,0.1c0.4,0.3,0.8,0.4,1.3,0.4c1.3,0,2.3-1,2.3-2.3l0,0H5.3l0.5-0.7l0.5-0.7l0.5,0.7L7.2-3H6.6z"/>
		<path class="st1" d="M5.5-5.2c0,0.2-0.1,0.4-0.3,0.4C5.1-4.8,5-4.8,5-4.9l0,0C4.6-5.2,4.1-5.3,3.6-5.3c-1.3,0-2.3,1-2.3,2.3l0,0
			h0.6L1.4-2.3L1-1.6L0.5-2.3L0-3h0.6c0-1.7,1.3-3,3-3c0.6,0,1.2,0.2,1.8,0.6l0,0l0,0C5.5-5.4,5.5-5.3,5.5-5.2z"/>
	</g>
</pattern>
<g id="Layer_2">
	<rect y="0" class="st2" width="195.6" height="195.6"/>
</g>
<g id="Layer_1">
	<title>Business-Card-Square-1</title>
	<g id="Layer_3_copy">
		<rect y="0" class="st3" width="195.6" height="90.7"/>
	</g>
	<g id="Layer_16">
		<pattern  id="SVGID_1_" xlink:href="#New_Pattern_2" patternTransform="matrix(0.9987 0 0 -0.9987 -4.6339 -16449.4414)">
		</pattern>
		<rect x="0.2" y="0" class="st4" width="195.4" height="90.7"/>
	</g>
	<g id="Layer_13">
		<path class="st5" d="M37.4,144c-3.3,0-6-2.7-6-6s2.7-6,6-6s6,2.7,6,6S40.7,144,37.4,144z"/>
		<path class="st2" d="M40.3,140.7c0.4-0.4,0.3-0.6,0-0.9c-0.4-0.4-0.9-0.7-1.4-0.8c-0.1,0-0.1,0-0.2,0c-0.4,0.2-0.6,0.4-0.7,0.4
			s-0.3-0.1-0.5-0.3l0,0c-0.2-0.2-0.4-0.4-0.6-0.6l0,0l-0.1-0.1c-0.1-0.1-0.2-0.2-0.5-0.6l0,0c-0.2-0.2-0.3-0.4-0.4-0.6
			s0.1-0.4,0.3-0.7s-0.1-1-0.6-1.6l0,0c-0.1-0.1-0.3-0.2-0.4-0.2c-0.2,0-0.3,0.1-0.5,0.2l0,0c-0.2,0.1-0.3,0.3-0.4,0.5
			c-0.1,0.3-0.1,0.7,0.3,1.6c0.7,1.3,1.7,2.5,3,3.3c0.5,0.4,1.1,0.7,1.7,0.8C39.7,141.3,40.1,141.1,40.3,140.7z"/>
		<g>
			<path class="st5" d="M33.3,174.2h8.1V170h-8.1V174.2z M38.2,170.8h2.6v2.7h-2.6L38.2,170.8z M33.8,171c0-0.1,0.1-0.1,0.1-0.1h3
				c0.1,0,0.1,0.1,0.1,0.1v0c0,0.1-0.1,0.1-0.1,0.1h-3C33.9,171.1,33.8,171,33.8,171L33.8,171z M33.8,171.6c0-0.1,0.1-0.1,0.1-0.1
				h1.4c0.1,0,0.1,0.1,0.1,0.1v0c0,0.1-0.1,0.1-0.1,0.1H34C33.9,171.7,33.8,171.6,33.8,171.6L33.8,171.6z M33.8,172.2
				c0-0.1,0.1-0.1,0.1-0.1h1.4c0.1,0,0.1,0.1,0.1,0.1v0c0,0.1-0.1,0.1-0.1,0.1H34C33.9,172.3,33.8,172.2,33.8,172.2L33.8,172.2z
				 M33.8,172.8c0-0.1,0.1-0.1,0.1-0.1h3c0.1,0,0.1,0.1,0.1,0.1v0c0,0.1-0.1,0.1-0.1,0.1h-3C33.9,172.9,33.8,172.8,33.8,172.8
				L33.8,172.8z M33.8,173.4c0-0.1,0.1-0.1,0.1-0.1h3c0.1,0,0.1,0.1,0.1,0.1v0c0,0.1-0.1,0.1-0.1,0.1h-3
				C33.9,173.5,33.8,173.4,33.8,173.4L33.8,173.4z"/>
			<path class="st5" d="M37.4,165.5c-3.3,0-6,2.7-6,6c0,3.3,2.7,6,6,6s6-2.7,6-6C43.4,168.2,40.7,165.5,37.4,165.5z M33.1,174.4
				l0-5.7h8.5l0,5.7H33.1z"/>
			<rect x="38.4" y="171" class="st5" width="2.2" height="2.3"/>
			<path class="st5" d="M33.3,169.8h8.1v-0.9h-8.1V169.8z M35,169.1c0.1,0,0.2,0.1,0.2,0.2c0,0.1-0.1,0.2-0.2,0.2
				c-0.1,0-0.2-0.1-0.2-0.2C34.8,169.2,34.9,169.1,35,169.1z M34.5,169.1c0.1,0,0.2,0.1,0.2,0.2c0,0.1-0.1,0.2-0.2,0.2
				c-0.1,0-0.2-0.1-0.2-0.2C34.3,169.2,34.4,169.1,34.5,169.1z M33.9,169.1c0.1,0,0.2,0.1,0.2,0.2c0,0.1-0.1,0.2-0.2,0.2
				c-0.1,0-0.2-0.1-0.2-0.2C33.7,169.2,33.8,169.1,33.9,169.1z"/>
			<line class="st6" x1="-828.7" y1="9769.3" x2="-828.7" y2="-6613.7"/>
			<line class="st6" x1="-898.6" y1="9769.3" x2="-898.6" y2="-6613.7"/>
			<line class="st6" x1="-800.6" y1="9769.3" x2="-800.6" y2="-6613.7"/>
			<line class="st6" x1="-802.7" y1="9769.3" x2="-802.7" y2="-6613.7"/>
			<path class="st2" d="M34,172.3h1.4c0.1,0,0.1-0.1,0.1-0.1v0c0-0.1-0.1-0.1-0.1-0.1H34c-0.1,0-0.1,0.1-0.1,0.1v0
				C33.8,172.2,33.9,172.3,34,172.3z"/>
			<path class="st2" d="M40.8,170.8h-2.6l0,2.7h2.6V170.8z M40.6,173.3h-2.2V171h2.2V173.3z"/>
			<circle class="st2" cx="34.5" cy="169.3" r="0.2"/>
			<circle class="st2" cx="33.9" cy="169.3" r="0.2"/>
			<path class="st2" d="M33.1,168.7l0,5.7h8.5l0-5.7H33.1z M41.4,174.2h-8.1V170h8.1V174.2z M41.4,169.8h-8.1v-0.9h8.1V169.8z"/>
			<circle class="st2" cx="35" cy="169.3" r="0.2"/>
			<path class="st2" d="M34,173.5h3c0.1,0,0.1-0.1,0.1-0.1v0c0-0.1-0.1-0.1-0.1-0.1h-3c-0.1,0-0.1,0.1-0.1,0.1v0
				C33.8,173.4,33.9,173.5,34,173.5z"/>
			<path class="st2" d="M34,171.7h1.4c0.1,0,0.1-0.1,0.1-0.1v0c0-0.1-0.1-0.1-0.1-0.1H34c-0.1,0-0.1,0.1-0.1,0.1v0
				C33.8,171.6,33.9,171.7,34,171.7z"/>
			<path class="st2" d="M34,171.1h3c0.1,0,0.1-0.1,0.1-0.1v0c0-0.1-0.1-0.1-0.1-0.1h-3c-0.1,0-0.1,0.1-0.1,0.1v0
				C33.8,171,33.9,171.1,34,171.1z"/>
			<path class="st2" d="M34,172.9h3c0.1,0,0.1-0.1,0.1-0.1v0c0-0.1-0.1-0.1-0.1-0.1h-3c-0.1,0-0.1,0.1-0.1,0.1v0
				C33.8,172.8,33.9,172.9,34,172.9z"/>
		</g>
		<g>
			<polygon class="st5" points="41,152.5 34,152.5 37.5,155.2 			"/>
			<path class="st5" d="M37.5,148.8c-3.3,0-6,2.7-6,6c0,3.3,2.7,6,6,6s6-2.7,6-6C43.5,151.5,40.8,148.8,37.5,148.8z M41.6,157.6
				h-8.3c0,0,0-5.5,0-5.5h8.3V157.6z"/>
			<polygon class="st5" points="41.3,152.7 38.8,154.6 40.3,156.3 38.5,154.9 37.5,155.7 36.5,154.9 34.7,156.4 36.2,154.7 
				33.7,152.8 33.7,157.3 41.3,157.3 			"/>
			<path class="st2" d="M33.3,157.6h8.3v-5.5h-8.3C33.3,152.1,33.3,157.6,33.3,157.6z M41,152.5l-3.5,2.7l-3.5-2.7H41z M33.7,152.8
				l2.5,1.9l-1.5,1.7l1.8-1.5l1,0.8l1-0.8l1.8,1.4l-1.5-1.7l2.5-1.9v4.6h-7.6V152.8z"/>
		</g>
	</g>
	<g id="Layer_18_copy">
		<path class="st7" d="M195.6,64.1v26.6h-31.7C166.7,75.4,180,64.3,195.6,64.1z"/>
		<path class="st7" d="M195.6,19.9c-16.1,0-31.8,5.2-44.8,14.6c-0.1,0.1-0.2,0.1-0.3,0.2c-3.8,3.2-4.4,8.9-1.2,12.7
			c3.2,3.8,8.9,4.4,12.7,1.2l0,0c9.8-7,21.6-10.7,33.7-10.8L195.6,19.9z"/>
		<polygon class="st7" points="148.4,90.7 140.3,78.6 128.1,60.5 115.9,78.6 107.8,90.7 		"/>
		<path class="st8" d="M137.1,96.7C137.1,96.7,137.1,96.7,137.1,96.7l15.4-0.1l-4-5.9h-40.7l-4,5.9h15.3v0.1
			c0,42.3,34.2,76.7,76.6,76.9v-18C163.2,155.4,137.1,129.1,137.1,96.7z"/>
		<path class="st8" d="M163.9,90.7c-3.3,17.7,8.4,34.7,26.1,38c1.9,0.3,3.7,0.5,5.6,0.5V90.7H163.9z"/>
		<polygon class="st9" points="195.6,90.7 195.6,129.3 195.6,155.5 195.6,173.6 		"/>
	</g>
	<text transform="matrix(1 0 0 1 30.27 121.82)" class="st10 st11 st12">Vice President, Technology &amp; IT Operations</text>
	<g id="Layer_17">
		<path class="st13" d="M95.7,47.8H93V37h2.6v2.5c0,0,1.1-2.8,3.8-2.6v2.6c-3.8-0.2-3.8,4-3.8,4L95.7,47.8z"/>
		<rect x="65" y="37" class="st14" width="2.6" height="10.9"/>
		<path class="st14" d="M76.4,45.6v2.3c-4.6,0.3-5.2-2-5.2-4.2v-4.4h-1.4v-2.1h1.4V34h2.6v3.1h2.4v2.1h-2.4v3.8
			C73.8,44,73.7,45.8,76.4,45.6z"/>
		<rect x="65" y="32.7" class="st14" width="2.6" height="2.3"/>
		<path class="st14" d="M54.6,38.3v-5.6H52v15.1h2.6v-1.2c1.5,2.6,8.1,2.4,8.1-4.2C62.7,36.6,57.3,35.2,54.6,38.3z M57.3,45.9
			c-1.5,0-2.8-1.6-2.8-3.5s1.2-3.5,2.8-3.5s2.8,1.6,2.8,3.5S58.8,45.9,57.3,45.9z"/>
		<path class="st13" d="M138.3,42.5c0-6.6-6.6-7.2-8.4-3.9V37h-2.3v15.2h2.6v-5.6C132.2,49.4,138.3,48.4,138.3,42.5z M135.5,42.5
			c0,1.7-0.8,3.4-2.9,3.4c-1.5,0-2.6-1.6-2.6-3.4c0-2.1,1-3.5,2.8-3.5S135.5,40.5,135.5,42.5z"/>
		<path class="st13" d="M87.3,46.2c0.5,6.2-6,3.1-6,3.1l-0.8,2.1c0.3,0.5,8.4,3.1,9.5-3.5c0-2.3,0-10.9,0-10.9h-2.5v1.2
			c-1.6-2.6-8.1-2.4-8.1,4.2C79.4,47,84.5,49.4,87.3,46.2z M84.8,39c2.1,0,2.7,1.5,2.7,3.4s-1.1,3-2.7,3c-1.5-0.1-2.7-1.4-2.6-3
			c0,0,0,0,0,0C82.2,40.5,82.7,39,84.8,39z"/>
		<path class="st13" d="M114.5,37h2.5v6.8c0,3.1,4.8,2.7,4.8-1.8v-5h2.7v10.8H122c0,0,0-1.5,0-2c-0.8,1.5-2.4,2.4-4.1,2.2
			c-1.8,0.1-3.3-1.4-3.4-3.2c0-0.1,0-0.2,0-0.3C114.5,42.6,114.5,37,114.5,37z"/>
		<path class="st14" d="M46.3,47.8h-2.6V37h2.6v2.5c0,0,1.1-2.8,3.8-2.6v2.6c-3.8-0.2-3.8,4-3.8,4V47.8z"/>
		<circle class="st15" cx="154.2" cy="42.5" r="4.6"/>
		<path class="st13" d="M165.1,42.5c0-6-4.9-10.9-10.9-10.9c-2.3,0-4.5,0.7-6.4,2.1l0,0c-0.6,0.4-0.6,1.3-0.2,1.8s1.3,0.6,1.8,0.2
			c3.8-2.7,9-1.8,11.6,2c1,1.4,1.5,3.1,1.5,4.8h-2.2l1.7,2.5l1.7,2.6l1.7-2.6l1.7-2.6L165.1,42.5z"/>
		<path class="st14" d="M161.2,50.3c0-0.7-0.6-1.3-1.3-1.3c-0.3,0-0.6,0.1-0.8,0.3l0,0c-3.7,2.7-8.9,1.8-11.6-1.9
			c-1-1.4-1.6-3.1-1.6-4.8h2.2l-1.7-2.6l-1.7-2.6l-1.7,2.6l-1.7,2.6h2.2c0,6,4.9,10.9,10.9,10.9c2.3,0,4.5-0.7,6.3-2l0.1,0l0,0
			C161,51,161.2,50.7,161.2,50.3z"/>
		<path class="st14" d="M35.5,36.7c-3.2,0.1-5.6,2.8-5.5,5.9c0.1,3.2,2.8,5.6,5.9,5.5c3.1-0.1,5.5-2.6,5.5-5.7
			C41.4,39.2,38.8,36.6,35.5,36.7z M35.8,46c-1.9,0-3.4-1.6-3.4-3.5s1.5-3.5,3.4-3.5s3.4,1.6,3.4,3.5S37.7,46,35.8,46z"/>
		<path class="st13" d="M106.4,36.6c-3.2,0.1-5.6,2.8-5.5,5.9c0.1,3.2,2.8,5.6,5.9,5.5c3.1-0.1,5.5-2.6,5.5-5.7
			C112.3,39.1,109.7,36.6,106.4,36.6z M106.7,46c-1.9,0-3.4-1.6-3.4-3.5s1.5-3.5,3.4-3.5s3.4,1.6,3.4,3.5S108.6,46,106.7,46z"/>
	</g>
	<text transform="matrix(1 0 0 1 47.1883 155.6162)" class="st10 st11 st16">steve.clinton@orbitgroup.ca</text>
	<text transform="matrix(1 0 0 1 47.2392 172.7203)" class="st10 st11 st16">orbitgroup.ca</text>
	<text transform="matrix(1 0 0 1 47.2653 139.3231)" class="st10 st11 st17">+1.289.444.3516</text>
	<text transform="matrix(1 0 0 1 29.9473 115.8869)" class="st10 st18 st19">Steve Clinton</text>
</g>
</svg>
