<?xml version="1.0" encoding="utf-8"?>
<!-- Generator: Adobe Illustrator 21.0.0, SVG Export Plug-In . SVG Version: 6.00 Build 0)  -->
<svg version="1.1" id="Layer_1" xmlns="http://www.w3.org/2000/svg" xmlns:xlink="http://www.w3.org/1999/xlink" x="0px" y="0px"
	 viewBox="0 0 1000.6 590.3" style="enable-background:new 0 0 1000.6 590.3;" xml:space="preserve">
<style type="text/css">
	.st0{fill:none;}
	.st1{fill:#F7F7F7;}
	.st2{fill:#181818;}
	.st3{fill:#FFFFFF;}
	.st4{opacity:0.72;fill:url(#SVGID_3_);enable-background:new    ;}
	.st5{fill:#020202;}
	.st6{opacity:0.57;fill:url(#SVGID_4_);enable-background:new    ;}
	.st7{fill:#B5D481;}
	.st8{fill:#3FBFEA;}
	.st9{fill:#727578;}
	.st10{fill:#A3A3A2;}
	.st11{font-family:'Lato-Regular';}
	.st12{font-size:19.4764px;}
	.st13{font-family:'Lato-Light';}
	.st14{font-size:25.3946px;}
	.st15{letter-spacing:1;}
	.st16{font-size:20.9136px;}
</style>
<pattern  x="737.1" y="590.3" width="7.5" height="12.1" patternUnits="userSpaceOnUse" id="SVGID_1_" viewBox="3.6 -15.1 7.5 12.1" style="overflow:visible;">
	<g>
		<rect x="3.6" y="-15.1" class="st0" width="7.5" height="12.1"/>
		<g>
			<rect x="3.6" y="-15.1" class="st0" width="7.5" height="12.1"/>
			<rect x="3.6" y="-15.1" class="st0" width="7.4" height="12.1"/>
			<circle class="st1" cx="11.1" cy="-3" r="1.3"/>
			<path class="st1" d="M14.1-3c0-1.7-1.3-3-3-3c-0.7,0-1.3,0.2-1.8,0.6l0,0C9.1-5.3,9.1-5.1,9.2-4.9c0.1,0.2,0.3,0.2,0.5,0.1
				c1-0.7,2.5-0.5,3.2,0.6c0.3,0.4,0.4,0.8,0.4,1.3h-0.6l0.5,0.7l0.5,0.7l0.5-0.7l0.5-0.7L14.1-3z"/>
			<path class="st1" d="M13-0.9c0-0.2-0.1-0.4-0.3-0.4c-0.1,0-0.2,0-0.2,0.1l0,0c-1,0.7-2.5,0.5-3.2-0.5C9-2.1,8.9-2.6,8.9-3.1h0.6
				L9-3.8L8.5-4.5L8-3.8L7.5-3.1h0.6c0,1.7,1.3,3,3,3c0.7,0,1.3-0.2,1.8-0.6l0,0l0,0C12.9-0.7,13-0.8,13-0.9z"/>
			<circle class="st1" cx="3.6" cy="-3" r="1.3"/>
			<path class="st1" d="M6.6-3c0-1.7-1.3-3-3-3C3-6,2.3-5.8,1.8-5.4l0,0C1.7-5.3,1.7-5.2,1.7-5.1c0,0.2,0.2,0.4,0.3,0.4l0,0
				c0.1,0,0.2,0,0.2-0.1C2.6-5.1,3-5.2,3.5-5.2c1.3,0,2.3,1,2.3,2.3H5.3l0.5,0.7l0.5,0.7l0.5-0.7l0.5-0.7H6.6V-3z"/>
			<path class="st1" d="M5.5-0.9c0-0.2-0.1-0.4-0.3-0.4C5.1-1.3,5-1.3,5-1.2l0,0C4.6-0.9,4.1-0.8,3.7-0.8c-1.3,0-2.3-1-2.3-2.3l0,0
				H2L1.5-3.8L1-4.4L0.5-3.7L0-3h0.6c0,1.7,1.3,3,3,3c0.6,0,1.2-0.2,1.8-0.6l0,0l0,0C5.5-0.7,5.5-0.8,5.5-0.9z"/>
			<circle class="st1" cx="7.4" cy="-9.1" r="1.3"/>
			<path class="st1" d="M10.4-9.1c0-1.7-1.4-3-3-3c-0.7,0-1.3,0.2-1.8,0.6l0,0c-0.1,0.1-0.1,0.3,0,0.5c0.1,0.2,0.3,0.2,0.5,0
				c1.1-0.7,2.5-0.4,3.2,0.7c0.2,0.4,0.3,0.8,0.3,1.2H9l0.5,0.7L10-7.7l0.5-0.7L11-9.1H10.4z"/>
			<path class="st1" d="M9.3-6.9c0-0.2-0.1-0.4-0.3-0.4c-0.1,0-0.2,0-0.2,0.1l0,0c-1,0.7-2.5,0.5-3.2-0.5C5.2-8.1,5-8.6,5-9.1h0.6
				L5.1-9.8l-0.4-0.7L4.2-9.8L3.7-9.1h0.6c0,1.7,1.3,3,2.9,3.1C7.9-6,8.5-6.2,9-6.6l0,0l0,0C9.2-6.7,9.3-6.8,9.3-6.9z"/>
			<circle class="st1" cx="11.1" cy="-15.1" r="1.3"/>
			<path class="st1" d="M14.1-15.1c0-1.7-1.3-3-3-3c-0.6,0-1.3,0.2-1.8,0.6l0,0c-0.1,0-0.1,0.1-0.1,0.3c0,0.2,0.2,0.4,0.4,0.4
				c0.1,0,0.2,0,0.2-0.1c0.4-0.3,0.9-0.4,1.3-0.4c1.3,0,2.3,1,2.3,2.3h-0.6l0.5,0.7l0.5,0.7l0.5-0.7l0.4-0.8H14.1z"/>
			<path class="st1" d="M13-12.9c0-0.2-0.1-0.4-0.3-0.4c-0.1,0-0.2,0-0.2,0.1l0,0c-0.4,0.3-0.9,0.4-1.4,0.4c-1.3,0-2.3-1-2.3-2.3
				h0.6l-0.5-0.7l-0.5-0.7l-0.5,0.7l-0.4,0.7h0.6c0,1.7,1.3,3,3,3c0.6,0,1.2-0.2,1.8-0.6l0,0l0,0C12.9-12.7,13-12.8,13-12.9z"/>
			<circle class="st1" cx="3.6" cy="-15.1" r="1.3"/>
			<path class="st1" d="M6.6-15.1c0-1.7-1.3-3-3-3c-0.6,0-1.2,0.2-1.7,0.6l0,0c-0.1,0-0.2,0.1-0.2,0.3c0,0.2,0.2,0.4,0.4,0.4l0,0
				c0.1,0,0.2,0,0.2-0.1c0.4-0.3,0.8-0.4,1.3-0.4c1.3,0,2.3,1,2.3,2.3l0,0H5.3l0.5,0.7l0.5,0.7l0.5-0.7l0.4-0.8H6.6z"/>
			<path class="st1" d="M5.5-12.9c0-0.2-0.1-0.4-0.3-0.4c-0.1,0-0.2,0-0.2,0.1l0,0c-0.4,0.3-0.9,0.4-1.4,0.4c-1.3,0-2.3-1-2.3-2.3
				l0,0h0.6l-0.5-0.7L1-16.5l-0.5,0.7L0-15.1h0.6c0,1.7,1.3,3,3,3c0.6,0,1.2-0.2,1.8-0.6l0,0l0,0C5.5-12.7,5.5-12.8,5.5-12.9z"/>
		</g>
	</g>
</pattern>
<pattern  x="737.1" y="590.3" width="7.5" height="12.1" patternUnits="userSpaceOnUse" id="SVGID_2_" viewBox="3.6 -15.1 7.5 12.1" style="overflow:visible;">
	<g>
		<rect x="3.6" y="-15.1" class="st0" width="7.5" height="12.1"/>
		<g>
			<rect x="3.6" y="-15.1" class="st0" width="7.5" height="12.1"/>
			<rect x="3.6" y="-15.1" class="st0" width="7.4" height="12.1"/>
			<circle class="st2" cx="11.1" cy="-3" r="1.3"/>
			<path class="st2" d="M14.1-3c0-1.7-1.3-3-3-3c-0.7,0-1.3,0.2-1.8,0.6l0,0C9.1-5.3,9.1-5.1,9.2-4.9c0.1,0.2,0.3,0.2,0.5,0.1
				c1-0.7,2.5-0.5,3.2,0.6c0.3,0.4,0.4,0.8,0.4,1.3h-0.6l0.5,0.7l0.5,0.7l0.5-0.7l0.5-0.7L14.1-3z"/>
			<path class="st2" d="M13-0.9c0-0.2-0.1-0.4-0.3-0.4c-0.1,0-0.2,0-0.2,0.1l0,0c-1,0.7-2.5,0.5-3.2-0.5C9-2.1,8.9-2.6,8.9-3.1h0.6
				L9-3.8L8.5-4.5L8-3.8L7.5-3.1h0.6c0,1.7,1.3,3,3,3c0.7,0,1.3-0.2,1.8-0.6l0,0l0,0C12.9-0.7,13-0.8,13-0.9z"/>
			<circle class="st2" cx="3.6" cy="-3" r="1.3"/>
			<path class="st2" d="M6.6-3c0-1.7-1.3-3-3-3C3-6,2.3-5.8,1.8-5.4l0,0C1.7-5.3,1.7-5.2,1.7-5.1c0,0.2,0.2,0.4,0.3,0.4l0,0
				c0.1,0,0.2,0,0.2-0.1C2.6-5.1,3-5.2,3.5-5.2c1.3,0,2.3,1,2.3,2.3H5.3l0.5,0.7l0.5,0.7l0.5-0.7l0.5-0.7H6.6V-3z"/>
			<path class="st2" d="M5.5-0.9c0-0.2-0.1-0.4-0.3-0.4C5.1-1.3,5-1.3,5-1.2l0,0C4.6-0.9,4.1-0.8,3.7-0.8c-1.3,0-2.3-1-2.3-2.3l0,0
				H2L1.5-3.8L1-4.4L0.5-3.7L0-3h0.6c0,1.7,1.3,3,3,3c0.6,0,1.2-0.2,1.8-0.6l0,0l0,0C5.5-0.7,5.5-0.8,5.5-0.9z"/>
			<circle class="st2" cx="7.4" cy="-9.1" r="1.3"/>
			<path class="st2" d="M10.4-9.1c0-1.7-1.4-3-3-3c-0.7,0-1.3,0.2-1.8,0.6l0,0c-0.1,0.1-0.1,0.3,0,0.5c0.1,0.2,0.3,0.2,0.5,0
				c1.1-0.7,2.5-0.4,3.2,0.7c0.2,0.4,0.3,0.8,0.3,1.2H9l0.5,0.7L10-7.7l0.5-0.7L11-9.1H10.4z"/>
			<path class="st2" d="M9.3-6.9c0-0.2-0.1-0.4-0.3-0.4c-0.1,0-0.2,0-0.2,0.1l0,0c-1,0.7-2.5,0.5-3.2-0.5C5.2-8.1,5-8.6,5-9.1h0.6
				L5.1-9.8l-0.4-0.7L4.2-9.8L3.7-9.1h0.6c0,1.7,1.3,3,2.9,3.1C7.9-6,8.5-6.2,9-6.6l0,0l0,0C9.2-6.7,9.3-6.8,9.3-6.9z"/>
			<circle class="st2" cx="11.1" cy="-15.1" r="1.3"/>
			<path class="st2" d="M14.1-15.1c0-1.7-1.3-3-3-3c-0.6,0-1.3,0.2-1.8,0.6l0,0c-0.1,0-0.1,0.1-0.1,0.3c0,0.2,0.2,0.4,0.4,0.4
				c0.1,0,0.2,0,0.2-0.1c0.4-0.3,0.9-0.4,1.3-0.4c1.3,0,2.3,1,2.3,2.3h-0.6l0.5,0.7l0.5,0.7l0.5-0.7l0.4-0.8H14.1z"/>
			<path class="st2" d="M13-12.9c0-0.2-0.1-0.4-0.3-0.4c-0.1,0-0.2,0-0.2,0.1l0,0c-0.4,0.3-0.9,0.4-1.4,0.4c-1.3,0-2.3-1-2.3-2.3
				h0.6l-0.5-0.7l-0.5-0.7l-0.5,0.7l-0.4,0.7h0.6c0,1.7,1.3,3,3,3c0.6,0,1.2-0.2,1.8-0.6l0,0l0,0C12.9-12.7,13-12.8,13-12.9z"/>
			<circle class="st2" cx="3.6" cy="-15.1" r="1.3"/>
			<path class="st2" d="M6.6-15.1c0-1.7-1.3-3-3-3c-0.6,0-1.2,0.2-1.7,0.6l0,0c-0.1,0-0.2,0.1-0.2,0.3c0,0.2,0.2,0.4,0.4,0.4l0,0
				c0.1,0,0.2,0,0.2-0.1c0.4-0.3,0.8-0.4,1.3-0.4c1.3,0,2.3,1,2.3,2.3l0,0H5.3l0.5,0.7l0.5,0.7l0.5-0.7l0.4-0.8H6.6z"/>
			<path class="st2" d="M5.5-12.9c0-0.2-0.1-0.4-0.3-0.4c-0.1,0-0.2,0-0.2,0.1l0,0c-0.4,0.3-0.9,0.4-1.4,0.4c-1.3,0-2.3-1-2.3-2.3
				l0,0h0.6l-0.5-0.7L1-16.5l-0.5,0.7L0-15.1h0.6c0,1.7,1.3,3,3,3c0.6,0,1.2-0.2,1.8-0.6l0,0l0,0C5.5-12.7,5.5-12.8,5.5-12.9z"/>
		</g>
	</g>
</pattern>
<title>Business Card Landscape - Back 1 - outline</title>
<rect x="0" y="0" class="st3" width="1000.3" height="590.3"/>
<pattern  id="SVGID_3_" xlink:href="#SVGID_1_" patternTransform="matrix(0.9987 0 0 0.9987 -17.1745 16373.084)">
</pattern>
<rect x="0" y="0" class="st4" width="1000.3" height="590.3"/>
<path class="st5" d="M500.3-0.4v244.1c28.1,0.8,50.5,24.3,49.7,52.4c-0.8,27-22.4,49-49.7,49.7v244.1h500.3V-0.4H500.3z"/>
<pattern  id="SVGID_4_" xlink:href="#SVGID_2_" patternTransform="matrix(0.9987 0 0 0.9987 -21.8083 16375.0117)">
</pattern>
<path class="st6" d="M500.3-0.4v244.1c28.1,0.8,50.5,24.3,49.7,52.4c-0.8,27-22.4,49-49.7,49.7v244.1h500.3V-0.4H500.3z"/>
<path class="st5" d="M791.9,294.2c0-161-130.6-291.5-291.5-291.5V71c123.4,0,223.2,99.8,223.2,223.2h-58.1l46.3,68.7l46.3,68.7
	l46.3-68.7l45.9-68.7H791.9z"/>
<path class="st5" d="M651.8,468.4c-7.6,0-15.2,2.7-21.3,7.6l0,0c-38,27.3-83.5,41.8-130.2,41.8v68.3c61.1,0,120.3-19,170.1-54.7
	c0.8-0.4,1.5-0.8,2.3-1.5l0.4-0.4l0,0c14.8-11.8,17.5-33,6.1-47.8C672.3,473.4,662,468.4,651.8,468.4L651.8,468.4z"/>
<path class="st5" d="M500.3,170.4v73.3l0,0c28.1,0.8,50.5,24.3,49.7,52.4c-0.8,27-22.4,49-49.7,49.7l0,0v72.5
	c68.3,0,123.8-55.4,123.8-123.8S568.7,170.4,500.3,170.4z"/>
<path class="st7" d="M320.8,311.3h-8v-33.4h8v7.6c1.9-4.9,6.5-8,11.8-8v8c-11.8-0.8-11.8,12.1-11.8,12.1V311.3z"/>
<rect x="226.6" y="278.3" class="st8" width="8" height="33.4"/>
<path class="st8" d="M261.6,304.4v7.2c-14,1.1-15.9-6.1-15.9-12.9v-13.7h-4.2v-6.5h4.2v-9.5h8v9.5h7.2v6.5h-7.2v11.8
	C253.6,299.5,253.2,305.2,261.6,304.4z"/>
<rect x="226.6" y="265" class="st8" width="8" height="7.2"/>
<path class="st8" d="M136.3,277.1c-9.9,0.4-17.5,8.4-17.1,18.2c0.4,9.9,8.4,17.5,18.2,17.1c9.5-0.4,17.1-8,17.1-17.5
	C154.5,285.1,146.2,277.1,136.3,277.1L136.3,277.1z M136.3,305.2c-5.7,0.4-9.5-4.2-9.9-9.9s4.2-10.6,9.9-11s10.6,4.2,11,9.9
	c0,0.4,0,0.4,0,0.8c0,5.7-4.2,10.2-9.9,10.6C137.4,305.2,136.3,305.2,136.3,305.2z"/>
<path class="st7" d="M353.8,277.1c-9.9,0.4-17.1,8.7-16.7,18.2c0.4,9.9,8.7,17.1,18.2,16.7s16.7-8.4,16.7-17.5
	C372,285.1,363.7,277.1,353.8,277.1L353.8,277.1z M354.9,305.2c-5.7,0.4-10.6-4.2-11-9.9s4.2-10.6,9.9-11c5.7-0.4,10.6,4.2,11,9.9
	c0,0.4,0,0.4,0,0.8c0,5.7-5.7,10.2-11.4,10.6C353.8,305.2,354.9,305.2,354.9,305.2z"/>
<path class="st8" d="M194.7,282.4v-17.1h-8v46.3h8v-3.8c4.6,8,24.7,7.2,24.7-12.9C219.8,276.7,203.1,272.6,194.7,282.4z
	 M203.1,305.6c-5.7-1.5-9.5-7.2-8.4-13.3c0.8-4.2,4.2-7.2,8.4-8.4c7.2,0.4,9.5,7.2,8.4,13.3C210.3,301.4,208.8,305.2,203.1,305.6z"
	/>
<path class="st7" d="M451.4,295c0-20.1-20.1-22-25.8-12.1v-4.9h-7.2v46.7h8v-17.1C432.8,316.2,451.4,313.2,451.4,295z M443,295
	c0,5.3-2.3,10.2-8.7,10.2c-4.6,0-8-4.9-8-10.2c0-6.5,3-11,8.4-11C440,283.9,443,288.9,443,295z"/>
<path class="st7" d="M295.3,306.3c1.5,19-18.6,9.5-18.6,9.5l-2.7,6.5c1.1,1.5,25.8,9.5,29.2-10.6c0-6.8,0-33.4,0-33.4h-7.6v3.8
	c-4.6-8-25.1-7.2-25.1,12.9C271,309,286.6,316.2,295.3,306.3z M287.4,284.3c6.5,0,8,4.6,8,10.6c0.8,4.6-2.7,8.7-7.2,9.1
	c-0.4,0-0.8,0-1.1,0c-4.6-0.4-8.4-4.6-8-9.1l0,0C279.4,288.9,280.9,284.3,287.4,284.3z"/>
<path class="st7" d="M378.5,278.3h8v20.9c0,9.5,14.8,8.4,14.8-5.7v-15.2h8.4v33.4H402c0,0,0-4.6,0-6.1c-2.7,4.6-7.6,7.2-12.5,6.8
	c-5.7,0-10.2-4.2-10.2-9.9c0-0.4,0-0.4,0-0.8C378.5,295.3,378.5,278.3,378.5,278.3z"/>
<path class="st8" d="M169.3,311.3h-8v-33.4h8v7.6c1.9-4.9,6.5-8,11.8-8v8c-11.8-0.8-11.8,12.1-11.8,12.1V311.3z"/>
<circle class="st9" cx="500.3" cy="295" r="14"/>
<path class="st7" d="M533.7,295c0-18.2-14.8-33.4-33.4-33.4c-7.2,0-14,2.3-19.7,6.5l0,0c-1.5,1.5-1.9,3.8-0.4,5.3
	c1.5,1.5,3.8,1.9,5.3,0.4c11.4-8,27.3-5.3,35.7,6.1c3,4.2,4.6,9.5,4.6,14.8h-6.8l5.3,8l5.3,8l5.3-8l5.3-8L533.7,295z"/>
<path class="st8" d="M521.6,318.9c0-2.3-1.5-3.8-3.4-4.2c-1.1,0-1.9,0.4-2.7,1.1l0,0c-11.4,8.4-27.3,5.7-35.7-5.7
	c-3-4.6-4.9-9.5-4.9-15.2h6.8l-5.3-8l-5.3-8l-5.3,8l-5.3,8h6.8c0,18.2,14.8,33.4,33.4,33.4c6.8,0,13.7-2.3,19.4-6.1h0.4l0,0
	C520.8,321.5,521.6,320,521.6,318.9z"/>
<path class="st10" d="M570.9,394.8c1.5-1.5,1.1-2.3,0-3c-1.5-1.5-3.4-2.7-5.3-3c-0.4,0-0.4,0-0.8,0c-1.5,0.8-2.3,1.5-2.7,1.5
	s-1.1-0.4-1.9-1.1l0,0c-0.8-0.8-1.5-1.5-2.3-2.3l0,0l-0.4-0.4c-0.4-0.4-0.8-0.8-1.9-2.3l0,0c-0.8-0.8-1.1-1.5-1.5-2.3
	s0.4-1.5,1.1-2.7s-0.4-3.8-2.3-6.1l0,0c-0.4-0.4-1.1-0.8-1.5-0.8c-0.8,0-1.1,0.4-1.9,0.8l0,0c-0.8,0.4-1.1,1.1-1.5,1.9
	c-0.4,1.1-0.4,2.7,1.1,6.1c2.7,4.9,6.5,9.5,11.4,12.5c1.9,1.5,4.2,2.7,6.5,3C568.7,396.7,570.2,395.9,570.9,394.8z"/>
<path class="st10" d="M544,429.3h31.5v20.9H544V429.3z M559.9,441.1l13.3-10.2h-26.6L559.9,441.1z M545.5,449.1h28.9v-17.5l-9.5,7.2
	l5.7,6.5l0,0l-6.8-5.3l-3.8,3l-3.8-3l-6.8,5.7l0,0l5.7-6.5l-9.5-7.2V449.1z"/>
<text transform="matrix(1 0 0 1 543.2254 170.0676)" class="st10 st11 st12">Vice President, Technology &amp; IT Operations</text>
<path class="st3" d="M565.2,115.4c-0.4,0.4-0.4,0.8-0.8,0.8s-0.8,0.4-1.1,0.4s-0.8,0-1.1-0.4c-0.4-0.4-0.8-0.4-1.5-0.8
	c-0.4-0.4-1.1-0.4-1.9-0.8c-0.8-0.4-1.5-0.4-2.3-0.4c-1.5,0-2.7,0.4-3.4,1.1s-1.1,1.5-1.1,2.7c0,0.8,0.4,1.1,0.8,1.9
	c0.4,0.8,1.1,0.8,1.9,1.1c0.8,0.4,1.5,0.8,2.3,0.8c0.8,0.4,1.9,0.8,2.7,0.8c1.1,0.4,1.9,0.8,2.7,1.1s1.9,1.1,2.3,1.9
	c0.8,0.8,1.1,1.5,1.9,2.7c0.4,1.1,0.8,2.3,0.8,3.8c0,1.5-0.4,3-0.8,4.6c-0.4,1.5-1.5,2.7-2.3,3.8c-1.1,1.1-2.3,1.9-3.8,2.3
	c-1.5,0.8-3.4,0.8-5.3,0.8c-1.1,0-2.3,0-3.4-0.4c-1.1-0.4-2.3-0.4-3-0.8c-1.1-0.4-1.9-0.8-3-1.5s-1.5-1.1-2.3-1.9l2.3-3.8
	c0-0.4,0.4-0.4,0.8-0.8s0.8-0.4,1.1-0.4s0.8,0,1.5,0.4s1.1,0.8,1.5,1.1c0.8,0.4,1.1,0.8,2.3,1.1c0.8,0.4,1.9,0.4,2.7,0.4
	c1.5,0,2.7-0.4,3.4-1.1s1.1-1.5,1.1-3c0-0.8-0.4-1.5-0.8-1.9c-0.4-0.4-1.1-0.8-1.9-1.1s-1.5-0.8-2.3-0.8c-0.8-0.4-1.9-0.4-2.7-0.8
	c-1.1-0.4-1.9-0.8-2.7-1.1s-1.9-1.1-2.3-1.9c-0.8-0.8-1.1-1.5-1.9-2.7c-0.8-1.1-0.8-2.3-0.8-4.2c0-1.1,0.4-2.7,0.8-3.8
	c0.4-1.1,1.1-2.3,2.3-3.4c1.1-1.1,2.3-1.9,3.8-2.3s3-0.8,4.9-0.8c1.1,0,1.9,0,3,0.4c1.1,0,1.9,0.4,2.7,0.8c0.8,0.4,1.9,0.8,2.7,1.1
	s1.5,1.1,1.9,1.5L565.2,115.4z"/>
<path class="st3" d="M585,143.1c-1.1,0-2.3,0-3-0.4s-1.5-0.8-2.3-1.5c-0.8-0.8-1.1-1.5-1.5-2.3c-0.4-0.8-0.4-1.9-0.4-3v-12.5h-1.9
	c-0.4,0-0.8,0-1.1-0.4s-0.4-0.8-0.4-1.1v-3l3.8-0.8l1.5-6.1c0-0.8,0.8-1.1,1.5-1.1h3.8v7.2h6.1v4.9H585v12.1c0,0.4,0,1.1,0.4,1.5
	c0.4,0.4,0.8,0.4,1.1,0.4s0.4,0,0.8,0h0.4h0.4h0.4c0.4,0,0.4,0,0.4,0l0.4,0.4l2.3,3.4c-0.8,0.8-1.9,1.1-3,1.5
	C587.3,142.7,586.1,143.1,585,143.1z"/>
<path class="st3" d="M610.4,117.7c1.5,0,3,0.4,4.6,0.8c1.5,0.4,2.7,1.1,3.4,2.3c0.8,1.1,1.9,2.3,2.3,3.4c0.4,1.5,0.8,3,0.8,4.6
	c0,0.4,0,1.1,0,1.5c0,0.4,0,0.8-0.4,0.8s-0.4,0.4-0.4,0.4c-0.4,0-0.4,0-0.8,0h-14c0.4,1.9,0.8,3.4,1.9,4.6c1.1,0.8,2.3,1.5,3.8,1.5
	c0.8,0,1.5,0,2.3-0.4c0.8-0.4,1.1-0.4,1.5-0.8c0.4-0.4,0.8-0.4,1.1-0.8c0.4-0.4,0.8-0.4,1.1-0.4c0.8,0,1.1,0.4,1.1,0.8l2.3,2.7
	c-0.8,0.8-1.5,1.5-2.3,2.3c-0.8,0.4-1.9,1.1-2.7,1.1c-0.8,0.4-1.9,0.4-2.7,0.8c-0.8,0-1.9,0-2.7,0c-1.9,0-3.4-0.4-4.9-0.8
	c-1.5-0.4-2.7-1.5-3.8-2.7s-1.9-2.7-2.7-4.2s-1.1-3.4-1.1-5.7c0-1.5,0.4-3,0.8-4.6c0.4-1.5,1.5-2.7,2.3-3.8c1.1-1.1,2.3-1.9,3.8-2.7
	C607,118.1,608.5,117.7,610.4,117.7z M610.4,123c-1.5,0-2.7,0.4-3.4,1.1s-1.1,1.9-1.5,3.4h9.1c0-0.8,0-1.1-0.4-1.5s-0.4-1.1-0.8-1.5
	c-0.4-0.4-0.8-0.8-1.5-1.1C611.9,123,611.2,123,610.4,123z"/>
<path class="st3" d="M643.1,142.7h-6.8l-9.5-24.3h6.1c0.4,0,1.1,0,1.1,0.4c0.4,0.4,0.8,0.4,0.8,0.8l3.4,11c0.4,0.8,0.4,1.9,0.8,2.7
	c0.4,0.8,0.4,1.5,0.8,2.7c0-0.8,0.4-1.5,0.8-2.7c0.4-0.8,0.4-1.9,0.8-2.7l3.4-11c0-0.4,0.4-0.8,0.8-0.8c0.4-0.4,0.8-0.4,1.1-0.4h5.7
	L643.1,142.7z"/>
<path class="st3" d="M669.6,117.7c1.5,0,3,0.4,4.6,0.8c1.5,0.4,2.7,1.1,3.4,2.3c0.8,1.1,1.9,2.3,2.3,3.4c0.4,1.5,0.8,3,0.8,4.6
	c0,0.4,0,1.1,0,1.5c0,0.4,0,0.8-0.4,0.8s-0.4,0.4-0.4,0.4c-0.4,0-0.4,0-0.8,0h-14c0.4,1.9,0.8,3.4,1.9,4.6c1.1,0.8,2.3,1.5,3.8,1.5
	c0.8,0,1.5,0,2.3-0.4c0.8-0.4,1.1-0.4,1.5-0.8c0.4-0.4,0.8-0.4,1.1-0.8c0.4-0.4,0.8-0.4,1.1-0.4c0.8,0,1.1,0.4,1.1,0.8l2.3,2.7
	c-0.8,0.8-1.5,1.5-2.3,2.3c-0.8,0.4-1.9,1.1-2.7,1.1c-0.8,0.4-1.9,0.4-2.7,0.8c-0.8,0-1.9,0-2.7,0c-1.9,0-3.4-0.4-4.9-0.8
	c-1.5-0.4-2.7-1.5-3.8-2.7s-1.9-2.7-2.7-4.2s-1.1-3.4-1.1-5.7c0-1.5,0.4-3,0.8-4.6c0.4-1.5,1.5-2.7,2.3-3.8c1.1-1.1,2.3-1.9,3.8-2.7
	C666.2,118.1,667.7,117.7,669.6,117.7z M670,123c-1.5,0-2.7,0.4-3.4,1.1s-1.1,1.9-1.5,3.4h9.1c0-0.8,0-1.1-0.4-1.5s-0.4-1.1-0.8-1.5
	c-0.4-0.4-0.8-0.8-1.5-1.1C671.5,123,670.8,123,670,123z"/>
<path class="st3" d="M726.6,133.6h0.4l0.4,0.4l3,3.4c-1.5,1.9-3,3-5.3,4.2c-1.9,0.8-4.6,1.5-7.2,1.5s-4.9-0.4-6.8-1.5
	c-1.9-0.8-3.8-2.3-5.3-3.8c-1.5-1.5-2.7-3.4-3.4-5.7c-0.8-2.3-1.1-4.6-1.1-6.8c0-2.7,0.4-4.9,1.1-7.2s2.3-4.2,3.8-5.7
	s3.4-2.7,5.7-3.8c2.3-1.1,4.6-1.1,7.2-1.1c1.1,0,2.7,0,3.8,0.4c1.1,0.4,2.3,0.4,3,0.8c1.1,0.4,1.9,0.8,2.7,1.5s1.5,1.1,2.3,1.9
	l-2.7,3.8c0,0.4-0.4,0.4-0.8,0.8c-0.4,0-0.4,0.4-1.1,0.4c-0.4,0-0.4,0-0.8,0c-0.4,0-0.4-0.4-0.8-0.4c-0.4,0-0.8-0.4-0.8-0.8
	c-0.4-0.4-0.8-0.4-1.1-0.8s-1.1-0.4-1.5-0.4c-0.8,0-1.5,0-2.3,0c-1.5,0-2.7,0.4-3.8,0.8s-2.3,1.1-3,2.3c-0.8,1.1-1.5,2.3-1.9,3.4
	c-0.4,1.5-0.8,3-0.8,4.6c0,1.9,0.4,3.4,0.8,4.6c0.4,1.5,1.1,2.7,1.9,3.4c0.8,0.8,1.9,1.5,3,2.3c1.1,0.4,2.3,0.8,3.4,0.8
	c0.8,0,1.5,0,1.9,0c0.8,0,1.1-0.4,1.5-0.4c0.4,0,1.1-0.4,1.5-0.8c0.4-0.4,0.8-0.8,1.5-1.1c0,0,0.4-0.4,0.8-0.4
	C726.2,133.6,726.6,133.6,726.6,133.6z"/>
<path class="st3" d="M746.7,107.4v35.3h-7.2v-35.3C739.5,107.4,746.7,107.4,746.7,107.4z"/>
<path class="st3" d="M765.7,111.6c0,0.8,0,1.1-0.4,1.5s-0.4,1.1-1.1,1.5c-0.4,0.4-0.8,0.8-1.5,0.8c-0.4,0.4-1.1,0.4-1.9,0.4
	c-0.8,0-1.1,0-1.5-0.4s-1.1-0.4-1.5-0.8c-0.4-0.4-0.8-0.8-0.8-1.5c-0.4-0.4-0.4-1.1-0.4-1.5c0-0.8,0-1.1,0.4-1.5s0.4-1.1,0.8-1.5
	c0.4-0.4,0.8-0.8,1.5-0.8c0.4-0.4,1.1-0.4,1.5-0.4c0.8,0,1.1,0,1.9,0.4c0.4,0.4,1.1,0.4,1.5,0.8c0.4,0.4,0.8,0.8,1.1,1.5
	C765.7,110.5,765.7,110.8,765.7,111.6z M764.9,118.1v24.3h-7.2v-24.3C757.7,118.1,764.9,118.1,764.9,118.1z"/>
<path class="st3" d="M775.6,142.7v-24.3h4.6c0.4,0,0.8,0,1.1,0.4s0.4,0.4,0.8,0.8l0.4,1.5c0.4-0.4,1.1-0.8,1.5-1.1
	c0.4-0.4,1.1-0.8,1.5-1.1s1.1-0.4,1.9-0.8c0.8,0,1.5-0.4,2.3-0.4c1.5,0,2.7,0.4,3.4,0.8c1.1,0.4,1.9,1.1,2.7,1.9
	c0.8,0.8,1.1,1.9,1.5,3c0.4,1.1,0.4,2.3,0.4,3.8v15.6h-7.2v-15.6c0-1.1-0.4-2.3-0.8-2.7c-0.4-0.4-1.5-1.1-2.3-1.1
	c-0.8,0-1.5,0-2.3,0.4s-1.5,0.8-1.9,1.5v17.5C783.1,142.7,775.6,142.7,775.6,142.7z"/>
<path class="st3" d="M816.2,143.1c-1.1,0-2.3,0-3-0.4s-1.5-0.8-2.3-1.5c-0.8-0.8-1.1-1.5-1.5-2.3c-0.4-0.8-0.4-1.9-0.4-3v-12.5h-1.9
	c-0.4,0-0.8,0-1.1-0.4s-0.4-0.8-0.4-1.1v-3l3.8-0.8l1.5-6.1c0-0.8,0.8-1.1,1.5-1.1h3.8v7.2h6.1v4.9h-6.1v12.1c0,0.4,0,1.1,0.4,1.5
	c0.4,0.4,0.8,0.4,1.1,0.4s0.4,0,0.8,0h0.4h0.4h0.4c0.4,0,0.4,0,0.4,0l0.4,0.4l2.3,3.4c-0.8,0.8-1.9,1.1-3,1.5
	C818.8,142.7,817.7,143.1,816.2,143.1z"/>
<path class="st3" d="M842.4,117.7c1.9,0,3.4,0.4,4.9,0.8c1.5,0.4,2.7,1.5,3.8,2.7c1.1,1.1,1.9,2.3,2.7,3.8c0.8,1.5,0.8,3.4,0.8,5.3
	c0,1.9-0.4,3.8-0.8,5.3c-0.8,1.5-1.5,3-2.7,4.2c-1.1,1.1-2.3,1.9-3.8,2.7c-1.5,0.8-3,0.8-4.9,0.8s-3.4-0.4-4.9-0.8
	c-1.5-0.8-3-1.5-3.8-2.7c-1.1-1.1-1.9-2.3-2.7-4.2c-0.8-1.5-0.8-3.4-0.8-5.3c0-1.9,0.4-3.8,0.8-5.3c0.8-1.5,1.5-3,2.7-3.8
	c1.1-1.1,2.3-1.9,3.8-2.7C838.9,117.7,840.5,117.7,842.4,117.7z M842.4,137.4c1.5,0,3-0.8,3.8-1.9s1.1-3,1.1-5.3
	c0-2.3-0.4-4.2-1.1-5.3c-0.8-1.1-1.9-1.9-3.8-1.9s-3,0.8-3.8,1.9c-0.8,1.1-1.1,3-1.1,5.3c0,2.3,0.4,4.2,1.1,5.3
	C839.3,137,840.5,137.4,842.4,137.4z"/>
<path class="st3" d="M863.2,142.7v-24.3h4.6c0.4,0,0.8,0,1.1,0.4s0.4,0.4,0.8,0.8l0.4,1.5c0.4-0.4,1.1-0.8,1.5-1.1
	c0.4-0.4,1.1-0.8,1.5-1.1s1.1-0.4,1.9-0.8c0.8,0,1.5-0.4,2.3-0.4c1.5,0,2.7,0.4,3.4,0.8c1.1,0.4,1.9,1.1,2.7,1.9
	c0.8,0.8,1.1,1.9,1.5,3c0.4,1.1,0.4,2.3,0.4,3.8v15.6H878v-15.6c0-1.1-0.4-2.3-0.8-2.7c-0.4-0.4-1.5-1.1-2.3-1.1
	c-0.8,0-1.5,0-2.3,0.4c-0.8,0.4-1.5,0.8-1.9,1.5v17.5C870.8,142.7,863.2,142.7,863.2,142.7z"/>
<text transform="matrix(1 0 0 1 596.389 444.8615)" class="st10 st13 st14">steve.clinton@orbitgroup.ca</text>
<text transform="matrix(1 0 0 1 596.3909 499.6467)" class="st10 st13 st14 st15">orbitgroup.ca</text>
<text transform="matrix(1 0 0 1 596.389 388.6686)" class="st10 st13 st16 st15">+1.289.444.3516</text>
<path class="st0" d="M544.4,503.7h30.7v-15.9h-30.7V503.7z M563,490.8h9.9v10.2H563V490.8z M546.3,491.6c0-0.4,0.4-0.4,0.4-0.4H558
	c0.4,0,0.4,0.4,0.4,0.4l0,0c0,0.4-0.4,0.4-0.4,0.4h-11.4C546.3,492.4,546.3,492,546.3,491.6L546.3,491.6z M546.3,493.9
	c0-0.4,0.4-0.4,0.4-0.4h5.3c0.4,0,0.4,0.4,0.4,0.4l0,0c0,0.4-0.4,0.4-0.4,0.4h-5.3C546.3,494.6,546.3,494.3,546.3,493.9L546.3,493.9
	z M546.3,496.2c0-0.4,0.4-0.4,0.4-0.4h5.3c0.4,0,0.4,0.4,0.4,0.4l0,0c0,0.4-0.4,0.4-0.4,0.4h-5.3
	C546.3,496.9,546.3,496.5,546.3,496.2L546.3,496.2z M546.3,498.4c0-0.4,0.4-0.4,0.4-0.4H558c0.4,0,0.4,0.4,0.4,0.4l0,0
	c0,0.4-0.4,0.4-0.4,0.4h-11.4C546.3,499.2,546.3,498.8,546.3,498.4L546.3,498.4z M546.3,500.7c0-0.4,0.4-0.4,0.4-0.4H558
	c0.4,0,0.4,0.4,0.4,0.4l0,0c0,0.4-0.4,0.4-0.4,0.4h-11.4C546.3,501.5,546.3,501.1,546.3,500.7L546.3,500.7z"/>
<rect x="563.7" y="491.6" class="st0" width="8.4" height="8.7"/>
<path class="st0" d="M544.4,487h30.7v-3.4h-30.7V487z M550.8,484.4c0.4,0,0.8,0.4,0.8,0.8s-0.4,0.8-0.8,0.8c-0.4,0-0.8-0.4-0.8-0.8
	C550.1,484.8,550.4,484.4,550.8,484.4z M548.5,484.4c0.4,0,0.8,0.4,0.8,0.8s-0.4,0.8-0.8,0.8c-0.4,0-0.8-0.4-0.8-0.8
	C547.8,484.8,548.2,484.4,548.5,484.4z M546.6,484.4c0.4,0,0.8,0.4,0.8,0.8s-0.4,0.8-0.8,0.8c-0.4,0-0.8-0.4-0.8-0.8
	C545.9,484.8,546.3,484.4,546.6,484.4z"/>
<line class="st0" x1="-51.5" y1="10162.7" x2="-51.5" y2="-6220.3"/>
<line class="st0" x1="44.4" y1="10162.7" x2="44.4" y2="-6220.3"/>
<line class="st0" x1="18.4" y1="10162.7" x2="18.4" y2="-6220.3"/>
<line class="st0" x1="46.6" y1="10162.7" x2="46.6" y2="-6220.3"/>
<path class="st10" d="M546.6,494.6h5.3c0.4,0,0.4-0.4,0.4-0.4l0,0c0-0.4-0.4-0.4-0.4-0.4h-5.3c-0.4,0-0.4,0.4-0.4,0.4l0,0
	C546.3,494.3,546.3,494.6,546.6,494.6z"/>
<circle class="st10" cx="546.6" cy="485.1" r="0.8"/>
<circle class="st10" cx="550.8" cy="485.1" r="0.8"/>
<circle class="st10" cx="548.5" cy="485.1" r="0.8"/>
<path class="st10" d="M575.9,482.9h-32.3v21.6h32.3V482.9z M575.1,503.7h-30.7v-15.9h30.7V503.7z M575.1,487h-30.7v-3.4h30.7V487z"
	/>
<path class="st10" d="M546.6,499.2H558c0.4,0,0.4-0.4,0.4-0.4l0,0c0-0.4-0.4-0.4-0.4-0.4h-11.4c-0.4,0-0.4,0.4-0.4,0.4l0,0
	C546.3,498.8,546.3,499.2,546.6,499.2z"/>
<path class="st10" d="M546.6,492.4H558c0.4,0,0.4-0.4,0.4-0.4l0,0c0-0.4-0.4-0.4-0.4-0.4h-11.4c-0.4,0-0.4,0.4-0.4,0.4l0,0
	C546.3,492,546.3,492.4,546.6,492.4z"/>
<path class="st10" d="M546.6,501.5H558c0.4,0,0.4-0.4,0.4-0.4l0,0c0-0.4-0.4-0.4-0.4-0.4h-11.4c-0.4,0-0.4,0.4-0.4,0.4l0,0
	C546.3,501.1,546.3,501.5,546.6,501.5z"/>
<path class="st10" d="M546.6,496.9h5.3c0.4,0,0.4-0.4,0.4-0.4l0,0c0-0.4-0.4-0.4-0.4-0.4h-5.3c-0.4,0-0.4,0.4-0.4,0.4l0,0
	C546.3,496.5,546.3,496.9,546.6,496.9z"/>
<path class="st10" d="M572.8,490.8H563v10.2h9.9V490.8z M572.1,500.3h-8.4v-8.7h8.4V500.3z"/>
</svg>
