<?xml version="1.0" encoding="utf-8"?>
<!-- Generator: Adobe Illustrator 21.0.0, SVG Export Plug-In . SVG Version: 6.00 Build 0)  -->
<svg version="1.1" id="Layer_1" xmlns="http://www.w3.org/2000/svg" xmlns:xlink="http://www.w3.org/1999/xlink" x="0px" y="0px"
	 viewBox="0 0 195.6 195.6" style="enable-background:new 0 0 195.6 195.6;" xml:space="preserve">
<style type="text/css">
	.st0{fill:none;}
	.st1{fill:#131313;}
	.st2{fill:#1C1B1A;}
	.st3{fill:url(#SVGID_1_);}
	.st4{fill:url(#SVGID_2_);}
	.st5{fill:url(#SVGID_3_);}
	.st6{fill:url(#SVGID_4_);}
	.st7{fill:#A3A3A2;}
	.st8{fill:#515151;}
	.st9{font-family:'Lato-Light';}
	.st10{font-size:5.4401px;}
	.st11{font-size:4.4802px;}
	.st12{font-family:'Lato-Regular';}
	.st13{font-size:4.2499px;}
	.st14{fill:#FFFFFF;}
	.st15{font-family:'Lato-Black';}
	.st16{font-size:9.7167px;}
</style>
<pattern  y="195.6" width="7.5" height="12.1" patternUnits="userSpaceOnUse" id="New_Pattern" viewBox="3.6 -15.1 7.5 12.1" style="overflow:visible;">
	<g>
		<rect x="3.6" y="-15.1" class="st0" width="7.5" height="12.1"/>
		<rect x="3.6" y="-15.1" class="st0" width="7.4" height="12.1"/>
		<circle class="st1" cx="11.1" cy="-15.1" r="1.3"/>
		<path class="st1" d="M14.1-15.1c0,1.7-1.3,3-3,3c-0.7,0-1.3-0.2-1.8-0.6l0,0c-0.2-0.1-0.2-0.3-0.1-0.5c0.1-0.2,0.3-0.2,0.5-0.1
			c1,0.7,2.5,0.5,3.2-0.6c0.3-0.4,0.4-0.8,0.4-1.3h-0.6l0.5-0.7l0.5-0.7l0.5,0.7l0.5,0.7L14.1-15.1z"/>
		<path class="st1" d="M13-17.2c0,0.2-0.1,0.4-0.3,0.4c-0.1,0-0.2,0-0.2-0.1l0,0c-1-0.7-2.5-0.5-3.2,0.5c-0.3,0.4-0.4,0.9-0.4,1.4
			h0.6l-0.5,0.7l-0.5,0.7l-0.5-0.7l-0.5-0.7h0.6c0-1.7,1.3-3,3-3c0.7,0,1.3,0.2,1.8,0.6l0,0l0,0C12.9-17.4,13-17.3,13-17.2z"/>
		<circle class="st1" cx="3.6" cy="-15.1" r="1.3"/>
		<path class="st1" d="M6.6-15.1c0,1.7-1.3,3-3,3c-0.6,0-1.3-0.2-1.8-0.6l0,0c-0.1-0.1-0.1-0.2-0.1-0.3c0-0.2,0.2-0.4,0.3-0.4
			c0,0,0,0,0,0c0.1,0,0.2,0,0.2,0.1c0.4,0.3,0.8,0.4,1.3,0.4c1.3,0,2.3-1,2.3-2.3H5.3l0.5-0.7l0.5-0.7l0.5,0.7l0.5,0.7H6.6z"/>
		<path class="st1" d="M5.5-17.2c0,0.2-0.1,0.4-0.3,0.4c-0.1,0-0.2,0-0.2-0.1l0,0c-0.4-0.3-0.9-0.4-1.3-0.4c-1.3,0-2.3,1-2.3,2.3
			c0,0,0,0,0,0h0.6l-0.5,0.7L1-13.7l-0.5-0.7L0-15.1h0.6c0-1.7,1.3-3,3-3c0.6,0,1.2,0.2,1.8,0.6l0,0l0,0C5.5-17.4,5.5-17.3,5.5-17.2
			z"/>
		<circle class="st1" cx="7.4" cy="-9" r="1.3"/>
		<path class="st1" d="M10.4-9c0,1.7-1.4,3-3,3C6.7-6,6.1-6.2,5.6-6.6l0,0C5.5-6.7,5.5-6.9,5.6-7.1c0.1-0.2,0.3-0.2,0.5,0
			c1.1,0.7,2.5,0.4,3.2-0.7C9.5-8.2,9.6-8.6,9.6-9H9l0.5-0.7l0.5-0.7l0.5,0.7L11-9H10.4z"/>
		<path class="st1" d="M9.3-11.2c0,0.2-0.1,0.4-0.3,0.4c-0.1,0-0.2,0-0.2-0.1l0,0c-1-0.7-2.5-0.5-3.2,0.5C5.2-10,5-9.5,5-9h0.6
			L5.1-8.3L4.7-7.6L4.2-8.3L3.7-9h0.6c0-1.7,1.3-3,2.9-3.1c0.7,0,1.3,0.2,1.8,0.6l0,0l0,0C9.2-11.4,9.3-11.3,9.3-11.2z"/>
		<circle class="st1" cx="11.1" cy="-3" r="1.3"/>
		<path class="st1" d="M14.1-3c0,1.7-1.3,3-3,3c-0.6,0-1.3-0.2-1.8-0.6l0,0C9.2-0.6,9.2-0.7,9.2-0.9c0-0.2,0.2-0.4,0.4-0.4
			c0.1,0,0.2,0,0.2,0.1c0.4,0.3,0.9,0.4,1.3,0.4c1.3,0,2.3-1,2.3-2.3h-0.6l0.5-0.7l0.5-0.7l0.5,0.7L14.7-3H14.1z"/>
		<path class="st1" d="M13-5.2c0,0.2-0.1,0.4-0.3,0.4c-0.1,0-0.2,0-0.2-0.1l0,0c-0.4-0.3-0.9-0.4-1.4-0.4c-1.3,0-2.3,1-2.3,2.3h0.6
			L8.9-2.3L8.4-1.6L7.9-2.3L7.5-3h0.6c0-1.7,1.3-3,3-3c0.6,0,1.2,0.2,1.8,0.6l0,0l0,0C12.9-5.4,13-5.3,13-5.2z"/>
		<circle class="st1" cx="3.6" cy="-3" r="1.3"/>
		<path class="st1" d="M6.6-3c0,1.7-1.3,3-3,3C3,0,2.4-0.2,1.9-0.6l0,0C1.8-0.6,1.7-0.7,1.7-0.9c0-0.2,0.2-0.4,0.4-0.4l0,0
			c0.1,0,0.2,0,0.2,0.1c0.4,0.3,0.8,0.4,1.3,0.4c1.3,0,2.3-1,2.3-2.3l0,0H5.3l0.5-0.7l0.5-0.7l0.5,0.7L7.2-3H6.6z"/>
		<path class="st1" d="M5.5-5.2c0,0.2-0.1,0.4-0.3,0.4C5.1-4.8,5-4.8,5-4.9l0,0C4.6-5.2,4.1-5.3,3.6-5.3c-1.3,0-2.3,1-2.3,2.3l0,0
			h0.6L1.4-2.3L1-1.6L0.5-2.3L0-3h0.6c0-1.7,1.3-3,3-3c0.6,0,1.2,0.2,1.8,0.6l0,0l0,0C5.5-5.4,5.5-5.3,5.5-5.2z"/>
	</g>
</pattern>
<title>Business-Card-Square-3</title>
<g id="Layer_3">
	<rect y="0" class="st2" width="195.6" height="195.6"/>
</g>
<g id="Layer_3_copy">
	<rect y="0" class="st2" width="195.6" height="195.6"/>
</g>
<g id="Your_Design">
	<pattern  id="SVGID_1_" xlink:href="#New_Pattern" patternTransform="matrix(0.9987 0 0 -0.9987 -4.6439 -16449.4102)">
	</pattern>
	<path class="st3" d="M42.1,55.8c-9-2.4-18.1,2.6-20.5,11.3s3,17.6,12,20s18.1-2.6,20.5-11.3S51.1,58.2,42.1,55.8z M35.4,80.6
		c-5.1-1.7-7.8-7.2-6.2-12.2c1.5-4.7,6.3-7.4,11.2-6.4c5.1,1.7,7.8,7.2,6.2,12.2C45,78.8,40.2,81.6,35.4,80.6z"/>
	<pattern  id="SVGID_2_" xlink:href="#New_Pattern" patternTransform="matrix(0.9987 0 0 -0.9987 -4.6439 -16449.4102)">
	</pattern>
	<path class="st4" d="M128,96.5c4.8-17.9-12.7-24.3-20-16.8l1.2-4.5l-6.4-1.7l-11.3,41.7l7.2,1.9l4.1-15.3
		C106.2,110.8,123.7,112.5,128,96.5z M120.6,94.5c-1.2,4.6-4.6,8.6-10.4,7c-4.2-1.1-5.8-6.4-4.5-11c1.6-5.7,5.3-8.9,10.2-7.6
		C120.4,84.1,122.1,88.8,120.6,94.5L120.6,94.5z"/>
	<pattern  id="SVGID_3_" xlink:href="#New_Pattern" patternTransform="matrix(0.9987 0 0 -0.9987 -4.6439 -16449.4102)">
	</pattern>
	<path class="st5" d="M80.1,94.3c-3.2,17.3-18.7,4-18.7,4l-3.8,5.2c0.6,1.5,20.6,14.6,28.5-2.6c1.7-6.2,8-29.8,8-29.8l-6.7-1.8
		l-0.9,3.4c-2.3-8.2-20.3-12.5-25.1,5.4C57.9,90.7,70,101,80.1,94.3z M78.4,72.6c5.6,1.5,6.1,6.1,4.7,11.3s-5.3,7.5-9.5,6.3
		s-6-5.7-4.8-10.2C70.3,74.8,72.8,71.1,78.4,72.6z"/>
</g>
<g id="Layer_5">
	<pattern  id="SVGID_4_" xlink:href="#New_Pattern" patternTransform="matrix(0.9987 0 0 -0.9987 -4.6439 -16449.4102)">
	</pattern>
	<path class="st6" d="M112.2,0H36.3C21.9,6.6,9.4,16.7,0,29.5v108.6c30,41,87.5,50,128.6,20s50-87.5,20-128.6
		C139.2,16.7,126.6,6.5,112.2,0z M74.2,147.9c-35.4,0-64.1-28.7-64.1-64.1s28.7-64.1,64.1-64.1s64.1,28.7,64.1,64.1
		S109.6,147.9,74.2,147.9L74.2,147.9z"/>
</g>
<g id="copy">
	<path class="st7" d="M101.3,90.2c0.3-0.3,0.2-0.5,0-0.7c-0.3-0.3-0.7-0.5-1.2-0.6c0,0-0.1,0-0.1,0c-0.3,0.2-0.4,0.3-0.6,0.3
		s-0.2-0.1-0.4-0.2l0,0c-0.2-0.1-0.3-0.3-0.5-0.5l0,0h-0.1c-0.1-0.1-0.2-0.2-0.4-0.5l0,0c-0.2-0.2-0.3-0.3-0.3-0.4s0.1-0.3,0.3-0.6
		s-0.1-0.8-0.5-1.3l0,0c-0.1-0.1-0.2-0.2-0.3-0.2c-0.1,0-0.3,0.1-0.4,0.1l0,0c-0.2,0.1-0.3,0.2-0.3,0.4c-0.1,0.3-0.1,0.6,0.3,1.3
		c0.6,1,1.4,1.9,2.4,2.6c0.4,0.3,0.9,0.5,1.3,0.6C100.8,90.7,101.2,90.5,101.3,90.2z"/>
	<path class="st7" d="M95.6,96.9h6.7v4.5h-6.7V96.9z M99,99.4l2.8-2.2h-5.7L99,99.4z M95.9,101.1h6.1v-3.7l-2,1.5l1.2,1.3l0,0
		l-1.4-1.2L99,99.7l-0.8-0.6l-1.4,1.2l0,0l1.2-1.3l-2-1.5L95.9,101.1z"/>
	<path class="st7" d="M96.1,110.2h2.4c0.1,0,0.1-0.1,0.1-0.1c0-0.1-0.1-0.1-0.1-0.1h-2.4c-0.1,0-0.1,0-0.1,0.1
		C96,110.1,96.1,110.1,96.1,110.2z M96.1,110.6h1.2c0.1,0,0.1,0,0.1-0.1c0,0,0-0.1-0.1-0.1c0,0,0,0,0,0h-1.1c-0.1,0-0.1,0-0.1,0.1
		C96.1,110.6,96.1,110.6,96.1,110.6L96.1,110.6z M96.1,111.1h1.2c0.1,0,0.1,0,0.1-0.1c0,0,0-0.1-0.1-0.1c0,0,0,0,0,0h-1.1
		c-0.1,0-0.1,0-0.1,0.1C96,111.1,96.1,111.1,96.1,111.1C96.1,111.1,96.2,111.1,96.1,111.1L96.1,111.1z M96.1,111.6h2.4
		c0.1,0,0.1-0.1,0.1-0.1c0-0.1-0.1-0.1-0.1-0.1h-2.4c-0.1,0-0.1,0.1-0.1,0.1S96.1,111.6,96.1,111.6L96.1,111.6z M98.6,112h-2.4
		c-0.1,0-0.1,0-0.1,0.1c0,0,0,0.1,0.1,0.1c0,0,0,0,0,0h2.4c0.1,0,0.1,0,0.1-0.1C98.7,112,98.6,112,98.6,112
		C98.6,112,98.6,112,98.6,112L98.6,112z M102.4,108.2h-6.9v4.7h6.9L102.4,108.2z M102.2,108.4v0.7h-6.5v-0.7H102.2z M95.7,112.7
		v-3.4h6.5v3.4H95.7z M96.2,108.9c0.1,0,0.2-0.1,0.2-0.2c0-0.1-0.1-0.2-0.2-0.2c-0.1,0-0.2,0.1-0.2,0.2
		C96,108.8,96.1,108.9,96.2,108.9L96.2,108.9z M96.8,108.8c0,0.1-0.1,0.2-0.2,0.2c-0.1,0-0.2-0.1-0.2-0.2c0-0.1,0.1-0.2,0.2-0.2
		C96.7,108.5,96.8,108.6,96.8,108.8C96.8,108.7,96.8,108.7,96.8,108.8L96.8,108.8z M97.3,108.8c0,0.1-0.1,0.2-0.2,0.2
		c-0.1,0-0.2-0.1-0.2-0.2c0-0.1,0.1-0.2,0.2-0.2C97.2,108.5,97.3,108.6,97.3,108.8C97.3,108.7,97.3,108.7,97.3,108.8L97.3,108.8z
		 M99.7,112.2h2.1v-2.3h-2.2L99.7,112.2L99.7,112.2z M99.9,110.1h1.8v1.9h-1.8L99.9,110.1z"/>
	<rect x="88.7" y="73.2" class="st8" width="0.1" height="49.2"/>
</g>
<text transform="matrix(1 0 0 1 106.6831 100.054)" class="st7 st9 st10">steve.clinton@orbitgroup.ca</text>
<text transform="matrix(1 0 0 1 106.6827 112.2564)" class="st7 st9 st10">orbitgroup.ca</text>
<text transform="matrix(1 0 0 1 106.6204 88.624)" class="st7 st9 st11">+1.289.444.3516</text>
<text transform="matrix(1 0 0 1 23.3096 107.457)" class="st7 st12 st13">Vice President, Technology</text>
<text transform="matrix(1 0 0 1 23.3096 101.5695)" class="st14 st15 st16">Steve Clinton</text>
</svg>
