<?xml version="1.0" encoding="utf-8"?>
<!-- Generator: Adobe Illustrator 21.0.0, SVG Export Plug-In . SVG Version: 6.00 Build 0)  -->
<svg version="1.1" id="Layer_1" xmlns="http://www.w3.org/2000/svg" xmlns:xlink="http://www.w3.org/1999/xlink" x="0px" y="0px"
	 viewBox="0 0 1027.5 606.4" style="enable-background:new 0 0 1027.5 606.4;" xml:space="preserve">
<style type="text/css">
	.st0{fill:none;}
	.st1{fill:#181818;}
	.st2{fill:#020202;}
	.st3{opacity:0.57;fill:url(#SVGID_2_);enable-background:new    ;}
	.st4{fill:#B5D481;}
	.st5{fill:#3FBFEA;}
	.st6{fill:#FFFFFF;}
	.st7{font-family:'Lato-Light';}
	.st8{font-size:26.0863px;}
	.st9{letter-spacing:1;}
	.st10{font-size:21.4832px;}
	.st11{font-size:22.4695px;}
</style>
<pattern  x="764" y="606.4" width="7.2" height="12.1" patternUnits="userSpaceOnUse" id="SVGID_1_" viewBox="3.6 -15.1 7.2 12.1" style="overflow:visible;">
	<g>
		<rect x="3.6" y="-15.1" class="st0" width="7.2" height="12.1"/>
		<g>
			<rect x="3.6" y="-15.1" class="st0" width="7.2" height="12.1"/>
			<rect x="3.6" y="-15.1" class="st0" width="7.2" height="12.1"/>
			<circle class="st1" cx="10.9" cy="-3" r="1.3"/>
			<path class="st1" d="M13.9-3c0-1.7-1.3-3-3-3c-0.6,0-1.3,0.2-1.8,0.6l0,0C8.9-5.3,8.9-5.1,9-5c0.1,0.2,0.3,0.2,0.5,0.1
				c1-0.7,2.5-0.5,3.2,0.6C13-3.9,13.1-3.5,13.1-3h-0.6L13-2.3l0.5,0.7L14-2.3L14.5-3L13.9-3z"/>
			<path class="st1" d="M12.8-0.9c0-0.2-0.1-0.4-0.3-0.4c-0.1,0-0.2,0-0.2,0.1l0,0c-1,0.7-2.5,0.5-3.2-0.5C8.8-2.1,8.7-2.6,8.7-3.1
				h0.6L8.8-3.8L8.3-4.5L7.8-3.8L7.3-3.1h0.6c0,1.7,1.3,3,2.9,3.1c0.7,0,1.3-0.2,1.8-0.6l0,0l0,0C12.7-0.6,12.8-0.8,12.8-0.9z"/>
			<circle class="st1" cx="3.6" cy="-3" r="1.3"/>
			<path class="st1" d="M6.6-3c0-1.7-1.3-3-3-3C3-6,2.3-5.8,1.8-5.4l0,0C1.7-5.3,1.7-5.2,1.7-5.1c0,0.2,0.2,0.4,0.3,0.4l0,0
				c0.1,0,0.2,0,0.2-0.1C2.6-5.1,3-5.2,3.5-5.2c1.3,0,2.3,1,2.3,2.3H5.3l0.5,0.7l0.5,0.7l0.5-0.7l0.5-0.7H6.6V-3z"/>
			<path class="st1" d="M5.5-0.9c0-0.2-0.1-0.4-0.3-0.4C5.1-1.3,5-1.3,5-1.2l0,0C4.6-0.9,4.1-0.8,3.7-0.8c-1.3,0-2.3-1-2.3-2.3l0,0
				H2L1.5-3.8L1-4.4L0.5-3.7L0-3h0.6c0,1.7,1.3,3,3,3c0.6,0,1.2-0.2,1.8-0.6l0,0l0,0C5.5-0.7,5.5-0.8,5.5-0.9z"/>
			<circle class="st1" cx="7.2" cy="-9.1" r="1.3"/>
			<path class="st1" d="M10.3-9.1c0-1.7-1.3-3-3-3c-0.7,0-1.3,0.2-1.8,0.6l0,0c-0.2,0.1-0.2,0.3-0.1,0.5c0.1,0.2,0.3,0.2,0.5,0.1
				l0,0c1-0.7,2.5-0.5,3.2,0.6C9.4-10,9.6-9.6,9.6-9.1H9l0.5,0.7L10-7.7l0.5-0.7l0.4-0.7H10.3z"/>
			<path class="st1" d="M9.2-6.9c0-0.2-0.2-0.3-0.4-0.3c-0.1,0-0.1,0-0.2,0.1l0,0c-1,0.8-2.5,0.6-3.2-0.5c-0.3-0.5-0.5-1-0.5-1.5
				h0.6L5.1-9.8l-0.5-0.7L4.1-9.8L3.6-9.1h0.6c0,1.7,1.3,3,2.9,3.1C7.8-6,8.4-6.2,9-6.6l0,0l0,0C9.1-6.7,9.2-6.8,9.2-6.9z"/>
			<circle class="st1" cx="10.9" cy="-15.1" r="1.3"/>
			<path class="st1" d="M13.9-15.1c0-1.7-1.3-3-3-3c-0.6,0-1.3,0.2-1.8,0.6l0,0C9-17.5,9-17.4,9-17.2c0,0.1,0.1,0.3,0.3,0.3
				c0.1,0,0.2,0,0.2-0.1c0.4-0.3,0.9-0.4,1.3-0.4c1.3,0,2.3,1,2.3,2.3h-0.6l0.5,0.7l0.5,0.7l0.5-0.7l0.5-0.7H13.9z"/>
			<path class="st1" d="M12.8-12.9c0-0.2-0.1-0.4-0.3-0.4c-0.1,0-0.2,0-0.2,0.1l0,0c-0.4,0.3-0.9,0.4-1.4,0.4c-1.3,0-2.3-1-2.3-2.3
				h0.6l-0.5-0.7l-0.5-0.7l-0.5,0.7l-0.5,0.7h0.6c0,1.7,1.3,3,3,3c0.6,0,1.3-0.2,1.8-0.6l0,0l0,0C12.7-12.7,12.8-12.8,12.8-12.9z"/>
			<circle class="st1" cx="3.6" cy="-15.1" r="1.3"/>
			<path class="st1" d="M6.6-15.1c0-1.7-1.3-3-3-3c-0.6,0-1.2,0.2-1.7,0.6l0,0c-0.1,0-0.2,0.1-0.2,0.3c0,0.2,0.2,0.4,0.4,0.4l0,0
				c0.1,0,0.2,0,0.2-0.1c0.4-0.3,0.8-0.4,1.3-0.4c1.3,0,2.3,1,2.3,2.3l0,0H5.3l0.5,0.7l0.5,0.7l0.5-0.7l0.4-0.8H6.6z"/>
			<path class="st1" d="M5.5-12.9c0-0.2-0.1-0.4-0.3-0.4c-0.1,0-0.2,0-0.2,0.1l0,0c-0.4,0.3-0.9,0.4-1.4,0.4c-1.3,0-2.3-1-2.3-2.3
				l0,0h0.6l-0.5-0.7L1-16.5l-0.5,0.7L0-15.1h0.6c0,1.7,1.3,3,3,3c0.6,0,1.2-0.2,1.8-0.6l0,0l0,0C5.5-12.7,5.5-12.8,5.5-12.9z"/>
		</g>
	</g>
</pattern>
<rect x="0" y="0" class="st2" width="1027.5" height="606.4"/>
<pattern  id="SVGID_2_" xlink:href="#SVGID_1_" patternTransform="matrix(1 0 0 1 0.4 16396.8105)">
</pattern>
<rect x="0" y="0" class="st3" width="1027.5" height="606.4"/>
<path class="st2" d="M1027.5,430.2c-70.2,0-127.1-56.9-127.1-127.1s56.9-127.1,127.1-127.1V430.2z"/>
<path class="st2" d="M1027.5,3.2c-63.2,0-124.8,19.9-175.9,56.9c-0.4,0.4-0.8,0.4-1.2,0.8c-14.8,12.5-17.2,34.3-4.7,49.5
	c12.5,14.8,34.3,17.2,49.5,4.7c38.6-27.3,85-42.1,132.6-42.1L1027.5,3.2z"/>
<path class="st2" d="M1027.5,532.3c-126.7,0-229.3-102.6-229.3-229.3l0,0c0,0,0,0,0-0.4h60.1l-47.6-70.6l-47.6-70.6l-47.6,70.6
	L668,302.6h59.7v0.4c0,165.3,134.1,299.9,299.5,299.9v-70.6H1027.5z"/>
<polygon class="st4" points="413.7,399 632.9,399 571.6,309.3 352.5,309.3 "/>
<polygon class="st4" points="342,280.4 552.1,280.4 490.9,190.7 281.1,190.7 "/>
<polygon class="st4" points="258.5,161.9 471,161.9 409.8,72.2 197.3,72.2 "/>
<rect x="404.7" y="161.1" class="st4" width="622.8" height="0.8"/>
<rect x="462.8" y="279.6" class="st4" width="564.7" height="0.8"/>
<rect x="492.5" y="398.2" class="st4" width="535" height="0.8"/>
<polygon class="st2" points="623.1,606.8 0,606.8 0,0 209.4,0 "/>
<path class="st5" d="M365,140.4c-12.9,0-23.4-10.5-23.4-23.4s10.5-23.4,23.4-23.4c12.9,0,23.4,10.5,23.4,23.4S377.8,140.4,365,140.4
	z"/>
<path class="st6" d="M376.3,127.6c1.6-1.6,1.2-2.3,0-3.5c-1.6-1.6-3.5-2.7-5.5-3.1c-0.4,0-0.4,0-0.8,0c-1.6,0.8-2.3,1.6-2.7,1.6
	s-1.2-0.4-1.9-1.2l0,0c-0.8-0.8-1.6-1.6-2.3-2.3l0,0l-0.4,0c-0.4-0.4-0.8-0.8-1.9-2.3l0,0c-0.8-0.8-1.2-1.6-1.6-2.3s0.4-1.6,1.2-2.7
	s-0.4-3.9-2.3-6.2l0,0c-0.4-0.4-1.2-0.8-1.6-0.8c-0.8,0-1.2,0.4-1.9,0.8l0,0c-0.8,0.4-1.2,1.2-1.6,1.9c-0.4,1.2-0.4,2.7,1.2,6.2
	c2.7,5.1,6.6,9.7,11.7,12.9c1.9,1.6,4.3,2.7,6.6,3.1C373.9,129.5,375.5,128.7,376.3,127.6z"/>
<path class="st5" d="M445.7,259c-12.9,0-23.4-10.5-23.4-23.4s10.5-23.4,23.4-23.4c12.9,0,23.4,10.5,23.4,23.4S458.6,259,445.7,259
	L445.7,259z"/>
<path class="st5" d="M510.8,364.6h31.6v-16.4h-31.6V364.6z M529.9,351.4h10.1v10.5h-10.1V351.4z M512.8,352.2c0-0.4,0.4-0.4,0.4-0.4
	h11.7c0.4,0,0.4,0.4,0.4,0.4l0,0c0,0.4-0.4,0.4-0.4,0.4h-11.7L512.8,352.2L512.8,352.2z M512.8,354.5c0-0.4,0.4-0.4,0.4-0.4h5.5
	c0.4,0,0.4,0.4,0.4,0.4l0,0c0,0.4-0.4,0.4-0.4,0.4h-5.5L512.8,354.5L512.8,354.5z M512.8,356.8c0-0.4,0.4-0.4,0.4-0.4h5.5
	c0.4,0,0.4,0.4,0.4,0.4l0,0c0,0.4-0.4,0.4-0.4,0.4h-5.5L512.8,356.8L512.8,356.8z M512.8,359.2c0-0.4,0.4-0.4,0.4-0.4h11.7
	c0.4,0,0.4,0.4,0.4,0.4l0,0c0,0.4-0.4,0.4-0.4,0.4h-11.7L512.8,359.2L512.8,359.2z M512.8,361.5c0-0.4,0.4-0.4,0.4-0.4h11.7
	c0.4,0,0.4,0.4,0.4,0.4l0,0c0,0.4-0.4,0.4-0.4,0.4h-11.7C513.1,361.9,512.8,361.5,512.8,361.5L512.8,361.5z"/>
<rect x="530.7" y="352.2" class="st5" width="8.6" height="9"/>
<path class="st5" d="M526.4,330.7c-12.9,0-23.4,10.5-23.4,23.4c0,12.9,10.5,23.4,23.4,23.4s23.4-10.5,23.4-23.4
	C549.8,341.2,539.3,330.7,526.4,330.7z M510,365.4v-22.2h33.1v22.2H510z"/>
<path class="st5" d="M510.8,347.5h31.6V344h-31.6V347.5z M517.4,344.8c0.4,0,0.8,0.4,0.8,0.8s-0.4,0.8-0.8,0.8
	c-0.4,0-0.8-0.4-0.8-0.8S517,344.8,517.4,344.8z M515.5,344.8c0.4,0,0.8,0.4,0.8,0.8s-0.4,0.8-0.8,0.8s-0.8-0.4-0.8-0.8
	S515.1,344.8,515.5,344.8z M513.1,344.8c0.4,0,0.8,0.4,0.8,0.8s-0.4,0.8-0.8,0.8s-0.8-0.4-0.8-0.8
	C512.4,345.1,512.8,344.8,513.1,344.8z"/>
<line class="st0" x1="-666.5" y1="9836" x2="-666.5" y2="-6547"/>
<line class="st0" x1="-570.6" y1="9836" x2="-570.6" y2="-6547"/>
<line class="st0" x1="-596.5" y1="9836" x2="-596.5" y2="-6547"/>
<line class="st0" x1="-568.4" y1="9836" x2="-568.4" y2="-6547"/>
<path class="st6" d="M513.1,352.6h11.7c0.4,0,0.4-0.4,0.4-0.4l0,0c0-0.4-0.4-0.4-0.4-0.4h-11.7c-0.4,0-0.4,0.4-0.4,0.4l0,0
	L513.1,352.6z"/>
<path class="st6" d="M513.1,354.9h5.5c0.4,0,0.4-0.4,0.4-0.4l0,0c0-0.4-0.4-0.4-0.4-0.4h-5.5c-0.4,0-0.4,0.4-0.4,0.4l0,0
	L513.1,354.9z"/>
<path class="st6" d="M513.1,357.2h5.5c0.4,0,0.4-0.4,0.4-0.4l0,0c0-0.4-0.4-0.4-0.4-0.4h-5.5c-0.4,0-0.4,0.4-0.4,0.4l0,0
	L513.1,357.2z"/>
<path class="st6" d="M513.1,361.9h11.7c0.4,0,0.4-0.4,0.4-0.4l0,0c0-0.4-0.4-0.4-0.4-0.4h-11.7c-0.4,0-0.4,0.4-0.4,0.4l0,0
	C512.8,361.5,513.1,361.9,513.1,361.9z"/>
<path class="st6" d="M513.1,359.6h11.7c0.4,0,0.4-0.4,0.4-0.4l0,0c0-0.4-0.4-0.4-0.4-0.4h-11.7c-0.4,0-0.4,0.4-0.4,0.4l0,0
	L513.1,359.6z"/>
<circle class="st6" cx="517.4" cy="345.5" r="0.8"/>
<circle class="st6" cx="513.1" cy="345.5" r="0.8"/>
<path class="st6" d="M543.2,343.2H510v22.2h33.1V343.2z M542.4,364.6h-31.6v-16.4h31.6V364.6z M542.4,347.5h-31.6V344h31.6V347.5z"
	/>
<path class="st6" d="M540.1,351.4h-10.1v10.5h10.1V351.4z M539.3,361.1h-8.6v-9h8.6V361.1z"/>
<circle class="st6" cx="515.5" cy="345.5" r="0.8"/>
<path class="st6" d="M429.7,225.4h32.4v21.4h-32.4V225.4z M445.7,237.5l13.6-10.5H432L445.7,237.5z M430.9,245.7h29.6v-17.9
	l-9.7,7.4l5.8,6.6l0,0l-7-5.5l-3.9,3.1l-3.9-3.1l-7,5.8l0,0l5.8-6.6l-9.7-7.4C430.9,228.2,430.9,245.7,430.9,245.7z"/>
<path class="st6" d="M95.5,494.5c0,3.9-1.2,6.6-3.9,9c-2.7,1.9-6.2,3.1-11.3,3.1c-4.3,0-8.2-0.8-11.7-2.3v-8.2
	c2.7,1.2,5.1,1.9,7,2.7c1.9,0.4,3.5,0.8,5.5,0.8c1.9,0,3.5-0.4,4.3-1.2c1.2-0.8,1.6-1.9,1.6-3.1c0-0.8-0.4-1.6-0.8-2.3
	s-1.2-1.2-1.9-1.9c-0.8-0.4-2.7-1.6-5.5-2.7c-2.3-1.2-4.3-2.3-5.5-3.5c-1.2-1.2-2.3-2.3-3.1-3.9c-0.8-1.6-1.2-3.1-1.2-5.1
	c0-3.5,1.2-6.6,3.5-8.6c2.3-1.9,5.8-3.1,10.1-3.1c1.9,0,4.3,0.4,6.2,0.8c1.9,0.4,3.9,1.2,6.2,1.9l-2.7,6.6c-2.3-0.8-3.9-1.6-5.5-1.9
	c-1.6-0.4-2.7-0.4-4.3-0.4s-2.7,0.4-3.9,1.2c-0.8,0.8-1.2,1.9-1.2,3.1c0,0.8,0,1.6,0.4,1.9s0.8,1.2,1.6,1.6c0.8,0.4,2.7,1.6,5.5,2.7
	c3.9,1.9,6.6,3.5,7.8,5.5C94.7,489.8,95.5,492.2,95.5,494.5z"/>
<path class="st6" d="M118.5,500c1.6,0,3.1-0.4,5.5-1.2v6.2c-1.9,0.8-4.7,1.6-7.8,1.6c-3.5,0-5.8-0.8-7.4-2.7
	c-1.6-1.6-2.3-4.3-2.3-7.8v-15.2h-4.3v-3.5l4.7-2.7l2.3-6.6h5.5v6.6h9v6.6h-9v15.2c0,1.2,0.4,1.9,1.2,2.7
	C116.6,499.6,117.7,500,118.5,500z"/>
<path class="st6" d="M147.8,506.6c-5.1,0-9-1.6-11.7-4.3c-2.7-2.7-4.3-6.6-4.3-11.7c0-5.5,1.2-9.4,3.9-12.1
	c2.7-2.7,6.2-4.3,10.9-4.3c4.3,0,7.8,1.2,10.5,3.9c2.3,2.3,3.9,5.8,3.9,10.5v4.3h-20.7c0,2.3,0.8,4.3,2.3,5.8
	c1.2,1.6,3.1,1.9,5.8,1.9c1.9,0,3.5-0.4,5.5-0.8c1.6-0.4,3.5-1.2,5.5-1.9v6.6c-1.6,0.8-3.1,1.2-4.7,1.6
	C152.4,506.6,150.5,506.6,147.8,506.6z M146.6,480.1c-1.9,0-3.1,0.4-4.3,1.6c-1.2,1.2-1.6,2.7-1.9,5.1h12.1c0-1.9-0.8-3.9-1.6-5.1
	C150.1,480.9,148.5,480.1,146.6,480.1z"/>
<path class="st6" d="M177.4,506.2l-12.1-31.6h9l6.2,17.9c0.8,2.3,1.2,4.3,1.2,6.6l0,0c0-1.9,0.4-3.9,1.2-6.6l6.2-17.9h9L186,506.2
	H177.4z"/>
<path class="st6" d="M219.9,506.6c-5.1,0-9-1.6-11.7-4.3c-2.7-2.7-4.3-6.6-4.3-11.7c0-5.5,1.2-9.4,3.9-12.1
	c2.7-2.7,6.2-4.3,10.9-4.3c4.3,0,7.8,1.2,10.5,3.9c2.3,2.3,3.9,5.8,3.9,10.5v4.3h-20.3c0,2.3,0.8,4.3,2.3,5.8
	c1.2,1.6,3.1,1.9,5.8,1.9c1.9,0,3.5-0.4,5.5-0.8c1.6-0.4,3.5-1.2,5.5-1.9v6.6c-1.6,0.8-3.1,1.2-4.7,1.6
	C224.6,506.6,222.6,506.6,219.9,506.6z M218.7,480.1c-1.9,0-3.1,0.4-4.3,1.6s-1.6,2.7-1.9,5.1h12.1c0-1.9-0.8-3.9-1.6-5.1
	C221.8,480.9,220.7,480.1,218.7,480.1z"/>
<path class="st6" d="M279.2,471.5c-3.1,0-5.8,1.2-7.8,3.5c-1.9,2.3-2.7,5.8-2.7,10.1c0,9.4,3.5,13.6,10.1,13.6
	c2.7,0,6.2-0.8,10.5-2.3v7.4c-3.5,1.6-7,1.9-11.3,1.9c-5.8,0-10.5-1.9-13.6-5.5c-3.1-3.5-4.7-9-4.7-15.6c0-4.3,0.8-8.2,2.3-11.3
	s3.9-5.8,6.6-7.4s6.2-2.7,10.1-2.7c3.9,0,8.2,0.8,12.1,2.7l-2.7,7c-1.6-0.8-3.1-1.6-4.7-1.9C282.3,471.9,280.7,471.5,279.2,471.5z"
	/>
<path class="st6" d="M309.6,506.2H301v-43.7h8.6V506.2z"/>
<path class="st6" d="M321.7,466.4c0-2.7,1.6-4.3,4.7-4.3c3.1,0,4.7,1.6,4.7,4.3c0,1.2-0.4,2.3-1.2,3.1c-0.8,0.8-1.9,1.2-3.5,1.2
	C323.2,470.7,321.7,469.5,321.7,466.4z M330.6,506.2h-8.6v-31.6h8.6V506.2z"/>
<path class="st6" d="M371.6,506.2H363v-18.3c0-2.3-0.4-3.9-1.2-5.1c-0.8-1.2-1.9-1.6-3.9-1.6c-2.3,0-4.3,0.8-5.1,2.3
	c-1.2,1.6-1.6,4.3-1.6,7.8v14.8h-8.6v-31.6h6.6l1.2,3.9h0.4c0.8-1.6,2.3-2.7,3.9-3.5c1.6-0.8,3.5-1.2,5.8-1.2c3.5,0,6.2,1.2,8.2,3.1
	c1.9,1.9,2.7,4.7,2.7,8.6C371.6,485.5,371.6,506.2,371.6,506.2z"/>
<path class="st6" d="M396.9,500c1.6,0,3.1-0.4,5.5-1.2v6.2c-1.9,0.8-4.7,1.6-7.8,1.6c-3.5,0-5.8-0.8-7.4-2.7
	c-1.6-1.6-2.3-4.3-2.3-7.8v-15.2h-4.3v-3.5l4.7-2.7l2.3-6.6h5.5v6.6h9v6.6h-9v15.2c0,1.2,0.4,1.9,1.2,2.7
	C395,499.6,395.8,500,396.9,500z"/>
<path class="st6" d="M440.6,490.2c0,5.1-1.2,9-3.9,12.1c-2.7,2.7-6.6,4.3-11.3,4.3c-3.1,0-5.8-0.8-7.8-1.9c-2.3-1.2-3.9-3.1-5.5-5.8
	c-1.2-2.3-1.9-5.5-1.9-8.6c0-5.1,1.2-9,3.9-12.1c2.7-2.7,6.6-4.3,11.3-4.3c3.1,0,5.8,0.8,7.8,1.9c2.3,1.2,3.9,3.1,5.5,5.5
	C439.8,484,440.6,487.1,440.6,490.2z M418.8,490.2c0,3.1,0.4,5.5,1.6,7c1.2,1.6,2.7,2.3,5.1,2.3c2.3,0,3.9-0.8,5.1-2.3
	s1.6-3.9,1.6-7s-0.4-5.5-1.6-7s-2.7-2.3-5.1-2.3c-2.3,0-3.9,0.8-5.1,2.3C419.6,484.8,418.8,487.1,418.8,490.2z"/>
<path class="st6" d="M480,506.2h-8.6v-18.3c0-2.3-0.4-3.9-1.2-5.1c-0.8-1.2-1.9-1.6-3.9-1.6c-2.3,0-4.3,0.8-5.1,2.3
	c-1.2,1.6-1.6,4.3-1.6,7.8v14.8h-8.6v-31.6h6.6l1.2,3.9h0.4c0.8-1.6,2.3-2.7,3.9-3.5c1.6-0.8,3.5-1.2,5.8-1.2c3.5,0,6.2,1.2,8.2,3.1
	c1.9,1.9,2.7,4.7,2.7,8.6C480,485.5,480,506.2,480,506.2z"/>
<text transform="matrix(1 0 0 1 554.7863 229.2772)" class="st6 st7 st8 st9">steve.clinton@orbitgroup.ca</text>
<text transform="matrix(1 0 0 1 638.2604 354.1966)" class="st6 st7 st8 st9">orbitgroup.ca</text>
<text transform="matrix(1 0 0 1 475.1071 118.1673)" class="st6 st7 st10 st9">+1.289.444.3516</text>
<text transform="matrix(1 0 0 1 68.254 532.9456)" class="st6 st7 st11">Vice President, Technology &amp; IT Operations</text>
</svg>
