<?xml version="1.0" encoding="utf-8"?>
<!-- Generator: Adobe Illustrator 21.0.0, SVG Export Plug-In . SVG Version: 6.00 Build 0)  -->
<svg version="1.1" id="Layer_1" xmlns="http://www.w3.org/2000/svg" xmlns:xlink="http://www.w3.org/1999/xlink" x="0px" y="0px"
	 viewBox="0 0 1002.7 1002.7" style="enable-background:new 0 0 1002.7 1002.7;" xml:space="preserve">
<style type="text/css">
	.st0{fill:none;}
	.st1{fill:#F7F7F7;}
	.st2{fill:#131313;}
	.st3{fill:#FFFFFF;}
	.st4{fill:#1C1B1A;}
	.st5{fill:url(#SVGID_7_);}
	.st6{fill:url(#SVGID_8_);}
	.st7{fill:url(#SVGID_9_);}
	.st8{fill:url(#SVGID_10_);}
	.st9{fill:url(#SVGID_11_);}
	.st10{fill:url(#SVGID_12_);}
	.st11{fill:#A3A3A2;}
	.st12{font-family:'Lato-Regular';}
	.st13{font-size:21.7854px;}
	.st14{font-family:'Lato-Light';}
	.st15{font-size:27.8865px;}
	.st16{font-size:22.9659px;}
	.st17{fill:#333333;}
	.st18{font-family:'Lato-Black';}
	.st19{font-size:49.8088px;}
</style>
<pattern  x="807.1" y="1002.7" width="7.5" height="12.1" patternUnits="userSpaceOnUse" id="SVGID_1_" viewBox="3.6 -15.1 7.5 12.1" style="overflow:visible;">
	<g>
		<rect x="3.6" y="-15.1" class="st0" width="7.5" height="12.1"/>
		<g>
			<rect x="3.6" y="-15.1" class="st0" width="7.5" height="12.1"/>
			<rect x="3.6" y="-15.1" class="st0" width="7.4" height="12.1"/>
			<circle class="st1" cx="11.1" cy="-3" r="1.3"/>
			<path class="st1" d="M14.1-3c0-1.7-1.3-3-3-3c-0.7,0-1.3,0.2-1.8,0.6l0,0C9.1-5.3,9.1-5.1,9.2-4.9c0.1,0.2,0.3,0.2,0.5,0.1
				c1-0.7,2.5-0.5,3.2,0.6c0.3,0.4,0.4,0.8,0.4,1.3h-0.6l0.5,0.7l0.5,0.7l0.5-0.7l0.5-0.7L14.1-3z"/>
			<path class="st1" d="M13-0.9c0-0.2-0.1-0.4-0.3-0.4c-0.1,0-0.2,0-0.2,0.1l0,0c-1,0.7-2.5,0.5-3.2-0.5C9-2.1,8.9-2.6,8.9-3.1h0.6
				L9-3.8L8.5-4.5L8-3.8L7.5-3.1h0.6c0,1.7,1.3,3,3,3c0.7,0,1.3-0.2,1.8-0.6l0,0l0,0C12.9-0.7,13-0.8,13-0.9z"/>
			<circle class="st1" cx="3.6" cy="-3" r="1.3"/>
			<path class="st1" d="M6.6-3c0-1.7-1.3-3-3-3C3-6,2.3-5.8,1.8-5.4l0,0C1.7-5.3,1.7-5.2,1.7-5.1c0,0.2,0.2,0.4,0.3,0.4l0,0
				c0.1,0,0.2,0,0.2-0.1C2.6-5.1,3-5.2,3.5-5.2c1.3,0,2.3,1,2.3,2.3H5.3l0.5,0.7l0.5,0.7l0.5-0.7l0.5-0.7H6.6V-3z"/>
			<path class="st1" d="M5.5-0.9c0-0.2-0.1-0.4-0.3-0.4C5.1-1.3,5-1.3,5-1.2l0,0C4.6-0.9,4.1-0.8,3.7-0.8c-1.3,0-2.3-1-2.3-2.3l0,0
				H2L1.5-3.8L1-4.4L0.5-3.7L0-3h0.6c0,1.7,1.3,3,3,3c0.6,0,1.2-0.2,1.8-0.6l0,0l0,0C5.5-0.7,5.5-0.8,5.5-0.9z"/>
			<circle class="st1" cx="7.4" cy="-9.1" r="1.3"/>
			<path class="st1" d="M10.4-9.1c0-1.7-1.4-3-3-3c-0.7,0-1.3,0.2-1.8,0.6l0,0c-0.1,0.1-0.1,0.3,0,0.5c0.1,0.2,0.3,0.2,0.5,0
				c1.1-0.7,2.5-0.4,3.2,0.7c0.2,0.4,0.3,0.8,0.3,1.2H9l0.5,0.7L10-7.7l0.5-0.7L11-9.1H10.4z"/>
			<path class="st1" d="M9.3-6.9c0-0.2-0.1-0.4-0.3-0.4c-0.1,0-0.2,0-0.2,0.1l0,0c-1,0.7-2.5,0.5-3.2-0.5C5.2-8.1,5-8.6,5-9.1h0.6
				L5.1-9.8l-0.4-0.7L4.2-9.8L3.7-9.1h0.6c0,1.7,1.3,3,2.9,3.1C7.9-6,8.5-6.2,9-6.6l0,0l0,0C9.2-6.7,9.3-6.8,9.3-6.9z"/>
			<circle class="st1" cx="11.1" cy="-15.1" r="1.3"/>
			<path class="st1" d="M14.1-15.1c0-1.7-1.3-3-3-3c-0.6,0-1.3,0.2-1.8,0.6l0,0c-0.1,0-0.1,0.1-0.1,0.3c0,0.2,0.2,0.4,0.4,0.4
				c0.1,0,0.2,0,0.2-0.1c0.4-0.3,0.9-0.4,1.3-0.4c1.3,0,2.3,1,2.3,2.3h-0.6l0.5,0.7l0.5,0.7l0.5-0.7l0.4-0.8H14.1z"/>
			<path class="st1" d="M13-12.9c0-0.2-0.1-0.4-0.3-0.4c-0.1,0-0.2,0-0.2,0.1l0,0c-0.4,0.3-0.9,0.4-1.4,0.4c-1.3,0-2.3-1-2.3-2.3
				h0.6l-0.5-0.7l-0.5-0.7l-0.5,0.7l-0.4,0.7h0.6c0,1.7,1.3,3,3,3c0.6,0,1.2-0.2,1.8-0.6l0,0l0,0C12.9-12.7,13-12.8,13-12.9z"/>
			<circle class="st1" cx="3.6" cy="-15.1" r="1.3"/>
			<path class="st1" d="M6.6-15.1c0-1.7-1.3-3-3-3c-0.6,0-1.2,0.2-1.7,0.6l0,0c-0.1,0-0.2,0.1-0.2,0.3c0,0.2,0.2,0.4,0.4,0.4l0,0
				c0.1,0,0.2,0,0.2-0.1c0.4-0.3,0.8-0.4,1.3-0.4c1.3,0,2.3,1,2.3,2.3l0,0H5.3l0.5,0.7l0.5,0.7l0.5-0.7l0.4-0.8H6.6z"/>
			<path class="st1" d="M5.5-12.9c0-0.2-0.1-0.4-0.3-0.4c-0.1,0-0.2,0-0.2,0.1l0,0c-0.4,0.3-0.9,0.4-1.4,0.4c-1.3,0-2.3-1-2.3-2.3
				l0,0h0.6l-0.5-0.7L1-16.5l-0.5,0.7L0-15.1h0.6c0,1.7,1.3,3,3,3c0.6,0,1.2-0.2,1.8-0.6l0,0l0,0C5.5-12.7,5.5-12.8,5.5-12.9z"/>
		</g>
	</g>
</pattern>
<pattern  x="807.1" y="1002.7" width="7.5" height="12.1" patternUnits="userSpaceOnUse" id="SVGID_2_" viewBox="3.6 -15.1 7.5 12.1" style="overflow:visible;">
	<g>
		<rect x="3.6" y="-15.1" class="st0" width="7.5" height="12.1"/>
		<g>
			<rect x="3.6" y="-15.1" class="st0" width="7.5" height="12.1"/>
			<rect x="3.6" y="-15.1" class="st0" width="7.4" height="12.1"/>
			<circle class="st2" cx="11.1" cy="-3" r="1.3"/>
			<path class="st2" d="M14.1-3c0-1.7-1.3-3-3-3c-0.7,0-1.3,0.2-1.8,0.6l0,0C9.1-5.3,9.1-5.1,9.2-4.9c0.1,0.2,0.3,0.2,0.5,0.1
				c1-0.7,2.5-0.5,3.2,0.6c0.3,0.4,0.4,0.8,0.4,1.3h-0.6l0.5,0.7l0.5,0.7l0.5-0.7l0.5-0.7L14.1-3z"/>
			<path class="st2" d="M13-0.9c0-0.2-0.1-0.4-0.3-0.4c-0.1,0-0.2,0-0.2,0.1l0,0c-1,0.7-2.5,0.5-3.2-0.5C9-2.1,8.9-2.6,8.9-3.1h0.6
				L9-3.8L8.5-4.5L8-3.8L7.5-3.1h0.6c0,1.7,1.3,3,3,3c0.7,0,1.3-0.2,1.8-0.6l0,0l0,0C12.9-0.7,13-0.8,13-0.9z"/>
			<circle class="st2" cx="3.6" cy="-3" r="1.3"/>
			<path class="st2" d="M6.6-3c0-1.7-1.3-3-3-3C3-6,2.3-5.8,1.8-5.4l0,0C1.7-5.3,1.7-5.2,1.7-5.1c0,0.2,0.2,0.4,0.3,0.4l0,0
				c0.1,0,0.2,0,0.2-0.1C2.6-5.1,3-5.2,3.5-5.2c1.3,0,2.3,1,2.3,2.3H5.3l0.5,0.7l0.5,0.7l0.5-0.7l0.5-0.7H6.6V-3z"/>
			<path class="st2" d="M5.5-0.9c0-0.2-0.1-0.4-0.3-0.4C5.1-1.3,5-1.3,5-1.2l0,0C4.6-0.9,4.1-0.8,3.7-0.8c-1.3,0-2.3-1-2.3-2.3l0,0
				H2L1.5-3.8L1-4.4L0.5-3.7L0-3h0.6c0,1.7,1.3,3,3,3c0.6,0,1.2-0.2,1.8-0.6l0,0l0,0C5.5-0.7,5.5-0.8,5.5-0.9z"/>
			<circle class="st2" cx="7.4" cy="-9.1" r="1.3"/>
			<path class="st2" d="M10.4-9.1c0-1.7-1.4-3-3-3c-0.7,0-1.3,0.2-1.8,0.6l0,0c-0.1,0.1-0.1,0.3,0,0.5c0.1,0.2,0.3,0.2,0.5,0
				c1.1-0.7,2.5-0.4,3.2,0.7c0.2,0.4,0.3,0.8,0.3,1.2H9l0.5,0.7L10-7.7l0.5-0.7L11-9.1H10.4z"/>
			<path class="st2" d="M9.3-6.9c0-0.2-0.1-0.4-0.3-0.4c-0.1,0-0.2,0-0.2,0.1l0,0c-1,0.7-2.5,0.5-3.2-0.5C5.2-8.1,5-8.6,5-9.1h0.6
				L5.1-9.8l-0.4-0.7L4.2-9.8L3.7-9.1h0.6c0,1.7,1.3,3,2.9,3.1C7.9-6,8.5-6.2,9-6.6l0,0l0,0C9.2-6.7,9.3-6.8,9.3-6.9z"/>
			<circle class="st2" cx="11.1" cy="-15.1" r="1.3"/>
			<path class="st2" d="M14.1-15.1c0-1.7-1.3-3-3-3c-0.6,0-1.3,0.2-1.8,0.6l0,0c-0.1,0-0.1,0.1-0.1,0.3c0,0.2,0.2,0.4,0.4,0.4
				c0.1,0,0.2,0,0.2-0.1c0.4-0.3,0.9-0.4,1.3-0.4c1.3,0,2.3,1,2.3,2.3h-0.6l0.5,0.7l0.5,0.7l0.5-0.7l0.4-0.8H14.1z"/>
			<path class="st2" d="M13-12.9c0-0.2-0.1-0.4-0.3-0.4c-0.1,0-0.2,0-0.2,0.1l0,0c-0.4,0.3-0.9,0.4-1.4,0.4c-1.3,0-2.3-1-2.3-2.3
				h0.6l-0.5-0.7l-0.5-0.7l-0.5,0.7l-0.4,0.7h0.6c0,1.7,1.3,3,3,3c0.6,0,1.2-0.2,1.8-0.6l0,0l0,0C12.9-12.7,13-12.8,13-12.9z"/>
			<circle class="st2" cx="3.6" cy="-15.1" r="1.3"/>
			<path class="st2" d="M6.6-15.1c0-1.7-1.3-3-3-3c-0.6,0-1.2,0.2-1.7,0.6l0,0c-0.1,0-0.2,0.1-0.2,0.3c0,0.2,0.2,0.4,0.4,0.4l0,0
				c0.1,0,0.2,0,0.2-0.1c0.4-0.3,0.8-0.4,1.3-0.4c1.3,0,2.3,1,2.3,2.3l0,0H5.3l0.5,0.7l0.5,0.7l0.5-0.7l0.4-0.8H6.6z"/>
			<path class="st2" d="M5.5-12.9c0-0.2-0.1-0.4-0.3-0.4c-0.1,0-0.2,0-0.2,0.1l0,0c-0.4,0.3-0.9,0.4-1.4,0.4c-1.3,0-2.3-1-2.3-2.3
				l0,0h0.6l-0.5-0.7L1-16.5l-0.5,0.7L0-15.1h0.6c0,1.7,1.3,3,3,3c0.6,0,1.2-0.2,1.8-0.6l0,0l0,0C5.5-12.7,5.5-12.8,5.5-12.9z"/>
		</g>
	</g>
</pattern>
<pattern  x="807.1" y="1002.7" width="7.5" height="12.1" patternUnits="userSpaceOnUse" id="SVGID_3_" viewBox="3.6 -15.1 7.5 12.1" style="overflow:visible;">
	<g>
		<rect x="3.6" y="-15.1" class="st0" width="7.5" height="12.1"/>
		<g>
			<rect x="3.6" y="-15.1" class="st0" width="7.5" height="12.1"/>
			<rect x="3.6" y="-15.1" class="st0" width="7.4" height="12.1"/>
			<circle class="st2" cx="11.1" cy="-3" r="1.3"/>
			<path class="st2" d="M14.1-3c0-1.7-1.3-3-3-3c-0.7,0-1.3,0.2-1.8,0.6l0,0C9.1-5.3,9.1-5.1,9.2-4.9c0.1,0.2,0.3,0.2,0.5,0.1
				c1-0.7,2.5-0.5,3.2,0.6c0.3,0.4,0.4,0.8,0.4,1.3h-0.6l0.5,0.7l0.5,0.7l0.5-0.7l0.5-0.7L14.1-3z"/>
			<path class="st2" d="M13-0.9c0-0.2-0.1-0.4-0.3-0.4c-0.1,0-0.2,0-0.2,0.1l0,0c-1,0.7-2.5,0.5-3.2-0.5C9-2.1,8.9-2.6,8.9-3.1h0.6
				L9-3.8L8.5-4.5L8-3.8L7.5-3.1h0.6c0,1.7,1.3,3,3,3c0.7,0,1.3-0.2,1.8-0.6l0,0l0,0C12.9-0.7,13-0.8,13-0.9z"/>
			<circle class="st2" cx="3.6" cy="-3" r="1.3"/>
			<path class="st2" d="M6.6-3c0-1.7-1.3-3-3-3C3-6,2.3-5.8,1.8-5.4l0,0C1.7-5.3,1.7-5.2,1.7-5.1c0,0.2,0.2,0.4,0.3,0.4l0,0
				c0.1,0,0.2,0,0.2-0.1C2.6-5.1,3-5.2,3.5-5.2c1.3,0,2.3,1,2.3,2.3H5.3l0.5,0.7l0.5,0.7l0.5-0.7l0.5-0.7H6.6V-3z"/>
			<path class="st2" d="M5.5-0.9c0-0.2-0.1-0.4-0.3-0.4C5.1-1.3,5-1.3,5-1.2l0,0C4.6-0.9,4.1-0.8,3.7-0.8c-1.3,0-2.3-1-2.3-2.3l0,0
				H2L1.5-3.8L1-4.4L0.5-3.7L0-3h0.6c0,1.7,1.3,3,3,3c0.6,0,1.2-0.2,1.8-0.6l0,0l0,0C5.5-0.7,5.5-0.8,5.5-0.9z"/>
			<circle class="st2" cx="7.4" cy="-9.1" r="1.3"/>
			<path class="st2" d="M10.4-9.1c0-1.7-1.4-3-3-3c-0.7,0-1.3,0.2-1.8,0.6l0,0c-0.1,0.1-0.1,0.3,0,0.5c0.1,0.2,0.3,0.2,0.5,0
				c1.1-0.7,2.5-0.4,3.2,0.7c0.2,0.4,0.3,0.8,0.3,1.2H9l0.5,0.7L10-7.7l0.5-0.7L11-9.1H10.4z"/>
			<path class="st2" d="M9.3-6.9c0-0.2-0.1-0.4-0.3-0.4c-0.1,0-0.2,0-0.2,0.1l0,0c-1,0.7-2.5,0.5-3.2-0.5C5.2-8.1,5-8.6,5-9.1h0.6
				L5.1-9.8l-0.4-0.7L4.2-9.8L3.7-9.1h0.6c0,1.7,1.3,3,2.9,3.1C7.9-6,8.5-6.2,9-6.6l0,0l0,0C9.2-6.7,9.3-6.8,9.3-6.9z"/>
			<circle class="st2" cx="11.1" cy="-15.1" r="1.3"/>
			<path class="st2" d="M14.1-15.1c0-1.7-1.3-3-3-3c-0.6,0-1.3,0.2-1.8,0.6l0,0c-0.1,0-0.1,0.1-0.1,0.3c0,0.2,0.2,0.4,0.4,0.4
				c0.1,0,0.2,0,0.2-0.1c0.4-0.3,0.9-0.4,1.3-0.4c1.3,0,2.3,1,2.3,2.3h-0.6l0.5,0.7l0.5,0.7l0.5-0.7l0.4-0.8H14.1z"/>
			<path class="st2" d="M13-12.9c0-0.2-0.1-0.4-0.3-0.4c-0.1,0-0.2,0-0.2,0.1l0,0c-0.4,0.3-0.9,0.4-1.4,0.4c-1.3,0-2.3-1-2.3-2.3
				h0.6l-0.5-0.7l-0.5-0.7l-0.5,0.7l-0.4,0.7h0.6c0,1.7,1.3,3,3,3c0.6,0,1.2-0.2,1.8-0.6l0,0l0,0C12.9-12.7,13-12.8,13-12.9z"/>
			<circle class="st2" cx="3.6" cy="-15.1" r="1.3"/>
			<path class="st2" d="M6.6-15.1c0-1.7-1.3-3-3-3c-0.6,0-1.2,0.2-1.7,0.6l0,0c-0.1,0-0.2,0.1-0.2,0.3c0,0.2,0.2,0.4,0.4,0.4l0,0
				c0.1,0,0.2,0,0.2-0.1c0.4-0.3,0.8-0.4,1.3-0.4c1.3,0,2.3,1,2.3,2.3l0,0H5.3l0.5,0.7l0.5,0.7l0.5-0.7l0.4-0.8H6.6z"/>
			<path class="st2" d="M5.5-12.9c0-0.2-0.1-0.4-0.3-0.4c-0.1,0-0.2,0-0.2,0.1l0,0c-0.4,0.3-0.9,0.4-1.4,0.4c-1.3,0-2.3-1-2.3-2.3
				l0,0h0.6l-0.5-0.7L1-16.5l-0.5,0.7L0-15.1h0.6c0,1.7,1.3,3,3,3c0.6,0,1.2-0.2,1.8-0.6l0,0l0,0C5.5-12.7,5.5-12.8,5.5-12.9z"/>
		</g>
	</g>
</pattern>
<pattern  x="807.1" y="1002.7" width="7.5" height="12.1" patternUnits="userSpaceOnUse" id="SVGID_4_" viewBox="3.6 -15.1 7.5 12.1" style="overflow:visible;">
	<g>
		<rect x="3.6" y="-15.1" class="st0" width="7.5" height="12.1"/>
		<g>
			<rect x="3.6" y="-15.1" class="st0" width="7.5" height="12.1"/>
			<rect x="3.6" y="-15.1" class="st0" width="7.4" height="12.1"/>
			<circle class="st1" cx="11.1" cy="-3" r="1.3"/>
			<path class="st1" d="M14.1-3c0-1.7-1.3-3-3-3c-0.7,0-1.3,0.2-1.8,0.6l0,0C9.1-5.3,9.1-5.1,9.2-4.9c0.1,0.2,0.3,0.2,0.5,0.1
				c1-0.7,2.5-0.5,3.2,0.6c0.3,0.4,0.4,0.8,0.4,1.3h-0.6l0.5,0.7l0.5,0.7l0.5-0.7l0.5-0.7L14.1-3z"/>
			<path class="st1" d="M13-0.9c0-0.2-0.1-0.4-0.3-0.4c-0.1,0-0.2,0-0.2,0.1l0,0c-1,0.7-2.5,0.5-3.2-0.5C9-2.1,8.9-2.6,8.9-3.1h0.6
				L9-3.8L8.5-4.5L8-3.8L7.5-3.1h0.6c0,1.7,1.3,3,3,3c0.7,0,1.3-0.2,1.8-0.6l0,0l0,0C12.9-0.7,13-0.8,13-0.9z"/>
			<circle class="st1" cx="3.6" cy="-3" r="1.3"/>
			<path class="st1" d="M6.6-3c0-1.7-1.3-3-3-3C3-6,2.3-5.8,1.8-5.4l0,0C1.7-5.3,1.7-5.2,1.7-5.1c0,0.2,0.2,0.4,0.3,0.4l0,0
				c0.1,0,0.2,0,0.2-0.1C2.6-5.1,3-5.2,3.5-5.2c1.3,0,2.3,1,2.3,2.3H5.3l0.5,0.7l0.5,0.7l0.5-0.7l0.5-0.7H6.6V-3z"/>
			<path class="st1" d="M5.5-0.9c0-0.2-0.1-0.4-0.3-0.4C5.1-1.3,5-1.3,5-1.2l0,0C4.6-0.9,4.1-0.8,3.7-0.8c-1.3,0-2.3-1-2.3-2.3l0,0
				H2L1.5-3.8L1-4.4L0.5-3.7L0-3h0.6c0,1.7,1.3,3,3,3c0.6,0,1.2-0.2,1.8-0.6l0,0l0,0C5.5-0.7,5.5-0.8,5.5-0.9z"/>
			<circle class="st1" cx="7.4" cy="-9.1" r="1.3"/>
			<path class="st1" d="M10.4-9.1c0-1.7-1.4-3-3-3c-0.7,0-1.3,0.2-1.8,0.6l0,0c-0.1,0.1-0.1,0.3,0,0.5c0.1,0.2,0.3,0.2,0.5,0
				c1.1-0.7,2.5-0.4,3.2,0.7c0.2,0.4,0.3,0.8,0.3,1.2H9l0.5,0.7L10-7.7l0.5-0.7L11-9.1H10.4z"/>
			<path class="st1" d="M9.3-6.9c0-0.2-0.1-0.4-0.3-0.4c-0.1,0-0.2,0-0.2,0.1l0,0c-1,0.7-2.5,0.5-3.2-0.5C5.2-8.1,5-8.6,5-9.1h0.6
				L5.1-9.8l-0.4-0.7L4.2-9.8L3.7-9.1h0.6c0,1.7,1.3,3,2.9,3.1C7.9-6,8.5-6.2,9-6.6l0,0l0,0C9.2-6.7,9.3-6.8,9.3-6.9z"/>
			<circle class="st1" cx="11.1" cy="-15.1" r="1.3"/>
			<path class="st1" d="M14.1-15.1c0-1.7-1.3-3-3-3c-0.6,0-1.3,0.2-1.8,0.6l0,0c-0.1,0-0.1,0.1-0.1,0.3c0,0.2,0.2,0.4,0.4,0.4
				c0.1,0,0.2,0,0.2-0.1c0.4-0.3,0.9-0.4,1.3-0.4c1.3,0,2.3,1,2.3,2.3h-0.6l0.5,0.7l0.5,0.7l0.5-0.7l0.4-0.8H14.1z"/>
			<path class="st1" d="M13-12.9c0-0.2-0.1-0.4-0.3-0.4c-0.1,0-0.2,0-0.2,0.1l0,0c-0.4,0.3-0.9,0.4-1.4,0.4c-1.3,0-2.3-1-2.3-2.3
				h0.6l-0.5-0.7l-0.5-0.7l-0.5,0.7l-0.4,0.7h0.6c0,1.7,1.3,3,3,3c0.6,0,1.2-0.2,1.8-0.6l0,0l0,0C12.9-12.7,13-12.8,13-12.9z"/>
			<circle class="st1" cx="3.6" cy="-15.1" r="1.3"/>
			<path class="st1" d="M6.6-15.1c0-1.7-1.3-3-3-3c-0.6,0-1.2,0.2-1.7,0.6l0,0c-0.1,0-0.2,0.1-0.2,0.3c0,0.2,0.2,0.4,0.4,0.4l0,0
				c0.1,0,0.2,0,0.2-0.1c0.4-0.3,0.8-0.4,1.3-0.4c1.3,0,2.3,1,2.3,2.3l0,0H5.3l0.5,0.7l0.5,0.7l0.5-0.7l0.4-0.8H6.6z"/>
			<path class="st1" d="M5.5-12.9c0-0.2-0.1-0.4-0.3-0.4c-0.1,0-0.2,0-0.2,0.1l0,0c-0.4,0.3-0.9,0.4-1.4,0.4c-1.3,0-2.3-1-2.3-2.3
				l0,0h0.6l-0.5-0.7L1-16.5l-0.5,0.7L0-15.1h0.6c0,1.7,1.3,3,3,3c0.6,0,1.2-0.2,1.8-0.6l0,0l0,0C5.5-12.7,5.5-12.8,5.5-12.9z"/>
		</g>
	</g>
</pattern>
<pattern  x="807.1" y="1002.7" width="7.5" height="12.1" patternUnits="userSpaceOnUse" id="SVGID_5_" viewBox="3.6 -15.1 7.5 12.1" style="overflow:visible;">
	<g>
		<rect x="3.6" y="-15.1" class="st0" width="7.5" height="12.1"/>
		<g>
			<rect x="3.6" y="-15.1" class="st0" width="7.5" height="12.1"/>
			<rect x="3.6" y="-15.1" class="st0" width="7.4" height="12.1"/>
			<circle class="st2" cx="11.1" cy="-3" r="1.3"/>
			<path class="st2" d="M14.1-3c0-1.7-1.3-3-3-3c-0.7,0-1.3,0.2-1.8,0.6l0,0C9.1-5.3,9.1-5.1,9.2-4.9c0.1,0.2,0.3,0.2,0.5,0.1
				c1-0.7,2.5-0.5,3.2,0.6c0.3,0.4,0.4,0.8,0.4,1.3h-0.6l0.5,0.7l0.5,0.7l0.5-0.7l0.5-0.7L14.1-3z"/>
			<path class="st2" d="M13-0.9c0-0.2-0.1-0.4-0.3-0.4c-0.1,0-0.2,0-0.2,0.1l0,0c-1,0.7-2.5,0.5-3.2-0.5C9-2.1,8.9-2.6,8.9-3.1h0.6
				L9-3.8L8.5-4.5L8-3.8L7.5-3.1h0.6c0,1.7,1.3,3,3,3c0.7,0,1.3-0.2,1.8-0.6l0,0l0,0C12.9-0.7,13-0.8,13-0.9z"/>
			<circle class="st2" cx="3.6" cy="-3" r="1.3"/>
			<path class="st2" d="M6.6-3c0-1.7-1.3-3-3-3C3-6,2.3-5.8,1.8-5.4l0,0C1.7-5.3,1.7-5.2,1.7-5.1c0,0.2,0.2,0.4,0.3,0.4l0,0
				c0.1,0,0.2,0,0.2-0.1C2.6-5.1,3-5.2,3.5-5.2c1.3,0,2.3,1,2.3,2.3H5.3l0.5,0.7l0.5,0.7l0.5-0.7l0.5-0.7H6.6V-3z"/>
			<path class="st2" d="M5.5-0.9c0-0.2-0.1-0.4-0.3-0.4C5.1-1.3,5-1.3,5-1.2l0,0C4.6-0.9,4.1-0.8,3.7-0.8c-1.3,0-2.3-1-2.3-2.3l0,0
				H2L1.5-3.8L1-4.4L0.5-3.7L0-3h0.6c0,1.7,1.3,3,3,3c0.6,0,1.2-0.2,1.8-0.6l0,0l0,0C5.5-0.7,5.5-0.8,5.5-0.9z"/>
			<circle class="st2" cx="7.4" cy="-9.1" r="1.3"/>
			<path class="st2" d="M10.4-9.1c0-1.7-1.4-3-3-3c-0.7,0-1.3,0.2-1.8,0.6l0,0c-0.1,0.1-0.1,0.3,0,0.5c0.1,0.2,0.3,0.2,0.5,0
				c1.1-0.7,2.5-0.4,3.2,0.7c0.2,0.4,0.3,0.8,0.3,1.2H9l0.5,0.7L10-7.7l0.5-0.7L11-9.1H10.4z"/>
			<path class="st2" d="M9.3-6.9c0-0.2-0.1-0.4-0.3-0.4c-0.1,0-0.2,0-0.2,0.1l0,0c-1,0.7-2.5,0.5-3.2-0.5C5.2-8.1,5-8.6,5-9.1h0.6
				L5.1-9.8l-0.4-0.7L4.2-9.8L3.7-9.1h0.6c0,1.7,1.3,3,2.9,3.1C7.9-6,8.5-6.2,9-6.6l0,0l0,0C9.2-6.7,9.3-6.8,9.3-6.9z"/>
			<circle class="st2" cx="11.1" cy="-15.1" r="1.3"/>
			<path class="st2" d="M14.1-15.1c0-1.7-1.3-3-3-3c-0.6,0-1.3,0.2-1.8,0.6l0,0c-0.1,0-0.1,0.1-0.1,0.3c0,0.2,0.2,0.4,0.4,0.4
				c0.1,0,0.2,0,0.2-0.1c0.4-0.3,0.9-0.4,1.3-0.4c1.3,0,2.3,1,2.3,2.3h-0.6l0.5,0.7l0.5,0.7l0.5-0.7l0.4-0.8H14.1z"/>
			<path class="st2" d="M13-12.9c0-0.2-0.1-0.4-0.3-0.4c-0.1,0-0.2,0-0.2,0.1l0,0c-0.4,0.3-0.9,0.4-1.4,0.4c-1.3,0-2.3-1-2.3-2.3
				h0.6l-0.5-0.7l-0.5-0.7l-0.5,0.7l-0.4,0.7h0.6c0,1.7,1.3,3,3,3c0.6,0,1.2-0.2,1.8-0.6l0,0l0,0C12.9-12.7,13-12.8,13-12.9z"/>
			<circle class="st2" cx="3.6" cy="-15.1" r="1.3"/>
			<path class="st2" d="M6.6-15.1c0-1.7-1.3-3-3-3c-0.6,0-1.2,0.2-1.7,0.6l0,0c-0.1,0-0.2,0.1-0.2,0.3c0,0.2,0.2,0.4,0.4,0.4l0,0
				c0.1,0,0.2,0,0.2-0.1c0.4-0.3,0.8-0.4,1.3-0.4c1.3,0,2.3,1,2.3,2.3l0,0H5.3l0.5,0.7l0.5,0.7l0.5-0.7l0.4-0.8H6.6z"/>
			<path class="st2" d="M5.5-12.9c0-0.2-0.1-0.4-0.3-0.4c-0.1,0-0.2,0-0.2,0.1l0,0c-0.4,0.3-0.9,0.4-1.4,0.4c-1.3,0-2.3-1-2.3-2.3
				l0,0h0.6l-0.5-0.7L1-16.5l-0.5,0.7L0-15.1h0.6c0,1.7,1.3,3,3,3c0.6,0,1.2-0.2,1.8-0.6l0,0l0,0C5.5-12.7,5.5-12.8,5.5-12.9z"/>
		</g>
	</g>
</pattern>
<pattern  x="807.1" y="1002.7" width="7.5" height="12.1" patternUnits="userSpaceOnUse" id="SVGID_6_" viewBox="3.6 -15.1 7.5 12.1" style="overflow:visible;">
	<g>
		<rect x="3.6" y="-15.1" class="st0" width="7.5" height="12.1"/>
		<g>
			<rect x="3.6" y="-15.1" class="st0" width="7.5" height="12.1"/>
			<rect x="3.6" y="-15.1" class="st0" width="7.4" height="12.1"/>
			<circle class="st1" cx="11.1" cy="-3" r="1.3"/>
			<path class="st1" d="M14.1-3c0-1.7-1.3-3-3-3c-0.7,0-1.3,0.2-1.8,0.6l0,0C9.1-5.3,9.1-5.1,9.2-4.9c0.1,0.2,0.3,0.2,0.5,0.1
				c1-0.7,2.5-0.5,3.2,0.6c0.3,0.4,0.4,0.8,0.4,1.3h-0.6l0.5,0.7l0.5,0.7l0.5-0.7l0.5-0.7L14.1-3z"/>
			<path class="st1" d="M13-0.9c0-0.2-0.1-0.4-0.3-0.4c-0.1,0-0.2,0-0.2,0.1l0,0c-1,0.7-2.5,0.5-3.2-0.5C9-2.1,8.9-2.6,8.9-3.1h0.6
				L9-3.8L8.5-4.5L8-3.8L7.5-3.1h0.6c0,1.7,1.3,3,3,3c0.7,0,1.3-0.2,1.8-0.6l0,0l0,0C12.9-0.7,13-0.8,13-0.9z"/>
			<circle class="st1" cx="3.6" cy="-3" r="1.3"/>
			<path class="st1" d="M6.6-3c0-1.7-1.3-3-3-3C3-6,2.3-5.8,1.8-5.4l0,0C1.7-5.3,1.7-5.2,1.7-5.1c0,0.2,0.2,0.4,0.3,0.4l0,0
				c0.1,0,0.2,0,0.2-0.1C2.6-5.1,3-5.2,3.5-5.2c1.3,0,2.3,1,2.3,2.3H5.3l0.5,0.7l0.5,0.7l0.5-0.7l0.5-0.7H6.6V-3z"/>
			<path class="st1" d="M5.5-0.9c0-0.2-0.1-0.4-0.3-0.4C5.1-1.3,5-1.3,5-1.2l0,0C4.6-0.9,4.1-0.8,3.7-0.8c-1.3,0-2.3-1-2.3-2.3l0,0
				H2L1.5-3.8L1-4.4L0.5-3.7L0-3h0.6c0,1.7,1.3,3,3,3c0.6,0,1.2-0.2,1.8-0.6l0,0l0,0C5.5-0.7,5.5-0.8,5.5-0.9z"/>
			<circle class="st1" cx="7.4" cy="-9.1" r="1.3"/>
			<path class="st1" d="M10.4-9.1c0-1.7-1.4-3-3-3c-0.7,0-1.3,0.2-1.8,0.6l0,0c-0.1,0.1-0.1,0.3,0,0.5c0.1,0.2,0.3,0.2,0.5,0
				c1.1-0.7,2.5-0.4,3.2,0.7c0.2,0.4,0.3,0.8,0.3,1.2H9l0.5,0.7L10-7.7l0.5-0.7L11-9.1H10.4z"/>
			<path class="st1" d="M9.3-6.9c0-0.2-0.1-0.4-0.3-0.4c-0.1,0-0.2,0-0.2,0.1l0,0c-1,0.7-2.5,0.5-3.2-0.5C5.2-8.1,5-8.6,5-9.1h0.6
				L5.1-9.8l-0.4-0.7L4.2-9.8L3.7-9.1h0.6c0,1.7,1.3,3,2.9,3.1C7.9-6,8.5-6.2,9-6.6l0,0l0,0C9.2-6.7,9.3-6.8,9.3-6.9z"/>
			<circle class="st1" cx="11.1" cy="-15.1" r="1.3"/>
			<path class="st1" d="M14.1-15.1c0-1.7-1.3-3-3-3c-0.6,0-1.3,0.2-1.8,0.6l0,0c-0.1,0-0.1,0.1-0.1,0.3c0,0.2,0.2,0.4,0.4,0.4
				c0.1,0,0.2,0,0.2-0.1c0.4-0.3,0.9-0.4,1.3-0.4c1.3,0,2.3,1,2.3,2.3h-0.6l0.5,0.7l0.5,0.7l0.5-0.7l0.4-0.8H14.1z"/>
			<path class="st1" d="M13-12.9c0-0.2-0.1-0.4-0.3-0.4c-0.1,0-0.2,0-0.2,0.1l0,0c-0.4,0.3-0.9,0.4-1.4,0.4c-1.3,0-2.3-1-2.3-2.3
				h0.6l-0.5-0.7l-0.5-0.7l-0.5,0.7l-0.4,0.7h0.6c0,1.7,1.3,3,3,3c0.6,0,1.2-0.2,1.8-0.6l0,0l0,0C12.9-12.7,13-12.8,13-12.9z"/>
			<circle class="st1" cx="3.6" cy="-15.1" r="1.3"/>
			<path class="st1" d="M6.6-15.1c0-1.7-1.3-3-3-3c-0.6,0-1.2,0.2-1.7,0.6l0,0c-0.1,0-0.2,0.1-0.2,0.3c0,0.2,0.2,0.4,0.4,0.4l0,0
				c0.1,0,0.2,0,0.2-0.1c0.4-0.3,0.8-0.4,1.3-0.4c1.3,0,2.3,1,2.3,2.3l0,0H5.3l0.5,0.7l0.5,0.7l0.5-0.7l0.4-0.8H6.6z"/>
			<path class="st1" d="M5.5-12.9c0-0.2-0.1-0.4-0.3-0.4c-0.1,0-0.2,0-0.2,0.1l0,0c-0.4,0.3-0.9,0.4-1.4,0.4c-1.3,0-2.3-1-2.3-2.3
				l0,0h0.6l-0.5-0.7L1-16.5l-0.5,0.7L0-15.1h0.6c0,1.7,1.3,3,3,3c0.6,0,1.2-0.2,1.8-0.6l0,0l0,0C5.5-12.7,5.5-12.8,5.5-12.9z"/>
		</g>
	</g>
</pattern>
<title>Business-Card-Square-2</title>
<rect x="0" y="0" class="st3" width="1002.7" height="1002.7"/>
<rect x="454.7" y="0" class="st4" width="548" height="1002.7"/>
<pattern  id="SVGID_7_" xlink:href="#SVGID_1_" patternTransform="matrix(0.9987 0 0 0.9987 -18.4038 16378.8359)">
</pattern>
<path class="st5" d="M215.8,286c-46.1-12.3-92.8,13.3-105.1,57.9s15.4,90.2,61.5,102.5c46.1,12.3,92.8-13.3,105.1-57.9
	C289.6,344,262,298.3,215.8,286z M181.5,413.2c-26.1-8.7-40-36.9-31.8-62.5c7.7-24.1,32.3-37.9,57.4-32.8
	c26.1,8.7,40,36.9,31.8,62.5C230.7,403.9,206.1,418.3,181.5,413.2z"/>
<pattern  id="SVGID_8_" xlink:href="#SVGID_2_" patternTransform="matrix(0.9987 0 0 0.9987 -13.7701 16376.9082)">
</pattern>
<path class="st6" d="M656.2,494.7c24.6-91.8-65.1-124.6-102.5-86.1l6.2-23.1l-32.8-8.7l-57.9,213.8l36.9,9.7l21-78.4
	C544.4,568,634.1,576.7,656.2,494.7z M618.2,484.4c-6.2,23.6-23.6,44.1-53.3,35.9c-21.5-5.6-29.7-32.8-23.1-56.4
	c8.2-29.2,27.2-45.6,52.3-39C617.2,431.1,625.9,455.2,618.2,484.4L618.2,484.4z"/>
<pattern  id="SVGID_9_" xlink:href="#SVGID_3_" patternTransform="matrix(0.9987 0 0 0.9987 -13.7701 16376.9082)">
</pattern>
<path class="st7" d="M454.7,467.5C467,421.4,482.4,364,482.4,364l-27.7-7.7V467.5z"/>
<pattern  id="SVGID_10_" xlink:href="#SVGID_4_" patternTransform="matrix(0.9987 0 0 0.9987 -18.4038 16378.8359)">
</pattern>
<path class="st8" d="M410.1,483.4c-16.4,88.7-95.9,20.5-95.9,20.5l-19.5,26.7c3.1,7.7,105.6,74.8,146.1-13.3
	c2.6-9.7,7.7-28.7,13.3-49.7l0.5-110.7l-6.7-1.5l-4.6,17.4c-11.8-42-104.1-64.1-129.2,27.7C296.8,464.9,358.3,517.7,410.1,483.4z
	 M401.9,372.2c28.7,7.7,31.3,31.3,24.1,57.9c-7.2,26.7-27.2,38.4-48.7,32.3s-30.8-29.2-24.6-52.3
	C359.9,383.4,373.2,364.5,401.9,372.2z"/>
<pattern  id="SVGID_11_" xlink:href="#SVGID_5_" patternTransform="matrix(0.9987 0 0 0.9987 -13.7701 16376.9082)">
</pattern>
<path class="st9" d="M575.2,0H454.7v109.7c176.9,41,287.1,217.4,246.1,394.2c-28.2,122-123.5,217.4-246.1,246.1v145.6
	c257.3-41,432.7-283,391.6-539.8C821.2,198.9,719.2,65.6,575.2,0z"/>
<pattern  id="SVGID_12_" xlink:href="#SVGID_6_" patternTransform="matrix(0.9987 0 0 0.9987 -13.7701 16376.9082)">
</pattern>
<path class="st10" d="M380.4,758.2C198.9,757.7,52.3,610.5,52.3,429.1C52.8,247.6,199.9,101,381.4,101c24.6,0,49.2,3.1,73.3,8.2V0
	H186.1C112.3,33.8,48.2,85.6,0,151.2v556.7C104.6,850.4,279.9,922.7,454.7,895V749.5C430.1,755.1,405.5,758.2,380.4,758.2z"/>
<path class="st11" d="M519.3,462.4c1.5-1.5,1-2.6,0-3.6c-1.5-1.5-3.6-2.6-6.2-3.1h-0.5c-1.5,1-2.1,1.5-3.1,1.5c-1,0-1-0.5-2.1-1l0,0
	c-1-0.5-1.5-1.5-2.6-2.6l0,0h-0.5c-0.5-0.5-1-1-2.1-2.6l0,0c-1-1-1.5-1.5-1.5-2.1c0-0.5,0.5-1.5,1.5-3.1s-0.5-4.1-2.6-6.7l0,0
	c-0.5-0.5-1-1-1.5-1c-0.5,0-1.5,0.5-2.1,0.5l0,0c-1,0.5-1.5,1-1.5,2.1c-0.5,1.5-0.5,3.1,1.5,6.7c3.1,5.1,7.2,9.7,12.3,13.3
	c2.1,1.5,4.6,2.6,6.7,3.1C516.7,464.9,518.8,463.9,519.3,462.4z"/>
<path class="st11" d="M490.1,496.7h34.3v23.1h-34.3V496.7z M507.5,509.5l14.4-11.3h-29.2L507.5,509.5z M491.6,518.3h31.3v-19
	l-10.3,7.7l6.2,6.7l0,0l-7.2-6.2l-4.1,3.6l-4.1-3.1l-7.2,6.2l0,0l6.2-6.7l-10.3-7.7L491.6,518.3z"/>
<path class="st11" d="M492.6,568.5h12.3c0.5,0,0.5-0.5,0.5-0.5c0-0.5-0.5-0.5-0.5-0.5h-12.3c-0.5,0-0.5,0-0.5,0.5L492.6,568.5z
	 M492.6,571.1h6.2c0.5,0,0.5,0,0.5-0.5c0,0,0-0.5-0.5-0.5l0,0h-5.6c-0.5,0-0.5,0-0.5,0.5V571.1L492.6,571.1z M492.6,573.6h6.2
	c0.5,0,0.5,0,0.5-0.5c0,0,0-0.5-0.5-0.5l0,0h-5.6c-0.5,0-0.5,0-0.5,0.5C492.1,573.1,492.6,573.6,492.6,573.6
	S493.1,573.6,492.6,573.6L492.6,573.6z M492.6,576.2h12.3c0.5,0,0.5-0.5,0.5-0.5c0-0.5-0.5-0.5-0.5-0.5h-12.3
	c-0.5,0-0.5,0.5-0.5,0.5L492.6,576.2L492.6,576.2z M505.4,577.7h-12.3c-0.5,0-0.5,0-0.5,0.5c0,0,0,0.5,0.5,0.5l0,0h12.3
	c0.5,0,0.5,0,0.5-0.5C506,578.2,506,577.7,505.4,577.7L505.4,577.7L505.4,577.7z M524.9,558.2h-35.4v24.1h35.4V558.2z M523.9,559.3
	v3.6h-33.3v-3.6H523.9z M490.6,581.3v-17.4h33.3v17.4H490.6z M493.1,562.3c0.5,0,1-0.5,1-1s-0.5-1-1-1c-0.5,0-1,0.5-1,1
	S492.6,562.3,493.1,562.3L493.1,562.3z M496.2,561.3c0,0.5-0.5,1-1,1c-0.5,0-1-0.5-1-1s0.5-1,1-1
	C495.7,560.3,496.2,560.3,496.2,561.3L496.2,561.3L496.2,561.3z M498.8,561.3c0,0.5-0.5,1-1,1c-0.5,0-1-0.5-1-1s0.5-1,1-1
	C498.3,560.3,498.8,560.3,498.8,561.3L498.8,561.3L498.8,561.3z M511.1,578.8h10.8V567h-10.8V578.8L511.1,578.8z M512.1,568h9.2v9.7
	h-9.2V568z"/>
<text transform="matrix(1 0 0 1 118.3446 551.3283)" class="st11 st12 st13">Vice President, Technology</text>
<text transform="matrix(1 0 0 1 547.114 517.2382)" class="st11 st14 st15">steve.clinton@orbitgroup.ca</text>
<text transform="matrix(1 0 0 1 547.1121 579.7885)" class="st11 st14 st15">orbitgroup.ca</text>
<text transform="matrix(1 0 0 1 546.7908 458.6415)" class="st11 st14 st16">+1.289.444.3516</text>
<text transform="matrix(1 0 0 1 118.3466 520.5864)" class="st17 st18 st19">Steve Clinton</text>
</svg>
