<?xml version="1.0" encoding="utf-8"?>
<!-- Generator: Adobe Illustrator 21.0.0, SVG Export Plug-In . SVG Version: 6.00 Build 0)  -->
<svg version="1.1" id="Layer_1" xmlns="http://www.w3.org/2000/svg" xmlns:xlink="http://www.w3.org/1999/xlink" x="0px" y="0px"
	 viewBox="0 0 263.5 155.5" style="enable-background:new 0 0 263.5 155.5;" xml:space="preserve">
<style type="text/css">
	.st0{fill:none;}
	.st1{fill:#181818;}
	.st2{fill:#FFFFFF;}
	.st3{fill:#F7F7F7;}
	.st4{fill:#020202;}
	.st5{opacity:0.57;fill:url(#SVGID_1_);enable-background:new    ;}
	.st6{fill:#B5D481;}
	.st7{fill:#53AEDE;}
	.st8{enable-background:new    ;}
	.st9{fill:#AFAFAF;}
</style>
<pattern  y="155.5" width="7.5" height="12.1" patternUnits="userSpaceOnUse" id="SVGID_2_" viewBox="3.6 -15.1 7.5 12.1" style="overflow:visible;">
	<g>
		<rect x="3.6" y="-15.1" class="st0" width="7.5" height="12.1"/>
		<g>
			<rect x="3.6" y="-15.1" class="st0" width="7.5" height="12.1"/>
			<g>
				<rect x="3.6" y="-15.1" class="st0" width="7.5" height="12.1"/>
				<rect x="3.6" y="-15.1" class="st0" width="7.5" height="12.1"/>
				<rect x="3.6" y="-15.1" class="st0" width="7.5" height="12.1"/>
				<rect x="3.6" y="-15.1" class="st0" width="7.5" height="12.1"/>
				<rect x="3.6" y="-15.1" class="st0" width="7.4" height="12.1"/>
				<circle class="st1" cx="11.1" cy="-3" r="1.3"/>
				<path class="st1" d="M14.1-3c0-1.7-1.3-3-3-3c-0.7,0-1.3,0.2-1.8,0.6l0,0C9.1-5.3,9.1-5.1,9.2-4.9c0.1,0.2,0.3,0.2,0.5,0.1
					c1-0.7,2.5-0.5,3.2,0.6l0,0c0.3,0.4,0.4,0.8,0.4,1.3h-0.6l0.5,0.7l0.5,0.7l0.5-0.7l0.5-0.7L14.1-3z"/>
				<path class="st1" d="M13-0.9c0-0.2-0.1-0.4-0.3-0.4s-0.2,0-0.2,0.1l0,0c-1,0.7-2.4,0.5-3.2-0.5C9-2.1,8.9-2.6,8.9-3.1h0.6L9-3.8
					L8.5-4.5L8-3.8L7.5-3.1h0.6c0,1.7,1.3,3,3,3l0,0c0.7,0,1.3-0.2,1.8-0.6l0,0C13-0.8,13-0.8,13-0.9z"/>
				<circle class="st1" cx="3.6" cy="-3" r="1.3"/>
				<path class="st1" d="M6.6-3c0-1.7-1.3-3-3-3C3-6,2.3-5.8,1.8-5.4l0,0C1.7-5.3,1.7-5.2,1.7-5.1c0,0.2,0.1,0.3,0.3,0.4l0,0
					c0.1,0,0.2,0,0.2-0.1C2.6-5.1,3-5.2,3.5-5.2c1.2,0,2.3,1,2.3,2.2v0.1H5.3l0.5,0.7l0.5,0.7l0.5-0.7l0.5-0.7L6.6-3L6.6-3z"/>
				<path class="st1" d="M5.5-0.9c0-0.2-0.1-0.4-0.3-0.4S5-1.3,5-1.2l0,0C4.6-0.9,4.2-0.8,3.7-0.8c-1.2,0-2.3-1-2.3-2.2v-0.1H2
					L1.5-3.8L1-4.4L0.5-3.7L0-3h0.6c0,1.7,1.3,3,3,3c0.6,0,1.3-0.2,1.8-0.6l0,0C5.5-0.7,5.5-0.8,5.5-0.9z"/>
				<circle class="st1" cx="7.4" cy="-9.1" r="1.3"/>
				<path class="st1" d="M10.4-9.1c0-1.7-1.3-3-3-3l0,0c-0.7,0-1.3,0.2-1.8,0.6l0,0c-0.1,0.2-0.1,0.3,0,0.5c0.1,0.2,0.3,0.2,0.5,0
					c1.1-0.7,2.5-0.4,3.2,0.7l0,0c0.2,0.4,0.3,0.8,0.3,1.2H9l0.5,0.7L10-7.7l0.5-0.7L11-9.1H10.4z"/>
				<path class="st1" d="M9.3-6.9c0-0.2-0.1-0.4-0.3-0.4s-0.2,0-0.2,0.1l0,0c-1,0.7-2.4,0.5-3.2-0.5C5.2-8.1,5-8.6,5-9.1h0.6
					L5.1-9.8l-0.4-0.7L4.2-9.8L3.7-9.1h0.6c0,1.6,1.3,3,2.9,3.1C7.9-6,8.5-6.2,9-6.6l0,0C9.2-6.7,9.3-6.8,9.3-6.9z"/>
				<circle class="st1" cx="11.1" cy="-15.1" r="1.3"/>
				<path class="st1" d="M14.1-15.1c0-1.7-1.3-3-3-3c-0.6,0-1.3,0.2-1.8,0.6l0,0c-0.1,0-0.1,0.1-0.1,0.3c0,0.2,0.2,0.4,0.4,0.4
					c0.1,0,0.2,0,0.2-0.1c0.4-0.3,0.8-0.4,1.3-0.4c1.2,0,2.3,1,2.3,2.2v0.1h-0.6l0.5,0.7l0.5,0.7l0.5-0.7l0.4-0.8H14.1z"/>
				<path class="st1" d="M13-12.9c0-0.2-0.1-0.4-0.3-0.4s-0.2,0-0.2,0.1l0,0c-0.4,0.3-0.9,0.4-1.4,0.4c-1.2,0-2.3-1-2.3-2.2v-0.1
					h0.6l-0.5-0.7l-0.5-0.7l-0.5,0.7l-0.4,0.7h0.6c0,1.7,1.3,3,3,3c0.6,0,1.3-0.2,1.8-0.6l0,0C13-12.8,13-12.8,13-12.9z"/>
				<circle class="st1" cx="3.6" cy="-15.1" r="1.3"/>
				<path class="st1" d="M6.6-15.1c0-1.7-1.3-3-3-3c-0.6,0-1.2,0.2-1.7,0.6l0,0c-0.1,0-0.2,0.1-0.2,0.3c0,0.2,0.2,0.4,0.4,0.4l0,0
					c0.1,0,0.2,0,0.2-0.1c0.4-0.3,0.8-0.4,1.3-0.4c1.2,0,2.3,1,2.3,2.2v0.1H5.3l0.5,0.7l0.5,0.7l0.5-0.7l0.4-0.8H6.6z"/>
				<path class="st1" d="M5.5-12.9c0-0.2-0.1-0.4-0.3-0.4S5-13.3,5-13.2l0,0c-0.4,0.3-0.9,0.4-1.4,0.4c-1.2,0-2.3-1-2.3-2.2v-0.1
					h0.6l-0.5-0.7L1-16.5l-0.5,0.7L0-15.1h0.6c0,1.7,1.3,3,3,3c0.6,0,1.3-0.2,1.8-0.6l0,0C5.5-12.7,5.5-12.8,5.5-12.9z"/>
			</g>
		</g>
	</g>
</pattern>
<title>Artboard 1</title>
<rect y="0" class="st2" width="263.5" height="155.5"/>
<path class="st3" d="M263.5,111.3c-18,0-32.6-14.6-32.6-32.6s14.6-32.6,32.6-32.6V111.3z"/>
<path class="st3" d="M263.5,137.5c-32.5,0-58.8-26.3-58.8-58.7c0,0,0,0,0-0.1l0,0v-0.1h15.4l-12.2-18.1l-12.2-18.1l-12.2,18.1
	l-12.2,18.1h15.3v0.1c0,42.4,34.4,76.8,76.8,76.8h0.1L263.5,137.5L263.5,137.5z"/>
<rect y="0" class="st4" width="263.5" height="71.7"/>
<pattern  id="SVGID_1_" xlink:href="#SVGID_2_" patternTransform="matrix(1 0 0 1 -23.67 33112.9102)">
</pattern>
<rect y="0" class="st5" width="263.5" height="71.7"/>
<path class="st4" d="M263.5,45.1v26.6h-31.7C234.7,56.4,247.9,45.3,263.5,45.1z"/>
<polygon class="st4" points="216.4,71.7 208.2,59.5 196,41.5 183.9,59.5 175.7,71.7 "/>
<rect x="89" y="88.4" class="st6" width="0.2" height="43.9"/>
<rect x="174.3" y="88.4" class="st6" width="0.2" height="43.9"/>
<g>
	<path class="st2" d="M76.9,35.1c0,1-0.4,2-1.2,2.7c-1,0.7-2.2,1.1-3.4,1c-1.2,0-2.5-0.3-3.6-0.8v-2.5c0.7,0.3,1.5,0.6,2.2,0.8
		c0.5,0.2,1.1,0.2,1.6,0.2s1-0.1,1.4-0.3c0.3-0.2,0.5-0.6,0.5-1c0-0.2-0.1-0.5-0.2-0.7s-0.4-0.5-0.6-0.6c-0.5-0.3-1-0.6-1.6-0.9
		c-0.6-0.3-1.2-0.6-1.7-1c-0.4-0.3-0.7-0.7-0.9-1.2c-0.2-0.5-0.3-1.1-0.3-1.6c0-1,0.4-1.9,1.1-2.6c0.9-0.7,2-1,3.1-1
		c0.6,0,1.3,0.1,1.9,0.2c0.6,0.2,1.2,0.4,1.9,0.7L76,28.8c-0.5-0.3-1.1-0.5-1.7-0.6C73.9,28.1,73.4,28,73,28s-0.9,0.1-1.2,0.4
		c-0.3,0.2-0.4,0.6-0.4,0.9c0,0.2,0.1,0.4,0.2,0.6s0.3,0.3,0.5,0.5c0.5,0.4,1.1,0.7,1.7,0.9c0.9,0.4,1.7,0.9,2.4,1.7
		C76.7,33.6,76.9,34.3,76.9,35.1z"/>
	<path class="st2" d="M84.1,36.7c0.6,0,1.2-0.1,1.7-0.3v2c-0.8,0.3-1.6,0.4-2.4,0.4c-0.8,0.1-1.7-0.2-2.3-0.8
		c-0.5-0.7-0.8-1.5-0.7-2.4v-4.7H79v-1.1l1.4-0.9l0.8-2h1.7V29h2.7v2h-2.7v4.7c0,0.4,0.1,0.7,0.3,0.8C83.5,36.6,83.8,36.7,84.1,36.7
		z"/>
	<path class="st2" d="M93,38.8c-1.3,0.1-2.6-0.4-3.6-1.3c-0.9-1-1.4-2.3-1.3-3.6c-0.1-1.3,0.3-2.7,1.2-3.7c1.9-1.7,4.7-1.7,6.6-0.1
		c0.8,0.9,1.2,2,1.1,3.2v1.3h-6.2c0,0.7,0.3,1.3,0.7,1.8c0.5,0.4,1.1,0.6,1.7,0.6c0.5,0,1.1-0.1,1.6-0.2c0.6-0.1,1.1-0.3,1.6-0.6v2
		c-0.5,0.2-1,0.4-1.5,0.5C94.4,38.7,93.8,38.8,93,38.8z M92.7,30.7c-0.5,0-1,0.2-1.3,0.5c-0.3,0.4-0.5,1-0.5,1.5h3.7
		c0-0.5-0.2-1.1-0.5-1.5C93.7,30.8,93.2,30.7,92.7,30.7z"/>
	<path class="st2" d="M102,38.6L98.4,29h2.8l1.9,5.5c0.2,0.7,0.3,1.3,0.4,2h0.1c0.1-0.7,0.2-1.4,0.4-2l1.9-5.5h2.8l-3.7,9.6H102z"/>
	<path class="st2" d="M115.1,38.8c-1.3,0.1-2.6-0.4-3.6-1.3c-0.9-1-1.4-2.3-1.3-3.6c-0.1-1.3,0.3-2.7,1.2-3.7
		c1.9-1.7,4.7-1.7,6.6-0.1c0.8,0.9,1.2,2,1.1,3.2v1.3h-6.2c0,0.7,0.3,1.3,0.7,1.8c0.5,0.4,1.1,0.6,1.7,0.6c0.5,0,1.1-0.1,1.6-0.2
		c0.6-0.1,1.1-0.3,1.6-0.6v2c-0.5,0.2-1,0.4-1.5,0.5C116.5,38.7,115.9,38.8,115.1,38.8z M114.8,30.7c-0.5,0-1,0.2-1.3,0.5
		c-0.3,0.4-0.5,1-0.5,1.5h3.7c0-0.5-0.2-1.1-0.5-1.5C115.8,30.8,115.3,30.7,114.8,30.7z"/>
	<path class="st2" d="M133.3,28c-0.9,0-1.8,0.4-2.3,1.1c-0.6,0.9-0.9,2.1-0.8,3.2c0,2.8,1.1,4.2,3.2,4.2c1.1,0,2.2-0.3,3.2-0.7V38
		c-1.1,0.4-2.3,0.6-3.5,0.6c-1.6,0.1-3.1-0.5-4.2-1.7c-1.1-1.4-1.6-3.1-1.5-4.8c-0.1-1.2,0.2-2.3,0.7-3.4c0.5-0.9,1.2-1.7,2.1-2.3
		c0.9-0.5,2-0.8,3.1-0.8c1.3,0,2.6,0.3,3.7,0.9l-0.9,2.2c-0.5-0.2-0.9-0.4-1.4-0.6C134.3,28.1,133.8,28,133.3,28z"/>
	<path class="st2" d="M142.7,38.6H140V25.2h2.6L142.7,38.6L142.7,38.6z"/>
	<path class="st2" d="M146.3,26.5c0-0.9,0.5-1.3,1.4-1.3s1.4,0.4,1.4,1.3c0,0.4-0.1,0.7-0.4,1c-0.3,0.2-0.7,0.3-1.1,0.3
		c-0.7,0.1-1.2-0.4-1.3-1.1C146.3,26.6,146.3,26.6,146.3,26.5z M149,38.6h-2.6V29h2.6V38.6z"/>
	<path class="st2" d="M161.7,38.6h-2.6V33c0-0.6-0.1-1.1-0.4-1.6c-0.3-0.4-0.7-0.5-1.2-0.5c-0.6-0.1-1.2,0.2-1.6,0.7
		c-0.4,0.7-0.5,1.6-0.5,2.4v4.5h-2.6V29h2l0.4,1.2h0.1c0.3-0.5,0.7-0.8,1.2-1.1c0.6-0.2,1.2-0.4,1.8-0.4c1.7-0.2,3.3,1,3.5,2.8
		c0,0.2,0,0.5,0,0.7L161.7,38.6L161.7,38.6z"/>
	<path class="st2" d="M169.5,36.7c0.6,0,1.2-0.1,1.7-0.3v2c-0.8,0.3-1.6,0.4-2.4,0.4c-0.8,0.1-1.7-0.2-2.3-0.8
		c-0.5-0.7-0.8-1.5-0.7-2.4v-4.7h-1.3v-1.1l1.4-0.9l0.8-2h1.7V29h2.7v2h-2.7v4.7c0,0.4,0.1,0.7,0.3,0.8
		C168.9,36.7,169.2,36.7,169.5,36.7z"/>
	<path class="st2" d="M182.8,33.8c0.1,1.3-0.3,2.7-1.2,3.7c-0.9,0.9-2.2,1.4-3.5,1.3c-0.9,0-1.7-0.2-2.5-0.6c-0.7-0.4-1.3-1-1.6-1.7
		c-0.4-0.8-0.6-1.8-0.6-2.7c-0.1-1.3,0.3-2.7,1.2-3.7c0.9-0.9,2.2-1.4,3.5-1.3c0.9,0,1.7,0.2,2.5,0.6c0.7,0.4,1.3,1,1.6,1.7
		C182.6,31.9,182.8,32.9,182.8,33.8z M176.2,33.8c0,0.8,0.1,1.5,0.5,2.2c0.7,0.8,2,0.9,2.8,0.2c0.1-0.1,0.1-0.1,0.2-0.2
		c0.4-0.7,0.5-1.4,0.5-2.2c0.1-0.7-0.1-1.5-0.5-2.1c-0.7-0.8-2-0.9-2.8-0.2c-0.1,0.1-0.1,0.1-0.2,0.2
		C176.3,32.3,176.1,33.1,176.2,33.8z"/>
	<path class="st2" d="M194.9,38.6h-2.6V33c0-0.6-0.1-1.1-0.4-1.6c-0.3-0.4-0.7-0.5-1.2-0.5c-0.6-0.1-1.2,0.2-1.6,0.7
		c-0.4,0.7-0.5,1.6-0.5,2.4v4.5H186V29h2l0.4,1.2h0.1c0.3-0.5,0.7-0.8,1.2-1.1c0.6-0.2,1.2-0.4,1.8-0.4c1.7-0.2,3.3,1,3.5,2.8
		c0,0.2,0,0.5,0,0.7v6.4L194.9,38.6z"/>
</g>
<g>
	<path class="st7" d="M44.4,98c-3.3,0-6,2.7-6,6s2.7,6,6,6s6-2.7,6-6S47.7,98,44.4,98z M47.4,106.6c-0.2,0.3-0.6,0.5-1,0.5
		c-0.6-0.1-1.2-0.4-1.7-0.8c-1.3-0.8-2.3-2-3-3.3c-0.4-0.9-0.4-1.3-0.3-1.6c0.1-0.2,0.2-0.4,0.4-0.5s0.3-0.2,0.5-0.2
		s0.3,0.1,0.4,0.2c0.5,0.6,0.8,1.3,0.6,1.6s-0.4,0.5-0.3,0.7c0.1,0.2,0.2,0.4,0.4,0.6c0.1,0.2,0.3,0.4,0.5,0.6l0.1,0.1l0.6,0.6
		c0.1,0.2,0.3,0.3,0.5,0.3c0.2-0.1,0.5-0.3,0.7-0.4H46c0.5,0.1,1,0.4,1.4,0.8C47.7,106,47.8,106.2,47.4,106.6z"/>
	<path class="st2" d="M47.4,105.8c-0.4-0.4-0.9-0.7-1.4-0.8h-0.2c-0.2,0.1-0.5,0.3-0.7,0.4c-0.2,0-0.4-0.1-0.5-0.3l-0.6-0.6
		l-0.1-0.1c-0.2-0.2-0.4-0.4-0.5-0.6c-0.2-0.2-0.3-0.4-0.4-0.6c-0.1-0.2,0.1-0.4,0.3-0.7s-0.1-1-0.6-1.6c-0.1-0.1-0.2-0.2-0.4-0.2
		s-0.3,0.1-0.5,0.2s-0.3,0.3-0.4,0.5c-0.1,0.3-0.1,0.7,0.3,1.6c0.7,1.3,1.7,2.5,3,3.3c0.5,0.4,1.1,0.7,1.7,0.8c0.4,0,0.8-0.2,1-0.5
		C47.8,106.2,47.7,106,47.4,105.8z"/>
</g>
<path class="st7" d="M131.8,110c-3.3,0-6-2.7-6-6s2.7-6,6-6s6,2.7,6,6S135.1,110,131.8,110z"/>
<path class="st2" d="M127.6,101.3h8.3v5.5h-8.3L127.6,101.3z M131.8,104.4l3.5-2.7h-7L131.8,104.4z M128,106.5h7.6v-4.6l-2.5,1.9
	l1.5,1.7l0,0l-1.8-1.4l-1,0.8l-1-0.8l-1.8,1.5l0,0l1.5-1.7L128,102V106.5z"/>
<rect x="219.9" y="103.4" class="st7" width="2.2" height="2.3"/>
<path class="st7" d="M218.9,98c-3.3,0-6,2.7-6,6s2.7,6,6,6s6-2.7,6-6S222.2,98,218.9,98z M214.6,106.8v-5.7h8.5v5.7H214.6z"/>
<path class="st7" d="M214.8,106.6h8.1v-4.2h-8.1V106.6z M219.7,103.2h2.6v2.7h-2.6V103.2z M215.3,103.4c0-0.1,0-0.1,0.1-0.1l0,0h3
	c0.1,0,0.1,0,0.1,0.1l0,0l0,0c0,0.1,0,0.1-0.1,0.1l0,0h-3C215.3,103.5,215.3,103.5,215.3,103.4L215.3,103.4z M215.3,104
	c0-0.1,0-0.1,0.1-0.1l0,0h1.4c0.1,0,0.1,0,0.1,0.1l0,0l0,0c0,0.1,0,0.1-0.1,0.1l0,0h-1.4C215.3,104.1,215.3,104.1,215.3,104
	L215.3,104z M215.3,104.6c0-0.1,0-0.1,0.1-0.1l0,0h1.4c0.1,0,0.1,0,0.1,0.1l0,0l0,0c0,0.1,0,0.1-0.1,0.1l0,0h-1.4
	C215.3,104.7,215.3,104.7,215.3,104.6L215.3,104.6z M215.3,105.2c0-0.1,0-0.1,0.1-0.1l0,0h3c0.1,0,0.1,0,0.1,0.1l0,0l0,0
	c0,0.1,0,0.1-0.1,0.1l0,0h-3C215.3,105.3,215.3,105.3,215.3,105.2L215.3,105.2z M215.3,105.8c0-0.1,0-0.1,0.1-0.1l0,0h3
	c0.1,0,0.1,0,0.1,0.1l0,0l0,0c0,0.1,0,0.1-0.1,0.1l0,0h-3C215.3,105.9,215.3,105.9,215.3,105.8L215.3,105.8z"/>
<path class="st7" d="M214.8,102.2h8.1v-0.9h-8.1V102.2z M216.5,101.5c0.1,0,0.2,0.1,0.2,0.2s-0.1,0.2-0.2,0.2s-0.2-0.1-0.2-0.2l0,0
	C216.3,101.6,216.4,101.5,216.5,101.5z M216,101.5c0.1,0,0.2,0.1,0.2,0.2s-0.1,0.2-0.2,0.2s-0.2-0.1-0.2-0.2l0,0
	C215.8,101.6,215.9,101.5,216,101.5z M215.4,101.5c0.1,0,0.2,0.1,0.2,0.2s-0.1,0.2-0.2,0.2s-0.2-0.1-0.2-0.2l0,0
	C215.2,101.6,215.3,101.5,215.4,101.5z"/>
<path class="st2" d="M215.4,103.5h3c0.1,0,0.1,0,0.1-0.1l0,0l0,0c0-0.1,0-0.1-0.1-0.1l0,0h-3c-0.1,0-0.1,0-0.1,0.1l0,0l0,0
	C215.3,103.5,215.3,103.5,215.4,103.5L215.4,103.5z"/>
<circle class="st2" cx="216" cy="101.7" r="0.2"/>
<path class="st2" d="M215.4,105.9h3c0.1,0,0.1,0,0.1-0.1l0,0l0,0c0-0.1,0-0.1-0.1-0.1l0,0h-3c-0.1,0-0.1,0-0.1,0.1l0,0l0,0
	C215.3,105.9,215.3,105.9,215.4,105.9L215.4,105.9z"/>
<circle class="st2" cx="216.5" cy="101.7" r="0.2"/>
<circle class="st2" cx="215.4" cy="101.7" r="0.2"/>
<path class="st2" d="M214.6,101.1v5.7h8.5v-5.7H214.6z M222.9,106.6h-8.1v-4.2h8.1V106.6z M222.9,102.2h-8.1v-0.9h8.1V102.2z"/>
<path class="st2" d="M222.3,103.2h-2.6v2.7h2.6V103.2z M222.1,105.7h-2.2v-2.3h2.2V105.7z"/>
<path class="st2" d="M215.4,104.1h1.4c0.1,0,0.1,0,0.1-0.1l0,0l0,0c0-0.1,0-0.1-0.1-0.1l0,0h-1.4c-0.1,0-0.1,0-0.1,0.1l0,0l0,0
	C215.3,104.1,215.3,104.1,215.4,104.1L215.4,104.1z"/>
<path class="st2" d="M215.4,105.3h3c0.1,0,0.1,0,0.1-0.1l0,0l0,0c0-0.1,0-0.1-0.1-0.1l0,0h-3c-0.1,0-0.1,0-0.1,0.1l0,0l0,0
	C215.3,105.3,215.3,105.3,215.4,105.3L215.4,105.3z"/>
<path class="st2" d="M215.4,104.7h1.4c0.1,0,0.1,0,0.1-0.1l0,0l0,0c0-0.1,0-0.1-0.1-0.1l0,0h-1.4c-0.1,0-0.1,0-0.1,0.1l0,0l0,0
	C215.3,104.7,215.3,104.7,215.4,104.7L215.4,104.7z"/>
<g class="st8">
	<path class="st9" d="M99.2,116.1c0,0-0.1,0.1-0.1,0.1c0,0-0.1,0-0.1,0c0,0-0.1,0-0.1-0.1c-0.1,0-0.1-0.1-0.2-0.1
		c-0.1,0-0.2,0-0.3,0c-0.1,0-0.2,0-0.2,0c-0.1,0-0.1,0.1-0.2,0.1s-0.1,0.1-0.1,0.1c0,0.1,0,0.1,0,0.2c0,0.1,0,0.1,0.1,0.2
		c0,0,0.1,0.1,0.2,0.1c0.1,0,0.2,0.1,0.2,0.1s0.2,0.1,0.3,0.1s0.2,0.1,0.3,0.1c0.1,0,0.2,0.1,0.2,0.1c0.1,0.1,0.1,0.1,0.2,0.2
		s0.1,0.2,0.1,0.3c0,0.1,0,0.3-0.1,0.4s-0.1,0.2-0.2,0.3s-0.2,0.2-0.3,0.2c-0.1,0-0.3,0.1-0.5,0.1c-0.2,0-0.4,0-0.6-0.1
		c-0.2-0.1-0.3-0.2-0.4-0.3l0.1-0.2c0,0,0,0,0.1-0.1c0,0,0,0,0.1,0c0,0,0.1,0,0.1,0c0,0,0.1,0.1,0.1,0.1c0.1,0,0.1,0.1,0.2,0.1
		c0.1,0,0.2,0,0.3,0c0.1,0,0.2,0,0.3,0c0.1,0,0.1-0.1,0.2-0.1c0.1,0,0.1-0.1,0.1-0.2c0-0.1,0-0.1,0-0.2c0-0.1,0-0.1-0.1-0.2
		c0-0.1-0.1-0.1-0.2-0.1c-0.1,0-0.2-0.1-0.2-0.1c-0.1,0-0.2-0.1-0.3-0.1s-0.2-0.1-0.3-0.1c-0.1,0-0.2-0.1-0.2-0.1
		c-0.1-0.1-0.1-0.1-0.2-0.2c0-0.1-0.1-0.2-0.1-0.3c0-0.1,0-0.2,0.1-0.3s0.1-0.2,0.2-0.3s0.2-0.1,0.3-0.2c0.1,0,0.3-0.1,0.4-0.1
		c0.2,0,0.4,0,0.5,0.1c0.2,0.1,0.3,0.1,0.4,0.3L99.2,116.1z"/>
	<path class="st9" d="M100.9,118.6c-0.2,0-0.4-0.1-0.5-0.2c-0.1-0.1-0.2-0.3-0.2-0.6v-1.8h-0.4c0,0-0.1,0-0.1,0c0,0,0,0,0-0.1v-0.2
		l0.5-0.1l0.1-0.9c0,0,0-0.1,0-0.1c0,0,0,0,0.1,0h0.3v1h0.8v0.4h-0.8v1.8c0,0.1,0,0.2,0.1,0.3s0.1,0.1,0.2,0.1c0.1,0,0.1,0,0.1,0
		s0.1,0,0.1,0c0,0,0.1,0,0.1,0c0,0,0,0,0.1,0c0,0,0.1,0,0.1,0l0.2,0.2c-0.1,0.1-0.2,0.1-0.3,0.2C101.1,118.6,101,118.6,100.9,118.6z
		"/>
	<path class="st9" d="M103.3,115.6c0.2,0,0.3,0,0.5,0.1c0.1,0.1,0.3,0.1,0.4,0.3c0.1,0.1,0.2,0.2,0.3,0.4s0.1,0.3,0.1,0.6
		c0,0.1,0,0.1,0,0.2c0,0-0.1,0-0.1,0h-2c0,0.2,0,0.3,0.1,0.5c0,0.1,0.1,0.3,0.2,0.3c0.1,0.1,0.2,0.2,0.3,0.2c0.1,0,0.2,0.1,0.4,0.1
		c0.1,0,0.2,0,0.3,0s0.2-0.1,0.2-0.1c0.1,0,0.1-0.1,0.2-0.1c0,0,0.1,0,0.1,0c0,0,0.1,0,0.1,0l0.1,0.2c-0.1,0.1-0.1,0.1-0.2,0.2
		c-0.1,0.1-0.2,0.1-0.3,0.1c-0.1,0-0.2,0.1-0.3,0.1c-0.1,0-0.2,0-0.3,0c-0.2,0-0.4,0-0.6-0.1c-0.2-0.1-0.3-0.2-0.4-0.3
		c-0.1-0.1-0.2-0.3-0.3-0.5c-0.1-0.2-0.1-0.4-0.1-0.7c0-0.2,0-0.4,0.1-0.6c0.1-0.2,0.2-0.3,0.3-0.5c0.1-0.1,0.3-0.2,0.4-0.3
		C102.9,115.6,103.1,115.6,103.3,115.6z M103.3,116c-0.2,0-0.4,0.1-0.6,0.2c-0.1,0.1-0.2,0.3-0.3,0.6h1.6c0-0.1,0-0.2,0-0.3
		s-0.1-0.2-0.1-0.3c-0.1-0.1-0.1-0.1-0.2-0.2C103.6,116,103.4,116,103.3,116z"/>
	<path class="st9" d="M104.7,115.6h0.4c0,0,0.1,0,0.1,0c0,0,0,0,0.1,0.1l0.7,1.9c0,0.1,0,0.1,0.1,0.2c0,0.1,0,0.1,0,0.2
		c0-0.1,0-0.1,0-0.2c0-0.1,0-0.1,0.1-0.2l0.8-1.9c0,0,0-0.1,0.1-0.1c0,0,0.1,0,0.1,0h0.4l-1.2,2.9h-0.5L104.7,115.6z"/>
	<path class="st9" d="M109.2,115.6c0.2,0,0.3,0,0.5,0.1c0.1,0.1,0.3,0.1,0.4,0.3c0.1,0.1,0.2,0.2,0.3,0.4s0.1,0.3,0.1,0.6
		c0,0.1,0,0.1,0,0.2c0,0-0.1,0-0.1,0h-2c0,0.2,0,0.3,0.1,0.5c0,0.1,0.1,0.3,0.2,0.3c0.1,0.1,0.2,0.2,0.3,0.2c0.1,0,0.2,0.1,0.4,0.1
		c0.1,0,0.2,0,0.3,0s0.2-0.1,0.2-0.1c0.1,0,0.1-0.1,0.2-0.1c0,0,0.1,0,0.1,0c0,0,0.1,0,0.1,0l0.1,0.2c-0.1,0.1-0.1,0.1-0.2,0.2
		c-0.1,0.1-0.2,0.1-0.3,0.1c-0.1,0-0.2,0.1-0.3,0.1c-0.1,0-0.2,0-0.3,0c-0.2,0-0.4,0-0.6-0.1c-0.2-0.1-0.3-0.2-0.4-0.3
		c-0.1-0.1-0.2-0.3-0.3-0.5c-0.1-0.2-0.1-0.4-0.1-0.7c0-0.2,0-0.4,0.1-0.6c0.1-0.2,0.2-0.3,0.3-0.5c0.1-0.1,0.3-0.2,0.4-0.3
		C108.8,115.6,109,115.6,109.2,115.6z M109.2,116c-0.2,0-0.4,0.1-0.6,0.2c-0.1,0.1-0.2,0.3-0.3,0.6h1.6c0-0.1,0-0.2,0-0.3
		s-0.1-0.2-0.1-0.3c-0.1-0.1-0.1-0.1-0.2-0.2C109.4,116,109.3,116,109.2,116z"/>
	<path class="st9" d="M110.9,118.3c0,0,0-0.1,0-0.1c0,0,0-0.1,0.1-0.1c0,0,0.1-0.1,0.1-0.1s0.1,0,0.1,0s0.1,0,0.1,0s0.1,0,0.1,0.1
		c0,0,0.1,0.1,0.1,0.1c0,0,0,0.1,0,0.1c0,0.1,0,0.1,0,0.1c0,0,0,0.1-0.1,0.1c0,0-0.1,0.1-0.1,0.1c0,0-0.1,0-0.1,0s-0.1,0-0.1,0
		c0,0-0.1,0-0.1-0.1c0,0-0.1-0.1-0.1-0.1C110.9,118.4,110.9,118.3,110.9,118.3z"/>
	<path class="st9" d="M114.3,116.2C114.3,116.2,114.3,116.2,114.3,116.2c-0.1,0.1-0.1,0.1-0.1,0.1c0,0-0.1,0-0.1,0
		c0,0-0.1-0.1-0.1-0.1s-0.1-0.1-0.2-0.1c-0.1,0-0.2,0-0.3,0c-0.1,0-0.3,0-0.4,0.1c-0.1,0.1-0.2,0.1-0.3,0.2
		c-0.1,0.1-0.1,0.2-0.2,0.4c0,0.1-0.1,0.3-0.1,0.5c0,0.2,0,0.3,0.1,0.5s0.1,0.3,0.2,0.3c0.1,0.1,0.2,0.2,0.3,0.2
		c0.1,0,0.2,0.1,0.4,0.1c0.1,0,0.2,0,0.3,0c0.1,0,0.1-0.1,0.2-0.1c0.1,0,0.1-0.1,0.1-0.1s0.1,0,0.1,0c0,0,0.1,0,0.1,0l0.1,0.2
		c-0.1,0.2-0.3,0.3-0.5,0.3s-0.4,0.1-0.6,0.1c-0.2,0-0.4,0-0.5-0.1c-0.2-0.1-0.3-0.2-0.4-0.3c-0.1-0.1-0.2-0.3-0.3-0.5
		c-0.1-0.2-0.1-0.4-0.1-0.6c0-0.2,0-0.4,0.1-0.6c0.1-0.2,0.1-0.3,0.3-0.5c0.1-0.1,0.3-0.2,0.4-0.3c0.2-0.1,0.4-0.1,0.6-0.1
		c0.2,0,0.4,0,0.5,0.1c0.2,0.1,0.3,0.2,0.4,0.3L114.3,116.2z"/>
	<path class="st9" d="M115.6,114.3v4.3H115v-4.3H115.6z"/>
	<path class="st9" d="M117.2,114.7c0,0.1,0,0.1,0,0.1c0,0,0,0.1-0.1,0.1c0,0-0.1,0.1-0.1,0.1s-0.1,0-0.1,0s-0.1,0-0.1,0
		s-0.1,0-0.1-0.1c0,0-0.1-0.1-0.1-0.1c0,0,0-0.1,0-0.1c0,0,0-0.1,0-0.1c0,0,0-0.1,0.1-0.1c0,0,0.1-0.1,0.1-0.1s0.1,0,0.1,0
		s0.1,0,0.1,0s0.1,0,0.1,0.1c0,0,0.1,0.1,0.1,0.1C117.2,114.6,117.2,114.7,117.2,114.7z M117,115.6v2.9h-0.5v-2.9H117z"/>
	<path class="st9" d="M118,118.6v-2.9h0.3c0.1,0,0.1,0,0.1,0.1l0,0.3c0.1-0.1,0.3-0.3,0.4-0.3s0.3-0.1,0.5-0.1c0.2,0,0.3,0,0.4,0.1
		c0.1,0.1,0.2,0.1,0.3,0.2s0.1,0.2,0.2,0.4c0,0.1,0.1,0.3,0.1,0.5v1.9h-0.5v-1.9c0-0.2-0.1-0.4-0.2-0.5c-0.1-0.1-0.3-0.2-0.5-0.2
		c-0.2,0-0.3,0-0.4,0.1c-0.1,0.1-0.3,0.2-0.4,0.3v2.2H118z"/>
	<path class="st9" d="M122.1,118.6c-0.2,0-0.4-0.1-0.5-0.2c-0.1-0.1-0.2-0.3-0.2-0.6v-1.8H121c0,0-0.1,0-0.1,0c0,0,0,0,0-0.1v-0.2
		l0.5-0.1l0.1-0.9c0,0,0-0.1,0-0.1c0,0,0,0,0.1,0h0.3v1h0.8v0.4h-0.8v1.8c0,0.1,0,0.2,0.1,0.3s0.1,0.1,0.2,0.1c0.1,0,0.1,0,0.1,0
		s0.1,0,0.1,0c0,0,0.1,0,0.1,0c0,0,0,0,0.1,0c0,0,0.1,0,0.1,0l0.2,0.2c-0.1,0.1-0.2,0.1-0.3,0.2
		C122.3,118.6,122.2,118.6,122.1,118.6z"/>
	<path class="st9" d="M124.5,115.6c0.2,0,0.4,0,0.6,0.1s0.3,0.2,0.4,0.3c0.1,0.1,0.2,0.3,0.3,0.5c0.1,0.2,0.1,0.4,0.1,0.6
		c0,0.2,0,0.4-0.1,0.6s-0.2,0.3-0.3,0.5c-0.1,0.1-0.3,0.2-0.4,0.3s-0.4,0.1-0.6,0.1c-0.2,0-0.4,0-0.6-0.1c-0.2-0.1-0.3-0.2-0.4-0.3
		c-0.1-0.1-0.2-0.3-0.3-0.5c-0.1-0.2-0.1-0.4-0.1-0.6c0-0.2,0-0.4,0.1-0.6c0.1-0.2,0.2-0.3,0.3-0.5c0.1-0.1,0.3-0.2,0.4-0.3
		C124.1,115.6,124.3,115.6,124.5,115.6z M124.5,118.2c0.3,0,0.5-0.1,0.6-0.3s0.2-0.5,0.2-0.8c0-0.3-0.1-0.6-0.2-0.8
		s-0.4-0.3-0.6-0.3c-0.1,0-0.3,0-0.4,0.1c-0.1,0.1-0.2,0.1-0.3,0.2c-0.1,0.1-0.1,0.2-0.2,0.3c0,0.1-0.1,0.3-0.1,0.5
		c0,0.2,0,0.3,0.1,0.5c0,0.1,0.1,0.3,0.2,0.3c0.1,0.1,0.2,0.2,0.3,0.2C124.3,118.2,124.4,118.2,124.5,118.2z"/>
	<path class="st9" d="M126.6,118.6v-2.9h0.3c0.1,0,0.1,0,0.1,0.1l0,0.3c0.1-0.1,0.3-0.3,0.4-0.3s0.3-0.1,0.5-0.1
		c0.2,0,0.3,0,0.4,0.1c0.1,0.1,0.2,0.1,0.3,0.2s0.1,0.2,0.2,0.4c0,0.1,0.1,0.3,0.1,0.5v1.9h-0.5v-1.9c0-0.2-0.1-0.4-0.2-0.5
		c-0.1-0.1-0.3-0.2-0.5-0.2c-0.2,0-0.3,0-0.4,0.1c-0.1,0.1-0.3,0.2-0.4,0.3v2.2H126.6z"/>
	<path class="st9" d="M132.8,118c-0.2,0-0.3,0-0.4-0.1c-0.1-0.1-0.2-0.2-0.2-0.3c-0.1,0.2-0.2,0.3-0.4,0.3s-0.3,0.1-0.4,0.1
		c-0.1,0-0.2,0-0.3-0.1c-0.1,0-0.2-0.1-0.2-0.2c-0.1-0.1-0.1-0.2-0.1-0.3c0-0.1,0-0.2,0-0.3c0-0.2,0-0.3,0.1-0.5
		c0.1-0.2,0.2-0.3,0.3-0.5c0.1-0.1,0.3-0.2,0.5-0.3c0.2-0.1,0.4-0.1,0.6-0.1c0.1,0,0.2,0,0.3,0s0.2,0,0.3,0.1l-0.3,1
		c0,0.1-0.1,0.3-0.1,0.4c0,0.1,0,0.1,0,0.2c0,0,0,0.1,0.1,0.1c0,0,0.1,0,0.1,0.1s0.1,0,0.1,0c0.1,0,0.2,0,0.3-0.1s0.2-0.1,0.2-0.2
		c0.1-0.1,0.1-0.2,0.2-0.4c0-0.1,0.1-0.3,0.1-0.5c0-0.3,0-0.5-0.1-0.7c-0.1-0.2-0.2-0.4-0.4-0.5c-0.1-0.1-0.3-0.2-0.5-0.3
		s-0.4-0.1-0.7-0.1c-0.3,0-0.5,0-0.7,0.1s-0.4,0.2-0.6,0.4c-0.2,0.2-0.3,0.4-0.4,0.6c-0.1,0.2-0.1,0.5-0.1,0.8
		c0,0.3,0.1,0.6,0.2,0.9c0.1,0.2,0.2,0.5,0.4,0.6c0.2,0.2,0.4,0.3,0.6,0.4c0.2,0.1,0.5,0.1,0.8,0.1c0.3,0,0.6,0,0.8-0.1
		c0.2-0.1,0.4-0.1,0.6-0.2c0,0,0.1,0,0.1,0c0,0,0.1,0,0.1,0.1l0.1,0.2c-0.2,0.1-0.4,0.2-0.7,0.3s-0.6,0.1-0.9,0.1s-0.6-0.1-0.9-0.2
		c-0.3-0.1-0.5-0.3-0.7-0.5c-0.2-0.2-0.4-0.4-0.5-0.7c-0.1-0.3-0.2-0.6-0.2-1c0-0.2,0-0.4,0.1-0.6s0.1-0.4,0.2-0.5s0.2-0.3,0.3-0.5
		c0.1-0.1,0.3-0.3,0.5-0.4c0.2-0.1,0.3-0.2,0.5-0.2s0.4-0.1,0.6-0.1c0.2,0,0.4,0,0.5,0.1c0.2,0,0.3,0.1,0.5,0.2
		c0.2,0.1,0.3,0.2,0.4,0.3c0.1,0.1,0.2,0.2,0.3,0.4c0.1,0.1,0.2,0.3,0.2,0.5c0.1,0.2,0.1,0.4,0.1,0.6c0,0.2,0,0.4-0.1,0.6
		s-0.1,0.3-0.2,0.5s-0.2,0.2-0.4,0.3C133.1,118,132.9,118,132.8,118z M131.5,117.7c0.1,0,0.1,0,0.2,0c0.1,0,0.1-0.1,0.2-0.1
		c0.1,0,0.1-0.1,0.2-0.2s0.1-0.2,0.1-0.3l0.2-0.9c-0.1,0-0.2,0-0.2,0c-0.1,0-0.3,0-0.4,0.1c-0.1,0.1-0.2,0.1-0.3,0.2
		s-0.2,0.2-0.2,0.3c0,0.1-0.1,0.3-0.1,0.4c0,0.1,0,0.3,0.1,0.3S131.4,117.7,131.5,117.7z"/>
	<path class="st9" d="M135.8,115.6c0.2,0,0.4,0,0.6,0.1s0.3,0.2,0.4,0.3c0.1,0.1,0.2,0.3,0.3,0.5c0.1,0.2,0.1,0.4,0.1,0.6
		c0,0.2,0,0.4-0.1,0.6c-0.1,0.2-0.2,0.3-0.3,0.5c-0.1,0.1-0.3,0.2-0.4,0.3s-0.4,0.1-0.6,0.1s-0.4,0-0.6-0.1
		c-0.2-0.1-0.3-0.2-0.4-0.3c-0.1-0.1-0.2-0.3-0.3-0.5c-0.1-0.2-0.1-0.4-0.1-0.6c0-0.2,0-0.4,0.1-0.6c0.1-0.2,0.2-0.3,0.3-0.5
		c0.1-0.1,0.3-0.2,0.4-0.3C135.3,115.6,135.5,115.6,135.8,115.6z M135.8,118.2c0.3,0,0.5-0.1,0.6-0.3c0.1-0.2,0.2-0.5,0.2-0.8
		c0-0.3-0.1-0.6-0.2-0.8c-0.1-0.2-0.4-0.3-0.6-0.3c-0.1,0-0.3,0-0.4,0.1c-0.1,0.1-0.2,0.1-0.3,0.2s-0.1,0.2-0.2,0.3
		c0,0.1-0.1,0.3-0.1,0.5c0,0.2,0,0.3,0.1,0.5c0,0.1,0.1,0.3,0.2,0.3s0.2,0.2,0.3,0.2C135.5,118.2,135.6,118.2,135.8,118.2z"/>
	<path class="st9" d="M137.8,118.6v-2.9h0.3c0.1,0,0.1,0,0.1,0c0,0,0,0.1,0,0.1l0,0.5c0.1-0.2,0.2-0.4,0.4-0.5
		c0.1-0.1,0.3-0.2,0.5-0.2c0.1,0,0.2,0,0.2,0c0.1,0,0.1,0,0.2,0.1l-0.1,0.4c0,0,0,0.1-0.1,0.1c0,0-0.1,0-0.1,0s-0.1,0-0.2,0
		c-0.2,0-0.3,0.1-0.5,0.2c-0.1,0.1-0.2,0.3-0.3,0.5v1.9H137.8z"/>
	<path class="st9" d="M140.1,118.6v-4.3h0.5v1.8c0.1-0.1,0.3-0.3,0.4-0.3c0.2-0.1,0.3-0.1,0.5-0.1c0.2,0,0.3,0,0.5,0.1
		c0.1,0.1,0.3,0.2,0.4,0.3c0.1,0.1,0.2,0.3,0.2,0.5c0.1,0.2,0.1,0.4,0.1,0.6c0,0.2,0,0.4-0.1,0.6c-0.1,0.2-0.1,0.3-0.3,0.5
		c-0.1,0.1-0.2,0.2-0.4,0.3c-0.2,0.1-0.3,0.1-0.5,0.1c-0.2,0-0.4,0-0.5-0.1c-0.1-0.1-0.2-0.2-0.3-0.3l0,0.3c0,0.1-0.1,0.1-0.1,0.1
		H140.1z M141.5,116c-0.2,0-0.3,0-0.4,0.1c-0.1,0.1-0.2,0.2-0.3,0.3v1.4c0.1,0.1,0.2,0.2,0.3,0.3c0.1,0.1,0.2,0.1,0.4,0.1
		c0.3,0,0.5-0.1,0.6-0.3c0.1-0.2,0.2-0.5,0.2-0.8c0-0.2,0-0.4-0.1-0.5c0-0.1-0.1-0.2-0.1-0.3c-0.1-0.1-0.1-0.2-0.2-0.2
		C141.7,116,141.6,116,141.5,116z"/>
	<path class="st9" d="M144.1,114.7c0,0.1,0,0.1,0,0.1c0,0,0,0.1-0.1,0.1c0,0-0.1,0.1-0.1,0.1c0,0-0.1,0-0.1,0c-0.1,0-0.1,0-0.1,0
		c0,0-0.1,0-0.1-0.1c0,0-0.1-0.1-0.1-0.1c0,0,0-0.1,0-0.1c0,0,0-0.1,0-0.1c0,0,0-0.1,0.1-0.1c0,0,0.1-0.1,0.1-0.1c0,0,0.1,0,0.1,0
		c0,0,0.1,0,0.1,0c0,0,0.1,0,0.1,0.1c0,0,0.1,0.1,0.1,0.1C144,114.6,144.1,114.7,144.1,114.7z M143.9,115.6v2.9h-0.5v-2.9H143.9z"/>
	<path class="st9" d="M145.7,118.6c-0.2,0-0.4-0.1-0.5-0.2c-0.1-0.1-0.2-0.3-0.2-0.6v-1.8h-0.4c0,0-0.1,0-0.1,0c0,0,0,0,0-0.1v-0.2
		l0.5-0.1l0.1-0.9c0,0,0-0.1,0-0.1s0,0,0.1,0h0.3v1h0.8v0.4h-0.8v1.8c0,0.1,0,0.2,0.1,0.3c0.1,0.1,0.1,0.1,0.2,0.1
		c0.1,0,0.1,0,0.1,0c0,0,0.1,0,0.1,0c0,0,0.1,0,0.1,0c0,0,0,0,0.1,0c0,0,0.1,0,0.1,0l0.2,0.2c-0.1,0.1-0.2,0.1-0.3,0.2
		C146,118.6,145.9,118.6,145.7,118.6z"/>
	<path class="st9" d="M148,115.6c0.1,0,0.2,0,0.4,0c0.1,0,0.2,0.1,0.3,0.1h0.8v0.2c0,0.1,0,0.1-0.1,0.1l-0.3,0
		c0.1,0.1,0.1,0.3,0.1,0.4c0,0.1,0,0.3-0.1,0.4c-0.1,0.1-0.1,0.2-0.2,0.3s-0.2,0.1-0.3,0.2c-0.1,0-0.3,0.1-0.4,0.1
		c-0.1,0-0.3,0-0.4,0c-0.1,0-0.1,0.1-0.1,0.1c0,0,0,0.1,0,0.1c0,0.1,0,0.1,0.1,0.2c0.1,0,0.1,0.1,0.2,0.1c0.1,0,0.2,0,0.3,0
		s0.2,0,0.4,0c0.1,0,0.2,0,0.4,0c0.1,0,0.2,0.1,0.3,0.1s0.2,0.1,0.2,0.2c0.1,0.1,0.1,0.2,0.1,0.3c0,0.1,0,0.2-0.1,0.4
		c-0.1,0.1-0.2,0.2-0.3,0.3c-0.1,0.1-0.3,0.2-0.4,0.2s-0.4,0.1-0.6,0.1c-0.2,0-0.4,0-0.6-0.1c-0.2,0-0.3-0.1-0.4-0.2
		s-0.2-0.2-0.2-0.2c-0.1-0.1-0.1-0.2-0.1-0.3c0-0.1,0-0.3,0.1-0.4s0.2-0.2,0.4-0.2c-0.1,0-0.1-0.1-0.2-0.2c0-0.1-0.1-0.2-0.1-0.3
		c0,0,0-0.1,0-0.1c0,0,0-0.1,0.1-0.1c0,0,0.1-0.1,0.1-0.1c0,0,0.1-0.1,0.2-0.1c-0.1-0.1-0.3-0.2-0.3-0.3s-0.1-0.3-0.1-0.5
		c0-0.1,0-0.3,0.1-0.4c0.1-0.1,0.1-0.2,0.2-0.3s0.2-0.1,0.4-0.2C147.7,115.6,147.8,115.6,148,115.6z M148.9,118.7
		c0-0.1,0-0.1-0.1-0.2c0,0-0.1-0.1-0.2-0.1c-0.1,0-0.1,0-0.2-0.1s-0.2,0-0.3,0s-0.2,0-0.3,0s-0.2,0-0.3,0c-0.1,0.1-0.2,0.1-0.3,0.2
		c-0.1,0.1-0.1,0.2-0.1,0.3c0,0.1,0,0.1,0.1,0.2c0,0.1,0.1,0.1,0.2,0.1c0.1,0,0.2,0.1,0.3,0.1c0.1,0,0.2,0,0.4,0c0.1,0,0.3,0,0.4,0
		c0.1,0,0.2-0.1,0.3-0.1c0.1,0,0.1-0.1,0.2-0.2C148.9,118.9,148.9,118.8,148.9,118.7z M148,117.1c0.1,0,0.2,0,0.3,0
		c0.1,0,0.1-0.1,0.2-0.1c0.1-0.1,0.1-0.1,0.1-0.2s0-0.2,0-0.2c0-0.2-0.1-0.3-0.2-0.4s-0.3-0.2-0.5-0.2c-0.2,0-0.4,0.1-0.5,0.2
		s-0.2,0.2-0.2,0.4c0,0.1,0,0.2,0,0.2s0.1,0.1,0.1,0.2c0.1,0.1,0.1,0.1,0.2,0.1C147.8,117.1,147.9,117.1,148,117.1z"/>
	<path class="st9" d="M150,118.6v-2.9h0.3c0.1,0,0.1,0,0.1,0c0,0,0,0.1,0,0.1l0,0.5c0.1-0.2,0.2-0.4,0.4-0.5
		c0.1-0.1,0.3-0.2,0.5-0.2c0.1,0,0.2,0,0.2,0c0.1,0,0.1,0,0.2,0.1l-0.1,0.4c0,0,0,0.1-0.1,0.1c0,0-0.1,0-0.1,0s-0.1,0-0.2,0
		c-0.2,0-0.3,0.1-0.5,0.2c-0.1,0.1-0.2,0.3-0.3,0.5v1.9H150z"/>
	<path class="st9" d="M153.5,115.6c0.2,0,0.4,0,0.6,0.1s0.3,0.2,0.4,0.3c0.1,0.1,0.2,0.3,0.3,0.5c0.1,0.2,0.1,0.4,0.1,0.6
		c0,0.2,0,0.4-0.1,0.6c-0.1,0.2-0.2,0.3-0.3,0.5c-0.1,0.1-0.3,0.2-0.4,0.3s-0.4,0.1-0.6,0.1s-0.4,0-0.6-0.1
		c-0.2-0.1-0.3-0.2-0.4-0.3c-0.1-0.1-0.2-0.3-0.3-0.5c-0.1-0.2-0.1-0.4-0.1-0.6c0-0.2,0-0.4,0.1-0.6c0.1-0.2,0.2-0.3,0.3-0.5
		c0.1-0.1,0.3-0.2,0.4-0.3C153.1,115.6,153.3,115.6,153.5,115.6z M153.5,118.2c0.3,0,0.5-0.1,0.6-0.3c0.1-0.2,0.2-0.5,0.2-0.8
		c0-0.3-0.1-0.6-0.2-0.8c-0.1-0.2-0.4-0.3-0.6-0.3c-0.1,0-0.3,0-0.4,0.1c-0.1,0.1-0.2,0.1-0.3,0.2s-0.1,0.2-0.2,0.3
		c0,0.1-0.1,0.3-0.1,0.5c0,0.2,0,0.3,0.1,0.5c0,0.1,0.1,0.3,0.2,0.3s0.2,0.2,0.3,0.2C153.2,118.2,153.4,118.2,153.5,118.2z"/>
	<path class="st9" d="M156,115.6v1.9c0,0.2,0.1,0.4,0.2,0.5c0.1,0.1,0.3,0.2,0.5,0.2c0.2,0,0.3,0,0.4-0.1c0.1-0.1,0.3-0.2,0.4-0.3
		v-2.2h0.5v2.9h-0.3c-0.1,0-0.1,0-0.1-0.1l0-0.3c-0.1,0.1-0.3,0.3-0.4,0.3s-0.3,0.1-0.5,0.1c-0.2,0-0.3,0-0.4-0.1
		c-0.1-0.1-0.2-0.1-0.3-0.2c-0.1-0.1-0.1-0.2-0.2-0.4c0-0.1-0.1-0.3-0.1-0.5v-1.9H156z"/>
	<path class="st9" d="M158.8,119.6v-3.9h0.3c0.1,0,0.1,0,0.1,0.1l0,0.3c0.1-0.2,0.3-0.3,0.4-0.4s0.3-0.1,0.6-0.1
		c0.2,0,0.3,0,0.5,0.1s0.3,0.2,0.4,0.3s0.2,0.3,0.2,0.5s0.1,0.4,0.1,0.6c0,0.2,0,0.4-0.1,0.6s-0.1,0.3-0.2,0.5
		c-0.1,0.1-0.2,0.2-0.4,0.3c-0.2,0.1-0.3,0.1-0.5,0.1c-0.2,0-0.3,0-0.5-0.1c-0.1-0.1-0.2-0.1-0.3-0.3v1.3H158.8z M160.1,116
		c-0.2,0-0.3,0-0.4,0.1c-0.1,0.1-0.2,0.2-0.3,0.3v1.4c0.1,0.1,0.2,0.2,0.3,0.3c0.1,0.1,0.2,0.1,0.4,0.1c0.3,0,0.5-0.1,0.6-0.3
		s0.2-0.5,0.2-0.8c0-0.2,0-0.4-0.1-0.5c0-0.1-0.1-0.2-0.1-0.3c-0.1-0.1-0.1-0.2-0.2-0.2C160.3,116,160.2,116,160.1,116z"/>
	<path class="st9" d="M161.8,118.3c0,0,0-0.1,0-0.1c0,0,0-0.1,0.1-0.1s0.1-0.1,0.1-0.1c0,0,0.1,0,0.1,0c0,0,0.1,0,0.1,0
		c0,0,0.1,0,0.1,0.1s0.1,0.1,0.1,0.1c0,0,0,0.1,0,0.1c0,0.1,0,0.1,0,0.1c0,0,0,0.1-0.1,0.1c0,0-0.1,0.1-0.1,0.1c0,0-0.1,0-0.1,0
		c-0.1,0-0.1,0-0.1,0c0,0-0.1,0-0.1-0.1c0,0-0.1-0.1-0.1-0.1C161.8,118.4,161.8,118.3,161.8,118.3z"/>
	<path class="st9" d="M165.2,116.2C165.2,116.2,165.2,116.2,165.2,116.2c-0.1,0.1-0.1,0.1-0.1,0.1s-0.1,0-0.1,0c0,0-0.1-0.1-0.1-0.1
		c-0.1,0-0.1-0.1-0.2-0.1s-0.2,0-0.3,0c-0.1,0-0.3,0-0.4,0.1c-0.1,0.1-0.2,0.1-0.3,0.2c-0.1,0.1-0.1,0.2-0.2,0.4
		c0,0.1-0.1,0.3-0.1,0.5c0,0.2,0,0.3,0.1,0.5c0,0.1,0.1,0.3,0.2,0.3s0.2,0.2,0.3,0.2c0.1,0,0.2,0.1,0.4,0.1c0.1,0,0.2,0,0.3,0
		c0.1,0,0.1-0.1,0.2-0.1c0.1,0,0.1-0.1,0.1-0.1c0,0,0.1,0,0.1,0c0,0,0.1,0,0.1,0l0.1,0.2c-0.1,0.2-0.3,0.3-0.5,0.3s-0.4,0.1-0.6,0.1
		c-0.2,0-0.4,0-0.5-0.1c-0.2-0.1-0.3-0.2-0.4-0.3c-0.1-0.1-0.2-0.3-0.3-0.5c-0.1-0.2-0.1-0.4-0.1-0.6c0-0.2,0-0.4,0.1-0.6
		c0.1-0.2,0.1-0.3,0.3-0.5c0.1-0.1,0.3-0.2,0.4-0.3c0.2-0.1,0.4-0.1,0.6-0.1c0.2,0,0.4,0,0.5,0.1c0.2,0.1,0.3,0.2,0.4,0.3
		L165.2,116.2z"/>
	<path class="st9" d="M168.1,118.6h-0.2c0,0-0.1,0-0.1,0c0,0-0.1,0-0.1-0.1l-0.1-0.3c-0.1,0.1-0.2,0.1-0.2,0.2
		c-0.1,0.1-0.2,0.1-0.2,0.1c-0.1,0-0.2,0.1-0.3,0.1s-0.2,0-0.3,0c-0.1,0-0.2,0-0.3,0c-0.1,0-0.2-0.1-0.3-0.1
		c-0.1-0.1-0.1-0.1-0.2-0.2c0-0.1-0.1-0.2-0.1-0.3c0-0.1,0-0.2,0.1-0.3s0.2-0.2,0.3-0.3c0.1-0.1,0.3-0.2,0.6-0.2
		c0.2-0.1,0.5-0.1,0.8-0.1v-0.2c0-0.2,0-0.4-0.1-0.5c-0.1-0.1-0.2-0.2-0.4-0.2c-0.1,0-0.2,0-0.3,0s-0.2,0.1-0.2,0.1
		c-0.1,0-0.1,0.1-0.2,0.1c0,0-0.1,0-0.1,0c0,0-0.1,0-0.1,0c0,0,0,0-0.1-0.1l-0.1-0.2c0.2-0.2,0.3-0.3,0.5-0.4s0.4-0.1,0.6-0.1
		c0.2,0,0.3,0,0.4,0.1c0.1,0.1,0.2,0.1,0.3,0.2c0.1,0.1,0.2,0.2,0.2,0.4c0,0.1,0.1,0.3,0.1,0.5V118.6z M166.7,118.3
		c0.1,0,0.2,0,0.2,0s0.1,0,0.2-0.1c0.1,0,0.1-0.1,0.2-0.1c0.1,0,0.1-0.1,0.2-0.2v-0.6c-0.2,0-0.4,0-0.6,0c-0.2,0-0.3,0.1-0.4,0.1
		s-0.2,0.1-0.2,0.2c0,0.1-0.1,0.1-0.1,0.2c0,0.1,0,0.1,0,0.2c0,0.1,0.1,0.1,0.1,0.1c0,0,0.1,0.1,0.2,0.1
		C166.6,118.2,166.7,118.3,166.7,118.3z"/>
</g>
<g class="st8">
	<path class="st9" d="M204.1,115.7c0.2,0,0.4,0,0.6,0.1c0.2,0.1,0.3,0.2,0.4,0.3s0.2,0.3,0.3,0.5s0.1,0.4,0.1,0.6
		c0,0.2,0,0.4-0.1,0.6s-0.2,0.3-0.3,0.5c-0.1,0.1-0.3,0.2-0.4,0.3c-0.2,0.1-0.4,0.1-0.6,0.1c-0.2,0-0.4,0-0.6-0.1
		c-0.2-0.1-0.3-0.2-0.4-0.3c-0.1-0.1-0.2-0.3-0.3-0.5c-0.1-0.2-0.1-0.4-0.1-0.6c0-0.2,0-0.4,0.1-0.6c0.1-0.2,0.2-0.3,0.3-0.5
		s0.3-0.2,0.4-0.3C203.7,115.8,203.9,115.7,204.1,115.7z M204.1,118.4c0.3,0,0.5-0.1,0.7-0.3s0.2-0.5,0.2-0.8c0-0.4-0.1-0.6-0.2-0.8
		s-0.4-0.3-0.7-0.3c-0.1,0-0.3,0-0.4,0.1c-0.1,0.1-0.2,0.1-0.3,0.2c-0.1,0.1-0.1,0.2-0.2,0.4c0,0.1-0.1,0.3-0.1,0.5s0,0.3,0.1,0.5
		c0,0.1,0.1,0.3,0.2,0.3c0.1,0.1,0.2,0.2,0.3,0.2S203.9,118.4,204.1,118.4z"/>
	<path class="st9" d="M206.1,118.7v-2.9h0.3c0.1,0,0.1,0,0.1,0c0,0,0,0.1,0,0.1l0,0.5c0.1-0.2,0.2-0.4,0.4-0.5s0.3-0.2,0.5-0.2
		c0.1,0,0.2,0,0.2,0c0.1,0,0.1,0,0.2,0.1l-0.1,0.4c0,0,0,0.1-0.1,0.1c0,0-0.1,0-0.1,0c-0.1,0-0.1,0-0.2,0c-0.2,0-0.3,0.1-0.5,0.2
		s-0.2,0.3-0.3,0.5v1.9H206.1z"/>
	<path class="st9" d="M208.5,118.7v-4.3h0.5v1.8c0.1-0.1,0.3-0.3,0.4-0.3c0.2-0.1,0.3-0.1,0.5-0.1c0.2,0,0.3,0,0.5,0.1
		c0.1,0.1,0.3,0.2,0.4,0.3c0.1,0.1,0.2,0.3,0.2,0.5c0.1,0.2,0.1,0.4,0.1,0.6c0,0.2,0,0.4-0.1,0.6c-0.1,0.2-0.1,0.3-0.3,0.5
		s-0.2,0.2-0.4,0.3s-0.3,0.1-0.5,0.1c-0.2,0-0.4,0-0.5-0.1c-0.1-0.1-0.2-0.2-0.3-0.3l0,0.3c0,0.1-0.1,0.1-0.1,0.1H208.5z
		 M209.8,116.1c-0.2,0-0.3,0-0.4,0.1c-0.1,0.1-0.2,0.2-0.4,0.3v1.4c0.1,0.1,0.2,0.2,0.3,0.3s0.2,0.1,0.4,0.1c0.3,0,0.5-0.1,0.6-0.3
		c0.1-0.2,0.2-0.5,0.2-0.8c0-0.2,0-0.4-0.1-0.5c0-0.1-0.1-0.3-0.1-0.3c-0.1-0.1-0.1-0.2-0.2-0.2C210,116.2,209.9,116.1,209.8,116.1z
		"/>
	<path class="st9" d="M212.4,114.9c0,0.1,0,0.1,0,0.1c0,0,0,0.1-0.1,0.1c0,0-0.1,0.1-0.1,0.1c0,0-0.1,0-0.1,0s-0.1,0-0.1,0
		c0,0-0.1,0-0.1-0.1c0,0-0.1-0.1-0.1-0.1c0,0,0-0.1,0-0.1s0-0.1,0-0.1c0,0,0-0.1,0.1-0.1c0,0,0.1-0.1,0.1-0.1c0,0,0.1,0,0.1,0
		s0.1,0,0.1,0s0.1,0,0.1,0.1s0.1,0.1,0.1,0.1C212.4,114.8,212.4,114.8,212.4,114.9z M212.3,115.8v2.9h-0.5v-2.9H212.3z"/>
	<path class="st9" d="M214.1,118.8c-0.2,0-0.4-0.1-0.5-0.2s-0.2-0.3-0.2-0.6v-1.8H213c0,0-0.1,0-0.1,0s0,0,0-0.1v-0.2l0.5-0.1
		l0.1-0.9c0,0,0-0.1,0-0.1c0,0,0,0,0.1,0h0.3v1h0.8v0.4h-0.8v1.8c0,0.1,0,0.2,0.1,0.3c0.1,0.1,0.1,0.1,0.2,0.1c0.1,0,0.1,0,0.1,0
		s0.1,0,0.1,0c0,0,0.1,0,0.1,0c0,0,0,0,0.1,0c0,0,0.1,0,0.1,0l0.2,0.2c-0.1,0.1-0.2,0.1-0.3,0.2
		C214.4,118.8,214.2,118.8,214.1,118.8z"/>
	<path class="st9" d="M216.4,115.7c0.1,0,0.2,0,0.4,0c0.1,0,0.2,0.1,0.3,0.1h0.8v0.2c0,0.1,0,0.1-0.1,0.1l-0.3,0
		c0.1,0.1,0.1,0.3,0.1,0.4c0,0.1,0,0.3-0.1,0.4c-0.1,0.1-0.1,0.2-0.2,0.3c-0.1,0.1-0.2,0.1-0.3,0.2s-0.3,0.1-0.4,0.1
		c-0.1,0-0.3,0-0.4,0c-0.1,0-0.1,0.1-0.1,0.1c0,0,0,0.1,0,0.1c0,0.1,0,0.1,0.1,0.2c0.1,0,0.1,0.1,0.2,0.1c0.1,0,0.2,0,0.3,0
		s0.2,0,0.4,0s0.2,0,0.4,0c0.1,0,0.2,0.1,0.3,0.1s0.2,0.1,0.2,0.2c0.1,0.1,0.1,0.2,0.1,0.3c0,0.1,0,0.3-0.1,0.4
		c-0.1,0.1-0.2,0.2-0.3,0.3c-0.1,0.1-0.3,0.2-0.4,0.2c-0.2,0.1-0.4,0.1-0.6,0.1c-0.2,0-0.4,0-0.6-0.1s-0.3-0.1-0.4-0.2
		s-0.2-0.2-0.2-0.2c-0.1-0.1-0.1-0.2-0.1-0.3c0-0.1,0-0.3,0.1-0.4c0.1-0.1,0.2-0.2,0.4-0.2c-0.1,0-0.2-0.1-0.2-0.2
		c0-0.1-0.1-0.2-0.1-0.3c0,0,0-0.1,0-0.1s0-0.1,0.1-0.1c0,0,0.1-0.1,0.1-0.1c0,0,0.1-0.1,0.2-0.1c-0.1-0.1-0.3-0.2-0.3-0.3
		c-0.1-0.1-0.1-0.3-0.1-0.5c0-0.1,0-0.3,0.1-0.4c0.1-0.1,0.1-0.2,0.2-0.3c0.1-0.1,0.2-0.1,0.4-0.2
		C216,115.8,216.2,115.7,216.4,115.7z M217.3,118.9c0-0.1,0-0.1-0.1-0.2c0,0-0.1-0.1-0.2-0.1c-0.1,0-0.2,0-0.2-0.1
		c-0.1,0-0.2,0-0.3,0c-0.1,0-0.2,0-0.3,0c-0.1,0-0.2,0-0.3,0c-0.1,0.1-0.2,0.1-0.3,0.2c-0.1,0.1-0.1,0.2-0.1,0.3
		c0,0.1,0,0.1,0.1,0.2c0,0.1,0.1,0.1,0.2,0.1c0.1,0,0.2,0.1,0.3,0.1c0.1,0,0.2,0,0.4,0c0.1,0,0.3,0,0.4,0c0.1,0,0.2-0.1,0.3-0.1
		c0.1,0,0.1-0.1,0.2-0.2C217.3,119,217.3,119,217.3,118.9z M216.4,117.3c0.1,0,0.2,0,0.3,0s0.1-0.1,0.2-0.1s0.1-0.1,0.1-0.2
		c0-0.1,0-0.2,0-0.2c0-0.2-0.1-0.3-0.2-0.4c-0.1-0.1-0.3-0.2-0.5-0.2c-0.2,0-0.4,0.1-0.5,0.2s-0.2,0.2-0.2,0.4c0,0.1,0,0.2,0,0.2
		c0,0.1,0.1,0.1,0.1,0.2c0.1,0.1,0.1,0.1,0.2,0.1C216.2,117.3,216.3,117.3,216.4,117.3z"/>
	<path class="st9" d="M218.3,118.7v-2.9h0.3c0.1,0,0.1,0,0.1,0c0,0,0,0.1,0,0.1l0,0.5c0.1-0.2,0.2-0.4,0.4-0.5s0.3-0.2,0.5-0.2
		c0.1,0,0.2,0,0.2,0c0.1,0,0.1,0,0.2,0.1l-0.1,0.4c0,0,0,0.1-0.1,0.1c0,0-0.1,0-0.1,0c-0.1,0-0.1,0-0.2,0c-0.2,0-0.3,0.1-0.5,0.2
		s-0.2,0.3-0.3,0.5v1.9H218.3z"/>
	<path class="st9" d="M221.9,115.7c0.2,0,0.4,0,0.6,0.1c0.2,0.1,0.3,0.2,0.4,0.3c0.1,0.1,0.2,0.3,0.3,0.5c0.1,0.2,0.1,0.4,0.1,0.6
		c0,0.2,0,0.4-0.1,0.6c-0.1,0.2-0.2,0.3-0.3,0.5c-0.1,0.1-0.3,0.2-0.4,0.3c-0.2,0.1-0.4,0.1-0.6,0.1c-0.2,0-0.4,0-0.6-0.1
		c-0.2-0.1-0.3-0.2-0.4-0.3c-0.1-0.1-0.2-0.3-0.3-0.5c-0.1-0.2-0.1-0.4-0.1-0.6c0-0.2,0-0.4,0.1-0.6c0.1-0.2,0.2-0.3,0.3-0.5
		s0.3-0.2,0.4-0.3C221.5,115.8,221.7,115.7,221.9,115.7z M221.9,118.4c0.3,0,0.5-0.1,0.7-0.3c0.1-0.2,0.2-0.5,0.2-0.8
		c0-0.4-0.1-0.6-0.2-0.8c-0.1-0.2-0.4-0.3-0.7-0.3c-0.1,0-0.3,0-0.4,0.1c-0.1,0.1-0.2,0.1-0.3,0.2c-0.1,0.1-0.1,0.2-0.2,0.4
		s-0.1,0.3-0.1,0.5s0,0.3,0.1,0.5s0.1,0.3,0.2,0.3c0.1,0.1,0.2,0.2,0.3,0.2C221.6,118.3,221.7,118.4,221.9,118.4z"/>
	<path class="st9" d="M224.4,115.8v1.9c0,0.2,0.1,0.4,0.2,0.5c0.1,0.1,0.3,0.2,0.5,0.2c0.2,0,0.3,0,0.4-0.1c0.1-0.1,0.3-0.2,0.4-0.3
		v-2.2h0.5v2.9H226c-0.1,0-0.1,0-0.1-0.1l0-0.3c-0.1,0.1-0.3,0.3-0.4,0.3s-0.3,0.1-0.5,0.1c-0.2,0-0.3,0-0.4-0.1
		c-0.1-0.1-0.2-0.1-0.3-0.2c-0.1-0.1-0.1-0.2-0.2-0.4c0-0.1-0.1-0.3-0.1-0.5v-1.9H224.4z"/>
	<path class="st9" d="M227.2,119.7v-3.9h0.3c0.1,0,0.1,0,0.1,0.1l0,0.3c0.1-0.2,0.3-0.3,0.4-0.4c0.2-0.1,0.3-0.1,0.6-0.1
		c0.2,0,0.3,0,0.5,0.1c0.1,0.1,0.3,0.2,0.4,0.3c0.1,0.1,0.2,0.3,0.2,0.5c0.1,0.2,0.1,0.4,0.1,0.6c0,0.2,0,0.4-0.1,0.6
		c-0.1,0.2-0.1,0.3-0.2,0.5c-0.1,0.1-0.2,0.2-0.4,0.3s-0.3,0.1-0.5,0.1c-0.2,0-0.3,0-0.5-0.1c-0.1-0.1-0.2-0.1-0.3-0.3v1.3H227.2z
		 M228.5,116.1c-0.2,0-0.3,0-0.4,0.1c-0.1,0.1-0.2,0.2-0.4,0.3v1.4c0.1,0.1,0.2,0.2,0.3,0.3s0.2,0.1,0.4,0.1c0.3,0,0.5-0.1,0.6-0.3
		c0.1-0.2,0.2-0.5,0.2-0.8c0-0.2,0-0.4-0.1-0.5s-0.1-0.3-0.1-0.3c-0.1-0.1-0.1-0.2-0.2-0.2C228.7,116.2,228.6,116.1,228.5,116.1z"/>
	<path class="st9" d="M230.2,118.4c0,0,0-0.1,0-0.1c0,0,0-0.1,0.1-0.1s0.1-0.1,0.1-0.1c0,0,0.1,0,0.1,0c0.1,0,0.1,0,0.1,0
		c0,0,0.1,0,0.1,0.1c0,0,0.1,0.1,0.1,0.1c0,0,0,0.1,0,0.1c0,0.1,0,0.1,0,0.1c0,0,0,0.1-0.1,0.1c0,0-0.1,0.1-0.1,0.1c0,0-0.1,0-0.1,0
		c0,0-0.1,0-0.1,0c0,0-0.1,0-0.1-0.1c0,0-0.1-0.1-0.1-0.1C230.2,118.5,230.2,118.5,230.2,118.4z"/>
	<path class="st9" d="M233.6,116.3C233.6,116.3,233.6,116.3,233.6,116.3c-0.1,0.1-0.1,0.1-0.1,0.1s-0.1,0-0.1,0c0,0-0.1-0.1-0.1-0.1
		c-0.1,0-0.1-0.1-0.2-0.1c-0.1,0-0.2,0-0.3,0c-0.1,0-0.3,0-0.4,0.1c-0.1,0.1-0.2,0.1-0.3,0.2s-0.1,0.2-0.2,0.4
		c0,0.1-0.1,0.3-0.1,0.5c0,0.2,0,0.3,0.1,0.5c0,0.1,0.1,0.3,0.2,0.3c0.1,0.1,0.2,0.2,0.3,0.2c0.1,0,0.2,0.1,0.4,0.1
		c0.1,0,0.2,0,0.3,0c0.1,0,0.1-0.1,0.2-0.1c0.1,0,0.1-0.1,0.1-0.1c0,0,0.1,0,0.1,0c0,0,0.1,0,0.1,0l0.1,0.2
		c-0.1,0.2-0.3,0.3-0.5,0.3c-0.2,0.1-0.4,0.1-0.6,0.1c-0.2,0-0.4,0-0.5-0.1c-0.2-0.1-0.3-0.2-0.4-0.3s-0.2-0.3-0.3-0.5
		c-0.1-0.2-0.1-0.4-0.1-0.6c0-0.2,0-0.4,0.1-0.6c0.1-0.2,0.2-0.3,0.3-0.5s0.3-0.2,0.4-0.3c0.2-0.1,0.4-0.1,0.6-0.1
		c0.2,0,0.4,0,0.5,0.1c0.2,0.1,0.3,0.2,0.4,0.3L233.6,116.3z"/>
	<path class="st9" d="M236.5,118.7h-0.2c-0.1,0-0.1,0-0.1,0s-0.1,0-0.1-0.1l-0.1-0.3c-0.1,0.1-0.2,0.1-0.2,0.2
		c-0.1,0.1-0.2,0.1-0.2,0.1c-0.1,0-0.2,0.1-0.3,0.1s-0.2,0-0.3,0c-0.1,0-0.2,0-0.3,0c-0.1,0-0.2-0.1-0.3-0.1
		c-0.1-0.1-0.1-0.1-0.2-0.2c0-0.1-0.1-0.2-0.1-0.3c0-0.1,0-0.2,0.1-0.3c0.1-0.1,0.2-0.2,0.3-0.3c0.1-0.1,0.3-0.2,0.6-0.2
		c0.2-0.1,0.5-0.1,0.8-0.1v-0.2c0-0.2,0-0.4-0.1-0.5c-0.1-0.1-0.2-0.2-0.4-0.2c-0.1,0-0.2,0-0.3,0c-0.1,0-0.2,0.1-0.2,0.1
		c-0.1,0-0.1,0.1-0.2,0.1c0,0-0.1,0-0.1,0c0,0-0.1,0-0.1,0c0,0,0,0-0.1-0.1l-0.1-0.2c0.2-0.2,0.3-0.3,0.5-0.4
		c0.2-0.1,0.4-0.1,0.6-0.1c0.2,0,0.3,0,0.4,0.1c0.1,0.1,0.2,0.1,0.3,0.2c0.1,0.1,0.2,0.2,0.2,0.4c0,0.1,0.1,0.3,0.1,0.5V118.7z
		 M235.1,118.4c0.1,0,0.2,0,0.2,0c0.1,0,0.1,0,0.2-0.1c0.1,0,0.1-0.1,0.2-0.1c0.1,0,0.1-0.1,0.2-0.2v-0.6c-0.2,0-0.4,0-0.6,0
		s-0.3,0.1-0.4,0.1s-0.2,0.1-0.2,0.2s-0.1,0.1-0.1,0.2c0,0.1,0,0.1,0,0.2c0,0.1,0.1,0.1,0.1,0.1s0.1,0.1,0.2,0.1
		S235.1,118.4,235.1,118.4z"/>
</g>
<g class="st8">
	<path class="st9" d="M22.8,115.4v1.2h1.1v0.4h-1.1v1.2h-0.4v-1.2h-1.1v-0.4h1.1v-1.2H22.8z"/>
	<path class="st9" d="M25.2,118.2H26v-2.7c0-0.1,0-0.2,0-0.2l-0.7,0.6c0,0,0,0-0.1,0c0,0,0,0-0.1,0c0,0-0.1,0-0.1,0s0,0,0,0
		l-0.2-0.2l1.2-1h0.4v3.6h0.8v0.4h-2.1V118.2z"/>
	<path class="st9" d="M28.1,118.3c0,0,0-0.1,0-0.1s0-0.1,0.1-0.1s0.1-0.1,0.1-0.1c0,0,0.1,0,0.1,0s0.1,0,0.1,0c0,0,0.1,0,0.1,0.1
		s0.1,0.1,0.1,0.1c0,0,0,0.1,0,0.1c0,0,0,0.1,0,0.1c0,0,0,0.1-0.1,0.1s-0.1,0.1-0.1,0.1c0,0-0.1,0-0.1,0s-0.1,0-0.1,0
		c0,0-0.1,0-0.1-0.1s-0.1-0.1-0.1-0.1C28.1,118.4,28.1,118.3,28.1,118.3z"/>
	<path class="st9" d="M30.8,114.6c0.2,0,0.3,0,0.5,0.1c0.1,0,0.3,0.1,0.4,0.2c0.1,0.1,0.2,0.2,0.2,0.3s0.1,0.3,0.1,0.5
		c0,0.1,0,0.3-0.1,0.4c0,0.1-0.1,0.2-0.2,0.4c-0.1,0.1-0.2,0.2-0.3,0.3s-0.2,0.2-0.3,0.3l-1,1.1c0.1,0,0.1,0,0.2,0
		c0.1,0,0.1,0,0.2,0h1.3c0.1,0,0.1,0,0.1,0s0,0.1,0,0.1v0.3h-2.6v-0.2c0,0,0-0.1,0-0.1c0,0,0-0.1,0.1-0.1l1.3-1.3
		c0.1-0.1,0.2-0.2,0.3-0.3c0.1-0.1,0.2-0.2,0.2-0.3c0.1-0.1,0.1-0.2,0.1-0.3c0-0.1,0-0.2,0-0.3c0-0.1,0-0.2-0.1-0.3
		s-0.1-0.2-0.2-0.2c-0.1-0.1-0.1-0.1-0.2-0.1c-0.1,0-0.2,0-0.3,0c-0.1,0-0.2,0-0.3,0c-0.1,0-0.2,0.1-0.2,0.1
		c-0.1,0.1-0.1,0.1-0.2,0.2s-0.1,0.2-0.1,0.2c0,0.1,0,0.1-0.1,0.1c0,0-0.1,0-0.1,0c0,0,0,0,0,0c0,0,0,0,0,0l-0.3,0
		c0-0.2,0.1-0.3,0.1-0.5c0.1-0.1,0.2-0.3,0.3-0.3c0.1-0.1,0.2-0.2,0.4-0.2C30.5,114.6,30.7,114.6,30.8,114.6z"/>
	<path class="st9" d="M34.2,118.6c-0.2,0-0.4,0-0.5-0.1c-0.2-0.1-0.3-0.1-0.4-0.2c-0.1-0.1-0.2-0.2-0.3-0.4
		c-0.1-0.1-0.1-0.3-0.1-0.5c0-0.3,0.1-0.5,0.2-0.6c0.1-0.2,0.3-0.3,0.6-0.4c-0.2-0.1-0.4-0.2-0.5-0.3s-0.2-0.3-0.2-0.5
		c0-0.1,0-0.3,0.1-0.4c0.1-0.1,0.1-0.2,0.2-0.3c0.1-0.1,0.2-0.2,0.4-0.2c0.1-0.1,0.3-0.1,0.5-0.1c0.2,0,0.3,0,0.5,0.1
		c0.1,0.1,0.3,0.1,0.4,0.2c0.1,0.1,0.2,0.2,0.2,0.3c0.1,0.1,0.1,0.3,0.1,0.4c0,0.2-0.1,0.4-0.2,0.5s-0.3,0.3-0.5,0.3
		c0.2,0.1,0.4,0.2,0.6,0.4c0.1,0.2,0.2,0.4,0.2,0.6c0,0.2,0,0.3-0.1,0.5c-0.1,0.1-0.2,0.3-0.3,0.4c-0.1,0.1-0.3,0.2-0.4,0.2
		C34.6,118.6,34.4,118.6,34.2,118.6z M34.2,118.2c0.1,0,0.2,0,0.3-0.1c0.1,0,0.2-0.1,0.3-0.2c0.1-0.1,0.1-0.1,0.2-0.2
		s0.1-0.2,0.1-0.3c0-0.1,0-0.3-0.1-0.3c0-0.1-0.1-0.2-0.2-0.2s-0.2-0.1-0.3-0.1c-0.1,0-0.2,0-0.3,0c-0.1,0-0.2,0-0.3,0
		c-0.1,0-0.2,0.1-0.3,0.1c-0.1,0.1-0.1,0.1-0.2,0.2c0,0.1-0.1,0.2-0.1,0.3c0,0.1,0,0.2,0.1,0.3s0.1,0.2,0.2,0.2
		c0.1,0.1,0.2,0.1,0.3,0.2C34,118.2,34.1,118.2,34.2,118.2z M34.2,116.3c0.1,0,0.2,0,0.3-0.1c0.1,0,0.2-0.1,0.2-0.2
		c0.1-0.1,0.1-0.1,0.1-0.2c0-0.1,0-0.2,0-0.3c0-0.1,0-0.2,0-0.3s-0.1-0.2-0.1-0.2s-0.1-0.1-0.2-0.1c-0.1,0-0.2-0.1-0.3-0.1
		s-0.2,0-0.3,0.1c-0.1,0-0.2,0.1-0.2,0.1s-0.1,0.1-0.1,0.2s0,0.2,0,0.3c0,0.1,0,0.2,0,0.3c0,0.1,0.1,0.2,0.1,0.2
		c0.1,0.1,0.1,0.1,0.2,0.2C34,116.3,34.1,116.3,34.2,116.3z"/>
	<path class="st9" d="M37.5,117c-0.1,0-0.3,0-0.4-0.1c-0.1,0-0.2-0.1-0.4-0.2c-0.1-0.1-0.2-0.2-0.2-0.4s-0.1-0.3-0.1-0.5
		c0-0.2,0-0.3,0.1-0.5c0.1-0.2,0.2-0.3,0.3-0.4c0.1-0.1,0.3-0.2,0.4-0.3c0.2-0.1,0.3-0.1,0.5-0.1c0.2,0,0.4,0,0.5,0.1
		c0.2,0.1,0.3,0.1,0.4,0.3c0.1,0.1,0.2,0.2,0.3,0.4s0.1,0.3,0.1,0.5c0,0.1,0,0.2,0,0.3c0,0.1-0.1,0.2-0.1,0.3c0,0.1-0.1,0.2-0.1,0.3
		c-0.1,0.1-0.1,0.2-0.2,0.3l-1,1.4c0,0-0.1,0.1-0.1,0.1c0,0-0.1,0-0.2,0h-0.5l1.2-1.6c0-0.1,0.1-0.1,0.1-0.2c0,0,0.1-0.1,0.1-0.1
		c-0.1,0.1-0.2,0.1-0.3,0.2C37.8,116.9,37.7,117,37.5,117z M38.5,115.8c0-0.1,0-0.2-0.1-0.3s-0.1-0.2-0.2-0.3
		c-0.1-0.1-0.2-0.1-0.2-0.2c-0.1,0-0.2-0.1-0.3-0.1c-0.1,0-0.2,0-0.3,0.1c-0.1,0-0.2,0.1-0.3,0.2c-0.1,0.1-0.1,0.2-0.2,0.3
		c0,0.1-0.1,0.2-0.1,0.3c0,0.1,0,0.2,0.1,0.3c0,0.1,0.1,0.2,0.2,0.2c0.1,0.1,0.1,0.1,0.2,0.2c0.1,0,0.2,0.1,0.3,0.1
		c0.1,0,0.2,0,0.4-0.1c0.1,0,0.2-0.1,0.3-0.2s0.1-0.2,0.2-0.2C38.5,116,38.5,115.9,38.5,115.8z"/>
	<path class="st9" d="M39.7,118.3c0,0,0-0.1,0-0.1s0-0.1,0.1-0.1s0.1-0.1,0.1-0.1c0,0,0.1,0,0.1,0s0.1,0,0.1,0c0,0,0.1,0,0.1,0.1
		s0.1,0.1,0.1,0.1c0,0,0,0.1,0,0.1c0,0,0,0.1,0,0.1c0,0,0,0.1-0.1,0.1s-0.1,0.1-0.1,0.1c0,0-0.1,0-0.1,0s-0.1,0-0.1,0
		c0,0-0.1,0-0.1-0.1s-0.1-0.1-0.1-0.1C39.7,118.4,39.7,118.3,39.7,118.3z"/>
	<path class="st9" d="M43.3,117.2h0.6v0.3c0,0,0,0.1,0,0.1c0,0,0,0-0.1,0h-0.5v1h-0.4v-1h-1.7c0,0-0.1,0-0.1,0c0,0,0,0-0.1-0.1
		l0-0.3l1.9-2.5h0.5V117.2z M42.9,115.5c0,0,0-0.1,0-0.2s0-0.1,0-0.2l-1.4,1.9h1.4V115.5z"/>
	<path class="st9" d="M46.7,117.2h0.6v0.3c0,0,0,0.1,0,0.1c0,0,0,0-0.1,0h-0.5v1h-0.4v-1h-1.7c0,0-0.1,0-0.1,0c0,0,0,0-0.1-0.1
		l0-0.3l1.9-2.5h0.5V117.2z M46.3,115.5c0,0,0-0.1,0-0.2s0-0.1,0-0.2l-1.4,1.9h1.4V115.5z"/>
	<path class="st9" d="M50.1,117.2h0.6v0.3c0,0,0,0.1,0,0.1c0,0,0,0-0.1,0h-0.5v1h-0.4v-1h-1.7c0,0-0.1,0-0.1,0c0,0,0,0-0.1-0.1
		l0-0.3l1.9-2.5h0.5V117.2z M49.7,115.5c0,0,0-0.1,0-0.2s0-0.1,0-0.2l-1.4,1.9h1.4V115.5z"/>
	<path class="st9" d="M51.3,118.3c0,0,0-0.1,0-0.1s0-0.1,0.1-0.1s0.1-0.1,0.1-0.1c0,0,0.1,0,0.1,0s0.1,0,0.1,0c0,0,0.1,0,0.1,0.1
		s0.1,0.1,0.1,0.1c0,0,0,0.1,0,0.1c0,0,0,0.1,0,0.1c0,0,0,0.1-0.1,0.1s-0.1,0.1-0.1,0.1c0,0-0.1,0-0.1,0s-0.1,0-0.1,0
		c0,0-0.1,0-0.1-0.1s-0.1-0.1-0.1-0.1C51.3,118.4,51.3,118.3,51.3,118.3z"/>
	<path class="st9" d="M54.1,114.6c0.2,0,0.3,0,0.5,0.1s0.3,0.1,0.4,0.2c0.1,0.1,0.2,0.2,0.2,0.3c0.1,0.1,0.1,0.3,0.1,0.4
		c0,0.1,0,0.2,0,0.3c0,0.1-0.1,0.2-0.1,0.3s-0.1,0.1-0.2,0.2c-0.1,0.1-0.2,0.1-0.3,0.1c0.3,0.1,0.4,0.2,0.6,0.3
		c0.1,0.2,0.2,0.4,0.2,0.6c0,0.2,0,0.3-0.1,0.5s-0.2,0.3-0.3,0.4c-0.1,0.1-0.3,0.2-0.4,0.2c-0.2,0.1-0.3,0.1-0.5,0.1
		c-0.2,0-0.4,0-0.5-0.1c-0.1-0.1-0.3-0.1-0.4-0.2s-0.2-0.2-0.3-0.3s-0.1-0.3-0.2-0.4l0.2-0.1c0,0,0.1,0,0.1,0c0,0,0.1,0,0.1,0
		s0,0,0.1,0.1c0,0,0,0,0,0c0,0,0,0,0,0c0,0.1,0.1,0.1,0.1,0.2c0,0.1,0.1,0.1,0.1,0.2c0.1,0.1,0.1,0.1,0.2,0.1c0.1,0,0.2,0.1,0.3,0.1
		c0.1,0,0.3,0,0.4-0.1s0.2-0.1,0.3-0.2c0.1-0.1,0.1-0.2,0.2-0.2c0-0.1,0.1-0.2,0.1-0.3c0-0.1,0-0.2,0-0.3c0-0.1-0.1-0.2-0.2-0.2
		c-0.1-0.1-0.2-0.1-0.3-0.2c-0.1,0-0.3-0.1-0.5-0.1v-0.4c0.2,0,0.3,0,0.4-0.1c0.1,0,0.2-0.1,0.3-0.1s0.1-0.1,0.2-0.2
		c0-0.1,0.1-0.2,0.1-0.3c0-0.1,0-0.2-0.1-0.3c0-0.1-0.1-0.2-0.1-0.2c-0.1-0.1-0.1-0.1-0.2-0.1c-0.1,0-0.2,0-0.3,0
		c-0.1,0-0.2,0-0.3,0c-0.1,0-0.2,0.1-0.2,0.1c-0.1,0.1-0.1,0.1-0.2,0.2s-0.1,0.2-0.1,0.2c0,0.1,0,0.1-0.1,0.1c0,0-0.1,0-0.1,0
		c0,0,0,0,0,0c0,0,0,0,0,0l-0.3,0c0-0.2,0.1-0.3,0.1-0.5c0.1-0.1,0.2-0.3,0.3-0.3c0.1-0.1,0.2-0.2,0.4-0.2
		C53.8,114.6,54,114.6,54.1,114.6z"/>
	<path class="st9" d="M58.5,114.9c0,0.1,0,0.1-0.1,0.2s-0.1,0.1-0.2,0.1H57l-0.2,1c0.2,0,0.4-0.1,0.6-0.1c0.2,0,0.4,0,0.5,0.1
		c0.2,0.1,0.3,0.1,0.4,0.3s0.2,0.2,0.2,0.4c0.1,0.1,0.1,0.3,0.1,0.5c0,0.2,0,0.4-0.1,0.6c-0.1,0.2-0.2,0.3-0.3,0.4
		c-0.1,0.1-0.3,0.2-0.4,0.3c-0.2,0.1-0.4,0.1-0.6,0.1c-0.1,0-0.2,0-0.3,0c-0.1,0-0.2-0.1-0.3-0.1c-0.1,0-0.2-0.1-0.3-0.1
		c-0.1,0-0.1-0.1-0.2-0.2l0.1-0.2c0,0,0.1-0.1,0.1-0.1c0,0,0.1,0,0.1,0c0,0,0.1,0.1,0.2,0.1c0.1,0,0.1,0.1,0.2,0.1
		c0.1,0,0.2,0,0.3,0c0.1,0,0.3,0,0.4-0.1c0.1,0,0.2-0.1,0.3-0.2c0.1-0.1,0.1-0.2,0.2-0.3c0-0.1,0.1-0.2,0.1-0.4c0-0.1,0-0.2-0.1-0.3
		c0-0.1-0.1-0.2-0.2-0.3c-0.1-0.1-0.2-0.1-0.3-0.2c-0.1,0-0.2-0.1-0.4-0.1c-0.1,0-0.2,0-0.3,0s-0.2,0-0.3,0.1l-0.3-0.1l0.3-1.8h1.9
		V114.9z"/>
	<path class="st9" d="M60,118.2h0.8v-2.7c0-0.1,0-0.2,0-0.2l-0.7,0.6c0,0,0,0-0.1,0c0,0,0,0-0.1,0c0,0-0.1,0-0.1,0s0,0,0,0l-0.2-0.2
		l1.2-1h0.4v3.6h0.8v0.4H60V118.2z"/>
	<path class="st9" d="M64.4,116.2c0.2,0,0.3,0,0.4,0.1c0.1,0.1,0.3,0.1,0.4,0.2c0.1,0.1,0.2,0.2,0.3,0.4c0.1,0.1,0.1,0.3,0.1,0.5
		c0,0.2,0,0.4-0.1,0.5c-0.1,0.2-0.2,0.3-0.3,0.4s-0.3,0.2-0.4,0.3c-0.2,0.1-0.4,0.1-0.5,0.1c-0.2,0-0.4,0-0.5-0.1
		c-0.2-0.1-0.3-0.2-0.4-0.3s-0.2-0.3-0.3-0.4s-0.1-0.4-0.1-0.6c0-0.2,0-0.4,0.1-0.5c0.1-0.2,0.2-0.4,0.4-0.6l1-1.3
		c0,0,0.1-0.1,0.1-0.1c0,0,0.1,0,0.2,0h0.4l-1.4,1.7c0.1-0.1,0.2-0.1,0.3-0.2C64.2,116.2,64.3,116.2,64.4,116.2z M63.4,117.4
		c0,0.1,0,0.2,0.1,0.3c0,0.1,0.1,0.2,0.2,0.3s0.2,0.1,0.3,0.2c0.1,0,0.2,0.1,0.3,0.1c0.1,0,0.3,0,0.4-0.1c0.1,0,0.2-0.1,0.3-0.2
		c0.1-0.1,0.1-0.2,0.2-0.3c0-0.1,0.1-0.2,0.1-0.3c0-0.1,0-0.2-0.1-0.3c0-0.1-0.1-0.2-0.2-0.3c-0.1-0.1-0.2-0.1-0.3-0.2
		c-0.1,0-0.2-0.1-0.3-0.1c-0.1,0-0.3,0-0.4,0.1s-0.2,0.1-0.3,0.2s-0.1,0.2-0.2,0.3C63.4,117.2,63.4,117.3,63.4,117.4z"/>
</g>
<g class="st8">
	<path class="st2" d="M68.6,41.5h0.6c0.1,0,0.1,0,0.2,0.1c0,0,0.1,0.1,0.1,0.1l1,2.6c0,0.1,0.1,0.2,0.1,0.3c0,0.1,0.1,0.2,0.1,0.3
		c0-0.2,0.1-0.4,0.2-0.6l1-2.6c0,0,0-0.1,0.1-0.1c0,0,0.1-0.1,0.2-0.1h0.6L71,45.8h-0.7L68.6,41.5z"/>
	<path class="st2" d="M74.3,41.9c0,0.1,0,0.1,0,0.2s-0.1,0.1-0.1,0.1c0,0-0.1,0.1-0.2,0.1c-0.1,0-0.1,0-0.2,0c-0.1,0-0.1,0-0.2,0
		c-0.1,0-0.1-0.1-0.1-0.1c0,0-0.1-0.1-0.1-0.1s0-0.1,0-0.2c0-0.1,0-0.1,0-0.2s0.1-0.1,0.1-0.1c0,0,0.1-0.1,0.1-0.1
		c0.1,0,0.1,0,0.2,0c0.1,0,0.1,0,0.2,0c0.1,0,0.1,0.1,0.2,0.1c0,0,0.1,0.1,0.1,0.1S74.3,41.8,74.3,41.9z M74.2,42.8v3.1h-0.7v-3.1
		H74.2z"/>
	<path class="st2" d="M77.5,43.4C77.5,43.5,77.5,43.5,77.5,43.4c-0.1,0.1-0.1,0.1-0.2,0.1c0,0-0.1,0-0.1,0c0,0-0.1,0-0.1-0.1
		c0,0-0.1-0.1-0.2-0.1c-0.1,0-0.2,0-0.3,0c-0.1,0-0.2,0-0.3,0.1s-0.2,0.1-0.2,0.2c-0.1,0.1-0.1,0.2-0.1,0.3s0,0.3,0,0.4
		c0,0.2,0,0.3,0.1,0.4s0.1,0.2,0.2,0.3c0.1,0.1,0.1,0.2,0.2,0.2c0.1,0,0.2,0.1,0.3,0.1s0.2,0,0.3,0c0.1,0,0.1-0.1,0.2-0.1
		c0,0,0.1-0.1,0.1-0.1c0,0,0.1,0,0.1,0c0.1,0,0.1,0,0.1,0.1l0.2,0.3c-0.1,0.1-0.2,0.2-0.3,0.2s-0.2,0.1-0.3,0.2
		c-0.1,0-0.2,0.1-0.3,0.1c-0.1,0-0.2,0-0.3,0c-0.2,0-0.4,0-0.5-0.1c-0.2-0.1-0.3-0.2-0.4-0.3c-0.1-0.1-0.2-0.3-0.3-0.5
		s-0.1-0.4-0.1-0.7c0-0.2,0-0.4,0.1-0.6s0.2-0.4,0.3-0.5s0.3-0.2,0.5-0.3c0.2-0.1,0.4-0.1,0.6-0.1c0.2,0,0.4,0,0.6,0.1
		c0.2,0.1,0.3,0.2,0.5,0.3L77.5,43.4z"/>
	<path class="st2" d="M79.7,42.7c0.2,0,0.4,0,0.5,0.1s0.3,0.2,0.4,0.3s0.2,0.3,0.3,0.4c0.1,0.2,0.1,0.4,0.1,0.6c0,0.1,0,0.1,0,0.1
		c0,0,0,0.1,0,0.1c0,0,0,0-0.1,0s0,0-0.1,0H79c0,0.3,0.1,0.5,0.3,0.7c0.1,0.1,0.3,0.2,0.6,0.2c0.1,0,0.2,0,0.3,0
		c0.1,0,0.2-0.1,0.2-0.1c0.1,0,0.1-0.1,0.2-0.1c0,0,0.1,0,0.1,0c0,0,0.1,0,0.1,0c0,0,0,0,0.1,0.1l0.2,0.3c-0.1,0.1-0.2,0.2-0.3,0.2
		c-0.1,0.1-0.2,0.1-0.3,0.2c-0.1,0-0.2,0.1-0.3,0.1c-0.1,0-0.2,0-0.3,0c-0.2,0-0.4,0-0.6-0.1c-0.2-0.1-0.3-0.2-0.5-0.3
		c-0.1-0.1-0.2-0.3-0.3-0.5c-0.1-0.2-0.1-0.4-0.1-0.7c0-0.2,0-0.4,0.1-0.6c0.1-0.2,0.2-0.3,0.3-0.5s0.3-0.2,0.5-0.3
		C79.3,42.8,79.5,42.7,79.7,42.7z M79.8,43.3c-0.2,0-0.4,0.1-0.5,0.2c-0.1,0.1-0.2,0.3-0.2,0.5h1.4c0-0.1,0-0.2,0-0.3
		s-0.1-0.2-0.1-0.2c-0.1-0.1-0.1-0.1-0.2-0.2C80,43.3,79.9,43.3,79.8,43.3z"/>
	<path class="st2" d="M84.3,44.3v1.5h-0.8v-4.3h1.4c0.3,0,0.5,0,0.7,0.1c0.2,0.1,0.4,0.2,0.5,0.3c0.1,0.1,0.2,0.3,0.3,0.4
		c0.1,0.2,0.1,0.4,0.1,0.6c0,0.2,0,0.4-0.1,0.6c-0.1,0.2-0.2,0.3-0.3,0.4s-0.3,0.2-0.5,0.3c-0.2,0.1-0.5,0.1-0.7,0.1H84.3z
		 M84.3,43.7h0.6c0.1,0,0.3,0,0.4-0.1c0.1,0,0.2-0.1,0.3-0.2c0.1-0.1,0.1-0.2,0.2-0.2c0-0.1,0.1-0.2,0.1-0.3c0-0.1,0-0.2-0.1-0.3
		c0-0.1-0.1-0.2-0.2-0.2c-0.1-0.1-0.2-0.1-0.3-0.2c-0.1,0-0.2-0.1-0.4-0.1h-0.6V43.7z"/>
	<path class="st2" d="M87.4,45.8v-3.1h0.4c0.1,0,0.1,0,0.2,0c0,0,0,0.1,0.1,0.1l0,0.4c0.1-0.2,0.2-0.3,0.4-0.4
		c0.1-0.1,0.3-0.2,0.5-0.2c0.2,0,0.3,0,0.4,0.1l-0.1,0.6c0,0,0,0.1,0,0.1c0,0,0,0-0.1,0c0,0-0.1,0-0.1,0c-0.1,0-0.1,0-0.2,0
		c-0.2,0-0.3,0-0.4,0.1c-0.1,0.1-0.2,0.2-0.3,0.4v1.9H87.4z"/>
	<path class="st2" d="M91.4,42.7c0.2,0,0.4,0,0.5,0.1s0.3,0.2,0.4,0.3s0.2,0.3,0.3,0.4c0.1,0.2,0.1,0.4,0.1,0.6c0,0.1,0,0.1,0,0.1
		c0,0,0,0.1,0,0.1c0,0,0,0-0.1,0s0,0-0.1,0h-1.9c0,0.3,0.1,0.5,0.3,0.7c0.1,0.1,0.3,0.2,0.6,0.2c0.1,0,0.2,0,0.3,0
		c0.1,0,0.2-0.1,0.2-0.1c0.1,0,0.1-0.1,0.2-0.1c0,0,0.1,0,0.1,0c0,0,0.1,0,0.1,0c0,0,0,0,0.1,0.1l0.2,0.3c-0.1,0.1-0.2,0.2-0.3,0.2
		c-0.1,0.1-0.2,0.1-0.3,0.2c-0.1,0-0.2,0.1-0.3,0.1c-0.1,0-0.2,0-0.3,0c-0.2,0-0.4,0-0.6-0.1c-0.2-0.1-0.3-0.2-0.5-0.3
		c-0.1-0.1-0.2-0.3-0.3-0.5c-0.1-0.2-0.1-0.4-0.1-0.7c0-0.2,0-0.4,0.1-0.6c0.1-0.2,0.2-0.3,0.3-0.5s0.3-0.2,0.5-0.3
		C91,42.8,91.2,42.7,91.4,42.7z M91.4,43.3c-0.2,0-0.4,0.1-0.5,0.2c-0.1,0.1-0.2,0.3-0.2,0.5H92c0-0.1,0-0.2,0-0.3s-0.1-0.2-0.1-0.2
		c-0.1-0.1-0.1-0.1-0.2-0.2C91.6,43.3,91.5,43.3,91.4,43.3z"/>
	<path class="st2" d="M95.4,43.4C95.4,43.4,95.4,43.4,95.4,43.4c-0.1,0.1-0.1,0.1-0.1,0.1c0,0-0.1,0-0.1,0c0,0-0.1,0-0.1-0.1
		c-0.1,0-0.1,0-0.2-0.1c-0.1,0-0.1,0-0.2,0c-0.1,0-0.3,0-0.3,0.1c-0.1,0.1-0.1,0.1-0.1,0.2c0,0.1,0,0.1,0.1,0.2c0,0,0.1,0.1,0.2,0.1
		c0.1,0,0.1,0.1,0.2,0.1c0.1,0,0.2,0.1,0.3,0.1c0.1,0,0.2,0.1,0.3,0.1c0.1,0,0.2,0.1,0.2,0.2c0.1,0.1,0.1,0.1,0.2,0.2
		s0.1,0.2,0.1,0.3c0,0.1,0,0.3-0.1,0.4c-0.1,0.1-0.1,0.2-0.2,0.3c-0.1,0.1-0.2,0.2-0.4,0.2s-0.3,0.1-0.5,0.1c-0.1,0-0.2,0-0.3,0
		c-0.1,0-0.2,0-0.3-0.1c-0.1,0-0.2-0.1-0.3-0.1c-0.1,0-0.1-0.1-0.2-0.1l0.2-0.3c0,0,0-0.1,0.1-0.1c0,0,0.1,0,0.1,0c0,0,0.1,0,0.1,0
		c0,0,0.1,0.1,0.1,0.1c0.1,0,0.1,0.1,0.2,0.1c0.1,0,0.2,0,0.3,0c0.1,0,0.2,0,0.2,0c0.1,0,0.1,0,0.2-0.1s0.1-0.1,0.1-0.1
		c0,0,0-0.1,0-0.1c0-0.1,0-0.1-0.1-0.2c0,0-0.1-0.1-0.2-0.1c-0.1,0-0.2-0.1-0.2-0.1c-0.1,0-0.2-0.1-0.3-0.1c-0.1,0-0.2-0.1-0.3-0.1
		c-0.1,0-0.2-0.1-0.2-0.2s-0.1-0.1-0.2-0.2c0-0.1-0.1-0.2-0.1-0.3c0-0.1,0-0.2,0.1-0.4c0-0.1,0.1-0.2,0.2-0.3
		c0.1-0.1,0.2-0.2,0.4-0.2c0.1,0,0.3-0.1,0.5-0.1c0.2,0,0.4,0,0.6,0.1c0.2,0.1,0.3,0.2,0.4,0.3L95.4,43.4z"/>
	<path class="st2" d="M97.4,41.9c0,0.1,0,0.1,0,0.2s-0.1,0.1-0.1,0.1c0,0-0.1,0.1-0.2,0.1c-0.1,0-0.1,0-0.2,0c-0.1,0-0.1,0-0.2,0
		c-0.1,0-0.1-0.1-0.1-0.1c0,0-0.1-0.1-0.1-0.1s0-0.1,0-0.2c0-0.1,0-0.1,0-0.2s0.1-0.1,0.1-0.1c0,0,0.1-0.1,0.1-0.1
		c0.1,0,0.1,0,0.2,0c0.1,0,0.1,0,0.2,0c0.1,0,0.1,0.1,0.2,0.1c0,0,0.1,0.1,0.1,0.1S97.4,41.8,97.4,41.9z M97.3,42.8v3.1h-0.7v-3.1
		H97.3z"/>
	<path class="st2" d="M100.5,45.8c-0.1,0-0.2,0-0.2-0.1l-0.1-0.3c-0.1,0.1-0.1,0.1-0.2,0.2s-0.1,0.1-0.2,0.1c-0.1,0-0.2,0.1-0.3,0.1
		c-0.1,0-0.2,0-0.3,0c-0.2,0-0.3,0-0.5-0.1c-0.1-0.1-0.3-0.2-0.4-0.3c-0.1-0.1-0.2-0.3-0.2-0.5s-0.1-0.4-0.1-0.7
		c0-0.2,0-0.4,0.1-0.6c0.1-0.2,0.1-0.4,0.3-0.5c0.1-0.1,0.3-0.3,0.4-0.3s0.3-0.1,0.5-0.1c0.2,0,0.3,0,0.4,0.1s0.2,0.1,0.3,0.2v-1.6
		h0.7v4.4H100.5z M99.6,45.3c0.2,0,0.3,0,0.4-0.1s0.2-0.2,0.3-0.3v-1.4c-0.1-0.1-0.2-0.2-0.3-0.2c-0.1,0-0.2-0.1-0.3-0.1
		c-0.1,0-0.2,0-0.3,0.1c-0.1,0-0.2,0.1-0.2,0.2c-0.1,0.1-0.1,0.2-0.1,0.3s-0.1,0.3-0.1,0.5c0,0.2,0,0.3,0,0.5s0.1,0.2,0.1,0.3
		c0.1,0.1,0.1,0.1,0.2,0.2C99.4,45.3,99.5,45.3,99.6,45.3z"/>
	<path class="st2" d="M103.3,42.7c0.2,0,0.4,0,0.5,0.1s0.3,0.2,0.4,0.3s0.2,0.3,0.3,0.4c0.1,0.2,0.1,0.4,0.1,0.6c0,0.1,0,0.1,0,0.1
		c0,0,0,0.1,0,0.1c0,0,0,0-0.1,0s0,0-0.1,0h-1.9c0,0.3,0.1,0.5,0.3,0.7c0.1,0.1,0.3,0.2,0.6,0.2c0.1,0,0.2,0,0.3,0
		c0.1,0,0.2-0.1,0.2-0.1c0.1,0,0.1-0.1,0.2-0.1c0,0,0.1,0,0.1,0c0,0,0.1,0,0.1,0c0,0,0,0,0.1,0.1l0.2,0.3c-0.1,0.1-0.2,0.2-0.3,0.2
		c-0.1,0.1-0.2,0.1-0.3,0.2c-0.1,0-0.2,0.1-0.3,0.1c-0.1,0-0.2,0-0.3,0c-0.2,0-0.4,0-0.6-0.1c-0.2-0.1-0.3-0.2-0.5-0.3
		c-0.1-0.1-0.2-0.3-0.3-0.5c-0.1-0.2-0.1-0.4-0.1-0.7c0-0.2,0-0.4,0.1-0.6c0.1-0.2,0.2-0.3,0.3-0.5s0.3-0.2,0.5-0.3
		C102.9,42.8,103.1,42.7,103.3,42.7z M103.4,43.3c-0.2,0-0.4,0.1-0.5,0.2c-0.1,0.1-0.2,0.3-0.2,0.5h1.4c0-0.1,0-0.2,0-0.3
		s-0.1-0.2-0.1-0.2c-0.1-0.1-0.1-0.1-0.2-0.2C103.6,43.3,103.5,43.3,103.4,43.3z"/>
	<path class="st2" d="M105.5,45.8v-3.1h0.4c0.1,0,0.2,0,0.2,0.1l0.1,0.2c0.1-0.1,0.1-0.1,0.2-0.2c0.1-0.1,0.1-0.1,0.2-0.1
		c0.1,0,0.2-0.1,0.2-0.1s0.2,0,0.3,0c0.2,0,0.3,0,0.4,0.1c0.1,0.1,0.2,0.1,0.3,0.2c0.1,0.1,0.2,0.2,0.2,0.4c0,0.1,0.1,0.3,0.1,0.5
		v1.9h-0.7v-1.9c0-0.2,0-0.3-0.1-0.4c-0.1-0.1-0.2-0.2-0.4-0.2c-0.1,0-0.2,0-0.4,0.1c-0.1,0.1-0.2,0.1-0.3,0.2v2.2H105.5z"/>
	<path class="st2" d="M110.2,45.9c-0.3,0-0.5-0.1-0.6-0.2c-0.1-0.2-0.2-0.4-0.2-0.6v-1.7h-0.3c0,0-0.1,0-0.1,0c0,0,0-0.1,0-0.1v-0.3
		l0.5-0.1l0.2-0.8c0,0,0-0.1,0.1-0.1c0,0,0.1,0,0.1,0h0.4v1h0.8v0.5h-0.8V45c0,0.1,0,0.2,0.1,0.2c0,0.1,0.1,0.1,0.2,0.1
		c0,0,0.1,0,0.1,0s0.1,0,0.1,0s0,0,0.1,0c0,0,0,0,0.1,0c0,0,0,0,0.1,0c0,0,0,0,0,0l0.2,0.4c-0.1,0.1-0.2,0.2-0.4,0.2
		C110.5,45.9,110.4,45.9,110.2,45.9z"/>
	<path class="st2" d="M111.7,45.4c0-0.1,0-0.1,0-0.2c0,0,0.1-0.1,0.1-0.1s0.1-0.1,0.1-0.1c0.1,0,0.1,0,0.2,0c0.1,0,0.1,0,0.2,0
		c0.1,0,0.1,0.1,0.1,0.1c0,0,0.1,0.1,0.1,0.2s0,0.1,0,0.2c0,0.1,0,0.2,0,0.3c0,0.1-0.1,0.2-0.1,0.3c-0.1,0.1-0.1,0.2-0.2,0.3
		c-0.1,0.1-0.2,0.2-0.3,0.3l-0.1-0.1c0,0-0.1-0.1-0.1-0.1c0,0,0,0,0-0.1c0,0,0,0,0-0.1c0,0,0-0.1,0.1-0.1c0,0,0.1-0.1,0.1-0.1
		c0,0,0.1-0.1,0.1-0.1s0-0.1,0.1-0.2c-0.1,0-0.1,0-0.2,0c-0.1,0-0.1-0.1-0.1-0.1s-0.1-0.1-0.1-0.1C111.7,45.5,111.7,45.4,111.7,45.4
		z"/>
	<path class="st2" d="M118,41.5v0.7h-1.3v3.6h-0.8v-3.6h-1.3v-0.7H118z"/>
	<path class="st2" d="M119.4,42.7c0.2,0,0.4,0,0.5,0.1s0.3,0.2,0.4,0.3s0.2,0.3,0.3,0.4c0.1,0.2,0.1,0.4,0.1,0.6c0,0.1,0,0.1,0,0.1
		c0,0,0,0.1,0,0.1c0,0,0,0-0.1,0s0,0-0.1,0h-1.9c0,0.3,0.1,0.5,0.3,0.7c0.1,0.1,0.3,0.2,0.6,0.2c0.1,0,0.2,0,0.3,0
		c0.1,0,0.2-0.1,0.2-0.1c0.1,0,0.1-0.1,0.2-0.1c0,0,0.1,0,0.1,0c0,0,0.1,0,0.1,0c0,0,0,0,0.1,0.1l0.2,0.3c-0.1,0.1-0.2,0.2-0.3,0.2
		c-0.1,0.1-0.2,0.1-0.3,0.2c-0.1,0-0.2,0.1-0.3,0.1c-0.1,0-0.2,0-0.3,0c-0.2,0-0.4,0-0.6-0.1c-0.2-0.1-0.3-0.2-0.5-0.3
		c-0.1-0.1-0.2-0.3-0.3-0.5c-0.1-0.2-0.1-0.4-0.1-0.7c0-0.2,0-0.4,0.1-0.6c0.1-0.2,0.2-0.3,0.3-0.5s0.3-0.2,0.5-0.3
		C118.9,42.8,119.1,42.7,119.4,42.7z M119.4,43.3c-0.2,0-0.4,0.1-0.5,0.2c-0.1,0.1-0.2,0.3-0.2,0.5h1.4c0-0.1,0-0.2,0-0.3
		s-0.1-0.2-0.1-0.2c-0.1-0.1-0.1-0.1-0.2-0.2C119.6,43.3,119.5,43.3,119.4,43.3z"/>
	<path class="st2" d="M123.7,43.4C123.7,43.5,123.7,43.5,123.7,43.4c-0.1,0.1-0.1,0.1-0.2,0.1c0,0-0.1,0-0.1,0c0,0-0.1,0-0.1-0.1
		c0,0-0.1-0.1-0.2-0.1c-0.1,0-0.2,0-0.3,0c-0.1,0-0.2,0-0.3,0.1s-0.2,0.1-0.2,0.2c-0.1,0.1-0.1,0.2-0.1,0.3s0,0.3,0,0.4
		c0,0.2,0,0.3,0.1,0.4s0.1,0.2,0.2,0.3c0.1,0.1,0.1,0.2,0.2,0.2c0.1,0,0.2,0.1,0.3,0.1s0.2,0,0.3,0c0.1,0,0.1-0.1,0.2-0.1
		c0,0,0.1-0.1,0.1-0.1c0,0,0.1,0,0.1,0c0.1,0,0.1,0,0.1,0.1l0.2,0.3c-0.1,0.1-0.2,0.2-0.3,0.2s-0.2,0.1-0.3,0.2
		c-0.1,0-0.2,0.1-0.3,0.1c-0.1,0-0.2,0-0.3,0c-0.2,0-0.4,0-0.5-0.1c-0.2-0.1-0.3-0.2-0.4-0.3c-0.1-0.1-0.2-0.3-0.3-0.5
		s-0.1-0.4-0.1-0.7c0-0.2,0-0.4,0.1-0.6s0.2-0.4,0.3-0.5s0.3-0.2,0.5-0.3c0.2-0.1,0.4-0.1,0.6-0.1c0.2,0,0.4,0,0.6,0.1
		c0.2,0.1,0.3,0.2,0.5,0.3L123.7,43.4z"/>
	<path class="st2" d="M124.7,45.8v-4.4h0.7v1.7c0.1-0.1,0.2-0.2,0.4-0.3c0.1-0.1,0.3-0.1,0.5-0.1c0.2,0,0.3,0,0.4,0.1
		c0.1,0.1,0.2,0.1,0.3,0.2c0.1,0.1,0.2,0.2,0.2,0.4c0,0.1,0.1,0.3,0.1,0.5v1.9h-0.7v-1.9c0-0.2,0-0.3-0.1-0.4
		c-0.1-0.1-0.2-0.2-0.4-0.2c-0.1,0-0.2,0-0.4,0.1c-0.1,0.1-0.2,0.1-0.3,0.2v2.2H124.7z"/>
	<path class="st2" d="M128.4,45.8v-3.1h0.4c0.1,0,0.2,0,0.2,0.1l0.1,0.2c0.1-0.1,0.1-0.1,0.2-0.2c0.1-0.1,0.1-0.1,0.2-0.1
		c0.1,0,0.2-0.1,0.2-0.1s0.2,0,0.3,0c0.2,0,0.3,0,0.4,0.1c0.1,0.1,0.2,0.1,0.3,0.2c0.1,0.1,0.2,0.2,0.2,0.4c0,0.1,0.1,0.3,0.1,0.5
		v1.9h-0.7v-1.9c0-0.2,0-0.3-0.1-0.4c-0.1-0.1-0.2-0.2-0.4-0.2c-0.1,0-0.2,0-0.4,0.1c-0.1,0.1-0.2,0.1-0.3,0.2v2.2H128.4z"/>
	<path class="st2" d="M133.4,42.7c0.2,0,0.4,0,0.6,0.1c0.2,0.1,0.3,0.2,0.5,0.3s0.2,0.3,0.3,0.5c0.1,0.2,0.1,0.4,0.1,0.7
		c0,0.2,0,0.5-0.1,0.7c-0.1,0.2-0.2,0.4-0.3,0.5s-0.3,0.2-0.5,0.3s-0.4,0.1-0.6,0.1c-0.2,0-0.4,0-0.6-0.1c-0.2-0.1-0.3-0.2-0.5-0.3
		c-0.1-0.1-0.2-0.3-0.3-0.5s-0.1-0.4-0.1-0.7c0-0.2,0-0.5,0.1-0.7s0.2-0.4,0.3-0.5c0.1-0.1,0.3-0.2,0.5-0.3
		C132.9,42.8,133.1,42.7,133.4,42.7z M133.4,45.3c0.3,0,0.4-0.1,0.6-0.3s0.2-0.4,0.2-0.8s-0.1-0.6-0.2-0.8c-0.1-0.2-0.3-0.3-0.6-0.3
		c-0.3,0-0.4,0.1-0.6,0.3s-0.2,0.4-0.2,0.8s0.1,0.6,0.2,0.7C132.9,45.2,133.1,45.3,133.4,45.3z"/>
	<path class="st2" d="M136.5,41.4v4.4h-0.7v-4.4H136.5z"/>
	<path class="st2" d="M138.9,42.7c0.2,0,0.4,0,0.6,0.1c0.2,0.1,0.3,0.2,0.5,0.3s0.2,0.3,0.3,0.5c0.1,0.2,0.1,0.4,0.1,0.7
		c0,0.2,0,0.5-0.1,0.7c-0.1,0.2-0.2,0.4-0.3,0.5s-0.3,0.2-0.5,0.3s-0.4,0.1-0.6,0.1c-0.2,0-0.4,0-0.6-0.1s-0.3-0.2-0.5-0.3
		s-0.2-0.3-0.3-0.5s-0.1-0.4-0.1-0.7c0-0.2,0-0.5,0.1-0.7s0.2-0.4,0.3-0.5s0.3-0.2,0.5-0.3C138.5,42.8,138.7,42.7,138.9,42.7z
		 M138.9,45.3c0.3,0,0.4-0.1,0.6-0.3s0.2-0.4,0.2-0.8s-0.1-0.6-0.2-0.8c-0.1-0.2-0.3-0.3-0.6-0.3c-0.3,0-0.4,0.1-0.6,0.3
		s-0.2,0.4-0.2,0.8s0.1,0.6,0.2,0.7C138.5,45.2,138.7,45.3,138.9,45.3z"/>
	<path class="st2" d="M142.4,42.7c0.1,0,0.3,0,0.4,0c0.1,0,0.2,0.1,0.3,0.1h0.9v0.3c0,0,0,0.1,0,0.1c0,0-0.1,0-0.1,0.1l-0.3,0.1
		c0,0.1,0,0.1,0,0.2s0,0.1,0,0.2c0,0.2,0,0.3-0.1,0.4c-0.1,0.1-0.1,0.2-0.2,0.3c-0.1,0.1-0.2,0.2-0.4,0.2c-0.1,0-0.3,0.1-0.5,0.1
		c-0.1,0-0.2,0-0.3,0c-0.1,0.1-0.1,0.1-0.1,0.2c0,0.1,0,0.1,0.1,0.1s0.1,0,0.2,0.1c0.1,0,0.2,0,0.3,0s0.2,0,0.4,0
		c0.1,0,0.2,0,0.4,0.1c0.1,0,0.2,0.1,0.3,0.1c0.1,0.1,0.2,0.1,0.2,0.2c0.1,0.1,0.1,0.2,0.1,0.4c0,0.1,0,0.3-0.1,0.4
		s-0.2,0.2-0.3,0.3c-0.1,0.1-0.3,0.2-0.5,0.2c-0.2,0.1-0.4,0.1-0.6,0.1c-0.2,0-0.4,0-0.6-0.1c-0.2,0-0.3-0.1-0.4-0.2
		c-0.1-0.1-0.2-0.2-0.3-0.3c-0.1-0.1-0.1-0.2-0.1-0.3c0-0.1,0-0.3,0.1-0.4c0.1-0.1,0.2-0.2,0.4-0.2c-0.1,0-0.1-0.1-0.2-0.2
		c0-0.1-0.1-0.2-0.1-0.3c0,0,0-0.1,0-0.1c0,0,0-0.1,0.1-0.1c0,0,0.1-0.1,0.1-0.1s0.1-0.1,0.2-0.1c-0.2-0.1-0.3-0.2-0.4-0.3
		c-0.1-0.1-0.1-0.3-0.1-0.5c0-0.2,0-0.3,0.1-0.4s0.1-0.2,0.3-0.3c0.1-0.1,0.2-0.2,0.4-0.2C142,42.7,142.2,42.7,142.4,42.7z
		 M143.2,46c0-0.1,0-0.1-0.1-0.1c0,0-0.1-0.1-0.1-0.1s-0.1,0-0.2,0c-0.1,0-0.2,0-0.3,0c-0.1,0-0.2,0-0.3,0c-0.1,0-0.2,0-0.3,0
		c-0.1,0-0.2,0.1-0.2,0.2c0,0.1-0.1,0.1-0.1,0.2c0,0.1,0,0.1,0,0.2c0,0,0.1,0.1,0.1,0.1c0.1,0,0.1,0.1,0.2,0.1c0.1,0,0.2,0,0.3,0
		c0.1,0,0.3,0,0.4,0c0.1,0,0.2-0.1,0.2-0.1c0.1,0,0.1-0.1,0.1-0.1C143.2,46.1,143.2,46,143.2,46z M142.4,44.2c0.1,0,0.2,0,0.2,0
		c0.1,0,0.1-0.1,0.2-0.1c0,0,0.1-0.1,0.1-0.2c0-0.1,0-0.1,0-0.2c0-0.2,0-0.3-0.1-0.4c-0.1-0.1-0.2-0.1-0.4-0.1s-0.3,0-0.4,0.1
		c-0.1,0.1-0.1,0.2-0.1,0.4c0,0.1,0,0.1,0,0.2c0,0.1,0.1,0.1,0.1,0.2c0,0,0.1,0.1,0.2,0.1S142.3,44.2,142.4,44.2z"/>
	<path class="st2" d="M145.8,46.7c0,0.1-0.1,0.1-0.1,0.1c0,0-0.1,0-0.2,0H145l0.6-1.2l-1.2-2.8h0.6c0.1,0,0.1,0,0.1,0
		c0,0,0.1,0.1,0.1,0.1l0.7,1.6c0,0.1,0,0.1,0.1,0.2c0,0.1,0,0.1,0,0.2c0-0.1,0-0.1,0.1-0.2c0-0.1,0-0.1,0.1-0.2l0.6-1.6
		c0,0,0-0.1,0.1-0.1s0.1,0,0.1,0h0.6L145.8,46.7z"/>
	<path class="st2" d="M151.2,41.5c0.2,0,0.3,0,0.5,0.1c0.1,0.1,0.3,0.1,0.4,0.2c0.1,0.1,0.2,0.2,0.2,0.3c0.1,0.1,0.1,0.2,0.1,0.4
		l-0.5,0.1c0,0,0,0,0,0s0,0,0,0c0,0-0.1,0-0.1,0c0,0,0,0-0.1-0.1c0-0.1,0-0.1-0.1-0.1c0,0-0.1-0.1-0.1-0.1c0,0-0.1-0.1-0.1-0.1
		s-0.1,0-0.2,0c-0.1,0-0.2,0-0.2,0c-0.1,0-0.1,0.1-0.2,0.1s-0.1,0.1-0.1,0.2c0,0.1,0,0.1,0,0.2c0,0.1,0,0.1,0,0.2
		c0,0.1,0,0.1,0.1,0.2c0,0.1,0.1,0.1,0.1,0.2c0,0.1,0.1,0.1,0.2,0.2l1.1,1.2c0.1-0.1,0.1-0.3,0.2-0.4c0-0.1,0.1-0.3,0.1-0.4
		c0,0,0-0.1,0-0.1c0,0,0.1,0,0.1,0h0.5c0,0.3,0,0.5-0.1,0.8c-0.1,0.2-0.2,0.5-0.3,0.7l0.9,0.9h-0.7c0,0-0.1,0-0.1,0c0,0-0.1,0-0.1,0
		c0,0-0.1,0-0.1,0c0,0,0,0-0.1-0.1l-0.3-0.3c-0.2,0.2-0.4,0.3-0.6,0.4c-0.2,0.1-0.5,0.1-0.8,0.1c-0.2,0-0.3,0-0.5-0.1
		c-0.2-0.1-0.3-0.1-0.4-0.2c-0.1-0.1-0.2-0.2-0.3-0.4c-0.1-0.2-0.1-0.3-0.1-0.5c0-0.1,0-0.3,0.1-0.4c0-0.1,0.1-0.2,0.2-0.3
		c0.1-0.1,0.2-0.2,0.3-0.3c0.1-0.1,0.2-0.2,0.3-0.2c-0.1-0.1-0.2-0.3-0.2-0.4c0-0.1-0.1-0.3-0.1-0.4c0-0.1,0-0.3,0.1-0.4
		s0.1-0.2,0.2-0.3c0.1-0.1,0.2-0.2,0.4-0.2S151,41.5,151.2,41.5z M150.1,44.6c0,0.1,0,0.2,0.1,0.3c0,0.1,0.1,0.2,0.2,0.2
		s0.1,0.1,0.2,0.1c0.1,0,0.2,0,0.3,0c0.2,0,0.3,0,0.5-0.1s0.3-0.1,0.4-0.2l-1.1-1.2c-0.2,0.1-0.3,0.2-0.3,0.3S150.1,44.4,150.1,44.6
		z"/>
	<path class="st2" d="M156.5,45.8h-0.8v-4.3h0.8V45.8z"/>
	<path class="st2" d="M160.8,41.5v0.7h-1.3v3.6h-0.8v-3.6h-1.3v-0.7H160.8z"/>
	<path class="st2" d="M167.2,43.7c0,0.3-0.1,0.6-0.2,0.9c-0.1,0.3-0.3,0.5-0.4,0.7s-0.4,0.3-0.7,0.5c-0.3,0.1-0.6,0.2-0.9,0.2
		s-0.6-0.1-0.9-0.2c-0.3-0.1-0.5-0.3-0.7-0.5s-0.3-0.4-0.4-0.7c-0.1-0.3-0.2-0.6-0.2-0.9c0-0.3,0.1-0.6,0.2-0.9
		c0.1-0.3,0.3-0.5,0.4-0.7s0.4-0.3,0.7-0.5c0.3-0.1,0.6-0.2,0.9-0.2s0.6,0.1,0.9,0.2s0.5,0.3,0.7,0.5s0.3,0.4,0.4,0.7
		C167.1,43.1,167.2,43.4,167.2,43.7z M166.3,43.7c0-0.2,0-0.4-0.1-0.6s-0.2-0.3-0.3-0.5s-0.3-0.2-0.4-0.3c-0.2-0.1-0.4-0.1-0.6-0.1
		c-0.2,0-0.4,0-0.6,0.1c-0.2,0.1-0.3,0.2-0.4,0.3s-0.2,0.3-0.3,0.5s-0.1,0.4-0.1,0.6c0,0.2,0,0.4,0.1,0.6s0.2,0.3,0.3,0.5
		s0.3,0.2,0.4,0.3c0.2,0.1,0.4,0.1,0.6,0.1c0.2,0,0.4,0,0.6-0.1c0.2-0.1,0.3-0.2,0.4-0.3s0.2-0.3,0.3-0.5S166.3,43.9,166.3,43.7z"/>
	<path class="st2" d="M168,46.8v-4h0.4c0,0,0.1,0,0.1,0c0,0,0.1,0.1,0.1,0.1l0.1,0.3c0.1-0.1,0.3-0.3,0.4-0.3
		c0.2-0.1,0.3-0.1,0.6-0.1c0.2,0,0.3,0,0.5,0.1s0.3,0.2,0.4,0.3c0.1,0.1,0.2,0.3,0.2,0.5s0.1,0.4,0.1,0.7c0,0.2,0,0.4-0.1,0.6
		s-0.1,0.4-0.3,0.5c-0.1,0.1-0.3,0.3-0.4,0.3c-0.2,0.1-0.3,0.1-0.5,0.1c-0.2,0-0.3,0-0.4-0.1s-0.2-0.1-0.3-0.2v1.2H168z M169.5,43.3
		c-0.2,0-0.3,0-0.4,0.1c-0.1,0.1-0.2,0.2-0.3,0.3V45c0.1,0.1,0.2,0.2,0.3,0.2c0.1,0,0.2,0.1,0.3,0.1c0.1,0,0.2,0,0.3-0.1
		c0.1,0,0.2-0.1,0.2-0.2s0.1-0.2,0.1-0.3c0-0.1,0.1-0.3,0.1-0.5c0-0.2,0-0.3,0-0.5c0-0.1-0.1-0.2-0.1-0.3s-0.1-0.1-0.2-0.2
		C169.7,43.3,169.6,43.3,169.5,43.3z"/>
	<path class="st2" d="M173,42.7c0.2,0,0.4,0,0.5,0.1c0.2,0.1,0.3,0.2,0.4,0.3s0.2,0.3,0.3,0.4c0.1,0.2,0.1,0.4,0.1,0.6
		c0,0.1,0,0.1,0,0.1c0,0,0,0.1,0,0.1c0,0,0,0-0.1,0c0,0,0,0-0.1,0h-1.9c0,0.3,0.1,0.5,0.3,0.7c0.1,0.1,0.3,0.2,0.6,0.2
		c0.1,0,0.2,0,0.3,0c0.1,0,0.2-0.1,0.2-0.1c0.1,0,0.1-0.1,0.2-0.1c0,0,0.1,0,0.1,0c0,0,0.1,0,0.1,0c0,0,0,0,0.1,0.1l0.2,0.3
		c-0.1,0.1-0.2,0.2-0.3,0.2c-0.1,0.1-0.2,0.1-0.3,0.2c-0.1,0-0.2,0.1-0.3,0.1c-0.1,0-0.2,0-0.3,0c-0.2,0-0.4,0-0.6-0.1
		c-0.2-0.1-0.3-0.2-0.5-0.3c-0.1-0.1-0.2-0.3-0.3-0.5c-0.1-0.2-0.1-0.4-0.1-0.7c0-0.2,0-0.4,0.1-0.6c0.1-0.2,0.2-0.3,0.3-0.5
		s0.3-0.2,0.5-0.3C172.5,42.8,172.7,42.7,173,42.7z M173,43.3c-0.2,0-0.4,0.1-0.5,0.2s-0.2,0.3-0.2,0.5h1.4c0-0.1,0-0.2,0-0.3
		c0-0.1-0.1-0.2-0.1-0.2c-0.1-0.1-0.1-0.1-0.2-0.2C173.2,43.3,173.1,43.3,173,43.3z"/>
	<path class="st2" d="M175.2,45.8v-3.1h0.4c0.1,0,0.1,0,0.2,0c0,0,0,0.1,0.1,0.1l0,0.4c0.1-0.2,0.2-0.3,0.4-0.4
		c0.1-0.1,0.3-0.2,0.5-0.2c0.2,0,0.3,0,0.4,0.1l-0.1,0.6c0,0,0,0.1,0,0.1c0,0,0,0-0.1,0c0,0-0.1,0-0.1,0s-0.1,0-0.2,0
		c-0.2,0-0.3,0-0.4,0.1c-0.1,0.1-0.2,0.2-0.3,0.4v1.9H175.2z"/>
	<path class="st2" d="M180.2,45.8h-0.3c-0.1,0-0.1,0-0.2,0c0,0-0.1-0.1-0.1-0.1l-0.1-0.2c-0.1,0.1-0.2,0.1-0.2,0.2
		c-0.1,0.1-0.2,0.1-0.2,0.1c-0.1,0-0.2,0.1-0.3,0.1c-0.1,0-0.2,0-0.3,0c-0.1,0-0.2,0-0.4-0.1c-0.1,0-0.2-0.1-0.3-0.2
		s-0.1-0.2-0.2-0.3c0-0.1-0.1-0.2-0.1-0.4c0-0.1,0-0.2,0.1-0.3s0.2-0.2,0.3-0.3c0.1-0.1,0.3-0.2,0.6-0.2c0.2-0.1,0.5-0.1,0.9-0.1
		v-0.2c0-0.2,0-0.4-0.1-0.5c-0.1-0.1-0.2-0.1-0.4-0.1c-0.1,0-0.2,0-0.3,0c-0.1,0-0.1,0.1-0.2,0.1c-0.1,0-0.1,0.1-0.2,0.1
		c0,0-0.1,0-0.2,0c0,0-0.1,0-0.1,0c0,0-0.1-0.1-0.1-0.1l-0.1-0.2c0.4-0.3,0.8-0.5,1.3-0.5c0.2,0,0.3,0,0.5,0.1
		c0.1,0.1,0.3,0.1,0.4,0.2c0.1,0.1,0.2,0.2,0.2,0.4c0.1,0.1,0.1,0.3,0.1,0.5V45.8z M178.8,45.4c0.1,0,0.1,0,0.2,0s0.1,0,0.2-0.1
		c0.1,0,0.1-0.1,0.2-0.1s0.1-0.1,0.2-0.1v-0.5c-0.2,0-0.4,0-0.5,0c-0.1,0-0.3,0.1-0.3,0.1c-0.1,0-0.1,0.1-0.2,0.1
		c0,0.1-0.1,0.1-0.1,0.2c0,0.1,0,0.2,0.1,0.3S178.7,45.4,178.8,45.4z"/>
	<path class="st2" d="M182.2,45.9c-0.3,0-0.5-0.1-0.6-0.2c-0.1-0.2-0.2-0.4-0.2-0.6v-1.7h-0.3c0,0-0.1,0-0.1,0c0,0,0-0.1,0-0.1v-0.3
		l0.5-0.1l0.2-0.8c0,0,0-0.1,0.1-0.1c0,0,0.1,0,0.1,0h0.4v1h0.8v0.5h-0.8V45c0,0.1,0,0.2,0.1,0.2c0,0.1,0.1,0.1,0.2,0.1
		c0,0,0.1,0,0.1,0c0,0,0.1,0,0.1,0c0,0,0,0,0.1,0c0,0,0,0,0.1,0c0,0,0,0,0.1,0c0,0,0,0,0,0l0.2,0.4c-0.1,0.1-0.2,0.2-0.4,0.2
		C182.5,45.9,182.4,45.9,182.2,45.9z"/>
	<path class="st2" d="M184.7,41.9c0,0.1,0,0.1,0,0.2c0,0.1-0.1,0.1-0.1,0.1c0,0-0.1,0.1-0.2,0.1c-0.1,0-0.1,0-0.2,0
		c-0.1,0-0.1,0-0.2,0c-0.1,0-0.1-0.1-0.1-0.1c0,0-0.1-0.1-0.1-0.1c0-0.1,0-0.1,0-0.2c0-0.1,0-0.1,0-0.2c0-0.1,0.1-0.1,0.1-0.1
		c0,0,0.1-0.1,0.1-0.1c0.1,0,0.1,0,0.2,0c0.1,0,0.1,0,0.2,0c0.1,0,0.1,0.1,0.2,0.1c0,0,0.1,0.1,0.1,0.1
		C184.7,41.8,184.7,41.8,184.7,41.9z M184.6,42.8v3.1h-0.7v-3.1H184.6z"/>
	<path class="st2" d="M187,42.7c0.2,0,0.4,0,0.6,0.1c0.2,0.1,0.3,0.2,0.5,0.3s0.2,0.3,0.3,0.5c0.1,0.2,0.1,0.4,0.1,0.7
		c0,0.2,0,0.5-0.1,0.7c-0.1,0.2-0.2,0.4-0.3,0.5s-0.3,0.2-0.5,0.3s-0.4,0.1-0.6,0.1c-0.2,0-0.4,0-0.6-0.1s-0.3-0.2-0.5-0.3
		s-0.2-0.3-0.3-0.5s-0.1-0.4-0.1-0.7c0-0.2,0-0.5,0.1-0.7s0.2-0.4,0.3-0.5s0.3-0.2,0.5-0.3C186.6,42.8,186.8,42.7,187,42.7z
		 M187,45.3c0.3,0,0.4-0.1,0.6-0.3s0.2-0.4,0.2-0.8s-0.1-0.6-0.2-0.8c-0.1-0.2-0.3-0.3-0.6-0.3c-0.3,0-0.4,0.1-0.6,0.3
		s-0.2,0.4-0.2,0.8s0.1,0.6,0.2,0.7C186.6,45.2,186.8,45.3,187,45.3z"/>
	<path class="st2" d="M189.4,45.8v-3.1h0.4c0.1,0,0.2,0,0.2,0.1l0.1,0.2c0.1-0.1,0.1-0.1,0.2-0.2c0.1-0.1,0.1-0.1,0.2-0.1
		c0.1,0,0.2-0.1,0.2-0.1c0.1,0,0.2,0,0.3,0c0.2,0,0.3,0,0.4,0.1c0.1,0.1,0.2,0.1,0.3,0.2c0.1,0.1,0.2,0.2,0.2,0.4
		c0,0.1,0.1,0.3,0.1,0.5v1.9h-0.7v-1.9c0-0.2,0-0.3-0.1-0.4c-0.1-0.1-0.2-0.2-0.4-0.2c-0.1,0-0.2,0-0.4,0.1
		c-0.1,0.1-0.2,0.1-0.3,0.2v2.2H189.4z"/>
	<path class="st2" d="M194.9,43.4C194.9,43.4,194.8,43.4,194.9,43.4c-0.1,0.1-0.1,0.1-0.1,0.1c0,0-0.1,0-0.1,0c0,0-0.1,0-0.1-0.1
		s-0.1,0-0.2-0.1c-0.1,0-0.1,0-0.2,0c-0.1,0-0.3,0-0.3,0.1c-0.1,0.1-0.1,0.1-0.1,0.2c0,0.1,0,0.1,0.1,0.2c0,0,0.1,0.1,0.2,0.1
		c0.1,0,0.2,0.1,0.2,0.1c0.1,0,0.2,0.1,0.3,0.1c0.1,0,0.2,0.1,0.3,0.1c0.1,0,0.2,0.1,0.2,0.2s0.1,0.1,0.2,0.2c0,0.1,0.1,0.2,0.1,0.3
		c0,0.1,0,0.3-0.1,0.4s-0.1,0.2-0.2,0.3c-0.1,0.1-0.2,0.2-0.4,0.2c-0.2,0.1-0.3,0.1-0.5,0.1c-0.1,0-0.2,0-0.3,0
		c-0.1,0-0.2,0-0.3-0.1c-0.1,0-0.2-0.1-0.3-0.1c-0.1,0-0.1-0.1-0.2-0.1l0.2-0.3c0,0,0-0.1,0.1-0.1c0,0,0.1,0,0.1,0c0,0,0.1,0,0.1,0
		c0,0,0.1,0.1,0.1,0.1c0.1,0,0.1,0.1,0.2,0.1c0.1,0,0.2,0,0.3,0c0.1,0,0.2,0,0.2,0c0.1,0,0.1,0,0.2-0.1c0,0,0.1-0.1,0.1-0.1
		c0,0,0-0.1,0-0.1c0-0.1,0-0.1-0.1-0.2c0,0-0.1-0.1-0.2-0.1c-0.1,0-0.2-0.1-0.2-0.1c-0.1,0-0.2-0.1-0.3-0.1c-0.1,0-0.2-0.1-0.3-0.1
		c-0.1,0-0.2-0.1-0.2-0.2S193,44.1,193,44c0-0.1-0.1-0.2-0.1-0.3c0-0.1,0-0.2,0.1-0.4c0-0.1,0.1-0.2,0.2-0.3
		c0.1-0.1,0.2-0.2,0.4-0.2c0.1,0,0.3-0.1,0.5-0.1c0.2,0,0.4,0,0.6,0.1s0.3,0.2,0.4,0.3L194.9,43.4z"/>
</g>
</svg>
