<?xml version="1.0" encoding="utf-8"?>
<!-- Generator: Adobe Illustrator 21.0.0, SVG Export Plug-In . SVG Version: 6.00 Build 0)  -->
<svg version="1.1" id="Layer_1" xmlns="http://www.w3.org/2000/svg" xmlns:xlink="http://www.w3.org/1999/xlink" x="0px" y="0px"
	 width="186.2px" height="200px" viewBox="0 0 186.2 200" style="enable-background:new 0 0 186.2 200;" xml:space="preserve">
<style type="text/css">
	.st0{fill:#7B878D;}
</style>
<g>
	<polygon class="st0" points="76.1,105.4 93.1,105.4 93.1,105.4 93.1,105.4 110.1,105.4 93.1,64.5 	"/>
	<path class="st0" d="M93.1,0L93.1,0L93.1,0L0,33.2l14.2,123.1L93.1,200l0,0l0,0l78.9-43.7l14.2-123.1L93.1,0z M151.2,152.6h-21.7
		l0,0l-11.7-29.2H93.1l0,0l0,0H68.4l-11.7,29.2l0,0H35l0,0L93.1,22.1l0,0l0,0l0,0l0,0L151.2,152.6L151.2,152.6z"/>
</g>
</svg>
