<?xml version="1.0" encoding="utf-8"?>
<!-- Generator: Adobe Illustrator 21.0.0, SVG Export Plug-In . SVG Version: 6.00 Build 0)  -->
<svg version="1.1" id="Layer_1" xmlns="http://www.w3.org/2000/svg" xmlns:xlink="http://www.w3.org/1999/xlink" x="0px" y="0px"
	 width="2500px" height="2500px" viewBox="0 0 2500 2500" style="enable-background:new 0 0 2500 2500;" xml:space="preserve">
<style type="text/css">
	.st0{fill:none;}
	.st1{fill:#7B878D;}
</style>
<path class="st0" d="M1693.9,1184.3c67.8-32.5,119.1-74.2,153.7-125.1s51.9-114.5,51.9-190.8c0-70.7-11.7-130-35-178.1
	c-23.3-48-56.2-86.6-98.6-115.5c-42.4-29-93.3-49.8-152.6-62.5c-59.4-12.7-125.1-19.1-197.2-19.1H703.9v1513.7h733.5
	c67.8,0,133.9-8.5,198.2-25.4s121.5-43.1,171.7-78.4s90.1-80.9,119.8-136.7c29.7-55.8,44.5-121.9,44.5-198.2
	c0-94.7-23-175.6-68.9-242.7C1856.8,1258.1,1787.2,1211.1,1693.9,1184.3z M1036.7,751.8h311.6c29.7,0,58.3,2.5,85.9,7.4
	s51.9,13.8,73.1,26.5s38.2,30.4,50.9,53c12.7,22.6,19.1,51.6,19.1,86.9c0,63.6-19.1,109.5-57.2,137.8
	c-38.2,28.3-86.9,42.4-146.3,42.4h-337.1V751.8z M1618.6,1646.4c-13.4,25.4-31.4,45.6-54.1,60.4c-22.6,14.8-48.8,25.4-78.4,31.8
	c-29.7,6.3-60.8,9.5-93.3,9.5h-356.2v-415.5h362.5c72.1,0,130,16.6,173.8,49.8c43.8,33.2,65.7,88.7,65.7,166.4
	C1638.8,1588.5,1632.1,1621,1618.6,1646.4z"/>
<path class="st0" d="M1694,1184.3c67.8-32.5,119.1-74.2,153.7-125.1s51.9-114.5,51.9-190.8c0-70.7-11.7-130-35-178.1
	c-23.3-48-56.2-86.5-98.6-115.5c-42.4-28.9-93.2-49.8-152.6-62.5s-125.1-19.1-197.2-19.1H703.9v1513.5h733.5
	c67.8,0,133.9-8.5,198.2-25.4s121.5-43.1,171.7-78.4s90.1-80.9,119.8-136.7c29.7-55.8,44.5-121.9,44.6-198.2
	c0-94.7-23-175.6-68.9-242.7C1856.9,1258.1,1787.3,1211.2,1694,1184.3z M1036.6,751.8h311.6c29.7,0,58.3,2.4,85.9,7.4
	c27.5,4.9,51.9,13.8,73.1,26.5s38.2,30.4,50.9,53c12.7,22.6,19.1,51.6,19.1,86.9c0,63.6-19,109.5-57.2,137.8
	c-38.1,28.3-86.9,42.4-146.3,42.4h-337.1V751.8z M1618.8,1646.5c-13.5,25.4-31.5,45.6-54.1,60.4s-48.7,25.4-78.4,31.8
	c-29.7,6.3-60.8,9.5-93.3,9.5h-356.2v-415.5h362.5c72,0,130,16.6,173.8,49.8s65.7,88.7,65.8,166.5
	C1638.9,1588.6,1632.3,1621.1,1618.8,1646.5z"/>
<g>
	<path class="st0" d="M1694,1184.3c67.8-32.5,119.1-74.2,153.7-125.1s51.9-114.5,51.9-190.8c0-70.7-11.7-130-35-178.1
		c-23.3-48-56.2-86.5-98.6-115.5c-42.4-28.9-93.2-49.8-152.6-62.5s-125.1-19.1-197.2-19.1H703.9v1513.5h733.5
		c67.8,0,133.9-8.5,198.2-25.4s121.5-43.1,171.7-78.4s90.1-80.9,119.8-136.7c29.7-55.8,44.5-121.9,44.6-198.2
		c0-94.7-23-175.6-68.9-242.7C1856.9,1258.1,1787.3,1211.2,1694,1184.3z M1036.6,751.8h311.6c29.7,0,58.3,2.4,85.9,7.4
		c27.5,4.9,51.9,13.8,73.1,26.5s38.2,30.4,50.9,53c12.7,22.6,19.1,51.6,19.1,86.9c0,63.6-19,109.5-57.2,137.8
		c-38.1,28.3-86.9,42.4-146.3,42.4h-337.1V751.8z M1618.8,1646.5c-13.5,25.4-31.5,45.6-54.1,60.4s-48.7,25.4-78.4,31.8
		c-29.7,6.3-60.8,9.5-93.3,9.5h-356.2v-415.5h362.5c72,0,130,16.6,173.8,49.8s65.7,88.7,65.8,166.5
		C1638.9,1588.6,1632.3,1621.1,1618.8,1646.5z"/>
	<path class="st1" d="M1520,1063.4c38.2-28.3,57.2-74.2,57.2-137.8c0-35.3-6.4-64.3-19.1-86.9c-12.7-22.6-29.7-40.3-50.9-53
		c-21.2-12.7-45.6-21.6-73.1-26.5c-27.6-5-56.2-7.4-85.9-7.4h-311.6v354h337.1C1433.1,1105.8,1481.9,1091.7,1520,1063.4z"/>
	<path class="st1" d="M1573.1,1382.5c-43.8-33.2-101.8-49.8-173.8-49.8h-362.5v415.5H1393c32.5,0,63.6-3.2,93.3-9.5
		c29.7-6.4,55.8-17,78.4-31.8s40.6-35,54.1-60.4s20.1-57.9,20.1-97.5C1638.8,1471.2,1616.9,1415.7,1573.1,1382.5z"/>
	<path class="st1" d="M2177.6,0H322.4C144.3,0,0,144.3,0,322.4v1855.3c0,178,144.3,322.4,322.4,322.4h1855.3
		c178.1,0,322.4-144.3,322.4-322.4V322.4C2500,144.3,2355.7,0,2177.6,0z M1927.1,1766.2c-29.7,55.8-69.6,101.4-119.8,136.7
		c-50.2,35.3-107.4,61.5-171.7,78.4s-130.4,25.4-198.2,25.4H703.9V493.2h712.3c72.1,0,137.8,6.4,197.2,19.1
		c59.4,12.7,110.2,33.6,152.6,62.5c42.4,29,75.3,67.5,98.6,115.5c23.3,48.1,35,107.4,35,178.1c0,76.3-17.3,139.9-51.9,190.8
		s-85.9,92.6-153.7,125.1c93.3,26.9,162.9,73.8,208.8,141c45.9,67.1,68.9,148,68.9,242.7C1971.6,1644.3,1956.8,1710.4,1927.1,1766.2
		z"/>
</g>
</svg>
