<?xml version="1.0" encoding="utf-8"?>
<!-- Generator: Adobe Illustrator 21.0.0, SVG Export Plug-In . SVG Version: 6.00 Build 0)  -->
<svg version="1.1" id="Layer_1" xmlns="http://www.w3.org/2000/svg" xmlns:xlink="http://www.w3.org/1999/xlink" x="0px" y="0px"
	 width="1361.8px" height="1536px" viewBox="0 0 1361.8 1536" style="enable-background:new 0 0 1361.8 1536;" xml:space="preserve"
	>
<style type="text/css">
	.st0{fill:#7B878D;}
	.st1{fill:none;}
</style>
<g id="Layer_x0020_1">
	<path class="st0" d="M1239.4,1371.2L1360.2,17.8l1.6-17.8H1344H17.8H0l1.6,17.8l120.7,1353.6l1,11.3l10.9,3L675.7,1536h8.7
		l543.1-150.6l10.9-3L1239.4,1371.2L1239.4,1371.2z M682,299.5h395.8L1065.8,438L675.4,611.5l6.6,31.2h366.4l-42.2,483.3
		l-325.5,90.3l-325.4-90.1l-20.7-231.4h134l10.7,117.3l1,11.4l11,2.9l186.5,49.5l8.5-0.1l184.3-51.2l11-3.1l1-11.3L901,793.5
		l1.5-17.7h-17.8H682H323.6l-12.2-139.1l377-161.4l26.8-11.5l-6.4-31.4H682H294.2l-11.8-133.1h397.9L682,299.5L682,299.5z"/>
</g>
<rect x="-343.1" y="-256" class="st1" width="2048" height="2048"/>
</svg>
