<?xml version="1.0" encoding="utf-8"?>
<!-- Generator: Adobe Illustrator 21.0.0, SVG Export Plug-In . SVG Version: 6.00 Build 0)  -->
<svg version="1.1" id="Layer_1" xmlns="http://www.w3.org/2000/svg" xmlns:xlink="http://www.w3.org/1999/xlink" x="0px" y="0px"
	width="500px" height="486.9px" viewBox="0 0 500 486.9" style="enable-background:new 0 0 500 486.9;" xml:space="preserve">
<style type="text/css">
	.st0{fill:#7B878D;}
</style>
<g>
	<path class="st0" d="M249.7,243.4c0-33.7,27.3-61,61-61h-61L249.7,243.4L249.7,243.4z"/>
	<path class="st0" d="M0,0v486.9h500V0H0z M371.8,243.4c0,33.7-27.3,61-61,61s-61-27.3-61-61v122.1c-0.1,33.8-27.4,61-61.1,61
		c-33.8-0.1-61-27.4-61-61.1c0.1-33.8,27.4-61,61.1-61c-33.7,0-61-27.3-61-61s27.3-61,61-61c-33.7,0-61-27.3-61-61s27.3-61,61-61
		h122c33.7,0,61,27.3,61,61s-27.3,61-61,61C344.4,182.4,371.8,209.7,371.8,243.4z"/>
</g>
</svg>