<?xml version="1.0" encoding="utf-8"?>
<!-- Generator: Adobe Illustrator 21.0.0, SVG Export Plug-In . SVG Version: 6.00 Build 0)  -->
<svg version="1.1" id="Layer_1" xmlns="http://www.w3.org/2000/svg" xmlns:xlink="http://www.w3.org/1999/xlink" x="0px" y="0px"
	 width="362.7px" height="411.5px" viewBox="0 0 362.7 411.5" style="enable-background:new 0 0 362.7 411.5;" xml:space="preserve"
	>
<style type="text/css">
	.st0{fill:#7B878D;}
</style>
<path class="st0" d="M0,0.1l33,370.3l148.1,41.1l148.5-41.2l33-370.2H0z M293.9,88l-2.1,23l-0.9,10.2h-0.1H181.4h-59.8h-4.4
	l4.2,46.5h36.1h24h93.2h12.2l-1.1,12.2L275,299.5l-0.7,7.7l-92.9,25.8v0l-0.2,0.1l-93-25.8l-6.4-71.3h21h24.6l3.2,36.2l50.6,13.7
	l0,0l50.6-13.7l5.3-58.9h-55.8h-24H79.7L68.6,88l-1.1-12.2h54h59.7h0.2H295L293.9,88z"/>
</svg>
