<?xml version="1.0" encoding="utf-8"?>
<!-- Generator: Adobe Illustrator 21.0.0, SVG Export Plug-In . SVG Version: 6.00 Build 0)  -->
<svg version="1.1" id="Layer_1" xmlns="http://www.w3.org/2000/svg" xmlns:xlink="http://www.w3.org/1999/xlink" x="0px" y="0px"
	 width="500px" height="486.9px" viewBox="0 0 500 486.9" style="enable-background:new 0 0 500 486.9;" xml:space="preserve">
<style type="text/css">
	.st0{fill:#7B878D;}
</style>
<path class="st0" d="M0,486.9h499.4V0H0V486.9z M327.1,173.6c0-1.7,0.6-2.5,2.5-2.5h32.7c1.7,0,2.5,0.6,2.5,2.5v164.2
	c0,1.7-0.4,2.5-2.5,2.5H330c-2.1,0-2.7-1-2.7-2.7v-164L327.1,173.6L327.1,173.6z M324.8,126.3c0-13.3,9.4-21.2,21.2-21.2
	c12.7,0,21.2,8.5,21.2,21.2c0,13.7-8.9,21.2-21.6,21.2C333.6,147.6,324.8,140.1,324.8,126.3z M231.2,242
	c-5.8-23.1-19.6-73.4-24.8-97.8H206c-4.4,24.3-15.4,65.5-24.1,97.8H231.2L231.2,242z M173.4,275.7L157,338.1c-0.4,1.7-1,2.1-3.1,2.1
	h-30.6c-2.1,0-2.5-0.6-2.1-3.1l59.1-206.8c1-3.7,1.7-7.1,2.1-17.3c0-1.5,0.6-2.1,1.7-2.1h43.7c1.5,0,2.1,0.4,2.5,2.1l66.2,224.5
	c0.4,1.7,0,2.7-1.7,2.7h-34.5c-1.7,0-2.7-0.4-3.1-1.9l-17.1-62.6H173.4L173.4,275.7z"/>
</svg>
