<?xml version="1.0" encoding="utf-8"?>
<!-- Generator: Adobe Illustrator 21.0.0, SVG Export Plug-In . SVG Version: 6.00 Build 0)  -->
<svg version="1.1" id="Layer_1" xmlns="http://www.w3.org/2000/svg" xmlns:xlink="http://www.w3.org/1999/xlink" x="0px" y="0px"
	 width="448px" height="471px" viewBox="0 0 448 471" style="enable-background:new 0 0 448 471;" xml:space="preserve">
<style type="text/css">
	.st0{fill:#7B878D;}
</style>
<path class="st0" d="M67,247c0,0-4.8-22.1,13.9-39.3c2.8,2.5,12.4,15,12.4,15s-8.9,9.1-6.1,21.5L67,247z"/>
<path class="st0" d="M293.5,242.2c-1.1,5.5-10.8,30.2,17.9,33.9c34.3,1.1,67.1-17.8,73.7-27.2c5.3-7.2,8.1-16.9-1.5-27.5
	c-17.7-23.1-43.9-30.9-50.7-78.1l-19.5,0.3c6,57.7,44.8,72.7,55.8,92.9c-8.5,11.6-45.6,20.6-56.8,19.8c-2.6-0.2-1.2-5.3-0.8-6.4
	C311.7,250,294.7,242.8,293.5,242.2z"/>
<path class="st0" d="M252.6,136.7l19.3-6.6c2.4,8.1,15.1,39.6,18.7,46.3c3.7,7.1,0.6,19.1-8.1,21.9s-24.6,5.2-44.9-4.8l8.3-18.4
	c0,0,14.7,7.1,24.2,4.9C268.2,176.3,252.6,136.7,252.6,136.7z"/>
<path class="st0" d="M253.3,93.3c-22.1-6.1-58.7-4.6-72.9,36.8c7.6,2.2,15.3,4.5,19.5,5.3c7.9-18.2,19.8-31.1,49.2-22.4
	C251.4,101.5,253.3,93.3,253.3,93.3z"/>
<path class="st0" d="M241.9,310.5l20.1-5.4c1.4,12.9,23.9,23,68.4,13.4c0,0,4.8,15.9,5.6,19.1C301.6,342.5,257.3,350.3,241.9,310.5z
	"/>
<path class="st0" d="M255.6,284.4c2-2.7,10.7-12.7,12.5-14.9c11.1,6.9,33,21.9,63.3,18.3c0.9,5.8,2.7,15.8,3.3,19.2
	C308.9,308.7,278.1,305.1,255.6,284.4z"/>
<path class="st0" d="M342.8,288.4c0,0,0.9,8.6,2,18.9c19.4-1.7,38.3-11.8,47-23.8l-14.8-12.6C365.4,282.6,353.3,285.9,342.8,288.4z"
	/>
<path class="st0" d="M439.3,377.4c-7.6-6.8-46.2-30.9-50.7-32.9c50-67,44.6-146.8,40.6-198.8c-9-82.5-63-145-160-145.5
	S97.1,20.7,79.9,84.7c-20.7,10-36.8,41.6-23,95.8c-29.1,19.2-42.1,98,33.9,113.8c0,0,11,41.7,19.3,52
	c-12.6,8.3-96.8,56.3-102.4,60.6c-5.5,4.3-9.4,14.2-5.5,22.8c3.9,8.7,16.5,40.5,16.5,40.5h413.5c0,0,10.7-43.2,13.9-71.1
	C447.7,384.9,447,384.2,439.3,377.4z M189.7,411.1l-21.1-15.5l21.1,3.8V411.1z M193.9,378.7c-70.3-2-77.6-72.9-81.9-87.3
	c5.5-3.1,12.7-12.9,15.3-20.5c-4.8-2.4-17.9-9-17.9-9c-2.2,5-5.7,10.5-9.4,12c-11.1,3.9-42-5.9-46.3-39.1
	c-4.4-33.2,25.1-48.7,39.8-47.6c14.6,1.1,15.5,30.2,14.9,44.6c3.3-1.3,40.9-20.5,40.9-20.5c0.7-5-0.7-13.8-2-18.8
	s-5.4-17.7-5.4-23.7c0-22,31.5-57,12-83.5c13-15,47-72.5,132.5-63.5s107.5,74.4,107.5,74.4c-4-2.7-27-7.8-41.1-2.7L356,113
	c2.4-0.7,18.2-5.4,36,4c17.8,9.4,16.2,38.1,16.2,38.1L393,128.1l-17.2,10.1c0,0,13.4,24.5,16.4,29.2c-18.3,2.3-25-4-25-4
	s-5,16-6,20.3c9.3,6.7,41.7,7.7,48.7,0c1.7,15.7,0.7,174-95,184.3c-64,3.7-124.7-22.3-135.7-71.7c0,0-18,2.7-19.3,3
	c5,39.3,38.7,61,50.3,67.3C206.2,366.4,195.6,373.1,193.9,378.7z M375.1,416.1c-0.7,10.2-1.1,14-11.1,17.4
	c-12,2.9-26.5,0.9-39.4-2.9c-2.3,0-35.5,0-35.5,0c-29.9,13.6-47.7,17.4-62.6,20.1c-14.9,2.7-14.9-11.8-14.9-15.8s-0.2-40.5,0-43.2
	c0.2-2.7,0.9-5.6,11.1-6.8c12.9-1.8,55.9,19.9,66.3,25.3c0,0,14-0.5,18.3-0.7c1.6-1.3,34.6-26.2,45-29.2c10.4-3,22.6,2.5,22.8,8.8
	C375.3,395.3,375.8,405.9,375.1,416.1z"/>
</svg>
