<?xml version="1.0" encoding="utf-8"?>
<!-- Generator: Adobe Illustrator 21.0.0, SVG Export Plug-In . SVG Version: 6.00 Build 0)  -->
<svg version="1.1" id="Layer_1" xmlns="http://www.w3.org/2000/svg" xmlns:xlink="http://www.w3.org/1999/xlink" x="0px" y="0px"
	 width="520.1px" height="118.2px" viewBox="0 0 520.1 118.2" style="enable-background:new 0 0 520.1 118.2;" xml:space="preserve"
	>
<style type="text/css">
	.st0{fill:#7B878D;}
</style>
<g id="Logotipo">
	<g>
		<path class="st0" d="M9.8,27.9l0.4-1.4c-0.2,0,1.8-3.2,1.6-3.2C-3.4,38.1-2,57.8,5.3,71.9C10.4,81.8,19.7,91,30.8,96
			c5.1,2.3,13,4.4,21.3,4.2c17.7-0.4,30-8.7,37-22.3l0.4-1.1C83.3,83,73.3,87.3,65.4,88.1C32.6,91.5-1.1,62.2,9.8,27.9z"/>
		<path class="st0" d="M53.3,32.9c4.3,7,12.6,13.1,25.5,10.3c3.3-0.7,10.6-6.2,11.9-9.2c-11.1,7.5-17.9,5-21.2,4.1
			c-0.7-0.2-2.4-0.9-3.9-1.9c-3.4-2.1-5.1-3-7.8-6.9c-1.5-2.1-2.9-5.5-3.4-7.5c-0.8-3.2-0.6-8.1,0.9-12.4c-5,4.5-5.8,13.1-4.1,18.8
			C51.5,29.1,52.7,31.9,53.3,32.9z"/>
		<path class="st0" d="M56.9,69.8c17.3,2.3,30.2-5,34.7-16.3c-5.1,5.4-13.7,9.3-22,9.2C51.2,62.6,30.4,46.1,32.8,23
			c0.2-2,1-5.1,3.1-9.1c-6.1,7.7-9.8,14.1-8.8,24.7C28.5,53.2,42.4,67.8,56.9,69.8z"/>
	</g>
</g>
<g id="Isotipo">
	<g>
		<path class="st0" d="M498.3,8.7L467,52.1l-2.8-11.3h-20.5c0,0,2,10.3,3.5,15.6c1.5,5.2,4.1,10.4,4.2,15.6c0.1,5.9-3,17.1-3,17.1
			l20-0.1c0,0,2.2-10.7,4.2-15.6c0.8-1.9,2.5-3.5,3.5-5C479.4,63.9,520,8.9,520,8.9L498.3,8.7z"/>
		<path class="st0" d="M456.9,20.3c-4.4-2.6-14.8-1.5-23.8-1.5h-13.8c-8.7,0-13.8-0.6-14.7,2.8c-2.7,10.3-14.2,67.3-14.2,67.3h18.4
			l12-52.4h9.9c11.5,0,32.6-0.3,32.6-0.3S461,22.8,456.9,20.3z"/>
		<path class="st0" d="M386.4,25.9c-3.9-5.4-11.8-7.3-17-7.8c-13.9-1.4-25.5,2.3-31.9,7.1c-1.9,1.4-3.5,2.6-5,4.2
			c-0.5,0.6-1.1,1.3-1.5,1.9s-0.9,1-1.3,1.6c-0.6,0.9-1.2,2.6-1.9,4.1c-0.6,1.2-1.1,2.6-1.6,3.7c-3.8,9.6-7.8,27.5-4.2,36.8
			c0.5,1.4,1.7,3.1,2.1,3.7c0.5,0.7,0.9,1.4,1.5,2c1.9,2.1,4.8,3.5,7.8,4.2c15.3,3.7,46,2.1,46,2.1l3.8-16.7c0,0-21.7,1-32.1-0.3
			c-1.6-0.2-5.9-0.4-8.1-2.4c-1.9-1.7-4.2-5.7-2.5-8.3c1.2-1.8,5.9-1.3,9.9-1.4c12.8-0.4,36.1,0,36.1,0s4.5-19.9,2.1-28.3
			C388,30.2,387.5,27.4,386.4,25.9z M371.2,45.9l-27.4-0.2c0,0-0.3-11.9,15.7-11.4c5.7,0.2,7.7,0.9,9.8,4.3
			C371.8,42.5,371.2,45.9,371.2,45.9z"/>
		<path class="st0" d="M304.1,18.8l-12.8,53.1c0,0-7.1,0-9.2,0c-6.8-0.2-9-0.4-10.6-3.5c-1.7-3.3-0.1-7.6,0.7-12
			c2.2-12.5,7.4-37.6,7.4-37.6L261.1,19c0,0-3.5,16.1-5.2,24c-2.4,11.1-7.4,27.6-2.1,37.5c5.4,10.3,18.2,8.5,32.6,8.5h20.5
			c5.1-23,15-70.2,15-70.2L304.1,18.8z"/>
		<path class="st0" d="M245.3,26.6c-1.1-7.9-6.3-16.5-11.9-20.1c-0.2-0.1-1.2-1-1.5-1.1c-4.2-2.4-10.9-4.5-15.6-5
			c-24.1-2.5-38.5,8.2-46.8,22.7c-3.3,5.7-5.4,11.9-7.1,18.4c-1.9,7.3-3.2,16.1-2.1,24.1c0.6,4.8,3.3,11.6,7.1,15.6
			c9.4,9.8,27.8,8.5,47.5,8.5c6,0,20.5-0.1,24.8-0.2c1.4,0,5.5-16.5,5.1-17c-0.3-0.4-5.2,0.2-10.7-0.3
			C239.5,57.8,247.3,41.4,245.3,26.6z M220.5,52.8c-1.8,6.3-3.5,12.7-5.7,18.4c-14.3-0.1-27.6,1.9-31.9-7.1
			c-2.4-5.1-1.3-11.9,0-18.4c1.8-8.7,3.5-15.1,8.5-20.5c3.9-4.2,13.6-9.4,24.1-5.7c3.5,1.2,8.8,7.1,9.2,13.5
			C225.1,38.9,222.4,46.1,220.5,52.8z"/>
		<path class="st0" d="M134.8,35.8h19.8c1.3-5.4,2.4-11.5,3.6-16.9c-7,0-12.9-0.1-19.2-0.1C137.5,23.9,136.3,29.8,134.8,35.8z"/>
		<path class="st0" d="M126.3,73.3c-2.9,13.8-3.3,28-18.4,26.2c-1.4,5.3-3.3,12.4-4.9,18.4c6.2,0.1,11.9,0.6,16.9,0.1
			c3.1-0.3,8.7-1.7,9.9-2.8c0.5-0.5,0.8-0.2,1.4-0.7c6.6-5.1,8.2-12.2,10.6-22c3.9-15.5,8.8-37.9,11.3-51.7H134
			C133.1,43.9,128,65.4,126.3,73.3z"/>
	</g>
</g>
</svg>
