<?xml version="1.0" encoding="utf-8"?>
<!-- Generator: Adobe Illustrator 21.0.0, SVG Export Plug-In . SVG Version: 6.00 Build 0)  -->
<svg version="1.1" id="Layer_1" xmlns="http://www.w3.org/2000/svg" xmlns:xlink="http://www.w3.org/1999/xlink" x="0px" y="0px"
	 width="496.9px" height="441.1px" viewBox="0 0 496.9 441.1" style="enable-background:new 0 0 496.9 441.1;" xml:space="preserve">
<style type="text/css">
	.st0{fill:#7B878D;}
</style>
<g>
	<path class="st0" d="M408.3,143L408.3,143c-5.3-1.8-10.6-3.5-16-5c0.9-3.6,1.7-7.2,2.5-10.9C406.9,68.5,399,21.2,372,5.7
		c-25.9-14.9-68.2,0.6-110.9,37.8c-4.2,3.7-8.3,7.4-12.3,11.3c-2.7-2.6-5.4-5.1-8.2-7.6C195.8,7.5,150.9-9.3,124,6.3
		c-25.8,15-33.5,59.4-22.6,114.9c1.1,5.5,2.3,11,3.7,16.4c-6.3,1.8-12.5,3.7-18.3,5.8c-52.5,18.3-86,47-86,76.7
		c0,30.7,36,61.5,90.6,80.2c4.4,1.5,8.9,2.9,13.4,4.2c-1.5,5.9-2.8,11.8-3.9,17.7c-10.4,54.6-2.3,98,23.5,112.8
		c26.6,15.3,71.3-0.4,114.8-38.4c3.4-3,6.9-6.2,10.3-9.5c4.4,4.2,8.8,8.3,13.4,12.2c42.1,36.3,83.7,50.9,109.5,36
		c26.6-15.4,35.2-62,24-118.6c-0.9-4.3-1.9-8.7-3-13.3c3.1-0.9,6.2-1.9,9.2-2.9c56.8-18.8,93.8-49.3,93.8-80.4
		C496.4,190.3,461.8,161.4,408.3,143z M275,59.5C311.6,27.6,345.8,15,361.4,24l0,0c16.6,9.6,23.1,48.2,12.6,98.8
		c-0.7,3.3-1.4,6.6-2.2,9.9c-20.6-4.7-42.9-8.3-66.3-10.5c-13.6-19.4-27.7-37-41.9-52.3C267.4,66.3,271.2,62.9,275,59.5z
		 M147.1,245.6c4.5,8.7,9.2,17.2,14.1,25.6c5,8.6,10.2,17.1,15.6,25.5c-16.2-1.8-31.5-4.3-45.7-7.3
		C135.4,275.2,140.8,260.5,147.1,245.6z M147.1,195.8c-6.2-14.6-11.4-29-15.8-42.9c14.1-3.2,29.2-5.8,44.9-7.7
		c-5.3,8.2-10.3,16.5-15.2,25C156.2,178.6,151.5,187.1,147.1,195.8z M158.3,220.7c6.5-13.6,13.6-26.9,21.1-40v0
		c7.5-13.1,15.5-25.8,24-38.3c14.7-1.1,29.9-1.7,45.1-1.7c15.3,0,30.5,0.6,45.2,1.7c8.4,12.4,16.4,25.1,23.9,38.1
		c7.6,13,14.7,26.3,21.4,39.8c-6.6,13.6-13.7,27-21.3,40.1l0,0c-7.5,13-15.4,25.8-23.8,38.4c-14.7,1.1-29.9,1.6-45.4,1.6
		c-15.4,0-30.4-0.5-44.9-1.4c-8.6-12.5-16.6-25.3-24.2-38.4C171.9,247.6,164.9,234.3,158.3,220.7z M336.1,271.1
		c5-8.6,9.8-17.4,14.4-26.3h0c6.6,15.1,12.2,29.7,16.6,43.6c-14.4,3.3-29.9,5.9-46.2,7.9C326.1,288,331.2,279.6,336.1,271.1z
		 M350.3,195.8c-4.6-8.7-9.3-17.3-14.3-25.8v0c-4.8-8.4-9.9-16.6-15.1-24.8c15.8,2,31,4.7,45.2,7.9
		C361.9,166.8,356.5,181.1,350.3,195.8z M248.8,85.1c9.8,10.6,19.5,22.4,29.2,35.2c-19.5-0.9-39.1-0.9-58.6,0
		C229,107.6,238.9,95.8,248.8,85.1z M134.6,24.7c16.6-9.6,53.3,4.1,91.9,38.4c2.5,2.2,5,4.5,7.4,6.9c-14.4,15.5-28.6,33.1-42.2,52.3
		c-23.3,2.2-45.6,5.6-66.1,10.3c-1.3-5.1-2.4-10.2-3.4-15.3v0C112.9,69.6,119,33.7,134.6,24.7z M110.4,284.2
		c-4.1-1.2-8.2-2.5-12.2-3.8c-24.2-8.3-44.1-19-57.8-30.7c-12.3-10.5-18.5-21-18.5-29.5c0-18,26.9-41.1,71.8-56.7
		c5.6-2,11.3-3.7,17.1-5.4c6.2,20.2,14.3,41.3,24.2,62.6C125,242.3,116.7,263.8,110.4,284.2z M225.2,380.7
		c-19.2,16.8-38.5,28.7-55.5,34.7l0,0c-15.3,5.4-27.4,5.5-34.8,1.3c-15.6-9-22.1-43.8-13.3-90.5c1.1-5.5,2.3-11,3.6-16.5
		c20.3,4.5,42.8,7.7,66.8,9.7c13.7,19.3,28.1,37,42.6,52.6C231.6,375,228.4,377.9,225.2,380.7z M249.4,356.8
		c-10-10.8-20-22.8-29.8-35.7c9.5,0.4,19.2,0.6,29,0.6c10.1,0,20.1-0.2,29.9-0.7C268.8,334.1,259.1,346.1,249.4,356.8z M378,386.2
		c-3,15.9-8.9,26.5-16.2,30.8c-15.6,9-49-2.7-85.1-33.7c-4.1-3.6-8.3-7.3-12.5-11.4c14-15.3,27.9-33,41.6-52.8
		c24-2.1,46.6-5.6,67.1-10.3c1,4.1,1.9,8.1,2.7,12v0C380.6,345.9,381.3,368.5,378,386.2z M396,280.5L396,280.5
		c-2.7,0.9-5.5,1.8-8.3,2.6c-6.3-19.9-14.7-41-25.1-62.8c9.9-21.3,18-42.1,24.1-61.9c5.1,1.5,10,3,14.7,4.7
		c45.9,15.8,73.9,39.1,73.9,57.1C475.2,239.3,445,264.2,396,280.5z"/>
	<circle class="st0" cx="248.6" cy="220.2" r="44.3"/>
</g>
</svg>
