<?xml version="1.0" encoding="utf-8"?>
<!-- Generator: Adobe Illustrator 21.0.0, SVG Export Plug-In . SVG Version: 6.00 Build 0)  -->
<svg version="1.1" id="Layer_1" xmlns="http://www.w3.org/2000/svg" xmlns:xlink="http://www.w3.org/1999/xlink" x="0px" y="0px"
	width="500px" height="467.7px" viewBox="0 0 500 467.7" style="enable-background:new 0 0 500 467.7;" xml:space="preserve">
<style type="text/css">
	.st0{fill:#7B878D;}
</style>
<path class="st0" d="M368.4,89.6L291.3,0l68.6,12.5L368.4,89.6z M367.3,155.9L249.4,467.7L131.6,155.9H367.3z M142,124.7L249.4,0
	l107.4,124.7H142z M120.1,102.3l-9.4-75.6L205.1,0C205.1,0,120.1,102.3,120.1,102.3z M91.5,124.7H0l82-75.6L91.5,124.7z M98.3,155.9
	l98.3,262.2L0,155.9H98.3z M400.5,155.9h98.3L302.2,418.1L400.5,155.9z M403.7,124.7L394.2,39l104.7,85.7H403.7z"/>
</svg>
