<?xml version="1.0" encoding="utf-8"?>
<!-- Generator: Adobe Illustrator 21.0.0, SVG Export Plug-In . SVG Version: 6.00 Build 0)  -->
<svg version="1.1" id="Layer_1" xmlns="http://www.w3.org/2000/svg" xmlns:xlink="http://www.w3.org/1999/xlink" x="0px" y="0px"
	 width="255.6px" height="89.2px" viewBox="0 0 255.6 89.2" style="enable-background:new 0 0 255.6 89.2;" xml:space="preserve">
<style type="text/css">
	.st0{fill:#FFFFFF;}
</style>
<g>
	<g>
		<path class="st0" d="M160.6,0h11.8c-0.7,3.3-1.3,5.8-2,8.8h-3.9c-0.8,0-2.6,0.6-3.2,2.1c-0.3,1.1-2.3,10.6-2.3,10.6h4
			c0,0-0.8,4.3-0.8,4.2c0,0-4.4,0.1-7.9,0.6c0,0-6.5,0.9-6.7,0.9c0,0,4.6-20.9,5.1-23.4c0.3-1.3,1.8-2.7,3.2-3.2
			C158.7,0.4,159.4,0,160.6,0L160.6,0z"/>
		<path class="st0" d="M176.1,0h9.6l-5.4,26.1c0,0-2.6,0-4.7-0.2c-2.1-0.1-5.2,0-5.2,0L176.1,0L176.1,0z"/>
		<path class="st0" d="M188.6,21.6h9.3c0,0-1.1,5.4-1.4,7.3c-3.1-0.5-5.8-1.5-9-1.7C187.9,25.3,188.3,23.4,188.6,21.6L188.6,21.6z"
			/>
		<path class="st0" d="M207.9,21.6h9.3c0,0-2.3,11.5-2.6,12.7c0,0-6.4-2.2-8.8-2.9C206.5,27.4,207.2,24.9,207.9,21.6L207.9,21.6z"/>
		<path class="st0" d="M220.6,21.6h10.4c1.1,2.4,2.5,5.2,3.5,7.9h0.4c1.2-2.6,2.9-5,4.2-7.8l16.5,0c-2.1,0.2-4,0.7-5.4,1.9
			c-2.5,2.1-10.6,14.8-10.6,16.4c0,1.1,3.5,8.2,3.5,8.2s-9.9-5.2-14.5-7.8C226.7,34,223.2,27.9,220.6,21.6L220.6,21.6z"/>
		<path class="st0" d="M157.4,39.1l-6.5,29.2c0,0-10,0-10.2,0l6.2-28.9L157.4,39.1L157.4,39.1z"/>
		<polygon class="st0" points="167.6,39.1 177.5,39.7 171.5,68.6 161.4,68.6 167.6,39.1 		"/>
		<path class="st0" d="M184.6,40.8c0,0,6.3,1.1,8.8,1.4l-1.3,6.5l-1.8,8.2c0,1.6,1.2,3.2,4.5,3.2c3.7,0,5-2.5,5.1-2.6
			c1.5-4,1.9-8.4,2.9-12.7c3,0.8,5.9,1.7,8.7,2.6c0,0-2.9,12.9-3.5,14.3c-0.9,2.5-3.5,5.9-6.5,6.6c0,0-3.4,0.3-3.8,0.3l-9.5-0.3
			c-3.4,0-7.7-4.3-7.7-7.4V59L184.6,40.8L184.6,40.8z"/>
		<path class="st0" d="M222.2,50.9c0,0,8.7,3.5,8.9,3.5l-7.7,13.8h-11C212.4,68.3,219,56.6,222.2,50.9L222.2,50.9z"/>
		<path class="st0" d="M235.9,56.4l8.4,3.3c0.6,0.4,4.7,1.7,5,2.4c0.3,0.8,2.8,6.2,2.8,6.2h-10.7L235.9,56.4L235.9,56.4z"/>
	</g>
	<g>
		<path class="st0" d="M9.7,0h15.9l-4.7,21.2c0.6-0.8,5.5-1.3,5.5-1.3c9.5-0.1,13.2,3.8,13.2,7.8c0,0.4,0,1-0.3,2.5
			c-1.7,10.3-3.9,20.5-7.1,30.1c0,0-7.8-0.3-8-0.3c-1.6-0.1-2.1-0.3-2.8-0.3c3.6-4.2,7.8-27.2,7.8-28.9c0-2.6-6.7-4.2-9.3-1.5
			c-1.9,2-2.9,8.7-4.1,14.2c-1.1,4.9-2.1,9.3-3.3,14.3c0,0-8.7-5.4-9-5.7C6.3,40.3,13.9,6.6,13.9,4.4C13.9,1.7,12.1,0.4,9.7,0L9.7,0
			z"/>
		<path class="st0" d="M101,0h14.4v0.7c0,2.4-6.1,29.2-8,36.9c-3.4,1.4-10.7,4-10.7,4c0.1-0.9,1.7-6.9,1.7-8c0,0,1.4-4.4-3.8-5.1
			h-2.4c-3.9,0-4.4,4.5-5,7.3C86.7,39.2,86,43,85,46.4c-3,1.5-7.6,3.2-10.7,4.6c0,0,3-14.4,4.8-23.7c1.9-10,22-5.5,22-5.5L104.7,5
			V2.6C103.8,1.4,102.2,0.8,101,0L101,0z"/>
		<path class="st0" d="M66.3,21.2c3.8,0,7.4,5.2,5.9,11.3c-0.1,0.3-3.9,20.7-3.9,20.7c-3.2,1-10.5,3.4-10.5,3.4s5.4-20.8,5.4-24.1
			v-1.9c0-0.5-0.7-2.1-4.9-2.1c-3.1,0-4.9,2.7-5,3.3C52.7,35,48.3,53.6,48,56c-0.2,1.7,0.9,2.6,1.1,2.8c-0.5,0.3-2.9,0.8-4.8,1
			c-1.9,0.3-5.7,0.6-5.7,0.6v-2.5c0-0.9,4.6-22.5,6.8-31c0.8-3,1.9-6.4,11.3-6.4C61,20.5,66.3,21.2,66.3,21.2L66.3,21.2z"/>
		<path class="st0" d="M116.3,21.6h9c0,0-1.9,9.7-2.3,11.3c-3.2,1-6.2,1.9-9.8,3L116.3,21.6L116.3,21.6z"/>
		<path class="st0" d="M135.6,21.6h8.8c0,0-1.1,5.8-1.4,6.8c-2.6,0.6-5.7,1.1-8.3,1.7h-1.1L135.6,21.6L135.6,21.6z"/>
		<path class="st0" d="M140.7,40c-3.4,14.2-5.9,29.8-10.2,43.5c-0.9,2.9-4,5.3-8.1,5.7c0,0-14.6,0-14.8,0c0.9-2.9,1.4-5.4,2-7.9l7,0
			c3.5,0.4,5.2-1.5,5.4-1.8c0.4-0.7,2.6-11,2.6-11h-8.1c-3.8,0-7.1-3.9-7.7-6.3c0,0-1-1.1,3-17.4c3.5-1.2,9.4-2,9.4-2
			s-2.7,11.5-2.8,11.6c-0.3,3.2-0.1,5,2.6,5.4h3.5c4.1,0,6-14.7,6.9-18.9L140.7,40L140.7,40z"/>
		<path class="st0" d="M105.8,46.2L101,68.3c0,0-12.8,0.2-13.2,0.2c0,0-8.8,0-12.2-2.8c-3.3-2.7-2.6-9-2.6-9l10.5-3.4
			c0,0-2.2,6.5,2.9,6.8l3.2-0.1c4.6-0.1,5.2-10.3,5.3-10.7C95,48.9,105.8,46.2,105.8,46.2L105.8,46.2z"/>
		<path class="st0" d="M3.2,54.7c3.5,1.7,12.1,6.4,19.6,6.8l8.4,0.3c0,0-2.4,5.4-9.5,6.2C16.7,68.6,0,68.4,0,68.4L3.2,54.7L3.2,54.7
			z"/>
		<path class="st0" d="M66.9,58.1c0,0-0.7,8.2-7.9,10.3c0,0-3.6,0.2-7.3,0.2c-13.4,0.2-12.9-6.2-12.9-6.2s8.2-0.1,14-0.9
			C58.8,60.7,65.4,58.6,66.9,58.1L66.9,58.1z"/>
	</g>
</g>
</svg>
