<?xml version="1.0" encoding="utf-8"?>
<!-- Generator: Adobe Illustrator 21.0.0, SVG Export Plug-In . SVG Version: 6.00 Build 0)  -->
<svg version="1.1" id="Layer_1" xmlns="http://www.w3.org/2000/svg" xmlns:xlink="http://www.w3.org/1999/xlink" x="0px" y="0px"
	 width="854.3px" height="179px" viewBox="0 0 854.3 179" style="enable-background:new 0 0 854.3 179;" xml:space="preserve">
<style type="text/css">
	.st0{display:none;}
	.st1{display:inline;}
	.st2{display:inline;fill:#FFFFFF;}
	.st3{font-family:'OpenSans-Light';}
	.st4{font-size:50.4849px;}
	.st5{fill:none;}
	.st6{fill:#FFFFFF;}
	.st7{enable-background:new    ;}
</style>
<g id="Layer_1_1_" class="st0">
	<g class="st1">
		<rect x="-72.7" y="-195" width="1384" height="1168"/>
	</g>
</g>
<g id="Layer_3" class="st0">
	<text transform="matrix(1 0 0 1 200.3099 23.7734)" class="st2 st3 st4">to the</text>
	<path class="st2" d="M217.1-18.6v-62.6h14.5v49.9h30.3v12.7C261.9-18.6,217.1-18.6,217.1-18.6z"/>
	<path class="st2" d="M261.1-50.4c0-3.8,0.7-7.5,2.1-11.2s3.5-7.1,6.2-10s6-5.3,9.9-7.1c3.9-1.8,8.3-2.7,13.2-2.7
		c5.9,0,11,1.3,15.3,3.8s7.5,5.8,9.7,9.9l-11.2,7.6c-0.7-1.6-1.6-3-2.7-4.1s-2.3-2-3.6-2.6c-1.3-0.7-2.6-1.1-4-1.4
		c-1.3-0.3-2.7-0.4-4-0.4c-2.8,0-5.2,0.6-7.2,1.7c-2.1,1.1-3.8,2.6-5.1,4.3c-1.4,1.8-2.4,3.7-3,6c-0.6,2.2-1,4.5-1,6.8
		c0,2.5,0.4,4.9,1.2,7.1c0.8,2.3,1.9,4.3,3.3,6.1s3.2,3.2,5.2,4.2s4.3,1.5,6.8,1.5c1.3,0,2.6-0.2,4-0.5s2.7-0.8,4-1.5
		s2.4-1.6,3.5-2.6c1-1.1,1.9-2.4,2.6-4l11.8,6.9c-0.9,2.3-2.3,4.4-4.2,6.2c-1.8,1.8-4,3.4-6.4,4.6s-5,2.2-7.7,2.8
		c-2.7,0.6-5.4,1-7.9,1c-4.5,0-8.7-0.9-12.5-2.8s-7-4.3-9.8-7.4c-2.7-3.1-4.8-6.5-6.3-10.4S261.1-46.4,261.1-50.4z"/>
	<path class="st2" d="M317.8-50c0-4.1,0.8-8.1,2.3-11.9c1.6-3.8,3.7-7.2,6.5-10.1s6.1-5.2,9.9-7c3.8-1.7,8-2.6,12.5-2.6
		c4.6,0,8.9,0.9,12.7,2.7c3.8,1.8,7.1,4.2,9.8,7.2c2.7,3,4.8,6.4,6.3,10.2s2.2,7.7,2.2,11.6c0,4.1-0.8,8.1-2.3,11.9
		s-3.7,7.2-6.5,10.1s-6.1,5.2-9.9,7c-3.8,1.8-8,2.6-12.5,2.6c-4.6,0-8.9-0.9-12.7-2.7c-3.8-1.8-7.1-4.2-9.8-7.2
		c-2.7-3-4.8-6.4-6.3-10.2C318.6-42,317.8-45.9,317.8-50z M332.5-49.8c0,2.4,0.4,4.8,1.1,7c0.7,2.3,1.8,4.3,3.1,6
		c1.4,1.8,3.1,3.2,5.2,4.2s4.4,1.6,7,1.6c2.8,0,5.2-0.6,7.2-1.7c2.1-1.1,3.8-2.6,5.1-4.3c1.3-1.8,2.4-3.8,3-6.1c0.7-2.3,1-4.6,1-6.9
		c0-2.4-0.4-4.7-1.1-7s-1.8-4.3-3.2-6c-1.4-1.7-3.1-3.1-5.2-4.1c-2-1-4.4-1.5-7-1.5c-2.8,0-5.1,0.5-7.2,1.6c-2,1.1-3.7,2.5-5.1,4.3
		s-2.4,3.8-3.1,6C332.9-54.5,332.5-52.2,332.5-49.8z"/>
	<polygon class="st2" points="446.8,-31.3 446.8,-44.6 471.5,-44.6 471.5,-56.5 446.8,-56.5 446.8,-68.5 475.5,-68.5 475.5,-81.2 
		446.7,-81.2 432.3,-81.2 431.2,-81.2 414.9,-48.5 398.6,-81.2 382.9,-81.2 382.9,-18.6 397.4,-18.6 397.4,-56 411,-28.8 
		418.7,-28.8 432.3,-56 432.3,-18.6 432.3,-18.6 446.7,-18.6 476.3,-18.6 476.3,-31.3 	"/>
	<path class="st2" d="M208.3-31.3h-29.5v-13.3h24.7v-11.9h-24.7v-12h28.8v-12.7h-43.3v60.7c-6.4-1-12.9-1.5-19.5-1.5
		c-2.9,0-5.7,0.1-8.5,0.3l23.8-59.4h-15.8l-15.7,46L121.9-52l11-29.1h-14l-6.4,19.8l-6.3-19.8H92.1L102.4-52l-5.9,16.8l-15.8-46H65
		l24.9,62.6h12.5l10-24.5l9.7,23.4c-7.9,1.8-15.2,4.6-21.8,8.4C87.9-4,78.2,6.4,71.5,19.8c-6.7,13.5-10,29.1-10,46.8
		c0,28.4,6.9,50.1,20.7,65.2c13.8,15,33.7,22.5,59.6,22.5c18.1,0,34.3-3.2,48.6-9.5v-39.2c-7.2,3-14.4,5.5-21.5,7.6
		s-14.5,3.2-22.1,3.2c-25.1,0-37.7-16.5-37.7-49.5c0-15.9,3.1-28.4,9.3-37.4c6.2-9,14.8-13.6,25.8-13.6c7.3,0,14.1,1,20.4,3.1
		c6.3,2,12.7,4.5,19,7.5L197.9-10c-7.9-3.7-15.9-6.6-24.1-8.6h34.5L208.3-31.3L208.3-31.3z"/>
	<path class="st2" d="M198.3,150.1V29.9h32.5v93.9h44.3V150h-76.8V150.1z"/>
	<g class="st1">
		<path class="st5" d="M426.8,54.5h-47.4V76h48.1c4.7,0,8.3-1,10.8-2.9s3.8-4.8,3.8-8.5C442,57.8,436.9,54.5,426.8,54.5z"/>
		<path class="st6" d="M472.7,97c-3.3-4.6-8.7-7.9-16.2-9.9v-0.8c5.6-1.4,10.2-4.4,13.6-9.2c3.5-4.8,5.2-10.5,5.2-17.3
			c0-10.2-4-17.8-11.9-22.6s-20-7.3-36.4-7.3h-47.7h-3.2h-29.3v70.4c0,8.7-1.5,14.9-4.5,18.7c-3,3.8-7.8,5.7-14.4,5.7
			c-6.2,0-10.9-1.9-14.1-5.8c-3.2-3.8-4.8-10-4.8-18.5V29.9h-32.6V103c0,15.7,4.4,27.8,13.2,36.2c8.8,8.4,21.4,12.6,37.8,12.6
			c16.8,0,29.6-4.3,38.5-12.9c8.9-8.6,13.4-20.8,13.4-36.5v-2.5h49c5.1,0,9.1,1.1,11.8,3.2c2.7,2.1,4.1,5.2,4.1,9.2
			c0,8.5-5.1,12.8-15.2,12.8h-52.7l-0.1,25.1H432c14.1,0,25.3-3.1,33.5-9.4c8.2-6.3,12.3-14.9,12.3-25.8
			C477.7,107.5,476,101.6,472.7,97z M438.2,73.1C435.7,75,432,76,427.4,76h-48.1V54.5h47.4c10.2,0,15.3,3.4,15.3,10.1
			C442,68.4,440.8,71.2,438.2,73.1z"/>
	</g>
</g>
<g id="Layer_4">
	<g class="st7">
		<path class="st6" d="M594.9,41.1c1.5,0,2.9-0.1,4-0.4v2c-1.2,0.4-2.5,0.6-4.1,0.6c-2.4,0-4.1-0.6-5.2-1.9c-1.1-1.3-1.7-3.3-1.7-6
			V18.1h-4v-1.4l4-1.1l1.2-6.1h1.3V16h7.9v2.1h-7.9v17c0,2.1,0.4,3.6,1.1,4.6C592.2,40.6,593.3,41.1,594.9,41.1z"/>
		<path class="st6" d="M626.9,29.3c0,4.4-1.1,7.8-3.2,10.2c-2.1,2.5-5,3.7-8.8,3.7c-2.3,0-4.4-0.6-6.2-1.7s-3.2-2.8-4.1-4.9
			c-1-2.1-1.4-4.6-1.4-7.3c0-4.4,1.1-7.8,3.2-10.2s5-3.7,8.7-3.7c3.7,0,6.6,1.2,8.7,3.7C625.8,21.6,626.9,25,626.9,29.3z
			 M605.7,29.3c0,3.7,0.8,6.6,2.4,8.6s3.9,3.1,6.9,3.1s5.2-1,6.9-3.1c1.6-2.1,2.4-4.9,2.4-8.6c0-3.7-0.8-6.6-2.5-8.6
			c-1.6-2-3.9-3.1-6.9-3.1s-5.2,1-6.8,3C606.5,22.8,605.7,25.6,605.7,29.3z"/>
		<path class="st6" d="M654.5,41.1c1.5,0,2.9-0.1,4-0.4v2c-1.2,0.4-2.5,0.6-4.1,0.6c-2.4,0-4.1-0.6-5.2-1.9c-1.1-1.3-1.7-3.3-1.7-6
			V18.1h-4v-1.4l4-1.1l1.2-6.1h1.3V16h7.9v2.1H650v17c0,2.1,0.4,3.6,1.1,4.6C651.8,40.6,652.9,41.1,654.5,41.1z"/>
		<path class="st6" d="M683,42.8V25.4c0-2.7-0.6-4.7-1.7-5.9s-2.9-1.8-5.3-1.8c-3.2,0-5.6,0.8-7,2.4c-1.5,1.6-2.2,4.2-2.2,7.9v14.8
			h-2.4V4.4h2.4v12.2l-0.1,3.4h0.2c1-1.6,2.3-2.8,3.8-3.5c1.5-0.7,3.4-1.1,5.7-1.1c6.1,0,9.1,3.3,9.1,9.8v17.5H683z"/>
		<path class="st6" d="M704.9,43.3c-3.9,0-6.9-1.2-9.1-3.6c-2.2-2.4-3.3-5.8-3.3-10.1c0-4.3,1.1-7.7,3.2-10.3
			c2.1-2.6,4.9-3.9,8.5-3.9c3.2,0,5.6,1.1,7.5,3.3s2.7,5.2,2.7,9v2h-19.3c0,3.7,0.9,6.5,2.6,8.4c1.7,1.9,4.1,2.9,7.2,2.9
			c1.5,0,2.9-0.1,4-0.3c1.2-0.2,2.6-0.7,4.4-1.4v2.2c-1.5,0.7-2.9,1.1-4.2,1.3S706.5,43.3,704.9,43.3z M704.2,17.6
			c-2.6,0-4.7,0.9-6.2,2.6c-1.6,1.7-2.5,4.2-2.7,7.4h16.6c0-3.1-0.7-5.5-2-7.3S706.6,17.6,704.2,17.6z"/>
	</g>
	<g class="st7">
		<path class="st6" d="M521.3,39c-11,0-19.6,4.5-25.8,13.6c-6.2,9-9.3,21.5-9.3,37.4c0,33,12.6,49.5,37.7,49.5
			c7.6,0,14.9-1.1,22.1-3.2c7.1-2.1,14.3-4.7,21.5-7.6v39.2c-14.3,6.3-30.5,9.5-48.6,9.5c-25.9,0-45.8-7.5-59.6-22.5
			c-13.8-15-20.7-36.7-20.7-65.2c0-17.8,3.3-33.4,10-46.8c6.7-13.5,16.3-23.8,28.9-31.1C490,4.6,504.8,0.9,521.8,0.9
			c18.5,0,36.3,4,53.2,12.1l-14.2,36.5c-6.3-3-12.7-5.5-19-7.5C535.4,40,528.6,39,521.3,39z"/>
	</g>
	<path class="st6" d="M0,66.8h15.7l15.8,46L37.4,96L27.1,66.9h14.1l6.3,19.8l6.4-19.8H68L56.9,96l6.7,16.8l15.7-46h15.8L70,129.4
		H57.7l-10.2-24.5l-10,24.5H25L0,66.8z"/>
	<path class="st6" d="M99.3,129.4V66.8h43.2v12.7h-28.8v12h24.7v11.9h-24.7v13.3h29.6v12.7L99.3,129.4L99.3,129.4z"/>
	<path class="st6" d="M389,129.4V66.8h43.2v12.7h-28.8v12h24.7v11.9h-24.7v13.3H433v12.7L389,129.4L389,129.4z"/>
	<path class="st6" d="M152.1,129.4V66.8h14.5v49.9h30.3v12.7L152.1,129.4L152.1,129.4z"/>
	<path class="st6" d="M196.1,97.6c0-3.8,0.7-7.5,2.1-11.2c1.4-3.7,3.5-7.1,6.2-10s6-5.3,9.9-7.1c3.9-1.8,8.3-2.7,13.2-2.7
		c5.9,0,11,1.3,15.3,3.8s7.5,5.8,9.7,9.9l-11.2,7.6c-0.7-1.6-1.6-3-2.7-4.1c-1.1-1.1-2.3-2-3.6-2.6c-1.3-0.7-2.6-1.1-4-1.4
		c-1.3-0.3-2.7-0.4-4-0.4c-2.8,0-5.2,0.6-7.2,1.7c-2.1,1.1-3.8,2.6-5.1,4.3c-1.4,1.8-2.4,3.7-3,6c-0.6,2.2-1,4.5-1,6.8
		c0,2.5,0.4,4.9,1.2,7.1c0.8,2.3,1.9,4.3,3.3,6.1c1.4,1.8,3.2,3.2,5.2,4.2s4.3,1.5,6.8,1.5c1.3,0,2.6-0.2,4-0.5s2.7-0.8,4-1.5
		s2.4-1.6,3.5-2.6c1-1.1,1.9-2.4,2.6-4l11.8,6.9c-0.9,2.3-2.3,4.4-4.2,6.2c-1.8,1.8-4,3.4-6.4,4.6s-5,2.2-7.7,2.8s-5.4,1-7.9,1
		c-4.5,0-8.7-0.9-12.5-2.8c-3.8-1.9-7-4.3-9.8-7.4c-2.7-3.1-4.8-6.5-6.3-10.4S196.1,101.6,196.1,97.6z"/>
	<path class="st6" d="M252.8,98c0-4.1,0.8-8.1,2.3-11.9c1.6-3.8,3.7-7.2,6.5-10.1s6.1-5.2,9.9-7c3.8-1.7,8-2.6,12.5-2.6
		c4.6,0,8.9,0.9,12.7,2.7c3.8,1.8,7.1,4.2,9.8,7.2c2.7,3,4.8,6.4,6.3,10.2c1.5,3.8,2.2,7.7,2.2,11.6c0,4.1-0.8,8.1-2.3,11.9
		s-3.7,7.2-6.5,10.1s-6.1,5.2-9.9,7s-8,2.6-12.5,2.6c-4.6,0-8.9-0.9-12.7-2.7c-3.8-1.8-7.1-4.2-9.8-7.2c-2.7-3-4.8-6.4-6.3-10.2
		C253.6,106,252.8,102.1,252.8,98z M267.5,98.2c0,2.4,0.4,4.8,1.1,7c0.7,2.3,1.8,4.3,3.1,6c1.4,1.8,3.1,3.2,5.2,4.2s4.4,1.6,7,1.6
		c2.8,0,5.2-0.6,7.2-1.7c2.1-1.1,3.8-2.6,5.1-4.3c1.3-1.8,2.4-3.8,3-6.1c0.7-2.3,1-4.6,1-6.9c0-2.4-0.4-4.7-1.1-7s-1.8-4.3-3.2-6
		c-1.4-1.7-3.1-3.1-5.2-4.1c-2-1-4.4-1.5-7-1.5c-2.8,0-5.1,0.5-7.2,1.6c-2,1.1-3.7,2.5-5.1,4.3s-2.4,3.8-3.1,6
		C267.9,93.5,267.5,95.8,267.5,98.2z"/>
	<polygon class="st6" points="381.7,66.8 366.2,66.8 349.9,99.5 333.6,66.8 317.9,66.8 317.9,129.4 332.4,129.4 332.4,92 346,119.2 
		353.7,119.2 367.3,92 367.3,129.4 367.3,129.4 381.7,129.4 	"/>
	<path class="st6" d="M574.3,173.1V52.9h32.5v93.9h44.3V173h-76.8V173.1z"/>
	<g>
		<path class="st5" d="M802.8,77.5h-47.4V99h48.1c4.7,0,8.3-1,10.8-2.9s3.8-4.8,3.8-8.5C818,80.8,812.9,77.5,802.8,77.5z"/>
		<path class="st6" d="M848.7,120c-3.3-4.6-8.7-7.9-16.2-9.9v-0.8c5.6-1.4,10.2-4.4,13.6-9.2c3.5-4.8,5.2-10.5,5.2-17.3
			c0-10.2-4-17.8-11.9-22.6s-20-7.3-36.4-7.3h-47.7h-3.2h-29.3v70.4c0,8.7-1.5,14.9-4.5,18.7s-7.8,5.7-14.4,5.7
			c-6.2,0-10.9-1.9-14.1-5.8c-3.2-3.8-4.8-10-4.8-18.5V52.9h-32.6V126c0,15.7,4.4,27.8,13.2,36.2s21.4,12.6,37.8,12.6
			c16.8,0,29.6-4.3,38.5-12.9c8.9-8.6,13.4-20.8,13.4-36.5v-2.5h49c5.1,0,9.1,1.1,11.8,3.2c2.7,2.1,4.1,5.2,4.1,9.2
			c0,8.5-5.1,12.8-15.2,12.8h-52.7l-0.1,25.1H808c14.1,0,25.3-3.1,33.5-9.4c8.2-6.3,12.3-14.9,12.3-25.8
			C853.7,130.5,852,124.6,848.7,120z M814.2,96.1C811.7,98,808,99,803.4,99h-48.1V77.5h47.4c10.2,0,15.3,3.4,15.3,10.1
			C818,91.4,816.8,94.2,814.2,96.1z"/>
	</g>
	<rect y="46" class="st6" width="451.3" height="4"/>
	<rect y="146" class="st6" width="457.3" height="4"/>
</g>
</svg>
