<?xml version="1.0" encoding="utf-8"?>
<!-- Generator: Adobe Illustrator 21.0.0, SVG Export Plug-In . SVG Version: 6.00 Build 0)  -->
<svg version="1.1" id="Layer_1" xmlns="http://www.w3.org/2000/svg" xmlns:xlink="http://www.w3.org/1999/xlink" x="0px" y="0px"
	width="86.68px" height="8.97px" viewBox="0 0 86.7 9" style="enable-background:new 0 0 86.7 9;" xml:space="preserve">
<style type="text/css">
	.st0{fill:#FFFFFF;}
</style>
<g>
	<path class="st0" d="M6.4,6.6c0,0,0.1,0,0.1,0c0,0,0.1,0,0.1,0.1l0.8,0.8C7.1,8,6.7,8.4,6.1,8.6C5.6,8.8,5,9,4.3,9
		C3.6,9,3,8.8,2.5,8.6C2,8.4,1.5,8.1,1.1,7.7C0.8,7.3,0.5,6.8,0.3,6.3C0.1,5.7,0,5.1,0,4.5c0-0.7,0.1-1.3,0.3-1.8
		c0.2-0.5,0.5-1,0.9-1.4c0.4-0.4,0.9-0.7,1.4-0.9C3.3,0.1,3.9,0,4.6,0c0.3,0,0.6,0,0.9,0.1s0.6,0.1,0.8,0.2C6.6,0.5,6.8,0.6,7,0.7
		C7.2,0.9,7.4,1,7.6,1.2L6.9,2.1c0,0.1-0.1,0.1-0.2,0.2c-0.1,0-0.1,0.1-0.3,0.1c-0.1,0-0.1,0-0.2,0c-0.1,0-0.1-0.1-0.2-0.1
		C6,2.1,5.9,2.1,5.8,2C5.8,2,5.7,1.9,5.5,1.9c-0.1,0-0.3-0.1-0.4-0.1c-0.2,0-0.3,0-0.6,0c-0.4,0-0.7,0.1-1,0.2C3.3,2,3,2.2,2.8,2.5
		C2.6,2.7,2.4,3,2.3,3.3C2.1,3.7,2.1,4.1,2.1,4.5c0,0.4,0.1,0.8,0.2,1.2C2.4,6,2.6,6.3,2.8,6.6C3,6.8,3.2,7,3.5,7.1
		c0.3,0.1,0.6,0.2,0.9,0.2c0.2,0,0.4,0,0.5,0c0.2,0,0.3,0,0.4-0.1c0.1,0,0.3-0.1,0.4-0.2c0.1-0.1,0.2-0.2,0.4-0.3
		c0,0,0.1-0.1,0.2-0.1C6.3,6.6,6.3,6.6,6.4,6.6z"/>
	<path class="st0" d="M17,4.5c0,0.6-0.1,1.2-0.3,1.8c-0.2,0.5-0.5,1-0.9,1.4c-0.4,0.4-0.9,0.7-1.4,0.9S13.2,9,12.5,9
		s-1.3-0.1-1.9-0.3s-1-0.5-1.4-0.9C8.8,7.3,8.5,6.8,8.3,6.3C8,5.7,7.9,5.1,7.9,4.5c0-0.6,0.1-1.2,0.3-1.8c0.2-0.5,0.5-1,0.9-1.4
		c0.4-0.4,0.9-0.7,1.4-0.9S11.8,0,12.5,0s1.3,0.1,1.9,0.3c0.6,0.2,1,0.5,1.4,0.9c0.4,0.4,0.7,0.9,0.9,1.4C16.9,3.3,17,3.9,17,4.5z
		 M14.9,4.5c0-0.4-0.1-0.8-0.2-1.2c-0.1-0.3-0.3-0.6-0.5-0.9c-0.2-0.2-0.5-0.4-0.8-0.6c-0.3-0.1-0.7-0.2-1-0.2c-0.4,0-0.7,0.1-1,0.2
		c-0.3,0.1-0.6,0.3-0.8,0.6c-0.2,0.2-0.4,0.5-0.5,0.9C10.1,3.7,10,4.1,10,4.5c0,0.4,0.1,0.8,0.2,1.2c0.1,0.3,0.3,0.6,0.5,0.9
		c0.2,0.2,0.5,0.4,0.8,0.5c0.3,0.1,0.7,0.2,1,0.2c0.4,0,0.7-0.1,1-0.2c0.3-0.1,0.6-0.3,0.8-0.5c0.2-0.2,0.4-0.5,0.5-0.9
		C14.9,5.3,14.9,4.9,14.9,4.5z"/>
	<path class="st0" d="M25.8,8.9h-1.6c-0.2,0-0.3,0-0.4-0.1c-0.1-0.1-0.2-0.2-0.2-0.3L23,6.9h-3.3l-0.5,1.5c0,0.1-0.1,0.2-0.2,0.3
		c-0.1,0.1-0.3,0.1-0.4,0.1h-1.6l3.4-8.7h2.1L25.8,8.9z M20.2,5.5h2.4l-0.8-2.4c-0.1-0.2-0.1-0.3-0.2-0.5c-0.1-0.2-0.1-0.4-0.2-0.7
		c-0.1,0.2-0.1,0.5-0.2,0.7C21.1,2.8,21,3,21,3.1L20.2,5.5z"/>
	<path class="st0" d="M32,6.6c0,0,0.1,0,0.1,0c0,0,0.1,0,0.1,0.1l0.8,0.8c-0.4,0.5-0.8,0.8-1.3,1C31.2,8.8,30.6,9,29.9,9
		c-0.7,0-1.3-0.1-1.8-0.3c-0.5-0.2-1-0.5-1.3-0.9c-0.4-0.4-0.6-0.9-0.8-1.4c-0.2-0.5-0.3-1.1-0.3-1.8c0-0.7,0.1-1.3,0.3-1.8
		c0.2-0.5,0.5-1,0.9-1.4c0.4-0.4,0.9-0.7,1.4-0.9C28.9,0.1,29.5,0,30.2,0c0.3,0,0.6,0,0.9,0.1s0.6,0.1,0.8,0.2
		c0.3,0.1,0.5,0.2,0.7,0.4C32.8,0.9,33,1,33.2,1.2l-0.7,0.9c0,0.1-0.1,0.1-0.2,0.2c-0.1,0-0.1,0.1-0.3,0.1c-0.1,0-0.1,0-0.2,0
		c-0.1,0-0.1-0.1-0.2-0.1c-0.1,0-0.2-0.1-0.2-0.1c-0.1-0.1-0.2-0.1-0.3-0.1c-0.1,0-0.3-0.1-0.4-0.1c-0.2,0-0.3,0-0.6,0
		c-0.4,0-0.7,0.1-1,0.2c-0.3,0.1-0.6,0.3-0.8,0.6C28.2,2.7,28,3,27.9,3.3c-0.1,0.3-0.2,0.7-0.2,1.2c0,0.4,0.1,0.8,0.2,1.2
		C28,6,28.2,6.3,28.4,6.6c0.2,0.2,0.5,0.4,0.7,0.5c0.3,0.1,0.6,0.2,0.9,0.2c0.2,0,0.4,0,0.5,0c0.2,0,0.3,0,0.4-0.1
		c0.1,0,0.3-0.1,0.4-0.2c0.1-0.1,0.2-0.2,0.4-0.3c0,0,0.1-0.1,0.2-0.1C31.9,6.6,31.9,6.6,32,6.6z"/>
	<path class="st0" d="M41.6,8.9h-2V5.2H36v3.7h-2V0.1h2v3.7h3.6V0.1h2V8.9z"/>
	<path class="st0" d="M45.3,8.9h-2V0.1h2V8.9z"/>
	<path class="st0" d="M48.2,0.1c0.1,0,0.1,0,0.2,0c0,0,0.1,0.1,0.1,0.1s0.1,0.1,0.1,0.2l4.2,5.2c0-0.2,0-0.3,0-0.5
		c0-0.2,0-0.3,0-0.4V0.1h1.8v8.7h-1.1c-0.2,0-0.3,0-0.4-0.1c-0.1,0-0.2-0.1-0.3-0.3l-4.1-5.2c0,0.2,0,0.3,0,0.4c0,0.1,0,0.3,0,0.4
		v4.7h-1.8V0.1H48C48.1,0.1,48.1,0.1,48.2,0.1z"/>
	<path class="st0" d="M60.1,7.4c0.3,0,0.5,0,0.7-0.1c0.2,0,0.4-0.1,0.6-0.2V5.8h-0.9c-0.1,0-0.2,0-0.3-0.1c-0.1-0.1-0.1-0.2-0.1-0.3
		V4.3h3.1V8c-0.2,0.2-0.5,0.3-0.7,0.4c-0.2,0.1-0.5,0.2-0.8,0.3c-0.3,0.1-0.6,0.1-0.9,0.2c-0.3,0-0.6,0.1-1,0.1
		c-0.6,0-1.2-0.1-1.8-0.3c-0.5-0.2-1-0.5-1.4-0.9c-0.4-0.4-0.7-0.9-0.9-1.4c-0.2-0.5-0.3-1.1-0.3-1.8c0-0.7,0.1-1.3,0.3-1.8
		s0.5-1,0.9-1.4c0.4-0.4,0.9-0.7,1.5-0.9C58.8,0.1,59.4,0,60.1,0c0.4,0,0.7,0,1,0.1c0.3,0.1,0.6,0.1,0.9,0.2s0.5,0.2,0.7,0.4
		C63,0.9,63.2,1,63.4,1.2l-0.6,0.9c-0.1,0.1-0.1,0.1-0.2,0.2c-0.1,0-0.2,0.1-0.3,0.1c-0.1,0-0.2,0-0.4-0.1c-0.2-0.1-0.3-0.2-0.5-0.2
		c-0.1-0.1-0.3-0.1-0.4-0.2c-0.1,0-0.3-0.1-0.5-0.1s-0.3,0-0.6,0c-0.4,0-0.7,0.1-1,0.2c-0.3,0.1-0.6,0.3-0.8,0.6S57.8,3,57.7,3.3
		c-0.1,0.3-0.2,0.7-0.2,1.1c0,0.5,0.1,0.9,0.2,1.2c0.1,0.4,0.3,0.7,0.5,0.9c0.2,0.2,0.5,0.4,0.8,0.6C59.4,7.3,59.7,7.4,60.1,7.4z"/>
	<path class="st0" d="M72.4,8.9h-0.5c-0.1,0-0.1,0-0.1,0c0,0-0.1-0.1-0.1-0.1l-1-2.5h-4.3l-1,2.5c0,0,0,0.1-0.1,0.1c0,0-0.1,0-0.1,0
		h-0.5l3.6-8.7h0.6L72.4,8.9z M66.5,5.7h3.9l-1.8-4.4c0-0.1-0.1-0.1-0.1-0.2c0-0.1-0.1-0.2-0.1-0.3c0,0.1-0.1,0.2-0.1,0.3
		c0,0.1-0.1,0.2-0.1,0.2L66.5,5.7z"/>
	<path class="st0" d="M74.6,5.3v3.5H74V0.1h2.3c1,0,1.8,0.2,2.3,0.7c0.5,0.4,0.8,1.1,0.8,1.9c0,0.4-0.1,0.7-0.2,1.1
		c-0.1,0.3-0.3,0.6-0.6,0.8c-0.3,0.2-0.6,0.4-1,0.5c-0.4,0.1-0.8,0.2-1.3,0.2H74.6z M74.6,4.8h1.6c0.4,0,0.7-0.1,1-0.2
		c0.3-0.1,0.6-0.3,0.8-0.4c0.2-0.2,0.4-0.4,0.5-0.7c0.1-0.3,0.2-0.5,0.2-0.8c0-0.7-0.2-1.2-0.6-1.6c-0.4-0.4-1-0.5-1.9-0.5h-1.6V4.8
		z"/>
	<path class="st0" d="M81.9,5.3v3.5h-0.6V0.1h2.3c1,0,1.8,0.2,2.3,0.7c0.5,0.4,0.8,1.1,0.8,1.9c0,0.4-0.1,0.7-0.2,1.1
		c-0.1,0.3-0.3,0.6-0.6,0.8c-0.3,0.2-0.6,0.4-1,0.5c-0.4,0.1-0.8,0.2-1.3,0.2H81.9z M81.9,4.8h1.6c0.4,0,0.7-0.1,1-0.2
		c0.3-0.1,0.6-0.3,0.8-0.4c0.2-0.2,0.4-0.4,0.5-0.7C86,3.3,86,3,86,2.7c0-0.7-0.2-1.2-0.6-1.6c-0.4-0.4-1-0.5-1.9-0.5h-1.6V4.8z"/>
</g>
</svg>
