<svg id="Outline" xmlns="http://www.w3.org/2000/svg" viewBox="0 0 582.38 94.12"><defs><style>.cls-1{fill:#fff;}</style></defs><title>compas-logo-white</title><path class="cls-1" d="M28.25,68.66Q15,68.66,7.69,60.49T.41,37.37Q.41,22,7.8,13.67T28.86,5.3a41.8,41.8,0,0,1,8.81.95,29.1,29.1,0,0,1,6.92,2.23l-2.84,7.86a43.66,43.66,0,0,0-6.69-2,29.93,29.93,0,0,0-6.41-.81Q10,13.5,10,37.26q0,11.27,4.55,17.29t13.47,6A41.18,41.18,0,0,0,43.7,57.28v8.2Q37.56,68.66,28.25,68.66Z" transform="translate(-0.41 -0.86)"/><path class="cls-1" d="M208,67.54V27.78q0-7.31-3.12-11t-9.7-3.65q-8.65,0-12.77,5t-4.13,15.28V67.54H169V27.78q0-7.31-3.12-11t-9.76-3.65q-8.7,0-12.74,5.22t-4,17.09V67.54h-9.26V6.41h7.53l1.51,8.37h.45a18.2,18.2,0,0,1,7.39-7A22.58,22.58,0,0,1,157.63,5.3q14.33,0,18.74,10.37h.45a19.5,19.5,0,0,1,7.92-7.59A24.58,24.58,0,0,1,196.56,5.3q10.37,0,15.53,5.33t5.16,17V67.54Z" transform="translate(-0.41 -0.86)"/><path class="cls-1" d="M264.77,68.66a26.46,26.46,0,0,1-10.9-2.2,20.51,20.51,0,0,1-8.28-6.78h-.67a82.07,82.07,0,0,1,.67,10.15V95h-9.26V6.41h7.53l1.28,8.37h.45a21.5,21.5,0,0,1,8.31-7.25A25.27,25.27,0,0,1,264.77,5.3q12.16,0,18.77,8.31t6.61,23.31q0,15.06-6.72,23.4T264.77,68.66Zm-1.34-55.5q-9.37,0-13.55,5.19t-4.29,16.51v2.06q0,12.88,4.29,18.43t13.78,5.55a14.33,14.33,0,0,0,12.41-6.41q4.49-6.41,4.49-17.68,0-11.43-4.49-17.54T263.44,13.16Z" transform="translate(-0.41 -0.86)"/><path class="cls-1" d="M343.92,67.54l-1.84-8.7h-.45q-4.57,5.75-9.12,7.78a27.8,27.8,0,0,1-11.35,2q-9.09,0-14.25-4.69t-5.16-13.33q0-18.52,29.62-19.41l10.37-.33V27.11q0-7.19-3.1-10.62t-9.9-3.43q-7.64,0-17.29,4.69l-2.84-7.08a43.51,43.51,0,0,1,9.9-3.85,42.89,42.89,0,0,1,10.79-1.39q10.93,0,16.2,4.85t5.27,15.56V67.54ZM323,61q8.64,0,13.58-4.74T341.52,43V37.48l-9.26.39q-11,.39-15.92,3.43t-4.88,9.45q0,5,3,7.64T323,61Z" transform="translate(-0.41 -0.86)"/><path class="cls-1" d="M409.29,50.87q0,8.53-6.36,13.16t-17.85,4.63q-12.16,0-19-3.85V56.22a45.78,45.78,0,0,0,9.45,3.51A39.44,39.44,0,0,0,385.3,61q7.25,0,11.16-2.31a8,8,0,0,0,.81-13.16q-3.1-2.54-12.08-6-8.53-3.18-12.13-5.55a16.57,16.57,0,0,1-5.35-5.38,14,14,0,0,1-1.76-7.19A13.72,13.72,0,0,1,372,9.62q6.08-4.32,16.68-4.32a48.79,48.79,0,0,1,19.3,4l-3.29,7.53A44.31,44.31,0,0,0,388,13.05q-6.58,0-9.93,2.06a6.38,6.38,0,0,0-3.35,5.69A6.92,6.92,0,0,0,376,25a12.36,12.36,0,0,0,4,3.29,90.19,90.19,0,0,0,10.71,4.52q10.88,4,14.7,8A14.07,14.07,0,0,1,409.29,50.87Z" transform="translate(-0.41 -0.86)"/><path class="cls-1" d="M463.57,51a36,36,0,0,1-11.11,11.85,28.21,28.21,0,0,1-16.39,4.94q-9.08,0-13.41-5a18.37,18.37,0,0,1-4.34-12.46,69.62,69.62,0,0,1,2.37-16.12A66.58,66.58,0,0,1,427.4,17q.27-.54,2.24-4A16.91,16.91,0,0,1,434,7.7a8.44,8.44,0,0,1,5.15-1.83,4.26,4.26,0,0,1,2.24.61,1.79,1.79,0,0,1,1,1.56,3.65,3.65,0,0,1-.75,1.29l-1.15,1.56a63.84,63.84,0,0,0-7.45,11,73.93,73.93,0,0,0-5.89,13.68,49.63,49.63,0,0,0-2.1,14.77q0,10.7,13,10.7a19.81,19.81,0,0,0,11.31-3.52,28,28,0,0,0,8.33-8.6q3.11-5.08,3.12-9.28a12.08,12.08,0,0,0-3.12-8.26,53.1,53.1,0,0,0-8.54-7.45,46.09,46.09,0,0,1-5.15-4.2A4.44,4.44,0,0,1,442.44,17q0-1.63,2.3-2.64a13.33,13.33,0,0,1,5.42-1,8.1,8.1,0,0,1,2.3.2.75.75,0,0,1,.54.75,1.85,1.85,0,0,1-.47.88,1.81,1.81,0,0,0-.47,1q0,.41,2.71,2.71A61.61,61.61,0,0,1,463.84,28a16.92,16.92,0,0,1,3.66,10.84Q467.5,44.08,463.57,51Z" transform="translate(-0.41 -0.86)"/><path class="cls-1" d="M516.82,70.57a4.86,4.86,0,0,1-3.25,1.15,4.16,4.16,0,0,1-2.3-.61,1.91,1.91,0,0,1-.95-1.69q0-5.55.81-17.21.81-12.46.81-20.73,0-8-.47-13.07t-2.24-5.08q-4.61,0-10.09,11.45T486.6,54.92l-2,5.42a4.49,4.49,0,0,1-1.83,2.17,4.9,4.9,0,0,1-2.64.81,5.6,5.6,0,0,1-2.17-.27q-.54-.27-.68-1.63l-1.08-11.11-2-19.51q-.95-11.65-2.3-20.32a17.19,17.19,0,0,1-.41-3.12A3.94,3.94,0,0,1,473.19,4a6.71,6.71,0,0,1,4.06-1.29q1.35,0,2,6.5t1.29,21l.54,7.18q1.08,13.69,1.22,17.34A14.14,14.14,0,0,0,483,53q.34-1,.88-2.24,7.32-19,13.75-31.64T510,6.41q4.2,0,5.76,7.11a105.91,105.91,0,0,1,2,18.22q.41,12.33.41,36A3.53,3.53,0,0,1,516.82,70.57Z" transform="translate(-0.41 -0.86)"/><path class="cls-1" d="M582.79,34.32q0,2.44-3.59,10.7a48.1,48.1,0,0,1-10.84,15.31,24.58,24.58,0,0,1-17.82,7A20.46,20.46,0,0,1,536.05,62q-5.83-5.42-5.83-16.66a48.73,48.73,0,0,1,4.88-20.93A48.69,48.69,0,0,1,547.84,7.43Q555.7.86,564.1.86a15.27,15.27,0,0,1,8.47,2.24A7.21,7.21,0,0,1,576,9.53q0,4.74-5.35,9.21a50.75,50.75,0,0,1-13.89,7.86,84.87,84.87,0,0,1-17.61,4.88,48.2,48.2,0,0,0-1.63,12.19q0,7.86,3.73,12.19T551.9,60.2a21.41,21.41,0,0,0,16.94-7.45,70.5,70.5,0,0,0,10.84-16.8q.27-.54.95-2.1c.45-1,.86-1.56,1.22-1.56Q582.79,32.29,582.79,34.32ZM567.69,7.63a10.73,10.73,0,0,0-5.22-1.22,16.79,16.79,0,0,0-9.89,3.39,31.51,31.51,0,0,0-7.93,8.13,28.53,28.53,0,0,0-4.13,8.4,48.4,48.4,0,0,0,13.14-3.52,56.24,56.24,0,0,0,11.58-6.23q4.67-3.39,4.67-5.55A3.74,3.74,0,0,0,567.69,7.63Z" transform="translate(-0.41 -0.86)"/><path class="cls-1" d="M110.5,19.15l-2.61,10.18A24,24,0,1,1,88.74,13.9l9.4-4.71a31.24,31.24,0,1,0,12.36,10Z" transform="translate(-0.41 -0.86)"/><polygon class="cls-1" points="83.35 38.8 92.97 55.68 103.8 13.44 64.81 32.98 83.35 38.8"/></svg>