<?xml version="1.0" encoding="utf-8"?>
<!-- Generator: Adobe Illustrator 21.0.0, SVG Export Plug-In . SVG Version: 6.00 Build 0)  -->
<svg version="1.1" id="Layer_1" xmlns="http://www.w3.org/2000/svg" xmlns:xlink="http://www.w3.org/1999/xlink" x="0px" y="0px"
	 width="1130px" height="354px" viewBox="0 0 1130 354" style="enable-background:new 0 0 1130 354;" xml:space="preserve">
<style type="text/css">
	.st0{fill-rule:evenodd;clip-rule:evenodd;fill:#FFFFFF;}
</style>
<g>
	<path class="st0" d="M536.3,352.3c-0.2,0,0-12.7,0-12.5 M402.4,353.3 M225.1,310.4 M291,249.8c-0.5,10.7,0,26.6,0,34.8
		c0,8.3-4,52,21.7,52c18.2,0,21-11.9,22.1-28.3v-61.6v-51.4c-14.5,10.9-40.2,28.3-43.5,51.4l0,0l0,0l0,0
		C291.1,247.8,291.1,248.8,291,249.8 M402.4,353.3c0.4,0,0.4-11.8,0-12.2c-0.9-0.9-18-2.4-17.6-19.7l0.1-74.7l0-57.3
		c0,0,1.7-57.8,0-68.4c-1.5-9.3-3.7-14.6-6.3-21.6C365,64,331.5,57.4,308.2,57.4c-67.1,0-81,61.8-81,78.6c0,23,16.2,37.7,33.6,37.7
		c17.3,0,36.8-13.2,36.5-34.4c-0.3-17.8-15.5-38.9-46.1-32.9c0,0,7.8-28.7,40.7-29.4c32.4-0.7,38.5,38.2,38.5,50.3
		c0,26-11.5,49.2-40.1,61.8c-0.2,0.1-0.4,0.2-0.6,0.2l0,0c-26.8,11.9-39.4,25-46.9,34.6c-6.1,7.8-10.6,15.5-13.7,22.8l0,0
		c-11.4,26.3-6.2,48.6-3.9,63.6 M225.1,310.4c3.7,24.5,22.5,43.8,53.2,43c16.2-0.4,34-0.1,52.1-16c6.9,12.6,32,15.9,42.9,15.9h29.1"
		/>
	<path class="st0" d="M199.3,189.4v-80.5c0-31.9-25.4-51.9-52.7-50.6H2.4C2,58.6,2,66.2,2,69.6c0,0.8,32.8-1.2,32.8,32l-0.2,87.9
		l-0.1,57.3l-0.2,74.7c0,18-34,18.9-33.6,18.9c0,0-0.4,13,0,12.2h160.1c11.2,0,38.8-13,38.4-35.2v-70.6V189.4 M152.7,246.8v62.4
		c0,10-9.4,28.3-22.5,28.3h-25.6v-90.7v-57.3V76.5h27.3c12.5,0,20.8,18,20.8,38.2v74.7V246.8z"/>
	<path class="st0" d="M497.4,246.7v77.9c0,13.6,21.3,14.8,21.3,15.2c0,3.3,0,12.3,0,12.2H417.2c0-0.9-0.9-11.5,0-11.4
		c10.5-2.5,26.9-4,26.6-21.3v-72.7l-2.6-57.3c-2.3-5.3-6.2-8.3-12.1-10.6c-4.1-1.2-5.8-2.4-5.8-6.5c0-7.4,15.2,0,44-10.8
		c18.3-5.2,24.5-13.1,28.8-13.1c1.2,0,2.1,3.2,1.4,5.8v35V246.7z"/>
	<path class="st0" d="M857.2,246.7l0.1,69.4c0,23.8,23.7,23.8,23.5,24c-0.3,0.3,0.2,12.8,0,12.8c0,0-105.7-0.2-105.4,0
		c0.2,0.2,0.2-12.3,0-12.5c0,0,21.3,0.4,23.8-21.1l0.1-72.5l0.1-57.3L799.5,71h-0.7c-58,8.5-48.4,95.6-48.4,95.6h-9.6V57.7h174.3
		l0.1,109.3c0,0.2-9.4,0-9.6,0l0.2-24.2c0-9.4-4.9-67.2-48.8-71.6l0.1,118.2L857.2,246.7z"/>
	<path class="st0" d="M1056.8,246.7v79.4c0,13.2,17.5,14,17.5,14.3c0,3.1,0.3,12.3,0,12.3h-93.4c0.1,0.1,0-12.3,0-12.3
		c0.9-0.5,19.5,0.5,19.5-19.9v-70.7v-3.2l-1.6-57.3c-5.3-13.7-22.5-57.7-37.3-89.1c-3-6.4-6.9-17-9.6-22.2
		c-7.4-13.9-21.7-9.4-21.7-10.7c0-2.1,0-9.9-0.1-9.8l98.4-0.1c-0.1-0.1,0,7.2,0,10.3c0,0.4-10.3-1.1-14.8,4
		c-3.9,4.4-1.1,11.8-1.1,11.8c0,4.8,23.7,56.8,36,86.1l32.9-86.4c3.3-8.1-3.1-14.8-8.5-14.8c-0.2,0-8.3,0.2-8.3,0v-11h64.5
		c0.2,0,0.2,10.1,0,10.1c-0.9,0.2-13.6-0.7-16.6,0.9c-6.5,3.2-11,11.6-11.9,14.3c-3.2,9.4-35.7,89.2-42.6,106.6L1056.8,246.7z"/>
	<path class="st0" d="M463,93c-2.9-12.8-3.3-18.5-3.3-18.5s-1.2,5.8-4,18.5c-2.9,12.7-2.9,9.7-7.4,17.6c-3.1,5.4-4.1,7.8-4.1,11.5
		c0,3.7,0.7,13.4,11,14.3c0,0,2.2,0.4,4.2,0.4c2,0,4.2-0.5,4.2-0.5c10.3-0.8,11-10.6,11-14.3c0-3.7-1-6.1-4.1-11.5
		C465.9,102.8,465.9,105.8,463,93z"/>
	<path class="st0" d="M464.7,65.8c0,0,5.4-2.5,17.3-7.9c11.9-5.3,9.5-3.6,18.5-4.7c6.2-0.8,8.7-1.4,11.6-3.6
		c3-2.2,10.3-8.7,4.8-17.4c0,0-1-2-2.2-3.6c-1.2-1.6-2.9-3-2.9-3c-6.8-7.7-15.1-2.4-18-0.2c-3,2.2-4.3,4.4-6.7,10.2
		c-3.5,8.3-1.1,6.5-9.6,16.5C469.1,62,464.7,65.8,464.7,65.8z"/>
	<path class="st0" d="M427.3,98.9c4.8-7.7,2.1-6.2,12-14.8c9.9-8.5,14.8-11.6,14.8-11.6s-5.7,1.7-18.3,5.1c-12.6,3.5-10,2.1-19,1.7
		c-6.2-0.2-8.8,0.1-12,1.8c-3.3,1.7-11.6,6.9-7.5,16.4c0,0,0.6,2.1,1.6,3.9c1,1.8,2.3,3.5,2.3,3.5c5.5,8.7,14.5,4.7,17.8,3
		C422.3,106.2,424,104.2,427.3,98.9z"/>
	<path class="st0" d="M514.6,81c-3.2-1.7-5.8-2-12.1-1.8c-9,0.3-6.4,1.8-19-1.7c-12.6-3.4-17.9-5.8-17.9-5.8s4.6,3.8,14.5,12.3
		c9.9,8.5,7.3,7.1,12,14.8c3.3,5.3,5,7.3,8.2,9c3.3,1.7,12.2,5.7,17.8-3c0,0,1.4-1.7,2.3-3.6c1-1.8,1.6-3.9,1.6-3.9
		C526.1,87.9,517.8,82.7,514.6,81z"/>
	<path class="st0" d="M456.4,44.7c2.9,12.7,3.3,18.5,3.3,18.5s1.2-5.8,4.1-18.5c2.9-12.7,2.9-9.8,7.4-17.6c3.1-5.5,4.1-7.8,4.1-11.5
		c0-3.7-0.7-13.5-11-14.3c0,0-2.2-0.4-4.2-0.4c-2.1,0-4.2,0.5-4.2,0.5c-10.3,0.8-11,10.6-11,14.3c0,3.7,1,6.1,4.1,11.5
		C453.6,35,453.6,32,456.4,44.7z"/>
	<path class="st0" d="M404.7,58.1c3.3,1.6,5.9,1.8,12.1,1.4c9-0.6,6.3-1.9,19,1c12.7,3,18,5.2,18,5.2s-4.7-3.6-14.9-11.8
		c-10.2-8.2-7.5-6.9-12.6-14.3c-3.5-5.2-5.2-7.1-8.5-8.7c-3.3-1.6-12.4-5.2-17.6,3.6c0,0-1.3,1.7-2.2,3.6c-0.9,1.8-1.4,3.9-1.4,3.9
		C392.9,51.6,401.4,56.5,404.7,58.1z"/>
	<path class="st0" d="M618.1,189.4"/>
	<path class="st0" d="M536.3,339.9c13-1.5,23.1-7,23.1-26.4v-66.7v-57.3V86.6c0-9.6-0.2-17.3-5.8-17.5c-3-0.1-4-0.1-4.3-0.1V57.8
		h45.3c4.7,11.5,8.2,19.8,12.9,32.4c9.7-20.7,30.4-32.4,58.6-32.4c29.4,0,57.6,18.5,57.6,45.6v86v57.3V324
		c0,16.6,23.6,16.1,23.6,16.4c0,3.4,0.2,12.1,0.1,12.1l-102.6,0.1l0-11.8c0,0,19.2,0.5,19.2-25.5v-68.5v-57.3v-74.3
		c0-12.7-9.8-24.6-22.9-24.2c-10.7,0.4-23.2,9.1-23.2,24.2l0.1,74.3l0,57.3l0.1,77.3c0,15.2,17.6,16.3,17.6,16.3
		c-0.1-0.1,0,12.1,0,11.9h-99.5"/>
</g>
</svg>
