<svg id="Layer_1" data-name="Layer 1" xmlns="http://www.w3.org/2000/svg" viewBox="0 0 621.1 214.91"><defs><style>.cls-1{fill:#fff;}</style></defs><title>title-8-gain-health</title><path class="cls-1" d="M390.8,70.7a4,4,0,0,0-2.3,1.2s-.1,0-.2-.4a4.69,4.69,0,0,0-1.4,2.9s-.2.3.5.4c.9.1,2.1,1.5,2.9,1.4a9.86,9.86,0,0,1,2.4-.3,5.55,5.55,0,0,1-.8-.6c1.8-.4,3.7-3,4.5-3.7C394.6,71.5,392.8,70.6,390.8,70.7Zm1,1.9a11.62,11.62,0,0,0-1.6.6,11.4,11.4,0,0,0-1.9,1c-.3.1-.7.2-1,.3a25.29,25.29,0,0,1,2.2-1.3,13,13,0,0,1,1.7-.8,24.18,24.18,0,0,1,4.7-.4,29,29,0,0,0-4.1.6Z" transform="translate(-0.1)"/><path class="cls-1" d="M326.7,76.9a5.39,5.39,0,0,0,1.1-3.2c0-2.8-1.1-5.3-1.4-8.1-.7,1.2-3.1,4-3.5,6.6a4.13,4.13,0,0,1-.7-1.1,18.21,18.21,0,0,1-.1,3.3c0,1.2,1.5,2.8,1.6,4,.1,1,.5.7.5.7,1.6-.2,1.9-.9,2.9-2C326.7,77.1,326.7,76.9,326.7,76.9Zm-.7-3.8a23.35,23.35,0,0,1-.7,2.5,17.55,17.55,0,0,1-1.2,3.2,6.75,6.75,0,0,1,.2-1.4,14.26,14.26,0,0,0,.9-2.7c.2-1,.4-1.7.5-2.3a56.83,56.83,0,0,0,.3-5.9A36.37,36.37,0,0,1,326,73.1Z" transform="translate(-0.1)"/><path class="cls-1" d="M341.8,55.9a5.53,5.53,0,0,0-.8-3.1c-1.4-2.1-3.3-3.2-5-5,.1,1.3-.4,5,.6,7.1a1.69,1.69,0,0,1-1-.3,12.75,12.75,0,0,1,1.5,2.5c.6.9,2.4,1,3.1,1.9.6.7.7.2.7.2,1-1.2,1-1.9,1.2-3.4C341.9,56,341.8,55.9,341.8,55.9Zm-1.5,1.9a24.37,24.37,0,0,0-.6-2.6,20.47,20.47,0,0,0-.7-2,48.26,48.26,0,0,0-2.6-4.5c1.1,1.6,2.1,3.2,3.1,4.9a18.67,18.67,0,0,1,.7,2.2c.3,1,.5,2.1.7,3.1A1.68,1.68,0,0,1,340.3,57.8Z" transform="translate(-0.1)"/><path class="cls-1" d="M320,69.9a5.82,5.82,0,0,0,.4-3.2c-.6-2.6-1.9-4.5-2.8-6.9-.4,1.2-2.1,4.4-1.9,6.8a3,3,0,0,1-.8-.8,15.67,15.67,0,0,1,.5,3c.2,1.1,1.8,2.1,2.2,3.2.3.9.6.6.6.6,1.4-.6,1.5-1.3,2.3-2.6C320.1,70,320,69.9,320,69.9Zm-1.5-.9c-.1,1.1-.3,2.1-.5,3.2V70.9a12.41,12.41,0,0,0,.3-2.7c0-.9.1-1.7.1-2.2a50.25,50.25,0,0,0-.8-5.4,41.73,41.73,0,0,1,1,6A9.66,9.66,0,0,1,318.5,69Z" transform="translate(-0.1)"/><path class="cls-1" d="M387.5,64.9c-3.5.5-6.8-.2-10.2.9a7.05,7.05,0,0,0-3.5,3.1s-.2,0-.4-.5c-.9,2.1-1.6,2.9-1.2,5.6,0,0-.2.7,1.1.5,1.5-.3,4,1.6,5.4,1a13.16,13.16,0,0,1,3.9-1.5,4.59,4.59,0,0,1-1.6-.7C384,71.7,386.3,66.5,387.5,64.9Zm-8,3.7c-.6.4-1.4,1-2.5,1.8a23.28,23.28,0,0,0-2.8,2.6,8.64,8.64,0,0,1-1.6,1,26.51,26.51,0,0,1,3.4-3.3,14,14,0,0,1,2.7-2.1c1.5-1,7.8-2.9,7.8-2.9A60.73,60.73,0,0,0,379.5,68.6Z" transform="translate(-0.1)"/><path class="cls-1" d="M397.5,78.8c-2.2-1.2-3.8-3-6.1-3.8a3.67,3.67,0,0,0-2.9.3s-.1-.1-.1-.5c-1.2.8-1.8,1-2.4,2.7,0,0-.3.3.5.7,1,.5,1.8,2.6,2.8,2.9a9.24,9.24,0,0,1,2.7.8,4.13,4.13,0,0,1-.7-1.1C393.5,81.2,396.4,79.2,397.5,78.8Zm-7.6-1.3a9.86,9.86,0,0,0-2.4.3,4.87,4.87,0,0,1-1.2-.1,14.46,14.46,0,0,1,2.9-.4,8.1,8.1,0,0,1,2.2,0,32.72,32.72,0,0,1,5.3,1.7,42.74,42.74,0,0,0-4.8-1.3,5.57,5.57,0,0,0-2-.2Z" transform="translate(-0.1)"/><path class="cls-1" d="M393,44.3c-2.3-3.4-3.5-7.3-6.2-10.4a6.43,6.43,0,0,0-4.3-2s-.1-.2.2-.7c-2.1.2-3.1-.1-5,1.7,0,0-.6.2.2,1.4,1,1.5.9,5.1,2.1,6.3a25.72,25.72,0,0,1,3.3,3.3,7.47,7.47,0,0,1-.3-2C385.9,44.1,391.2,43.9,393,44.3Zm-13.4-9.8a6.1,6.1,0,0,1-1.6-1.2,32.51,32.51,0,0,1,4.3,1.8c1,.5,2,1.1,3,1.7,1.5,1.1,6.4,6.8,6.4,6.8a53.86,53.86,0,0,0-5.9-5.8c-.6-.4-1.5-1-2.7-1.7a18.67,18.67,0,0,0-3.5-1.6Z" transform="translate(-0.1)"/><path class="cls-1" d="M373.7,40.7s0-.2.4-.1c-.8-1.1-1-1.8-2.3-2.2,0,0-.3-.3-.5.6s-1.8,2.2-1.9,3.2a14.28,14.28,0,0,1-.3,2.9,2.7,2.7,0,0,1,.7-.8c0,2.3,1.8,5.1,2.2,6.2.6-2.4,1.8-4.3,2.2-6.7A4.78,4.78,0,0,0,373.7,40.7ZM372,49.6a43.79,43.79,0,0,0,.4-5.1,19.09,19.09,0,0,0-.2-2,22.11,22.11,0,0,0-.5-2.5V38.8a16,16,0,0,1,.6,3c.1.7.2,1.5.3,2.2A36.8,36.8,0,0,1,372,49.6Z" transform="translate(-0.1)"/><path class="cls-1" d="M364.9,53.1s.1-.2.5-.2c-1.1-1.6-1.4-2.5-3.2-3.2,0,0-.4-.4-.7.8-.4,1.5-2.5,3-2.6,4.5a17.52,17.52,0,0,1-.4,4,10.59,10.59,0,0,1,1-1.2c0,3.2,2.5,7.3,3.1,8.9.9-3.3,2.6-6,3.1-9.5A7.55,7.55,0,0,0,364.9,53.1Zm-2.5,12.5q.45-3.6.6-7.2a20.16,20.16,0,0,0-.3-2.9A21.69,21.69,0,0,0,362,52a10.87,10.87,0,0,1-.1-1.8,31.48,31.48,0,0,1,.9,4.2,31.06,31.06,0,0,1,.4,3.2A44.27,44.27,0,0,1,362.4,65.6Z" transform="translate(-0.1)"/><path class="cls-1" d="M399.8,30.9c-2.1-1.7-3.5-3.9-5.8-5.3a4.21,4.21,0,0,0-3.1-.3s-.1-.1,0-.5c-1.4.6-2,.7-3,2.3,0,0-.4.3.4.9s1.5,3.1,2.5,3.6a8.67,8.67,0,0,1,2.7,1.4,3,3,0,0,1-.5-1.3C395.2,32.5,398.6,31.1,399.8,30.9Zm-7.8-3a11,11,0,0,0-2.6-.2,5.64,5.64,0,0,1-1.2-.4,16.15,16.15,0,0,1,3.1.2,18.46,18.46,0,0,1,2.3.4,39.15,39.15,0,0,1,5.3,2.9,44.42,44.42,0,0,0-4.9-2.4,11.34,11.34,0,0,0-2-.5Z" transform="translate(-0.1)"/><path class="cls-1" d="M412.1,12c-3.7.4-7.1-.5-10.8.5-2.2.6-3.7,3.1-3.7,3.1s-.2,0-.4-.6c-1,2.2-1.8,3-1.5,5.8,0,0-.2.7,1.1.5,1.6-.2,4.2,1.8,5.7,1.3a12.47,12.47,0,0,1,4.1-1.4,4.81,4.81,0,0,1-1.6-.8C408.2,18.9,410.9,13.6,412.1,12Zm-8.5,3.5-2.7,1.8a25.13,25.13,0,0,0-3.1,2.6,9.5,9.5,0,0,1-1.7,1,21.72,21.72,0,0,1,3.6-3.2,30.63,30.63,0,0,1,2.9-2.1c1.6-1,8.3-2.7,8.3-2.7a70.88,70.88,0,0,0-7.3,2.6Z" transform="translate(-0.1)"/><path class="cls-1" d="M378.2,22.3c.9-2.3.2-6.2.2-7.5-1.6,2-3.5,3.4-4.9,5.7a6.47,6.47,0,0,0-.6,3.4s-.1.1-.4-.1c.3,1.5.3,2.3,1.4,3.5,0,0,.2.4.7-.3.7-.9,2.6-1.2,3.1-2.2a14.65,14.65,0,0,1,1.4-2.8A3,3,0,0,1,378.2,22.3Zm-2.4-1.6a12.87,12.87,0,0,0-.6,2.2,23.25,23.25,0,0,0-.5,2.8c-.1.4-.3.9-.4,1.3.1-1.1.3-2.2.5-3.4l.6-2.4a46.29,46.29,0,0,1,2.9-5.4,28.23,28.23,0,0,0-2.5,4.9Z" transform="translate(-0.1)"/><path class="cls-1" d="M362,32.7a10.31,10.31,0,0,0,.3-5.5C361,23,358.5,20,356.8,16c-.5,2.1-3,7.8-2.4,11.8a4.43,4.43,0,0,1-1.5-1.2,21.45,21.45,0,0,1,1.2,5c.5,1.8,3.4,3.2,4.1,5,.6,1.4,1,.8,1,.8,2.2-1.3,2.4-2.5,3.5-4.7C362.2,33,362,32.7,362,32.7Zm-2.7-1.1A48.87,48.87,0,0,1,359,37a16.35,16.35,0,0,1-.2-2.2,22.62,22.62,0,0,0,.2-4.5,31.2,31.2,0,0,0-.2-3.7,88.22,88.22,0,0,0-2-8.9s2.4,7.7,2.5,9.9a13.4,13.4,0,0,1,0,4Z" transform="translate(-0.1)"/><path class="cls-1" d="M390.9,12.2c1.1-3.9-.6-10-.8-12.2-2.2,3.7-5.2,6.2-7,10.2a10.39,10.39,0,0,0-.5,5.5s-.2.2-.7,0c.8,2.4.8,3.7,2.9,5.3,0,0,.3.7,1.1-.7,1-1.6,4-2.6,4.7-4.3a23.94,23.94,0,0,1,1.9-4.8A3.91,3.91,0,0,1,390.9,12.2Zm-4.2-2.1c-.2.8-.4,2-.7,3.6s-.3,3-.4,4.6a17.42,17.42,0,0,1-.5,2.2,50.68,50.68,0,0,1,.3-5.5,27.61,27.61,0,0,1,.6-4c.5-2.1,3.8-9.4,3.8-9.4A86.38,86.38,0,0,0,386.7,10.1Z" transform="translate(-0.1)"/><path class="cls-1" d="M369.5,84s.1-.2.5-.2c-1.2-1.7-1.6-2.6-3.7-3.2,0,0-.4-.4-.7.9-.3,1.7-2.5,3.5-2.7,5.1a22.62,22.62,0,0,1-.2,4.5,3.48,3.48,0,0,1,1.1-1.3c.1,3.5,3.1,7.7,3.8,9.4.8-3.7,2.5-6.8,2.9-10.6A7.43,7.43,0,0,0,369.5,84Zm-2.1,13.8a71.31,71.31,0,0,0,.3-8c-.1-.7-.2-1.8-.4-3.1a26.16,26.16,0,0,0-.9-3.8,12.25,12.25,0,0,1-.2-1.9,37.45,37.45,0,0,1,1.2,4.5c.3,1.2.4,2.3.6,3.5a65.06,65.06,0,0,1-.6,8.8Z" transform="translate(-0.1)"/><path class="cls-1" d="M377.6,85.4a4.42,4.42,0,0,0-1.1-2.4s0-.1.3-.2c-.9-.7-1.2-1.2-2.4-1.2,0,0-.3-.2-.3.6,0,1-1,2.3-.9,3.2a18.66,18.66,0,0,1,.4,2.5,4.05,4.05,0,0,1,.5-.9c.4,1.9,2.5,3.8,3.1,4.6C377.2,89.4,377.8,87.5,377.6,85.4Zm-1.5,1.1c-.1-.4-.3-.9-.6-1.7a11.09,11.09,0,0,0-.9-1.9c-.1-.3-.2-.7-.3-1a16.27,16.27,0,0,1,1.1,2.3,13.36,13.36,0,0,1,.7,1.8,41,41,0,0,1,.6,4.9A23.21,23.21,0,0,0,376.1,86.5Z" transform="translate(-0.1)"/><path class="cls-1" d="M387.8,86.3a6.07,6.07,0,0,0-2.1-2.9s0-.2.3-.3c-1.3-.8-1.8-1.4-3.4-1.2,0,0-.4-.2-.2.9.2,1.3-.7,3.2-.3,4.4a12.13,12.13,0,0,1,1.1,3.2,2.45,2.45,0,0,1,.4-1.2c1.1,2.4,4.3,4.5,5.4,5.5C388.4,91.7,388.7,89.1,387.8,86.3Zm-2.7-.3c-.5-.8-1.1-1.6-1.7-2.4a8.27,8.27,0,0,1-.7-1.3,18.6,18.6,0,0,1,2.1,2.8c.5.7,1,1.5,1.4,2.2.8,2.1,1.5,4.2,2.1,6.4q-.9-2.85-2.1-5.7C386,87.6,385.6,86.9,385.1,86Z" transform="translate(-0.1)"/><path class="cls-1" d="M399.9,89a5.71,5.71,0,0,0-2.6-2.5s0-.2.3-.4c-1.5-.4-2.2-.9-3.8-.1,0,0-.5,0-.1,1,.4,1.3-.3,3.8.3,5a16.23,16.23,0,0,1,1.7,3.2,7.72,7.72,0,0,1,.2-1.5c1.5,2.3,5.3,3.5,6.5,4.3C401.3,94.9,401.2,91.8,399.9,89Zm-3,.6-2.1-2.1-.9-1.2a20.19,20.19,0,0,1,2.7,2.4c.6.6,1.2,1.3,1.8,2a54.58,54.58,0,0,1,3.2,6.4,60.23,60.23,0,0,0-3-5.6,18.14,18.14,0,0,1-1.7-1.9Z" transform="translate(-0.1)"/><path class="cls-1" d="M383.5,78.9c-5.6-2.5-9.3-1.9-12.9-3.2-4.9,1.2-10-.7-16.7,1.8-1.3-.3-8.8,5.4-10.4,5,2.9-9.8,1.8-11.3,4.9-16.7,1.8-3.7,12.4-18.9,15.5-23A146.94,146.94,0,0,1,377.2,30c5.5-2.6,9.9-5.8,16.9-7.8-5.1,0-15,4.4-19.6,6.2-4.4,2.9-14.3,12.2-14.5,12.4-.4,1.7-14.9,20.8-14.9,20.8-.3.1-2.5-2.5-2.6-2.3s-.9,3-1,3.1c.3.3,1.3,3.6,1,4.3-1.7,4.1-3,12.6-6.2,17.4-2.2,3.4-4.6,8.1-6.2,10.4-2.6,3.8-6.3-15.4-7.6-15.4-.7,0-2-1.5-3-3.4s-1.8-4.5-4.2-5c-4.9-.9.9,6.7-.8,4.6-.4-.4,5.4,6.3,5.2,9.7a70.16,70.16,0,0,1,4.4,16.3c.2,1.8-2.2,4.9-1.8,6.7,1.7,8-1.5,20.8-2.9,24.6-.26.7-.21,3.09,0,6.53l-9.23,1.57c-.6.1-.2-4.9-.2-4.9-.4,0-4.5.2-4.6.9-.3,2.7-2.4,5-3.1,5.1-4.4.7-6.3.7-8.8,1-3.75.46-4,1.21-7.12,2.84.77-6.77,1.15-11.87.72-12.94-1.5-3.8-5.3-16.6-3.4-24.5.5-1.8-2.3-4.9-2.1-6.7.7-5.1-1.8-24.3.1-28.6-.2-3.4,6.5-10.1,6-9.7-1.5,1.6,2.9-4.7,1.4-3.9-1.9,1-1.8-1-2.3-.7a13.82,13.82,0,0,0-4.9,5c-1.2,2-2.7,3.4-3.4,3.4-1.5,0-.9,31.5-3.9,27.7-1.9-2.3-4.6-7-7.2-10.4-3.7-4.8-6.6-12.9-7.4-17.1-.8-1.5,1.8-4.4,2.3-4.8-.1-.1-1.1-2.9-1.2-3.1s-2.7,2.4-3,2.3c0,0-1.1-6.1-3.2-13.3-.1-.3-2-3.5-2.1-3.8a111.69,111.69,0,0,1-3-11.3c-.2-.2-8.3-9.4-12.8-12-4.2-1.2-8-2.5-8.6-3.4-1.8-.1-7.4-1.6-9.9-4.2,2.8,3.1,5.2,3.8,8.4,4.8,2.8,1.2,6.9,3.3,9.8,4.5a63.87,63.87,0,0,1,6.2,6.6c2.6,3.3,4.1,3.7,4.2,7.4,1.2,1.4.9,2.9,2.1,7.4,1.9,7.2,4.1,15,4.8,19.6.1.8.2,2.4.3,2.8.7,3.2,1.1,4.7,4.9,15.9-1.8.4-11.5-11.5-13-11.2-5.6-6.3-8.6-11.5-14.2-12.7-4.2,1.3-12.2-2.4-18.6-5.1-6-.3-8.1-2.2-12.4-2.2,2.2,1.2,6.4,1.9,11.5,3.2,3.7.7,11.5,6.9,15.2,7.4,10.6-.7,18.9,18.5,26.1,24.1a104.43,104.43,0,0,1,7.7,7.1c9.7,10,10.9,22.2,12.4,38.1a86.93,86.93,0,0,1-.74,18.17l-.26-.07c-1-.3-5.5.5-6.5-.1a35.77,35.77,0,0,1-5.4,1.4c-.8,0-5.4,2.3-5.4,2.3a19.79,19.79,0,0,1,2.3,4c1.4-.2,1.8-.3,2.2,0,.2.8-1.8,1.6-3.3,2.6-2.4,1.6-5.4,3.3-6.4,3.5l-1.5,5.6c9.55-3.83,13.89-9,22.7-8.88-2.79,16-6.9,31-6.9,31H280s2.58-16.27,4.66-31.62c7.33-4,8.77-7.31,16.94-7.48,4.36-.13,12-2.17,18.6-3.88,1.76,17.27,5.3,42.88,5.3,42.88h13.3s-6-25.33-7.72-45.38c4.92-1.15,8.84-3.81,14.42-2.62.2-1.2.8-1.8.7-2.3a8.43,8.43,0,0,0-.6-1.4,6.28,6.28,0,0,1-.3-1.9c-.1-.5-.7-1.1-.7-1.8-1.39,0-7.16.86-14,2,0-2.22,0-4.3.17-6.17,1.3-16,2.3-28.2,10.7-38.2,1.7-2,4.8-5.3,6.7-7.1,6.2-5.6,11.2-8.1,20.3-7.4,3.2-.4,12.3-.3,15,1.8,4,2.6,7,5.1,9.1,5.8C389.8,83,387.4,82.8,383.5,78.9Z" transform="translate(-0.1)"/><path class="cls-1" d="M213.9,45.1a3.86,3.86,0,0,0-1.1-2.7c-1.6-1.7-3.7-2.5-5.6-4,.2,1.2,0,4.5,1.3,6.3a2.15,2.15,0,0,1-1.1-.2,9.09,9.09,0,0,1,1.8,2.1c.6.8,2.6.7,3.4,1.4s.8.2.8.2c1-1.2.8-1.8.9-3.2C214,45.2,213.9,45.1,213.9,45.1ZM212.5,47a8.49,8.49,0,0,0-.9-2.2c-.4-.8-.7-1.4-.9-1.7-1-1.3-2-2.6-3.1-3.8a45.92,45.92,0,0,1,3.6,4.1,8.18,8.18,0,0,1,.9,1.9,23.08,23.08,0,0,1,1,2.8C212.9,47.7,212.7,47.4,212.5,47Z" transform="translate(-0.1)"/><path class="cls-1" d="M281.7,55.5a3.45,3.45,0,0,1-1.2,1.2c0-3.3-2.9-7.4-3.7-9-1.1,3.4-3.1,6.2-3.7,9.7a7.15,7.15,0,0,0,.9,4.3s-.1.2-.6.2c1.2,1.6,1.6,2.5,3.8,3.2,0,0,.5.4.8-.8.5-1.5,2.9-3.1,3.1-4.6A20.26,20.26,0,0,1,281.7,55.5Zm-4.3,9.1a30.09,30.09,0,0,1-1.1-4.3c-.2-1.1-.4-2.1-.5-3.2-.1-1.7,1.1-8.2,1.1-8.2a59.84,59.84,0,0,0-.7,7.4c0,.7.2,1.7.3,3a23.26,23.26,0,0,0,.8,3.6,9.15,9.15,0,0,1,.1,1.7Z" transform="translate(-0.1)"/><path class="cls-1" d="M274.8,72.6a13.9,13.9,0,0,1-1.2-2.8,2.84,2.84,0,0,1-.4,1.2c-1.1-2.1-4.5-3.7-5.6-4.4.5,2.6.3,5.1,1.1,7.6a4.67,4.67,0,0,0,2.2,2.4s0,.2-.3.3c1.4.6,1.9,1,3.6.7,0,0,.4.1.2-.8C274.1,75.6,275.2,73.7,274.8,72.6Zm-2.9,2.3c-.5-.6-1-1.2-1.5-1.9a48.42,48.42,0,0,1-2.3-5.7,44.58,44.58,0,0,0,2.2,5c.3.4.7,1,1.3,1.8a11.23,11.23,0,0,0,1.8,2,6.73,6.73,0,0,1,.7,1.1A23.91,23.91,0,0,1,271.9,74.9Z" transform="translate(-0.1)"/><path class="cls-1" d="M233.2,52.2a8.21,8.21,0,0,0-.7-5.1c-2.1-3.6-5.4-5.7-7.9-9-.1,2.1-1.7,7.8-.3,11.3a4.17,4.17,0,0,1-1.8-.8,17.47,17.47,0,0,1,2.2,4.3c.8,1.5,4.1,2.2,5.2,3.7.9,1.2,1.2.5,1.2.5,2.1-1.7,2.1-2.8,2.8-5C233.4,52.4,233.2,52.2,233.2,52.2Zm-2.5,4.6a6.64,6.64,0,0,1-.6-2,30.34,30.34,0,0,0-.6-4.2,33.18,33.18,0,0,0-.9-3.3,78.51,78.51,0,0,0-3.8-7.7s3.9,6.5,4.5,8.4a22.09,22.09,0,0,1,.8,3.7A22.2,22.2,0,0,1,230.7,56.8Z" transform="translate(-0.1)"/><path class="cls-1" d="M212,47.2c-.2.3-.4.3-.4.3a5.1,5.1,0,0,0-2.2-2.6c-2.5-1.2-5.1-1.3-7.7-2.2.7,1.2,1.8,5,3.9,6.5a2.74,2.74,0,0,1-1.3.2A12,12,0,0,1,207,51c1,.6,3.1-.3,4.3.2.9.3.9-.1.9-.1C212.8,49.4,212.4,48.8,212,47.2Zm-1.2,3a20,20,0,0,0-1.9-2.2c-.7-.7-1.3-1.2-1.7-1.6a49.43,49.43,0,0,0-4.9-3,61.17,61.17,0,0,1,5.6,3.1l1.8,1.8a17.09,17.09,0,0,1,2.1,2.6,6.07,6.07,0,0,1-1-.7Z" transform="translate(-0.1)"/><path class="cls-1" d="M238.9,15.6a5.67,5.67,0,0,0-.7-3.4c-1.6-2.3-3.9-3.6-5.7-5.7,0,1.4-.8,5.3.3,7.6a4.23,4.23,0,0,1-1.2-.4,16.09,16.09,0,0,1,1.7,2.8c.6,1,2.9,1.3,3.7,2.2.6.8.8.3.8.3,1.4-1.2,1.3-2,1.7-3.5C239.1,15.8,238.9,15.6,238.9,15.6Zm-1.4,3.2a6.94,6.94,0,0,1-.5-1.3,14,14,0,0,0-.6-2.8c-.3-1-.5-1.7-.7-2.2a49.94,49.94,0,0,0-2.9-5,38.74,38.74,0,0,1,3.4,5.5,21.72,21.72,0,0,1,.7,2.4,20.21,20.21,0,0,1,.6,3.4Z" transform="translate(-0.1)"/><path class="cls-1" d="M218,11.5a3.29,3.29,0,0,0-.5-2.2c-1.1-1.5-2.6-2.4-3.8-3.8,0,.9-.5,3.5.2,5.1a1.14,1.14,0,0,1-.8-.3,11.78,11.78,0,0,1,1.1,1.9c.4.7,1.9.9,2.5,1.5s.6.2.6.2a3.19,3.19,0,0,0,1.1-2.4Zm-1,2.1c-.1-.3-.3-.6-.4-.9a12.86,12.86,0,0,0-.4-1.9c-.2-.6-.4-1.1-.5-1.5A35.42,35.42,0,0,0,213.8,6c.8,1.2,1.6,2.4,2.3,3.6a9.83,9.83,0,0,1,.5,1.6,10.93,10.93,0,0,1,.4,2.4Z" transform="translate(-0.1)"/><path class="cls-1" d="M218.5,16.4c-1-2-2-2.1-3.7-3,.1.5,0,.6,0,.6a6.69,6.69,0,0,0-4.2-.1c-3.1,1.3-5.3,3.7-8.3,5.3,1.6.4,6,2.4,9,1.8a6.38,6.38,0,0,1-.8,1.4,12.34,12.34,0,0,1,3.7-1.2c1.3-.5,2.3-3.1,3.6-3.8S218.5,16.4,218.5,16.4Zm-2,.5c-1.1-.1-2.3-.1-3.4-.1s-2.2.2-2.8.3c-2.3.6-4.5,1.3-6.7,2.1,0,0,5.8-2.4,7.4-2.6a30.28,30.28,0,0,1,3.1-.2,27.48,27.48,0,0,1,4.1.2A5.55,5.55,0,0,1,216.5,16.9Z" transform="translate(-0.1)"/><path class="cls-1" d="M237,25.6c-1-1.5-1.7-1.5-3.2-2.1.1.4,0,.5,0,.5a4.69,4.69,0,0,0-3.3.3c-2.4,1.3-4,3.3-6.2,4.9,1.3.2,5,1.5,7.3.7a3.7,3.7,0,0,1-.5,1.1,10.47,10.47,0,0,1,2.9-1.2c1-.5,1.6-2.7,2.6-3.3C237.4,25.9,237,25.6,237,25.6Zm-1.6.6a24.52,24.52,0,0,0-2.7.2c-1,.2-1.7.3-2.2.4a33.77,33.77,0,0,0-5.2,2.2,36.82,36.82,0,0,1,5.7-2.6,20,20,0,0,1,2.4-.4,18.21,18.21,0,0,1,3.3-.1c-.4.1-.8.2-1.3.3Z" transform="translate(-0.1)"/><path class="cls-1" d="M244.7,35.5c-.6-2-1.4-2.3-2.8-3.4,0,.5-.1.5-.1.5a6.32,6.32,0,0,0-3.8-.9c-3.1.6-5.5,2.3-8.5,3.2,1.4.7,5,3.4,7.8,3.3a5.24,5.24,0,0,1-1,1.1,14.72,14.72,0,0,1,3.6-.4c1.3-.2,2.7-2.4,4-2.8C245,35.9,244.7,35.5,244.7,35.5Zm-2,0a15.54,15.54,0,0,0-3.1-.7,15.82,15.82,0,0,0-2.6-.3c-2.2.1-4.3.3-6.4.6a44.29,44.29,0,0,1,7.2-.9,27,27,0,0,1,2.8.4,22.38,22.38,0,0,1,3.7,1,8.08,8.08,0,0,1-1.6-.1Z" transform="translate(-0.1)"/><path class="cls-1" d="M224.8,18.8a3.35,3.35,0,0,0-2.4-.6c.2.2.1.3.1.3a3.67,3.67,0,0,0-2,.9c-1.2,1.3-1.7,2.9-2.7,4.4.9-.2,3.4-.2,4.6-1.2a2,2,0,0,1-.1.8,4.71,4.71,0,0,1,1.5-1.3c.5-.5.4-2,.9-2.6S224.8,18.8,224.8,18.8Zm-.8.7a7.74,7.74,0,0,0-1.6.7,4.82,4.82,0,0,0-1.2.8c-.9.8-1.8,1.6-2.7,2.5a39.67,39.67,0,0,1,2.9-2.9c.4-.3.9-.5,1.4-.8a11.92,11.92,0,0,1,2-.8,3.51,3.51,0,0,0-.8.5Z" transform="translate(-0.1)"/><path class="cls-1" d="M255.4,21.1c.7-4-2.1-9.6-2.7-11.8-2,4-4.9,6.9-6.4,11.2a8.66,8.66,0,0,0,.3,5.5s-.1.2-.8.1c1.2,2.2,1.5,3.4,4,4.7,0,0,.5.6,1.2-.8.8-1.8,4.2-3.2,4.7-5a21.88,21.88,0,0,1,1.4-5A6.19,6.19,0,0,1,255.4,21.1Zm-5.1-1.3c-.1.8-.1,2.1-.2,3.7a34,34,0,0,0,.3,4.5,8.33,8.33,0,0,1-.3,2.2,32.87,32.87,0,0,1-.5-5.4,26.73,26.73,0,0,1,.1-4c.2-2.1,3-9.8,3-9.8A67.35,67.35,0,0,0,250.3,19.8Z" transform="translate(-0.1)"/><path class="cls-1" d="M229.4,14.4a4.78,4.78,0,0,0-1-2.8c-1.6-1.8-3.8-2.6-5.6-4.1.2,1.2,0,4.6,1.2,6.4a3.6,3.6,0,0,1-1.1-.2,11.79,11.79,0,0,1,1.8,2.1c.6.8,2.6.7,3.4,1.4s.8.1.8.1c1-1.2.9-1.8,1-3.2C229.5,14.4,229.4,14.4,229.4,14.4Zm-1.5,1.8a9.17,9.17,0,0,0-.9-2.3l-.9-1.8A37.85,37.85,0,0,0,223,8.2a36.22,36.22,0,0,1,3.6,4.2,7.22,7.22,0,0,1,.9,2,13.09,13.09,0,0,1,.9,2.8A9.25,9.25,0,0,0,227.9,16.2Z" transform="translate(-0.1)"/><path class="cls-1" d="M234.8,70.7c-.1-1.6-2.7-3.4-3.1-5.1-.3-1.3-.8-.9-.8-.9-2.4.6-2.8,1.6-4.2,3.2.5,0,.6.2.6.2a7.49,7.49,0,0,0-1.3,4.6c.5,3.8,2.4,6.9,3.4,10.6.9-1.7,4.3-5.9,4.4-9.4a4.89,4.89,0,0,1,1.2,1.3A23.28,23.28,0,0,1,234.8,70.7ZM230.9,67a23.55,23.55,0,0,0-1,3.8c-.2,1.4-.4,2.4-.5,3.1a71.44,71.44,0,0,0,.4,8s-.9-7-.7-8.9a18.63,18.63,0,0,1,.7-3.4,25.89,25.89,0,0,1,1.4-4.5C231.1,65.8,231,66.4,230.9,67Z" transform="translate(-0.1)"/><path class="cls-1" d="M219.1,63.6c-1-1-1.6-.9-2.8-1a.35.35,0,0,1,.1.4,4.38,4.38,0,0,0-2.5.8c-1.6,1.4-2.4,3.3-3.9,4.9,1.1-.1,4.1.2,5.8-.8a3.55,3.55,0,0,1-.2,1,9.51,9.51,0,0,1,2-1.5c.7-.6.8-2.3,1.4-3S219.1,63.6,219.1,63.6Zm-1.2.7a17.23,17.23,0,0,0-2.1.7c-.7.3-1.3.6-1.6.7-1.2.8-2.4,1.7-3.6,2.6a40.84,40.84,0,0,1,3.9-3.1,13.35,13.35,0,0,1,1.8-.7,11.7,11.7,0,0,1,2.5-.7,3.6,3.6,0,0,1-.9.5Z" transform="translate(-0.1)"/><path class="cls-1" d="M212,57.1c-1.2-1.4-2-1.4-3.7-1.9a.39.39,0,0,1,0,.5,6.76,6.76,0,0,0-3.7.4c-2.6,1.4-4.2,3.5-6.6,5.1,1.5.1,5.6,1.2,8.2.4a3.38,3.38,0,0,1-.6,1.2,12.32,12.32,0,0,1,3.1-1.4c1.1-.5,1.6-2.7,2.7-3.4S212,57.1,212,57.1Zm-1.8.6a17.09,17.09,0,0,0-3.1.3c-1.1.2-1.9.4-2.4.5a55.47,55.47,0,0,0-5.6,2.4c2-1.1,4.1-2,6.2-2.9a25.58,25.58,0,0,1,2.7-.5,23.08,23.08,0,0,1,3.7-.3,4.42,4.42,0,0,1-1.5.5Z" transform="translate(-0.1)"/><path class="cls-1" d="M200,51c-.9-1.9-1.7-2.1-3.3-3,.1.4-.1.5-.1.5a6.48,6.48,0,0,0-3.9-.3c-3,1-5.2,3.1-8,4.5,1.5.5,5.5,2.6,8.3,2.2a2.73,2.73,0,0,1-.9,1.2,10.59,10.59,0,0,1,3.6-.9c1.3-.4,2.4-2.8,3.6-3.4S200,51,200,51Zm-2,.4a17.33,17.33,0,0,0-3.2-.3,18.58,18.58,0,0,0-2.6.1,49.89,49.89,0,0,0-6.4,1.6,56,56,0,0,1,7-2,14.05,14.05,0,0,1,2.9,0,25.79,25.79,0,0,1,3.9.4c-.5.1-1.1.1-1.6.2Z" transform="translate(-0.1)"/><path class="cls-1" d="M187.1,112.5c7.5-6.2,12.1-20.8,14.7-25.6-9.4,4.1-18.6,5.1-27.5,10.4-5.6,3.3-8.3,10.5-8.3,10.5s-.6.2-1.3-1c-1.7,5.9-3.2,8.4-1.4,14.7,0,0-.2,1.8,3.1.2,4.1-1.9,11.5.6,15.2-1.9,4.6-4.2,7.2-5.1,10-6.9A9.64,9.64,0,0,1,187.1,112.5Zm-5.7-10.1c-1.4,1.3-3.5,3.5-6.2,6.3a80.25,80.25,0,0,0-6.8,8.6s-3.9,4-4,3.6a37.48,37.48,0,0,1,6.7-11.2,68.18,68.18,0,0,1,7.6-7.6c3.7-3.6,20.4-12.4,20.4-12.4S186,98.2,181.4,102.4Z" transform="translate(-0.1)"/><path class="cls-1" d="M56.2,129h8.1v49.2c0,8.7-.8,15-2.3,19a24.69,24.69,0,0,1-10.9,13.1c-5.2,3.1-11.4,4.6-18.6,4.6a43.19,43.19,0,0,1-14.3-2.2,28.8,28.8,0,0,1-10.3-6A35.66,35.66,0,0,1,.6,195.6H9a23.16,23.16,0,0,0,9.1,9,30.3,30.3,0,0,0,13.9,3,28.69,28.69,0,0,0,13.8-3,18.37,18.37,0,0,0,8-7.6c1.6-3,2.4-8,2.4-14.8V179a29.86,29.86,0,0,1-10.9,8.7,32.25,32.25,0,0,1-29.6-1.2A30,30,0,0,1,4.2,175.1a32.34,32.34,0,0,1,.1-31.7,31.55,31.55,0,0,1,11.8-11.7,31.51,31.51,0,0,1,15.8-4.3,30,30,0,0,1,12.9,2.9,34.09,34.09,0,0,1,11.5,9.5Zm-23.3,6a24.77,24.77,0,0,0-12.4,3.3,23.16,23.16,0,0,0-9,9.1,23.79,23.79,0,0,0-3.2,12.5,22.55,22.55,0,0,0,6.8,16.8c4.5,4.4,10.3,6.7,17.4,6.7s12.9-2.2,17.4-6.6,6.6-10.2,6.6-17.4a24.59,24.59,0,0,0-3-12.5,23.16,23.16,0,0,0-8.6-8.7A24.23,24.23,0,0,0,32.9,135Z" transform="translate(-0.1)"/><path class="cls-1" d="M142.9,129v61.7h-8.1V180.1a34.06,34.06,0,0,1-11.2,9.1,31.25,31.25,0,0,1-35.9-6.4,32.17,32.17,0,0,1-9.3-23.1,31.32,31.32,0,0,1,9.3-22.8,30.45,30.45,0,0,1,22.5-9.5,28.86,28.86,0,0,1,13.8,3.2,32.45,32.45,0,0,1,10.8,9.7V129Zm-31.8,6a23.79,23.79,0,0,0-21,12.4,25.32,25.32,0,0,0,0,25,24.56,24.56,0,0,0,8.9,9.2,23.17,23.17,0,0,0,12,3.4,24.4,24.4,0,0,0,12.3-3.3,23.76,23.76,0,0,0,8.9-8.9,25.3,25.3,0,0,0,3.1-12.6,24.42,24.42,0,0,0-7-17.9A23,23,0,0,0,111.1,135Z" transform="translate(-0.1)"/><rect class="cls-1" x="159.6" y="129" width="8.1" height="61.7"/><path class="cls-1" d="M183.9,129H192v11.1a34,34,0,0,1,10.5-9.5,26.5,26.5,0,0,1,12.6-3.2,22.51,22.51,0,0,1,12.3,3.5,21,21,0,0,1,7.9,9.5c1.7,4,2.6,10.2,2.6,18.6v31.8h-8.1V161.4c0-7.1-.3-11.8-.8-14.2-.8-4.1-2.5-7.2-5.2-9.2s-6-3.1-10.2-3.1a19.82,19.82,0,0,0-12.9,4.8,21.92,21.92,0,0,0-7.5,11.8c-.8,3.1-1.1,8.7-1.1,16.8v22.6H184V129Z" transform="translate(-0.1)"/><path class="cls-1" d="M401.8,171.7l6.7,3.5a37.15,37.15,0,0,1-7.6,10.4,30.35,30.35,0,0,1-9.7,6,33.69,33.69,0,0,1-12.2,2.1c-10.1,0-18-3.3-23.6-9.9a33.6,33.6,0,0,1-8.5-22.4,32.38,32.38,0,0,1,7.2-20.9c6.1-7.8,14.3-11.7,24.5-11.7q15.75,0,25.2,12c4.5,5.6,6.7,12.7,6.8,21.1H355c.2,7.2,2.4,13.1,6.9,17.6a22.14,22.14,0,0,0,16.4,6.9,29.19,29.19,0,0,0,9.2-1.6,23.24,23.24,0,0,0,7.6-4.4A38.08,38.08,0,0,0,401.8,171.7Zm0-16.7a27.69,27.69,0,0,0-4.6-10.2,22.77,22.77,0,0,0-8-6.1,25.47,25.47,0,0,0-10.5-2.3,22.75,22.75,0,0,0-15.7,5.9c-3.2,2.8-5.6,7.1-7.2,12.8Z" transform="translate(-0.1)"/><path class="cls-1" d="M486.9,130.4v61.8h-7.8V181.6a34.06,34.06,0,0,1-11.2,9.1,31.44,31.44,0,0,1-36-6.4,31.77,31.77,0,0,1-9.3-23.1,31.42,31.42,0,0,1,9.4-22.8,30.45,30.45,0,0,1,22.5-9.5,28.86,28.86,0,0,1,13.8,3.2,31.41,31.41,0,0,1,10.8,9.7V130.5h7.8Zm-31.8,6.1A23.94,23.94,0,0,0,434,148.9a25.43,25.43,0,0,0,9,34.2,23.42,23.42,0,0,0,12.1,3.3,24.77,24.77,0,0,0,12.4-3.3,22.66,22.66,0,0,0,9-8.9,25.3,25.3,0,0,0,3.1-12.6,24.35,24.35,0,0,0-7.1-17.9,22.81,22.81,0,0,0-17.4-7.2Z" transform="translate(-0.1)"/><rect class="cls-1" x="503.5" y="106.6" width="8" height="85.6"/><polygon class="cls-1" points="534.9 107.5 542.9 107.5 542.9 130.4 555.5 130.4 555.5 137.3 542.9 137.3 542.9 192.2 534.9 192.2 534.9 137.3 524 137.3 524 130.4 534.9 130.4 534.9 107.5"/><path class="cls-1" d="M567.4,106.6h8v34.9A33.31,33.31,0,0,1,586,132a24.93,24.93,0,0,1,12.5-3.1,22.27,22.27,0,0,1,12.3,3.5,21.22,21.22,0,0,1,7.9,9.4c1.7,4,2.5,10.1,2.5,18.6v31.8h-8V162.7c0-7.1-.3-11.9-.8-14.2-1-4.1-2.8-7.2-5.4-9.2a16.21,16.21,0,0,0-10.1-3.1,19.37,19.37,0,0,0-13,4.8,22.51,22.51,0,0,0-7.5,11.8c-.8,3-1.1,8.6-1.1,16.8v22.6h-8Z" transform="translate(-0.1)"/></svg>