<svg xmlns="http://www.w3.org/2000/svg" viewBox="0 0 220.95 87.06"><defs><style>.cls-1{fill:#fff;}</style></defs><title>title-9-iberowine</title><g id="Layer_4" data-name="Layer 4"><path class="cls-1" d="M13,37.23a19,19,0,0,1-.09,3.25c-.06.24.08.39.32.65l.32.38a.46.46,0,0,1,.1.4.25.25,0,0,1-.22.18v.19c.12.58-.37.78-.76.94a1.8,1.8,0,0,0-.78.49l-.63,1.16c-.2.45-.33.75-.49.82A46.29,46.29,0,0,0,9,50.48a3,3,0,0,1-.87,1.06l-.42.4-.57.49a1.72,1.72,0,0,0-.17.15l0,.21a1.43,1.43,0,0,1-.24,1.32,1.25,1.25,0,0,0-.2.75,3.33,3.33,0,0,1-.29,1.23,2.8,2.8,0,0,0-.41,2.09c.1.21.28.23.74.23l.71.05c.38.08.49-.11.67-.65s.34-1,1.23-.85a.84.84,0,0,1,.62.46,1.09,1.09,0,0,1,.1.49,1.52,1.52,0,0,1-.14.63,1,1,0,0,1-.48.44v0c-.05.26-.32.5-.86.73a.94.94,0,0,1-.85.06,1.52,1.52,0,0,1,.12.81s0,.37,0,.55,0,.1,0,.1.21.07,1.05-.36l.31-.17a1.62,1.62,0,0,1,1.34-.26l.63.33,0,.62,0,.25a.67.67,0,0,1-.36.55.68.68,0,0,1-.12.08l.07.12a1.19,1.19,0,0,1,.16.69,10.82,10.82,0,0,1-.67,3,.29.29,0,0,0,0,.13,1.19,1.19,0,0,0,.16.46,8.2,8.2,0,0,1,.12,1.86,17,17,0,0,1-.24,3.37l-.76,1.74-.59,1.26a1.09,1.09,0,0,0,.56.23.91.91,0,0,0,.68-.11,3.54,3.54,0,0,1,2.5-.32l.8,0a3.15,3.15,0,0,1,2.6.74c.82,1,1.13,1,1.51.87a3.86,3.86,0,0,0,1-.72A6.66,6.66,0,0,1,20,74.5a5.58,5.58,0,0,1,3-.29l.8.07a2.35,2.35,0,0,1,1.19.24l3.14,2.33c.83.7,1.19,1,1,2a1.9,1.9,0,0,0,.11,1.48c.06.13.07.13.22.12a1,1,0,0,1,.79.21l.26.47a.71.71,0,0,1,0,.08,2.43,2.43,0,0,1-.61,1.28,11.64,11.64,0,0,1-1.63,3.07c.88.61,2.11,1.22,2.44.81L31,86a3.65,3.65,0,0,1,1.44-1.23l.57-.06c.3.11.43.44.54.72.05.13.16.4.22.4a.78.78,0,0,1,.63.41c.19.25.31.42.9.16.82-.37,1.55-1.61,2.13-2.61l.61-1a1,1,0,0,1,1.12-.48,1.48,1.48,0,0,0,1.36-.51,10.56,10.56,0,0,1,5-2.24c.64-.07,2.33,0,4,0,1.48.05,3,.11,3.39,0L54,79.36l1.75-.48a2,2,0,0,1,1.52.37l.63.32a.85.85,0,0,0,.66,0c.23-.12.44-.46.65-1.1a1.18,1.18,0,0,1,.58-.77,1.41,1.41,0,0,1,1.13.16l.47.17a2.59,2.59,0,0,1,1,.59,2.55,2.55,0,0,0,.5.36l.69-.91.7-.77A11.42,11.42,0,0,0,65.52,75a13.36,13.36,0,0,1,1.2-2.37A1.76,1.76,0,0,1,68,71.77c.21,0,.27,0,.34-.22.38-1,3.65-.83,4.16-.74,0,0,.2,0,.21,0l-.1-1.3a1.66,1.66,0,0,1,.05-.64l.45.35a1.2,1.2,0,0,0,0,.29l.06.88c0,.35.08.6-.1.77a.74.74,0,0,1-.66.1c-1-.17-3.45,0-3.62.44a.8.8,0,0,1-.72.53,1.28,1.28,0,0,0-.94.62A13.17,13.17,0,0,0,66,75.15a11.39,11.39,0,0,1-1.31,2.51l-.72.79-.61.79a.47.47,0,0,1-.32.27c-.29.06-.59-.18-.94-.46a2.3,2.3,0,0,0-.78-.49l-.57-.2c-.27-.12-.55-.24-.73-.16a.75.75,0,0,0-.31.47c-.26.79-.53,1.2-.9,1.39a1.31,1.31,0,0,1-1,0L57,79.67a1.47,1.47,0,0,0-1.19-.29l-1.64.46-1.2.36a32.86,32.86,0,0,1-3.49,0c-1.62-.06-3.29-.12-3.89-.05a10,10,0,0,0-4.75,2.12,2,2,0,0,1-1.74.63.55.55,0,0,0-.66.28l-.59,1c-.62,1.06-1.39,2.38-2.36,2.81s-1.3,0-1.51-.32-.16-.2-.22-.2c-.4,0-.56-.4-.68-.71s-.16-.41-.25-.44l-.17,0a3.16,3.16,0,0,0-1.28,1.1l-.27.33c-.79,1-2.91-.55-3.32-.87l-.2-.15.15-.2a12.54,12.54,0,0,0,1.72-3.17v-.06l0,0a1.9,1.9,0,0,0,.51-1L30,81.05a.51.51,0,0,0-.44-.11.61.61,0,0,1-.72-.39,2.36,2.36,0,0,1-.16-1.79c.11-.66,0-.85-.86-1.54l-3.1-2.3a2.12,2.12,0,0,0-.93-.15l-.88-.08a5.17,5.17,0,0,0-2.7.26A6.32,6.32,0,0,0,18.71,76a3.56,3.56,0,0,1-1.16.84c-.7.17-1.21-.09-2-1a2.76,2.76,0,0,0-2.21-.57l-.89,0a2.94,2.94,0,0,0-2.12.22,1.66,1.66,0,0,1-1.61,0c-.34-.17-.41-.36-.41-.49a6.06,6.06,0,0,1,.63-1.53l.74-1.69a22.51,22.51,0,0,0,.15-4.85,1.11,1.11,0,0,1-.13-1c.19-.39.85-2.77.56-3.14l-.16-.5.33-.42c.09-.06.15-.11.15-.14l.1-.6-.3-.11a1.15,1.15,0,0,0-1,.19L9,61.38c-.66.33-1.45.65-1.69.16l-.09-.91a2.75,2.75,0,0,1,0-.52s-.51-.51-.36-.87a.39.39,0,0,1,.4-.23.54.54,0,0,1,.48.3c.06.1.1.16.51,0s.52-.3.54-.33l-.22-.22L9,58.61a.8.8,0,0,0,.4-.29,1,1,0,0,0,.08-.41.64.64,0,0,0-.05-.27.35.35,0,0,0-.27-.19c-.44-.09-.51.06-.68.58s-.36,1.08-1.21.91l-.61,0c-.44,0-.94,0-1.19-.5a1.47,1.47,0,0,1-.13-.65,4.74,4.74,0,0,1,.54-1.89,2.9,2.9,0,0,0,.24-1.06,1.6,1.6,0,0,1,.34-1.05.6.6,0,0,0,.15-.44,2.73,2.73,0,0,0-.05-.44l0-.3c0-.28.17-.41.37-.56l.52-.44.43-.41a2.82,2.82,0,0,0,.73-.85c.38-1.13,1.64-4.85,2-5l.32-.62.7-1.28a2.29,2.29,0,0,1,1-.64c.38-.16.46-.22.46-.32a.33.33,0,0,0,0-.06,1.14,1.14,0,0,1,0-.24.46.46,0,0,1,.3-.46l-.1.11-.26-.31a1.31,1.31,0,0,1-.48-.89.93.93,0,0,1,0-.23,13.39,13.39,0,0,0,.09-2c0-.55,0-1.11,0-1.53Z"/><path class="cls-1" d="M79.44,59.85c.52-.36.91-.6.91-1a.28.28,0,0,0,0-.05c-.08-.38-.37-.46-.87-.56l-.3-.06c-.44-.11-1.2-.89-2.26-2.32l-.24-.8a1.6,1.6,0,0,0-.55-1.21,1.83,1.83,0,0,1-.58-1.34,5,5,0,0,1,.81-2.22l2-2.85-1.57,3.09c-.71,1.28-1.11,2.17-.31,3a2.07,2.07,0,0,1,.7,1.54l.14.53c1.11,1.48,1.75,2.07,2,2.13l.28.06c.47.09,1.12.22,1.27.95s-.11.81-.83,1.31Z"/></g><g id="Layer_1" data-name="Layer 1"><path class="cls-1" d="M20.55,45.11c0,.05,2.92,3.6,2.87,3.65a36,36,0,0,0-3.8-2.64c-2.49-1.38-5.25-2.52-6.8-1,0,0-2.68,2.46,0,4.25,1,.58,2.91-.37,2.82-1.34-.06-.29-.23-.93-1-.83.8-.29,1.22.43,1.21,1.07a2.43,2.43,0,0,1-3.83,1.1,2.87,2.87,0,0,1-.43-4.13c.83-1.25,2.38-2.6,5.85-1.45a24.2,24.2,0,0,1,2.65,1.05A2.46,2.46,0,0,1,20.55,45.11Z"/><path class="cls-1" d="M24.69,49.61l1.5-.08c-.09-.31-6.27-7.81-6.27-7.81,1,1.45-9.06-13.46-19.92-9.37,3.37-.55,9.2-3,20.84,12.36C20.82,44.7,24.69,49.69,24.69,49.61Z"/><path class="cls-1" d="M30.25,56.11c4,3.07,8.22,5.4,12.92,2.23a8.29,8.29,0,0,0,.39-1.4c-2.66,1.8-6.12,2.94-11.15-.94C32.41,56,31,56.11,30.25,56.11Z"/><path class="cls-1" d="M33.24,49.41c3.16-1.84,7.07-3.24,10.9,1,0,0,0,.41,0,.55-2.28-2.8-5.74-3.65-9.42-1.11A8.14,8.14,0,0,0,33.24,49.41Z"/><path class="cls-1" d="M34,50.87c1.69.63,1.3,1.52.2,1.73C35.67,51.81,34,50.87,34,50.87Z"/><path class="cls-1" d="M27.13,32.75c2.94,6,3.07,11.39.76,17.83C30.17,46.27,32.48,38.26,27.13,32.75Z"/><path class="cls-1" d="M36.76,30.52c-5.35,3.62-5.7,13.31-3.2,20.82C30.82,45.81,28.84,34.84,36.76,30.52Z"/><path class="cls-1" d="M22.22,52.08c1.72,3.62,10.25,3.31,13.69,2.16,2.46-.82,2.6-3.13-.77-3.72,4.1.1,3.61,3.53.68,4.41s-12.4,1.67-14.35-1.56c-1.39-2.36,3.37-3.58,6.26-3.48C24.84,49.87,21.72,50.87,22.22,52.08Z"/><path class="cls-1" d="M31.19,31.83c-7.14,2.3-14.67-5.72-11.31-13.14C18.17,27.2,25.64,33.47,31.19,31.83Z"/><path class="cls-1" d="M29.74,17.48C33.19,16.7,45.1,13.69,46,16.36c1.36,3.88-18.66,6.95-25.46,3.72,7.75,2.43,25.78-1.63,23.95-3.67C43.07,14.81,32.43,17.43,29.74,17.48Z"/><path class="cls-1" d="M46,17.6c1.81,7.91-7,14.22-15,12.8C38.65,31.18,46.31,25.28,46,17.6Z"/><path class="cls-1" d="M31.66,51.57c-.41-.69.33-.93.77-.67.75.44.26,1.29-1.79,1.42s-3.86-.12-3.62-.88a.69.69,0,0,1,.6-.3c-.46-.07-1.06.3-.8.8s1.9,1.11,4.11.83c2.82-.35,2.55-1.6,1.79-1.93s-1.39-.07-1.26.46A.61.61,0,0,0,31.66,51.57Z"/><path class="cls-1" d="M21.16,24.24c3.27,2.69,6.29,2.11,9.65,1.77C26.34,26.29,24,25.84,21.16,24.24Z"/><path class="cls-1" d="M32.42,25.79a14.82,14.82,0,0,0,10.46-4.9A12.27,12.27,0,0,1,32.42,25.79Z"/><path class="cls-1" d="M20.66,21.32c3.4,3.09,7.65,2.07,10,1.63-1.87.65-8,1.87-9.93-1.57C20.7,21.38,20.7,21.39,20.66,21.32Z"/><path class="cls-1" d="M24.05,27.87l0,.06A5.92,5.92,0,0,0,31,29.75C28.5,30.52,25.82,29.35,24.05,27.87Z"/><path class="cls-1" d="M25.71,56.11c-2.42,2.26-2,8.26-.81,10.61,3.53,6.9,11.17,5.43,13.4,2.12,2-3-1.17-7.63-6.34-2.92,4.08-2.78,5.67-1.21,5.9-.22.84,3.68-5.33,6.6-9.72,2.88-2.13-1.8-4.41-7.11.46-12.25A21.51,21.51,0,0,1,25.71,56.11Z"/><path class="cls-1" d="M52.43,13.87,53,14c.37.13,1.35.59,1.83.77,7.48,3.45,13.13,1.71,13.5-2.66.3-3.47-1.94-6.33-4.4-8.89,2.74,2.93,6.07,7.5,2.74,11.2-2.38,2.35-6.94,2-12.34-.42l-.5-.23-.67-.25-.79-.28Z"/><path class="cls-1" d="M48.88,13.11a9.58,9.58,0,0,1-1.38.4l-.58.15A12.41,12.41,0,0,1,43,13.53a21.41,21.41,0,0,1-4.4-1A5.34,5.34,0,0,0,37,12.31,3.24,3.24,0,0,1,35.34,12a2.22,2.22,0,0,1-.6-.7,3.47,3.47,0,0,1-1.37.47,67.67,67.67,0,0,1-9.17,0c-.69-.1-.79-.37-.86-.74l-.25-.58s-.28-.3-.34-.28l-.55.1a1.21,1.21,0,0,1-.85-.29l-.24-.11-.6.26-.54.27a.39.39,0,0,1-.37,0,.37.37,0,0,1-.12-.34c0-.11,0-.14-.17-.17a.71.71,0,0,0-.49,0,.54.54,0,0,1,0,.16.67.67,0,0,1-.1.38.68.68,0,0,1-.61.27,1.11,1.11,0,0,0-1,.57l.13.17.41.72a1.61,1.61,0,0,1,.05.39.82.82,0,0,1-.16.52,1.13,1.13,0,0,1-.95.35l-.81,0h-.1a1.16,1.16,0,0,1-.65.32l-1.18.39c-.3.15-.93-.16-1.46-.48a.15.15,0,0,0-.12.16c0,.39,0,.93-.79.93h-.81l-.5.86a2,2,0,0,0-.42.74h0a4,4,0,0,1,.86,1.15c.09.17.09.17.39.14H12c.12,0,.5.07.58.37a.4.4,0,0,1,0,.11c0,.31-.35.6-.66.85l-.2.18a1.47,1.47,0,0,0-.37.81.27.27,0,0,0,0,0s.05.07.08.09l0-.09.41-.77c.16-.25.34-.49.59-.46s.32.26.39.48l.24.5c.31.41.31.57.18.87l-.14.42-.05.25c-.1.45-.11.51.26.88s.4.52.34.82v.54a.92.92,0,0,1-.72,1s-.24.12-.23.1a.62.62,0,0,1-.4.57c-.14.08-.24.13-.29.31-.1.39.06.57.75,1.26.2.2.4.43.31.67s-.36.24-.65.25l-.44,0a.18.18,0,0,0,0,.08,2.36,2.36,0,0,0,.34,1s.13.2.17.27a3.11,3.11,0,0,1,0,1.42,11.31,11.31,0,0,0,0,2.21l.13,1-.57-.45a6.06,6.06,0,0,1-.18-1.42,12.52,12.52,0,0,1,.1-1.35,7.48,7.48,0,0,0,.06-.76.86.86,0,0,0-.09-.46,3.74,3.74,0,0,1-.48-1.45.69.69,0,0,1,0-.28.47.47,0,0,1,.32-.27l.62-.06-.05-.06c-.58-.58-.92-.93-.92-1.42a1.39,1.39,0,0,1,0-.32.94.94,0,0,1,.53-.63c.14-.08.14-.09.14-.13,0-.33.31-.46.54-.56s.43-.2.43-.39a.54.54,0,0,0,0-.09v-.72a.45.45,0,0,0,0-.08c0-.07,0-.12-.21-.29a1.19,1.19,0,0,1-.47-.86,2.31,2.31,0,0,1,.07-.48l.05-.24s.17-.52.21-.62L12.68,20l-.31-.64v0l-.09.11-.37.69c-.09.22-.17.39-.36.44a.52.52,0,0,1-.44-.11.63.63,0,0,1-.28-.49,1.86,1.86,0,0,1,.51-1.26l.24-.21c.14-.11.45-.37.5-.4l-.2-.05H11.1a.73.73,0,0,1-.89-.41,3.51,3.51,0,0,0-.76-1c-.4-.4.2-1.19.37-1.39l.62-1.08h1.09c.29,0,.29,0,.29-.43a.68.68,0,0,1,.58-.7h.09l.08,0a4.12,4.12,0,0,0,1.11.54l1.27-.43.3-.11L15.18,13l.69-.1.76,0a.71.71,0,0,0,.55-.16.59.59,0,0,0,0-.48l-.3-.51-.25-.51a1.47,1.47,0,0,1,1.47-1.07.26.26,0,0,0,.19-.05.41.41,0,0,0,0-.29l0-.11.05-.1c0-.07.26-.43,1.08-.27.42.08.51.31.54.49l.32-.16.86-.33.54.22a.74.74,0,0,0,.54.19l.39-.07c.37-.13.54,0,.89.44l.35.8c0,.23.05.28.44.34a68.21,68.21,0,0,0,9,0c1.15-.21,1.3-.48,1.3-.49l.31-.67.17.66a1.68,1.68,0,0,0,.59.82,3.29,3.29,0,0,0,1.35.22,5.58,5.58,0,0,1,1.81.29,21.11,21.11,0,0,0,4.28.93,12.23,12.23,0,0,0,3.68.15l.62-.16a6.31,6.31,0,0,0,1.45-.46Z"/><path class="cls-1" d="M61.81,1.17,61.48.84Z"/><path class="cls-1" d="M61.81,1.17c.68.68,1.39,1.38,2.08,2.1C63.09,2.41,62.33,1.69,61.81,1.17Z"/><path class="cls-1" d="M33.21,47.3C39.1,45.65,61.58,24.57,46.11,0c10.19,15.42,1.31,38.83-13.18,47.34"/></g><g id="Layer_8" data-name="Layer 8"><path class="cls-1" d="M62.79,44.74,61.11,40.1h.78l1.25,3.69,1.37-3.69H65l1.32,3.69,1.27-3.69h.69l-1.68,4.64H66l-1.29-3.51L63.4,44.74Z"/><path class="cls-1" d="M70.82,44.74V40.1h.78v4.64Z"/><path class="cls-1" d="M75.07,44.74V40.1h.49L79,43.21l.25.25.27.33c0-.15,0-.31-.05-.47s0-.39,0-.67V40.1h.7v4.64h-.43l-3.56-3.23-.08-.07a2,2,0,0,1-.39-.45c0,.14,0,.29,0,.45s0,.35,0,.56v2.74Z"/><path class="cls-1" d="M83.66,44.74V40.1h4.47v.63H84.44V42h2.25v.61H84.44V44.1h3.72v.64Z"/><path class="cls-1" d="M98.45,44.47a1,1,0,0,1-.33.22,1.51,1.51,0,0,1-.48.06H96.11a1.19,1.19,0,0,1-.86-.23,1.26,1.26,0,0,1-.22-.87v-.3a1,1,0,0,1,.1-.48,1.32,1.32,0,0,1,.44-.39l.88-.57a1.31,1.31,0,0,1-.29-.34.75.75,0,0,1-.09-.36v-.26a.79.79,0,0,1,.24-.65,1.39,1.39,0,0,1,.84-.19H98a1.31,1.31,0,0,1,.85.2,1,1,0,0,1,.22.73v.25l-.61.11v-.73H96.74v.68L99,43.19l1.08-1,.4.38-1,1,1.47,1.21h-1L99,44Zm-2.76-.32h2.24l.6-.56-1.66-1.33-1.18.84Z"/><path class="cls-1" d="M111.89,40.74h-3.28V42h2.92a1.18,1.18,0,0,1,.84.23,1.23,1.23,0,0,1,.23.86v.52a1.27,1.27,0,0,1-.22.87,1.18,1.18,0,0,1-.84.23h-2.71a1.22,1.22,0,0,1-.86-.23,1.23,1.23,0,0,1-.23-.86v-.13l.72-.17v.75h3.44V42.71H109a1.19,1.19,0,0,1-.85-.23,1.27,1.27,0,0,1-.22-.87v-.4a1.28,1.28,0,0,1,.22-.87,1.18,1.18,0,0,1,.85-.23h2.47a1.21,1.21,0,0,1,.85.23,1.1,1.1,0,0,1,.23.8v.1l-.66.19Z"/><path class="cls-1" d="M116,44.74V40.1h3.74a1.08,1.08,0,0,1,.75.21.91.91,0,0,1,.23.69v1a.89.89,0,0,1-.23.68,1.08,1.08,0,0,1-.75.21h-3v1.81Zm3.44-4H116.8v1.61h2.66a.54.54,0,0,0,.39-.11.52.52,0,0,0,.11-.38V41.2a.52.52,0,0,0-.11-.37A.54.54,0,0,0,119.45,40.71Z"/><path class="cls-1" d="M123.69,44.74V40.1h.78v4.64Z"/><path class="cls-1" d="M127.94,44.74V40.1h3.74a1.08,1.08,0,0,1,.75.21.91.91,0,0,1,.23.69v1a.9.9,0,0,1-.23.69,1.08,1.08,0,0,1-.75.21H131l2.12,1.81H132l-1.88-1.81h-1.36v1.81Zm3.44-4h-2.66v1.61h2.66a.56.56,0,0,0,.39-.1.5.5,0,0,0,.11-.36v-.67a.5.5,0,0,0-.11-.37A.55.55,0,0,0,131.38,40.71Z"/><path class="cls-1" d="M135.86,44.74V40.1h.78v4.64Z"/><path class="cls-1" d="M141.89,40.74v4h-.77v-4H139V40.1h5v.64Z"/><path class="cls-1" d="M150.36,40.74h-3.28V42H150a1.18,1.18,0,0,1,.84.23,1.23,1.23,0,0,1,.23.86v.52a1.26,1.26,0,0,1-.22.87,1.17,1.17,0,0,1-.84.23H147.3a1.22,1.22,0,0,1-.86-.23,1.23,1.23,0,0,1-.23-.86v-.13l.72-.17v.75h3.44V42.71h-2.9a1.18,1.18,0,0,1-.85-.23,1.27,1.27,0,0,1-.22-.87v-.4a1.28,1.28,0,0,1,.22-.87,1.18,1.18,0,0,1,.85-.23h2.47a1.21,1.21,0,0,1,.85.23,1.09,1.09,0,0,1,.23.8v.1l-.66.19Z"/><path class="cls-1" d="M162.87,40.74h-3.28V42h2.92a1.18,1.18,0,0,1,.84.23,1.23,1.23,0,0,1,.23.86v.52a1.27,1.27,0,0,1-.22.87,1.18,1.18,0,0,1-.84.23h-2.71a1.22,1.22,0,0,1-.86-.23,1.23,1.23,0,0,1-.23-.86v-.13l.72-.17v.75h3.44V42.71H160a1.18,1.18,0,0,1-.85-.23,1.27,1.27,0,0,1-.22-.87v-.4a1.28,1.28,0,0,1,.22-.87,1.18,1.18,0,0,1,.85-.23h2.47a1.21,1.21,0,0,1,.85.23,1.09,1.09,0,0,1,.23.8v.1l-.66.19Z"/><path class="cls-1" d="M167,44.74V40.1h4.47v.63h-3.69V42H170v.61h-2.25V44.1h3.72v.64Z"/><path class="cls-1" d="M174.41,44.74V40.1h.78v4h3.5v.64Z"/><path class="cls-1" d="M181.34,44.74V40.1h4.47v.63h-3.69V42h2.25v.61h-2.25V44.1h3.72v.64Z"/><path class="cls-1" d="M192.66,40.74h-3.2V44.1h3.2V42.93l.78.16v.55a1.26,1.26,0,0,1-.22.87,1.22,1.22,0,0,1-.86.23h-2.59a1.2,1.2,0,0,1-.85-.23,1.24,1.24,0,0,1-.23-.87V41.21a1.25,1.25,0,0,1,.23-.87,1.19,1.19,0,0,1,.85-.23h2.59a1.21,1.21,0,0,1,.86.23,1.28,1.28,0,0,1,.22.88v.44l-.78.14Z"/><path class="cls-1" d="M198.34,40.74v4h-.77v-4h-2.11V40.1h5v.64Z"/><path class="cls-1" d="M202.86,44.74V40.1h.78v4.64Z"/><path class="cls-1" d="M207,41.21a1.27,1.27,0,0,1,.22-.87,1.18,1.18,0,0,1,.86-.23h3.2a1.19,1.19,0,0,1,.85.23,1.26,1.26,0,0,1,.23.87v2.44a1.24,1.24,0,0,1-.23.87,1.21,1.21,0,0,1-.85.23h-3.2a1.19,1.19,0,0,1-.86-.23,1.24,1.24,0,0,1-.22-.86Zm.77,2.89h3.83V40.74h-3.83Z"/><path class="cls-1" d="M215.84,44.74V40.1h.49l3.46,3.1.25.25.27.33c0-.15,0-.31-.05-.47s0-.39,0-.67V40.1h.7v4.64h-.43L217,41.52l-.08-.07a2,2,0,0,1-.39-.45c0,.14,0,.29,0,.45s0,.35,0,.56v2.74Z"/></g><g id="Layer_7" data-name="Layer 7"><path class="cls-1" d="M73.15,15.61A2.08,2.08,0,0,1,75,17a5.71,5.71,0,0,1,.53,2.46,18.86,18.86,0,0,1-1.77,7.1A28.23,28.23,0,0,1,70.11,33a16,16,0,0,0,6.55,6.59,16.08,16.08,0,0,1-6.92-6.15,9.34,9.34,0,0,1-4.32,3.24,14.12,14.12,0,0,1-5.34,1,9.59,9.59,0,0,1-4.72-1.15,4.26,4.26,0,0,1-2.55-3.83,4.61,4.61,0,0,1,2.67-4.17,10.46,10.46,0,0,1,5.12-1.21,6.41,6.41,0,0,1,3.32.81A3.12,3.12,0,0,1,65.58,31a3.27,3.27,0,0,1-2,3,7.6,7.6,0,0,1-3.82.87,6.78,6.78,0,0,1-5.29-2.69,7.05,7.05,0,0,0,5.51,2.23,6.8,6.8,0,0,0,3.35-.78A3,3,0,0,0,65,30.87a2.54,2.54,0,0,0-1.62-2.4,6.53,6.53,0,0,0-3-.62A9.26,9.26,0,0,0,55.77,29a4.21,4.21,0,0,0-2.42,3.8,3.79,3.79,0,0,0,2.24,3.33,7.9,7.9,0,0,0,4.1,1.12q5.43,0,9.19-5.45A13,13,0,0,1,67.57,26a16.51,16.51,0,0,1,1.37-6.32Q70.61,15.61,73.15,15.61Zm-.44.56q-1.12,0-2.48,2.15A13.91,13.91,0,0,0,68.12,26a11.31,11.31,0,0,0,1.12,5.26,42.81,42.81,0,0,0,3-6.6,22.44,22.44,0,0,0,1.8-6.85Q74.05,16.17,72.72,16.17Z"/><path class="cls-1" d="M82.22,29.34a8.37,8.37,0,0,1-1.58,4.58q-1.77,2.62-3.85,2.62T74.7,34.61a9.48,9.48,0,0,1,.9-3l5-12h1.71L77.9,30.37Q79.61,28,81,28a1.17,1.17,0,0,1,.9.37A1.34,1.34,0,0,1,82.22,29.34Zm-6.46,6.1a.54.54,0,0,0,.29.47,1.12,1.12,0,0,0,.6.19q.9,0,2.67-3.08T81,29c0-.29-.14-.44-.4-.44q-1,0-2.92,2.91T75.76,35.45Z"/><path class="cls-1" d="M122.22,32.28c.27-.5,1.28-2.29,1.59-2.73A3.15,3.15,0,0,1,126.27,28c.58,0,.87.31.87.93a7.81,7.81,0,0,1-.68,2.49q1.12-1.68,1.52-2.15A2.93,2.93,0,0,1,130.06,28a1.26,1.26,0,0,1,.79.28.87.87,0,0,1,.36.72A11.31,11.31,0,0,1,130,32.57a12.64,12.64,0,0,0-1.18,3.25c0,.17.1.29.28.25,1.53-.33,1.08-3.37,5-2.94a.91.91,0,0,1-.19.33c-2.88-1-3.42,2.31-4.17,2.71a2.24,2.24,0,0,1-1.14.36,1.33,1.33,0,0,1-1-.36,1,1,0,0,1-.4-.76,13.5,13.5,0,0,1,1.2-3.41,20.5,20.5,0,0,0,1.19-3.22.14.14,0,0,0-.12-.16.59.59,0,0,0-.33.08c-.64.23-1.56,1.37-2.63,3.39a37.67,37.67,0,0,0-2,4.36h-1.83q1.43-3.55,2.92-7.69a.18.18,0,0,0-.05-.17c-.1-.09-.25,0-.25,0a5.92,5.92,0,0,0-1.59,1.68,14.39,14.39,0,0,0-1.39,2.23c-.22.48-1.19,2.38-1.44,2.71a2.61,2.61,0,0,1-2.08,1.31c-.79,0-1.18-.29-1.18-.87a10.85,10.85,0,0,1,1.27-3.71,13,13,0,0,0,1.27-3.24c0-.15-.08-.22-.25-.22q-.53,0-1.44,1.59c-.61,1.06-1.55,2.49-2.54,1.46l.12-.13c1.14,1,1.64-1.1,2.43-2s1.54-1.32,2.1-1.32q1.09,0,1.09.84a10.94,10.94,0,0,1-1.29,3.77,14.41,14.41,0,0,0-1.29,3.18c0,.15.09.22.28.22q.56,0,1.49-1.59C121.52,33.39,122,32.77,122.22,32.28Z"/><path class="cls-1" d="M123.34,24.45a1.23,1.23,0,0,1-.4.91,1.31,1.31,0,0,1-.95.38,1.21,1.21,0,0,1-.9-.4,1.32,1.32,0,0,1-.38-.95,1.22,1.22,0,0,1,.4-.91,1.31,1.31,0,0,1,.94-.38,1.2,1.2,0,0,1,.9.41A1.34,1.34,0,0,1,123.34,24.45Z"/><path class="cls-1" d="M85,33.18c-1-.12-2.76-.28-3.2-4.41,0,3,.93,4.56,3,4.71C84.85,33.47,85.12,33.47,85,33.18Z"/><path class="cls-1" d="M134.51,36.12a.77.77,0,0,1-.67-.47,1.8,1.8,0,0,1-.26-.87,2.78,2.78,0,0,1,.4-1.28,5.43,5.43,0,0,0,3.26-1,3.4,3.4,0,0,0,1.55-2.87A1.43,1.43,0,0,0,137.15,28a4.74,4.74,0,0,0-3.63,2.15,6.44,6.44,0,0,0-1.61,4,2.29,2.29,0,0,0,.65,1.67,2.13,2.13,0,0,0,1.65.67c1.44,0,3.86-2,4.44-3C138.64,33.56,136.18,36.11,134.51,36.12Zm2.61-7.69q.53,0,.53.5a4.77,4.77,0,0,1-1.05,2.62q-1.15,1.59-2.24,1.59h-.22Q136,28.43,137.12,28.43Z"/><path class="cls-1" d="M101.73,29.14c-.35.5-5.35,4.5-6.31,1.56,0,0,.1,0,.09,0,1.23,2.81,6-2.16,6.83-2.34Z"/><path class="cls-1" d="M116.15,28q-1.21,0-1.21,1.59a2.8,2.8,0,0,0,1,2,15.45,15.45,0,0,1-1.58,2.77Q113,36.16,112,36.16c-.25,0-.37-.09-.37-.28l3.2-7.75H113q-3.17,7.82-4.56,7.79a.34.34,0,0,1-.14,0,.1.1,0,0,1,0-.08,14.35,14.35,0,0,1,1.26-3.22,11.52,11.52,0,0,0,1.26-3.66c0-.58-.36-.87-1.09-.87a2.75,2.75,0,0,0-2.16,1.29c-.71,1-1.36,3-2.38,2.65l0,.2c1.11.23,1.8-1.06,2.46-2.12s1.13-1.59,1.44-1.59a.19.19,0,0,1,.22.22,12.26,12.26,0,0,1-1.21,3.07,10.29,10.29,0,0,0-1.21,3.5,1.36,1.36,0,0,0,.34.86,1,1,0,0,0,.78.42,2.1,2.1,0,0,0,1.4-.84l1.09-1.4a2.24,2.24,0,0,0-.13.78,1.36,1.36,0,0,0,.45,1.06,1.64,1.64,0,0,0,1.13.4q1.55,0,3.44-2.93a9,9,0,0,0,1.77-4.39C117.12,28.39,116.8,28,116.15,28Zm0,3.39c-.78-.78-1.06-2.11-.28-2.56C116.8,28.25,116.94,30,116.11,31.36Z"/><path class="cls-1" d="M105,28q-1.49,0-1.49,2.12a2,2,0,0,0,1.55,2,7.89,7.89,0,0,1-1.21,2.27q-1,1.4-2,1.4t-1-1.12a9.17,9.17,0,0,1,1-3.52,10.69,10.69,0,0,1,2-3.18.75.75,0,0,0-.25-.09c-1-.06-2.16.73-3.14,2.18a7.1,7.1,0,0,0-1.3,3.8,2.87,2.87,0,0,0,.56,1.71,1.81,1.81,0,0,0,1.52.9q1.89,0,3.35-2.65a8.88,8.88,0,0,0,1.3-4.36Q106,28,105,28Zm.15,3.94a1.83,1.83,0,0,1-1.23-2.14,1.1,1.1,0,0,1,.67-1C105.73,28.48,105.83,30.05,105.16,32Z"/><path class="cls-1" d="M97.87,28.25a2.13,2.13,0,0,0-1.55.75,11.2,11.2,0,0,0-1,1.49A10.07,10.07,0,0,0,95.6,29a1,1,0,0,0-.25-.67.92.92,0,0,0-.6-.33c-.42-.08-1.22-.11-2.41,1.44-.55.72-1.74,2.28-2.62,3.48a14.59,14.59,0,0,1-2.65,2.5,2.26,2.26,0,0,1-1.66.72.77.77,0,0,1-.67-.47,1.77,1.77,0,0,1-.26-.87,2.79,2.79,0,0,1,.4-1.28,5.44,5.44,0,0,0,3.26-1,3.4,3.4,0,0,0,1.55-2.87Q89.7,28,88.05,28a4.74,4.74,0,0,0-3.63,2.15,6.46,6.46,0,0,0-1.62,4,2.29,2.29,0,0,0,.65,1.67,2.2,2.2,0,0,0,1.64.67,3.93,3.93,0,0,0,2.56-1,16.29,16.29,0,0,0,2-2.06c.57-.68,1.78-2.09,2.62-3.21S93.7,28.56,94,28.56c0,0,.29,0,.25.19s-2.15,5.37-3.17,7.69H93l1.18-3a10.62,10.62,0,0,1,1.33-2.68,1,1,0,0,0,.84.5,2.26,2.26,0,0,0,1.57-.68,2.07,2.07,0,0,0,.73-1.53C98.61,28.52,98.36,28.25,97.87,28.25ZM88,28.44c.35,0,.53.17.53.5a4.77,4.77,0,0,1-1.06,2.62q-1.15,1.59-2.24,1.59H85Q86.87,28.44,88,28.44Zm9.49,2a1.67,1.67,0,0,1-1.45.55.81.81,0,0,1-.47-.36c1-1.29,1.32-1.67,1.71-1.82s.64.13.62.54A1.29,1.29,0,0,1,97.51,30.44Z"/><path class="cls-1" d="M170.92,36.28h-1.8l3-7.67a.08.08,0,0,0,0-.08.36.36,0,0,0-.19,0,.84.84,0,0,0-.47.22,11.15,11.15,0,0,0-2.71,3.49q-.59,1.16-1.74,4.09H165.1q.84-2,1.65-4a24,24,0,0,0,1.37-3.74s0,0,0-.07a.19.19,0,0,0-.12,0c-.35,0-2,1.63-2.19,1.73.15-.25.16-.13.72-.9.79-.91,1.47-1.45,2.22-1.45.58,0,.87.31.87.94a7.86,7.86,0,0,1-.68,2.49q2.08-3.43,3.64-3.43a1.43,1.43,0,0,1,.86.28.85.85,0,0,1,.39.72,6.94,6.94,0,0,1-.81,2.43q2.33-3.43,3.76-3.43a1.11,1.11,0,0,1,.79.36,1.08,1.08,0,0,1,.36.77,11.31,11.31,0,0,1-1.28,3.48,12.92,12.92,0,0,0-1.28,3.23.23.23,0,0,0,.07.16.19.19,0,0,0,.15.06c.37,0,.88-.53,1.52-1.59s1.67-2.71,1.71-2.77l.16.18c-1,1.54-1.13,2.36-1.82,3.31-.81,1.12-1.45,1.34-2,1.34a1.52,1.52,0,0,1-.9-.31.93.93,0,0,1-.44-.78A12.69,12.69,0,0,1,175,31.8a15.75,15.75,0,0,0,1.26-3.2.12.12,0,0,0-.05-.1.23.23,0,0,0-.14,0q-.65,0-2.33,2.31a16.49,16.49,0,0,0-1.9,3.09Z"/><path class="cls-1" d="M177.74,39.45l2.82-6.76c.43-.94,1.63-4,1.65-4.12s-.1-.1-.16-.09c-.3,0-.87.59-1.74,1.59-.45.51-1,1.09-1.36,1.65l-.16-.18c.93-1.33,1.47-2.11,1.67-2.31a3.32,3.32,0,0,1,2.36-1.37c.56,0,.84.31.84.94a7.83,7.83,0,0,1-.68,2.49q2.08-3.43,3.86-3.43,1.05,0,1.06,2a7.64,7.64,0,0,1-1.4,4.15q-1.59,2.4-3.48,2.4a2.92,2.92,0,0,1-1.93-.59l-1.51,3.67Zm8.85-11a.17.17,0,0,0-.14-.15.31.31,0,0,0-.21,0,8.47,8.47,0,0,0-2.86,3.12,23.09,23.09,0,0,0-2.05,3.87,1.38,1.38,0,0,0,1.28.59q1.08,0,2.64-3.06,1.49-2.9,1.37-4.09S186.6,28.51,186.58,28.45Z"/><path class="cls-1" d="M211.49,23.86,209.78,28l1.62-.06v.44l-1.84.06-1.62,3.81a21.42,21.42,0,0,0-1.3,3.46l.06.16A.51.51,0,0,0,207,36c.6,0,1.82-1,3.17-3.13l.34.13c-1.49,2.32-2.73,3.47-3.82,3.47a1.33,1.33,0,0,1-.95-.4,1.23,1.23,0,0,1-.42-.9,11.54,11.54,0,0,1,1-3.27l1.43-3.37-.87.06V28.1l1.06,0,1.77-4.21Z"/><path class="cls-1" d="M192.82,28.55c-1.17.76-7.14,12.63-11.86,7.23,0,0,.17,0,.15-.07,5,4.75,9.07-6.2,11.95-7.49Z"/><path class="cls-1" d="M195.76,27.91q-1.5,0-1.5,2.13a2,2,0,0,0,1.56,2,7.86,7.86,0,0,1-1.22,2.28q-1,1.41-2,1.41t-1-1.13a9.23,9.23,0,0,1,1-3.54,10.79,10.79,0,0,1,2-3.19.75.75,0,0,0-.25-.09c-1-.06-2.17.73-3.15,2.19A7.12,7.12,0,0,0,190,33.82a2.88,2.88,0,0,0,.56,1.72,1.82,1.82,0,0,0,1.53.91q1.9,0,3.37-2.66a8.92,8.92,0,0,0,1.31-4.38Q196.73,27.91,195.76,27.91Zm.15,4a1.84,1.84,0,0,1-1.24-2.15,1.1,1.1,0,0,1,.67-1C196.48,28.36,196.58,29.94,195.91,31.87Z"/><path class="cls-1" d="M214.41,28.45A3,3,0,0,1,215,26.8a4.21,4.21,0,0,0,.56-1l-.12-.12a14.93,14.93,0,0,0-2,2.76c-1.21,1.84-3.12,4.1-3.28,4.38l.34.12c1.42-2,1.89-1.78,2.68-2.92a11.15,11.15,0,0,0,.25,1.95,11.48,11.48,0,0,1,.25,1.92,2.76,2.76,0,0,1-.34,1.34,1.18,1.18,0,0,1-1,.75h-.06a1.51,1.51,0,0,0,.71-1.28,1.17,1.17,0,0,0-.34-.83,1.09,1.09,0,0,0-.81-.36,1.28,1.28,0,0,0-1,.39,1.37,1.37,0,0,0-.37,1q0,1.53,1.58,1.53a2.84,2.84,0,0,0,2.33-1.4,4.69,4.69,0,0,0,.87-2.68,7.11,7.11,0,0,0-.4-2A7.11,7.11,0,0,1,214.41,28.45ZM211.83,36c-.93.18-1.16-.7-.85-1.31a1,1,0,0,1,1.33-.4.71.71,0,0,1,.27.68A1.16,1.16,0,0,1,211.83,36Z"/><path class="cls-1" d="M211.31,36.32c.3.19,3.51.54,5.93-3.06a7.43,7.43,0,0,1-5,2.74C212.2,36.13,211.37,36.25,211.31,36.32Z"/><path class="cls-1" d="M207.38,29.45c-.33.48-5,3.9-5.89,1.12,0,0,.1,0,.08,0,1.16,2.66,5.4-1.15,6-1.67Z"/><path class="cls-1" d="M203.93,28.09a2.13,2.13,0,0,0-1.55.75,11.34,11.34,0,0,0-1,1.5,10.36,10.36,0,0,0,.31-1.5,1,1,0,0,0-.25-.67.93.93,0,0,0-.6-.33c-.41-.08-1.22-.11-2.42,1.44-.55.72-1.39,3.19-2.51,2.58l-.34.13c1.64.68,1.94-.77,2.78-1.89s1.44-1.68,1.79-1.68c0,0,.29,0,.25.19s-2.15,5.37-3.17,7.7H199l1.18-3a10.53,10.53,0,0,1,1.34-2.68,1,1,0,0,0,.84.5,2.26,2.26,0,0,0,1.57-.69,2.06,2.06,0,0,0,.73-1.53Q204.68,28.09,203.93,28.09Zm-.36,2.19a1.64,1.64,0,0,1-1.45.55.81.81,0,0,1-.47-.36c1-1.3,1.32-1.67,1.71-1.82s.64.13.62.54A1.58,1.58,0,0,1,203.57,30.28Z"/><path class="cls-1" d="M164.24,15.61A2.08,2.08,0,0,1,166.1,17a5.71,5.71,0,0,1,.53,2.46,18.88,18.88,0,0,1-1.77,7.1A28.16,28.16,0,0,1,161.2,33a16,16,0,0,0,6.55,6.59,16.06,16.06,0,0,1-6.93-6.15,9.35,9.35,0,0,1-4.32,3.24,14.11,14.11,0,0,1-5.34,1,9.58,9.58,0,0,1-4.72-1.15,4.25,4.25,0,0,1-2.54-3.83,4.61,4.61,0,0,1,2.67-4.17,10.46,10.46,0,0,1,5.12-1.21,6.4,6.4,0,0,1,3.32.81,3.12,3.12,0,0,1,1.65,2.8,3.27,3.27,0,0,1-2,3,7.6,7.6,0,0,1-3.82.87,6.79,6.79,0,0,1-5.29-2.69A7.05,7.05,0,0,0,151,34.39a6.79,6.79,0,0,0,3.35-.78,3,3,0,0,0,1.74-2.74,2.53,2.53,0,0,0-1.61-2.4,6.53,6.53,0,0,0-3-.62A9.26,9.26,0,0,0,146.86,29a4.21,4.21,0,0,0-2.42,3.8,3.79,3.79,0,0,0,2.24,3.33,7.9,7.9,0,0,0,4.1,1.12q5.43,0,9.19-5.45a13,13,0,0,1-1.3-5.76A16.53,16.53,0,0,1,160,19.69Q161.69,15.61,164.24,15.61Zm-.44.56q-1.12,0-2.48,2.15A13.91,13.91,0,0,0,159.21,26a11.32,11.32,0,0,0,1.12,5.26,42.91,42.91,0,0,0,3-6.6,22.44,22.44,0,0,0,1.8-6.85Q165.14,16.17,163.81,16.17Z"/></g><g id="Layer_3" data-name="Layer 3"><path class="cls-1" d="M81.1,65.13c0-.15,0-.22,0-.42A2.68,2.68,0,0,1,79,66.77c-.52.2-1,0-1.38,0a2.6,2.6,0,0,0,.68.4c.83-.24,1.92-.22,2.41-1.11C80.77,65.65,81.06,65.5,81.1,65.13Z"/><path class="cls-1" d="M80.61,64.52a2.6,2.6,0,0,0-1-2.71c-.18.13,0,.51-.06.74l.41.71-.14,1.1c-.47.67-1.51.24-2.26.14-.1.2.3.3.11.52l-2.24-1.09c.3,1.13,1.46,1.78,2.44,2.38.88-.18,1.88-.29,2.4-1.09C80.34,64.88,80.59,64.81,80.61,64.52Z"/><path class="cls-1" d="M79.77,61.36l-2.55-.75a2.08,2.08,0,0,0-.28-1.38l-.83-.7L77,60.07l-.07.67c.07.16,0,0,.13.19l2.7.46Z"/><path class="cls-1" d="M79.13,63.57a1.78,1.78,0,0,1-1.11.28c-.06.3.44.24.65.31S79.27,63.55,79.13,63.57Z"/><path class="cls-1" d="M77.1,67.49c-.17.35-.5.34-.75.63a1,1,0,0,0,.77-.63Z"/><path class="cls-1" d="M76.18,67.07l0-.85a.91.91,0,0,0-.58-.43.25.25,0,0,0-.23.11c-.07.18.07.2.12.43s-.35.3-.62.44-.18-.16-.42-.21a.73.73,0,0,0-.27,0c-.19.13-.17.51-.08.8.29.27.63.8,1.23.69A1.38,1.38,0,0,0,76.18,67.07Z"/><path class="cls-1" d="M76.52,60.72l-.4-1.29L74.3,58.27a.26.26,0,0,0-.23.09l.11.58,1,.88.4.85a.39.39,0,0,1-.07.25c-.48.57-1.27,0-1.91,0-.08,0-.23.06-.3.27a.61.61,0,0,0,.12.4c.64.4,1.69,1,2.47.42Z"/><path class="cls-1" d="M74.41,64.19l0-.83c-.06-.08-.09-.23-.27-.28a.25.25,0,0,0-.24.12c0,.79-.1,1.92-.86,2.39a1.26,1.26,0,0,1-1.5,0,3.23,3.23,0,0,1-.68-.49l-.45-1.53a.39.39,0,0,1,.11-.29l1.66-.5c-.3-.44-1.09-.32-1.62-.1-.17.12-.37.11-.54.21a4,4,0,0,0,.44,4.52,3.57,3.57,0,0,0,2.5-.36C73.77,66.57,74.13,65.28,74.41,64.19Z"/><path class="cls-1" d="M74.52,57c0-.45.16-1.12-.21-1.52,0,0-.15-.06-.23,0l.17,1c-.2.58-.93.63-1.54.74h-.27c-.18,0,0,.18,0,.33.4.17.88.64,1.5.39A1.42,1.42,0,0,0,74.52,57Z"/><path class="cls-1" d="M72.69,60.24a2.74,2.74,0,0,0-1-2.5,2.25,2.25,0,0,0-1.43-.63c.5.35,1.31.67,1.52,1.42.17,1-.63,1.53-1,2.15-.75.56-1.8,0-2.56-.26-.7-.46-1.62-.92-1.65-1.89-.07-.29.1-.37,0-.57l-.2.13L66.32,60l.64.74a.24.24,0,0,1-.1.22c-.23,0-.5-.25-.77-.12.36.86,1.59,1.54,1.09,2.82a1.9,1.9,0,0,1-2,.74,1.11,1.11,0,0,1-.42-.15L63.47,62.5l.31-.56a2,2,0,0,1,1.08-.17.68.68,0,0,0,.32-.44A.33.33,0,0,0,65,61.1a2.06,2.06,0,0,0-1.9.56,2.53,2.53,0,0,0-.29,2.73,2.93,2.93,0,0,0,2.21,1.52,3.11,3.11,0,0,0,2.24-1,4.51,4.51,0,0,0,.12-3.31l2.14.63L72.25,61Z"/><path class="cls-1" d="M72.45,54.56c-.11-.71-.29-1.4-1-1.66s-1.31-.58-1.83-.16c.67.55,2.13.28,2.44,1.52,0,.55-.58.62-1,.85a2.34,2.34,0,0,1-1.84-.6c0-.19,0-.37-.3-.44a.26.26,0,0,0-.23.13l0,.68.49.86c.29.61,1.27.5,1.94.39.45-.21,1-.4,1.16-.91Z"/><path class="cls-1" d="M71.25,58.78v-.15c0-.29-.28-.46-.5-.68-.28.21.19.46.21.81s-.54.57-.74.92c.06,0,.09.1.15.13l.62-.37Z"/><path class="cls-1" d="M68.12,52.94c0-.35.12-.71-.1-1h-.24c0,.24.23.38.07.68s-.7-.1-1.09-.06-.53-.46-.63-.86a.49.49,0,0,1,.13-.28c.24-.21.65,0,1,0,.08,0,.08-.13,0-.22a1.1,1.1,0,0,0-1.09-.06l-.58,1.73-.91,0c-.08.06-.38.12-.16.28a2.42,2.42,0,0,1,1.95,1.64A1.9,1.9,0,0,1,66,56.27c-1,.42-2.56.84-3.57,0-.48-.52-.92-.84-1-1.37,0-.67.79-.77,1.31-1,.5,0,.81.31,1.22.17.08-.06.24-.09.3-.27-.12-.34-.64-.3-.88-.61-.05-.29.31-.28.43-.51l.62-.4,1-2.29c0-.07,0-.17-.13-.18L63.49,52a.87.87,0,0,1-1.25-.07c0-.22-.36-.27-.52-.41l-.27-.57a2.28,2.28,0,0,1,0-.29.6.6,0,0,1,.18-.26l1.67-.47c0-.06.06-.13,0-.22l-1.8.21a3,3,0,0,0-.6,2.77l.77.89-.69.94a9.71,9.71,0,0,0-.11,1.39c-.3.29-.87-.27-1.22.06A1.65,1.65,0,0,0,59.34,57a1.15,1.15,0,0,0,1.23.58,5,5,0,0,1,.69-.17c.7.78,2,.69,3,.54a2.91,2.91,0,0,0,2.26-1.39,2.78,2.78,0,0,0,0-2.62c-.23-.48-.67-.51-.79-.89l1.69.52a1.14,1.14,0,0,0,.71-.56Z"/><path class="cls-1" d="M63.4,59.59l-.16-.51c-.3.22,0,.91-.5,1.15a2.91,2.91,0,0,1-2.45-.07c-.29.07,0,.59.1.77a2.33,2.33,0,0,0,2.32.11A1.7,1.7,0,0,0,63.4,59.59Z"/><path class="cls-1" d="M60.68,64l-.81,1.18-1.67.18c-.17.17-.15,0-.1.24a1.79,1.79,0,0,0,2.06-.41C60.33,64.73,60.65,64.39,60.68,64Z"/><path class="cls-1" d="M60.11,63.42l-.35-2.09c0-.06-.08-.08-.21-.16s-.23.07-.3.28a2.66,2.66,0,0,1-.79,2c-.7.4-1.68-.17-2.31-.58a2.37,2.37,0,0,1-.89-1.41c0-.1.1-.22.3-.23.5.28.91-.07,1.56.08.61-.31,1.15-.14,1.55-.59a2.75,2.75,0,0,0-.23-2.65c-.27-.37-.34-.46-.63-.56l-.27,2.29a4,4,0,0,1-3-.49,6.08,6.08,0,0,1-1.14-1.53,1.71,1.71,0,0,1,1.14-1.27c.47-.22.82-.29,1.09-.71-.06-.46-.82.06-1.2.07A2.56,2.56,0,0,0,53,57.78c0,2,2,2.7,2,4.86.46,1.35,1.75,1.88,3.12,2.33.71.14,1.1-.64,1.59-.78Z"/><path class="cls-1" d="M60.29,52.61l-.46-2.22L58.31,50c.56.34,1.36.59,1.57,1.38A2.58,2.58,0,0,1,59,53.83c-.56.23-1,.68-1.55.36a7.9,7.9,0,0,0-1.56-1.38.72.72,0,0,1-.13-.29A3.33,3.33,0,0,1,58,51.36c.11,0,.11-.14,0-.27l-1.53,0a.3.3,0,0,1-.07-.23l.73-.74a1.37,1.37,0,0,1-.3-.1l0-.46c-.54.21-1,1.19-2,.95a3.93,3.93,0,0,1-1.3-.81,1,1,0,0,1-.21-.38l.41-.81a2.92,2.92,0,0,1,2.62,0c.11,0,.23-.06.27-.27-.35-.67-1.42-.71-2.18-.51a1.65,1.65,0,0,0-1.25,1c-.41.8,0,1.54.09,2.21-.72,0-1.84-.76-2.6,0a4.56,4.56,0,0,0-.52,4c.59,1,2.12,1,3.31,1,.24,0,.18-.5.43-.66.43-.18.54-.72.72-1.21L54,52.65c-.37.56-.65,1.38-1.43,1.65a2.21,2.21,0,0,1-2-.65c-.07-.16-.14-.28-.14-.28l.5-2.08c.77-.5,1.75,0,2.48.28,0,0,.06-.17.07-.24l1.58.45c.37,0,.47-.25.85-.39a4.66,4.66,0,0,0,.1,3.55,3.75,3.75,0,0,0,2.72.06A3.53,3.53,0,0,0,60.29,52.61Z"/><path class="cls-1" d="M53.77,62.53c-.08-.23-.45-.39-.5-.73,0-.09,0-.18,0-.3l-1.54,1.81c0,.11.06.23.2.18l1.16-.91c.23-.08.44.25.68,0Z"/><path class="cls-1" d="M52.78,63.84l-1.94,0c-.25.13.35.24.53.32a13.08,13.08,0,0,0,1.47-.29Z"/><path class="cls-1" d="M52.61,61.23l-.71-1.59-.27,0,.07,1.27a2.16,2.16,0,0,1-2,.53,3.6,3.6,0,0,1-1.78-1.56L48,59c.69-.71,2-.57,3-.52l-1.37-.65c-.3,0,0-.31-.2-.54a.37.37,0,0,0-.16-.16l-.87.62a1,1,0,0,1-.93-.71.81.81,0,0,1,.56-.51c.25-.09.62.21.8,0-.09-.34-.71-.36-1-.27l-.33.2a1.26,1.26,0,0,0-.21,1.32c.21.33.4.42.47.63a3.06,3.06,0,0,0-.16,2.88,9.13,9.13,0,0,0,1.74,1.76,3.17,3.17,0,0,0,2.36-.4c.37-.38.63-.49.73-.81l.17-.59Z"/><path class="cls-1" d="M41.63,53.12c.11-.52,1.07-.9,1.51-1.25a.89.89,0,0,1,1,.25,1.52,1.52,0,0,1,.29,1.16,1.74,1.74,0,0,0-.28-1.61,1.07,1.07,0,0,0-1.15-.3c-.53.43-1.68.87-1.8,1.49-.24,1.23.35,1.59,1,1.63h.24C41.88,54.42,41.44,54.1,41.63,53.12Z"/><path class="cls-1" d="M45.78,53.34c0-.07-.05-.19-.05-.23A3.72,3.72,0,0,1,47.29,50a5,5,0,0,0,.68.28,1.62,1.62,0,0,1,.49.65,2,2,0,0,0-.71-1.13,6,6,0,0,1-.81-.34,4.45,4.45,0,0,0-1.86,3.74s0,.18.06.27c.45.61,1.43.36,2,.25a1.94,1.94,0,0,0,.24-.15C46.89,53.66,46.14,53.82,45.78,53.34Z"/><path class="cls-1" d="M47,62.7a.49.49,0,0,1,.07-.24c-.34-.64-.06-1.5-.72-1.86a3.21,3.21,0,0,0-.64-.12l.33.64-.44.9c-.54.18-.83-.17-1.24-.41-.34,0-.61-.36-.73-.76a1,1,0,0,1,.13-.92c.48-.69,1.54-.28,2.36-.61.23-.1,0-.44.11-.66.24-.17.27-.61.28-1s-.3,0-.41.12-.34.12-.56.11-.53-.42-.75-.72c0-.45.94-.24,1.21-.37,0-.22-.25-.17-.39-.33l-.56,0a1.19,1.19,0,0,0-.71.64c0,.59.54.85.79,1.42-.71.23-1.55.44-1.75,1.17A2.69,2.69,0,0,0,44,62.91a2,2,0,0,0,2,.57l.93-.57Z"/></g></svg>