<?xml version="1.0" encoding="utf-8"?>
<!-- Generator: Adobe Illustrator 21.0.0, SVG Export Plug-In . SVG Version: 6.00 Build 0)  -->
<svg version="1.1" id="Layer_1" xmlns="http://www.w3.org/2000/svg" xmlns:xlink="http://www.w3.org/1999/xlink" x="0px" y="0px"
	width="112.85px" height="8.97px" viewBox="0 0 112.8 9" style="enable-background:new 0 0 112.8 9;" xml:space="preserve">
<style type="text/css">
	.st0{fill:#FFFFFF;}
</style>
<g>
	<path class="st0" d="M2.1,8.9h-2V0.1h2V8.9z"/>
	<path class="st0" d="M5,0.1c0.1,0,0.1,0,0.2,0c0,0,0.1,0.1,0.1,0.1s0.1,0.1,0.1,0.2l4.2,5.2c0-0.2,0-0.3,0-0.5c0-0.2,0-0.3,0-0.4
		V0.1h1.8v8.7h-1.1c-0.2,0-0.3,0-0.4-0.1c-0.1,0-0.2-0.1-0.3-0.3L5.5,3.3c0,0.2,0,0.3,0,0.4c0,0.1,0,0.3,0,0.4v4.7H3.7V0.1h1.1
		C4.9,0.1,5,0.1,5,0.1z"/>
	<path class="st0" d="M19.2,0.1v1.6h-2.5v7.1h-2V1.7h-2.5V0.1H19.2z"/>
	<path class="st0" d="M25.6,0.1v1.6H22v2h2.7v1.5H22v2.1h3.6v1.6H20V0.1H25.6z"/>
	<path class="st0" d="M28.8,5.6v3.2h-2V0.1h2.8c0.6,0,1.2,0.1,1.6,0.2c0.4,0.1,0.8,0.3,1.1,0.5c0.3,0.2,0.5,0.5,0.6,0.8
		c0.1,0.3,0.2,0.7,0.2,1c0,0.3,0,0.6-0.1,0.8c-0.1,0.3-0.2,0.5-0.3,0.7s-0.3,0.4-0.6,0.6c-0.2,0.2-0.5,0.3-0.8,0.4
		c0.1,0.1,0.3,0.2,0.4,0.3c0.1,0.1,0.2,0.2,0.3,0.4l1.9,3h-1.8c-0.3,0-0.6-0.1-0.7-0.4l-1.5-2.5c-0.1-0.1-0.1-0.2-0.2-0.2
		c-0.1,0-0.2-0.1-0.4-0.1H28.8z M28.8,4.2h0.8c0.3,0,0.5,0,0.7-0.1c0.2-0.1,0.4-0.2,0.5-0.3s0.2-0.3,0.3-0.4
		c0.1-0.2,0.1-0.3,0.1-0.5c0-0.4-0.1-0.7-0.4-0.9c-0.2-0.2-0.6-0.3-1.2-0.3h-0.8V4.2z"/>
	<path class="st0" d="M42.9,8.9h-1.6c-0.2,0-0.3,0-0.4-0.1c-0.1-0.1-0.2-0.2-0.2-0.3l-0.5-1.5h-3.3l-0.5,1.5c0,0.1-0.1,0.2-0.2,0.3
		c-0.1,0.1-0.3,0.1-0.4,0.1H34l3.4-8.7h2.1L42.9,8.9z M37.3,5.5h2.4l-0.8-2.4c-0.1-0.2-0.1-0.3-0.2-0.5c-0.1-0.2-0.1-0.4-0.2-0.7
		c-0.1,0.2-0.1,0.5-0.2,0.7c-0.1,0.2-0.1,0.4-0.2,0.5L37.3,5.5z"/>
	<path class="st0" d="M49.1,6.6c0,0,0.1,0,0.1,0c0,0,0.1,0,0.1,0.1l0.8,0.8c-0.4,0.5-0.8,0.8-1.3,1C48.3,8.8,47.7,9,47,9
		c-0.7,0-1.3-0.1-1.8-0.3c-0.5-0.2-1-0.5-1.3-0.9c-0.4-0.4-0.6-0.9-0.8-1.4c-0.2-0.5-0.3-1.1-0.3-1.8c0-0.7,0.1-1.3,0.3-1.8
		c0.2-0.5,0.5-1,0.9-1.4c0.4-0.4,0.9-0.7,1.4-0.9C46,0.1,46.6,0,47.3,0c0.3,0,0.6,0,0.9,0.1s0.6,0.1,0.8,0.2
		c0.3,0.1,0.5,0.2,0.7,0.4C50,0.9,50.1,1,50.3,1.2l-0.7,0.9c0,0.1-0.1,0.1-0.2,0.2c-0.1,0-0.1,0.1-0.3,0.1c-0.1,0-0.1,0-0.2,0
		c-0.1,0-0.1-0.1-0.2-0.1c-0.1,0-0.2-0.1-0.2-0.1c-0.1-0.1-0.2-0.1-0.3-0.1c-0.1,0-0.3-0.1-0.4-0.1c-0.2,0-0.3,0-0.6,0
		c-0.4,0-0.7,0.1-1,0.2C46,2,45.7,2.2,45.5,2.5C45.3,2.7,45.1,3,45,3.3c-0.1,0.3-0.2,0.7-0.2,1.2c0,0.4,0.1,0.8,0.2,1.2
		c0.1,0.3,0.3,0.6,0.5,0.9c0.2,0.2,0.5,0.4,0.7,0.5c0.3,0.1,0.6,0.2,0.9,0.2c0.2,0,0.4,0,0.5,0c0.2,0,0.3,0,0.4-0.1
		c0.1,0,0.3-0.1,0.4-0.2c0.1-0.1,0.2-0.2,0.4-0.3c0,0,0.1-0.1,0.2-0.1C49,6.6,49,6.6,49.1,6.6z"/>
	<path class="st0" d="M57.5,0.1v1.6H55v7.1h-2V1.7h-2.5V0.1H57.5z"/>
	<path class="st0" d="M60.5,8.9h-2V0.1h2V8.9z"/>
	<path class="st0" d="M61.4,0.1h1.6c0.2,0,0.3,0,0.4,0.1s0.2,0.2,0.2,0.3l1.7,4.7c0.1,0.2,0.2,0.4,0.2,0.7s0.2,0.5,0.2,0.8
		c0.1-0.3,0.1-0.5,0.2-0.8c0.1-0.2,0.1-0.5,0.2-0.7L68,0.6c0-0.1,0.1-0.2,0.2-0.3s0.3-0.1,0.4-0.1h1.6l-3.5,8.7h-1.8L61.4,0.1z"/>
	<path class="st0" d="M76.6,0.1v1.6H73v2h2.7v1.5H73v2.1h3.6v1.6H71V0.1H76.6z"/>
	<path class="st0" d="M82.8,6.7c0-0.1,0.1-0.1,0.1-0.2c0-0.1,0.1-0.1,0.1-0.2l3.4-6.1c0-0.1,0.1-0.1,0.1-0.1c0,0,0.1,0,0.1,0h0.4
		v8.7h-0.6V1.4c0-0.1,0-0.2,0-0.3l-3.4,6.1C83,7.3,83,7.3,82.9,7.3h-0.1c-0.1,0-0.2-0.1-0.2-0.2L79,1.1c0,0.1,0,0.2,0,0.3v7.4h-0.5
		V0.1h0.4c0.1,0,0.1,0,0.1,0c0,0,0.1,0,0.1,0.1l3.5,6.1C82.7,6.4,82.8,6.6,82.8,6.7z"/>
	<path class="st0" d="M94.9,0.1v0.5h-4.6v3.5h3.8v0.5h-3.8v3.6h4.6v0.5h-5.2V0.1H94.9z"/>
	<path class="st0" d="M97.4,0.1c0,0,0.1,0,0.1,0.1l5.7,7.6c0-0.1,0-0.2,0-0.4V0.1h0.6v8.7h-0.3c-0.1,0-0.2,0-0.2-0.1l-5.7-7.6
		c0,0.1,0,0.2,0,0.4v7.4H97V0.1h0.3C97.3,0.1,97.4,0.1,97.4,0.1z"/>
	<path class="st0" d="M109.5,8.4c0.4,0,0.8-0.1,1.1-0.2c0.3-0.1,0.6-0.3,0.8-0.6c0.2-0.3,0.4-0.6,0.5-0.9c0.1-0.4,0.2-0.7,0.2-1.1
		V0.1h0.6v5.4c0,0.5-0.1,0.9-0.2,1.3c-0.2,0.4-0.4,0.8-0.7,1.1c-0.3,0.3-0.6,0.6-1,0.7C110.5,8.9,110,9,109.5,9
		c-0.5,0-1-0.1-1.4-0.3c-0.4-0.2-0.8-0.4-1-0.7c-0.3-0.3-0.5-0.7-0.7-1.1c-0.2-0.4-0.2-0.9-0.2-1.3V0.1h0.6v5.4
		c0,0.4,0.1,0.8,0.2,1.1c0.1,0.4,0.3,0.7,0.5,0.9s0.5,0.5,0.8,0.6C108.7,8.3,109.1,8.4,109.5,8.4z"/>
</g>
</svg>
