<?xml version="1.0" encoding="utf-8"?>
<!-- Generator: Adobe Illustrator 21.0.0, SVG Export Plug-In . SVG Version: 6.00 Build 0)  -->
<svg version="1.1" id="Layer_1" xmlns="http://www.w3.org/2000/svg" xmlns:xlink="http://www.w3.org/1999/xlink" x="0px" y="0px"
	 width="220px" height="66px" viewBox="0 0 220 66" style="enable-background:new 0 0 220 66;" xml:space="preserve">
<style type="text/css">
	.st0{fill:#FFFFFF;}
</style>
<g>
	<path class="st0" d="M135.5,47.4c7.2-9.1,10.4-36.2,6.9-40.4c0.7,6.3-7.1,41.8-13.1,39.3s4-27.2,4-27.2s-2.9-0.1-3,0
		c-0.5,1.7-7.5,26.2-12.1,23.2c-4.4-6.5,6.8-25.8,11.1-34.2c-14.3,8.6-20.3,38.6-11,38.2c2.9-0.2,4-1.9,7.1-5c0.1,1.5,0.3,3.9,1,5.9
		c-5.5,0.7-10.6,3.1-16.1,8.6c-4.4-4.7-8.5-6.9-13-7.5c4-0.2,7.1-1.4,9.4-3.6c2.5-2.4,3.8-5.5,3.8-9.3c0-3.4-1-6.2-3-8.5
		c-2.5-2.9-6.3-4.3-11.2-4.3c-4.3,0-7.8,1.2-10.3,3.7c-2.5,2.4-3.8,5.5-3.8,9.3c0,4,1.5,7.3,4.5,9.8c1.8,1.5,3.9,2.4,6.5,2.8
		C77.5,48.6,55.4,62.3,0.6,58.7c1.4,2.2,1.4,3.8,2,3.8c84.1,2.4,88.5-19.3,107.6,3c17.2-25.8,39.5,0.5,107.7-4.1
		c0.8-1.4,1.4-4,2-4.8C174.8,60.7,152.2,49.8,135.5,47.4z M92.9,40.3c-0.9-1.1-1.3-2.7-1.3-4.9s0.4-3.8,1.3-4.8
		c0.9-1.1,2-1.6,3.4-1.6c1.3,0,2.4,0.5,3.3,1.6c0.9,1,1.3,2.6,1.3,4.8c0,2.3-0.4,4-1.3,5s-2,1.6-3.4,1.6
		C94.9,41.9,93.8,41.3,92.9,40.3z"/>
	<polygon class="st0" points="73.3,47.7 83.8,23 74.3,23 69.3,38.6 64.5,23 54.7,23 65,47.7 	"/>
	<path class="st0" d="M10.1,35.8c0-2.2,0.4-3.8,1.1-4.7c0.7-0.9,1.6-1.3,2.8-1.3c1,0,1.8,0.3,2.4,1c0.6,0.6,0.9,1.7,0.9,3.3v13.6
		h9.5V32c0-3.3-0.7-5.7-2.2-7.2s-3.5-2.3-6.1-2.3c-1.9,0-3.6,0.4-4.9,1.1s-2.7,1.9-4,3.5v-4h-9v24.7h9.5V35.8z"/>
	<path class="st0" d="M32.4,45.2c2.4,2,5.7,3,9.6,3c4.4,0,7.9-1.2,10.4-3.6c2.5-2.4,3.8-5.5,3.8-9.3c0-3.4-1-6.2-3-8.5
		c-2.5-2.9-6.3-4.3-11.2-4.3c-4.3,0-7.8,1.2-10.3,3.7c-2.5,2.4-3.8,5.5-3.8,9.3C27.9,39.5,29.4,42.7,32.4,45.2z M38.7,30.5
		c0.9-1.1,2-1.6,3.4-1.6c1.3,0,2.4,0.5,3.3,1.6c0.9,1,1.3,2.6,1.3,4.8c0,2.3-0.4,4-1.3,5c-0.9,1-2,1.6-3.4,1.6
		c-1.3,0-2.5-0.5-3.4-1.6s-1.3-2.7-1.3-4.9C37.4,33.2,37.8,31.6,38.7,30.5z"/>
	<path class="st0" d="M210,42.3c-2.2,1.9-5.8,5.2-10.1,2c-0.7,2.2,0.9,5.9,3,6c2.2,0.2,13.8-4.4,14.1-6c-1.6-2.1-10.9-9.2-10.1-11.1
		c0.9-1.9,6.4-9.2,13.1-7.1c-0.1-1.2-0.2-5.7-5-5c-5.5,0.8-9.8,6.8-10,11.1C204.2,38.6,207.3,40.1,210,42.3z"/>
	<path class="st0" d="M170.7,46.3c-2.6-0.8-0.7-20,15.1-24.2c-1.1-2.7-8-3.7-14.1,6c-1.4,0-0.3-4.2-2-6c0,0-5.3,22.5-2,26.2
		C168.8,48.6,170.6,47,170.7,46.3z"/>
	<path class="st0" d="M191.8,39.3c1,8.4,4.2,12.1,7.1,3c-2.9,2-4.3,2.7-3-7.1S205-0.1,205-0.1s-5.2,0.6-9.1,22.2
		c-3.8-3.4-16.1,8.2-16.1,18.1C179.8,50.2,187.4,49.6,191.8,39.3z M193.8,26.2c0,3.4-5.8,16.1-11.1,15.1
		C180.6,39.3,190.7,23.6,193.8,26.2z"/>
	<path class="st0" d="M150.5,47.3c5.7,0.1,12.2-5.7,14.1-13.1c1.9-7.4-2.8-12.1-9.1-13.1s-11.7,14.1-12.1,17.1
		C143.1,41.3,144.8,47.3,150.5,47.3z M146.5,39.3c0-1.5,6.2-13.4,11.1-12.1c3.8,1,3.8,2.5,4,4c0.2,1.5-1.8,10.7-11.1,11.1
		C146.5,42.8,146.5,40.8,146.5,39.3z"/>
</g>
</svg>
