<svg id="Layer_1" data-name="Layer 1" xmlns="http://www.w3.org/2000/svg" viewBox="0 0 111.2 17.57"><defs><style>.cls-1{fill:#fff;}</style></defs><title>orbit-logo-white</title><path class="cls-1" d="M53.38,13.12H51.26V4.34h2.12v2a3.23,3.23,0,0,1,3.09-2.1V6.35c-3.09-.16-3.09,3.2-3.09,3.2Z" transform="translate(-0.01 -0.01)"/><rect class="cls-1" x="28.6" y="4.33" width="2.12" height="8.78"/><path class="cls-1" d="M37.8,11.3v1.88c-3.72.27-4.23-1.63-4.24-3.42V6.18H32.41V4.51h1.15V2h2.12V4.51h1.94V6.18H35.68V9.29C35.68,10,35.62,11.44,37.8,11.3Z" transform="translate(-0.01 -0.01)"/><rect class="cls-1" x="28.6" y="0.9" width="2.12" height="1.88"/><path class="cls-1" d="M4.81,4.12A4.72,4.72,0,0,0,0,8.76a4.72,4.72,0,0,0,4.8,4.64,4.72,4.72,0,0,0,4.8-4.64A4.72,4.72,0,0,0,4.81,4.12Zm0,7.35A2.69,2.69,0,0,1,2.19,8.71,2.69,2.69,0,0,1,4.81,5.94,2.69,2.69,0,0,1,7.42,8.71,2.69,2.69,0,0,1,4.81,11.47Z" transform="translate(-0.01 -0.01)"/><path class="cls-1" d="M62.08,4.12a4.72,4.72,0,0,0-4.8,4.64,4.8,4.8,0,0,0,9.6,0A4.72,4.72,0,0,0,62.08,4.12Zm0,7.35a2.69,2.69,0,0,1-2.62-2.76,2.62,2.62,0,1,1,5.24,0A2.69,2.69,0,0,1,62.08,11.47Z" transform="translate(-0.01 -0.01)"/><path class="cls-1" d="M20.21,5.45V.92H18.09v12.2h2.12v-1c1.25,2.09,6.55,1.94,6.55-3.36C26.78,4,22.41,2.87,20.21,5.45Zm2.19,6.12a2.57,2.57,0,0,1-2.25-2.81A2.57,2.57,0,0,1,22.4,6a2.57,2.57,0,0,1,2.25,2.81A2.57,2.57,0,0,1,22.4,11.57Z" transform="translate(-0.01 -0.01)"/><path class="cls-1" d="M87.78,8.83c0-5.3-5.31-5.77-6.78-3.16V4.34H79.11V16.67h2.12V12.14C82.86,14.39,87.81,13.56,87.78,8.83Zm-2.2,0c0,1.36-.63,2.71-2.33,2.71-1.24,0-2.07-1.32-2.07-2.71C81.18,7.13,82,6,83.43,6S85.58,7.16,85.58,8.83Z" transform="translate(-0.01 -0.01)"/><path class="cls-1" d="M46.65,11.81c.41,5-4.86,2.51-4.86,2.51L41.13,16c.28.37,6.77,2.5,7.66-2.84,0-1.83,0-8.83,0-8.83h-2v1c-1.25-2.09-6.55-1.94-6.55,3.36C40.26,12.47,44.36,14.41,46.65,11.81ZM44.58,6c1.66,0,2.14,1.22,2.14,2.77a2.17,2.17,0,0,1-2.14,2.45,2.25,2.25,0,0,1-2.08-2.45C42.49,7.17,42.92,6,44.58,6Z" transform="translate(-0.01 -0.01)"/><path class="cls-1" d="M68.57,4.34h2.06V9.82c0,2.49,3.86,2.15,3.86-1.47v-4h2.17v8.78h-2s0-1.25,0-1.6a3.47,3.47,0,0,1-3.32,1.81,2.66,2.66,0,0,1-2.74-2.77C68.57,8.91,68.57,4.34,68.57,4.34Z" transform="translate(-0.01 -0.01)"/><path class="cls-1" d="M13.5,13.12H11.38V4.34H13.5v2a3.23,3.23,0,0,1,3.09-2.1V6.35c-3.09-.16-3.09,3.2-3.09,3.2Z" transform="translate(-0.01 -0.01)"/><circle class="cls-1" cx="100.66" cy="8.78" r="3.73"/><path class="cls-1" d="M109.45,8.79a8.78,8.78,0,0,0-13.94-7.1l0,0A1,1,0,1,0,96.79,3.3a6.72,6.72,0,0,1,10.6,5.49h-1.75L107,10.85l1.39,2.07,1.39-2.07,1.39-2.07Z" transform="translate(-0.01 -0.01)"/><path class="cls-1" d="M106.26,15.07a1,1,0,0,0-1.67-.81h0A6.72,6.72,0,0,1,93.94,8.8H95.7L94.31,6.72,92.92,4.66,91.53,6.72,90.13,8.79h1.75a8.78,8.78,0,0,0,13.9,7.14l.06,0h0A1,1,0,0,0,106.26,15.07Z" transform="translate(-0.01 -0.01)"/></svg>