<?xml version="1.0" encoding="utf-8"?>
<!-- Generator: Adobe Illustrator 21.0.0, SVG Export Plug-In . SVG Version: 6.00 Build 0)  -->
<svg version="1.1" id="Layer_1" xmlns="http://www.w3.org/2000/svg" xmlns:xlink="http://www.w3.org/1999/xlink" x="0px" y="0px"
	 width="431px" height="112px" viewBox="0 0 431 112" style="enable-background:new 0 0 431 112;" xml:space="preserve">
<style type="text/css">
	.st0{fill:#FFFFFF;}
</style>
<g>
	<g>
		<path class="st0" d="M102.8,76.8c0,1.4,0.1,2.3,0.4,2.7c0.3,0.5,0.8,0.7,1.6,0.7c0.2,0,0.5,0,1-0.1c0.5-0.1,0.8-0.1,1.1-0.1
			c0.7,0,1.3,0.1,1.6,0.4c0.3,0.3,0.5,0.7,0.5,1.3c0,0.5-0.2,0.9-0.5,1.2c-0.3,0.3-0.8,0.4-1.4,0.4c-3.1-0.2-5.4-0.3-6.9-0.3
			c-0.9,0-1.9,0-2.9,0.1c-1,0.1-1.6,0.1-1.8,0.1c-0.6,0-1.1-0.1-1.3-0.3c-0.3-0.2-0.4-0.6-0.4-1.2c0-0.6,0.2-1.1,0.5-1.4
			c0.3-0.3,0.8-0.5,1.4-0.5c0.2,0,0.4,0,0.7,0.1c0.3,0.1,0.5,0.1,0.6,0.1c0.9,0,1.4-0.2,1.7-0.5c0.3-0.4,0.4-1.3,0.4-2.9V57.3
			c0-2-0.2-3.2-0.5-3.7c-0.3-0.5-1-0.8-1.9-0.8h-1.6c-0.6,0-1-0.1-1.3-0.3c-0.3-0.2-0.4-0.6-0.4-1.1c0-0.5,0.1-0.9,0.4-1.2
			c0.2-0.3,0.6-0.4,1-0.4c0.2,0,0.5,0,0.8,0.1c0.3,0.1,0.6,0.1,0.7,0.1c1,0,2.1,0,3.2-0.1c1.1-0.1,1.8-0.1,1.9-0.1
			c0.7,0,1.1,0.1,1.3,0.4c0.2,0.3,0.3,0.8,0.3,1.7v1.1c0.9-1.4,1.9-2.4,3.2-3.1c1.2-0.7,2.7-1,4.5-1c3.3,0,5.9,1.2,7.9,3.6
			c2,2.4,3,5.6,3,9.5c0,3.9-1,6.9-3.1,9.3c-2.1,2.3-4.9,3.5-8.3,3.5c-1.4,0-2.7-0.2-3.9-0.7c-1.2-0.5-2.3-1.2-3.3-2.1V76.8z
			 M102.8,60.3v4.3c0,2.2,0.6,4,1.8,5.2c1.2,1.2,2.9,1.8,5.1,1.8c2.4,0,4.3-0.9,5.6-2.6c1.4-1.7,2.1-4.1,2.1-7.1
			c0-2.9-0.7-5.3-2.1-7c-1.4-1.7-3.2-2.6-5.6-2.6c-2.1,0-3.8,0.7-5.1,2.2C103.5,56,102.8,57.9,102.8,60.3z"/>
	</g>
	<g>
		<path class="st0" d="M129.7,62.5v0.1c0,2.7,0.7,4.9,2,6.6c1.3,1.6,3.1,2.5,5.4,2.5c1.4,0,2.5-0.2,3.4-0.7c0.9-0.5,1.8-1.3,2.5-2.4
			c0.3-0.4,0.6-1.1,0.9-2c0.5-1.3,1.1-2,1.9-2c0.5,0,0.9,0.2,1.2,0.5c0.3,0.3,0.5,0.8,0.5,1.3c0,0.6-0.2,1.3-0.6,2.2
			c-0.4,0.9-0.9,1.7-1.5,2.6c-1,1.3-2.2,2.3-3.6,2.9c-1.4,0.6-3,0.9-4.9,0.9c-3.4,0-6.1-1.2-8.1-3.5c-2-2.3-3-5.5-3-9.4
			c0-3.9,1-7.1,3-9.4c2-2.3,4.7-3.5,8.1-3.5c3.3,0,5.9,1,7.9,3c2,2,3,4.6,3,7.9c0,1-0.2,1.6-0.5,1.9c-0.3,0.3-1,0.5-1.9,0.5h-0.8
			H129.7z M129.9,59.3h13.7V59c0-2-0.6-3.6-1.9-4.8c-1.2-1.2-2.8-1.9-4.8-1.9c-2,0-3.6,0.6-4.8,1.9
			C130.8,55.4,130.1,57.1,129.9,59.3z"/>
	</g>
	<g>
		<path class="st0" d="M167.7,71.1c-1,1.2-2.2,2.2-3.6,2.8c-1.5,0.6-3.1,1-5,1c-2.6,0-4.7-0.6-6.1-1.9c-1.4-1.3-2.1-3-2.1-5.4
			c0-2.1,0.6-3.8,1.9-4.9c1.2-1.1,3.3-1.9,6.3-2.3c0.2,0,0.4-0.1,0.7-0.1c4.8-0.7,7.2-2.1,7.2-4.1c0-1.3-0.5-2.3-1.4-3
			s-2.2-1.1-3.9-1.1c-1.4,0-2.5,0.2-3.5,0.7c-1,0.5-1.5,0.9-1.5,1.5c0,0.1,0.2,0.4,0.6,0.9c0.4,0.5,0.6,0.9,0.6,1.4
			c0,0.7-0.2,1.2-0.7,1.6c-0.5,0.4-1.1,0.7-1.8,0.7c-0.9,0-1.6-0.3-2.1-0.9c-0.5-0.6-0.8-1.4-0.8-2.4c0-1.9,0.9-3.4,2.7-4.6
			c1.8-1.2,4.2-1.8,7.1-1.8c3.1,0,5.3,0.7,6.6,2c1.3,1.3,2,3.5,2,6.5v11.2c0,1.1,0.1,1.8,0.3,2.2c0.2,0.4,0.6,0.6,1.2,0.6
			c0.6,0,1-0.2,1.3-0.6c0.3-0.4,0.4-1.1,0.4-2v-2.5c0-0.7,0.1-1.2,0.3-1.5c0.2-0.3,0.6-0.5,1.1-0.5c0.5,0,0.9,0.2,1.1,0.5
			c0.2,0.3,0.3,0.9,0.3,1.7v3.6c0,1.4-0.4,2.5-1.3,3.4c-0.9,0.8-2.1,1.2-3.7,1.2c-1.3,0-2.3-0.3-3-1
			C168.1,73.2,167.7,72.3,167.7,71.1z M167.1,65.4v-3.8c-1,0.8-3.2,1.4-6.6,1.9h0c-2.4,0.3-4,0.8-4.8,1.4c-0.8,0.6-1.2,1.6-1.2,2.9
			c0,1.1,0.4,2,1.3,2.7c0.9,0.7,2,1.1,3.3,1.1c2.5,0,4.4-0.6,5.9-1.7C166.3,68.8,167.1,67.3,167.1,65.4z"/>
	</g>
	<g>
		<path class="st0" d="M183.6,67.8V48.4c0-2.1-0.2-3.4-0.5-3.9c-0.3-0.5-1-0.7-1.9-0.7h-1.8c-0.6,0-1-0.1-1.2-0.3
			c-0.2-0.2-0.3-0.6-0.3-1.1c0-0.5,0.2-0.9,0.5-1.2c0.3-0.3,0.8-0.4,1.4-0.4c0,0,0.3,0,0.8,0.1s1,0.1,1.4,0.1c1.1,0,2.2-0.1,3.3-0.2
			c0.2,0,0.4,0,0.4,0c0.7,0,1.1,0.1,1.3,0.4c0.2,0.3,0.3,0.9,0.3,1.8v18.4l7.5-7.4c0.2-0.3,0.4-0.5,0.5-0.6c0.1-0.2,0.1-0.3,0.1-0.5
			c0-0.1,0-0.2-0.1-0.2c-0.1,0-0.3-0.1-0.6-0.1c-0.2,0-0.6,0-1.1,0.1s-0.8,0.1-1.1,0.1c-0.6,0-1-0.1-1.4-0.4
			c-0.3-0.3-0.5-0.6-0.5-1.1c0-0.5,0.2-0.9,0.5-1.2c0.3-0.3,0.8-0.4,1.4-0.4c0,0,0.6,0,1.7,0.1c1.1,0.1,2.2,0.1,3.4,0.1
			c1.2,0,2.4,0,3.6-0.1c1.2-0.1,1.9-0.1,2-0.1c0.7,0,1.2,0.1,1.5,0.4c0.3,0.2,0.5,0.6,0.5,1.2c0,0.6-0.2,1-0.6,1.3
			c-0.4,0.2-1.1,0.4-2.1,0.4c-0.1,0-0.3,0-0.5-0.1s-0.4-0.1-0.5-0.1c-0.5,0-1,0.1-1.5,0.4c-0.5,0.3-1,0.7-1.6,1.3l-4.6,4.5l7.5,10.8
			c0.4,0.7,0.8,1.1,1.3,1.4c0.4,0.2,1,0.4,1.7,0.4c0.2,0,0.4,0,0.6-0.1c0.3-0.1,0.5-0.1,0.6-0.1c0.7,0,1.2,0.2,1.5,0.5
			c0.3,0.3,0.5,0.7,0.5,1.3c0,0.5-0.1,0.9-0.4,1.1c-0.3,0.2-0.8,0.3-1.5,0.3c0,0-0.7,0-1.9-0.1c-1.3-0.1-2.5-0.1-3.8-0.1
			c-1,0-2.4,0.1-4.4,0.3c-0.5,0-0.9-0.1-1.2-0.3c-0.2-0.2-0.3-0.6-0.3-1.1c0-0.6,0.1-1.1,0.4-1.4c0.3-0.3,0.8-0.4,1.6-0.4
			c0.3,0,0.5,0.1,0.7,0.2c0.1,0,0.1,0.1,0.1,0.1c0.3,0,0.6,0,0.7-0.1c0.1-0.1,0.2-0.3,0.2-0.5c0-0.1-0.1-0.2-0.2-0.4
			c-0.1-0.1-0.1-0.2-0.1-0.2l-6.3-8.8l-3.9,3.7v2.7c0,1.5,0.1,2.5,0.4,2.9c0.2,0.4,0.7,0.6,1.5,0.6c0.1,0,0.3,0,0.5-0.1
			c0.2-0.1,0.4-0.1,0.5-0.1c0.5,0,0.9,0.1,1.2,0.4c0.3,0.3,0.4,0.7,0.4,1.2c0,0.6-0.1,1-0.3,1.2c-0.2,0.2-0.6,0.4-1.1,0.4
			c-2-0.2-3.6-0.3-4.6-0.3c-1.3,0-2.6,0-3.9,0.1s-1.9,0.1-2,0.1c-0.7,0-1.2-0.1-1.5-0.4c-0.3-0.2-0.5-0.6-0.5-1.2
			c0-0.6,0.2-1,0.5-1.3c0.3-0.3,0.9-0.4,1.6-0.4c0.2,0,0.4,0,0.7,0.1c0.3,0.1,0.5,0.1,0.7,0.1c1,0,1.6-0.2,1.9-0.6
			C183.5,70.3,183.6,69.4,183.6,67.8z"/>
	</g>
	<g>
		<path class="st0" d="M215.4,67.7v-9.8c0-2.3-0.2-3.7-0.5-4.2c-0.3-0.6-1-0.8-2-0.8h-1.8c-0.6,0-1-0.1-1.2-0.3
			c-0.2-0.2-0.3-0.6-0.3-1.2c0-0.5,0.2-0.9,0.5-1.2c0.3-0.3,0.7-0.5,1.2-0.5c0.1,0,0.5,0,1.1,0.1c0.6,0.1,1.2,0.1,1.8,0.1
			c0.9,0,1.9-0.1,2.9-0.2c0.2,0,0.4,0,0.4,0c0.7,0,1.1,0.1,1.4,0.4s0.3,0.9,0.3,1.8v15.8c0,1.5,0.1,2.5,0.4,3
			c0.3,0.4,0.9,0.6,1.9,0.6c0.2,0,0.5,0,0.7-0.1c0.3-0.1,0.5-0.1,0.6-0.1c0.7,0,1.2,0.1,1.6,0.4c0.3,0.3,0.5,0.7,0.5,1.3
			c0,0.6-0.1,1-0.4,1.2c-0.3,0.2-0.8,0.4-1.5,0.4c-0.2,0-0.9,0-2-0.1c-1.2-0.1-2.2-0.1-3.2-0.1c-1.8,0-3.6,0.1-5.4,0.2
			c-0.4,0-0.7,0.1-0.7,0.1c-0.7,0-1.2-0.1-1.5-0.4c-0.3-0.2-0.5-0.6-0.5-1.2c0-0.6,0.2-1,0.5-1.3c0.3-0.3,0.9-0.4,1.6-0.4
			c0.2,0,0.4,0,0.7,0.1c0.3,0.1,0.5,0.1,0.7,0.1c1,0,1.6-0.2,1.9-0.6C215.3,70.3,215.4,69.3,215.4,67.7z M213.9,45.1
			c0-0.8,0.3-1.4,0.8-1.9c0.5-0.5,1.1-0.8,1.9-0.8c0.7,0,1.3,0.3,1.8,0.8c0.5,0.5,0.7,1.2,0.7,1.9c0,0.7-0.2,1.3-0.7,1.9
			c-0.5,0.5-1.1,0.8-1.8,0.8c-0.8,0-1.4-0.3-1.9-0.8C214.2,46.5,213.9,45.9,213.9,45.1z"/>
	</g>
	<g>
		<path class="st0" d="M250,60.8c0-2.9-0.5-5-1.5-6.3c-1-1.3-2.6-1.9-4.9-1.9c-2.6,0-4.5,0.9-5.7,2.6c-1.2,1.8-1.8,4.5-1.8,8.4v5
			c0,1.1,0.1,1.8,0.3,2.2c0.2,0.4,0.7,0.6,1.3,0.6c0.1,0,0.3,0,0.7-0.1c0.4-0.1,0.7-0.1,1-0.1c0.7,0,1.1,0.1,1.5,0.4
			c0.3,0.3,0.5,0.7,0.5,1.3c0,0.5-0.1,0.9-0.4,1.2c-0.3,0.3-0.7,0.4-1.3,0.4c-0.1,0-0.8,0-2.1-0.1c-1.3-0.1-2.5-0.1-3.7-0.1
			c-1,0-2.1,0-3.3,0.1c-1.2,0.1-1.8,0.1-2,0.1c-0.7,0-1.2-0.1-1.5-0.3c-0.3-0.2-0.4-0.6-0.4-1.2c0-0.6,0.2-1,0.5-1.3
			c0.3-0.3,0.8-0.4,1.5-0.4c0.2,0,0.4,0,0.7,0.1c0.3,0.1,0.5,0.1,0.6,0.1c0.9,0,1.6-0.2,1.9-0.5c0.3-0.4,0.5-1.2,0.5-2.6v-12
			c0-1.4-0.2-2.3-0.5-2.8c-0.3-0.5-1-0.7-1.9-0.7h-1.5c-0.6,0-1.1-0.1-1.4-0.3c-0.3-0.2-0.4-0.6-0.4-1c0-0.5,0.2-1,0.5-1.3
			c0.3-0.3,0.8-0.4,1.5-0.4c0.1,0,0.4,0,0.8,0.1c0.5,0.1,0.9,0.1,1.3,0.1c1,0,2-0.1,3.1-0.2c0.2,0,0.4,0,0.4,0c0.6,0,1,0.1,1.3,0.4
			c0.2,0.3,0.3,0.9,0.3,1.8v1.7c1.2-1.5,2.4-2.6,3.7-3.2c1.3-0.7,2.8-1,4.6-1c3.4,0,5.8,0.8,7.3,2.5c1.5,1.6,2.3,4.3,2.3,8v7.8
			c0,1.7,0.2,2.7,0.5,3c0.3,0.4,0.9,0.5,1.9,0.5c0.2,0,0.5,0,0.7-0.1c0.3-0.1,0.5-0.1,0.6-0.1c0.7,0,1.2,0.1,1.6,0.4
			c0.4,0.3,0.5,0.7,0.5,1.3c0,0.5-0.2,0.9-0.5,1.2c-0.3,0.2-0.8,0.4-1.5,0.4c-0.2,0-0.9,0-2-0.1c-1.2-0.1-2.3-0.1-3.3-0.1
			c-1.2,0-2.4,0-3.7,0.1c-1.3,0.1-2,0.1-2.1,0.1c-0.6,0-1-0.1-1.3-0.4c-0.3-0.3-0.4-0.7-0.4-1.2c0-0.6,0.2-1,0.5-1.3
			c0.3-0.3,0.8-0.4,1.4-0.4c0.3,0,0.6,0,1,0.1c0.4,0.1,0.7,0.1,0.8,0.1c0.7,0,1.1-0.2,1.3-0.6c0.2-0.4,0.3-1.4,0.3-2.9V60.8z"/>
	</g>
	<g>
		<path class="st0" d="M279.5,50.8c1.2,0.7,2,1.6,2.6,2.7c0.6,1.1,0.9,2.3,0.9,3.7c0,2.4-0.8,4.3-2.5,5.7c-1.6,1.4-3.9,2.1-6.8,2.1
			c-1.7,0-3.5-0.4-5.2-1.2c-0.5-0.2-0.7-0.3-0.9-0.3c-0.4,0-0.8,0.2-1.1,0.6c-0.3,0.4-0.5,0.8-0.5,1.3c0,0.8,0.3,1.5,1,1.9
			c0.7,0.5,1.7,0.7,2.9,0.7c0.4,0,1,0,2,0c1,0,1.7,0,2.3,0c3.7,0,6.5,0.6,8.4,1.9c1.9,1.3,2.9,3.1,2.9,5.5c0,2.3-1.1,4.1-3.2,5.4
			c-2.1,1.4-5,2-8.6,2c-3.7,0-6.6-0.7-8.7-2c-2.1-1.3-3.2-3.2-3.2-5.5c0-1.2,0.4-2.2,1.1-3.2c0.7-1,1.7-1.8,2.9-2.3
			c-1.2-0.5-2-1.1-2.6-1.8c-0.6-0.7-0.9-1.6-0.9-2.6c0-1.1,0.3-2,1-2.8c0.6-0.8,1.5-1.4,2.7-1.7c-0.3-0.6-0.6-1.3-0.7-1.9
			c-0.2-0.6-0.2-1.3-0.2-1.9c0-2.4,0.8-4.2,2.4-5.6c1.6-1.4,3.8-2.1,6.6-2.1c0.4,0,0.8,0,1.2,0c0.4,0,0.8,0.1,1.2,0.1v-0.1
			c0-1.3,0.5-2.4,1.5-3.2c1-0.9,2.3-1.3,3.8-1.3c1.5,0,2.7,0.4,3.7,1.2c0.9,0.8,1.4,1.9,1.4,3.2c0,0.8-0.2,1.4-0.6,1.9
			c-0.4,0.5-1,0.7-1.7,0.7c-0.6,0-1.1-0.2-1.5-0.5c-0.3-0.3-0.5-0.8-0.5-1.3c0-0.3,0.1-0.7,0.4-1c0.2-0.3,0.4-0.5,0.4-0.6
			c0-0.2-0.2-0.4-0.5-0.6c-0.3-0.2-0.7-0.3-1.2-0.3c-0.7,0-1.3,0.2-1.7,0.7c-0.4,0.5-0.7,1-0.7,1.8c0,0,0,0.1,0,0.2
			C279.5,50.6,279.5,50.7,279.5,50.8z M265.9,75.2c0,1.3,0.7,2.3,2.2,3.1c1.4,0.8,3.4,1.1,5.9,1.1c2.5,0,4.4-0.4,5.9-1.2
			c1.5-0.8,2.2-1.8,2.2-3.1c0-1.3-0.7-2.3-2.2-3.1c-1.5-0.8-3.4-1.2-5.9-1.2c-2.4,0-4.4,0.4-5.9,1.2
			C266.7,72.9,265.9,73.9,265.9,75.2z M269,57.2c0,1.3,0.5,2.5,1.5,3.3c1,0.9,2.2,1.3,3.8,1.3c1.5,0,2.8-0.4,3.7-1.3
			c1-0.9,1.5-2,1.5-3.3c0-1.4-0.5-2.5-1.5-3.3c-1-0.9-2.2-1.3-3.7-1.3c-1.5,0-2.8,0.4-3.8,1.3C269.5,54.8,269,55.9,269,57.2z"/>
	</g>
	<g>
		<path class="st0" d="M310.9,68V46.7c0-1-0.2-1.7-0.6-2.2c-0.4-0.5-1-0.7-1.8-0.7c-0.5,0-1,0-1.7,0.1c-0.7,0.1-1.1,0.1-1.2,0.1
			c-0.6,0-1-0.2-1.3-0.5c-0.3-0.3-0.5-0.7-0.5-1.2c0-0.6,0.2-1,0.5-1.3c0.3-0.3,0.9-0.4,1.6-0.4c0.3,0,1.1,0,2.6,0.1
			c1.4,0.1,2.7,0.1,3.8,0.1c1.2,0,2.9,0,5-0.1c2.1-0.1,3.7-0.1,4.6-0.1c3.7,0,6.6,0.8,8.5,2.4c1.9,1.6,2.8,4,2.8,7.1
			c0,1.7-0.3,3.2-0.8,4.4c-0.6,1.2-1.4,2.2-2.6,3.1c-1,0.7-2.1,1.3-3.4,1.6c-1.3,0.3-3.3,0.5-6.1,0.5c-0.6,0-1.2,0-1.9,0
			c-0.7,0-1.1,0-1.2,0c-0.8,0-1.3,0.1-1.6,0.2c-0.3,0.2-0.4,0.5-0.4,1V68c0,1.1,0.2,1.9,0.6,2.3c0.4,0.4,1.2,0.6,2.2,0.6
			c0.3,0,0.7,0,1.3-0.1c0.6-0.1,1-0.1,1.3-0.1c0.5,0,0.9,0.2,1.3,0.5c0.4,0.3,0.5,0.8,0.5,1.3c0,0.6-0.2,1.1-0.7,1.4
			c-0.5,0.3-1.2,0.5-2.1,0.5c-0.6,0-1.7,0-3.2-0.1c-1.5-0.1-2.7-0.1-3.5-0.1c-1.4,0-2.8,0-4.3,0.1c-1.5,0.1-2.4,0.1-2.6,0.1
			c-0.7,0-1.2-0.2-1.6-0.5c-0.3-0.3-0.5-0.8-0.5-1.4c0-0.5,0.2-0.9,0.5-1.3c0.3-0.3,0.8-0.5,1.3-0.5c0.3,0,0.7,0,1.3,0.1
			c0.5,0.1,0.9,0.1,1.2,0.1c1.1,0,1.8-0.2,2.3-0.7C310.6,69.8,310.9,69.1,310.9,68z M315,54.9c0,0.6,0.2,1,0.5,1.2
			c0.4,0.2,1.2,0.3,2.6,0.3c4,0,6.7-0.5,8.2-1.4c1.5-0.9,2.2-2.5,2.2-4.8c0-2.3-0.7-4-2-4.9c-1.3-1-3.5-1.5-6.7-1.5
			c-2.3,0-3.7,0.2-4.2,0.5c-0.5,0.3-0.8,1.1-0.8,2.2V54.9z"/>
	</g>
	<g>
		<path class="st0" d="M352.7,71.1c-1,1.2-2.2,2.2-3.6,2.8c-1.5,0.6-3.1,1-5,1c-2.6,0-4.7-0.6-6.1-1.9c-1.4-1.3-2.1-3-2.1-5.4
			c0-2.1,0.6-3.8,1.9-4.9c1.2-1.1,3.3-1.9,6.3-2.3c0.2,0,0.4-0.1,0.7-0.1c4.8-0.7,7.2-2.1,7.2-4.1c0-1.3-0.5-2.3-1.4-3
			s-2.2-1.1-3.9-1.1c-1.4,0-2.5,0.2-3.5,0.7c-1,0.5-1.5,0.9-1.5,1.5c0,0.1,0.2,0.4,0.6,0.9c0.4,0.5,0.6,0.9,0.6,1.4
			c0,0.7-0.2,1.2-0.7,1.6c-0.5,0.4-1.1,0.7-1.8,0.7c-0.9,0-1.6-0.3-2.1-0.9c-0.5-0.6-0.8-1.4-0.8-2.4c0-1.9,0.9-3.4,2.7-4.6
			c1.8-1.2,4.2-1.8,7.1-1.8c3.1,0,5.3,0.7,6.6,2c1.3,1.3,2,3.5,2,6.5v11.2c0,1.1,0.1,1.8,0.3,2.2c0.2,0.4,0.6,0.6,1.2,0.6
			c0.6,0,1-0.2,1.3-0.6c0.3-0.4,0.4-1.1,0.4-2v-2.5c0-0.7,0.1-1.2,0.3-1.5c0.2-0.3,0.6-0.5,1.1-0.5c0.5,0,0.9,0.2,1.1,0.5
			c0.2,0.3,0.3,0.9,0.3,1.7v3.6c0,1.4-0.4,2.5-1.3,3.4c-0.9,0.8-2.1,1.2-3.7,1.2c-1.3,0-2.3-0.3-3-1
			C353.2,73.2,352.8,72.3,352.7,71.1z M352.1,65.4v-3.8c-1,0.8-3.2,1.4-6.6,1.9h0c-2.4,0.3-4,0.8-4.8,1.4c-0.8,0.6-1.2,1.6-1.2,2.9
			c0,1.1,0.4,2,1.3,2.7c0.9,0.7,2,1.1,3.3,1.1c2.5,0,4.4-0.6,5.9-1.7C351.4,68.8,352.1,67.3,352.1,65.4z"/>
	</g>
	<g>
		<path class="st0" d="M373.4,67.8c0,1.5,0.1,2.5,0.4,2.9c0.2,0.4,0.8,0.7,1.6,0.7c0.1,0,0.3,0,0.8-0.1c0.4-0.1,0.8-0.1,1.2-0.1
			c0.8,0,1.3,0.1,1.7,0.4c0.3,0.3,0.5,0.7,0.5,1.3c0,0.5-0.2,0.9-0.5,1.2c-0.3,0.3-0.8,0.4-1.5,0.4c-0.1,0-0.9,0-2.3-0.1
			S372.4,74,371,74c-1.1,0-2.2,0-3.4,0.1c-1.2,0.1-1.8,0.1-2,0.1c-0.7,0-1.2-0.1-1.4-0.3c-0.3-0.2-0.4-0.6-0.4-1.2
			c0-0.6,0.2-1,0.5-1.3c0.3-0.3,0.8-0.4,1.5-0.4c0.2,0,0.4,0,0.7,0.1c0.3,0.1,0.5,0.1,0.7,0.1c1,0,1.6-0.2,1.9-0.6
			c0.3-0.4,0.5-1.4,0.5-2.9V57.5c0-2.1-0.2-3.5-0.5-4c-0.3-0.5-1-0.8-1.9-0.8h-1.5c-0.7,0-1.1-0.1-1.4-0.3c-0.3-0.2-0.4-0.6-0.4-1
			c0-0.5,0.2-1,0.5-1.3c0.3-0.3,0.8-0.4,1.4-0.4c0.1,0,0.4,0,0.8,0.1c0.5,0.1,0.9,0.1,1.3,0.1c1,0,2-0.1,3-0.2c0.2,0,0.3,0,0.4,0
			c0.6,0,1.1,0.1,1.3,0.4c0.2,0.3,0.4,0.9,0.4,1.7l0,1.4c0.7-1.3,1.5-2.3,2.6-3s2.4-1,3.8-1c2,0,3.7,0.6,5,1.9c1.3,1.3,2,2.9,2,4.9
			c0,1.4-0.4,2.5-1.1,3.3c-0.7,0.8-1.6,1.2-2.9,1.2c-0.9,0-1.5-0.2-2-0.7c-0.5-0.4-0.7-1-0.7-1.8c0-0.5,0.1-0.9,0.4-1.2
			c0.2-0.3,0.6-0.5,1.1-0.7c0.1,0,0.2-0.1,0.4-0.1c0.6-0.1,0.9-0.5,0.9-1.1c0-0.7-0.4-1.3-1.1-1.9c-0.7-0.6-1.6-0.9-2.5-0.9
			c-2,0-3.4,0.8-4.2,2.5c-0.8,1.6-1.2,4.6-1.2,8.7V67.8z"/>
	</g>
	<g>
		<path class="st0" d="M391.3,49.9c0.3,0,0.5-0.1,0.6-0.2c0.1-0.1,0.2-0.3,0.2-0.6v-4.7c0-0.4,0.2-0.8,0.5-1.1
			c0.3-0.3,0.8-0.4,1.3-0.4c0.5,0,1,0.1,1.3,0.4c0.4,0.3,0.5,0.7,0.5,1.1V49c0,0.4,0,0.7,0.1,0.8c0.1,0.1,0.3,0.1,0.6,0.1h4.9
			c0.6,0,1.1,0.1,1.5,0.4c0.3,0.3,0.5,0.7,0.5,1.2c0,0.6-0.2,1-0.6,1.3c-0.4,0.3-0.9,0.4-1.7,0.4h-4.7c-0.3,0-0.4,0.1-0.5,0.3
			c-0.1,0.2-0.2,0.6-0.2,1.1v10.4c0,2.8,0.2,4.5,0.7,5.3c0.5,0.8,1.3,1.1,2.6,1.1c1.1,0,1.9-0.4,2.5-1.1c0.6-0.7,0.9-1.8,0.9-3.1
			c0-0.3,0-0.7,0-1.3c0-0.6,0-1,0-1.3c0-0.8,0.1-1.3,0.4-1.7c0.3-0.4,0.7-0.6,1.3-0.6c0.7,0,1.3,0.2,1.6,0.7
			c0.3,0.5,0.5,1.4,0.5,2.6c0,2.9-0.6,5.2-1.9,6.7c-1.3,1.6-3.1,2.3-5.5,2.3c-2.4,0-4.1-0.6-5.1-1.8c-1-1.2-1.6-3.3-1.6-6.2V54.7
			c0-0.6-0.1-1-0.2-1.2c-0.1-0.2-0.3-0.2-0.5-0.2h-1.9c-0.6,0-1-0.1-1.3-0.4c-0.3-0.3-0.4-0.7-0.4-1.3c0-0.6,0.1-1,0.4-1.3
			c0.3-0.3,0.7-0.4,1.3-0.4H391.3z"/>
	</g>
	<g>
		<path class="st0" d="M413.5,72.4V73c0,0.6-0.1,1.1-0.4,1.5c-0.3,0.3-0.7,0.5-1.2,0.5c-0.5,0-0.9-0.2-1.2-0.5
			c-0.2-0.3-0.4-0.8-0.4-1.5c0-0.6,0-1.3,0.1-2.2c0.1-0.9,0.1-1.5,0.1-1.8c0-0.7,0-1.4-0.1-2.3c-0.1-0.8-0.1-1.3-0.1-1.5
			c0-0.5,0.2-0.9,0.5-1.3c0.3-0.4,0.7-0.5,1.2-0.5c0.5,0,0.9,0.2,1.1,0.6c0.2,0.4,0.3,1,0.3,2v0.7c0,1.5,0.7,2.8,2.1,3.7
			c1.4,0.9,3.2,1.4,5.6,1.4c1.8,0,3.2-0.4,4.1-1.1c1-0.8,1.5-1.8,1.5-3.2c0-0.5-0.2-1.1-0.5-1.6c-0.3-0.5-0.7-0.9-1.3-1.2
			c-0.4-0.3-1.4-0.5-3-0.7c-1.6-0.2-2.9-0.4-3.8-0.6c-2.5-0.5-4.2-1.3-5.3-2.4c-1.1-1.1-1.7-2.6-1.7-4.6c0-2.2,0.8-3.9,2.4-5.3
			c1.6-1.3,3.8-2,6.6-2c1.3,0,2.5,0.2,3.6,0.6c1.1,0.4,2.1,0.9,2.9,1.7c0-0.1,0-0.2,0-0.3c0-0.1,0-0.2,0-0.4c0-0.5,0.1-0.8,0.3-1.1
			c0.2-0.3,0.5-0.4,0.9-0.4c0.3,0,0.6,0.2,0.9,0.5c0.2,0.3,0.4,0.7,0.4,1.1c0,0,0,0.2,0,0.4c-0.2,1.6-0.3,3.4-0.3,5.3v1.4
			c0,0.6-0.1,1-0.3,1.3c-0.2,0.3-0.6,0.4-1.1,0.4c-0.5,0-0.8-0.1-1-0.4c-0.2-0.3-0.3-0.8-0.3-1.5V57c0-1.4-0.5-2.6-1.6-3.4
			c-1.1-0.8-2.5-1.3-4.3-1.3c-1.7,0-3,0.4-4,1.1c-1,0.7-1.4,1.7-1.4,3c0,0.5,0.1,1,0.3,1.4c0.2,0.4,0.5,0.7,0.8,1
			c0.8,0.6,2.3,1.1,4.7,1.3c1,0.1,1.8,0.2,2.3,0.3c2.7,0.4,4.6,1.1,5.8,2.2c1.2,1,1.8,2.5,1.8,4.4c0,2.4-0.9,4.4-2.6,5.9
			c-1.7,1.5-4,2.2-6.9,2.2c-1.6,0-3-0.2-4.3-0.7C415.3,73.8,414.2,73.2,413.5,72.4z"/>
	</g>
</g>
<g>
	<g>
		<path class="st0" d="M41.1,76.9c0.1,0.7,0.1,1.2,0.2,1.5c0,0.4,0.1,0.6,0.1,0.9c0,1.6-0.4,2.9-1.1,3.6c-0.7,0.8-1.8,1.2-3.4,1.2
			c-1.3,0-2.3-0.5-3.1-1.4c-0.8-0.9-1.2-2.1-1.2-3.5c0-0.9,0.1-2.6,0.4-5.3c0.3-2.7,0.4-4.9,0.4-6.7c0-3.2-0.1-6.3-0.4-9.5
			c-0.3-3.2-0.4-4.8-0.4-4.9c0-1.9,0.4-3.4,1.2-4.4c0.8-1,1.9-1.6,3.3-1.6c1.5,0,2.7,0.6,3.4,1.7c0.8,1.1,1.2,2.8,1.2,5.1v3.9
			c0,5.4,1.8,9.7,5.5,13c3.7,3.3,8.5,4.9,14.5,4.9c5.6,0,10-1.3,13.1-4c3.2-2.7,4.7-6.4,4.7-11.2c0-3.9-1-6.9-3.1-8.8
			c-2.1-1.9-7.5-3.8-16.2-5.7c-0.2,0-0.5-0.1-0.9-0.2c-9-1.9-14.8-3.7-17.4-5.5c-2.8-1.9-4.9-4.2-6.3-7c-1.4-2.7-2.1-5.8-2.1-9.2
			c0-7,2.3-12.6,7-16.9c4.7-4.3,10.8-6.5,18.4-6.5c3.6,0,6.9,0.5,10,1.6c3.1,1.1,5.9,2.6,8.3,4.7V6.1c0-1.4,0.3-2.4,1-3.2
			c0.7-0.8,1.6-1.2,2.7-1.2c1.2,0,2.2,0.3,3,0.9c0.8,0.6,1.2,1.4,1.2,2.3c0,0-0.1,1-0.4,3c-0.3,2-0.4,3.9-0.4,5.8
			c0,4.7,0.2,9.4,0.7,14.1c0.1,0.9,0.1,1.4,0.1,1.6c0,1.8-0.3,3.2-1,4c-0.6,0.8-1.7,1.2-3.2,1.2c-1,0-1.9-0.3-2.7-0.8
			c-0.8-0.5-1.3-1.2-1.5-2c-0.3-1.2-0.5-3.1-0.5-5.7c0-2.6-0.1-4.7-0.4-6.1c-0.5-3.4-2.4-6.1-5.5-8.1c-3.2-2-7.2-3.1-12-3.1
			c-4.6,0-8.2,1.2-10.9,3.6c-2.6,2.4-3.9,5.8-3.9,10c0,3.7,1.2,6.6,3.5,8.6c2.4,2,7.5,3.8,15.3,5.6c0.7,0.2,1.8,0.4,3.3,0.7
			C74.4,39.1,80,41,82.5,43c2.3,1.8,4,4.1,5.2,6.7c1.1,2.6,1.7,5.6,1.7,9.1c0,7.8-2.5,13.9-7.4,18.5c-4.9,4.6-11.6,6.8-20,6.8
			c-4.3,0-8.1-0.6-11.5-1.8C47.1,81.2,44,79.4,41.1,76.9z"/>
	</g>
</g>
<g>
	<path class="st0" d="M429.6,79.5h-13.3v7.5h-10.3v19.4h19.4V92.7h4.1V79.5z M424.5,105.3h-17.4V87.9h9.3v4.8h8.1V105.3z
		 M424.5,91.7h-7.1v-3.8h7.1V91.7z M428.6,91.7h-3.1v-4.8h-8.1v-6.5h11.3V91.7z"/>
</g>
<g>
	<path class="st0" d="M82.5,88.3H31c-0.3-2.1-1.9-3.7-4-3.9V66.4h-1v17.9c-2.1,0.2-3.8,1.8-4.2,3.9H-0.2v1h22
		c0.2,2.3,1.9,4.1,4.2,4.3V112h1V93.5c2.2-0.3,3.9-2,4-4.3h51.4V88.3z"/>
</g>
</svg>
